<svg version="1.1" xmlns="http://www.w3.org/2000/svg" style="display: block;" viewBox="0 0 1988 2048" width="1850" height="1906" preserveAspectRatio="none">
<path transform="translate(0,0)" fill="rgb(0,0,0)" d="M 875.739 248.01 C 892.023 248.389 908.295 249.353 924.884 249.678 C 968.455 250.635 1070.73 233.038 1071.18 299.693 C 1071.37 327.938 1061.05 340.309 1035.2 349.036 C 1059.72 377.842 1054.87 407.52 1095.8 394.606 C 1097.92 393.938 1100.09 398.68 1101.21 400.471 C 1106.1 349.712 1106.54 298.574 1099.65 248.013 C 1116.11 248.717 1134.53 249.791 1150.84 249.513 C 1175.93 248.889 1201.02 248.442 1226.11 248.172 C 1232.49 248.11 1260.57 246.644 1263.64 251.223 C 1266.53 255.534 1273.47 286.698 1272.47 291.449 C 1270.2 293.693 1268.43 293.463 1265.2 293.794 C 1263.03 291.695 1260.89 289.575 1258.76 287.435 C 1256.77 285.455 1252.56 281.375 1249.91 281.171 C 1225.65 279.308 1194.17 280.224 1170.04 280.358 C 1169.46 291.227 1169.08 302.106 1168.93 312.99 C 1195.56 313.064 1216.41 313.581 1242.93 309.211 L 1243.84 309.991 L 1243.5 314.241 C 1242.27 328.511 1242.6 335.417 1244.26 349.714 C 1225.29 343.826 1190.07 345.094 1168.91 345.258 C 1168.92 356.443 1169.59 368.064 1170.07 379.271 C 1189.42 379.366 1208.94 379.512 1228.28 379.432 C 1253.51 379.327 1262.41 371.503 1278.73 354.76 L 1287.77 358.877 C 1282.51 370.118 1268.6 403.037 1260.91 409.887 C 1257.08 411.194 1252.5 411.361 1248.44 411.388 C 1214.24 411.619 1179.83 410.916 1145.65 410.1 C 1139.28 409.948 1103.02 411.913 1100.2 411.122 C 1100.27 407.95 1100.79 407.782 1099.47 405.369 C 1080.61 413.44 1069.02 416.867 1048.08 416.568 C 1022.07 416.197 999.005 410.017 985.776 385.587 C 982.281 379.133 976.731 368.221 971.618 363.256 C 962.834 354.727 954.895 355.594 943.785 355.812 C 944.17 375.664 945.753 392.063 948.426 411.65 C 919.312 410.134 905.041 410.087 875.871 411.625 C 883.194 369.802 882.877 289.76 875.739 248.01 z M 943.212 323.35 C 959.213 323.46 982.287 325.059 996.627 317.925 C 1001.88 312.882 1002.74 310.903 1003.5 303.57 C 1006.47 275.113 962.958 280.043 944.158 280.405 C 943.807 294.307 943.116 309.546 943.212 323.35 z"/>
<path transform="translate(0,0)" fill="rgb(254,254,254)" d="M 884.62 255.846 C 898.486 256.217 912.609 257.286 926.994 257.042 C 963.376 256.425 1011.02 251.079 1044.89 266.305 C 1052.84 270.348 1060.79 278.769 1062.36 287.736 C 1068.91 325.028 1054.97 337.292 1021.27 344.656 C 1033.35 356.938 1037.75 365.625 1046.28 380.209 C 1055.06 395.216 1060 401.86 1076.84 406.286 C 1070.36 407.536 1063.59 408.164 1057.01 408.908 C 1030.38 409.176 1003.43 406.694 990.647 379.305 C 976.61 349.22 966.457 347.749 935.995 348.21 C 936.672 367.695 937.557 384.509 939.927 403.846 C 920.311 402.138 904.162 402.503 884.656 403.831 C 889.03 356.278 890.439 303.299 884.62 255.846 z M 943.212 323.35 C 959.213 323.46 982.287 325.059 996.627 317.925 C 1001.88 312.882 1002.74 310.903 1003.5 303.57 C 1006.47 275.113 962.958 280.043 944.158 280.405 C 943.807 294.307 943.116 309.546 943.212 323.35 z"/>
<path transform="translate(0,0)" fill="rgb(0,0,0)" d="M 937.226 272.968 L 956.974 272.887 C 978.941 272.784 1012.43 271.816 1010.85 302.797 C 1010.35 312.493 1008.88 316.626 1001.82 323.32 C 983.709 333.408 957.02 330.926 935.932 330.818 C 935.779 311.526 936.211 292.234 937.226 272.968 z M 943.212 323.35 C 959.213 323.46 982.287 325.059 996.627 317.925 C 1001.88 312.882 1002.74 310.903 1003.5 303.57 C 1006.47 275.113 962.958 280.043 944.158 280.405 C 943.807 294.307 943.116 309.546 943.212 323.35 z"/>
<path transform="translate(0,0)" fill="rgb(254,254,254)" d="M 1108.12 255.876 C 1157.28 257.782 1208.81 255.767 1258.43 255.534 C 1259.79 263.429 1261.84 272.258 1263.48 280.18 C 1249.8 270.49 1231.14 272.772 1214.94 272.813 L 1163.03 272.961 C 1162.04 288.643 1161.86 304.605 1161.52 320.335 C 1184.65 320.363 1213.44 321.242 1235.75 317.854 C 1235.13 326.559 1235.14 331.113 1235.62 339.854 C 1214.6 336.893 1183.52 337.828 1161.56 337.868 L 1161.71 348.75 C 1161.92 361.429 1162.36 374.104 1163.01 386.769 C 1187.61 386.612 1212.3 387.552 1236.87 386.389 C 1252.61 385.643 1262.75 379.659 1274.44 369.787 L 1257.91 403.978 C 1207.87 404.086 1157.44 401.439 1107.92 403.894 C 1113.62 364.161 1113.57 295.56 1108.12 255.876 z"/>
<path transform="translate(0,0)" fill="rgb(0,0,0)" d="M 1355.94 248.108 C 1368.06 247.893 1381.61 249.359 1393.98 249.371 C 1406.86 249.523 1420.81 247.168 1433.52 249.391 C 1445.71 251.524 1453.68 271.027 1459.09 281.021 L 1482.79 324.728 C 1500.36 356.687 1516.71 381.996 1537.12 411.86 C 1503.93 409.945 1486.97 409.855 1453.62 411.516 C 1450.95 404.55 1442.84 382.506 1439.02 377.715 L 1352.11 377.796 C 1346.26 389.061 1341.58 399.964 1336.72 411.656 C 1316.03 409.001 1298.94 409.308 1278.6 413.278 C 1288.21 401.525 1297.55 389.548 1306.6 377.355 C 1331.84 343.105 1358.01 305.037 1379.11 268.31 C 1382.87 261.78 1358.37 259.338 1355.99 259.058 L 1355.94 248.108 z M 1397.5 345.248 L 1423.9 345.224 C 1415.73 329.494 1407.14 313.989 1398.13 298.724 C 1389.5 312.727 1377.68 330.948 1370.27 345.253 L 1397.5 345.248 z"/>
<path transform="translate(0,0)" fill="rgb(254,254,254)" d="M 1406.99 256.576 C 1415.32 255.886 1433.29 253.023 1438.51 260.922 C 1451.25 280.176 1461.63 301.436 1472.74 321.742 C 1487.85 349.839 1504.42 377.128 1522.37 403.499 C 1499.48 402.186 1481.4 402.538 1458.72 403.909 C 1454.01 392.339 1449.61 381.397 1444.24 370.11 L 1405.5 370.123 L 1347.73 370.097 C 1342.05 380.975 1336.8 392.078 1332.02 403.379 C 1320.2 402.533 1308.35 402.406 1296.52 402.997 C 1330.26 359.424 1359.38 314.654 1389.1 268.371 C 1385.59 262.796 1384.67 261.349 1380.04 256.504 C 1389.38 256.859 1397.62 257.327 1406.99 256.576 z M 1397.5 345.248 L 1423.9 345.224 C 1415.73 329.494 1407.14 313.989 1398.13 298.724 C 1389.5 312.727 1377.68 330.948 1370.27 345.253 L 1397.5 345.248 z"/>
<path transform="translate(0,0)" fill="rgb(0,0,0)" d="M 1398.16 284.574 C 1407.01 296.062 1428.51 337.97 1436.21 352.833 L 1396.5 352.816 L 1357.17 352.819 C 1370.38 329.801 1384.04 307.048 1398.16 284.574 z M 1397.5 345.248 L 1423.9 345.224 C 1415.73 329.494 1407.14 313.989 1398.13 298.724 C 1389.5 312.727 1377.68 330.948 1370.27 345.253 L 1397.5 345.248 z"/>
<path transform="translate(0,0)" fill="rgb(0,0,0)" d="M 1541.57 247.997 C 1551.42 248.282 1561.37 249.222 1571.24 249.445 C 1585.25 249.761 1599.48 248.73 1613.49 247.954 C 1612.31 259.86 1610.1 272.429 1609.61 284.422 C 1608.35 315.636 1608.43 348.133 1610.09 379.254 C 1628.89 379.294 1647.75 379.515 1666.55 379.441 C 1688.02 379.356 1697.88 369.892 1711.68 355.557 L 1721.19 359.591 L 1712.36 377.369 C 1707.28 386.813 1702.73 399.214 1696.24 407.663 C 1694.51 410.15 1689.42 411.11 1686.47 411.108 C 1637.77 411.074 1590.38 409.928 1541.6 411.538 C 1547.77 355.967 1548.63 303.481 1541.57 247.997 z"/>
<path transform="translate(0,0)" fill="rgb(254,254,254)" d="M 1549.7 255.939 C 1570.99 256.974 1583.98 256.972 1605.29 255.865 C 1599.12 293.962 1601.18 348.042 1603.19 386.766 C 1622.94 386.702 1642.78 387.017 1662.53 386.858 C 1682.65 386.695 1691.55 383.878 1706.95 371.015 L 1700.32 384.705 C 1697.25 390.953 1693.91 398.266 1690.11 403.986 C 1641.84 404.07 1598.26 401.862 1549.72 403.963 C 1554.5 366.965 1556.14 292.563 1549.7 255.939 z"/>
<path transform="translate(0,0)" fill="rgb(0,0,0)" d="M 1014.51 0 L 1063.47 0 L 1064.44 0.150089 C 1073.61 1.49079 1086.43 1.72208 1095.98 2.391 C 1111.03 3.55823 1126.05 5.20579 1141 7.33116 C 1225.24 19.7222 1306.5 47.4208 1380.77 89.0589 C 1388.11 93.1702 1427.05 115.874 1431.44 121.03 C 1429.03 129.429 1419.35 127.952 1412.48 126.544 C 1400.22 124.029 1388.19 120.026 1376.03 116.897 C 1163.32 62.1617 952.145 132.989 797.591 288.664 C 807.826 305.452 817.429 325.376 827.424 342.789 C 841.241 366.394 856.007 389.431 871.685 411.842 C 839.344 410.126 820.607 409.701 788.064 411.599 C 783.825 400.175 779.253 388.879 774.351 377.724 C 758.181 377.713 740.257 378.077 724.229 377.515 C 705.053 407.1 689.82 432.261 674.594 464.251 C 620.385 575.601 604.402 701.718 629.122 823.071 C 639.04 869.622 652.154 920.065 674.769 962.475 L 676.085 961.692 C 701.565 946.72 735.467 940.851 746.308 906.678 C 749.312 897.207 745.507 889.204 744.572 879.504 C 743.461 867.988 746.844 857.295 750.854 846.789 C 755.486 834.655 780.334 819.109 773.453 807.644 C 772.127 805.434 771.704 804.938 769.522 803.972 C 763.47 803.917 755.546 809.994 751.3 814.378 C 741.409 824.59 732.945 835.667 732.426 850.423 C 732.047 861.184 740.206 867.389 736.484 873.433 C 731.554 873.118 727.196 868.178 724.042 864.45 C 691.35 825.823 720.859 777.806 753.797 751.171 C 760.509 745.701 767.738 740.9 775.382 736.835 C 784.044 732.26 803.345 725.915 808.353 720.09 C 808.604 700.27 753.571 719.858 748.058 730.92 C 746.989 733.064 734.065 745.632 729.686 742.596 C 729.116 735.709 736.189 726.34 740.532 721.346 C 752.955 707.06 771.619 695.11 791.032 694.297 C 808.222 693.577 824.736 697.666 842.339 697.89 L 843.386 697.891 C 830.368 693.547 807.115 684.226 807.71 667.34 C 809.618 664.381 808.363 665.439 811.62 664.066 C 819.049 664.552 831.529 670.336 839.08 672.869 C 857.88 678.541 884.318 663.312 897.851 651.646 C 942.558 613.107 948.901 526.966 1005.88 500.857 C 1041.19 484.679 1111.86 476.886 1139.66 511.34 C 1168.78 547.433 1161.02 596.122 1155.99 638.71 C 1156.26 645.395 1156.49 652.15 1157.61 658.851 C 1161.27 680.796 1149.67 706.618 1136.81 723.523 C 1126.25 737.399 1091.55 720.982 1084.56 728.921 C 1070.9 744.442 1091.05 769.864 1100.46 782.647 C 1109.97 797.966 1110.41 809.006 1124.14 820.869 C 1143.54 842.413 1182.36 853.72 1183.1 886.956 C 1184.13 910.902 1163.32 938.939 1181.88 960.389 C 1188.47 968.003 1200.01 966.869 1207.64 962.37 C 1241.82 942.214 1278.62 927.307 1314.71 910.454 L 1314.79 909.467 C 1315.15 905.764 1316.5 897.966 1318.16 894.595 C 1319.61 891.651 1324.05 888.802 1325.15 885.037 C 1311.77 870.702 1271.58 846.434 1259.32 828.927 C 1256.89 825.448 1253.29 795.191 1252.34 787.957 C 1263.71 779.341 1284.62 761.203 1297.89 758.462 C 1300.31 757.961 1313.06 759.415 1316.6 759.947 C 1328.05 761.665 1331.83 765.289 1338.27 773.814 L 1338.66 773.153 C 1326.24 748.453 1310.91 727.486 1307.81 700.077 C 1306.95 692.489 1304.91 685.62 1307.93 678.213 C 1311.64 669.129 1320.63 639.665 1326.35 633.792 C 1329.99 633.607 1351.54 644.576 1352.7 646.236 C 1363.15 661.12 1375.22 691.43 1382.59 708.076 L 1384.28 696.523 C 1386.04 697.265 1386.2 698.395 1387.45 700.422 C 1387.51 686.611 1380.49 643.659 1385.98 632.904 C 1394.31 616.571 1410.13 593.752 1421.18 578.444 C 1426.24 571.727 1448.79 588.721 1452.83 592.585 C 1453.96 595.245 1453.06 596.992 1452.28 599.864 L 1452.64 600.22 L 1455.76 595.069 C 1468.04 614.441 1479.78 634.188 1491.99 653.413 C 1492.05 663.126 1489.23 675.179 1486.86 684.739 C 1481.64 705.87 1477.95 727.723 1472.92 748.823 C 1478.47 746.29 1496.19 737.064 1500.84 738.874 C 1507.6 741.508 1535.94 761.042 1538.47 766.818 C 1537.91 768.906 1537.41 770.844 1536.92 772.952 C 1537.84 773.495 1538.75 774.038 1539.66 774.582 C 1541.18 786.9 1546.63 812.135 1538.56 822.068 C 1532.78 829.193 1512.33 841.317 1510.88 848.73 C 1513.34 848.091 1512.42 848.468 1514.48 846.748 C 1520.66 845.461 1532.08 847.438 1538.5 848.686 C 1541.27 855.523 1550.3 872.378 1547.21 878.964 C 1542.84 888.293 1521.01 898.892 1511.41 901.504 C 1506.43 902.862 1478.26 902.768 1476.88 905.602 C 1475.68 908.06 1476.5 910.576 1475.85 913.022 C 1474.72 917.258 1465.08 921.651 1461.12 923.379 C 1419.96 941.348 1389.45 915.293 1363.21 922.75 C 1322.01 934.461 1287.3 976.699 1254.87 1003.15 C 1239.79 1015.44 1223.09 1025.92 1205.97 1035.15 C 1199.42 1038.68 1192.04 1041.41 1184.65 1042.41 C 1173.07 1043.99 1160.41 1040.02 1154.58 1053.55 C 1149.36 1065.66 1145.7 1136.84 1150.72 1148.52 C 1152.55 1152.8 1155.6 1156.43 1159.99 1158.17 C 1171.09 1162.56 1193.15 1159.2 1205.48 1159.15 C 1227.99 1159.04 1250.57 1160.35 1273.06 1161.06 C 1315.85 1162.4 1395.27 1160.67 1416.98 1206.55 C 1427.07 1227.88 1421.22 1251.38 1416.99 1273.33 C 1415.84 1279.28 1413.96 1286.97 1414.96 1293.02 C 1415.43 1295.87 1416.99 1297.29 1419.65 1298.1 C 1438.28 1303.75 1545.33 1245.4 1567.47 1231.84 C 1582.83 1222.43 1596.61 1209.55 1612.67 1201.49 C 1617.17 1199.22 1619.79 1197.84 1624.63 1199.73 C 1626.3 1202.4 1626.58 1204.15 1625.79 1207.25 C 1622.59 1219.77 1608.81 1232.82 1600.53 1242.6 C 1540.73 1313.24 1467.46 1370.1 1386.26 1414.16 C 1340.01 1439.25 1291.26 1456.76 1240.87 1471.54 C 1222.74 1476.86 1188.48 1483.77 1173.64 1490.98 C 1154.97 1500.04 1060.97 1591.7 1045.91 1610.07 C 1038.67 1618.9 1032.6 1628.01 1029.31 1639.07 C 1023.99 1656.92 1029.83 1672.28 1038.43 1687.79 C 1047.98 1705.02 1058.66 1721.52 1066.65 1739.59 C 1085.96 1783.25 1087.89 1836.18 1074.84 1882 C 1062.41 1925.64 1033.73 1966.95 1034.08 2013.44 C 1034.19 2027.51 1045.67 2038.59 1029.79 2048 L 1021.28 2048 C 1003.65 2043.84 986.146 2032.63 972.504 2020.92 C 911.946 1968.95 876.751 1891.35 885.175 1811.1 C 887.434 1789.58 895.176 1771.49 895.688 1751.23 C 895.767 1748.11 893.936 1745.98 891.647 1744.22 C 884.64 1743.03 878.012 1748.16 872.632 1752.1 C 800.861 1804.65 703.302 1830.94 622.401 1782.41 C 613.65 1777.16 587.052 1764.9 592.09 1752.42 C 595.941 1742.87 623.471 1733.15 631.481 1725.84 C 684.106 1675.65 714.173 1594.52 790.764 1573.83 C 818.953 1567.79 852.038 1574.13 879.717 1580.96 C 961.775 1601.23 1000.47 1598.52 1023.47 1510.27 C 887.878 1500.24 756.748 1457.45 641.343 1385.57 C 474.635 1281.74 348.425 1120.04 303.723 927.308 C 289.058 864.079 286.283 818.946 285.853 755.399 C 285.198 658.526 298.816 569.343 334.19 478.664 C 341.42 460.13 355.45 426.279 365.927 409.531 C 351.923 410.511 337.305 410.966 323.236 411.59 C 330.193 357.262 330.179 302.268 323.194 247.944 C 352.804 249.608 366.113 249.567 395.343 247.957 C 389.738 290.056 389.633 321.579 391.251 364.229 C 398.951 351.124 407.271 338.394 416.185 326.082 C 417.594 298.592 413.757 271.14 412.467 244.205 C 415.234 242.665 417.018 243.229 420.564 243.262 C 431.853 251.547 448.77 261.05 461.17 268.611 L 462.178 267.241 C 473.048 252.696 503.362 222.632 516.666 210.119 C 617.54 115.362 741.805 49.1462 876.715 18.2638 C 907.37 11.3665 938.416 6.34155 969.682 3.2168 C 982.766 1.91973 1001.68 1.96618 1013.55 0.15659 L 1014.51 0 z M 871.007 1027.41 C 860.965 1045.69 848.945 1063.6 825.258 1056.55 L 823.888 1054.94 C 825.224 1046.82 835.583 1037.07 841.259 1030.06 C 848.455 1021.03 851.654 1017.19 855.403 1006.41 C 854.34 1001.59 853.294 996.327 851.99 991.605 C 850.672 996.165 848.478 1004.44 846.137 1008.32 C 831.064 1033.3 807.878 1034.64 805.757 1068.32 C 801.182 1063.75 795.395 1058.39 795.034 1051.47 C 793.878 1029.33 839.416 1008.12 829.272 986.848 C 818.336 986.471 793.485 1020.97 786.97 1029.76 C 777.555 1042.47 772.476 1055.32 771.485 1070.99 C 771.233 1074.98 769.953 1084.54 765.479 1085.63 C 759.758 1081.04 756.326 1061.97 755.498 1054.72 C 754.406 1045.12 754.305 1035.43 755.197 1025.81 C 756.119 1016.71 763.559 989.365 761.988 985.002 C 754.04 982.729 726.69 1005.27 724.316 1011.98 C 725.441 1013.97 726.476 1015.78 727.682 1017.73 C 723.826 1016.93 720.689 1014.93 717.175 1013.07 C 725.119 997.59 731.402 988.476 746.242 978.531 C 756.544 971.626 762.911 970.505 769.881 959.98 C 769.773 954.789 770.137 947.111 767.546 942.781 C 729.584 971.164 729.313 982.15 676.597 966.992 C 681.878 978.32 687.207 989.629 692.481 1000.96 C 717.703 1055.14 756.252 1103.81 797.129 1147.05 C 804.529 1154.88 826.154 1180.96 837.993 1175.58 C 845.732 1167.55 849.775 1142.91 854.331 1130.9 C 867.961 1094.99 882.077 1066.41 871.007 1027.41 z M 936.79 1258.87 C 962.926 1259.4 961.359 1233.02 970.885 1213.49 C 995.868 1162.26 1021.58 1121.84 1013.81 1061.61 C 1011.02 1039.97 997.613 954.581 965.92 956.724 C 960.536 961.513 958.265 965.112 956.008 971.974 C 944.761 1006.17 941.188 1046.06 926.43 1078.91 C 911.843 1109.17 904.352 1140.9 895.729 1173.12 C 892.325 1185.84 887.739 1197.33 886.058 1210.55 C 883.033 1234.36 916.721 1254.6 936.79 1258.87 z"/>
<path transform="translate(0,0)" fill="rgb(254,254,254)" d="M 870.46 1014.82 C 896.108 1068.61 865.296 1103.63 852.25 1155.36 C 846.689 1177.41 837.686 1193.73 815.515 1172.51 C 771.514 1130.4 729.582 1080.06 699.668 1026.84 C 682.791 996.81 670.079 962.836 655.68 931.619 C 633.408 879.455 619.912 816.01 614.592 759.504 C 602.101 626.834 642.285 489.004 717.279 379.687 C 719.092 377.046 721.508 377.547 724.229 377.515 C 705.053 407.1 689.82 432.261 674.594 464.251 C 620.385 575.601 604.402 701.718 629.122 823.071 C 639.04 869.622 652.154 920.065 674.769 962.475 L 676.085 961.692 C 701.565 946.72 735.467 940.851 746.308 906.678 C 749.312 897.207 745.507 889.204 744.572 879.504 C 743.461 867.988 746.844 857.295 750.854 846.789 C 755.486 834.655 780.334 819.109 773.453 807.644 C 772.127 805.434 771.704 804.938 769.522 803.972 C 763.47 803.917 755.546 809.994 751.3 814.378 C 741.409 824.59 732.945 835.667 732.426 850.423 C 732.047 861.184 740.206 867.389 736.484 873.433 C 731.554 873.118 727.196 868.178 724.042 864.45 C 691.35 825.823 720.859 777.806 753.797 751.171 C 760.509 745.701 767.738 740.9 775.382 736.835 C 784.044 732.26 803.345 725.915 808.353 720.09 C 808.604 700.27 753.571 719.858 748.058 730.92 C 746.989 733.064 734.065 745.632 729.686 742.596 C 729.116 735.709 736.189 726.34 740.532 721.346 C 752.955 707.06 771.619 695.11 791.032 694.297 C 808.222 693.577 824.736 697.666 842.339 697.89 L 843.386 697.891 C 830.368 693.547 807.115 684.226 807.71 667.34 C 809.618 664.381 808.363 665.439 811.62 664.066 C 819.049 664.552 831.529 670.336 839.08 672.869 C 857.88 678.541 884.318 663.312 897.851 651.646 C 942.558 613.107 948.901 526.966 1005.88 500.857 C 1041.19 484.679 1111.86 476.886 1139.66 511.34 C 1168.78 547.433 1161.02 596.122 1155.99 638.71 C 1156.26 645.395 1156.49 652.15 1157.61 658.851 C 1161.27 680.796 1149.67 706.618 1136.81 723.523 C 1126.25 737.399 1091.55 720.982 1084.56 728.921 C 1070.9 744.442 1091.05 769.864 1100.46 782.647 C 1109.97 797.966 1110.41 809.006 1124.14 820.869 C 1143.54 842.413 1182.36 853.72 1183.1 886.956 C 1184.13 910.902 1163.32 938.939 1181.88 960.389 C 1188.47 968.003 1200.01 966.869 1207.64 962.37 C 1241.82 942.214 1278.62 927.307 1314.71 910.454 L 1314.79 909.467 C 1315.15 905.764 1316.5 897.966 1318.16 894.595 C 1319.61 891.651 1324.05 888.802 1325.15 885.037 C 1311.77 870.702 1271.58 846.434 1259.32 828.927 C 1256.89 825.448 1253.29 795.191 1252.34 787.957 C 1263.71 779.341 1284.62 761.203 1297.89 758.462 C 1300.31 757.961 1313.06 759.415 1316.6 759.947 C 1328.05 761.665 1331.83 765.289 1338.27 773.814 L 1338.66 773.153 C 1326.24 748.453 1310.91 727.486 1307.81 700.077 C 1306.95 692.489 1304.91 685.62 1307.93 678.213 C 1311.64 669.129 1320.63 639.665 1326.35 633.792 C 1329.99 633.607 1351.54 644.576 1352.7 646.236 C 1363.15 661.12 1375.22 691.43 1382.59 708.076 L 1384.28 696.523 C 1386.04 697.265 1386.2 698.395 1387.45 700.422 C 1387.51 686.611 1380.49 643.659 1385.98 632.904 C 1394.31 616.571 1410.13 593.752 1421.18 578.444 C 1426.24 571.727 1448.79 588.721 1452.83 592.585 C 1453.96 595.245 1453.06 596.992 1452.28 599.864 L 1452.64 600.22 L 1455.76 595.069 C 1468.04 614.441 1479.78 634.188 1491.99 653.413 C 1492.05 663.126 1489.23 675.179 1486.86 684.739 C 1481.64 705.87 1477.95 727.723 1472.92 748.823 C 1478.47 746.29 1496.19 737.064 1500.84 738.874 C 1507.6 741.508 1535.94 761.042 1538.47 766.818 C 1537.91 768.906 1537.41 770.844 1536.92 772.952 C 1537.84 773.495 1538.75 774.038 1539.66 774.582 C 1541.18 786.9 1546.63 812.135 1538.56 822.068 C 1532.78 829.193 1512.33 841.317 1510.88 848.73 C 1513.34 848.091 1512.42 848.468 1514.48 846.748 C 1520.66 845.461 1532.08 847.438 1538.5 848.686 C 1541.27 855.523 1550.3 872.378 1547.21 878.964 C 1542.84 888.293 1521.01 898.892 1511.41 901.504 C 1506.43 902.862 1478.26 902.768 1476.88 905.602 C 1475.68 908.06 1476.5 910.576 1475.85 913.022 C 1474.72 917.258 1465.08 921.651 1461.12 923.379 C 1419.96 941.348 1389.45 915.293 1363.21 922.75 C 1322.01 934.461 1287.3 976.699 1254.87 1003.15 C 1239.79 1015.44 1223.09 1025.92 1205.97 1035.15 C 1199.42 1038.68 1192.04 1041.41 1184.65 1042.41 C 1173.07 1043.99 1160.41 1040.02 1154.58 1053.55 C 1149.36 1065.66 1145.7 1136.84 1150.72 1148.52 C 1152.55 1152.8 1155.6 1156.43 1159.99 1158.17 C 1171.09 1162.56 1193.15 1159.2 1205.48 1159.15 C 1227.99 1159.04 1250.57 1160.35 1273.06 1161.06 C 1315.85 1162.4 1395.27 1160.67 1416.98 1206.55 C 1427.07 1227.88 1421.22 1251.38 1416.99 1273.33 C 1415.84 1279.28 1413.96 1286.97 1414.96 1293.02 C 1415.43 1295.87 1416.99 1297.29 1419.65 1298.1 C 1438.28 1303.75 1545.33 1245.4 1567.47 1231.84 C 1582.83 1222.43 1596.61 1209.55 1612.67 1201.49 C 1617.17 1199.22 1619.79 1197.84 1624.63 1199.73 C 1626.3 1202.4 1626.58 1204.15 1625.79 1207.25 C 1622.59 1219.77 1608.81 1232.82 1600.53 1242.6 C 1540.73 1313.24 1467.46 1370.1 1386.26 1414.16 C 1340.01 1439.25 1291.26 1456.76 1240.87 1471.54 C 1222.74 1476.86 1188.48 1483.77 1173.64 1490.98 C 1154.97 1500.04 1060.97 1591.7 1045.91 1610.07 C 1038.67 1618.9 1032.6 1628.01 1029.31 1639.07 C 1023.99 1656.92 1029.83 1672.28 1038.43 1687.79 C 1047.98 1705.02 1058.66 1721.52 1066.65 1739.59 C 1085.96 1783.25 1087.89 1836.18 1074.84 1882 C 1062.41 1925.64 1033.73 1966.95 1034.08 2013.44 C 1034.19 2027.51 1045.67 2038.59 1029.79 2048 L 1021.28 2048 C 1003.65 2043.84 986.146 2032.63 972.504 2020.92 C 911.946 1968.95 876.751 1891.35 885.175 1811.1 C 887.434 1789.58 895.176 1771.49 895.688 1751.23 C 895.767 1748.11 893.936 1745.98 891.647 1744.22 C 884.64 1743.03 878.012 1748.16 872.632 1752.1 C 800.861 1804.65 703.302 1830.94 622.401 1782.41 C 613.65 1777.16 587.052 1764.9 592.09 1752.42 C 595.941 1742.87 623.471 1733.15 631.481 1725.84 C 684.106 1675.65 714.173 1594.52 790.764 1573.83 C 818.953 1567.79 852.038 1574.13 879.717 1580.96 C 961.775 1601.23 1000.47 1598.52 1023.47 1510.27 C 887.878 1500.24 756.748 1457.45 641.343 1385.57 C 474.635 1281.74 348.425 1120.04 303.723 927.308 C 289.058 864.079 286.283 818.946 285.853 755.399 C 285.198 658.526 298.816 569.343 334.19 478.664 C 341.42 460.13 355.45 426.279 365.927 409.531 L 369.359 410.474 C 369.498 410.994 369.636 411.514 369.774 412.034 C 359.703 431.994 346.583 460.757 338.81 480.6 C 313.206 546.817 297.742 616.519 292.94 687.351 C 278.976 894.122 328.188 1072.37 466.277 1230.53 C 610.474 1392.98 813.036 1491.84 1029.81 1505.57 C 1024.97 1525.87 1019.53 1546.42 1007.52 1564.24 C 957.777 1636.27 861.056 1562.4 794.33 1578.38 C 720.993 1596.25 688.968 1674.26 642.005 1723.38 C 600.664 1757.3 567.117 1748.48 638.531 1785.09 C 706.912 1820.14 788.055 1800.02 850.53 1760.72 C 862.588 1754.25 897.497 1721.07 901.155 1752 C 902.015 1759.27 895.645 1781.29 893.932 1789.54 C 886.849 1822.47 887.468 1856.58 895.742 1889.23 C 909.636 1945.06 948.373 2003.03 998.342 2032.89 C 1005.31 2037.06 1020.45 2045.17 1028.56 2043.11 C 1036.27 2036.17 1028.24 2019.25 1029.2 2004.86 C 1032 1962.43 1056.54 1925.59 1068.17 1886.31 C 1082.08 1839.36 1082.2 1782.23 1060.31 1737.91 C 1051.33 1719.73 1041.58 1703.93 1032.01 1686.5 C 1023.7 1671.36 1018.78 1651.3 1025.1 1634.57 C 1034.77 1608.99 1059.5 1588.35 1078.77 1569.62 C 1105.88 1543.27 1138.02 1509.21 1168.78 1487.88 C 1175.36 1483.32 1229.65 1469.56 1240.64 1466.25 C 1286.02 1452.59 1327.2 1439.16 1369.54 1417.25 C 1453.63 1374.76 1528.81 1316.58 1591.04 1245.85 C 1600.99 1234.45 1617.77 1216.51 1622.19 1202.65 C 1604.26 1209.38 1590.09 1223.97 1574 1233.94 C 1547.8 1250.18 1449.75 1303.58 1423.57 1303.52 C 1419.67 1303.51 1415.69 1302.52 1413.05 1299.46 C 1404.62 1289.73 1416.75 1252.49 1417.41 1238.7 C 1418.17 1222.93 1414.57 1208.08 1403.55 1196.19 C 1374.6 1164.97 1309.23 1167.39 1269.99 1166 C 1248.33 1165.24 1226.43 1163.83 1204.76 1163.94 C 1193 1164 1181.11 1165.72 1169.38 1165.12 C 1161.98 1164.75 1154.74 1162.61 1149.74 1156.78 C 1146.37 1152.85 1144.86 1147.68 1144.06 1142.66 C 1141.86 1128.94 1143.46 1094.79 1144.61 1080.33 C 1145.42 1070.22 1147.13 1050.1 1155.22 1042.98 C 1163.06 1036.08 1189.47 1038.64 1203.44 1030.95 C 1247.13 1006.88 1268.27 982.9 1304.54 952.28 C 1323.52 936.252 1353.6 912.936 1380.04 916.794 C 1394.1 918.844 1407.63 923.448 1421.88 924.548 C 1440.33 925.973 1458.4 922.202 1472.67 909.865 L 1473.77 908.907 C 1449.49 904.806 1439.19 898.933 1417.33 889.301 C 1411.77 886.852 1386.55 884.912 1378.5 884.002 C 1333.92 908.534 1287.1 929.134 1239.97 949.866 C 1221.16 958.137 1188.46 990.989 1171.79 953.473 C 1161.09 929.379 1186.13 894.716 1175.58 874.25 C 1162.57 849.037 1121.27 834.908 1107.32 807.801 C 1102.92 799.163 1099.19 790.471 1094.23 782.431 C 1090.37 775.206 1079.08 763.643 1077.46 755.467 C 1067.35 704.375 1099.37 728.163 1127.02 723.135 C 1134.33 721.134 1137.9 714.272 1140.57 709.113 C 1153.61 683.863 1156.15 666.913 1150.4 639.365 C 1150.16 638.229 1153.25 616.754 1153.66 613.97 C 1165.68 533.619 1135.09 477.234 1046.65 494.933 C 1034.16 497.436 1018.18 499.914 1006.75 506.252 C 939.71 543.43 947.699 644.358 871.989 673.628 C 846.45 683.911 834.858 677.707 811.12 667.867 C 830.131 698.31 846.757 687.264 854.323 698.758 L 853.691 700.543 C 842.292 706.656 804.297 697.439 789.145 699.649 C 766.38 702.97 753.091 713.559 739.268 731.098 C 753.723 718.736 767.743 709.962 786.846 707.084 C 796.04 705.699 813.639 708.102 814.793 719.511 C 810.52 730.365 786.415 736.104 776.029 742.233 C 735.942 765.884 691.878 817.249 729.487 862.762 C 726.893 851.603 726.185 845.732 730.839 834.446 C 737.402 818.529 771.736 777.135 780.855 813.732 C 772.193 833.327 759.779 834.887 752.294 857.865 C 744.392 882.124 757.652 891.522 750.194 911.328 C 739.007 941.04 709.031 951.501 682.583 963.531 C 715.492 971.861 728.306 971.268 753.795 947.023 C 773.188 928.576 774.962 945.098 774.633 961.835 C 766.114 976.783 757.218 975.512 752.317 980.734 C 758.467 979.566 760.112 978.34 765.205 980.745 C 771.412 988.129 764.365 1002.68 762.516 1011.69 C 757.805 1034.67 759.408 1054.59 765.332 1077.08 C 766.033 1069.76 768.018 1056.57 770.337 1049.84 C 775.928 1033.6 814.598 976.203 833.303 982.426 C 834.492 983.783 835.517 984.436 835.662 986.088 C 838.425 1011.95 813.464 1023.58 802.303 1043.07 C 800.525 1046.17 797.951 1052.41 802.042 1054.74 C 808.903 1034.81 823.795 1027.75 836.35 1013.81 L 837.506 1012.51 C 844.61 1004.62 843.978 990.885 851.126 987.093 C 876.496 997.652 843.951 1036.38 834.219 1046.81 C 832.58 1048.57 831.831 1050.75 832.202 1053.11 C 835.593 1054.37 841.615 1051.97 844.733 1050.53 C 858.021 1044.41 865.426 1027.52 870.46 1014.82 z M 871.007 1027.41 C 860.965 1045.69 848.945 1063.6 825.258 1056.55 L 823.888 1054.94 C 825.224 1046.82 835.583 1037.07 841.259 1030.06 C 848.455 1021.03 851.654 1017.19 855.403 1006.41 C 854.34 1001.59 853.294 996.327 851.99 991.605 C 850.672 996.165 848.478 1004.44 846.137 1008.32 C 831.064 1033.3 807.878 1034.64 805.757 1068.32 C 801.182 1063.75 795.395 1058.39 795.034 1051.47 C 793.878 1029.33 839.416 1008.12 829.272 986.848 C 818.336 986.471 793.485 1020.97 786.97 1029.76 C 777.555 1042.47 772.476 1055.32 771.485 1070.99 C 771.233 1074.98 769.953 1084.54 765.479 1085.63 C 759.758 1081.04 756.326 1061.97 755.498 1054.72 C 754.406 1045.12 754.305 1035.43 755.197 1025.81 C 756.119 1016.71 763.559 989.365 761.988 985.002 C 754.04 982.729 726.69 1005.27 724.316 1011.98 C 725.441 1013.97 726.476 1015.78 727.682 1017.73 C 723.826 1016.93 720.689 1014.93 717.175 1013.07 C 725.119 997.59 731.402 988.476 746.242 978.531 C 756.544 971.626 762.911 970.505 769.881 959.98 C 769.773 954.789 770.137 947.111 767.546 942.781 C 729.584 971.164 729.313 982.15 676.597 966.992 C 681.878 978.32 687.207 989.629 692.481 1000.96 C 717.703 1055.14 756.252 1103.81 797.129 1147.05 C 804.529 1154.88 826.154 1180.96 837.993 1175.58 C 845.732 1167.55 849.775 1142.91 854.331 1130.9 C 867.961 1094.99 882.077 1066.41 871.007 1027.41 z"/>
<path transform="translate(0,0)" fill="rgb(0,0,0)" d="M 1388.88 646.478 C 1395.57 650.185 1409.84 661.554 1416.35 666.569 C 1417.99 688.215 1421.11 711.8 1423.84 733.279 C 1427.06 758.566 1427.13 774.433 1423.11 799.644 C 1420.26 817.498 1421.31 823.268 1412.96 840.5 C 1409.97 847.003 1407.23 852.46 1403.86 858.782 C 1401.04 841.521 1399.57 804.779 1398.32 786.022 L 1388.88 646.478 z"/>
<path transform="translate(0,0)" fill="rgb(0,0,0)" d="M 1498.74 742.857 C 1505.34 745.716 1527.03 762.538 1533.55 767.473 C 1528.33 781.018 1523.75 794.997 1519.09 808.761 L 1502.42 805.039 C 1491.8 802.966 1479.04 799.741 1468.51 798.814 C 1467.14 786.764 1464.11 771.187 1462.1 758.962 C 1474.38 753.744 1486.6 748.376 1498.74 742.857 z"/>
<path transform="translate(0,0)" fill="rgb(0,0,0)" d="M 1484.72 664.022 L 1485.19 664.435 C 1485.75 667.345 1470.26 737.059 1468.34 746.433 C 1462.51 748.781 1459.59 749.946 1454.11 753.106 C 1447.01 767.552 1440.07 782.735 1433.16 797.327 L 1432.08 796.495 C 1435.95 759.095 1441.76 720.141 1446.29 682.626 C 1458.99 676.79 1472.1 670.163 1484.72 664.022 z"/>
<path transform="translate(0,0)" fill="rgb(0,0,0)" d="M 1293.38 763.811 C 1299.84 770.44 1313.82 788.969 1320.24 797.049 C 1313.03 807.29 1305.96 817.63 1299.03 828.069 L 1284.72 827.724 C 1278.01 827.11 1270.21 827.141 1263.38 827.01 L 1257.57 790.194 C 1269.6 781.532 1281.54 772.737 1293.38 763.811 z"/>
<path transform="translate(0,0)" fill="rgb(0,0,0)" d="M 1466.91 807.673 C 1481.33 810.062 1498.14 813.909 1512.73 816.712 L 1464.75 866.267 L 1452.88 878.356 C 1445.76 877.37 1438.68 876.214 1431.62 874.889 L 1466.91 807.673 z"/>
<path transform="translate(0,0)" fill="rgb(0,0,0)" d="M 1345.23 703.969 L 1346.56 705.128 L 1364.4 763.131 C 1369.28 779.004 1378.96 805.547 1378.6 821.258 L 1366.6 805.595 C 1343.52 775.549 1335.95 755.181 1317.72 723.206 C 1326.86 716.745 1336.03 710.332 1345.23 703.969 z"/>
<path transform="translate(0,0)" fill="rgb(0,0,0)" d="M 1326.18 803.829 C 1331.9 808.12 1345.56 821.69 1351.3 827.196 L 1398.16 872.285 L 1393.38 881.36 L 1382.53 875.276 C 1378.68 873.08 1374.87 870.816 1371.1 868.485 C 1349.8 855.6 1356.02 860.311 1347.3 862.297 C 1343.86 863.08 1312.21 836.054 1306.99 831.827 C 1312.73 822.87 1320.08 812.723 1326.18 803.829 z"/>
<path transform="translate(0,0)" fill="rgb(0,0,0)" d="M 1327.94 638.577 C 1334.31 642.298 1343.13 646.414 1349.86 649.793 C 1348.45 664.299 1346.24 678.806 1344.62 693.33 C 1338.82 697.754 1331.59 702.581 1325.55 706.856 L 1315.37 714.034 C 1308.75 674.319 1315.22 674.798 1327.94 638.577 z"/>
<path transform="translate(0,0)" fill="rgb(0,0,0)" d="M 1455.4 770.713 C 1456.96 777.008 1459.23 793.676 1460.51 800.811 C 1454.33 814.095 1446.53 828 1439.62 841.094 C 1432.66 854.275 1425.44 869.516 1417.77 882.096 C 1415.21 883.709 1411.32 882.849 1408.08 882.552 C 1405.64 882.231 1405.65 882.416 1403.74 880.939 C 1405.08 875.828 1417.27 851.237 1420.09 845.314 L 1455.4 770.713 z"/>
<path transform="translate(0,0)" fill="rgb(0,0,0)" d="M 1357.11 664.655 C 1358.99 666.913 1377.88 708.183 1378.07 711.738 C 1379.13 731.436 1380.06 758.393 1378.62 778.126 L 1377.8 778.091 C 1373.11 761.903 1368.2 745.782 1363.05 729.733 C 1353.15 697.909 1351.45 697.524 1357.11 664.655 z"/>
<path transform="translate(0,0)" fill="rgb(0,0,0)" d="M 1421.45 586.722 C 1423.59 600.917 1424.63 613.344 1427.5 627.677 C 1424.1 637.081 1420.59 646.446 1416.97 655.77 L 1403.62 645.984 L 1389.72 635.584 C 1398.66 621.442 1411.68 599.606 1421.45 586.722 z"/>
<path transform="translate(0,0)" fill="rgb(0,0,0)" d="M 1457.02 607.601 C 1461.1 611.272 1482.14 647.151 1485.88 653.384 L 1468.62 661.632 C 1462.29 665.104 1454.41 668.67 1447.83 671.86 C 1451.49 652.84 1453.73 627.685 1457.02 607.601 z"/>
<path transform="translate(0,0)" fill="rgb(0,0,0)" d="M 1273.47 836.366 C 1278.15 836.926 1295.87 836.911 1298.08 838.062 C 1307.87 843.18 1330.85 861.571 1338.61 868.819 C 1337.49 871.967 1336.68 871.796 1333.64 874.334 L 1327.06 879.483 C 1311.36 866.912 1287.5 849.531 1273.47 836.366 z"/>
<path transform="translate(0,0)" fill="rgb(0,0,0)" d="M 1332.25 774.846 C 1336.26 778.844 1389.08 849.158 1389.66 851.903 L 1330.17 794.954 L 1332.25 774.846 z"/>
<path transform="translate(0,0)" fill="rgb(0,0,0)" d="M 1353.35 869.761 C 1357.74 870.515 1369.43 877.926 1373.99 880.615 C 1365.86 885.374 1355 890.688 1346.47 895.138 C 1345.06 895.783 1343.97 896.062 1342.49 896.53 C 1337.4 895.459 1332.68 892.539 1328 890.072 C 1336.44 883.689 1345.08 876.445 1353.35 869.761 z"/>
<path transform="translate(0,0)" fill="rgb(0,0,0)" d="M 1446.73 613.79 C 1447.25 618.902 1440.18 664.65 1439.15 671.91 L 1430.75 665.646 L 1424.21 660.824 C 1433.09 637.93 1433.28 633.877 1446.73 613.79 z"/>
<path transform="translate(0,0)" fill="rgb(0,0,0)" d="M 1516.54 850.848 C 1522.62 851.651 1528.94 852.3 1535.05 853.011 L 1542.47 873.691 L 1516.89 865.601 C 1516.93 860.803 1516.68 855.67 1516.54 850.848 z"/>
<path transform="translate(0,0)" fill="rgb(0,0,0)" d="M 1515.5 826.803 C 1515.92 829.694 1515.16 833.744 1514.79 836.798 C 1500.58 849.934 1479.47 870.458 1464.77 881.816 L 1464.47 880.038 C 1467.82 873.838 1508.32 834.146 1515.5 826.803 z"/>
<path transform="translate(0,0)" fill="rgb(0,0,0)" d="M 1425.61 673.386 C 1428.83 675.23 1434.21 679.273 1437.42 681.539 C 1436.72 694.339 1434.53 709.149 1432.43 721.762 L 1431.48 724.434 C 1428.99 708.152 1427.39 689.887 1425.61 673.386 z"/>
<path transform="translate(0,0)" fill="rgb(0,0,0)" d="M 1507.24 878.836 L 1508.24 879.092 C 1509.42 882.049 1509.15 893.108 1509.18 897.011 C 1500.21 897.887 1490.81 898.475 1481.78 899.176 C 1481.28 899.035 1481.66 899.195 1480.4 898.285 C 1483.46 894.912 1502.48 882.136 1507.24 878.836 z"/>
<path transform="translate(0,0)" fill="rgb(0,0,0)" d="M 1507.66 855.865 C 1509.86 869.764 1504.45 869.189 1494.39 876.894 C 1487.45 882.21 1479.72 887.363 1472.39 892.155 L 1471.45 890.095 C 1472.46 885.565 1502.52 860.382 1507.66 855.865 z"/>
<path transform="translate(0,0)" fill="rgb(0,0,0)" d="M 1429.62 583.319 C 1435.36 586.266 1442.95 591.536 1448.54 595.197 L 1440.96 606.567 L 1434.41 616.804 C 1432.16 605.762 1430.93 594.504 1429.62 583.319 z"/>
<path transform="translate(0,0)" fill="rgb(0,0,0)" d="M 1438.96 885.422 C 1446.29 886.116 1452.9 887.391 1460.14 888.702 L 1469.66 903.132 C 1459.47 901.254 1452.59 899.507 1443.03 895.738 L 1438.96 885.422 z"/>
<path transform="translate(0,0)" fill="rgb(0,0,0)" d="M 1386.99 790.825 C 1388.37 787.52 1387.24 788.373 1389.79 787.309 L 1393.83 840.878 C 1391.56 838.123 1389.09 835.269 1387.04 832.38 C 1386.8 818.529 1386.79 804.676 1386.99 790.825 z"/>
<path transform="translate(0,0)" fill="rgb(0,0,0)" d="M 1516.87 875.431 C 1523.97 877.657 1531.11 879.767 1538.28 881.761 L 1531.55 885.691 L 1518.03 893.674 L 1516.87 875.431 z"/>
<path transform="translate(0,0)" fill="rgb(0,0,0)" d="M 1305.16 763.777 C 1311.1 764.363 1318.28 765.547 1324.29 766.369 C 1323.54 772.175 1323.19 777.735 1322.78 783.569 L 1320.99 783.451 C 1315.84 778.122 1309.81 769.811 1305.16 763.777 z"/>
<path transform="translate(0,0)" fill="rgb(0,0,0)" d="M 1535.43 787.706 C 1536.58 793.124 1539.26 807.398 1536 811.789 L 1531.38 812.074 L 1529.05 810.659 C 1527.32 806.508 1533.54 792.612 1535.43 787.706 z"/>
<path transform="translate(0,0)" fill="rgb(26,23,26)" d="M 1386.99 790.825 C 1386.9 779.855 1387.04 768.884 1387.41 757.92 C 1389.01 766.076 1389.49 778.717 1389.79 787.309 C 1387.24 788.373 1388.37 787.52 1386.99 790.825 z"/>
<path transform="translate(0,0)" fill="rgb(254,254,254)" d="M 1014.51 0 L 1063.47 0 L 1064.44 0.150089 C 1073.61 1.49079 1086.43 1.72208 1095.98 2.391 C 1111.03 3.55823 1126.05 5.20579 1141 7.33116 C 1225.24 19.7222 1306.5 47.4208 1380.77 89.0589 C 1388.11 93.1702 1427.05 115.874 1431.44 121.03 C 1429.03 129.429 1419.35 127.952 1412.48 126.544 C 1400.22 124.029 1388.19 120.026 1376.03 116.897 C 1163.32 62.1617 952.145 132.989 797.591 288.664 C 796.476 286.453 796.519 286.605 796.302 284.137 C 801.138 275.646 826.517 254.06 834.561 247.075 C 958.504 139.227 1125.21 78.2605 1289.96 96.5117 C 1329.84 100.93 1369.04 109.316 1407.58 120.224 C 1413.36 121.861 1420.15 122.421 1426.15 122.878 C 1373.64 87.6643 1316.6 59.7359 1256.59 39.8565 C 1023.26 -37.2431 766.731 17.5721 574.54 167.322 C 551.613 185.174 529.717 204.314 508.96 224.65 C 497.267 236.129 477.583 257.346 465.608 270.005 C 464.831 270.826 462.695 269.342 461.17 268.611 L 462.178 267.241 C 473.048 252.696 503.362 222.632 516.666 210.119 C 617.54 115.362 741.805 49.1462 876.715 18.2638 C 907.37 11.3665 938.416 6.34155 969.682 3.2168 C 982.766 1.91973 1001.68 1.96618 1013.55 0.15659 L 1014.51 0 z"/>
<path transform="translate(0,0)" fill="rgb(254,254,254)" d="M 416.185 326.082 C 416.343 327.893 416.775 332.636 415.927 333.928 C 411.98 339.945 396.8 368.41 391.705 370.211 C 390.925 367.294 391.059 367.294 391.251 364.229 C 398.951 351.124 407.271 338.394 416.185 326.082 z"/>
<path transform="translate(0,0)" fill="rgb(254,254,254)" d="M 965.92 956.724 C 997.613 954.581 1011.02 1039.97 1013.81 1061.61 C 1021.58 1121.84 995.868 1162.26 970.885 1213.49 C 961.359 1233.02 962.926 1259.4 936.79 1258.87 C 916.721 1254.6 883.033 1234.36 886.058 1210.55 C 887.739 1197.33 892.325 1185.84 895.729 1173.12 C 904.352 1140.9 911.843 1109.17 926.43 1078.91 C 941.188 1046.06 944.761 1006.17 956.008 971.974 C 958.265 965.112 960.536 961.513 965.92 956.724 z M 933.671 1252.99 C 937.598 1253.72 945.982 1254.94 948.856 1251.43 C 955.574 1243.23 959.772 1228 963.498 1218.12 C 977.924 1179.9 1004.13 1147.69 1008.27 1105.85 C 1012.76 1060.45 1004.98 1007.24 979.258 968.772 C 976.665 965.004 972.984 962.319 968.785 960.852 C 964.393 964.804 962.347 968.484 960.663 974.135 C 952.458 1001.67 947.482 1029.99 939.445 1057.62 C 933.918 1076.61 925.126 1093.23 918.428 1111.55 C 911.282 1132.21 906.629 1153.6 900.607 1174.6 C 897.131 1186.73 892.554 1198.79 891.175 1211.33 C 888.889 1232.11 917.16 1246.99 933.671 1252.99 z"/>
<path transform="translate(0,0)" fill="rgb(254,254,254)" d="M 741.44 256.581 C 749.38 255.924 767.958 253.138 772.94 260.628 C 785.526 279.548 795.721 300.514 806.649 320.503 C 821.965 349.037 838.772 376.745 857.001 403.512 C 834.287 402.164 815.662 402.484 793.13 403.951 C 788.628 392.26 784.051 381.59 779.019 370.11 L 739.5 370.124 L 682.299 370.105 C 676.497 381.645 671.742 391.506 666.67 403.37 C 654.812 402.542 642.915 402.419 631.042 403.003 C 661.827 364.931 696.952 310.329 723.49 268.517 C 720.118 262.668 719.452 261.47 714.672 256.515 C 723.682 256.846 732.446 257.377 741.44 256.581 z"/>
<path transform="translate(0,0)" fill="rgb(0,0,0)" d="M 732.581 284.742 C 739.738 292.719 764.319 340.345 770.755 352.829 L 731.5 352.81 L 691.869 352.824 C 704.129 330.324 719.139 306.672 732.581 284.742 z"/>
<path transform="translate(0,0)" fill="rgb(254,254,254)" d="M 751.469 332.708 C 753.202 334.605 753.09 334.458 753.623 336.982 C 751.906 342.221 749.545 343.908 744.753 346.592 L 743.017 345.062 C 743.368 341.626 748.981 335.655 751.469 332.708 z"/>
<path transform="translate(0,0)" fill="rgb(254,254,254)" d="M 420.81 252.938 C 435.224 260.305 454.881 273.73 470.327 282.171 C 504.591 300.894 540.826 320.063 576.601 335.59 C 577.088 302.143 578.404 290.191 574.712 256.323 C 584.759 257.286 593.357 256.987 603.396 256.461 C 596.854 303.807 597.359 355.212 600.549 402.851 L 600.755 405.607 L 599.574 406.418 C 580.732 396.789 558.059 381.304 537.668 370.649 C 507.227 354.743 477.928 340.919 446.957 326.177 C 443.812 351.807 446.005 377.627 448.486 403.144 C 437.879 402.633 431.298 402.589 420.628 403.155 C 425.474 350.229 424.301 305.757 420.81 252.938 z"/>
<path transform="translate(0,0)" fill="rgb(254,254,254)" d="M 488.915 666.488 C 490.583 669.222 489.137 687.44 489.244 693.692 C 489.759 723.776 502.033 799.855 447.662 780.571 C 440.808 778.14 436.863 766.971 434.6 760.078 C 412.409 779.392 397.615 773.368 406.143 808.186 C 401.791 801.314 400.626 799.206 398.044 791.785 C 396.498 784.601 395.705 777.275 395.68 769.927 C 395.722 748.388 403.663 740.8 420.464 729.977 C 430.911 723.247 431.117 715.635 431.009 704.447 C 419.577 704.966 409.212 706.198 397.866 707.499 C 398.298 692.644 398.252 682.255 396.919 667.696 C 430.1 670.58 455.594 670.798 488.915 666.488 z"/>
<path transform="translate(0,0)" fill="rgb(0,0,0)" d="M 445.883 703.993 C 455.763 703.931 465.643 704.001 475.522 704.203 C 475.873 717.401 477.225 729.181 471.889 741.361 C 468.933 743.8 464.771 745.924 460.952 746.14 C 443.412 747.132 445.915 714.967 445.883 703.993 z"/>
<path transform="translate(0,0)" fill="rgb(254,254,254)" d="M 331.564 255.923 C 352.606 256.995 365.783 256.979 386.865 255.879 C 381.094 292.795 382.219 366.935 387.071 403.554 C 381.664 403.898 369.143 402.852 362.997 402.768 C 351.749 402.615 342.768 403.064 331.633 403.843 C 335.925 363.636 337.966 295.64 331.564 255.923 z"/>
<path transform="translate(0,0)" fill="rgb(254,254,254)" d="M 478.757 467.183 C 550.05 461.707 539.281 545.814 522.483 588.866 C 517.204 602.396 512.253 612.172 503.984 624.099 C 495.886 623.825 479.324 621.381 470.667 620.348 C 477.73 617.307 486.874 613.717 492.718 608.725 C 507.076 596.46 515.664 575.567 517.37 557.07 C 518.719 542.447 516.096 531.517 506.756 520.14 C 478.869 494.827 444.351 509.168 432.593 542.328 C 422.19 571.668 423.789 583.63 436.229 611.467 L 410.633 596.598 C 410.761 565.384 418.576 534.683 433.388 507.207 C 444.339 487.258 456.645 473.655 478.757 467.183 z"/>
<path transform="translate(0,0)" fill="rgb(254,254,254)" d="M 736.333 1223.86 C 738.922 1224.63 769.284 1245.6 773.548 1249.19 C 776.226 1251.44 777.267 1254.04 777.319 1257.59 C 777.521 1271.27 775.838 1286.94 774.701 1300.63 C 772.984 1321.32 772.784 1339.43 773.166 1360.07 C 759.445 1349.63 749.572 1343.07 735.061 1334.25 L 739.318 1312.98 L 730.466 1306.84 L 691.972 1280.53 C 684.706 1284.2 679.499 1287.35 672.562 1291.68 C 665.167 1285.15 656.878 1280.12 648.455 1275.06 C 661.26 1271.83 736.538 1246.66 744.192 1239.6 C 745.334 1231.82 739.418 1230.7 736.333 1223.86 z"/>
<path transform="translate(0,0)" fill="rgb(0,0,0)" d="M 741.726 1257.97 L 743.11 1258.13 C 744.93 1262.49 742.004 1289.94 741.5 1296.16 L 723.187 1283.8 L 707.572 1273.03 C 718.138 1267.88 730.812 1262.69 741.726 1257.97 z"/>
<path transform="translate(0,0)" fill="rgb(254,254,254)" d="M 526.755 989.183 C 558.357 989.05 580.738 1039.89 585.631 1065.98 C 579.569 1071.05 573.486 1076.43 567.493 1081.6 C 572.98 1057.6 564.774 1033.93 545.417 1017.37 C 543.476 1015.71 539.908 1015.97 537.572 1016.5 C 526.247 1027.52 561.641 1071.12 552.06 1090.95 C 543.875 1107.89 531.811 1112.33 513.855 1106.59 C 512.625 1105.88 511.414 1105.14 510.224 1104.36 C 487.157 1089.23 470.68 1051.49 465.461 1024.97 C 472.99 1018.17 480.568 1011.42 488.195 1004.73 L 486.459 1009.57 C 477.586 1033.97 487.739 1056.68 502.639 1076.45 C 506.984 1082.22 513.783 1085.47 519.766 1079.78 C 526.565 1060.09 470.365 1003.7 526.755 989.183 z"/>
<path transform="translate(0,0)" fill="rgb(254,254,254)" d="M 1011.89 1341.24 C 1034.93 1339 1061.65 1343.39 1082.85 1352.76 C 1083.36 1360.44 1084.44 1369.01 1085.23 1376.74 C 1078.91 1369.89 1073.14 1364.5 1064.36 1360.87 C 1053.29 1356.29 1019.95 1348.94 1014.47 1363.45 C 1018.32 1379.88 1088.24 1374.71 1088.78 1406.11 C 1089.29 1435.36 1066.74 1439.79 1043.33 1440.73 C 1018.83 1439.56 1001.27 1437.34 979.513 1426.28 C 978.371 1416.25 977.294 1406.22 976.282 1396.18 C 992.014 1419.82 1010.14 1426.12 1038.44 1426.53 C 1046.14 1426.64 1056.53 1424.9 1056.1 1415.03 C 1049.87 1400.42 986.678 1407.05 983.333 1377.6 C 980.705 1354.46 990.711 1345.21 1011.89 1341.24 z"/>
<path transform="translate(0,0)" fill="rgb(254,254,254)" d="M 611.538 1100.84 C 614.449 1102.76 632.539 1123.14 635.794 1126.73 L 691.731 1188.31 L 674.083 1211.26 C 677.228 1187.54 668.312 1184.32 652.896 1167.95 C 643.242 1175.93 634.275 1184.07 624.987 1192.46 C 615.045 1201.69 605.642 1211.49 596.826 1221.8 C 587.212 1209.89 580.507 1202.74 569.754 1192.2 C 590.498 1178.12 611.045 1158.95 628.74 1141.3 C 613.171 1125.11 612.996 1115.18 587.994 1116.06 C 594.975 1111.05 604.165 1105.54 611.538 1100.84 z"/>
<path transform="translate(0,0)" fill="rgb(254,254,254)" d="M 483.075 808.839 C 485.873 810.523 487.455 813.397 489.055 816.188 C 511.358 855.091 510.981 878.433 470.764 901.493 C 511.172 907.778 531.143 919.112 524.94 964.208 C 519.335 945.072 525.617 943.862 506.814 929.726 C 501.558 926.793 496.078 924.28 490.425 922.213 C 464.905 912.671 449.167 912.636 424.887 923.801 C 422.464 909.31 419.398 898.907 415.106 885.078 C 420.778 885.094 427.32 885.29 433.221 884.102 C 459.064 878.896 495.298 852.158 487.458 822.265 C 486.284 817.791 484.062 814.059 483.075 808.839 z"/>
<path transform="translate(0,0)" fill="rgb(254,254,254)" d="M 856.923 1295.75 C 870.905 1301.99 880.239 1305.11 894.694 1309.36 C 883.215 1329.21 873.355 1360.01 866.548 1381.96 C 883.197 1387.76 905.928 1399.56 922.436 1395.65 C 926.383 1394.72 933.526 1391.55 937.449 1389.85 C 933.952 1394.61 928.676 1399.06 924.272 1403.15 L 912.286 1414.02 C 901.804 1411.26 883.633 1403.88 873.273 1399.82 C 856.574 1393.27 842.681 1388.59 825.511 1383.19 C 838.039 1358.9 851.762 1322.43 856.923 1295.75 z"/>
<path transform="translate(0,0)" fill="rgb(0,0,0)" d="M 162.903 340.04 C 194.229 301.081 226.081 262.485 253.672 220.57 C 254.054 219.989 260.297 219.74 260.879 220.768 C 265.472 228.865 268.579 242.979 271.172 252.041 C 286.726 305.814 303.446 359.242 321.32 412.288 C 299.296 408.922 266.821 409.531 244.404 411.76 L 238.103 384.532 C 232.623 364.871 227.299 345.167 222.129 325.422 C 198.775 355.034 174.18 383.793 150.824 413.426 C 148.92 415.842 144.023 419.055 141.536 416.22 C 116.652 387.85 92.0872 358.812 67.8795 329.828 C 60.7997 357.106 54.0466 384.467 47.6217 411.907 C 31.9403 408.974 16.0683 409.541 0.478674 412.594 C 20.0717 348.771 41.4701 284.703 57.7806 219.934 C 60.4213 219.892 62.4658 220.044 65.0721 220.231 C 68.5834 222.378 152.554 327.378 162.903 340.04 z"/>
<path transform="translate(0,0)" fill="rgb(254,254,254)" d="M 63.0659 229.353 C 65.9682 231.605 88.8804 261.039 92.7809 265.88 L 162.535 351.544 C 196.552 312.654 228.001 271.59 256.68 228.613 C 273.241 287.251 291.244 345.474 310.671 403.226 C 290.082 402.397 270.615 402.217 250.067 403.617 C 246.78 388.748 243.037 373.983 238.842 359.343 C 234.154 342.231 229.448 325.68 226.005 308.256 C 199.552 342.667 171.381 375.248 144.797 409.599 C 118.972 377.115 90.9652 346.917 64.9596 314.012 C 56.3064 341.71 48.7237 374.779 42.329 403.28 C 30.3702 402.544 22.7841 402.548 11.0136 403.082 C 29.6086 348.325 47.9509 285.203 63.0659 229.353 z"/>
<path transform="translate(0,0)" fill="rgb(0,0,0)" d="M 1710.78 412.567 C 1726.58 358.387 1746.41 304.48 1760.61 249.726 C 1761.14 247.644 1767.29 248.217 1768.01 249.029 C 1796.23 280.953 1823.48 314.105 1850.95 346.753 C 1879.07 317.041 1903.7 282.868 1927.59 249.749 C 1928.82 248.043 1932.79 248.586 1934.73 248.568 C 1938.55 251.434 1949.57 293.23 1951.99 300.984 C 1963.36 337.753 1975.37 374.325 1988 410.683 L 1988 412.352 C 1969.01 408.713 1936.05 409.752 1916.54 411.776 C 1911.45 388.824 1904.93 368.863 1899.18 346.4 C 1881.79 366.617 1863.27 386.393 1845.98 406.777 C 1842.96 410.334 1837.47 416.159 1832.7 416.402 C 1826.88 411.982 1815.54 398.188 1810.33 392.175 L 1772.58 348.515 C 1766.09 368.541 1760.54 391.394 1754.75 411.902 C 1737.96 409.085 1727.28 409.343 1710.78 412.567 z"/>
<path transform="translate(0,0)" fill="rgb(254,254,254)" d="M 1765.84 257.513 C 1770.3 261.567 1787.61 283.008 1792.74 289.091 C 1812.25 311.979 1831.55 335.034 1850.66 358.254 C 1882.28 323.221 1904.11 295.866 1931.16 257.274 C 1945.58 306.246 1961.05 354.9 1977.57 403.204 C 1957.74 402.45 1942.27 402.496 1922.43 403.447 L 1915.74 377.718 C 1911.04 362.011 1905.92 346.08 1903.37 329.894 C 1882.14 356.27 1856.69 382.448 1834.4 408.775 C 1813.33 383.057 1790.63 359.444 1769.97 333.019 C 1762.02 355.374 1755.74 380.199 1749.48 403.222 C 1738.53 402.646 1732.42 402.503 1721.34 403.08 C 1737.37 354.931 1752.2 306.394 1765.84 257.513 z"/>
</svg>