<svg xmlns="http://www.w3.org/2000/svg" height="768" preserveAspectRatio="none" style="display: block;" version="1.1" viewBox="0 0 2048 1024" width="1536">
<path d="M 0 0 L 2048 0 L 2048 1024 L 0 1024 L 0 0 z" fill="rgb(35,33,33)" transform="translate(0,0)"></path>
<path d="M 34.9948 283.139 L 1095.27 282.953 L 1537.6 282.921 C 1612.82 282.895 1692.1 281.273 1766.85 283.014 C 1756.18 307.24 1738.7 337.037 1728.82 361.86 C 1720.46 382.858 1712.22 412.862 1705.39 435.052 C 1712.59 461.434 1723.5 490.876 1732.04 517.4 C 1756.38 592.917 1783.4 667.708 1808.73 742.945 L 1508.32 743.17 L 34.8897 743.054 L 34.6287 672.563 C 53.0031 682.342 69.0262 690.535 89.3279 695.704 C 140.444 709.148 194.81 701.679 240.407 674.949 C 284.33 649.309 316.245 607.247 329.111 558.043 C 341.951 509.294 334.797 457.437 309.239 413.985 C 281.871 368.764 237.844 336.094 186.632 323.006 C 132.631 309.535 81.5035 320.661 34.648 348.834 C 34.6085 326.935 34.7241 305.036 34.9948 283.139 z" fill="rgb(6,5,6)" transform="translate(0,0)"></path>
<path d="M 581.846 490.253 C 581.818 472.401 589.768 449.118 601.891 435.549 C 613.7 422.342 630.308 414.415 648.004 413.541 C 693.294 411 718.383 448.25 720.338 489.849 C 719.552 515.96 715.551 538.991 695.532 557.817 C 682.749 569.797 665.68 576.123 648.177 575.37 C 599.71 573.701 581.928 533.205 581.846 490.253 z" fill="rgb(6,5,6)" transform="translate(0,0)"></path>
<path d="M 710.189 489.919 L 720.338 489.849 C 719.552 515.96 715.551 538.991 695.532 557.817 C 682.749 569.797 665.68 576.123 648.177 575.37 C 599.71 573.701 581.928 533.205 581.846 490.253 L 590.904 490.65 C 591.452 500.328 593.299 508.682 600.304 516.049 C 626.55 543.656 697.254 541.287 709.514 500.162 C 710.041 498.394 710.146 492.056 710.189 489.919 z" fill="rgb(222,46,110)" transform="translate(0,0)"></path>
<path d="M 581.846 490.253 C 581.818 472.401 589.768 449.118 601.891 435.549 C 613.7 422.342 630.308 414.415 648.004 413.541 C 693.294 411 718.383 448.25 720.338 489.849 L 710.189 489.919 C 706.394 439.678 595.39 438.954 590.904 490.65 L 581.846 490.253 z" fill="rgb(20,140,100)" transform="translate(0,0)"></path>
<path d="M 1385.47 414.151 C 1480.29 404.653 1490.9 555.544 1406.91 573.696 C 1324.32 587.972 1300.49 475.07 1352.45 428.516 C 1361.37 420.522 1373.97 416.78 1385.47 414.151 z" fill="rgb(222,46,110)" transform="translate(0,0)"></path>
<path d="M 1383.11 452.294 C 1407.88 450.514 1445.58 453.854 1452.82 484.857 C 1459.81 514.775 1431.42 529.198 1406.23 533.816 C 1385.65 534.926 1369.84 534.088 1351.91 521.894 C 1343.77 516.136 1337.49 508.121 1336.02 498.082 C 1331.74 468.766 1359.02 455.889 1383.11 452.294 z" fill="rgb(6,5,6)" transform="translate(0,0)"></path>
<path d="M 443.458 414.068 C 473.131 413.892 504.101 412.393 533.426 416.162 C 561.829 419.813 578.071 445.375 572.226 472.815 C 570.107 482.704 564.078 491.315 555.51 496.69 C 541.251 505.8 525.583 504.797 510.024 501.225 C 524.185 525.329 546.395 527.905 570.252 517.17 C 570.144 536.598 570.158 556.028 570.295 575.456 C 546.545 575.098 526.02 575.129 510.757 554.164 C 499.142 536.474 498.349 521.738 499.949 501.1 C 481.961 496.159 476.208 493.663 460.88 483.148 C 474.33 526.282 485.215 540.6 511.147 575.905 L 441.65 575.907 C 456.572 528.822 458.076 461.466 443.458 414.068 z" fill="rgb(222,46,110)" transform="translate(0,0)"></path>
<path d="M 506.548 446.363 C 558.402 440.419 581.715 485.769 518.363 493.933 C 459.708 495.79 441.447 454.085 506.548 446.363 z" fill="rgb(6,5,6)" transform="translate(0,0)"></path>
<path d="M 1467.28 413.847 L 1514.88 413.846 C 1543.54 413.844 1597.8 410.054 1601.9 451.786 C 1607.52 509.062 1544.94 512.11 1505.53 498.761 C 1502.09 497.596 1486.54 489.858 1485.55 489.967 L 1486.76 494.22 C 1497.39 524.047 1513.9 550.856 1532.27 576.443 C 1510.32 576.166 1488.36 576.092 1466.41 576.219 C 1479.92 531.091 1477 459.343 1467.28 413.847 z" fill="rgb(243,186,65)" transform="translate(0,0)"></path>
<path d="M 1526.34 447.256 C 1590.18 440.483 1605.59 491.045 1544.41 495.256 C 1533.3 495.516 1473.79 492.308 1489.47 465.351 C 1494.82 456.151 1515.23 449.151 1526.34 447.256 z" fill="rgb(6,5,6)" transform="translate(0,0)"></path>
<path d="M 1169.07 411.023 C 1171.9 413.484 1170.13 447.403 1167.89 452.182 C 1151.1 488.019 1098.58 444.93 1070.96 458.185 C 1066.62 460.254 1063.31 463.999 1061.79 468.559 C 1060.54 472.195 1060.88 476.187 1062.73 479.559 C 1073.31 498.981 1119.39 486.636 1137.96 494.264 C 1148.56 498.624 1159.92 502.282 1165.4 513.389 C 1180.75 541.22 1160.2 580.609 1126.47 574.639 C 1095.7 569.193 1079.51 559.332 1048.57 575.928 C 1048.03 576.289 1047.96 576.093 1047.01 576.029 C 1044.58 569.383 1045.93 536.889 1048.98 530.004 C 1065.93 491.847 1116.19 539.247 1142.88 527.445 C 1161.35 519.277 1147.73 501.834 1131.95 500.924 C 1103.38 494.505 1068.72 506.02 1050.1 478.373 C 1044.5 470.05 1044.77 452.448 1047.96 443.009 C 1050.74 434.868 1055.95 427.774 1062.88 422.683 C 1096.79 397.276 1122.85 434.469 1169.07 411.023 z" fill="rgb(243,186,65)" transform="translate(0,0)"></path>
<path d="M 855.11 413.749 C 877.159 414.018 899.21 413.984 921.257 413.647 C 900.174 436.292 885.074 461.602 873.939 490.299 L 875.408 490.287 C 893.151 490.098 909.463 487.052 922.844 473.817 C 938.12 458.708 935.302 434.155 935.03 413.846 L 994.717 413.95 C 984.879 486.627 899.731 487.446 894.934 494.405 C 897.463 498.225 953.925 516.13 964.277 520.29 C 995.418 533.844 995.316 545.191 995.02 576.011 C 976.429 575.964 957.838 576.118 939.251 576.471 C 939.31 558.013 937.199 545.082 927.326 529.205 C 913.385 506.786 899.255 501.36 874.788 495.647 C 886.501 528.535 901.553 549.745 923.202 576.118 L 854.994 575.898 C 867.895 529.996 873.455 458.83 855.11 413.749 z" fill="rgb(39,106,185)" transform="translate(0,0)"></path>
<path d="M 797.339 413.431 C 814.481 413.056 829.728 416.571 845.635 422.457 C 845.986 440.917 846.079 459.381 845.913 477.845 C 821.926 459.833 787.041 444.343 757.229 461.871 C 726.173 480.131 737.51 520.439 772.815 526.329 C 796.219 530.233 814.273 527.208 834.855 514.368 L 845.693 506.698 L 846.019 566.666 C 834.094 571.47 822.408 573.424 809.746 574.865 C 736.569 583.192 707.932 485.119 749.358 436.293 C 762.357 420.971 777.651 414.869 797.339 413.431 z" fill="rgb(20,140,100)" transform="translate(0,0)"></path>
<path d="M 1181.63 413.79 L 1244.25 413.905 C 1224.12 439.383 1214.05 459.646 1204.04 490.012 L 1297.09 489.913 C 1296.13 493.305 1295.91 493.998 1295.85 497.604 C 1274.2 495.552 1229.5 496.987 1206.54 497.08 C 1214.61 528.111 1226.32 549.189 1242.34 576.011 C 1222.24 575.805 1202.15 575.74 1182.05 575.815 C 1196.57 530.751 1203.61 457.323 1181.63 413.79 z" fill="rgb(20,140,100)" transform="translate(0,0)"></path>
<path d="M 1261.08 413.949 C 1282.18 413.923 1304.48 414.244 1325.47 413.388 C 1303.39 464.019 1306.86 524.382 1326.8 575.085 L 1327.16 575.99 L 1262.46 575.965 C 1275.84 555.003 1293.18 522.3 1295.85 497.604 C 1295.91 493.998 1296.13 493.305 1297.09 489.913 C 1295.28 466.373 1275.65 432.438 1261.08 413.949 z" fill="rgb(39,106,185)" transform="translate(0,0)"></path>
<path d="M 773.038 596.537 C 781.023 596.89 779.838 595.748 783.165 604.276 C 784.494 607.681 785.836 611.323 787.193 614.732 C 789.313 609.247 791.256 603.624 793.419 598.23 C 794.478 595.59 800.514 596.699 800.665 597.42 C 802.405 605.898 804.658 616.817 804.865 625.3 C 804.911 627.169 795.564 626.821 797.892 620.008 C 797.964 619.796 796.751 612.661 796.526 611.162 C 796.43 610.514 796.514 609.692 795.826 609.372 C 793.278 609.776 789.876 633.603 784.223 623.438 C 781.972 619.392 779.531 611.666 777.61 606.982 C 777.068 611.709 776.661 621.147 774.52 625.46 C 773.989 626.53 769.21 626.176 769.256 625.385 C 769.786 616.139 771.416 605.802 773.038 596.537 z" fill="rgb(254,253,254)" transform="translate(0,0)"></path>
<path d="M 1517.97 593.238 C 1519.53 593.423 1523.92 593.325 1524.01 594.487 C 1524.29 598.174 1524.82 623.807 1523.67 625.658 C 1523.49 625.703 1505.75 626.053 1505.55 626.04 C 1504.18 624.645 1502.73 623.315 1501.79 621.578 C 1500.25 618.742 1500 614.531 1501.16 611.539 C 1505.3 600.893 1515.2 608.041 1517.55 606.434 C 1518.43 605.825 1517.97 594.704 1517.97 593.238 z" fill="rgb(254,253,254)" transform="translate(0,0)"></path>
<path d="M 1510.61 610.47 C 1512.51 609.749 1514.65 610.105 1516.22 611.401 C 1517.78 612.698 1518.53 614.735 1518.17 616.735 C 1517.81 618.735 1516.41 620.389 1514.49 621.066 C 1511.58 622.095 1508.38 620.588 1507.32 617.686 C 1506.25 614.783 1507.72 611.566 1510.61 610.47 z" fill="rgb(6,5,6)" transform="translate(0,0)"></path>
<path d="M 1394.92 596.207 C 1397.34 596.261 1415.35 598.005 1411.58 604.747 C 1409.57 608.336 1403.15 602.77 1400.49 602.123 C 1395.66 600.948 1389.77 603.508 1389.22 609.516 C 1387.64 619.093 1397.53 624.399 1404.88 618.857 C 1409.09 615.689 1406.32 614.278 1402.97 614.822 C 1400.84 615.167 1399.64 614.173 1398.11 612.758 C 1398.61 612.112 1400.03 609.436 1400.68 609.421 C 1405.52 609.306 1417.32 606.426 1414.78 614.502 C 1408.57 634.225 1375.81 627.53 1383.77 605.435 C 1385.67 600.185 1389.97 598.084 1394.92 596.207 z" fill="rgb(254,253,254)" transform="translate(0,0)"></path>
<path d="M 612.046 604.84 C 614.468 604.947 622.184 606.643 620.911 607.076 C 625.463 605.13 629.359 604.625 628.318 611.324 C 626.697 621.761 633.311 627.888 620.241 625.492 C 605.896 631.46 597.972 615.249 612.046 604.84 z" fill="rgb(254,253,254)" transform="translate(0,0)"></path>
<path d="M 614.615 610.62 C 616.547 609.75 618.802 610.034 620.459 611.354 C 622.116 612.674 622.896 614.809 622.48 616.886 C 622.065 618.963 620.523 620.634 618.486 621.215 C 615.636 622.028 612.641 620.502 611.624 617.718 C 610.606 614.933 611.912 611.836 614.615 610.62 z" fill="rgb(6,5,6)" transform="translate(0,0)"></path>
<path d="M 947.108 604.77 C 950.434 605.339 952.088 605.801 955.005 607.719 C 955.487 608.036 958.016 605.279 959.406 605.796 C 959.576 605.859 961.498 606.124 961.612 606.705 C 962.717 612.177 961.911 618.42 962.043 624.035 C 962.121 627.354 957.276 626.046 955.015 625.832 C 948.814 624.854 937.024 629.946 939.068 613.481 C 939.583 609.34 943.721 606.773 947.108 604.77 z" fill="rgb(254,253,254)" transform="translate(0,0)"></path>
<path d="M 949.088 610.603 C 950.981 609.961 953.074 610.39 954.564 611.724 C 956.053 613.058 956.708 615.091 956.277 617.044 C 955.847 618.997 954.397 620.566 952.485 621.15 C 949.589 622.035 946.52 620.432 945.592 617.55 C 944.664 614.668 946.22 611.575 949.088 610.603 z" fill="rgb(6,5,6)" transform="translate(0,0)"></path>
<path d="M 1471.95 605.053 C 1488.07 605.17 1494.54 618.562 1480.69 626.197 C 1472.33 626.553 1463.3 626.498 1464.19 614.476 C 1464.55 609.642 1468.3 607.457 1471.95 605.053 z" fill="rgb(254,253,254)" transform="translate(0,0)"></path>
<path d="M 1473.14 611.553 C 1475.58 609.953 1478.86 610.609 1480.5 613.029 C 1482.14 615.448 1481.54 618.736 1479.15 620.416 C 1477.56 621.528 1475.5 621.701 1473.76 620.867 C 1472.01 620.033 1470.85 618.322 1470.72 616.392 C 1470.6 614.462 1471.52 612.612 1473.14 611.553 z" fill="rgb(6,5,6)" transform="translate(0,0)"></path>
<path d="M 1147 605.086 C 1153.09 604.231 1158.74 608.407 1159.72 614.479 C 1160.69 620.551 1156.63 626.286 1150.57 627.379 C 1146.55 628.105 1142.45 626.602 1139.85 623.448 C 1137.25 620.294 1136.56 615.982 1138.04 612.174 C 1139.53 608.365 1142.95 605.654 1147 605.086 z" fill="rgb(254,253,254)" transform="translate(0,0)"></path>
<path d="M 1147.15 610.85 C 1149.91 610.104 1152.77 611.658 1153.65 614.379 C 1154.52 617.101 1153.1 620.03 1150.43 621.032 C 1148.58 621.722 1146.5 621.341 1145.02 620.04 C 1143.54 618.739 1142.89 616.728 1143.34 614.807 C 1143.78 612.886 1145.25 611.365 1147.15 610.85 z" fill="rgb(6,5,6)" transform="translate(0,0)"></path>
<path d="M 463.31 596.219 C 467.129 596.671 477.315 597.92 473.546 604.526 C 475.774 603.924 449.655 596.013 456.034 615.493 C 458.582 623.272 467.647 621.3 473.815 618.286 C 475.645 629.336 459.747 627.824 455.382 624.238 C 442.809 613.907 446.504 599.795 463.31 596.219 z" fill="rgb(254,253,254)" transform="translate(0,0)"></path>
<path d="M 885.008 604.988 C 888.118 605.186 901.3 606.875 898.317 616.293 C 897.153 617.779 887.041 616.698 886.413 617.048 C 879.318 621.003 888.466 621.952 894.917 619.886 L 895.638 619.661 C 896.036 620.232 897.438 622.017 897.578 622.545 C 896.568 626.578 886.317 627.432 883.495 625.863 C 872.436 619.714 875.101 609.639 885.008 604.988 z" fill="rgb(254,253,254)" transform="translate(0,0)"></path>
<path d="M 884.006 610.23 C 888.586 609.664 889.924 608.628 892.419 612.829 C 888.33 613.036 884.618 614.77 884.006 610.23 z" fill="rgb(6,5,6)" transform="translate(0,0)"></path>
<path d="M 1434.53 606.062 C 1441.42 605.409 1450.02 604.801 1451.05 614.704 C 1451.62 620.246 1435.01 614.149 1435.73 619.323 C 1438.99 623.573 1442.86 621.542 1446.75 620.225 C 1456.84 624.744 1435.92 629.999 1431.67 623.601 C 1426.79 616.251 1428.67 611.543 1434.53 606.062 z" fill="rgb(254,253,254)" transform="translate(0,0)"></path>
<path d="M 1436.88 609.955 C 1437.88 609.966 1438.88 609.959 1439.88 609.936 C 1442.93 609.885 1443.77 610.573 1443.54 613.439 C 1440.9 613.314 1435.68 614.448 1436.64 610.938 L 1436.88 609.955 z" fill="rgb(6,5,6)" transform="translate(0,0)"></path>
<path d="M 1105.07 596.798 C 1110.38 596.727 1115.69 596.718 1120.99 596.771 C 1123.39 596.797 1124.19 598.404 1123.63 600.577 C 1122.58 604.656 1112.19 599.984 1111.74 604.824 C 1111.51 607.289 1113.48 608.827 1116.05 608.589 C 1122.46 607.998 1122.66 607.778 1123.74 613.623 C 1121.46 613.709 1113.8 613.668 1113.45 613.815 C 1108.66 615.568 1116.58 630.214 1105.74 625.274 C 1104.58 624.746 1105.08 599.96 1105.07 596.798 z" fill="rgb(254,253,254)" transform="translate(0,0)"></path>
<path d="M 1544.91 606.076 C 1551.59 605.439 1558.04 605.024 1560.81 613.036 C 1563.31 619.796 1547.8 615.747 1547.01 617.148 C 1543.52 623.366 1551.82 621.855 1555.68 620.296 C 1568.32 622.305 1547.25 631.084 1541.69 623.291 C 1537.68 617.663 1537.64 612.139 1542.95 607.718 C 1543.61 607.177 1544.27 606.629 1544.91 606.076 z" fill="rgb(254,253,254)" transform="translate(0,0)"></path>
<path d="M 1546.1 610.269 C 1550.58 609.867 1551.87 608.74 1554.37 612.729 C 1552.16 612.867 1546.52 614.238 1546.23 611.269 L 1546.1 610.269 z" fill="rgb(6,5,6)" transform="translate(0,0)"></path>
<path d="M 515.008 605.636 C 525.524 605.801 522.698 608.07 526.46 618.489 C 528.001 614.645 529.546 609.732 531.732 606.353 C 532.328 605.433 537.403 605.293 538.163 606.557 C 538.021 607.944 531.974 620.099 530.927 622.185 C 530.33 623.382 525.081 634.453 524.414 634.659 C 514.824 637.626 520.993 628.707 523.118 624.026 C 520.35 617.993 517.382 611.81 515.008 605.636 z" fill="rgb(254,253,254)" transform="translate(0,0)"></path>
<path d="M 841.955 605.663 C 849.061 606.46 847.148 609.023 852.594 606.228 C 865.162 599.778 862.757 624.56 862.017 625.02 C 854.524 629.673 855.864 621.038 855.745 616.757 C 855.882 615.181 856.595 609.764 851.625 610.07 C 844.03 610.538 853.282 630.811 842.461 625.316 C 841.604 624.881 841.951 609.223 841.955 605.663 z" fill="rgb(254,253,254)" transform="translate(0,0)"></path>
<path d="M 1180.75 604.956 C 1182.82 605.282 1190.38 605.526 1189.13 608.969 C 1187.54 613.307 1181.41 607.765 1180.97 611.073 C 1182.12 614.528 1189.2 613.567 1190.66 617.999 C 1192.5 623.602 1188.55 625.301 1183.82 627.632 C 1181.94 627.209 1171.18 625.467 1174.88 621.825 C 1177.17 619.561 1182.36 623.852 1184.75 621.174 C 1185.16 617.809 1164.32 613.397 1180.75 604.956 z" fill="rgb(254,253,254)" transform="translate(0,0)"></path>
<path d="M 555.719 604.959 C 558.5 605.088 565.731 604.761 565.382 608.765 C 562.633 611.916 557.416 608.104 557.021 611.423 C 556.849 612.867 562.474 613.8 564.007 614.903 C 566.932 617.007 568.339 620.194 565.992 623.468 C 563.96 626.43 560.557 626.282 557.325 626.793 C 545.353 623.483 550.124 618.259 557.467 621.843 C 558.836 622.511 561.375 620.804 560.87 620.313 C 555.973 615.548 543.522 613.745 555.719 604.959 z" fill="rgb(254,253,254)" transform="translate(0,0)"></path>
<path d="M 669.747 604.997 C 671.691 605.097 678.445 605.129 679.076 607.479 C 680.363 612.088 671.762 608.704 671.238 610.628 C 670.291 614.109 680.148 613.388 680.873 618.47 C 681.826 625.155 677.12 625.862 672.576 626.844 C 670.774 626.428 662.447 625.361 664.64 621.86 C 666.787 618.431 670.942 623.251 673.422 621.672 C 677.969 618.775 666.598 616.768 665.976 614.459 C 663.002 609.455 666.209 607.724 669.747 604.997 z" fill="rgb(254,253,254)" transform="translate(0,0)"></path>
<path d="M 1283.76 604.803 C 1285.94 604.982 1290.22 605.252 1291.96 606.587 C 1292.51 607.002 1292.82 607.656 1292.8 608.343 C 1292.76 610.036 1291.18 610.905 1289.67 610.519 C 1282.72 608.752 1283.31 613.246 1289.55 614.338 C 1291.11 614.875 1293.34 615.977 1293.92 617.561 C 1296.19 623.8 1293.01 625.15 1287.17 627.132 C 1284.58 626.542 1274.46 624.869 1279.63 621.069 C 1281.73 619.521 1287.45 623.851 1288.33 620.663 C 1286.96 616.364 1270.28 616.328 1283.76 604.803 z" fill="rgb(254,253,254)" transform="translate(0,0)"></path>
<path d="M 582.193 598.837 C 594.74 600.365 584.692 602.013 590.549 605.796 C 596.807 609.838 589.537 611.099 589.427 611.476 C 588.209 615.676 588.797 622.031 588.782 626.281 C 578.01 625.853 583.157 624.572 582.069 614.469 C 581.61 610.207 581.694 612.338 579.438 610.375 C 577.716 608.876 581.457 605.061 581.763 602.515 L 582.193 598.837 z" fill="rgb(254,253,254)" transform="translate(0,0)"></path>
<path d="M 1005.13 604.943 C 1007.39 605.042 1017.4 605.309 1012.83 609.559 C 1010.45 611.774 1007.6 608.555 1005.24 611.046 C 1005.08 611.883 1028.24 621.525 1006.6 626.925 C 993.105 623.435 997.925 618.541 1006.96 622.001 C 1007.87 622.349 1011.21 620.061 1006.53 617.942 C 996.953 613.608 997.06 610.367 1005.13 604.943 z" fill="rgb(254,253,254)" transform="translate(0,0)"></path>
<path d="M 1210.89 604.929 C 1212 605.034 1219.24 605.737 1219.48 607.145 C 1220.41 612.543 1212.24 607.879 1211.34 611.445 C 1212.45 614.068 1221 613.792 1221.25 618.978 C 1221.61 626.499 1216.25 625.923 1210.71 626.579 C 1208.91 625.888 1202.49 624.222 1205.08 621.551 C 1208.22 618.306 1211.09 624.849 1215.14 620.606 C 1215.35 616.372 1195.49 615.653 1210.89 604.929 z" fill="rgb(254,253,254)" transform="translate(0,0)"></path>
<path d="M 1582.75 605.308 C 1583.91 605.502 1590.65 606.122 1589.72 608.33 C 1588.33 611.623 1581.79 608.379 1581 611.275 C 1582.2 614.369 1590.95 614.779 1591.15 618.968 C 1591.53 626.633 1585.13 626.085 1579.77 626.531 C 1577.93 625.511 1573.53 624.296 1575.17 621.498 C 1576.36 619.13 1582.13 623.214 1583.7 621.876 C 1587.69 618.49 1576.31 617.815 1575.16 613.047 C 1573.78 607.296 1578.79 606.224 1582.75 605.308 z" fill="rgb(254,253,254)" transform="translate(0,0)"></path>
<path d="M 643.352 593.448 C 650.086 594.395 650.003 592.984 649.944 600.287 C 649.873 609.094 649.97 617.925 649.82 626.739 C 642.736 625.578 643.25 626.736 643.316 619.186 C 643.391 610.625 643.309 602.014 643.352 593.448 z" fill="rgb(254,253,254)" transform="translate(0,0)"></path>
<path d="M 977.248 593.304 C 984.061 594.468 983.632 593.288 983.606 600.485 C 983.573 609.223 983.624 617.992 983.53 626.735 C 982.174 626.52 977.875 626.144 977.767 625.34 C 976.907 618.928 977.158 598.262 977.248 593.304 z" fill="rgb(254,253,254)" transform="translate(0,0)"></path>
<path d="M 1256.83 593.767 C 1258.54 593.953 1262.8 593.723 1262.89 595.415 C 1263.38 604.725 1263.13 617.346 1263.08 626.399 C 1256.54 625.632 1256.75 627.038 1256.79 620.025 C 1256.83 611.285 1256.8 602.51 1256.83 593.767 z" fill="rgb(254,253,254)" transform="translate(0,0)"></path>
<path d="M 501.371 605.039 C 503.907 605.808 504.425 606.978 503.463 610.037 C 503.031 611.411 499.782 610.676 498.173 611.564 C 493.665 614.052 496.229 620.419 495.189 624.475 C 494.758 626.158 492.652 626.602 491.366 627.176 C 488.586 623.905 485.857 599.76 495.551 606.774 C 497.326 608.058 499.416 606.051 501.371 605.039 z" fill="rgb(254,253,254)" transform="translate(0,0)"></path>
<path d="M 925.333 604.662 C 929.275 609.255 926.989 610.715 923.057 611.245 C 917.194 612.035 920.17 621.959 918.681 625.364 C 918.416 625.97 913.896 626.742 913.037 626.94 C 912.814 621.667 912.234 611.283 913.608 606.193 C 914.41 603.221 919.816 608.188 919.619 608.089 C 919.875 607.984 924.223 605.252 925.333 604.662 z" fill="rgb(254,253,254)" transform="translate(0,0)"></path>
<path d="M 1235.21 605.476 C 1242.38 606.789 1242 605.637 1241.84 613.524 C 1241.75 617.781 1241.78 622.302 1241.71 626.578 C 1234.86 625.537 1235.02 626.941 1235.15 619.352 C 1235.22 614.844 1235.19 610.007 1235.21 605.476 z" fill="rgb(254,253,254)" transform="translate(0,0)"></path>
<path d="M 819.745 605.674 C 819.996 605.704 825.245 606.054 825.395 606.691 C 826.68 612.146 826.037 621.048 826.013 626.695 C 818.402 625.67 819.847 626.962 819.696 618.586 C 819.62 614.319 819.724 609.947 819.745 605.674 z" fill="rgb(254,253,254)" transform="translate(0,0)"></path>
<path d="M 1337.26 606.436 C 1339.99 605.837 1342.72 607.422 1343.56 610.086 C 1344.39 612.75 1343.05 615.61 1340.47 616.673 C 1338.59 617.448 1336.43 617.095 1334.89 615.761 C 1333.35 614.427 1332.7 612.34 1333.2 610.367 C 1333.7 608.394 1335.28 606.873 1337.26 606.436 z" fill="rgb(254,253,254)" transform="translate(0,0)"></path>
<path d="M 724.479 606.435 C 727.15 605.999 729.728 607.619 730.494 610.215 C 731.26 612.811 729.975 615.571 727.496 616.655 C 725.59 617.489 723.374 617.147 721.808 615.778 C 720.243 614.409 719.608 612.259 720.18 610.259 C 720.751 608.259 722.426 606.769 724.479 606.435 z" fill="rgb(254,253,254)" transform="translate(0,0)"></path>
<path d="M 1057.41 606.59 C 1060.1 605.616 1063.07 606.929 1064.17 609.57 C 1065.26 612.211 1064.08 615.244 1061.49 616.453 C 1059.71 617.284 1057.62 617.07 1056.04 615.896 C 1054.46 614.722 1053.66 612.778 1053.95 610.834 C 1054.23 608.89 1055.56 607.26 1057.41 606.59 z" fill="rgb(254,253,254)" transform="translate(0,0)"></path>
<path d="M 1235.87 597.541 C 1236.57 596.526 1237.77 595.974 1239 596.099 C 1240.23 596.224 1241.3 597.005 1241.79 598.141 C 1242.28 599.276 1242.11 600.587 1241.35 601.565 C 1240.23 603.027 1238.14 603.321 1236.65 602.229 C 1235.16 601.137 1234.81 599.056 1235.87 597.541 z" fill="rgb(254,253,254)" transform="translate(0,0)"></path>
<path d="M 821.287 596.472 C 822.665 595.618 824.467 595.946 825.455 597.232 C 826.444 598.517 826.299 600.342 825.12 601.455 C 824.244 602.283 822.973 602.539 821.844 602.117 C 820.716 601.695 819.925 600.668 819.807 599.468 C 819.689 598.269 820.263 597.107 821.287 596.472 z" fill="rgb(254,253,254)" transform="translate(0,0)"></path>
<path d="M 132.977 398.407 C 156.685 394.924 190.013 407.117 209.108 421.049 C 232.829 438.668 248.525 465.036 252.705 494.287 C 262.432 558.587 216.943 611.34 154.232 620.785 C 107.949 625.712 62.5143 605.645 39.2757 563.719 C 32.4826 551.463 33.2464 539.937 34.0799 526.166 C 36.102 492.757 25.7214 467.608 50.4737 439.837 C 73.9744 413.471 97.7435 401.91 132.977 398.407 z" fill="rgb(222,46,110)" transform="translate(0,0)"></path>
<path d="M 126.533 414.469 C 179.559 407.196 228.375 444.468 235.328 497.537 C 242.28 550.607 204.714 599.196 151.603 605.828 C 98.9453 612.403 50.8591 575.226 43.9655 522.609 C 37.0719 469.991 73.958 421.681 126.533 414.469 z" fill="rgb(35,33,33)" transform="translate(0,0)"></path>
<path d="M 126.369 419.535 C 176.658 412.194 223.308 447.202 230.312 497.539 C 237.316 547.876 201.996 594.29 151.613 600.957 C 101.706 607.56 55.8246 572.646 48.8866 522.784 C 41.9485 472.922 76.5549 426.808 126.369 419.535 z" fill="rgb(20,140,100)" transform="translate(0,0)"></path>
<path d="M 134.084 433.784 C 176.064 430.825 212.541 462.35 215.696 504.315 C 218.851 546.281 187.497 582.906 145.547 586.257 C 103.318 589.63 66.3974 558.023 63.2214 515.779 C 60.0455 473.535 91.8253 436.762 134.084 433.784 z" fill="rgb(35,33,33)" transform="translate(0,0)"></path>
<path d="M 132.566 438.778 C 172.018 434.991 207.026 464.009 210.624 503.479 C 214.221 542.949 185.035 577.817 145.548 581.225 C 106.329 584.609 71.7483 555.664 68.1754 516.462 C 64.6025 477.259 93.3811 442.54 132.566 438.778 z" fill="rgb(222,46,110)" transform="translate(0,0)"></path>
<path d="M 124.193 323.402 C 158.753 318.476 201.039 329.57 231.14 346.17 C 323.299 396.993 358.513 509.393 305.84 601.896 C 280.54 645.734 238.792 677.663 189.858 690.6 C 132.699 706.223 84.1943 694.82 33.98 666.27 L 34.2715 625.692 C 46.9399 636.425 57.5736 643.238 72.29 650.573 C 88.6211 658.029 106.048 662.801 123.9 664.705 C 165.748 668.846 207.542 656.323 240.218 629.853 C 271.644 604.253 293.607 566.255 297.561 525.681 C 301.669 484.983 289.238 444.343 263.066 412.907 C 203.672 341.191 105.129 336.057 34.6352 394.798 C 34.3592 381.529 34.4355 368.254 34.8642 354.988 C 61.5159 336.609 92.154 326.63 124.193 323.402 z" fill="rgb(20,140,100)" transform="translate(0,0)"></path>
<path d="M 125.661 360.378 C 163.524 354.686 209.297 371.301 238.293 395.352 C 269.298 420.623 288.786 457.342 292.339 497.183 C 295.648 536.039 283.322 574.609 258.094 604.345 C 198.687 675.424 103.08 677.188 34.0441 618.678 L 33.9762 564.585 C 44.9384 583.548 57.3585 596.463 75.403 608.558 C 131.086 643.92 205.85 626.956 241.298 571.148 C 257.533 545.378 262.767 514.178 255.828 484.521 C 248.865 453.426 230.331 428.043 203.423 411.139 C 175.978 394.271 142.935 389.057 111.629 396.652 C 76.9456 404.778 52.647 425.585 34.1826 455.224 L 34.0163 402.558 C 56.5622 378.72 93.5109 364.158 125.661 360.378 z" fill="rgb(222,46,110)" transform="translate(0,0)"></path>
<path d="M 1803.99 283.36 C 1815.5 281.979 1852.78 283.189 1866.38 283.137 L 2014.72 283.066 L 2015.37 530.537 C 2006.71 521.59 1958.24 367.826 1948.75 342.369 C 1937.66 336.537 1923.04 331.213 1911.08 326.48 L 1843.36 299.387 C 1832.2 294.947 1814.19 288.46 1803.99 283.36 z" fill="rgb(6,5,6)" transform="translate(0,0)"></path>
<path d="M 1927.61 588.384 C 1937.31 591.496 1956.18 599.861 1966.36 603.973 C 1969.12 610.783 1971.76 618.131 1973.99 625.135 C 1986.49 664.399 2001.27 703.13 2013.56 742.427 C 1998.83 742.808 1983.29 742.641 1968.5 742.714 L 1910.59 742.763 C 1899.86 714.496 1891.65 685.001 1881.51 656.588 C 1896.06 637.194 1914.38 608.971 1927.61 588.384 z" fill="rgb(39,106,185)" transform="translate(0,0)"></path>
<path d="M 1862.85 382.84 C 1874.24 391.672 1890.58 398.457 1899.99 409.044 C 1906.4 416.256 1934.54 505.468 1940.63 522.386 C 1922.22 526.67 1903.3 530.4 1884.76 534.587 L 1847.07 543.055 C 1835.95 512.92 1824.6 482.871 1813.01 452.911 C 1828.68 406.77 1826.92 409.752 1862.85 382.84 z" fill="rgb(20,140,100)" transform="translate(0,0)"></path>
<path d="M 1945.51 352.73 C 1947.01 353.893 1984.37 465.326 1989.72 479.42 C 1979.68 489.223 1960.32 513.502 1949.84 525.627 L 1948.21 525.073 L 1907.05 405.721 C 1917.54 390.206 1933.36 366.701 1945.51 352.73 z" fill="rgb(39,106,185)" transform="translate(0,0)"></path>
<path d="M 1939.66 529.157 L 1941.82 529.294 C 1945.21 533.543 1961.05 586.657 1963.76 595.288 C 1951.48 591.1 1937.75 585.247 1925.85 580.129 C 1913.81 599.895 1895.47 624.879 1882.03 644.398 L 1879.37 647.495 C 1875.67 643.83 1850.35 558.838 1848.12 548.538 C 1876.08 543.383 1912.16 535.778 1939.66 529.157 z" fill="rgb(39,106,185)" transform="translate(0,0)"></path>
<path d="M 1712.98 440.628 C 1723.84 444.386 1750.77 449.385 1763.13 451.954 C 1777.17 500.757 1796.43 553.061 1812.07 601.815 C 1794.32 594.898 1776.52 588.097 1758.68 581.413 C 1744.96 535.689 1727.83 486.415 1712.98 440.628 z" fill="rgb(222,46,110)" transform="translate(0,0)"></path>
<path d="M 1770.33 439.161 C 1782.74 443.893 1795.12 448.715 1807.47 453.629 C 1818.02 485.107 1835.12 522.7 1843.72 553.941 L 1828.1 582.841 L 1818.34 600.564 C 1815.62 593.628 1813.29 586.174 1811 579.054 C 1797.11 535.956 1781.22 493.245 1769.3 449.577 C 1768.66 447.229 1769.83 441.626 1770.33 439.161 z" fill="rgb(222,46,110)" transform="translate(0,0)"></path>
<path d="M 1852.55 309.383 C 1882.1 321.369 1913.5 332.918 1942.43 346.166 C 1933.39 358.069 1924.54 370.114 1915.88 382.297 L 1902.02 401.588 C 1865.72 378.742 1864.79 382.185 1845.44 343.061 C 1847.96 332.056 1850.22 320.473 1852.55 309.383 z" fill="rgb(243,186,65)" transform="translate(0,0)"></path>
<path d="M 1839.65 348.013 C 1842.46 350.582 1853.94 372.676 1857.79 378.28 C 1849.58 385.414 1839.01 392.795 1830.99 399.411 C 1820.84 407.786 1813.1 434.385 1808.04 448.074 C 1803.74 445.824 1797.8 443.438 1793.25 441.454 C 1785.63 438.072 1778.59 435.518 1770.74 432.675 C 1772.2 413.549 1774.63 393.837 1776.75 374.723 C 1790.8 367.233 1823.41 354.709 1839.65 348.013 z" fill="rgb(222,46,110)" transform="translate(0,0)"></path>
<path d="M 1980.14 539.591 C 1983.28 546.182 1990.26 565.52 1993.27 573.693 C 1999.99 591.929 2011.48 617.254 2015.72 635.304 C 2016.9 640.341 2016.28 672.818 2016.24 679.663 C 2011.39 682.5 2006.83 685.149 2001.83 687.755 C 1988.71 651.864 1975.36 609.464 1963.63 573.16 C 1968.44 562.3 1974.72 550.194 1980.14 539.591 z" fill="rgb(243,186,65)" transform="translate(0,0)"></path>
<path d="M 1761.67 588.719 C 1779.64 595.314 1797.34 602.583 1814.76 610.509 C 1819.93 622.221 1826.6 643.391 1830.87 655.792 C 1825.65 660.45 1820.46 665.143 1815.3 669.871 L 1795.71 687.559 C 1783.89 655.113 1773.05 621.47 1761.67 588.719 z" fill="rgb(20,140,100)" transform="translate(0,0)"></path>
<path d="M 1844.82 564.792 C 1846.77 566.868 1882.75 680.663 1886.28 692.185 C 1882.37 688.919 1876.77 685.018 1872.55 681.91 C 1860.35 673.86 1848.84 663.578 1836.67 654.883 C 1831.91 639.668 1826.85 624.55 1821.49 609.536 C 1827.96 595.555 1837.49 578.655 1844.82 564.792 z" fill="rgb(20,140,100)" transform="translate(0,0)"></path>
<path d="M 1732.25 366.734 C 1745.12 369.132 1757.94 371.797 1770.69 374.73 C 1767.69 398.501 1765.22 422.335 1763.28 446.216 L 1754.7 444.003 C 1740.65 441.252 1725.64 437.569 1711.6 434.386 C 1718.79 412.376 1725.56 388.968 1732.25 366.734 z" fill="rgb(20,140,100)" transform="translate(0,0)"></path>
<path d="M 1832.39 662.662 C 1834.78 665.359 1857 733.298 1860.07 742.242 L 1829.25 742.165 L 1814.67 742.123 C 1808.81 726.84 1803.42 709.103 1798.2 693.372 C 1809.12 683.33 1821.02 671.965 1832.39 662.662 z" fill="rgb(222,46,110)" transform="translate(0,0)"></path>
<path d="M 1777.03 286.411 C 1782.99 289.868 1825.42 333.189 1836.09 342.403 C 1831.22 344.877 1823.5 347.963 1818.31 350.228 C 1804.32 356.041 1790.21 361.77 1776.49 368.17 C 1776.9 340.919 1777.07 313.665 1777.03 286.411 z" fill="rgb(39,106,185)" transform="translate(0,0)"></path>
<path d="M 1841.35 666.477 C 1845.17 668.035 1882.88 697.086 1889.48 701.847 C 1894.37 714.468 1899.21 729.383 1903.76 742.308 C 1891.45 742.231 1879.13 742.32 1866.82 742.573 C 1858.25 719.992 1848.59 689.706 1841.35 666.477 z" fill="rgb(222,46,110)" transform="translate(0,0)"></path>
<path d="M 1984.93 530.968 C 1987.45 517.211 1990.39 503.789 1992.68 489.939 C 1998.46 502.782 2013.52 542.401 2015.5 554.899 C 2016.57 561.658 2016.2 598.102 2016.21 607.374 L 2012.82 606.558 C 2002.89 581.597 1993.59 556.393 1984.93 530.968 z" fill="rgb(243,186,65)" transform="translate(0,0)"></path>
<path d="M 1770.15 288.672 C 1771.74 293.454 1770.31 359.777 1770.27 368.778 C 1760.45 365.762 1750.48 364.023 1740.39 362.292 C 1737.88 362.12 1737.11 362.332 1735.35 360.761 C 1736.01 355.849 1766.22 296.442 1770.15 288.672 z" fill="rgb(222,46,110)" transform="translate(0,0)"></path>
<path d="M 1785.69 283.253 C 1795.95 285.712 1835.2 302.217 1846.68 306.808 C 1844.79 315.699 1842.99 324.61 1841.28 333.539 L 1840.67 335.93 L 1839.19 336.512 C 1832.91 331.272 1789.52 289.593 1785.69 283.253 z" fill="rgb(39,106,185)" transform="translate(0,0)"></path>
<path d="M 1984.7 495.803 C 1983.18 520.172 1975.2 536.53 1963.86 557.558 C 1962.65 559.804 1961.97 561.419 1959.9 561.987 L 1958.95 559.657 L 1951.58 534.393 C 1961.57 522.778 1974 506.168 1984.7 495.803 z" fill="rgb(243,186,65)" transform="translate(0,0)"></path>
<path d="M 2014.5 687.988 C 2014.75 687.998 2015.7 687.919 2015.73 688.49 C 2016.24 701.299 2016.24 714.557 2015.79 727.383 C 2015.79 727.586 2015.67 727.613 2015.54 727.673 C 2015.07 727.304 2014 724.535 2013.75 723.739 C 2010.37 713.996 2007.49 703.822 2003.88 694.154 C 2007.43 692.215 2011.01 690.043 2014.5 687.988 z" fill="rgb(222,46,110)" transform="translate(0,0)"></path>
<path d="M 2016.21 607.374 C 2016.21 608.353 2016.49 611.63 2015.58 612.271 C 2014.57 612.019 2013.2 607.533 2012.82 606.558 L 2016.21 607.374 z" fill="rgb(239,175,67)" transform="translate(0,0)"></path>
<metadata><recraft-signature>{"signed_by": "recraft", "signature_b64": "X5NEMPaGO8inwwsqWdKKNj1knbqCwmDMKpx1ZkuZixIhxfkzmqpylos6zsesKw+T34WBdpmM1t2HkVlsbEmFDQ==", "signing_algo": "Ed25519", "generation_timestamp": 1780247832, "identifier": "979a113b-f0d5-40c6-b688-a639a63014da"}</recraft-signature></metadata></svg>