<svg xmlns="http://www.w3.org/2000/svg" height="768" preserveAspectRatio="none" style="display: block;" version="1.1" viewBox="0 0 2048 1024" width="1536">
<path d="M 0 0 L 2048 0 L 2048 240.969 L 2048 352.02 L 2048 364.344 L 2048 500.981 L 2048 512.554 L 2048 566.258 L 2048 580.586 L 2048 689.488 L 2048 706.041 L 2048 782.193 L 2048 1024 L 0 1024 L 0 782.163 L 0 774.204 L 0 769.37 L 0 751.32 L 0 744.999 L 0 734.274 L 0 720.517 L 0 702.19 L 0 695.9 L 0 678.359 L 0 673.78 L 0 638.075 L 0 635.41 L 0 618.827 L 0 612.55 L 0 593.846 L 0 591.72 L 0 577.965 L 0 574.797 L 0 515.066 L 0 511.978 L 0 484.385 L 0 480.654 L 0 440.438 L 0 434.381 L 0 415.838 L 0 412.077 L 0 382.175 L 0 378.731 L 0 353.723 L 0 348.689 L 0 320.45 L 0 303.762 L 0 291.652 L 0 285.939 L 0 259.225 L 0 253.128 L 0 243.44 L 0 0 z" fill="rgb(49,33,32)" transform="translate(0,0)"></path>
<path d="M 0 303.762 C 17.3492 304.977 20.9555 309.974 35.3869 314.434 C 60.2629 322.124 72.9955 322.353 91.4312 342.35 C 110.535 363.071 102.954 386.072 111.823 405.979 C 124.882 435.289 154.74 438.547 151.194 481.364 C 150.387 491.108 147.376 504.366 148.686 513.973 C 150.273 525.612 161.845 538.938 161.843 550.426 C 161.562 567.992 153.924 584.625 150.107 601.58 C 147.219 614.409 147.039 629.052 142.102 641.247 C 136.33 653.348 122.659 659.385 113.479 668.833 C 102.406 680.229 94.7971 694.416 85.1378 706.425 C 76.7242 716.885 48.7938 720.933 36.3903 724.765 C 24.4144 728.465 12.2551 734.338 0 734.274 L 0 720.517 L 0 702.19 L 0 695.9 L 0 678.359 L 0 673.78 L 0 638.075 L 0 635.41 L 0 618.827 L 0 612.55 L 0 593.846 L 0 591.72 L 0 577.965 L 0 574.797 L 0 515.066 L 0 511.978 L 0 484.385 L 0 480.654 L 0 440.438 L 0 434.381 L 0 415.838 L 0 412.077 L 0 382.175 L 0 378.731 L 0 353.723 L 0 348.689 L 0 320.45 L 0 303.762 z" fill="rgb(49,33,32)" transform="translate(0,0)"></path>
<path d="M 0 382.175 C 17.0028 384.116 32.9268 391.596 43.7541 405.142 C 44.5482 406.13 45.2912 407.159 45.9801 408.223 C 41.7448 456.187 58.2497 437.809 85.3223 459.431 C 103.155 473.673 98.3073 513.344 103.251 533.424 C 111.484 561.17 117.569 555.453 101.686 582.891 C 98.24 588.845 103.176 611.865 92.1859 617.746 C 76.6072 627.543 58.1477 633.42 48.4981 650.784 C 36.8411 671.761 21.5488 671.115 0 673.78 L 0 638.075 L 0 635.41 L 0 618.827 L 0 612.55 L 0 593.846 L 0 591.72 L 0 577.965 L 0 574.797 L 0 515.066 L 0 511.978 L 0 484.385 L 0 480.654 L 0 440.438 L 0 434.381 L 0 415.838 L 0 412.077 L 0 382.175 z" fill="rgb(241,235,230)" transform="translate(0,0)"></path>
<path d="M 0 440.438 C 10.8412 451.333 7.40104 461.495 14.6239 474.14 C 22.0929 487.217 42.2966 492.55 48.9488 505.204 C 51.6237 515.675 49.2449 529.317 49.0151 539.917 C 48.8123 549.272 51.1522 561.734 49.2223 569.98 C 48.3665 573.636 31.867 587.94 28.3762 591.781 C 23.2285 597.445 18.9102 603.596 13.318 608.6 C 12.0089 609.667 2.10456 612.11 0 612.55 L 0 593.846 L 0 591.72 L 0 577.965 L 0 574.797 L 0 515.066 L 0 511.978 L 0 484.385 L 0 480.654 L 0 440.438 z" fill="rgb(245,172,109)" transform="translate(0,0)"></path>
<path d="M 0 484.385 C 30.2988 502.442 31.2523 531.488 36.1385 562.694 C 37.6151 572.124 7.17484 589.168 0 591.72 L 0 577.965 L 0 574.797 L 0 515.066 L 0 511.978 L 0 484.385 z" fill="rgb(241,235,230)" transform="translate(0,0)"></path>
<path d="M 0 515.066 C 10.3266 521.669 10.6538 535.054 12.9068 546.342 C 16.0913 562.296 12.2527 565.808 0 574.797 L 0 515.066 z" fill="rgb(209,106,40)" transform="translate(0,0)"></path>
<path d="M 0 511.978 C 14.0899 514.445 15.5276 518.801 17.1215 533.069 C 19.8521 557.509 30.1332 569.608 0 577.965 L 0 574.797 C 12.2527 565.808 16.0913 562.296 12.9068 546.342 C 10.6538 535.054 10.3266 521.669 0 515.066 L 0 511.978 z" fill="rgb(49,33,32)" transform="translate(0,0)"></path>
<path d="M 0 480.654 C 13.1658 488.418 29.7608 497.902 33.386 513.93 C 35.5118 523.328 35.6101 533.229 37.1147 542.742 C 37.9057 548.191 41.1953 556.392 41.3714 561.051 C 41.5129 564.057 40.7859 567.041 39.2774 569.645 C 34.2413 578.328 9.03119 590.501 0 593.846 L 0 591.72 C 7.17484 589.168 37.6151 572.124 36.1385 562.694 C 31.2523 531.488 30.2988 502.442 0 484.385 L 0 480.654 z" fill="rgb(49,33,32)" transform="translate(0,0)"></path>
<path d="M 0 415.838 C 15.0004 425.51 19.3997 449.982 29.3327 459.875 C 43.7684 474.252 66.0499 461.419 73.0034 494.941 C 77.2423 515.651 66.9274 535.869 67.9875 556.861 C 68.5099 567.205 75.9051 584.135 70.0965 591.217 C 61.7287 601.42 38.6145 597.489 33.8701 615.098 C 29.6854 630.631 19.1156 631.871 4.78059 634.587 C 3.19255 634.892 1.59871 635.167 0 635.41 L 0 618.827 L 0 612.55 C 2.10456 612.11 12.0089 609.667 13.318 608.6 C 18.9102 603.596 23.2285 597.445 28.3762 591.781 C 31.867 587.94 48.3665 573.636 49.2223 569.98 C 51.1522 561.734 48.8123 549.272 49.0151 539.917 C 49.2449 529.317 51.6237 515.675 48.9488 505.204 C 42.2966 492.55 22.0929 487.217 14.6239 474.14 C 7.40104 461.495 10.8412 451.333 0 440.438 L 0 434.381 L 0 415.838 z" fill="rgb(241,235,230)" transform="translate(0,0)"></path>
<path d="M 0 434.381 C 16.2663 446.418 11.0442 459.828 20.8149 474.741 C 29.5635 486.11 43.3665 486.092 51.981 498.497 C 60.8627 511.288 52.9965 525.061 53.6387 537.32 C 54.9509 562.371 62.1467 567.297 40.8751 586.469 C 24.8488 600.914 23.0981 611.521 0 618.827 L 0 612.55 C 2.10456 612.11 12.0089 609.667 13.318 608.6 C 18.9102 603.596 23.2285 597.445 28.3762 591.781 C 31.867 587.94 48.3665 573.636 49.2223 569.98 C 51.1522 561.734 48.8123 549.272 49.0151 539.917 C 49.2449 529.317 51.6237 515.675 48.9488 505.204 C 42.2966 492.55 22.0929 487.217 14.6239 474.14 C 7.40104 461.495 10.8412 451.333 0 440.438 L 0 434.381 z" fill="rgb(49,33,32)" transform="translate(0,0)"></path>
<path d="M 0 412.077 C 24.6314 424.057 17.3141 443.525 36.3172 459.475 C 41.8892 464.152 53.892 464.811 61.8119 468.861 C 83.9634 498.752 79.8063 508.662 73.9554 544.787 C 71.944 557.206 81.4618 586.718 69.4084 596.671 C 52.775 606.081 43.2535 602.819 35.9778 624.505 C 32.2807 635.524 11.1717 638.255 0 638.075 L 0 635.41 C 1.59871 635.167 3.19255 634.892 4.78059 634.587 C 19.1156 631.871 29.6854 630.631 33.8701 615.098 C 38.6145 597.489 61.7287 601.42 70.0965 591.217 C 75.9051 584.135 68.5099 567.205 67.9875 556.861 C 66.9274 535.869 77.2423 515.651 73.0034 494.941 C 66.0499 461.419 43.7684 474.252 29.3327 459.875 C 19.3997 449.982 15.0004 425.51 0 415.838 L 0 412.077 z" fill="rgb(49,33,32)" transform="translate(0,0)"></path>
<path d="M 0 353.723 C 15.4234 364.561 23.5254 360.228 39.1057 363.41 C 52.3814 366.122 75.3541 379.682 76.7265 394.667 C 76.975 397.38 79.1039 410.74 79.7745 412.619 C 84.7979 426.693 96.2469 442.259 106.977 452.747 C 112.328 457.978 116.747 462.601 120.061 469.271 C 127.251 483.744 118.383 504.185 120.723 516.834 C 124.155 535.389 143.442 540.182 136.848 564.074 C 134.717 566.837 129.346 574.69 128.313 577.981 C 126.416 586.402 124.512 586.045 124.584 596.415 C 123.556 601.918 122.975 600.532 122.12 608.273 C 121.914 639.884 102.817 635.32 81.193 648.301 C 72.6795 653.411 70.4408 663.164 65.5943 671.093 C 56.0882 687.483 18.9377 690.166 0 695.9 L 0 678.359 L 0 673.78 C 21.5488 671.115 36.8411 671.761 48.4981 650.784 C 58.1477 633.42 76.6072 627.543 92.1859 617.746 C 103.176 611.865 98.24 588.845 101.686 582.891 C 117.569 555.453 111.484 561.17 103.251 533.424 C 98.3073 513.344 103.155 473.673 85.3223 459.431 C 58.2497 437.809 41.7448 456.187 45.9801 408.223 C 45.2912 407.159 44.5482 406.13 43.7541 405.142 C 32.9268 391.596 17.0028 384.116 0 382.175 L 0 378.731 L 0 353.723 z" fill="rgb(241,235,230)" transform="translate(0,0)"></path>
<path d="M 0 378.731 C 16.3268 380.775 37.4623 386.261 48.8711 398.924 C 55.6175 406.411 53.5775 417.855 54.2492 427.12 C 55.7615 447.981 79.9772 443.325 91.4878 459.135 C 105.931 478.975 101.778 495.691 103.523 518.146 C 104.769 532.913 116.985 549.185 116.075 564.342 C 115.842 569.173 105.879 579.271 104.525 584.518 C 100.482 600.198 105.572 604.468 98.3078 620.221 C 90.1264 625.961 75.5376 631.353 69.3431 636.766 C 39.8561 662.531 44.4558 675.676 0 678.359 L 0 673.78 C 21.5488 671.115 36.8411 671.761 48.4981 650.784 C 58.1477 633.42 76.6072 627.543 92.1859 617.746 C 103.176 611.865 98.24 588.845 101.686 582.891 C 117.569 555.453 111.484 561.17 103.251 533.424 C 98.3073 513.344 103.155 473.673 85.3223 459.431 C 58.2497 437.809 41.7448 456.187 45.9801 408.223 C 45.2912 407.159 44.5482 406.13 43.7541 405.142 C 32.9268 391.596 17.0028 384.116 0 382.175 L 0 378.731 z" fill="rgb(49,33,32)" transform="translate(0,0)"></path>
<path d="M 122.12 608.273 C 120.967 595.839 120.653 588.688 128.313 577.981 C 126.416 586.402 124.512 586.045 124.584 596.415 C 123.556 601.918 122.975 600.532 122.12 608.273 z" fill="rgb(61,42,31)" transform="translate(0,0)"></path>
<path d="M 0 320.45 C 15.804 327.035 30.1388 335.995 45.0147 344.311 C 55.9062 350.399 70.117 354.203 79.7855 362.415 C 97.1818 377.19 90.8571 403.616 100.167 422.435 C 108.61 439.5 126.746 447.189 132.622 465.794 C 138.444 483.048 131.71 495.165 132.94 512.156 C 134.219 529.816 153.551 547.542 144.414 565.317 C 132.755 587.996 132.335 588.871 137.345 613.6 C 131.5 628.901 111.533 644.801 101.704 658.103 C 94.5409 667.797 85.4928 679.319 78.3968 688.395 C 62.7038 708.465 51.8911 701.533 30.3439 706.114 C 17.7378 708.794 17.2398 719.139 0 720.517 L 0 702.19 L 0 695.9 C 18.9377 690.166 56.0882 687.483 65.5943 671.093 C 70.4408 663.164 72.6795 653.411 81.193 648.301 C 102.817 635.32 121.914 639.884 122.12 608.273 C 122.975 600.532 123.556 601.918 124.584 596.415 C 124.512 586.045 126.416 586.402 128.313 577.981 C 129.346 574.69 134.717 566.837 136.848 564.074 C 143.442 540.182 124.155 535.389 120.723 516.834 C 118.383 504.185 127.251 483.744 120.061 469.271 C 116.747 462.601 112.328 457.978 106.977 452.747 C 96.2469 442.259 84.7979 426.693 79.7745 412.619 C 79.1039 410.74 76.975 397.38 76.7265 394.667 C 75.3541 379.682 52.3814 366.122 39.1057 363.41 C 23.5254 360.228 15.4234 364.561 0 353.723 L 0 348.689 L 0 320.45 z" fill="rgb(245,172,109)" transform="translate(0,0)"></path>
<path d="M 0 348.689 C 18.3841 364 33.1937 350.902 54.4717 362.843 C 85.9437 380.506 75.9346 393.271 86.7558 421.364 C 94.5287 441.544 126.731 455.078 126.991 479.985 C 127.893 492.36 125.67 502.987 122.474 514.83 C 127.69 529.534 150.868 549.467 136.848 564.074 C 143.442 540.182 124.155 535.389 120.723 516.834 C 118.383 504.185 127.251 483.744 120.061 469.271 C 116.747 462.601 112.328 457.978 106.977 452.747 C 96.2469 442.259 84.7979 426.693 79.7745 412.619 C 79.1039 410.74 76.975 397.38 76.7265 394.667 C 75.3541 379.682 52.3814 366.122 39.1057 363.41 C 23.5254 360.228 15.4234 364.561 0 353.723 L 0 348.689 z" fill="rgb(49,33,32)" transform="translate(0,0)"></path>
<path d="M 124.584 596.415 C 125.525 607.198 127.862 622.652 120.113 631.128 C 110.621 641.509 92.684 642.159 81.7477 652.615 C 77.4051 665.002 73.34 680.151 60.2586 684.882 C 43.2125 691.048 17.4583 699.665 0 702.19 L 0 695.9 C 18.9377 690.166 56.0882 687.483 65.5943 671.093 C 70.4408 663.164 72.6795 653.411 81.193 648.301 C 102.817 635.32 121.914 639.884 122.12 608.273 C 122.975 600.532 123.556 601.918 124.584 596.415 z" fill="rgb(49,33,32)" transform="translate(0,0)"></path>
<path d="M 0 259.225 C 17.3461 264.23 30.1473 277.363 41.7853 279.98 C 68.0471 285.887 89.3253 258.836 110.364 295.358 C 118.27 308.714 119.426 324.521 125.099 338.67 C 128.704 347.661 138.994 353.962 143.513 362.35 C 147.565 369.872 150.108 378.668 152.039 387.048 C 154.619 398.247 158.053 408.643 161.633 419.591 C 174.891 429.612 183.873 438.099 186.012 455.982 C 188.297 475.087 183.501 491.286 185.855 511.186 C 187.715 526.913 199.736 543.821 198.407 556.875 C 197.137 569.349 185.614 583.713 180.547 599.652 C 172.008 626.51 182.512 649.752 168.83 672.651 C 168.161 673.771 165.808 675.505 164.737 676.251 C 139.844 689.455 128.485 716.412 110.861 736.452 C 105.681 742.341 81.5595 743.313 73.6569 747.351 C 39.5697 764.767 40.5978 775.236 0 769.37 L 0 751.32 L 0 744.999 L 0 734.274 C 12.2551 734.338 24.4144 728.465 36.3903 724.765 C 48.7938 720.933 76.7242 716.885 85.1378 706.425 C 94.7971 694.416 102.406 680.229 113.479 668.833 C 122.659 659.385 136.33 653.348 142.102 641.247 C 147.039 629.052 147.219 614.409 150.107 601.58 C 153.924 584.625 161.562 567.992 161.843 550.426 C 161.845 538.938 150.273 525.612 148.686 513.973 C 147.376 504.366 150.387 491.108 151.194 481.364 C 154.74 438.547 124.882 435.289 111.823 405.979 C 102.954 386.072 110.535 363.071 91.4312 342.35 C 72.9955 322.353 60.2629 322.124 35.3869 314.434 C 20.9555 309.974 17.3492 304.977 0 303.762 L 0 291.652 L 0 285.939 L 0 259.225 z" fill="rgb(245,172,109)" transform="translate(0,0)"></path>
<path d="M 0 291.652 C 21.3204 289.682 32.983 303.369 55.0179 300.982 C 62.0608 300.219 88.1209 318.159 93.7887 322.919 C 125.459 348.459 113.685 369.875 127.134 399.91 C 131.987 410.747 151.556 430.024 158.851 443.042 C 166.47 462.476 165.361 473.13 160.534 493.172 C 159.482 497.541 157.772 505.762 158.808 509.945 C 163.312 528.123 180.314 540.371 172.155 561.621 C 170.018 567.186 163.399 576.483 162.094 581.547 C 157.093 600.95 162.87 625.63 156.635 644.32 C 151.097 660.923 129.534 671.143 118.154 684.342 C 106.069 698.359 107.07 718.092 88.141 724.494 C 77.4423 728.112 67.0029 730.973 55.9673 734.385 C 43.239 738.322 29.4 745.131 16.5491 748.029 C 12.6044 748.919 3.96095 746.446 0 744.999 L 0 734.274 C 12.2551 734.338 24.4144 728.465 36.3903 724.765 C 48.7938 720.933 76.7242 716.885 85.1378 706.425 C 94.7971 694.416 102.406 680.229 113.479 668.833 C 122.659 659.385 136.33 653.348 142.102 641.247 C 147.039 629.052 147.219 614.409 150.107 601.58 C 153.924 584.625 161.562 567.992 161.843 550.426 C 161.845 538.938 150.273 525.612 148.686 513.973 C 147.376 504.366 150.387 491.108 151.194 481.364 C 154.74 438.547 124.882 435.289 111.823 405.979 C 102.954 386.072 110.535 363.071 91.4312 342.35 C 72.9955 322.353 60.2629 322.124 35.3869 314.434 C 20.9555 309.974 17.3492 304.977 0 303.762 L 0 291.652 z" fill="rgb(241,235,230)" transform="translate(0,0)"></path>
<path d="M 158.851 443.042 L 161.935 442.813 C 173.281 462.214 168.382 484.785 165.439 506.364 C 174.128 525.476 185.723 545.724 177.446 566.743 C 173.836 575.909 166.05 584.924 164.197 593.647 C 158.901 618.579 168.063 633.703 154.534 657.647 C 147.011 670.961 126.099 682.814 121.934 690.38 C 113.369 708.577 110.512 720.667 90.0275 728.673 C 81.0492 732.182 70.7218 735.518 61.4464 738.823 C 36.2042 747.819 27.119 755.426 0 751.32 L 0 744.999 C 3.96095 746.446 12.6044 748.919 16.5491 748.029 C 29.4 745.131 43.239 738.322 55.9673 734.385 C 67.0029 730.973 77.4423 728.112 88.141 724.494 C 107.07 718.092 106.069 698.359 118.154 684.342 C 129.534 671.143 151.097 660.923 156.635 644.32 C 162.87 625.63 157.093 600.95 162.094 581.547 C 163.399 576.483 170.018 567.186 172.155 561.621 C 180.314 540.371 163.312 528.123 158.808 509.945 C 157.772 505.762 159.482 497.541 160.534 493.172 C 165.361 473.13 166.47 462.476 158.851 443.042 z" fill="rgb(49,33,32)" transform="translate(0,0)"></path>
<path d="M 0 285.939 C 18.2924 286.388 27.7439 286.069 43.012 295.832 C 44.7276 296.929 58.465 296.597 61.2616 297.453 C 79.1364 302.416 95.0763 315.793 107.592 328.088 C 126.604 346.765 120.042 367.102 127.391 386.593 C 131.944 398.671 153.687 433.159 161.935 442.813 L 158.851 443.042 C 151.556 430.024 131.987 410.747 127.134 399.91 C 113.685 369.875 125.459 348.459 93.7887 322.919 C 88.1209 318.159 62.0608 300.219 55.0179 300.982 C 32.983 303.369 21.3204 289.682 0 291.652 L 0 285.939 z" fill="rgb(49,33,32)" transform="translate(0,0)"></path>
<path d="M 0 243.44 C 26.7441 247.478 27.0668 259.263 47.2729 267.295 C 65.9428 274.716 84.2674 250.444 107.313 270.811 C 112.51 275.404 116.007 277.105 121.393 284.384 C 130.621 296.856 127.333 308.833 134.404 321.491 C 140.712 332.784 154.344 336.867 158.856 349.754 C 163.814 363.914 163.799 382.614 171.154 395.885 C 179.241 410.475 195.443 417.711 200.855 435.629 C 207.478 457.553 200.509 478.643 203.309 501.767 C 205.872 525.112 218.682 546.161 215.478 570.061 C 213.559 584.373 203.001 594.978 199.295 607.763 C 194.265 625.111 198.083 645.318 192.592 663.137 C 187.362 680.113 174.073 685.898 163.356 698.484 C 155.046 709.98 145.995 735.832 131.061 744.007 C 120.228 749.936 74.1552 779.357 65.4912 781.183 C 56.247 783.13 12.1328 782.2 0 782.163 L 0 774.204 L 0 769.37 C 40.5978 775.236 39.5697 764.767 73.6569 747.351 C 81.5595 743.313 105.681 742.341 110.861 736.452 C 128.485 716.412 139.844 689.455 164.737 676.251 C 165.808 675.505 168.161 673.771 168.83 672.651 C 182.512 649.752 172.008 626.51 180.547 599.652 C 185.614 583.713 197.137 569.349 198.407 556.875 C 199.736 543.821 187.715 526.913 185.855 511.186 C 183.501 491.286 188.297 475.087 186.012 455.982 C 183.873 438.099 174.891 429.612 161.633 419.591 C 158.053 408.643 154.619 398.247 152.039 387.048 C 150.108 378.668 147.565 369.872 143.513 362.35 C 138.994 353.962 128.704 347.661 125.099 338.67 C 119.426 324.521 118.27 308.714 110.364 295.358 C 89.3253 258.836 68.0471 285.887 41.7853 279.98 C 30.1473 277.363 17.3461 264.23 0 259.225 L 0 253.128 L 0 243.44 z" fill="rgb(241,235,230)" transform="translate(0,0)"></path>
<path d="M 0 253.128 C 6.66026 256.108 11.6534 258.764 17.6068 262.414 C 24.0678 265.925 35.5098 275.516 42.8604 276.222 C 64.8952 278.339 80.3173 259.93 101.219 277.716 C 119.92 293.63 116.06 311.621 127.154 330.816 C 131.958 339.129 144.652 346.474 148.238 356.184 C 154.604 373.973 155.968 394.95 165.22 411.911 C 172.424 425.119 184.711 427.669 188.582 445.781 C 193.241 467.587 186.498 492.555 190.837 514.632 C 195.06 536.117 208.62 545.343 197.588 569.34 C 193.547 578.13 186.368 590.667 184.843 599.961 C 181.105 622.754 186.116 662.112 167.544 678.474 L 164.737 676.251 C 165.808 675.505 168.161 673.771 168.83 672.651 C 182.512 649.752 172.008 626.51 180.547 599.652 C 185.614 583.713 197.137 569.349 198.407 556.875 C 199.736 543.821 187.715 526.913 185.855 511.186 C 183.501 491.286 188.297 475.087 186.012 455.982 C 183.873 438.099 174.891 429.612 161.633 419.591 C 158.053 408.643 154.619 398.247 152.039 387.048 C 150.108 378.668 147.565 369.872 143.513 362.35 C 138.994 353.962 128.704 347.661 125.099 338.67 C 119.426 324.521 118.27 308.714 110.364 295.358 C 89.3253 258.836 68.0471 285.887 41.7853 279.98 C 30.1473 277.363 17.3461 264.23 0 259.225 L 0 253.128 z" fill="rgb(49,33,32)" transform="translate(0,0)"></path>
<path d="M 164.737 676.251 L 167.544 678.474 C 146.412 692.783 130.947 720.847 113.1 741.065 C 106.98 742.917 94.068 745.463 89.7291 747.498 C 48.5617 766.808 46.2572 781.573 0 774.204 L 0 769.37 C 40.5978 775.236 39.5697 764.767 73.6569 747.351 C 81.5595 743.313 105.681 742.341 110.861 736.452 C 128.485 716.412 139.844 689.455 164.737 676.251 z" fill="rgb(49,33,32)" transform="translate(0,0)"></path>
<path d="M 2048 364.344 L 2048 500.981 C 2034.62 501.383 2021.24 501.699 2007.85 501.928 C 1981.6 458.042 1950.93 408.893 1926.51 364.534 C 1937.7 363.618 1957.42 364.207 1969.08 364.268 C 1995.39 364.531 2021.69 364.557 2048 364.344 z" fill="rgb(243,142,70)" transform="translate(0,0)"></path>
<path d="M 2028.29 240.963 L 2048 240.969 L 2048 352.02 L 1939.23 352.031 C 1967.09 315.251 1999.01 276.943 2028.29 240.963 z" fill="rgb(243,142,70)" transform="translate(0,0)"></path>
<path d="M 1979.63 674.487 C 1994.71 655.233 2008.02 631.259 2023.03 611.609 C 2030.74 601.51 2036.03 585.347 2048 580.586 L 2048 689.488 C 2037.86 695.116 2016.25 704.821 2005.67 709.353 C 1999.45 699.422 1987.11 683.885 1979.63 674.487 z" fill="rgb(209,106,40)" transform="translate(0,0)"></path>
<path d="M 2048 706.041 L 2048 782.193 L 1979.02 782.186 C 1987.12 764.586 2000.91 740.52 2010.18 722.834 C 2023.11 716.746 2034.76 711.376 2048 706.041 z" fill="rgb(243,142,70)" transform="translate(0,0)"></path>
<path d="M 2035.21 570.716 C 2030.08 558.989 2002.06 523.453 2006.31 513.951 C 2011.98 511.649 2040.03 512.509 2048 512.554 L 2048 566.258 L 2035.21 570.716 z" fill="rgb(241,235,230)" transform="translate(0,0)"></path>
<path d="M 1902.85 241.341 C 1908.1 240.863 1911.54 240.978 1916.73 241.145 C 1888.35 275 1860.06 311.385 1831.91 345.811 C 1815.37 366.048 1784.66 401.796 1770.34 422.176 C 1769.23 465.765 1766.78 513.466 1767.03 556.551 C 1758.77 564.569 1748.14 574.367 1740.82 582.988 C 1742.03 608.419 1746.47 633.632 1750.01 658.811 C 1750.54 662.6 1751.15 666.366 1751.38 670.189 C 1785.2 697.815 1820.71 723.646 1855.14 750.462 C 1867.41 760.017 1884.78 772.351 1896.05 782.061 C 1892.71 782.112 1880.44 782.695 1878.29 781.518 C 1871.99 784.507 1602.27 783.129 1569.09 783.134 L 519.506 783.11 L 293.356 783.026 C 279.383 783.009 221.619 784.517 212.889 781.883 C 210.806 782.392 200.387 782.421 197.627 782.476 C 214.061 766.859 215.657 756.333 222.805 735.676 C 228.505 732.869 237.258 728.645 242.021 724.727 C 252.014 716.505 252.654 699.501 258.136 688.215 C 259.553 685.296 264.866 677.983 266.923 675.576 C 279.896 660.398 270.581 645.137 275.104 628.859 C 278.85 615.377 293.948 604.599 293.077 588.506 C 293.349 575.604 280.506 561.29 279.277 549.63 C 277.557 533.314 304.685 523.342 299.75 502.266 C 297.131 491.076 289.67 478.889 280.863 472.267 C 282.968 446.657 287.413 438.606 265.225 421.017 C 264.262 402.07 263.796 389.122 245.904 378.625 C 232.589 370.814 250.368 360.101 233.887 348.745 C 235.538 314.528 223.546 308.603 199.035 288.099 C 198.343 283.468 198.481 278.832 197.39 274.02 C 194.111 259.558 182.099 250.912 171.357 241.763 C 176.911 241.494 182.896 240.564 187.959 242.535 C 192.902 241.189 215.973 241.479 222.674 241.465 L 302.208 241.715 L 605.316 241.777 L 1484.93 241.867 L 1750.12 241.666 C 1800.39 241.529 1852.71 240.519 1902.85 241.341 z" fill="rgb(25,5,5)" transform="translate(0,0)"></path>
<path d="M 1902.85 241.341 C 1908.1 240.863 1911.54 240.978 1916.73 241.145 C 1888.35 275 1860.06 311.385 1831.91 345.811 C 1815.37 366.048 1784.66 401.796 1770.34 422.176 C 1769.23 465.765 1766.78 513.466 1767.03 556.551 C 1758.77 564.569 1748.14 574.367 1740.82 582.988 C 1742.03 608.419 1746.47 633.632 1750.01 658.811 C 1750.54 662.6 1751.15 666.366 1751.38 670.189 C 1785.2 697.815 1820.71 723.646 1855.14 750.462 C 1867.41 760.017 1884.78 772.351 1896.05 782.061 C 1892.71 782.112 1880.44 782.695 1878.29 781.518 L 1788.13 712.48 C 1775.2 702.599 1751.41 685.42 1740.31 675.163 C 1736.8 644.037 1731.24 610.801 1728.55 580.107 C 1736.77 570.278 1748.95 560.302 1755.67 551.549 C 1756.51 507.937 1756.71 462.084 1759.24 418.715 C 1769.44 404.085 1788.69 381.588 1800.42 367.13 L 1857.79 296.294 C 1872.62 278.248 1888.58 259.718 1902.85 241.341 z" fill="rgb(241,235,230)" transform="translate(0,0)"></path>
<path d="M 171.357 241.763 C 176.911 241.494 182.896 240.564 187.959 242.535 C 201.87 253.905 207.974 263.975 209.826 282.094 L 209.887 282.699 C 232.884 302.78 246.052 310.908 245.216 343.846 C 253.458 351.408 253.74 357.879 251.094 368.238 C 269.929 380.014 275.2 394.291 276.207 415.529 C 296.109 431.931 295.009 442.44 291.491 466.435 C 317.156 499.474 319.252 514.924 289.669 546.024 L 289.968 547.003 C 295.596 564.938 312.923 588.691 300.553 606.377 C 283.784 630.354 283.814 632.545 285.339 661.486 C 285.627 666.952 270.088 690.021 267.419 695.952 C 262.653 706.332 259.281 720.789 253.097 730.5 C 250.805 734.099 236.396 741.894 231.605 744.986 C 226.255 759.662 223.133 769.67 212.889 781.883 C 210.806 782.392 200.387 782.421 197.627 782.476 C 214.061 766.859 215.657 756.333 222.805 735.676 C 228.505 732.869 237.258 728.645 242.021 724.727 C 252.014 716.505 252.654 699.501 258.136 688.215 C 259.553 685.296 264.866 677.983 266.923 675.576 C 279.896 660.398 270.581 645.137 275.104 628.859 C 278.85 615.377 293.948 604.599 293.077 588.506 C 293.349 575.604 280.506 561.29 279.277 549.63 C 277.557 533.314 304.685 523.342 299.75 502.266 C 297.131 491.076 289.67 478.889 280.863 472.267 C 282.968 446.657 287.413 438.606 265.225 421.017 C 264.262 402.07 263.796 389.122 245.904 378.625 C 232.589 370.814 250.368 360.101 233.887 348.745 C 235.538 314.528 223.546 308.603 199.035 288.099 C 198.343 283.468 198.481 278.832 197.39 274.02 C 194.111 259.558 182.099 250.912 171.357 241.763 z" fill="rgb(241,235,230)" transform="translate(0,0)"></path>
<path d="M 602.201 347.446 C 623.488 347.874 644.036 350.111 660.674 365.005 C 670.807 374.076 676.72 388.235 676.873 401.684 C 677.254 435.09 677.316 469.57 677.227 502.904 C 677.191 516.486 678.309 557.3 676.112 568.646 C 674.183 578.165 669.691 586.977 663.122 594.131 C 647.985 610.299 625.763 613.659 604.798 614.366 C 569.496 614.273 531.92 601.963 530.758 559.683 C 529.903 528.582 529.75 496.356 530.224 465.277 C 530.531 445.108 528.282 412.417 531.722 393.434 C 533.37 384.073 537.59 375.354 543.91 368.255 C 559.211 351.116 580.768 348.5 602.201 347.446 z" fill="rgb(241,235,230)" transform="translate(0,0)"></path>
<path d="M 599.763 393.975 C 616.903 393.823 614.584 406.233 614.601 419.268 L 614.485 517.683 C 614.43 531.339 614.698 547.057 613.645 560.714 C 613.422 563.598 610.733 566.246 608.706 568.278 C 600.314 569.806 593.863 567.472 593.339 557.874 C 592.523 542.919 592.918 527.632 592.939 512.644 C 592.987 476.937 592.515 441.226 593.077 405.532 C 593.164 399.994 595.846 397.39 599.763 393.975 z" fill="rgb(25,5,5)" transform="translate(0,0)"></path>
<path d="M 1434.64 347.44 C 1471.02 346.912 1510.1 358.401 1511.59 402.513 C 1512.68 434.619 1511.75 467.028 1511.99 499.174 C 1510.5 521.352 1514.56 547.68 1510.65 569.263 C 1504.43 603.609 1468.85 613.079 1441.25 614.536 C 1407.28 616.309 1368.91 601.554 1365.79 562.321 C 1364.79 549.76 1365.17 536.767 1365.15 524.144 L 1365.3 459.237 C 1365.6 397.054 1354.81 352.994 1434.64 347.44 z" fill="rgb(241,235,230)" transform="translate(0,0)"></path>
<path d="M 1437.09 393.954 C 1439.03 394.256 1441.11 394.602 1442.97 395.25 C 1445.09 395.987 1446.84 397.729 1447.77 399.741 C 1449.57 403.616 1450.28 557.215 1448.11 562.537 C 1446.54 566.368 1443.53 567.632 1439.97 569.079 C 1438.19 568.774 1436.45 568.322 1434.76 567.662 C 1432.3 566.697 1430.13 565.08 1429.17 562.49 C 1426.64 555.652 1426.61 405.328 1429.33 399.762 C 1431.02 396.292 1433.71 395.241 1437.09 393.954 z" fill="rgb(25,5,5)" transform="translate(0,0)"></path>
<path d="M 397.558 351.487 C 453.965 351.236 523.381 338.267 518.329 419.851 C 516.329 452.155 526.166 472.428 487.417 485.872 C 524.069 494.583 518.175 523.399 518.127 553.252 L 518.135 611.07 L 457.013 611.144 L 457.01 574.5 C 456.831 557.169 458.061 539.912 456.92 522.625 C 456.308 513.358 444.055 501.413 435.733 507.247 C 434.376 514.42 434.916 534.76 434.935 543.201 L 435.121 611.085 L 372.571 611.182 L 372.824 351.596 L 397.558 351.487 z" fill="rgb(241,235,230)" transform="translate(0,0)"></path>
<path d="M 435.267 395.819 C 443.247 395.642 455.889 395.51 456.305 406.293 C 456.795 418.96 460.134 451.873 452.639 461.517 C 448.032 464.613 440.511 466.455 435.597 463.295 C 434.318 456.595 435.206 405.403 435.267 395.819 z" fill="rgb(25,5,5)" transform="translate(0,0)"></path>
<path d="M 1208.22 351.255 L 1270.34 351.431 L 1270.13 457.903 L 1292.19 457.956 L 1292.22 351.558 L 1353.33 351.501 L 1353.31 538.01 C 1353.32 547.295 1354.51 605.477 1352.88 610.325 L 1351.15 611.092 L 1292.12 611.16 C 1292.11 599.581 1293.21 505.577 1291.1 501.147 C 1264.81 497.189 1270.04 539.866 1270.15 555.538 L 1270.22 611.074 L 1208.57 611.131 C 1206.99 588.972 1208.25 549.408 1208.21 525.456 L 1208.22 351.255 z" fill="rgb(241,235,230)" transform="translate(0,0)"></path>
<path d="M 849.004 351.315 L 910.276 351.645 L 910.441 458.299 C 937.38 446.423 932.613 424.102 932.697 399.361 C 932.751 383.438 932.499 367.448 932.462 351.52 L 993.71 351.828 C 993.814 370.184 993.852 388.756 994.012 407.092 C 994.271 436.807 989.358 459.643 960.79 474.384 C 1002.54 497.94 993.971 544.848 993.925 586.5 L 993.96 611.226 L 932.709 611.241 C 932.51 588.942 936.297 529.231 929.068 512.119 C 925.385 503.402 918.813 499.758 910.523 496.301 L 910.275 611.068 L 848.863 611.09 L 849.004 351.315 z" fill="rgb(241,235,230)" transform="translate(0,0)"></path>
<path d="M 1524.39 351.16 C 1544.73 351.166 1615.87 349.903 1631.13 353.719 C 1639.11 355.676 1646.45 359.665 1652.43 365.3 C 1664.15 376.28 1670.78 396.866 1669.87 412.977 C 1666.49 472.385 1689.47 542.407 1603.43 543.968 L 1586.37 543.975 L 1586.36 611.114 L 1524.28 611.077 L 1524.39 351.16 z" fill="rgb(241,235,230)" transform="translate(0,0)"></path>
<path d="M 1586.54 396.001 C 1594.21 395.767 1607.32 395.813 1607.73 406.768 C 1608.36 423.721 1612.71 483.556 1604.73 495.444 C 1600.6 498.146 1593.22 499.976 1588.39 498.809 C 1587.96 498.289 1587.53 497.77 1587.1 497.25 C 1585.94 475.636 1586.41 413.446 1586.54 396.001 z" fill="rgb(25,5,5)" transform="translate(0,0)"></path>
<path d="M 749.043 348.379 C 754.009 347.537 761.185 347.771 766.321 347.773 C 845.471 347.812 836.433 397.744 836.263 454.477 L 774.064 454.672 C 774.003 441.028 776.563 411.045 771.309 398.292 C 768.095 390.488 753.389 393.38 753.068 405.345 C 752.455 428.177 752.864 451.336 752.83 474.345 L 752.767 526.858 C 752.763 536.872 752.652 547.11 753.233 557.074 C 754.306 575.453 773.574 569.299 774.044 558.798 C 774.863 540.471 774.386 520.807 774.315 502.316 L 796.053 502.403 L 836.386 502.728 C 836.42 528.691 840.985 569.706 825.374 590.472 C 803.078 620.13 739.346 621.85 710.816 600.686 C 688.093 583.829 689.765 559.218 689.848 534.367 L 690.046 484.963 L 689.914 431.038 C 689.883 419.178 689.051 406.141 691.089 394.502 C 696.527 363.447 720.988 351.54 749.043 348.379 z" fill="rgb(241,235,230)" transform="translate(0,0)"></path>
<path d="M 1105.82 348.363 C 1111.2 347.433 1118.05 347.606 1123.4 347.486 C 1164.14 346.575 1195.94 365.254 1194.37 410.191 C 1194.05 419.399 1194.37 431.96 1194.33 441.733 L 1132.15 441.716 C 1132.15 433.345 1134.09 400.8 1128.76 396.712 C 1105.97 379.252 1109.6 438.446 1117.01 444.754 C 1146.5 470.043 1191.8 471.934 1194.11 520.253 C 1196.77 575.925 1196.48 610.693 1129.16 614.422 C 1127.49 614.477 1125.81 614.513 1124.13 614.53 C 1103.11 614.729 1082.09 610.993 1066.36 595.765 C 1045.76 575.818 1050 540.23 1050.08 512.773 L 1111.22 512.729 C 1111.31 523.868 1111.33 535.008 1111.29 546.148 C 1111.31 552.754 1110.55 578.86 1129.22 566.138 C 1133.48 563.233 1132.28 530.606 1131.7 522.454 C 1130.35 503.27 1084.49 491.452 1071.8 479.594 C 1060.19 471.306 1051.57 457.048 1050.62 442.513 C 1047.37 392.506 1048.08 356.236 1105.82 348.363 z" fill="rgb(241,235,230)" transform="translate(0,0)"></path>
<path d="M 818.619 651.695 C 817.575 656.611 816.43 662.02 816.132 667.041 C 816.631 670.52 808.29 669.441 808.344 668.371 C 808.79 659.527 810.795 650.418 811.423 641.467 C 811.55 639.661 818.863 640.131 819.488 640.917 C 822.567 644.795 824.895 651.881 827.055 656.452 C 827.871 654.315 832.204 641.296 833.523 640.882 C 843.655 637.702 843.483 644.136 843.243 651.488 C 843.042 657.669 849.067 671.528 840.353 669.178 C 835.182 668.103 836.934 665.259 836.664 661.237 C 836.362 661.888 835.99 663.324 835.396 663.687 C 835.494 663.772 834.097 659.882 833.312 658.542 C 831.027 663.965 829.692 668.109 827.139 673.549 C 823.114 665.395 821.89 659.934 818.619 651.695 z" fill="rgb(243,142,70)" transform="translate(0,0)"></path>
<path d="M 833.312 658.542 C 833.549 657.29 833.896 654.842 835.292 654.554 C 836.264 655.277 836.477 659.894 836.664 661.237 C 836.362 661.888 835.99 663.324 835.396 663.687 C 835.494 663.772 834.097 659.882 833.312 658.542 z" fill="rgb(4,1,1)" transform="translate(0,0)"></path>
<path d="M 1334.25 639.202 C 1355.47 641.818 1349.02 653.344 1338.41 647.238 C 1333.97 644.682 1330.18 648.299 1328.75 650.978 C 1322.97 661.837 1339.22 667.013 1340.81 660.032 C 1340.2 657.967 1332.58 660.691 1335.82 653.529 C 1336.25 652.588 1340.28 652.627 1341.6 652.481 C 1342.91 652.555 1348.73 652.697 1349.01 652.995 C 1358.84 663.099 1335.29 675.244 1326.44 668.135 C 1312.5 656.945 1318.48 642.878 1334.25 639.202 z" fill="rgb(243,142,70)" transform="translate(0,0)"></path>
<path d="M 1438.62 637.881 C 1439.78 637.931 1445.85 637.6 1445.92 638.927 C 1446.43 648.629 1446.57 659.056 1445.78 668.714 C 1445.64 670.423 1437.38 668.611 1437.59 668.524 C 1433.92 670.024 1432.23 670.035 1428.34 669.917 C 1426.76 668.722 1424.99 667.707 1423.83 666.078 C 1416.8 656.193 1426.01 644.651 1437.15 649.507 C 1437.36 649.596 1438.22 649.637 1438.44 649.491 C 1438.68 648.612 1438.6 639.679 1438.62 637.881 z" fill="rgb(243,142,70)" transform="translate(0,0)"></path>
<path d="M 1432.72 654.662 C 1435.09 653.898 1437.65 655.078 1438.61 657.376 C 1439.57 659.674 1438.61 662.324 1436.4 663.472 C 1434.79 664.305 1432.86 664.165 1431.39 663.109 C 1429.92 662.053 1429.18 660.262 1429.46 658.477 C 1429.74 656.692 1431 655.217 1432.72 654.662 z" fill="rgb(4,1,1)" transform="translate(0,0)"></path>
<path d="M 555.437 639.143 C 561.519 639.105 572.543 638.573 568.94 649.492 C 568.661 650.336 565.665 648.596 564.987 648.297 C 562.012 647 558.721 646.609 555.524 647.172 C 550.513 648.102 547.777 652.615 549.36 657.387 C 550.035 659.422 551.544 661.075 553.51 661.931 C 559.566 664.529 564.161 662.223 569.613 660.078 C 571.124 670.569 564.502 671.727 555.491 670.165 C 535.064 666.623 533.537 645.338 555.437 639.143 z" fill="rgb(243,142,70)" transform="translate(0,0)"></path>
<path d="M 963.128 647.896 C 965.171 648.117 971.757 650.078 972.354 649.719 C 983.112 643.259 978.201 664.207 978.465 669.015 C 978.51 669.836 972.152 669.547 971.252 669.553 C 968.616 669.297 964.409 670.667 962.519 669.808 C 950.277 664.247 952.934 653.185 963.128 647.896 z" fill="rgb(243,142,70)" transform="translate(0,0)"></path>
<path d="M 964.107 655.549 C 965.505 654.405 967.428 654.144 969.082 654.873 C 970.735 655.603 971.838 657.199 971.936 659.004 C 972.034 660.808 971.11 662.514 969.546 663.419 C 967.381 664.67 964.618 664.049 963.197 661.992 C 961.775 659.935 962.171 657.132 964.107 655.549 z" fill="rgb(4,1,1)" transform="translate(0,0)"></path>
<path d="M 681.745 648.783 C 683.496 648.663 688.403 648.292 689.434 649.267 C 691.416 651.454 698.884 646.709 699.829 650.578 C 700.332 652.639 700.488 667.537 699.844 668.822 C 698.64 669.603 693.922 669.621 692.21 669.752 C 690.093 666.977 688.66 670.506 685.496 669.982 C 672.28 667.794 673.859 655.972 681.745 648.783 z" fill="rgb(243,142,70)" transform="translate(0,0)"></path>
<path d="M 686.422 654.656 C 688.798 653.725 691.49 654.785 692.592 657.087 C 693.695 659.388 692.834 662.15 690.619 663.418 C 689.035 664.324 687.077 664.269 685.547 663.275 C 684.016 662.281 683.17 660.514 683.354 658.698 C 683.539 656.883 684.723 655.322 686.422 654.656 z" fill="rgb(4,1,1)" transform="translate(0,0)"></path>
<path d="M 1089.15 640.241 C 1095.66 640.213 1116.69 637.12 1111.43 646.386 C 1109.58 649.644 1098.39 645.623 1098.38 648.952 C 1098.34 658.372 1106.89 646.414 1113.43 656.777 C 1106.47 663.888 1096.04 653.189 1098.17 666.56 C 1099 671.701 1089.64 669.649 1089.56 668.874 C 1088.75 660.483 1088.96 648.668 1089.15 640.241 z" fill="rgb(243,142,70)" transform="translate(0,0)"></path>
<path d="M 1129 648.085 C 1145.16 649.229 1150.55 662.321 1134.91 670.398 C 1115.99 669.479 1113.18 654.711 1129 648.085 z" fill="rgb(243,142,70)" transform="translate(0,0)"></path>
<path d="M 1130.01 654.597 C 1132.42 653.818 1135.01 655.089 1135.87 657.468 C 1136.72 659.848 1135.54 662.479 1133.19 663.413 C 1131.6 664.046 1129.79 663.761 1128.47 662.671 C 1127.15 661.581 1126.53 659.859 1126.85 658.177 C 1127.17 656.496 1128.38 655.124 1130.01 654.597 z" fill="rgb(4,1,1)" transform="translate(0,0)"></path>
<path d="M 1396.14 649.194 C 1413.75 646.926 1421.67 658.988 1407.1 669.847 C 1389.93 670.711 1382.35 659.377 1396.14 649.194 z" fill="rgb(243,142,70)" transform="translate(0,0)"></path>
<path d="M 1400.35 654.61 C 1402.87 653.76 1405.6 655.113 1406.45 657.632 C 1407.31 660.151 1405.96 662.886 1403.44 663.744 C 1400.92 664.604 1398.18 663.252 1397.32 660.727 C 1396.46 658.201 1397.82 655.461 1400.35 654.61 z" fill="rgb(4,1,1)" transform="translate(0,0)"></path>
<path d="M 1380.96 662.424 C 1381.7 671.515 1368.52 671.759 1363.29 667.693 C 1360.92 665.819 1359.46 663.032 1359.26 660.022 C 1358.38 645.524 1383.5 643.709 1382.49 660.987 C 1381.68 661.602 1381.64 661.667 1380.96 662.424 z" fill="rgb(243,142,70)" transform="translate(0,0)"></path>
<path d="M 1380.96 662.424 C 1376.79 662.989 1371.45 666.081 1368.87 664.232 C 1362.28 659.525 1380.51 660.957 1382.49 660.987 C 1381.68 661.602 1381.64 661.667 1380.96 662.424 z" fill="rgb(4,1,1)" transform="translate(0,0)"></path>
<path d="M 1368.22 652.574 C 1372.09 653.349 1374.49 653.106 1373.54 657.559 C 1368.32 656.833 1366.27 658.056 1368.22 652.574 z" fill="rgb(4,1,1)" transform="translate(0,0)"></path>
<path d="M 1471.97 663.17 C 1473.5 663.854 1475.18 664.499 1476.52 665.474 C 1476.48 672.728 1449.8 671.949 1454.34 656.604 C 1455.22 653.715 1457.28 651.331 1460.01 650.042 C 1467.67 646.393 1474.81 649.26 1477.99 656.957 L 1477.93 657.451 C 1477.71 660.286 1477.76 660.461 1475.01 660.907 C 1474.12 661.539 1472.72 662.478 1471.97 663.17 z" fill="rgb(243,142,70)" transform="translate(0,0)"></path>
<path d="M 1462.83 661.671 C 1467.62 660.813 1470.09 661.031 1475.01 660.907 C 1474.12 661.539 1472.72 662.478 1471.97 663.17 C 1467.87 664.888 1465.17 666.808 1462.83 661.671 z" fill="rgb(4,1,1)" transform="translate(0,0)"></path>
<path d="M 1462.33 656.635 C 1464.7 653.317 1464.78 653.916 1468.89 653.094 C 1470.22 659.113 1467.71 657.569 1462.33 656.635 z" fill="rgb(4,1,1)" transform="translate(0,0)"></path>
<path d="M 877.395 661.468 C 878.242 665.776 878.895 672.204 870.903 668.307 C 869.659 667.7 870.497 653.006 870.361 650.966 C 870.143 647.714 877.102 648.8 878.577 650.471 C 893.288 643.611 895.392 657.449 893.388 668.551 C 892.329 669.455 889.119 669.176 887.916 669.072 C 884.444 668.773 885.945 659.966 886.341 657.761 C 883.862 662.917 883.602 661.66 877.395 661.468 z" fill="rgb(243,142,70)" transform="translate(0,0)"></path>
<path d="M 877.395 661.468 C 878.466 654.509 880.747 652.496 886.341 657.761 C 883.862 662.917 883.602 661.66 877.395 661.468 z" fill="rgb(4,1,1)" transform="translate(0,0)"></path>
<path d="M 916.774 663.742 C 918.375 663.393 923.068 663.427 922.715 664.791 C 919.803 676.028 893.378 668.25 902.247 654.083 C 903.984 651.315 906.812 649.413 910.03 648.848 C 917.254 647.56 923.361 650.836 924.46 658.466 C 924.878 661.373 919.278 660.641 917.406 660.678 C 917.157 661.721 916.976 662.693 916.774 663.742 z" fill="rgb(243,142,70)" transform="translate(0,0)"></path>
<path d="M 916.774 663.742 C 911.661 666.334 902.239 661.066 917.406 660.678 C 917.157 661.721 916.976 662.693 916.774 663.742 z" fill="rgb(4,1,1)" transform="translate(0,0)"></path>
<path d="M 911.731 652.656 C 915.019 653.903 918.035 654.11 915.437 657.596 C 909.717 656.643 907.959 657.524 911.731 652.656 z" fill="rgb(4,1,1)" transform="translate(0,0)"></path>
<path d="M 617.422 648.193 C 618.336 648.243 625.224 648.083 624.656 649.529 C 620.927 659.031 615.967 668.949 610.424 677.502 C 610.213 677.827 604.16 678.427 604.039 676.975 C 603.737 674.674 606.8 670.223 607.848 668.363 C 607.419 662.045 592.794 645.882 606.025 648.907 C 608.604 649.496 611.569 658.296 612.93 661.015 C 614.165 657.058 615.851 651.984 617.422 648.193 z" fill="rgb(243,142,70)" transform="translate(0,0)"></path>
<path d="M 631.993 659.76 C 629.039 648.917 636.505 646.949 645.957 649.595 C 648.314 650.255 647.917 655.06 644.439 654.454 C 642.82 654.267 641.339 653.721 639.812 654.309 C 638.184 656.358 647.419 657.132 648.767 661.976 C 651.318 671.139 626.875 674.834 631.404 662.804 C 631.582 661.769 631.78 660.789 631.993 659.76 z" fill="rgb(243,142,70)" transform="translate(0,0)"></path>
<path d="M 631.993 659.76 C 645.762 664.538 641.276 666.585 631.404 662.804 C 631.582 661.769 631.78 660.789 631.993 659.76 z" fill="rgb(4,1,1)" transform="translate(0,0)"></path>
<path d="M 1168.25 658.315 C 1178.06 674.956 1143.14 671.425 1153.71 663.742 L 1153.69 663.698 C 1155.52 663.955 1160.63 665.85 1161.78 663.794 C 1161.45 662.246 1142.86 656.571 1158.5 648.967 C 1161.55 647.485 1167.27 649.147 1170.29 650.928 C 1171.67 653.904 1168.7 654.67 1168.25 658.315 z" fill="rgb(243,142,70)" transform="translate(0,0)"></path>
<path d="M 1170.29 650.928 C 1171.67 653.904 1168.7 654.67 1168.25 658.315 C 1167.45 658.014 1159.1 655.798 1160.36 654.255 C 1161.65 652.679 1165.64 654.937 1167.04 654.72 C 1167.84 654.596 1169.77 651.604 1170.29 650.928 z" fill="rgb(4,1,1)" transform="translate(0,0)"></path>
<path d="M 727.152 659.921 C 723.154 642.809 741.669 649.109 742.513 650.469 C 741.97 657.311 739.457 653.627 735.408 653.9 L 734.517 654.533 L 734.381 654.51 L 734.346 654.561 C 735.093 658.026 741.971 656.217 743.398 661.86 C 743.835 663.623 743.497 665.488 742.468 666.985 C 738.861 672.136 720.147 671.235 727.476 662.998 C 727.426 661.737 727.485 661.123 727.152 659.921 z" fill="rgb(243,142,70)" transform="translate(0,0)"></path>
<path d="M 727.152 659.921 C 729.413 660.49 732.827 661.081 734.449 663.05 C 734.853 663.54 734.278 664.198 733.766 664.295 C 731.704 664.688 729.357 663.654 727.476 662.998 C 727.426 661.737 727.485 661.123 727.152 659.921 z" fill="rgb(4,1,1)" transform="translate(0,0)"></path>
<path d="M 1239.34 660.482 C 1229.02 651.269 1245.15 645.656 1252.58 649.659 C 1253.95 650.394 1253.35 652.534 1252.32 653.342 C 1249.97 655.117 1247.82 653.391 1244.6 654.015 C 1242.21 656.835 1257.07 656.69 1253.47 665.661 C 1250.48 673.145 1229.76 670.508 1237.33 663.298 C 1237.89 662.554 1238.95 661.236 1239.34 660.482 z" fill="rgb(243,142,70)" transform="translate(0,0)"></path>
<path d="M 1239.34 660.482 C 1249.81 664.182 1246.08 665.856 1237.33 663.298 C 1237.89 662.554 1238.95 661.236 1239.34 660.482 z" fill="rgb(4,1,1)" transform="translate(0,0)"></path>
<path d="M 1500.64 657.68 C 1512.54 674.346 1476.86 672.641 1487.51 663.283 C 1487.72 663.1 1494.77 666.52 1494.76 664.201 C 1494.74 660.909 1486.2 661.223 1485.45 656.577 C 1481.96 646.674 1506.77 645.8 1500.54 653.814 L 1500.16 654.294 C 1500.3 655.443 1500.47 656.538 1500.64 657.68 z" fill="rgb(243,142,70)" transform="translate(0,0)"></path>
<path d="M 1500.64 657.68 C 1492.29 655.895 1489.66 653.461 1500.16 654.294 C 1500.3 655.443 1500.47 656.538 1500.64 657.68 z" fill="rgb(49,33,32)" transform="translate(0,0)"></path>
<path d="M 1183.67 648.053 C 1185.15 648.174 1194.47 648.386 1193.44 651.996 C 1192.42 655.584 1188.04 652.392 1185.44 653.783 C 1183.83 656.383 1193.67 656.991 1194.41 661.377 C 1195.57 668.253 1191.24 669.333 1185.91 670.574 C 1183.29 670.153 1173.95 669.492 1176.93 665.366 C 1180.19 660.83 1181.06 666.01 1187.3 664.021 C 1186.11 660.092 1166.83 657.078 1183.67 648.053 z" fill="rgb(243,142,70)" transform="translate(0,0)"></path>
<path d="M 1008.56 648.992 C 1010.47 648.875 1024.49 647.384 1020.55 653.625 C 1019.51 655.273 1015.06 653.072 1013.63 653.442 C 1009.79 654.674 1015.49 656.467 1016.51 656.929 C 1026.67 661.512 1023.12 666.866 1015.83 670.209 C 1011.73 669.934 1001.46 670.112 1005.4 663.381 C 1005.58 663.41 1015.53 665.897 1014.54 663.376 C 1013.6 660.954 1008.2 661.057 1006.01 658.524 C 1002.68 654.677 1005.73 651.923 1008.56 648.992 z" fill="rgb(243,142,70)" transform="translate(0,0)"></path>
<path d="M 709.084 637.599 C 710.923 637.639 716.257 637.577 716.419 638.394 C 717.412 643.397 716.952 665.256 716.961 669.471 C 715.05 669.442 709.73 669.717 709.584 668.747 C 708.761 663.282 709.099 642.557 709.084 637.599 z" fill="rgb(243,142,70)" transform="translate(0,0)"></path>
<path d="M 988.472 637.665 C 990.12 637.764 995.476 637.73 995.598 638.541 C 996.531 644.737 996.001 664.103 995.992 669.6 C 988.447 668.632 988.506 670.556 988.559 662.591 C 988.615 654.332 988.478 645.94 988.472 637.665 z" fill="rgb(243,142,70)" transform="translate(0,0)"></path>
<path d="M 1219.88 637.893 C 1227.47 638.179 1227.25 636.524 1227.22 644.496 C 1227.18 652.816 1227.23 661.225 1227.19 669.557 C 1225.54 669.448 1220.74 669.473 1220.55 668.808 C 1219.39 664.574 1219.88 641.215 1219.88 637.893 z" fill="rgb(243,142,70)" transform="translate(0,0)"></path>
<path d="M 658.524 643.102 C 660.097 643.162 665.988 642.56 665.667 644.758 C 664.861 650.295 676.873 651.426 666.124 655.057 C 665.312 655.332 665.608 666.044 665.56 669.392 C 651.064 669.604 663.795 660.295 657.008 654.881 C 651.804 650.729 657.57 651.917 658.524 643.102 z" fill="rgb(243,142,70)" transform="translate(0,0)"></path>
<path d="M 579.022 648.475 C 580.785 648.7 582.745 648.932 584.519 649.069 C 586.486 649.22 585.831 651.349 587.057 651.622 C 588.495 651.665 589.727 650.019 591.112 649.263 C 595.155 647.056 595.581 653.419 593.88 654.841 C 590.961 657.28 589.735 654.145 586.592 658.245 C 586.558 658.855 588.51 674.291 579.441 669.218 C 578.054 668.442 578.859 652.258 579.022 648.475 z" fill="rgb(243,142,70)" transform="translate(0,0)"></path>
<path d="M 932.709 648.819 C 934.537 648.898 936.727 648.773 938.469 649.184 C 939.591 649.449 940.425 650.999 940.974 650.769 C 943.222 649.793 944.306 648.381 947.028 648.853 C 948.933 649.183 948.258 654.73 947.74 654.88 C 943.115 656.22 944.014 654.139 939.962 657.942 C 939.952 658.821 943.751 670.948 933.354 668.55 C 932.344 668.317 932.722 652.234 932.709 648.819 z" fill="rgb(243,142,70)" transform="translate(0,0)"></path>
<path d="M 853.345 649.22 C 861.775 649.569 861.096 648.277 861.021 657.249 C 860.988 661.273 861.004 665.484 860.948 669.526 C 859.978 669.429 853.995 669.246 853.854 668.455 C 852.887 663.008 853.293 654.773 853.345 649.22 z" fill="rgb(243,142,70)" transform="translate(0,0)"></path>
<path d="M 1203.32 649.261 C 1211.27 649.952 1211.15 649.161 1210.95 657.498 C 1210.86 661.398 1210.91 665.681 1210.9 669.612 C 1202.28 668.654 1203.36 670.354 1203.33 660.73 C 1203.31 656.992 1203.31 653.019 1203.32 649.261 z" fill="rgb(243,142,70)" transform="translate(0,0)"></path>
<path d="M 1053.17 651.394 C 1056.46 650.39 1059.96 652.128 1061.15 655.356 C 1062.34 658.583 1060.8 662.178 1057.65 663.546 C 1055.44 664.502 1052.89 664.16 1051.01 662.656 C 1049.14 661.153 1048.25 658.735 1048.7 656.374 C 1049.15 654.013 1050.87 652.097 1053.17 651.394 z" fill="rgb(243,142,70)" transform="translate(0,0)"></path>
<path d="M 773.594 651.531 C 775.725 650.752 778.11 651.192 779.823 652.679 C 781.535 654.167 782.305 656.468 781.831 658.686 C 781.358 660.905 779.717 662.691 777.546 663.351 C 774.317 664.332 770.893 662.564 769.823 659.363 C 768.752 656.162 770.424 652.69 773.594 651.531 z" fill="rgb(243,142,70)" transform="translate(0,0)"></path>
<path d="M 1282.22 652.615 C 1284.94 650.741 1288.67 651.401 1290.58 654.097 C 1292.5 656.793 1291.89 660.527 1289.22 662.481 C 1287.46 663.771 1285.14 664.012 1283.15 663.112 C 1281.17 662.212 1279.82 660.311 1279.62 658.137 C 1279.43 655.963 1280.42 653.852 1282.22 652.615 z" fill="rgb(243,142,70)" transform="translate(0,0)"></path>
<path d="M 1204.09 638.545 C 1205.33 637.569 1207 637.355 1208.44 637.987 C 1209.89 638.62 1210.86 639.996 1210.98 641.565 C 1211.1 643.135 1210.34 644.642 1209.01 645.485 C 1207.1 646.698 1204.57 646.199 1203.26 644.35 C 1201.95 642.501 1202.32 639.95 1204.09 638.545 z" fill="rgb(243,142,70)" transform="translate(0,0)"></path>
<path d="M 855.177 638.504 C 856.463 637.763 858.055 637.795 859.31 638.588 C 860.566 639.381 861.28 640.803 861.164 642.284 C 861.048 643.764 860.122 645.059 858.759 645.647 C 856.812 646.486 854.548 645.661 853.597 643.766 C 852.647 641.871 853.339 639.563 855.177 638.504 z" fill="rgb(243,142,70)" transform="translate(0,0)"></path>
<path d="M 1913.28 375.852 C 1916.15 376.556 1986.36 493.574 1993.41 505.183 C 1981.12 512.674 1962.03 522.311 1949.14 529.201 L 1867.32 572.945 L 1846.83 584.03 C 1849.83 563.205 1851.68 534.515 1853.82 512.925 C 1836.01 484.702 1817.48 457.065 1800.13 428.57 C 1837.65 410.578 1875.37 393.004 1913.28 375.852 z" fill="rgb(209,106,40)" transform="translate(0,0)"></path>
<path d="M 1991.45 523.982 C 1997.02 529.679 2021.22 567.621 2027.11 576.542 C 2012.43 608.456 1992.15 637.082 1970.56 664.83 C 1946.25 662.916 1916.38 662.593 1891.62 661.827 C 1885.11 649.444 1859.77 605.948 1852.22 595.492 C 1897.67 570.975 1945.6 548.19 1991.45 523.982 z" fill="rgb(209,106,40)" transform="translate(0,0)"></path>
<path d="M 1935.81 241.256 C 1959.94 240.729 1985.81 241.182 2010.08 241.166 C 2000.09 255.615 1929.87 349.875 1921.63 355.824 C 1913.62 361.601 1903.57 365.497 1894.67 369.72 C 1879.1 377.154 1863.45 384.435 1847.73 391.561 C 1830.14 399.758 1812.03 408.474 1794.22 416.069 C 1812.82 392.302 1832.75 368.559 1851.91 345.083 C 1879.06 311.816 1907.86 273.199 1935.81 241.256 z" fill="rgb(209,106,40)" transform="translate(0,0)"></path>
<path d="M 1770.55 574.663 C 1778.1 575.305 1830.49 597.435 1840.67 601.385 C 1853.01 621.876 1864.52 642.857 1875.18 664.276 L 1853.01 714.632 L 1848.65 724.648 C 1824.11 706.503 1789.26 683.941 1766.77 664.672 C 1762.37 639.458 1759.39 614.019 1757.83 588.474 L 1770.55 574.663 z" fill="rgb(209,106,40)" transform="translate(0,0)"></path>
<path d="M 1885.87 675.806 C 1906.84 675.877 1945.83 676.961 1966.11 679.215 C 1975.84 691.469 1985.44 704.276 1995.06 716.682 L 1962.89 778.027 L 1961.66 780.336 C 1957.75 783.412 1928.13 782.179 1920.93 782.138 C 1904.41 767.948 1876.57 747.278 1858.93 734.114 C 1860.75 728.825 1866.4 717.8 1868.96 712.384 C 1874.66 700.22 1880.3 688.028 1885.87 675.806 z" fill="rgb(209,106,40)" transform="translate(0,0)"></path>
<path d="M 170.396 302.997 C 166.348 275.959 160.591 267.21 143.709 245.267 C 164.151 258.655 172.075 267.352 179.61 290.963 C 181.005 295.334 186.555 308.114 189.287 311.236 C 202.147 325.935 216.03 327.772 206.221 351.913 C 214.582 364.374 212.974 368.48 218.968 381.22 C 221.719 387.066 233.091 392.819 236.653 397.769 C 242.618 406.061 245.934 419.734 250.225 429.371 C 251.561 432.372 258.806 446.647 259.208 448.26 C 262.399 461.065 260.472 469.054 265.735 482.244 C 274.936 489.932 276.131 490.317 279.577 501.901 C 278.464 505.339 276.407 511.772 274.746 514.34 C 268.85 523.455 252.588 541.829 259.654 553.446 C 268.609 568.169 275.594 574.361 269.197 594.196 C 265.959 604.236 257.405 610.344 254.009 622.543 C 250.283 635.926 254.721 655.37 249.742 666.39 C 241.243 685.205 229.034 688.281 226.208 711.478 C 208.412 723.07 197.686 730.082 192.813 752.036 C 187.44 776.238 173.053 782.675 149.574 782.17 C 148.842 782.188 146.412 782.596 146.33 781.424 C 146.746 780.525 149.452 778.996 150.497 778.289 C 153.516 777.374 164.754 769.857 167.473 767.92 C 181.288 758.084 186.163 746.601 187.614 730.144 C 189.215 711.993 206.47 711.714 221.111 701.102 L 221.51 700.809 C 222.923 697.394 225.257 689.455 226.847 686.686 C 229.84 681.469 233.629 674.472 236.839 669.46 C 247.4 652.971 237.988 633.747 242.735 615.877 C 246.026 603.485 256.416 592.231 257.049 578.457 C 257.634 565.741 246.927 555.104 249.112 542.544 C 251.774 527.241 261.852 514.589 261.038 498.182 C 260.359 484.515 246.117 477.318 242.947 465.033 C 239.022 449.826 242.776 431.245 238.297 415.898 C 235.489 406.276 231.016 399.777 222.286 394.964 L 216.966 395.183 C 214.564 394.45 214.479 394.516 212.329 393.185 C 211.755 392.584 211.418 392.307 210.961 391.6 C 193.004 377.931 196.923 341.037 179.819 319.567 C 179.646 318.474 179.495 317.378 179.367 316.279 C 178.044 314.743 177.638 314.41 175.716 314.036 C 174.101 311.205 173.379 310.252 171.376 307.764 L 170.396 302.997 z" fill="rgb(245,172,109)" transform="translate(0,0)"></path>
<path d="M 179.367 316.279 C 204.615 336.643 197.751 376.903 214.986 392.451 L 212.329 393.185 C 211.755 392.584 211.418 392.307 210.961 391.6 C 193.004 377.931 196.923 341.037 179.819 319.567 C 179.646 318.474 179.495 317.378 179.367 316.279 z" fill="rgb(49,33,32)" transform="translate(0,0)"></path>
<path d="M 210.961 391.6 C 211.817 391.919 211.826 392.281 212.329 393.185 C 211.755 392.584 211.418 392.307 210.961 391.6 z" fill="rgb(139,90,60)" transform="translate(0,0)"></path>
<path d="M 214.986 392.451 C 217.827 392.995 219.512 393.993 222.286 394.964 L 216.966 395.183 C 214.564 394.45 214.479 394.516 212.329 393.185 L 214.986 392.451 z" fill="rgb(139,90,60)" transform="translate(0,0)"></path>
<path d="M 150.497 778.289 C 150.195 779.573 149.904 780.897 149.574 782.17 C 148.842 782.188 146.412 782.596 146.33 781.424 C 146.746 780.525 149.452 778.996 150.497 778.289 z" fill="rgb(243,142,70)" transform="translate(0,0)"></path>
<path d="M 79.6028 241.529 C 138.457 237.097 150.91 246.6 167.061 303.016 L 170.396 302.997 L 171.376 307.764 C 173.379 310.252 174.101 311.205 175.716 314.036 C 177.638 314.41 178.044 314.743 179.367 316.279 C 179.495 317.378 179.646 318.474 179.819 319.567 C 196.923 341.037 193.004 377.931 210.961 391.6 C 211.418 392.307 211.755 392.584 212.329 393.185 C 214.479 394.516 214.564 394.45 216.966 395.183 C 242.355 416.112 233.237 441.029 237.272 468.025 C 238.292 474.85 251.31 485.49 254.312 492.683 C 262.23 511.653 247.12 527.578 244.076 545.52 C 241.892 558.242 252.756 568.056 251.613 580.748 C 251.717 592.835 239.074 606.43 237.205 617.196 C 232.941 641.755 242.244 658.756 224.597 681.243 C 222.27 684.207 218.879 694.095 217.446 698.391 C 208.175 706.711 189.937 711.583 185.229 717.992 C 175.674 732.788 181.517 747.069 166.356 760.505 C 148.596 776.245 130.745 782.761 107.34 782.572 C 127.582 766.481 137.782 769.381 157.257 756.592 C 167.614 749.792 167.356 728.71 174.426 718.325 C 187.136 699.656 212.862 687.051 222.509 666.85 C 228.764 653.75 218.886 639.296 221.198 626.536 C 223.956 611.313 233.212 603.71 235.787 587.077 C 238.882 577.808 229.865 546.964 234.496 540.314 C 257.765 506.904 236.596 500.492 226.577 470.287 C 221.955 456.353 229.61 429.038 219.583 411.789 C 210.205 395.655 195.814 396.856 189.186 380.773 C 183.059 365.337 186.306 347.037 182.498 333.485 C 180.554 326.571 158.656 316.479 153.809 307.148 C 147.886 295.749 149.21 285.808 144.761 274.777 C 131.781 242.592 107.104 254.193 79.6028 241.529 z" fill="rgb(209,106,40)" transform="translate(0,0)"></path>
<path d="M 175.716 314.036 C 177.638 314.41 178.044 314.743 179.367 316.279 C 179.495 317.378 179.646 318.474 179.819 319.567 C 177.857 317.972 175.668 316.614 175.716 314.036 z" fill="rgb(139,90,60)" transform="translate(0,0)"></path>
<path d="M 167.061 303.016 L 170.396 302.997 L 171.376 307.764 C 168.576 306.702 168.685 305.861 167.061 303.016 z" fill="rgb(61,42,31)" transform="translate(0,0)"></path>
<path d="M 1788.16 434.564 C 1792.82 438.188 1834.05 507.519 1838.27 515.854 C 1837.95 532.706 1833.65 566.079 1831.69 583.329 C 1828.72 583.691 1788.67 568.501 1783.22 566.479 C 1783.19 560.613 1783.38 553.992 1783.73 548.146 C 1786.02 510.811 1784.64 471.633 1788.16 434.564 z" fill="rgb(209,106,40)" transform="translate(0,0)"></path>
<metadata><recraft-signature>{"signed_by": "recraft", "signature_b64": "Ev9WAUvzemEG45IXgN/gejs0xR0wwHyUL0dB+XKXFwhGq3Bpst/4yX1aqlMUqy7FWHuhJOdfaHPcpl23k0drCg==", "signing_algo": "Ed25519", "generation_timestamp": 1780247427, "identifier": "1e1f8531-2f60-476b-b195-8ae66f4d8492"}</recraft-signature></metadata></svg>