<svg xmlns="http://www.w3.org/2000/svg" height="768" preserveAspectRatio="none" style="display: block;" version="1.1" viewBox="0 0 2048 1024" width="1536">
<path d="M 0 0 L 2048 0 L 2048 1024 L 0 1024 L 0 0 z" fill="rgb(17,10,14)" transform="translate(0,0)"></path>
<path d="M 1764.57 193.755 C 1777.03 209.325 1790.83 224.226 1803.9 239.306 C 1808.5 244.617 1815.59 252.983 1823.1 251.712 C 1828.87 247.499 1831.59 240.292 1834.7 233.84 C 1835.93 235.636 1835.99 235.719 1836.64 237.831 C 1835.27 245.535 1831.77 260.091 1834.32 266.886 C 1840.39 270.804 1849.27 258.416 1853.11 254.158 C 1852.62 259.964 1850.8 275.434 1852.51 280.544 C 1860.88 283.283 1899.89 257.759 1910.84 253.381 C 1895.21 268.786 1877.43 284.595 1864.49 302.164 C 1856.49 313.031 1862.86 318.252 1871.03 324.609 C 1868.18 344.88 1871.2 352.462 1892.27 343.675 C 1890.65 349.373 1887.69 356.142 1895 358.584 C 1908.6 357.047 1920.6 336.871 1929.86 327.503 C 1927.84 334.525 1922.7 349.44 1924.18 355.851 C 1932.19 360.482 1983.8 316.591 1991.62 309.579 L 1993.27 311.335 C 1981.28 326.623 1969.39 342 1957.63 357.466 C 1950.63 366.686 1929.41 389.998 1938.61 400.946 C 1945.44 405.207 1952.57 401.522 1959.43 398.917 C 1954.46 408.789 1940.07 431.089 1942.59 440.139 C 1949.03 447.42 1965.46 440.775 1974.35 442.281 C 1983.08 441.331 1991.43 440.415 2000.14 439.288 C 1997.14 440.995 1995.07 442.429 1991.77 443.611 C 1981.87 449.171 1971.77 453.346 1961.61 458.292 C 1951.8 463.069 1943.29 467.08 1954.21 476.634 C 1953.99 481.46 1945.02 484.825 1949.45 489.703 C 1951.96 492.465 1954.56 491.956 1956.14 495.858 C 1955.02 499.097 1953.31 502.666 1954.15 505.797 C 1958.92 509.605 1967.06 506.336 1972.38 504.537 C 1968.45 509.139 1961.96 515.727 1960.03 521.045 C 1960.99 528.02 1975.38 530.188 1981.69 532.53 C 1977.91 537.272 1973.65 542.906 1969.51 547.238 C 1986.84 546.33 2005.77 545.462 2022.92 543.722 C 2015.79 548.069 2007.37 552.308 1999.89 556.068 C 1982.43 564.838 1974.13 567.34 1966.51 586.079 C 1969.91 592.137 1971.94 595.104 1977.25 599.954 C 1973.79 600.404 1969.67 600.488 1967.19 602.74 C 1964.98 610.353 1983.99 621.505 1990.01 625.966 C 1985.28 626.442 1979.08 626.594 1975.07 628.835 L 1974.07 630.486 C 1976.99 639.563 2004.26 662.133 2012.57 671.547 C 2003.68 667.941 1973.19 652.591 1967.4 652.895 L 1965.95 654.298 C 1966 659.954 1969.04 663.097 1967.93 667.136 C 1960.32 673.54 1945.33 660.174 1938.1 665.211 C 1936.72 671.609 1940.86 673.064 1939.02 676.235 C 1935.55 682.205 1924.1 689.208 1925.54 696.655 C 1928.87 701.738 1931.84 701.587 1932.05 705.162 C 1929.35 709.739 1924.94 715.535 1926.5 720.521 C 1929.86 731.273 1940.56 743.331 1947.6 752.222 C 1941.31 748.958 1924.65 738.085 1920.59 747.634 C 1921.12 757.108 1946.15 792.104 1952.81 805.654 C 1938.88 793.186 1922.53 777.676 1908.19 766.244 C 1905.35 773.57 1903.68 778.389 1901.63 785.954 C 1897.15 779.657 1886.91 764.584 1877.72 767.561 C 1872.58 773.879 1878 781.692 1881.1 788.213 C 1878.22 786.78 1875.17 784.732 1872.17 785.453 C 1867.98 790.097 1860.23 820.87 1857.94 829.016 C 1854.96 816.613 1851.73 805.523 1848.5 793.34 C 1847.79 799.779 1847 809.377 1845.8 815.503 C 1842.82 810.588 1834.73 795.709 1831.33 792.43 C 1828.26 791.902 1826.49 792.738 1823.58 793.681 C 1823.07 789.17 1826.35 786.584 1825.56 782.386 C 1820.05 779.016 1811.29 788.159 1807.31 791.757 C 1807.55 788.201 1808.17 785.279 1806.23 782.343 C 1800.29 779.061 1795.2 783.722 1790.15 787.352 L 1774.93 818.146 C 1774.6 816.061 1774.23 813.979 1773.85 811.903 C 1775.5 800.778 1782.57 775.107 1780.29 766.022 C 1775.23 760.375 1771.05 771.17 1761.11 768.76 C 1759.49 766.777 1758.91 765.626 1757.68 763.442 C 1747.73 757.539 1742.2 772.146 1738.4 779.183 C 1737.58 781.595 1735.53 784.849 1734.24 787.202 C 1734.75 782.812 1735.33 773.765 1737.24 770.197 C 1737.13 768.157 1736.93 767.106 1736.54 765.093 L 1734.84 764.015 C 1729.37 766.024 1696.87 803.056 1690.63 809.891 C 1695.26 799.373 1715.27 756.013 1716.18 747.399 L 1715.15 746.411 C 1700.2 749.266 1711.56 739.291 1703.59 732.463 C 1701.25 732.044 1688.15 736.747 1684.33 737.849 C 1689.49 734.563 1711.46 724.197 1708.88 717.582 C 1702.41 714.35 1679.32 720.483 1671.2 722.239 C 1678.04 717.494 1706.16 704.39 1702.41 696.486 C 1699.26 693.863 1691.54 692.385 1687.16 691.19 C 1685.61 686.712 1687.85 687.531 1686.95 683.704 C 1683.34 682.824 1678.39 683.635 1674.58 684.02 C 1675.45 683.156 1676.32 682.278 1677.17 681.387 C 1679.53 678.896 1682.18 676.05 1682.08 672.53 L 1680.89 671.598 C 1652.42 675.895 1624.04 680.704 1595.74 686.022 C 1612.08 676.913 1629.93 669.818 1646.84 660.989 C 1655.81 656.306 1679.11 641.583 1661.15 631.11 C 1657.21 628.816 1652.99 632.795 1648.3 631.679 C 1648.32 629.132 1649.07 627.109 1649.77 624.658 L 1648.68 623.536 C 1640.24 622.437 1600.99 625.532 1590 626.207 L 1588.07 623.555 C 1604.72 618.1 1633.13 608.499 1648.04 600.426 L 1640.89 595.495 C 1643.61 590.841 1646.69 587.701 1643.94 582.577 C 1640.8 580.247 1636.21 579.758 1632.27 579.008 C 1637.88 575.367 1650.2 569.208 1646.72 561.981 C 1643.81 559.582 1639.37 559.498 1635.52 559.029 C 1641.98 556.837 1653.25 554.9 1651.49 546.383 C 1647.03 540.398 1628.37 533.388 1620.71 530.007 C 1619.94 529.75 1618.07 529.162 1617.64 528.468 L 1617.68 528.333 C 1619.1 527.292 1627.47 528.463 1629.38 528.742 C 1635.86 529.099 1647.13 530.216 1653.57 529.268 C 1655.08 529.046 1655.12 528.128 1655.82 526.662 C 1653.8 519.718 1648.37 521.942 1644.11 517.626 C 1647.11 516.107 1651.59 515.293 1654.96 514.526 C 1648.98 507.954 1635.73 497.853 1628.39 491.925 C 1640.99 496.743 1653.08 503.761 1666.25 508.842 C 1666.19 503.979 1665.43 496.27 1667.96 492.782 C 1670.33 492.37 1671.07 492.476 1672.74 490.908 C 1673.46 487.122 1671.72 480.874 1670.87 476.873 C 1675.43 478.929 1684.87 484.29 1689.16 480.904 C 1688.61 475.998 1684.2 474.55 1684.04 470.64 C 1684.89 469.96 1685.72 469.266 1686.54 468.559 C 1689.68 465.819 1689.5 465.619 1689.73 462.143 C 1687.24 455.51 1681.99 451.864 1676.61 447.394 L 1681.06 438.809 C 1668.08 429.129 1656.46 423.037 1642.29 415.383 C 1649.71 417.057 1657.15 419.023 1664.62 420.372 C 1668.61 421.092 1674.59 421.605 1678 418.914 C 1679.54 417.696 1680.26 416.135 1680.51 414.21 C 1682.36 400.256 1646.74 363.252 1637.5 350.708 C 1654.19 362.633 1685.21 386.012 1703.74 390.458 C 1705.77 390.011 1714.66 387.832 1715.83 386.134 C 1740.75 350.037 1732.24 344.253 1690.05 344.283 L 1689.16 342.18 C 1699.68 340.463 1742.58 336.646 1747.33 330.07 C 1746.33 327.37 1730.17 304.762 1726.25 298.011 C 1731.81 298.083 1738.31 298.663 1743.93 299.031 C 1733.67 279.715 1723.13 262.858 1711.35 244.494 C 1724.97 254.098 1767.27 296.286 1764.75 252.373 C 1770.48 253.935 1776.64 255.358 1782.44 256.803 C 1777.16 235.6 1771.2 214.572 1764.57 193.755 z" fill="rgb(236,135,95)" transform="translate(0,0)"></path>
<path d="M 1974.35 442.281 C 1983.08 441.331 1991.43 440.415 2000.14 439.288 C 1997.14 440.995 1995.07 442.429 1991.77 443.611 C 1987.25 441.295 1981.98 444.541 1974.35 442.281 z" fill="rgb(242,121,91)" transform="translate(0,0)"></path>
<path d="M 1734.24 787.202 C 1734.75 782.812 1735.33 773.765 1737.24 770.197 C 1737.88 775.591 1735.01 774.547 1738.4 779.183 C 1737.58 781.595 1735.53 784.849 1734.24 787.202 z" fill="rgb(242,121,91)" transform="translate(0,0)"></path>
<path d="M 1620.71 530.007 C 1619.94 529.75 1618.07 529.162 1617.64 528.468 L 1617.68 528.333 C 1619.1 527.292 1627.47 528.463 1629.38 528.742 C 1626.49 529.189 1623.6 529.61 1620.71 530.007 z" fill="rgb(242,121,91)" transform="translate(0,0)"></path>
<path d="M 162.956 443.093 L 163.861 443.641 C 168.049 451.343 179.549 516.996 182.263 530.984 C 191.341 578.174 200.781 625.293 210.581 672.338 C 205.682 680.587 171.366 732.815 166.64 737.138 C 161.983 733.796 175.5 717.435 157.378 707.237 C 153.858 704.984 150.272 702.097 146.932 699.531 C 138.027 672.532 138.05 677.195 137.975 649.248 C 135.04 643.712 130.756 640.519 127.624 635.24 C 121.051 624.165 117.354 610.061 113.477 597.716 C 129.611 548.357 91.9058 555.116 79.4206 523.453 C 81.9343 496.716 81.9648 489.651 91.87 465.001 C 113.953 457.535 140.076 450.419 162.956 443.093 z" fill="rgb(3,128,76)" transform="translate(0,0)"></path>
<path d="M 662.588 378.305 C 672.75 377.28 685.748 381.262 694.673 386.84 C 746.955 419.516 745.783 522.453 691.77 552.908 C 686.37 555.953 679.971 557.616 673.849 559.059 C 582.539 564.624 576.25 389.669 662.588 378.305 z" fill="rgb(254,254,254)" transform="translate(0,0)"></path>
<path d="M 639.407 395.893 C 669.816 395.787 732.392 506.166 693.64 540.955 C 669.812 546.033 599.908 430.494 639.407 395.893 z" fill="rgb(17,10,14)" transform="translate(0,0)"></path>
<path d="M 1379.23 378.302 C 1388.59 377.445 1402.11 381.211 1409.9 386.014 C 1455.54 414.232 1458.91 485.661 1433.76 528.476 C 1423.47 545.991 1409.69 554.368 1390.38 559.181 C 1297.52 561.898 1293.55 389.575 1379.23 378.302 z" fill="rgb(254,254,254)" transform="translate(0,0)"></path>
<path d="M 1357.91 395.875 C 1359.51 396.049 1361.09 396.348 1362.64 396.769 C 1390.96 404.764 1450.37 518.52 1408.92 541.031 C 1380.23 540.728 1315.35 421.67 1357.91 395.875 z" fill="rgb(17,10,14)" transform="translate(0,0)"></path>
<path d="M 317.004 606.631 C 333.096 613.493 349.756 618.801 366.044 625.491 C 374.293 643.798 380.891 664.213 388.915 683.054 C 366.906 725.858 346.595 771.732 324.873 815.018 L 307.249 814.979 L 235.086 814.022 C 239.025 809.716 245.613 802.587 248.016 797.446 C 252.21 788.47 248.621 776.201 253.346 766.372 C 258.875 754.872 269.338 745.688 272.1 732.645 C 274.179 722.831 270.326 716.662 274.325 706.331 C 279.233 693.648 289.609 688.354 293.25 676.182 C 296.318 665.923 295.66 653.551 295.298 642.977 C 300.139 633.206 310.921 617.106 317.004 606.631 z" fill="rgb(3,128,76)" transform="translate(0,0)"></path>
<path d="M 371.695 309.367 L 372.469 309.838 C 373.149 312.929 343.503 408.738 340.107 419.577 C 336.399 420.172 332.142 420.612 328.37 421.095 C 316.338 441.835 304.28 465.442 292.594 486.623 C 283.673 502.794 269.021 528.7 262.082 545.355 C 251.039 571.859 245.663 608.956 234.235 635.763 C 230.454 644.634 220.661 657.986 214.803 666.173 L 211.252 648.804 C 208.074 634.707 205.488 619.39 202.675 605.09 C 208.464 588.68 218.203 573.741 225.549 558.128 C 228.904 550.997 230.082 540.685 234.144 533.001 C 238.512 524.741 243.968 517.271 248.172 509.094 C 250.766 504.048 248.908 496.566 251.247 491.182 C 253.768 485.378 263.075 473.071 263.607 467.089 C 264.639 455.468 262.103 442.975 261.917 430.28 C 258.62 425.164 256.565 421.62 253.767 416.215 C 253.846 408.542 254.659 402.63 255.644 394.994 C 278.769 383.746 283.817 377.165 276.772 351.545 C 281.525 342.536 287.781 332.202 292.928 323.259 C 317.946 320.07 346.66 314.116 371.695 309.367 z" fill="rgb(3,128,76)" transform="translate(0,0)"></path>
<path d="M 473.032 381.12 C 499.291 381.052 537.653 378.32 562.465 384.187 C 605.658 394.402 606.844 462.469 561.076 471.243 C 558.48 471.846 546.218 473.233 544.884 474.627 C 526.626 493.704 585.432 511.124 591.011 512.64 L 591.057 555.716 L 545.016 555.686 L 544.978 527.605 C 544.943 517.46 544.67 508.3 536.764 498.893 C 528.945 489.59 511.326 468.813 499.024 465.92 C 497.226 465.719 494.482 466.613 493.543 468.248 C 479.963 491.87 510.803 511.72 520.85 529.431 C 526.375 539.171 527.46 546.222 528.327 555.84 L 479.135 555.995 L 479.165 455.192 C 479.203 429.697 481.868 405.315 473.032 381.12 z" fill="rgb(254,254,254)" transform="translate(0,0)"></path>
<path d="M 521.184 418.337 C 578.877 411.354 600.369 456.108 547.237 463.894 C 530.176 464.463 494.796 458.191 491.182 437.9 C 490.65 434.978 491.366 431.966 493.156 429.596 C 498.868 421.919 512.273 419.567 521.184 418.337 z" fill="rgb(17,10,14)" transform="translate(0,0)"></path>
<path d="M 1456.42 381.306 C 1469.98 380.712 1528.14 380.197 1538.86 382.47 C 1546.26 384.048 1553.23 387.213 1559.29 391.748 C 1580.87 407.973 1584.89 439.481 1568.43 460.732 C 1553.04 481.166 1527.4 482.899 1504.35 478.123 C 1495.19 476.224 1481.47 469.648 1475.67 478.777 L 1475.19 479.551 C 1475.38 502.426 1499.62 511.737 1505.65 533.473 C 1508.39 543.33 1508.18 545.449 1508.5 555.747 L 1461.96 555.802 L 1461.97 452.145 C 1462.02 434.859 1462.33 416.452 1461.61 399.194 C 1461.5 396.626 1457.43 386.969 1456.56 382.118 L 1456.42 381.306 z" fill="rgb(254,254,254)" transform="translate(0,0)"></path>
<path d="M 1506.36 418.337 C 1524.08 416.751 1556.03 419.621 1560.34 441.141 C 1561.26 445.674 1560.31 450.385 1557.7 454.203 C 1551.56 463.219 1539.26 466.041 1529.25 467.936 C 1474.74 471.309 1444.77 426.674 1506.36 418.337 z" fill="rgb(17,10,14)" transform="translate(0,0)"></path>
<path d="M 1097.44 379.365 C 1115.67 378.9 1133.01 384.91 1151.59 385.835 C 1162.92 386.399 1170.56 380.962 1175.75 382.299 L 1176.67 384.599 C 1176.46 392.679 1153.02 423.64 1147.49 432.76 C 1146.4 434.554 1143.17 436.26 1141.1 436.851 C 1134.21 434.626 1127.02 417.056 1120.65 409.863 C 1113.55 401.383 1102.58 391.036 1091.31 389.387 C 1083.06 388.18 1073.59 397.531 1073.37 405.721 C 1072.96 421.233 1090.53 426.681 1101.06 433.647 C 1129.44 452.295 1180.94 473.544 1176.84 515.514 C 1173.15 553.277 1145.88 561.612 1114.02 558.786 C 1097.36 555.332 1082.5 548.243 1065.96 546.921 C 1062.25 546.625 1049.81 555.696 1045.18 553.945 C 1044.91 552.967 1044.46 551.995 1044.66 550.988 C 1045.81 545.159 1078.23 498.162 1083.66 494.304 C 1099.19 494.968 1130.44 569.686 1157.8 541.669 C 1170.7 527.507 1151.57 514.798 1139.94 507.794 C 1099.77 483.605 1037.28 461.689 1060.72 401.685 C 1066.83 386.046 1082.36 381.055 1097.44 379.365 z" fill="rgb(254,254,254)" transform="translate(0,0)"></path>
<path d="M 1259.67 381.237 L 1310.5 381.173 L 1310.43 494.172 C 1310.43 510.372 1311.27 539.591 1309.97 554.823 C 1307.68 556.524 1306.64 555.925 1303.25 555.982 L 1261.94 555.979 C 1260.7 525.752 1268.49 517.298 1289.64 497.229 C 1294.29 492.813 1301.93 480.03 1294.24 475.255 C 1281.29 467.216 1257.93 473.257 1243.02 471.837 C 1235.05 471.332 1206.83 469.027 1203.65 475.441 C 1194.06 494.749 1223.27 508.89 1231.15 522.87 C 1237.31 533.755 1237.97 543.488 1239.08 555.701 L 1190.02 555.86 L 1190.32 381.324 L 1238.34 381.424 C 1237.04 414.018 1220.68 419.671 1204.15 443.874 C 1201.76 447.379 1204.32 458.077 1209.07 458.515 C 1225.57 460.035 1242.79 458.796 1259.41 459.169 C 1268.89 459.254 1285.2 460.005 1293.39 455.774 C 1300 443.933 1274.04 426.191 1268.05 412.963 C 1261.74 399.02 1260.29 397.607 1259.67 381.237 z" fill="rgb(254,254,254)" transform="translate(0,0)"></path>
<path d="M 884.031 381.201 L 934.267 381.184 C 932.267 400.598 928.323 411.543 914.419 425.563 C 907.848 432.188 892.94 445.526 901.707 455.263 C 912.95 461.523 937.814 440.002 946.178 432.701 C 956.902 423.34 953.312 395.131 953.079 381.248 C 967.563 381.069 982.463 381.281 996.982 381.31 L 996.993 420.432 C 983.488 427.62 932.74 450.416 926.733 459.026 C 925.157 461.286 924.54 463.929 925.204 466.634 C 928.464 479.91 969.168 499.435 981.937 506.779 C 987.611 509.559 991.78 511.522 997.049 515.05 L 997.053 555.66 L 952.767 555.593 C 952.524 519.009 958.242 508.755 926.141 484.722 C 919.705 479.904 911.207 469.05 902.331 471.368 C 885.499 491.088 917.797 509.021 925.136 524.57 C 929.909 534.68 929.921 544.82 929.877 555.614 C 914.619 555.525 899.175 555.739 883.902 555.831 L 884.031 381.201 z" fill="rgb(254,254,254)" transform="translate(0,0)"></path>
<path d="M 799.733 380.332 C 821.153 379.903 830.16 386.226 850.651 387.535 C 861.565 388.233 867.3 381.036 872.971 383.242 C 873.572 384.466 874.287 385.244 873.855 386.151 C 868.798 395.823 845.412 443.4 838.958 447.836 C 815.158 460.996 799.128 384.94 776.336 398.23 C 751.813 412.528 764.75 457.107 775.623 475.884 C 786.282 494.67 804.078 508.353 824.972 513.828 C 839.012 515.213 851.195 514.261 862 503.271 C 865.292 499.923 866.115 497.114 870.471 495.928 C 877.738 501.284 862.38 525.039 858.301 530.857 C 835.968 560.518 808.811 567.456 777.403 546.23 C 724.529 510.497 727.552 388.892 799.733 380.332 z" fill="rgb(254,254,254)" transform="translate(0,0)"></path>
<path d="M 43.4183 435.689 C 45.4933 437.582 59.9744 456.307 62.9446 460.058 C 61.2457 469.288 59.7924 478.56 58.5862 487.867 C 33.6669 519 55.9549 542.445 78.9366 562.299 C 84.8034 567.367 76.4496 629.615 74.7609 639.058 C 86.9278 662.102 102.117 682.846 117.579 703.669 C 120.562 724.98 112.192 732.632 116.295 752.544 C 117.911 760.253 121.893 769.862 127.104 775.899 C 133.415 783.209 133.161 782.722 134.944 792.338 C 135.807 795.407 137.046 798.475 136.508 801.496 C 131.754 800.665 93.4713 778.132 86.4723 774.184 C 81.1827 756.284 76.3933 736.084 72.6789 718.287 C 68.5403 698.458 73.6548 694.583 59.6677 678.843 C 52.7313 671.038 55.3943 645.101 55.8488 633.494 C 52.5188 628.524 40.8418 603.841 41.5207 599.312 C 44.5288 580.313 34.2047 564.464 32.5668 545.889 C 29.4166 510.164 38.4064 471.306 43.4183 435.689 z" fill="rgb(3,128,76)" transform="translate(0,0)"></path>
<path d="M 68.1579 463.142 C 73.9498 463.881 80.8634 464.326 86.7647 464.858 C 79.1796 483.766 79.7354 488.427 76.4094 506.571 C 69.0954 546.47 97.0875 541.612 112.06 569.626 C 111.994 583.414 111.952 586.232 108.035 599.415 C 113.623 614.463 118.356 632.58 128.792 644.998 C 130.76 647.339 132.415 649.812 134.133 652.331 C 133.892 656.738 132.164 665.507 131.354 670.2 C 134.996 678.932 138.538 691.609 141.204 700.017 C 142.213 703.2 157.959 713.248 161.957 716.865 L 162.706 717.549 C 162.224 719.634 160.215 727.817 160.42 729.565 C 163.084 752.376 152.577 767.934 145.068 789.656 C 144.57 791.22 142.26 795.855 141.442 797.586 C 139.818 790.889 139.027 782.402 136.177 776.181 C 135.004 773.62 132.882 773.685 129.964 772.87 C 126.881 770.375 125.268 764.796 124.271 761.089 C 122.927 756.087 119.692 744.386 119.958 739.471 C 120.47 730.015 126.014 713.955 122.649 704.832 C 118.443 693.43 105.647 678.673 98.3896 668.051 C 91.6022 658.24 85.475 647.988 80.0485 637.364 C 84.1432 618.873 87.5932 582.749 85.2733 563.546 C 84.5237 557.34 68.3259 546.853 64.04 541.141 C 59.0545 534.497 54.9824 526.956 51.7627 519.019 C 54.3379 506.037 54.0995 500.927 63.0661 491.321 C 64.7008 480.868 65.6332 473.528 68.1579 463.142 z" fill="rgb(4,18,209)" transform="translate(0,0)"></path>
<path d="M 276.689 583.764 C 277.022 584.105 277.668 585.463 277.933 585.972 C 276.888 597.95 272.923 616.941 266.123 627.105 C 263.035 631.721 256.271 637.342 254.424 643.225 C 251.149 653.657 252.083 666.888 250.066 677.293 C 247.437 690.861 241.081 708.421 236.243 721.5 C 226.483 728.02 217.089 737.861 209.818 747.067 C 211.554 757.6 214.291 770.351 215.09 780.769 C 210.715 790.638 202.069 804.509 196.27 814.214 L 159.23 806.879 C 155.668 806.508 149.115 805.043 145.378 804.331 C 150.261 790.987 160.815 760.563 167.093 748.658 C 173.74 736.054 191.587 711.326 200.376 698.363 L 251.894 621.059 C 260.116 608.641 268.931 596.434 276.689 583.764 z" fill="rgb(3,128,76)" transform="translate(0,0)"></path>
<path d="M 253.162 294.486 C 257.31 296.341 284.114 316.803 288.964 320.449 C 282.561 330.72 275.384 341.434 271.48 352.83 C 277.156 378.854 273.901 377.824 254.89 390.961 C 248.225 395.567 248.873 410.637 248.887 418.36 L 256.813 431.288 C 256.789 444.736 257.46 450.877 260.069 464.095 C 253.474 480.737 243.718 488.42 243.257 507.769 C 243.187 510.712 231.479 526.438 229.882 530.889 C 224.58 545.67 222.807 555.411 213.904 568.91 C 209.161 577.92 205.024 587.873 200.929 597.245 C 198.103 581.602 194.988 566.014 191.586 550.487 C 201.72 528.147 223.551 482.283 228.699 459.976 C 230.848 434.562 234.548 405.894 235.044 380.709 C 235.596 352.687 240.881 341.431 251.766 316.549 C 253.557 312.456 253.196 299.623 253.162 294.486 z" fill="rgb(4,18,209)" transform="translate(0,0)"></path>
<path d="M 230.341 342.976 L 231.662 343.635 C 234.544 355.352 223.817 431.486 224.764 448.622 C 225.578 463.353 198.047 526.018 189.907 541.359 C 189.197 536.406 188.153 531.194 187.253 526.248 L 177.873 480.405 C 170.84 445.812 172.845 448.638 180.354 414.013 L 192.502 356.796 C 205.098 352.051 217.694 347.868 230.341 342.976 z" fill="rgb(3,128,76)" transform="translate(0,0)"></path>
<path d="M 283.702 575.322 C 288.618 578 308.563 598.98 313.424 603.972 C 307.31 615.067 297.791 629.472 290.949 640.674 C 291.065 658.865 292.286 675.213 279.605 688.948 C 269.422 699.977 265.734 709.04 268.007 723.9 C 271.544 737.207 248.222 759.404 247.188 767.953 C 243.885 795.272 247.929 791.802 228.755 813.946 L 202.723 813.873 C 210.232 797.507 222.816 787.582 218.42 767.973 C 217.117 762.159 216.391 754.357 215.558 748.344 C 224.886 737.783 229.391 731.989 241.014 724.204 C 245.375 710.019 251.039 695.153 254.619 680.803 C 257.345 669.88 256.037 656.334 259.353 645.313 C 261.238 639.047 267.153 634.123 270.733 628.733 C 281.091 613.429 282.584 593.254 283.702 575.322 z" fill="rgb(4,18,209)" transform="translate(0,0)"></path>
<path d="M 414.313 541.532 L 415.081 541.543 C 417.522 543.967 418.991 551.677 419.989 555.449 C 402.686 576.989 384.792 599.81 367.061 620.808 C 356.254 616.003 324.849 605.732 317.256 600.515 C 308.376 590.667 297.499 580.094 288.079 570.56 C 303.647 562.784 330.16 551.818 347.13 547.291 C 351.498 546.126 369.145 545.195 374.485 544.808 L 414.313 541.532 z" fill="rgb(3,128,76)" transform="translate(0,0)"></path>
<path d="M 326.663 212.767 C 330.228 216.342 369.197 293.922 374.191 303.57 C 359.317 305.797 344.502 308.406 329.762 311.396 C 317.934 313.331 306.13 315.412 294.352 317.638 C 291.757 314.97 288.588 312.531 285.677 310.173 C 286.873 303.924 290.055 287.177 292.75 282.227 C 302.34 264.612 304.857 255.091 307.363 235.178 C 313.847 227.779 320.131 220.197 326.663 212.767 z" fill="rgb(3,128,76)" transform="translate(0,0)"></path>
<path d="M 420.843 563.641 C 424.437 566.715 442.009 635.016 444.394 643.775 C 427.581 655.072 410.958 666.647 394.531 678.497 L 393.033 678.171 C 388.935 671.055 375.466 634.668 371.448 624.419 C 386.855 604.488 404.818 583.351 420.843 563.641 z" fill="rgb(3,128,76)" transform="translate(0,0)"></path>
<path d="M 356.713 472.806 C 369.111 472.481 387.253 474.173 399.827 475.198 C 390.753 496.126 380.544 519.141 370.094 539.429 C 343.318 540.704 342.88 541.049 318.314 551.762 C 310.902 555.358 295.44 560.981 287.27 564.201 C 290.846 556.056 294.55 546.964 299.151 539.436 C 323.45 532.115 328.411 532.321 333.39 506.843 C 336.242 492.248 348.236 484.988 356.713 472.806 z" fill="rgb(3,128,76)" transform="translate(0,0)"></path>
<path d="M 436.671 656.014 L 437.515 656.904 C 430.345 674.629 387.051 765.754 378.862 775.154 C 369.8 785.557 349.367 797.446 337.246 805.018 C 336.959 804.723 336.593 803.781 336.392 803.344 L 368.215 737.495 C 374.524 724.293 387.403 693.732 395.735 684.231 C 400.688 678.582 428.6 661.221 436.671 656.014 z" fill="rgb(3,128,76)" transform="translate(0,0)"></path>
<path d="M 87.358 388.861 C 92.4627 389.874 114.034 393.238 117.132 394.492 C 126.835 398.42 155.344 419.853 162.061 427 C 162.707 431.347 162.813 432.206 162.301 436.547 C 158.606 439.311 146.303 442.711 141.26 444.3 C 125.028 449.558 108.688 454.478 92.2511 459.058 C 89.5603 452.792 85.688 445.392 82.6035 439.259 C 83.6293 425.191 87.3159 409.893 85.3828 395.852 C 84.7269 391.088 84.6124 392.333 87.358 388.861 z" fill="rgb(3,128,76)" transform="translate(0,0)"></path>
<path d="M 329.553 460.69 C 337.136 464.964 343.91 468.235 351.789 471.97 C 345.407 481.039 337.582 485.684 332.628 494.461 C 328.572 501.648 325.716 517.345 323.768 523.597 C 322.777 526.78 297.627 535.624 293.277 537.297 C 280.119 570.684 275.952 574.946 256.114 604.519 L 245.604 619.895 C 250.566 599.822 258.862 573.528 264.869 553.458 C 266.465 548.126 282.405 526.8 286.636 520.802 C 300.684 500.582 314.991 480.543 329.553 460.69 z" fill="rgb(4,18,209)" transform="translate(0,0)"></path>
<path d="M 313.525 211.462 L 317.847 211.429 L 318.649 212.588 C 315.856 219.379 304.56 229.232 302.135 235.345 C 300.179 240.276 300.087 254.63 297.924 261.362 C 295.977 267.423 290.379 272.641 288.813 276.788 C 285.517 285.517 283.203 298.642 281.291 307.959 C 275.524 304.202 268.711 298.937 263.057 294.799 C 256.577 289.61 249.663 284.75 242.915 279.893 C 260.965 258.822 281.093 237.4 299.335 216.268 C 304.133 210.71 306.051 211.586 313.525 211.462 z" fill="rgb(4,18,209)" transform="translate(0,0)"></path>
<path d="M 391.324 414.292 C 391.687 414.342 392.824 415.119 393.206 415.353 C 393.999 417.173 395.227 420.31 394.837 422.147 C 391.814 436.393 384.438 454.686 379.401 468.218 C 364.947 467.791 357.748 468.666 344.648 462.352 C 340.291 460.282 335.854 457.652 331.634 455.265 C 332.793 445.221 334.435 435.505 336.072 425.54 C 354.038 421.327 373.148 417.861 391.324 414.292 z" fill="rgb(3,128,76)" transform="translate(0,0)"></path>
<path d="M 187.211 305.296 C 199.787 309.051 221.637 312.265 229.34 322.439 C 233.379 327.774 232.801 330.535 231.856 336.812 C 223.284 340.142 214.935 342.97 206.242 345.915 L 191.797 350.777 C 182.414 339.757 173.166 327.735 164.154 316.333 C 172.452 312.706 179.277 309.765 187.211 305.296 z" fill="rgb(3,128,76)" transform="translate(0,0)"></path>
<path d="M 79.4167 396.734 C 85.6071 406.823 75.2661 426.827 79.0588 440.791 C 81.5702 450.037 82.1175 450.31 86.5898 459.441 C 78.493 458.837 69.647 459.882 64.5013 453.431 C 58.1103 445.254 51.7727 437.036 45.4889 428.777 C 53.9756 422.255 70.656 405.052 79.4167 396.734 z" fill="rgb(4,18,209)" transform="translate(0,0)"></path>
<path d="M 175.714 340.575 C 177.645 342.39 185.388 351.808 187.754 354.48 C 181.762 379.585 177.158 405.228 171.177 430.445 L 170.178 431.869 C 168.377 429.697 163.377 399.181 163.506 395.771 C 164.264 375.728 173.35 361.414 175.714 340.575 z" fill="rgb(4,18,209)" transform="translate(0,0)"></path>
<path d="M 159.68 321.333 C 163.384 323.61 168.143 330.551 170.859 334.231 C 169.396 356.013 163.666 366.551 159.336 386.965 C 157.662 394.859 160.58 410.167 162 418.512 L 161.773 418.95 C 159.802 418.947 152.399 411.794 150.193 409.884 C 152.52 397.391 153.018 384.685 154.213 372.014 C 155.926 355.108 157.749 338.215 159.68 321.333 z" fill="rgb(3,128,76)" transform="translate(0,0)"></path>
<path d="M 838.233 615.163 C 841.115 609.13 844.228 601.089 847.158 595.003 C 847.762 593.748 850.475 593.95 851.503 593.97 C 851.858 593.977 853.551 594.252 853.592 594.69 C 854.53 604.71 856.481 614.926 857.715 624.794 C 857.866 626.007 848.346 627.62 849.906 621.522 C 850.068 620.89 849.147 615.344 848.943 614.172 C 848.858 613.354 848.775 609.968 847.546 609.806 C 845.043 611.201 840.369 635.518 834.819 622.573 C 832.697 617.624 830.916 612.435 828.682 607.395 C 828.234 610.826 827.024 624.72 825.389 625.347 C 816.37 628.804 820.012 619.569 820.219 618.638 C 822.049 610.411 822.586 601.829 824.327 593.984 C 832.937 594.928 830.968 594.15 833.812 602.666 C 835.157 606.697 836.788 611.13 838.233 615.163 z" fill="rgb(242,121,91)" transform="translate(0,0)"></path>
<path d="M 240.08 284.372 C 242.945 286.324 245.843 288.191 248.761 290.056 C 247.596 303.742 249.267 315.462 242.206 327.892 C 241.735 329.376 241.051 332.054 240.049 333.146 L 239.798 333.195 C 239.548 332.756 239.691 332.743 239.672 332.241 C 236.889 320.074 233.685 317.561 224.612 310.134 L 224.163 309.762 C 227.91 294.15 227.562 294.826 240.08 284.372 z" fill="rgb(3,128,76)" transform="translate(0,0)"></path>
<path d="M 239.672 332.241 C 240.645 330.017 240.753 329.761 242.206 327.892 C 241.735 329.376 241.051 332.054 240.049 333.146 L 239.798 333.195 C 239.548 332.756 239.691 332.743 239.672 332.241 z" fill="rgb(4,111,73)" transform="translate(0,0)"></path>
<path d="M 1309.93 593.061 C 1312.69 592.789 1332.19 592.599 1328.95 600.778 C 1326.4 607.238 1323.5 603.08 1320.56 600.877 C 1318.57 599.372 1316.01 598.82 1313.58 599.369 C 1301.57 602.012 1305.86 625.23 1319.66 619.445 C 1328.06 615.925 1321.83 614.218 1318 614.903 C 1317.2 615.044 1315.84 612.436 1315.3 611.596 C 1318.95 606.974 1327.3 606.318 1331.92 608.642 C 1335.35 613.663 1328.72 622.043 1325.74 623.661 C 1302.66 636.234 1286.38 606.033 1309.93 593.061 z" fill="rgb(242,121,91)" transform="translate(0,0)"></path>
<path d="M 1417.53 588.701 C 1418.73 588.817 1423.37 588.708 1424 589.614 C 1425.22 591.386 1424.51 618.618 1424.26 622.518 C 1424.23 622.932 1423.97 625.282 1423.58 625.444 C 1422.54 625.877 1421.47 625.51 1420.4 625.358 C 1419.51 625.231 1418.96 625.175 1418.16 624.785 C 1416.37 623.923 1409.79 626.112 1406.88 626.181 C 1395.19 616.856 1397.82 602.065 1413.64 603.422 C 1418.44 603.833 1417.07 606.671 1417.34 598.504 C 1417.46 594.937 1417.43 591.848 1417.53 588.701 z" fill="rgb(242,121,91)" transform="translate(0,0)"></path>
<path d="M 1409.88 609.571 C 1412.62 608.266 1415.9 609.433 1417.2 612.176 C 1418.5 614.918 1417.32 618.194 1414.58 619.488 C 1411.84 620.779 1408.58 619.61 1407.28 616.875 C 1405.98 614.14 1407.15 610.872 1409.88 609.571 z" fill="rgb(17,10,14)" transform="translate(0,0)"></path>
<path d="M 965.984 602.91 C 970.083 603.078 971.629 603.206 975.489 604.84 C 975.742 604.947 981.57 602.845 981.828 604.64 C 982.701 610.706 982.897 618.993 981.9 624.93 C 981.501 627.301 976.311 625.461 974.967 624.601 C 958.525 632.04 951.115 612.925 965.984 602.91 z" fill="rgb(242,121,91)" transform="translate(0,0)"></path>
<path d="M 969.019 609.699 C 971.931 608.894 974.954 610.561 975.828 613.453 C 976.702 616.346 975.108 619.407 972.236 620.35 C 970.317 620.98 968.208 620.521 966.724 619.15 C 965.241 617.779 964.616 615.713 965.093 613.75 C 965.569 611.787 967.072 610.237 969.019 609.699 z" fill="rgb(17,10,14)" transform="translate(0,0)"></path>
<path d="M 584.1 592.167 C 589.362 592.344 602.36 594.031 597.586 602.522 L 597.48 602.551 C 594.563 601.867 582.019 593.159 578.371 605.312 C 574.397 618.552 585.347 622.53 597.025 616.305 C 599.104 617.984 598.468 623.283 595.425 624.883 C 586.904 629.361 574.167 625.32 570.432 616.394 C 568.554 611.991 568.61 607.003 570.584 602.642 C 573.379 596.44 578.08 594.315 584.1 592.167 z" fill="rgb(242,121,91)" transform="translate(0,0)"></path>
<path d="M 703.212 602.845 C 710.983 603.818 708.065 607.01 714.863 603.823 C 719.065 602.629 718.44 610.438 718.24 612.241 C 717.441 619.466 721.99 630.392 710.44 624.405 C 698.397 632.225 684.093 612.827 703.212 602.845 z" fill="rgb(242,121,91)" transform="translate(0,0)"></path>
<path d="M 703.5 609.652 C 706.109 608.161 709.43 608.988 711.035 611.529 C 712.64 614.07 711.961 617.424 709.494 619.14 C 707.798 620.32 705.591 620.473 703.748 619.539 C 701.905 618.605 700.724 616.735 700.672 614.67 C 700.62 612.604 701.706 610.677 703.5 609.652 z" fill="rgb(17,10,14)" transform="translate(0,0)"></path>
<path d="M 1377.97 603.038 C 1396.24 602.878 1400.44 618.498 1385.3 626.11 C 1366.59 626.14 1363.01 610.711 1377.97 603.038 z" fill="rgb(242,121,91)" transform="translate(0,0)"></path>
<path d="M 1379.71 609.718 C 1381.66 608.986 1383.86 609.41 1385.4 610.817 C 1386.94 612.224 1387.56 614.376 1387.01 616.387 C 1386.46 618.399 1384.82 619.931 1382.78 620.354 C 1379.94 620.941 1377.13 619.244 1376.32 616.459 C 1375.52 613.673 1376.99 610.736 1379.71 609.718 z" fill="rgb(17,10,14)" transform="translate(0,0)"></path>
<path d="M 1120.16 603.079 C 1126.57 600.969 1133.47 604.483 1135.53 610.908 C 1137.6 617.332 1134.03 624.207 1127.59 626.222 C 1121.22 628.217 1114.43 624.697 1112.39 618.339 C 1110.35 611.981 1113.82 605.167 1120.16 603.079 z" fill="rgb(242,121,91)" transform="translate(0,0)"></path>
<path d="M 1121.26 609.701 C 1123.91 608.232 1127.24 609.134 1128.79 611.738 C 1130.34 614.342 1129.53 617.704 1126.98 619.328 C 1125.25 620.421 1123.07 620.492 1121.28 619.511 C 1119.49 618.53 1118.38 616.654 1118.37 614.613 C 1118.37 612.573 1119.47 610.691 1121.26 609.701 z" fill="rgb(17,10,14)" transform="translate(0,0)"></path>
<path d="M 1084.3 594.016 C 1086.73 594.009 1104.21 593.322 1104.71 595.011 C 1108.9 607.588 1087.74 594.666 1091.38 605.392 C 1092.97 610.094 1101.65 600.487 1105.68 611.952 C 1100.33 613.45 1096.96 612.956 1091.44 612.99 C 1091.48 615.886 1092.1 622.094 1090.75 624.718 C 1090.22 625.762 1084.77 625.455 1084.7 624.514 C 1084.01 614.595 1084.31 604.031 1084.3 594.016 z" fill="rgb(242,121,91)" transform="translate(0,0)"></path>
<path d="M 328.607 432.729 C 332.755 453.656 304.847 485.334 292.317 502.172 C 291.629 498.387 324.225 440.626 328.607 432.729 z" fill="rgb(4,18,209)" transform="translate(0,0)"></path>
<path d="M 916.79 602.969 C 920.45 602.98 934.694 603.15 931.707 615.296 C 931.464 616.285 921.729 616.107 919.989 615.966 C 915.645 615.614 916.063 619.026 919.198 620.697 C 921.736 621.976 926.256 619.188 929.056 618.062 C 934.376 625.609 922.588 627.174 918.492 626.181 C 904.541 622.797 906.095 609.407 916.79 602.969 z" fill="rgb(242,121,91)" transform="translate(0,0)"></path>
<path d="M 917.948 607.755 C 920.4 608.084 925.125 608.141 924.24 611.774 C 919.671 611.546 916.341 613.145 917.948 607.755 z" fill="rgb(17,10,14)" transform="translate(0,0)"></path>
<path d="M 397.679 433.673 C 401.591 437.39 406.08 463.784 401.352 468.803 C 400.235 469.989 392.9 469.267 391.223 469.202 C 383.39 468.589 384.634 468.887 387.633 461.038 C 391.088 451.993 393.925 442.566 397.679 433.673 z" fill="rgb(4,18,209)" transform="translate(0,0)"></path>
<path d="M 1439.8 602.988 C 1447.36 603.195 1453.19 603.532 1454.8 613.243 C 1455.9 619.926 1431.2 611.61 1441.23 620.7 C 1443.26 622.537 1448.94 619.097 1451.49 618.385 C 1452.08 619.259 1454.19 621.786 1453.82 622.431 C 1451.91 625.924 1442.12 627.481 1439.01 625.88 C 1427.27 619.841 1429.61 608.499 1439.8 602.988 z" fill="rgb(242,121,91)" transform="translate(0,0)"></path>
<path d="M 1441.57 607.362 C 1445.06 608.324 1448.61 608.922 1445.51 612.772 C 1439.35 611.683 1438.07 612.743 1441.57 607.362 z" fill="rgb(17,10,14)" transform="translate(0,0)"></path>
<path d="M 1347.92 603.066 C 1355.65 603.266 1362.74 604.878 1362.29 614.521 C 1362.1 618.664 1347.71 613.286 1346.56 618.062 C 1348.93 624.473 1356.46 619.239 1360.45 618.873 C 1364.89 626.423 1346.36 630.366 1340.98 620.997 C 1339.18 617.797 1338.8 613.994 1339.91 610.498 C 1341.27 606.332 1344.35 604.908 1347.92 603.066 z" fill="rgb(242,121,91)" transform="translate(0,0)"></path>
<path d="M 1347.98 607.767 C 1350.64 607.845 1356.3 607.293 1355.25 611.676 C 1350.07 611.697 1346.26 613.657 1347.98 607.767 z" fill="rgb(17,10,14)" transform="translate(0,0)"></path>
<path d="M 881.481 602.397 C 887.429 604.334 884.657 604.454 886.623 605.591 C 890.014 605.248 898.148 598.576 901.743 610.013 C 902.448 612.253 901.849 616.346 902.019 618.669 C 902.425 624.222 902.193 627.656 895.649 625.002 C 894.573 624.561 895.011 617.008 895.004 614.75 C 895.002 613.193 894.545 608.35 890.086 609.03 C 881.104 611.432 892.579 630.408 879.516 625.1 C 879.182 624.964 877.194 606.118 881.481 602.397 z" fill="rgb(242,121,91)" transform="translate(0,0)"></path>
<path d="M 635.852 618.507 C 636.663 616.268 640.261 605.902 641.358 603.449 C 641.61 602.886 647.484 602.786 647.672 603.456 C 648.38 605.98 643.02 617.46 642.226 619.342 C 641.551 620.833 635.34 634.814 634.942 634.954 C 623.852 638.846 630.103 630.295 632.463 625.326 C 631.247 622.435 623.542 604.916 623.245 603.324 C 634.315 603.467 631.379 607.514 635.852 618.507 z" fill="rgb(242,121,91)" transform="translate(0,0)"></path>
<path d="M 754.248 613.223 C 766.707 622.51 747.965 631.502 740.137 623.985 C 739.856 623.715 740.655 617.574 745.527 620.386 C 750.004 622.97 754.593 619.345 746.614 616.706 C 733.065 610.657 745.078 598.728 755.735 604.406 C 758.7 605.976 756.66 607.462 755.641 610.239 C 755.167 611.229 754.702 612.224 754.248 613.223 z" fill="rgb(242,121,91)" transform="translate(0,0)"></path>
<path d="M 754.248 613.223 C 752.644 612.7 749.59 612.142 748.554 610.769 C 748.289 610.422 748.194 609.974 748.294 609.549 C 748.721 607.79 751.406 608.582 752.478 608.994 L 755.641 610.239 C 755.167 611.229 754.702 612.224 754.248 613.223 z" fill="rgb(17,10,14)" transform="translate(0,0)"></path>
<path d="M 1170.53 616.04 L 1170.12 615.737 C 1166.11 612.692 1166.19 609.738 1168.5 605.962 C 1171.53 601.004 1187.76 602.908 1182.14 609.246 C 1181.38 611.431 1170.79 604.463 1174.28 610.673 C 1176.08 613.87 1184.95 611.309 1184.19 620.061 C 1183.48 628.35 1161.33 629.919 1168.4 619.058 C 1169.13 618.049 1169.84 617.073 1170.53 616.04 z" fill="rgb(242,121,91)" transform="translate(0,0)"></path>
<path d="M 1170.53 616.04 C 1172.01 616.679 1176.14 617.925 1176.54 619.327 C 1176.64 619.647 1176.59 619.992 1176.41 620.273 C 1175 622.413 1169.91 619.716 1168.4 619.058 C 1169.13 618.049 1169.84 617.073 1170.53 616.04 z" fill="rgb(17,10,14)" transform="translate(0,0)"></path>
<path d="M 1157.83 613.698 C 1160.22 616.71 1161.76 619.341 1158.85 622.934 C 1157.41 624.733 1155.31 625.887 1153.02 626.144 C 1150.41 626.42 1141.3 625.92 1142.13 623.009 C 1143.37 618.68 1146.52 619.47 1149.36 621.523 C 1151.09 622.775 1153.45 620.551 1153.05 619.804 C 1150.9 615.79 1142.36 617.039 1142.94 609.931 C 1143.52 602.101 1154.65 601.639 1159.53 605.75 C 1160.14 606.264 1158.37 609.371 1158.07 610.196 C 1158.64 611.885 1158.4 611.891 1157.83 613.698 z" fill="rgb(242,121,91)" transform="translate(0,0)"></path>
<path d="M 1157.83 613.698 C 1155.92 613.111 1151.64 612.213 1150.61 610.724 C 1150.31 610.29 1150.23 609.736 1150.42 609.241 C 1151.35 606.706 1156.51 609.589 1158.07 610.196 C 1158.64 611.885 1158.4 611.891 1157.83 613.698 z" fill="rgb(17,10,14)" transform="translate(0,0)"></path>
<path d="M 1224.58 602.958 C 1226.71 603.006 1236.35 603.217 1236.79 605.929 C 1236.9 606.598 1236.74 607.281 1236.35 607.837 C 1233.18 612.359 1228.8 606.345 1226.83 609.775 C 1226.84 611.949 1247.76 616.815 1231.41 626.481 C 1229.54 626.351 1214.61 625.992 1220.56 619.933 C 1222.43 618.032 1226.81 622.67 1229.91 620.041 C 1229.83 615.809 1210.06 614.763 1224.58 602.958 z" fill="rgb(242,121,91)" transform="translate(0,0)"></path>
<path d="M 1465.74 603.032 C 1468.51 603.123 1476.89 603.85 1477.33 605.658 C 1479.28 613.555 1470.23 607.047 1467.85 609.279 C 1468.66 612.61 1488.7 616.97 1472.48 626.692 C 1470.61 626.644 1459.67 625.89 1459.94 623.018 C 1460.56 616.568 1467.88 623.967 1470.82 620.403 C 1470.39 615.497 1452.04 615.284 1465.74 603.032 z" fill="rgb(242,121,91)" transform="translate(0,0)"></path>
<path d="M 1009.74 602.947 C 1012.35 603.031 1021.16 603.215 1021.04 605.979 C 1020.69 613.481 1010.75 605.205 1011.46 610.347 C 1011.78 612.703 1020.31 612.544 1021.16 616.961 C 1022.61 624.503 1019.09 625.354 1012.98 626.972 C 1010.31 626.509 1005.45 626.233 1004.16 623.378 C 1003.77 622.49 1003.76 621.477 1004.15 620.586 C 1005.94 616.4 1009.75 623.417 1013.19 621.355 C 1016.59 619.317 1013.51 617.988 1011.41 617.141 C 1001.93 613.324 1001.87 608.545 1009.74 602.947 z" fill="rgb(242,121,91)" transform="translate(0,0)"></path>
<path d="M 726.06 588.477 C 732.686 589.307 733.459 587.607 733.523 594.725 C 733.616 605.237 733.804 615.768 733.696 626.282 C 731.983 626.138 728.158 626.434 726.857 625.389 C 725.802 624.542 726.047 592.311 726.06 588.477 z" fill="rgb(242,121,91)" transform="translate(0,0)"></path>
<path d="M 657.88 603.058 C 659.188 603.026 674.83 601.953 668.701 609.402 C 667.947 610.318 660.411 604.349 659.678 609.528 C 659.317 612.077 667.804 612.985 668.883 615.12 C 672.815 619.497 671.045 621.973 666.652 626.056 C 664.555 626.15 650.785 627.43 652.989 621.104 C 654.101 617.914 660.81 622.823 662.383 621.832 C 667.996 618.298 651.667 617.166 653.386 610.493 C 654.304 605.477 654.71 606.146 657.88 603.058 z" fill="rgb(242,121,91)" transform="translate(0,0)"></path>
<path d="M 1205.76 588.691 C 1206.91 588.822 1211.7 589.029 1211.86 589.731 C 1213.36 596.574 1212.57 619.169 1212.46 625.563 C 1211.07 625.537 1206.27 625.652 1206.19 624.784 C 1205.47 616.773 1205.78 595.922 1205.76 588.691 z" fill="rgb(242,121,91)" transform="translate(0,0)"></path>
<path d="M 990.51 588.629 C 997.295 589.374 997.239 587.718 997.179 594.987 C 997.091 605.529 997.104 616.11 997.153 626.654 C 995.563 626.349 990.863 625.853 990.793 625.018 C 990.207 618.008 990.383 594.778 990.51 588.629 z" fill="rgb(242,121,91)" transform="translate(0,0)"></path>
<path d="M 678.844 595.811 C 692.321 597.378 681.277 599.807 687.148 603.57 C 691.212 606.175 690.225 608.07 686.435 609.527 C 685.159 610.018 685.555 624.119 685.123 626.437 C 676.897 625.028 678.87 625.933 678.763 617.506 C 678.699 612.462 680.281 610.124 675.391 608.44 C 675.026 608.315 674.901 606.316 675.085 605.99 C 675.354 603.648 676.846 604.525 678.101 603.411 C 679.324 602.326 678.806 597.711 678.844 595.811 z" fill="rgb(242,121,91)" transform="translate(0,0)"></path>
<path d="M 611.105 603.189 C 615.648 607.655 613.85 604.315 617.978 603.259 C 620.901 602.511 621.272 612.21 617.003 610.317 C 616.192 609.957 614.494 610.479 613.934 611.078 C 611.425 613.208 612.155 618.117 612.07 621.244 C 612.781 629.279 605.017 625.545 605.206 624.488 C 606.979 614.573 599.543 605.386 610.34 603.339 L 611.105 603.189 z" fill="rgb(242,121,91)" transform="translate(0,0)"></path>
<path d="M 951.603 602.855 C 957.78 609.894 947.378 609.283 946.439 612.439 C 943.182 623.39 951.892 624.549 938.66 626.334 C 938.6 623.469 937.461 605.71 939.847 603.85 C 942.09 602.101 945.049 605.243 946.566 605.902 C 947.35 605.735 950.521 603.511 951.603 602.855 z" fill="rgb(242,121,91)" transform="translate(0,0)"></path>
<path d="M 1190.35 603.4 C 1199.34 604.706 1197.54 603.076 1197.65 613.01 C 1197.7 617.286 1197.64 621.69 1197.59 625.975 C 1188.54 625.022 1190.71 625.827 1190.38 615.745 C 1190.24 611.676 1190.35 607.474 1190.35 603.4 z" fill="rgb(242,121,91)" transform="translate(0,0)"></path>
<path d="M 864.256 602.947 C 871.519 603.586 871.358 601.97 871.323 610.234 C 871.3 615.628 871.344 621.092 871.182 626.513 C 870.4 626.368 865.287 625.663 865.201 625.362 C 863.615 619.831 864.22 608.677 864.256 602.947 z" fill="rgb(242,121,91)" transform="translate(0,0)"></path>
<path d="M 788.456 605.5 C 791.807 605.055 794.906 607.35 795.457 610.685 C 796.008 614.02 793.811 617.19 790.495 617.846 C 788.255 618.289 785.952 617.477 784.484 615.727 C 783.017 613.978 782.619 611.568 783.446 609.439 C 784.272 607.311 786.192 605.801 788.456 605.5 z" fill="rgb(242,121,91)" transform="translate(0,0)"></path>
<path d="M 1266.08 605.541 C 1269.31 604.659 1272.65 606.515 1273.62 609.725 C 1274.58 612.934 1272.81 616.326 1269.63 617.37 C 1267.49 618.069 1265.15 617.557 1263.5 616.032 C 1261.86 614.506 1261.17 612.208 1261.7 610.029 C 1262.24 607.849 1263.91 606.131 1266.08 605.541 z" fill="rgb(242,121,91)" transform="translate(0,0)"></path>
<path d="M 1050.65 605.682 C 1053.8 604.604 1057.22 606.295 1058.28 609.45 C 1059.34 612.605 1057.62 616.018 1054.46 617.054 C 1051.33 618.081 1047.96 616.387 1046.91 613.261 C 1045.86 610.136 1047.53 606.751 1050.65 605.682 z" fill="rgb(242,121,91)" transform="translate(0,0)"></path>
<path d="M 1191.83 592.469 C 1193.08 591.675 1194.67 591.647 1195.96 592.397 C 1197.24 593.147 1197.99 594.55 1197.91 596.032 C 1197.84 597.515 1196.94 598.83 1195.58 599.44 C 1193.68 600.297 1191.44 599.539 1190.46 597.705 C 1189.47 595.87 1190.07 593.584 1191.83 592.469 z" fill="rgb(242,121,91)" transform="translate(0,0)"></path>
<path d="M 865.135 592.555 C 866.691 591.171 869.061 591.258 870.511 592.752 C 871.962 594.245 871.979 596.616 870.55 598.131 C 869.568 599.171 868.095 599.589 866.714 599.219 C 865.332 598.848 864.265 597.75 863.935 596.358 C 863.606 594.966 864.067 593.506 865.135 592.555 z" fill="rgb(242,121,91)" transform="translate(0,0)"></path>
<path d="M 1834.7 233.84 C 1835 232.442 1836.08 228.473 1837.32 227.947 C 1838.47 228.771 1837.08 236.47 1836.64 237.831 C 1835.99 235.719 1835.93 235.636 1834.7 233.84 z" fill="rgb(242,121,91)" transform="translate(0,0)"></path>
<path d="M 1773.85 811.903 C 1774.23 813.979 1774.6 816.061 1774.93 818.146 C 1774.54 818.824 1773.6 821.22 1772.65 821.182 C 1772.09 820.012 1773.5 813.491 1773.85 811.903 z" fill="rgb(242,121,91)" transform="translate(0,0)"></path>
<path d="M 1991.62 309.579 C 1992.64 308.63 1994.65 306.209 1996.19 306.472 C 1996.99 307.418 1993.98 310.538 1993.27 311.335 L 1991.62 309.579 z" fill="rgb(153,80,62)" transform="translate(0,0)"></path>
<path d="M 1590 626.207 C 1589.15 626.178 1584.02 626.267 1583.73 625.463 C 1584.59 624.344 1586.71 623.914 1588.07 623.555 L 1590 626.207 z" fill="rgb(242,121,91)" transform="translate(0,0)"></path>
<path d="M 1690.05 344.283 C 1689.33 344.19 1685.17 344.049 1685.36 342.832 C 1686.09 341.968 1688.14 342.218 1689.16 342.18 L 1690.05 344.283 z" fill="rgb(153,80,62)" transform="translate(0,0)"></path>
<metadata><recraft-signature>{"signed_by": "recraft", "signature_b64": "L+cPNe59qctvVAvl6IWGTBB6uEkMXnAWlnT05fkusn+yHUO4nE0bUrVt+rCwnZEU8MI1aOAQmXaGsdqJDt3rAQ==", "signing_algo": "Ed25519", "generation_timestamp": 1780247445, "identifier": "9b426725-6c22-4ddc-abb9-1c9dd767ba32"}</recraft-signature></metadata></svg>