<svg xmlns="http://www.w3.org/2000/svg" height="768" preserveAspectRatio="none" style="display: block;" version="1.1" viewBox="0 0 2048 1024" width="1536">
<defs>
	<linearGradient gradientUnits="userSpaceOnUse" id="Gradient1" x1="1780.59" x2="1729.11" y1="479.799" y2="497.324">
		<stop class="stop0" offset="0" stop-color="rgb(195,195,195)" stop-opacity="1"></stop>
		<stop class="stop1" offset="1" stop-color="rgb(249,248,249)" stop-opacity="1"></stop>
	</linearGradient>
	<linearGradient gradientUnits="userSpaceOnUse" id="Gradient2" x1="238.02" x2="256.124" y1="448.295" y2="470.447">
		<stop class="stop0" offset="0" stop-color="rgb(193,191,196)" stop-opacity="1"></stop>
		<stop class="stop1" offset="1" stop-color="rgb(236,236,236)" stop-opacity="1"></stop>
	</linearGradient>
	<linearGradient gradientUnits="userSpaceOnUse" id="Gradient3" x1="1755.54" x2="1767.53" y1="697.926" y2="680.834">
		<stop class="stop0" offset="0" stop-color="rgb(199,198,201)" stop-opacity="1"></stop>
		<stop class="stop1" offset="1" stop-color="rgb(240,239,239)" stop-opacity="1"></stop>
	</linearGradient>
	<linearGradient gradientUnits="userSpaceOnUse" id="Gradient4" x1="113.483" x2="42.6012" y1="541.006" y2="527.974">
		<stop class="stop0" offset="0" stop-color="rgb(200,202,200)" stop-opacity="1"></stop>
		<stop class="stop1" offset="1" stop-color="rgb(223,215,227)" stop-opacity="1"></stop>
	</linearGradient>
</defs>
<path d="M 0 0 L 2048 0 L 2048 223.309 L 2048 512.689 L 2048 522.295 L 2048 534.26 L 2048 554.306 L 2048 621.728 L 2048 772.197 L 2048 802.536 L 2048 1024 L 0 1024 L 0 802.376 L 0 770.071 L 0 621.918 L 0 553.168 L 0 533.959 L 0 523.911 L 0 513.287 L 0 423.892 L 0 401.334 L 0 223.418 L 0 0 z" fill="rgb(18,23,27)" transform="translate(0,0)"></path>
<path d="M 0 0 L 2048 0 L 2048 223.309 C 2017.51 222.418 1984.01 223.13 1953.32 223.154 L 1779.92 223.354 L 1326.81 223.371 L 0 223.418 L 0 0 z" fill="rgb(33,33,37)" transform="translate(0,0)"></path>
<path d="M 143.226 526.727 C 150.622 530.354 154.903 532.077 162.699 534.774 C 146.51 560.135 131.418 586.251 115.97 612.078 L 49.9133 722.337 L 17.7425 776.393 C 14.3141 782.087 5.09603 799.627 0 802.376 L 0 770.071 C 25.108 728.395 49.9743 686.574 74.5977 644.61 C 97.3556 606.158 121.793 565.76 143.226 526.727 z" fill="rgb(241,240,241)" transform="translate(0,0)"></path>
<path d="M 1972.74 645.264 L 2048 772.197 L 2048 802.536 C 2046.44 801.937 2044.28 801.062 2043.36 799.557 C 2023.46 766.88 2004.33 733.688 1984.63 700.874 C 1979.87 692.934 1975.16 684.943 1970.59 676.894 C 1973.8 668.806 1973.01 654.241 1972.74 645.264 z" fill="rgb(161,152,165)" transform="translate(0,0)"></path>
<path d="M 1871.37 469.762 C 1879.63 486.107 1891.59 503.571 1900.44 520.978 C 1899.63 532.546 1899.08 546.757 1898.91 558.386 C 1884.28 535.477 1870.74 511.712 1855.95 488.681 C 1861.92 481.944 1866.05 476.996 1871.37 469.762 z" fill="rgb(105,123,182)" transform="translate(0,0)"></path>
<path d="M 1933.58 615.469 C 1934.6 608.677 1937.13 593.787 1939.36 587.768 C 1950.41 606.331 1962.4 626.372 1972.74 645.264 C 1973.01 654.241 1973.8 668.806 1970.59 676.894 L 1933.58 615.469 z" fill="rgb(241,240,241)" transform="translate(0,0)"></path>
<path d="M 176.071 468.949 C 181.001 474.66 186.236 480.548 190.861 486.467 C 181.801 502.758 172.412 518.864 162.699 534.774 C 154.903 532.077 150.622 530.354 143.226 526.727 C 154.236 509.7 166.086 487.032 176.071 468.949 z" fill="rgb(105,123,182)" transform="translate(0,0)"></path>
<path d="M 2024.97 509.494 C 2031.51 507.749 2035.9 506.05 2042.16 503.78 C 2043.62 511.294 2044.44 515.203 2048 522.295 L 2048 534.26 C 2042 543.53 2034.07 554.035 2027.51 563.137 C 2025.63 548.226 2022.03 529.412 2021.79 514.251 C 2021.75 511.612 2023.23 510.88 2024.97 509.494 z" fill="rgb(105,123,182)" transform="translate(0,0)"></path>
<path d="M 4.57729 406.509 C 19.1091 413.417 23.3145 415.659 38.8263 421.631 C 36.1983 433.113 32.4416 465 31.227 476.769 C 25.4157 465.443 8.9662 418.923 4.57729 406.509 z" fill="rgb(105,123,182)" transform="translate(0,0)"></path>
<path d="M 2048 554.306 L 2048 621.728 C 2045.03 628.516 2042.4 637.359 2040.06 644.547 C 2037.03 624.345 2032.12 597.136 2030.61 577.267 C 2034.73 570.714 2043.02 560.691 2048 554.306 z" fill="rgb(133,154,193)" transform="translate(0,0)"></path>
<path d="M 5.55692 505.087 C 31.822 511.072 25.7969 511.723 23.5809 535.31 C 21.918 542.693 20.6423 555.025 19.5968 562.85 C 12.8542 553.364 6.32036 543.732 0 533.959 L 0 523.911 C 3.03009 517.56 4.71068 512.157 5.55692 505.087 z" fill="rgb(105,123,182)" transform="translate(0,0)"></path>
<path d="M 0 553.168 C 5.37337 560.801 10.8558 568.929 16.9042 575.991 C 14.7221 591.333 10.8523 628.936 7.3961 641.528 L 0 621.918 L 0 553.168 z" fill="rgb(170,189,206)" transform="translate(0,0)"></path>
<path d="M 1917.52 550.829 C 1922.24 558.956 1934.43 581.203 1939.36 587.768 C 1937.13 593.787 1934.6 608.677 1933.58 615.469 C 1926.92 603.7 1919 591.498 1911.76 579.977 C 1912.75 578.268 1916.71 554.556 1917.52 550.829 z" fill="rgb(105,123,182)" transform="translate(0,0)"></path>
<path d="M 18.8565 366.835 C 24.1673 379.43 33.019 406.174 39.4745 417.149 C 35.3317 418.616 10.5024 406.437 3.26814 403.848 C 8.41223 393.554 14.0656 378.015 18.8565 366.835 z" fill="rgb(105,123,182)" transform="translate(0,0)"></path>
<path d="M 1900.44 520.978 C 1905.95 531.033 1911.64 540.985 1917.52 550.829 C 1916.71 554.556 1912.75 578.268 1911.76 579.977 C 1906.88 572.446 1903.24 566.255 1898.91 558.386 C 1899.08 546.757 1899.63 532.546 1900.44 520.978 z" fill="rgb(241,240,241)" transform="translate(0,0)"></path>
<path d="M 2040.28 472.808 L 2040.55 472.286 C 2040.98 471.302 2041.14 470.062 2042.17 470.411 C 2042.67 471.37 2042.52 472.038 2042.51 473.155 C 2042.28 476.294 2042.32 479.668 2042 482.639 C 2042.36 488.619 2042.35 493.903 2042.34 499.875 C 2036.17 502.557 2031.7 504.544 2025.23 506.759 C 2025.33 500.03 2036.75 479.271 2040.28 472.808 z" fill="rgb(133,154,193)" transform="translate(0,0)"></path>
<path d="M 2040.28 472.808 L 2040.55 472.286 C 2040.98 471.302 2041.14 470.062 2042.17 470.411 C 2042.67 471.37 2042.52 472.038 2042.51 473.155 C 2042.28 476.294 2042.32 479.668 2042 482.639 C 2039.78 480.975 2040.48 475.996 2040.28 472.808 z" fill="rgb(152,180,211)" transform="translate(0,0)"></path>
<path d="M 0 513.287 C 5.85537 504.771 2.30409 485.6 4.50049 473.934 L 5.77432 473.403 C 6.10881 479.16 5.94488 485.415 6.08634 491.19 C 6.35042 501.971 4.45176 499.266 13.5194 503.59 C 16.0595 504.2 19.7922 505.577 22.476 506.393 L 23.703 504.883 C 23.7896 505.161 23.8763 505.438 23.963 505.716 C 28.5431 511.047 27.0803 525.209 25.6843 532.827 C 25.4207 534.259 25.1013 535.679 24.7268 537.086 C 23.9179 536.128 24.0045 536.435 23.5809 535.31 C 25.7969 511.723 31.822 511.072 5.55692 505.087 C 4.71068 512.157 3.03009 517.56 0 523.911 L 0 513.287 z" fill="rgb(33,33,37)" transform="translate(0,0)"></path>
<path d="M 5.77432 473.403 C 5.94116 472.758 6.18187 471.478 6.57663 470.964 C 7.97282 471.605 15.2077 488.704 16.1319 491.071 C 13.9848 498.255 14.655 496.199 13.5194 503.59 C 4.45176 499.266 6.35042 501.971 6.08634 491.19 C 5.94488 485.415 6.10881 479.16 5.77432 473.403 z" fill="rgb(133,154,193)" transform="translate(0,0)"></path>
<path d="M 0 401.334 C 1.156 402.179 2.15916 402.947 3.26814 403.848 C 10.5024 406.437 35.3317 418.616 39.4745 417.149 C 40.8403 418.966 40.2352 425.702 39.6189 426.214 L 39.7099 426.46 L 39.6717 426.499 C 39.594 426.348 39.5162 426.198 39.4385 426.047 L 39.9364 425.726 L 39.9989 425.1 L 39.1952 424.605 C 39.2414 423.555 39.0831 422.648 38.8263 421.631 C 23.3145 415.659 19.1091 413.417 4.57729 406.509 C 1.75042 409.128 4.12312 436.989 0 423.892 L 0 401.334 z" fill="rgb(33,33,37)" transform="translate(0,0)"></path>
<path d="M 2042.51 473.155 C 2043.2 472.663 2043.73 472.063 2044.38 471.538 C 2045.79 476.694 2045.67 493.951 2044.69 499.516 C 2044.07 503.076 2046.86 509.401 2048 512.689 L 2048 522.295 C 2044.44 515.203 2043.62 511.294 2042.16 503.78 C 2035.9 506.05 2031.51 507.749 2024.97 509.494 C 2024.66 508.21 2024.2 507.767 2025.23 506.759 C 2031.7 504.544 2036.17 502.557 2042.34 499.875 C 2042.35 493.903 2042.36 488.619 2042 482.639 C 2042.32 479.668 2042.28 476.294 2042.51 473.155 z" fill="rgb(33,33,37)" transform="translate(0,0)"></path>
<path d="M 16.1319 491.071 C 18.0928 495.382 21.1596 502.086 22.476 506.393 C 19.7922 505.577 16.0595 504.2 13.5194 503.59 C 14.655 496.199 13.9848 498.255 16.1319 491.071 z" fill="rgb(105,123,182)" transform="translate(0,0)"></path>
<path d="M 250.92 483.3 L 253.968 483.858 C 257.044 488.529 265.116 535.765 266.763 545.05 C 259.33 555.185 247.847 568.872 241.474 578.331 L 238.99 581.241 C 208.906 622.849 175.988 664.758 145.466 706.328 C 132.852 723.507 110.758 741.136 97.0909 758.261 C 89.775 766.207 69.8352 789.31 63.4829 794.911 L 60.4846 797.815 C 58.961 799.938 58.9322 800.77 55.8109 800.947 C 49.051 801.33 41.5281 801.067 34.7838 800.94 L 8.62309 800.867 C 30.5774 762.886 54.4065 722.37 77.1772 684.887 C 104.46 639.298 133.51 589.878 161.695 545.106 C 163.126 541.879 169.782 531.415 171.844 528.007 L 193.331 492.544 C 211.551 490.532 229.264 487.332 247.344 484.381 L 250.92 483.3 z" fill="rgb(241,240,241)" transform="translate(0,0)"></path>
<path d="M 161.695 545.106 C 164.268 552.181 154.582 602.841 152.91 614.134 C 143.402 631.952 130.797 656.163 122.411 674.358 C 120.557 678.529 120.297 678.71 117.82 682.151 C 109.508 689.039 99.7578 695.837 92.2336 702.966 C 89.0924 701.107 87.1387 697.898 86.1137 694.425 C 83.5029 693.436 78.9362 687.238 77.1772 684.887 C 104.46 639.298 133.51 589.878 161.695 545.106 z" fill="rgb(241,240,241)" transform="translate(0,0)"></path>
<path d="M 122.411 674.358 C 120.557 678.529 120.297 678.71 117.82 682.151 C 109.508 689.039 99.7578 695.837 92.2336 702.966 C 89.0924 701.107 87.1387 697.898 86.1137 694.425 C 98.3199 687.767 109.971 681.02 122.411 674.358 z" fill="rgb(199,199,200)" transform="translate(0,0)"></path>
<path d="M 250.92 483.3 L 253.968 483.858 C 257.044 488.529 265.116 535.765 266.763 545.05 C 259.33 555.185 247.847 568.872 241.474 578.331 C 231.331 577.936 194.97 569.156 183.042 566.467 L 228.015 511.939 C 233.496 505.287 246.797 489.895 250.92 483.3 z" fill="rgb(241,240,241)" transform="translate(0,0)"></path>
<path d="M 193.331 492.544 C 211.551 490.532 229.264 487.332 247.344 484.381 C 227.337 511.418 200.275 539.561 180.12 566.847 C 172.607 577.018 159.65 601.89 152.91 614.134 C 154.582 602.841 164.268 552.181 161.695 545.106 C 163.126 541.879 169.782 531.415 171.844 528.007 L 193.331 492.544 z" fill="rgb(199,199,200)" transform="translate(0,0)"></path>
<path d="M 77.1772 684.887 C 78.9362 687.238 83.5029 693.436 86.1137 694.425 C 87.1387 697.898 89.0924 701.107 92.2336 702.966 C 73.7783 733.346 51.7892 769.83 34.7838 800.94 L 8.62309 800.867 C 30.5774 762.886 54.4065 722.37 77.1772 684.887 z" fill="rgb(199,199,200)" transform="translate(0,0)"></path>
<path d="M 117.82 682.151 C 115.273 690.374 103.872 710.907 99.5043 719.154 L 73.765 768.82 C 70.8235 774.477 61.888 792.05 60.4846 797.815 C 58.961 799.938 58.9322 800.77 55.8109 800.947 C 49.051 801.33 41.5281 801.067 34.7838 800.94 C 51.7892 769.83 73.7783 733.346 92.2336 702.966 C 99.7578 695.837 109.508 689.039 117.82 682.151 z" fill="rgb(241,240,241)" transform="translate(0,0)"></path>
<path d="M 159.215 606.013 C 167.631 593.444 173.716 579.717 183.042 566.467 C 194.97 569.156 231.331 577.936 241.474 578.331 L 238.99 581.241 C 231.559 580.412 170.932 601.962 159.215 606.013 z" fill="rgb(170,189,206)" transform="translate(0,0)"></path>
<path d="M 247.344 484.381 L 250.92 483.3 C 246.797 489.895 233.496 505.287 228.015 511.939 L 183.042 566.467 C 173.716 579.717 167.631 593.444 159.215 606.013 C 141.396 639.901 125.127 674.581 107.538 708.346 C 97.1469 727.859 86.8951 747.446 76.7835 767.105 C 74.0514 772.401 64.6917 790.129 63.4829 794.911 L 60.4846 797.815 C 61.888 792.05 70.8235 774.477 73.765 768.82 L 99.5043 719.154 C 103.872 710.907 115.273 690.374 117.82 682.151 C 120.297 678.71 120.557 678.529 122.411 674.358 C 130.797 656.163 143.402 631.952 152.91 614.134 C 159.65 601.89 172.607 577.018 180.12 566.847 C 200.275 539.561 227.337 511.418 247.344 484.381 z" fill="rgb(133,154,193)" transform="translate(0,0)"></path>
<path d="M 1790.36 489.124 L 1791.33 485.063 C 1795.51 482.799 1823.19 489.106 1829.77 489.782 C 1836.31 490.453 1846.28 491.912 1852.98 492.908 C 1867.25 518.274 1883.4 542.097 1897.6 566.963 C 1912.23 589.553 1926.37 612.456 1940.02 635.656 L 1943.35 641.115 C 1957.19 663.514 1971.74 687.137 1984.88 709.922 L 2020.57 772.093 C 2025.16 780.046 2033.61 793.279 2037.29 800.908 L 2022.81 800.912 L 1991.8 801.026 C 1985.91 795.311 1981.88 791.128 1976.54 784.906 C 1971.58 779.76 1966.6 774.289 1961.7 769.05 C 1959.65 767.082 1957.99 765.383 1956.05 763.293 C 1929.36 735.702 1901.41 708.352 1879.53 676.726 C 1848.62 632.049 1810.78 589.316 1780.66 544.472 L 1790.36 489.124 z" fill="rgb(241,240,241)" transform="translate(0,0)"></path>
<path d="M 1940.02 635.656 L 1943.35 641.115 C 1957.19 663.514 1971.74 687.137 1984.88 709.922 L 2020.57 772.093 C 2025.16 780.046 2033.61 793.279 2037.29 800.908 L 2022.81 800.912 L 1991.8 801.026 C 1985.91 795.311 1981.88 791.128 1976.54 784.906 C 1971.58 779.76 1966.6 774.289 1961.7 769.05 C 1959.65 767.082 1957.99 765.383 1956.05 763.293 L 1959.58 761.429 C 1957.66 754.824 1951.64 740.459 1949.01 733.574 L 1923.72 668.303 C 1925.94 661.562 1936.33 642.647 1940.02 635.656 z" fill="rgb(241,240,241)" transform="translate(0,0)"></path>
<path d="M 1940.02 635.656 L 1943.35 641.115 C 1942.69 642.936 1939.57 687.702 1940.17 690.985 C 1943.23 707.588 1955.5 730.137 1961.81 746.354 C 1967 759.478 1971.71 771.943 1976.54 784.906 C 1971.58 779.76 1966.6 774.289 1961.7 769.05 C 1959.65 767.082 1957.99 765.383 1956.05 763.293 L 1959.58 761.429 C 1957.66 754.824 1951.64 740.459 1949.01 733.574 L 1923.72 668.303 C 1925.94 661.562 1936.33 642.647 1940.02 635.656 z" fill="rgb(161,152,165)" transform="translate(0,0)"></path>
<path d="M 1956.05 763.293 L 1959.58 761.429 C 1961.07 764.962 1961.49 765.337 1961.7 769.05 C 1959.65 767.082 1957.99 765.383 1956.05 763.293 z" fill="rgb(241,240,241)" transform="translate(0,0)"></path>
<path d="M 1984.88 709.922 L 2020.57 772.093 C 2025.16 780.046 2033.61 793.279 2037.29 800.908 L 2022.81 800.912 C 2017.82 777.398 1984.96 731.929 1984.88 709.922 z" fill="rgb(199,199,200)" transform="translate(0,0)"></path>
<path d="M 1790.36 489.124 L 1791.33 485.063 C 1795.51 482.799 1823.19 489.106 1829.77 489.782 C 1836.31 490.453 1846.28 491.912 1852.98 492.908 C 1867.25 518.274 1883.4 542.097 1897.6 566.963 C 1890.94 582.732 1902.22 604.919 1900.66 615.966 C 1889.24 602.73 1791.38 489.705 1790.36 489.124 z" fill="rgb(161,152,165)" transform="translate(0,0)"></path>
<path d="M 1897.6 566.963 C 1912.23 589.553 1926.37 612.456 1940.02 635.656 C 1936.33 642.647 1925.94 661.562 1923.72 668.303 C 1922.15 665.957 1921.06 663.468 1920.03 660.852 C 1914.04 645.678 1907.43 630.806 1900.66 615.966 C 1902.22 604.919 1890.94 582.732 1897.6 566.963 z" fill="rgb(199,199,200)" transform="translate(0,0)"></path>
<path d="M 1415.44 410.278 C 1452.18 404.346 1485.57 433.697 1493.57 468.39 C 1498.65 490.308 1494.84 513.345 1482.99 532.468 C 1470.99 551.441 1455.64 560.577 1434.17 565.336 C 1415.67 567.265 1398.87 564.04 1383.66 552.975 C 1366.96 540.948 1355.78 522.726 1352.63 502.391 C 1345.91 459.306 1370.9 417.102 1415.44 410.278 z" fill="rgb(241,240,241)" transform="translate(0,0)"></path>
<path d="M 1418.24 436.373 C 1493.04 429.877 1515.15 526.03 1432.25 539.054 C 1346.59 544.876 1336.23 445.298 1418.24 436.373 z" fill="rgb(18,23,27)" transform="translate(0,0)"></path>
<path d="M 617.446 410.231 C 704.419 399.19 735.046 542.868 636.604 565.183 C 540.854 577.329 520.133 427.522 617.446 410.231 z" fill="rgb(241,240,241)" transform="translate(0,0)"></path>
<path d="M 619.503 436.349 C 691.002 427.804 720.793 523.806 635.251 538.98 C 548.827 544.926 537.753 445.869 619.503 436.349 z" fill="rgb(18,23,27)" transform="translate(0,0)"></path>
<path d="M 64.0545 368.57 C 71.3569 372.085 78.8999 376.296 86.0788 380.15 C 90.7345 382.453 98.9631 386.206 103.185 388.687 C 106.347 390.236 120.041 396.672 122.19 398.166 C 129.456 401.765 137.194 405.438 144.332 409.201 C 141.787 430.562 139.023 451.601 135.849 472.868 C 133.053 491.6 131.067 497.068 120.642 513.102 C 111.54 528.835 101.549 544.875 91.7337 560.212 C 67.3493 598.314 45.3154 641.63 19.9052 678.621 C 24.4135 648.349 28.5739 618.027 32.3854 587.66 C 33.061 582.504 36.7042 552.791 37.6395 550.025 C 39.1277 531.707 42.9542 509.115 45.6129 490.686 L 59.8388 391.073 C 61.4516 384.634 62.8502 375.293 64.0545 368.57 z" fill="url(#Gradient4)" transform="translate(0,0)"></path>
<path d="M 64.0545 368.57 C 71.3569 372.085 78.8999 376.296 86.0788 380.15 C 90.7345 382.453 98.9631 386.206 103.185 388.687 C 104.959 419.966 108.052 456.721 108.18 487.51 C 102.657 496.887 84.7876 524.237 78.2132 532.373 L 76.8368 525.942 C 67.8673 525.897 42.1269 552.059 37.6395 550.025 C 39.1277 531.707 42.9542 509.115 45.6129 490.686 L 59.8388 391.073 C 61.4516 384.634 62.8502 375.293 64.0545 368.57 z" fill="rgb(241,240,241)" transform="translate(0,0)"></path>
<path d="M 64.0545 368.57 C 71.3569 372.085 78.8999 376.296 86.0788 380.15 C 83.1682 395.46 81.2754 418.583 79.5641 434.442 C 75.3219 426.444 61.8574 393.98 59.8388 391.073 C 61.4516 384.634 62.8502 375.293 64.0545 368.57 z" fill="rgb(199,199,200)" transform="translate(0,0)"></path>
<path d="M 122.19 398.166 C 129.456 401.765 137.194 405.438 144.332 409.201 C 141.787 430.562 139.023 451.601 135.849 472.868 C 133.053 491.6 131.067 497.068 120.642 513.102 C 118.013 504.09 120.727 411.41 122.19 398.166 z" fill="rgb(241,240,241)" transform="translate(0,0)"></path>
<path d="M 44.3465 604.643 C 49.3604 593.061 54.1758 581.394 58.7906 569.648 C 62.6398 559.614 71.6697 532.765 76.8368 525.942 L 78.2132 532.373 C 79.2369 544.394 80.002 554.489 80.2058 566.565 C 71.4048 577.22 54.4527 594.004 44.3465 604.643 z" fill="rgb(161,152,165)" transform="translate(0,0)"></path>
<path d="M 1983.12 368.94 C 1984.1 373.747 1984.97 378.688 1985.87 383.52 C 1991.01 409.704 1993.94 437.468 1997.92 463.98 C 2008.6 535.035 2016.91 606.478 2026.81 677.659 C 2022.03 670.131 2002.73 640.269 2000.46 633.947 C 1997.76 630.406 1996.84 628.968 1994.74 625.037 L 1962.76 572.365 C 1952.84 556.035 1941.9 537.591 1932.55 520.966 C 1928.33 514.494 1918.86 500.887 1917.01 494.035 C 1909.8 467.352 1908.51 437.088 1903.27 409.812 L 1923.5 399.757 L 1942.04 390.182 L 1944.68 388.846 C 1957.64 382.499 1970.46 375.863 1983.12 368.94 z" fill="rgb(241,240,241)" transform="translate(0,0)"></path>
<path d="M 1942.04 390.182 C 1943.18 393.114 1944.75 402.507 1945.39 406.178 L 1945.8 406.68 C 1947.36 408.117 1950.48 412.651 1950.64 414.672 C 1950.26 415.459 1949.8 416.414 1949.25 417.536 C 1952.12 440.876 1957.46 477.678 1960.79 499.71 C 1969.1 507.901 1972.68 533.892 1976.52 547.336 C 1980.33 567.497 1988.25 589.858 1993.66 609.884 C 1995.1 615.201 1999.86 629.141 2000.46 633.947 C 1997.76 630.406 1996.84 628.968 1994.74 625.037 L 1962.76 572.365 C 1952.84 556.035 1941.9 537.591 1932.55 520.966 C 1928.33 514.494 1918.86 500.887 1917.01 494.035 C 1909.8 467.352 1908.51 437.088 1903.27 409.812 L 1923.5 399.757 L 1942.04 390.182 z" fill="rgb(199,199,200)" transform="translate(0,0)"></path>
<path d="M 1903.27 409.812 L 1923.5 399.757 C 1925.79 436.867 1932.2 485.128 1932.55 520.966 C 1928.33 514.494 1918.86 500.887 1917.01 494.035 C 1909.8 467.352 1908.51 437.088 1903.27 409.812 z" fill="rgb(105,123,182)" transform="translate(0,0)"></path>
<path d="M 1962.76 572.365 C 1965.09 565.066 1968.97 550.952 1973.7 545.683 C 1976.45 555.741 1995.41 620.846 1994.74 625.037 L 1962.76 572.365 z" fill="rgb(241,240,241)" transform="translate(0,0)"></path>
<path d="M 1945.8 406.68 C 1947.36 408.117 1950.48 412.651 1950.64 414.672 C 1950.26 415.459 1949.8 416.414 1949.25 417.536 C 1952.12 440.876 1957.46 477.678 1960.79 499.71 C 1969.1 507.901 1972.68 533.892 1976.52 547.336 C 1980.33 567.497 1988.25 589.858 1993.66 609.884 C 1995.1 615.201 1999.86 629.141 2000.46 633.947 C 1997.76 630.406 1996.84 628.968 1994.74 625.037 C 1995.41 620.846 1976.45 555.741 1973.7 545.683 C 1969.21 530.631 1967.68 509.967 1958.11 498.788 C 1957.42 475.462 1948.05 432.629 1945.8 406.68 z" fill="rgb(133,154,193)" transform="translate(0,0)"></path>
<path d="M 1950.64 414.672 C 1952.77 419.313 1957.55 430.938 1961.13 433.593 C 1967.12 437.64 1986.61 459.986 1993.42 466.771 C 1988.99 499.081 1986.57 523.416 1984.66 555.999 C 1982.55 553.361 1979.19 548.195 1976.52 547.336 C 1972.68 533.892 1969.1 507.901 1960.79 499.71 C 1957.46 477.678 1952.12 440.876 1949.25 417.536 C 1949.8 416.414 1950.26 415.459 1950.64 414.672 z" fill="rgb(199,199,200)" transform="translate(0,0)"></path>
<path d="M 1983.12 368.94 C 1984.1 373.747 1984.97 378.688 1985.87 383.52 C 1977.98 393.959 1969.79 419.585 1961.13 433.593 C 1957.55 430.938 1952.77 419.313 1950.64 414.672 C 1950.48 412.651 1947.36 408.117 1945.8 406.68 L 1945.39 406.178 C 1944.75 402.507 1943.18 393.114 1942.04 390.182 L 1944.68 388.846 C 1957.64 382.499 1970.46 375.863 1983.12 368.94 z" fill="rgb(170,189,206)" transform="translate(0,0)"></path>
<path d="M 1942.04 390.182 L 1944.68 388.846 C 1947.37 398.047 1947.61 398.004 1945.39 406.178 C 1944.75 402.507 1943.18 393.114 1942.04 390.182 z" fill="rgb(152,180,211)" transform="translate(0,0)"></path>
<path d="M 417.235 409.459 C 435.789 409.652 498.431 407.432 511.709 411.7 C 522.403 415.169 531.246 422.805 536.236 432.879 C 550.299 460.91 536.322 484.017 510.53 496.886 C 526.583 508.514 539.529 521.827 545.164 541.449 C 546.989 547.804 548.853 559.594 545.643 565.363 C 543.11 566.425 536.077 566.041 532.951 566.027 C 533.714 558.463 533.708 556.269 532.874 548.733 C 520.09 495.332 473.059 502.045 430.87 502.427 L 430.74 565.798 L 417.011 565.811 L 416.845 461.261 C 416.81 449.872 416.003 418.617 417.235 409.459 z" fill="rgb(241,240,241)" transform="translate(0,0)"></path>
<path d="M 430.711 435.182 L 481.42 434.912 C 493.968 434.851 510.045 432.972 520.906 439.788 C 532.734 447.21 530.479 459.749 523.405 469.783 C 521.255 471.749 516.229 474.932 513.482 475.165 C 487.725 477.357 456.49 476.108 430.551 476.242 L 430.711 435.182 z" fill="rgb(18,23,27)" transform="translate(0,0)"></path>
<path d="M 1509.93 409.414 C 1537.71 409.773 1565.85 408.738 1593.47 409.739 C 1633.31 411.183 1645.47 465.312 1618.92 490.776 C 1603.7 505.378 1587.8 502.384 1568.5 502.195 L 1523.09 502.251 L 1522.97 565.97 L 1509.89 565.951 C 1509.95 516.877 1508.17 457.711 1509.93 409.414 z" fill="rgb(241,240,241)" transform="translate(0,0)"></path>
<path d="M 1523.93 435.257 L 1573.01 434.924 C 1588.16 434.837 1609.63 431.957 1619.57 445.752 C 1624.99 453.277 1619.79 464.854 1614.63 471.131 C 1602.12 478.533 1584.62 476.408 1570.15 476.367 L 1523.09 476.457 C 1523.1 464.48 1522.7 446.753 1523.93 435.257 z" fill="rgb(18,23,27)" transform="translate(0,0)"></path>
<path d="M 1184.67 409.484 L 1193.42 409.587 L 1193.47 435.045 C 1165.83 435.094 1138.11 434.844 1110.48 435.073 C 1102.48 435.139 1093.68 435.532 1088.01 441.803 C 1084.96 445.176 1082.42 451.8 1082.9 456.459 C 1087.11 496.959 1160.15 459.05 1184.24 487.439 C 1193.37 496.374 1197.21 507.577 1198.18 520.269 C 1199.49 537.188 1184.8 563.17 1166.28 564.872 C 1139.69 567.316 1110.77 566.087 1083.75 566.066 C 1081.98 566.13 1080.38 565.885 1078.62 565.687 C 1075.05 561.949 1076.65 545.592 1076.75 539.623 L 1135.77 539.813 C 1151.37 539.85 1188.33 544.393 1186.57 521.169 C 1183.54 481.092 1105.37 519.308 1084.39 490.66 C 1074.36 476.964 1070.43 472.822 1070.08 456.087 C 1069.85 443.419 1074.65 431.176 1083.41 422.028 C 1088.6 416.704 1095.16 412.919 1102.37 411.092 C 1111.51 408.814 1170.92 409.625 1184.67 409.484 z" fill="rgb(241,240,241)" transform="translate(0,0)"></path>
<path d="M 1323.83 408.921 L 1337.2 408.92 L 1337.35 563.25 L 1336.55 565.245 C 1333.28 566.457 1327.32 565.902 1323.61 565.788 L 1323.36 502.488 C 1291.5 502.315 1259.64 502.385 1227.79 502.697 C 1227.84 523.784 1227.72 544.871 1227.45 565.956 L 1214.05 565.958 L 1214.08 408.968 L 1227.55 408.916 L 1227.43 476.239 L 1323.73 476.693 L 1323.83 408.921 z" fill="rgb(241,240,241)" transform="translate(0,0)"></path>
<path d="M 826.245 409.48 L 835.979 409.48 L 835.964 435.012 C 804.317 434.943 760.778 429.311 736.273 452.963 C 715.873 472.652 714.813 501.57 734.919 521.881 C 758.826 546.032 805.077 539.864 836.144 539.65 L 836.11 565.615 C 834.738 565.79 830.352 565.919 828.839 565.89 C 793.609 565.355 761.155 572.227 733.373 544.949 C 701.721 513.871 702.657 463.141 732.642 431.325 C 758.206 404.2 792.128 409.681 826.245 409.48 z" fill="rgb(241,240,241)" transform="translate(0,0)"></path>
<path d="M 135.448 253.711 C 137.657 264.88 139.365 282.048 141.121 293.994 C 143.25 308.037 145.946 323.367 147.461 337.314 C 150.1 353.65 151.316 369.972 154.671 386.219 L 149.109 396.442 L 132.297 386.432 C 114.642 377.24 80.5679 360.589 64.9503 350.475 C 62.4427 343.693 77.6826 326.853 82.0991 321.243 L 135.448 253.711 z" fill="rgb(199,199,200)" transform="translate(0,0)"></path>
<path d="M 82.0991 321.243 C 90.4245 326.028 97.8566 333.153 105.622 338.874 C 118.928 348.677 133.321 359.101 145.793 369.925 C 140.608 377.403 138.823 380.158 132.297 386.432 C 114.642 377.24 80.5679 360.589 64.9503 350.475 C 62.4427 343.693 77.6826 326.853 82.0991 321.243 z" fill="rgb(241,240,241)" transform="translate(0,0)"></path>
<path d="M 106.85 298.201 C 118.384 296.418 129.618 296.431 141.121 293.994 C 143.25 308.037 145.946 323.367 147.461 337.314 C 146.974 337.484 145.381 338.08 145.103 337.849 C 135.437 329.815 113.488 306.825 106.85 298.201 z" fill="rgb(241,240,241)" transform="translate(0,0)"></path>
<path d="M 962.43 409.13 L 975.601 409.054 C 976.81 444.953 962.852 468.195 933.074 487.338 C 949.399 496.989 962.64 511.087 971.248 527.985 C 977.286 542.38 978.173 550.524 978.398 565.917 L 965.077 566.019 C 965.083 565.322 965.084 564.626 965.082 563.929 C 964.993 538.89 953.27 520.665 930.993 509.515 C 912 500.009 891.659 502.243 871.07 502.488 L 871.095 565.973 L 857.805 565.981 L 858.047 409.201 L 871.023 409.263 L 871.13 476.263 C 899.676 476.46 923.036 478.266 946.139 457.041 C 961.039 443.351 962.196 427.78 962.43 409.13 z" fill="rgb(241,240,241)" transform="translate(0,0)"></path>
<path d="M 1913.25 256.365 C 1923.69 269.8 1934.31 283.088 1945.12 296.223 C 1951.93 305.027 1981.57 341.188 1982.91 348.485 C 1980.76 352.579 1907.11 393.26 1898.27 396.592 C 1889.38 393.75 1898.58 350.046 1900.25 341.171 L 1913.25 256.365 z" fill="rgb(170,189,206)" transform="translate(0,0)"></path>
<path d="M 1913.25 256.365 C 1923.69 269.8 1934.31 283.088 1945.12 296.223 C 1930.97 309.506 1913.15 326.753 1900.25 341.171 L 1913.25 256.365 z" fill="rgb(166,160,170)" transform="translate(0,0)"></path>
<path d="M 276.557 549.099 C 279.295 549.021 285.811 550.594 288.805 551.179 C 295.726 551.786 305.502 553.076 312.553 553.932 C 308.996 558.55 303.293 566.09 299.619 570.266 L 234.486 649.995 C 223.971 662.953 211 680.628 200.47 692.512 L 179.932 696.569 C 174.252 697.431 166.706 699.176 160.927 700.331 C 171.629 687.417 181.27 673.368 191.483 659.996 C 219.463 622.741 247.822 585.774 276.557 549.099 z" fill="rgb(241,240,241)" transform="translate(0,0)"></path>
<path d="M 276.557 549.099 C 275.951 558.602 275.416 561.81 272.491 571.146 C 271.366 573.479 268.987 576.69 267.502 579.505 C 255.339 590.333 240.092 605.221 231.294 618.592 C 214.202 644.567 197.459 670.872 179.932 696.569 C 174.252 697.431 166.706 699.176 160.927 700.331 C 171.629 687.417 181.27 673.368 191.483 659.996 C 219.463 622.741 247.822 585.774 276.557 549.099 z" fill="rgb(105,123,182)" transform="translate(0,0)"></path>
<path d="M 276.557 549.099 C 279.295 549.021 285.811 550.594 288.805 551.179 C 295.726 551.786 305.502 553.076 312.553 553.932 C 308.996 558.55 303.293 566.09 299.619 570.266 C 298.147 569.568 297.616 569.46 295.812 570.256 C 286.331 574.441 277.231 576.534 267.502 579.505 C 268.987 576.69 271.366 573.479 272.491 571.146 C 275.416 561.81 275.951 558.602 276.557 549.099 z" fill="rgb(161,152,165)" transform="translate(0,0)"></path>
<path d="M 276.557 549.099 C 279.295 549.021 285.811 550.594 288.805 551.179 C 288.151 553.943 275.246 568.356 272.491 571.146 C 275.416 561.81 275.951 558.602 276.557 549.099 z" fill="rgb(170,189,206)" transform="translate(0,0)"></path>
<path d="M 1745.08 552.97 L 1772.47 549.194 L 1778.29 558.156 C 1803.92 591.338 1829.52 624.93 1854.8 658.373 C 1863.85 670.348 1877.84 687.772 1885.53 699.847 C 1872.74 696.973 1859.84 694.566 1846.88 692.632 C 1841.25 685.378 1827.92 669.588 1823.61 662.793 C 1815.37 653.887 1799.21 632.622 1791.18 622.468 C 1776.81 604.284 1758.09 582.891 1744.89 564.454 C 1738.61 556.589 1732.81 553.997 1745.08 552.97 z" fill="rgb(170,189,206)" transform="translate(0,0)"></path>
<path d="M 1745.08 552.97 L 1772.47 549.194 L 1778.29 558.156 C 1780.35 566.148 1788.9 577.251 1791.19 584.447 C 1794.57 595.075 1827.1 656.628 1823.61 662.793 C 1815.37 653.887 1799.21 632.622 1791.18 622.468 C 1776.81 604.284 1758.09 582.891 1744.89 564.454 C 1738.61 556.589 1732.81 553.997 1745.08 552.97 z" fill="rgb(241,240,241)" transform="translate(0,0)"></path>
<path d="M 1744.89 564.454 C 1738.61 556.589 1732.81 553.997 1745.08 552.97 C 1745.07 556.799 1745.01 560.627 1744.89 564.454 z" fill="rgb(199,199,200)" transform="translate(0,0)"></path>
<path d="M 186.164 708.101 C 189.391 708.805 188.677 708.173 190.709 710.198 C 191.311 715.52 186.193 721.72 183.091 725.997 L 181.195 726.639 C 173.543 736.916 155.42 773.497 150.262 778.275 L 149.161 778.624 C 147.705 784.102 120.403 796.974 114.501 800.7 C 113.703 801.204 107.957 801.06 106.469 801.066 C 93.8593 800.652 79.1579 801.042 66.3884 801.07 C 84.8974 781.156 106.323 761.887 124.659 741.566 L 123.926 740.097 C 127.967 734.453 138.022 723.886 144.937 722.769 C 144.516 718.429 146.948 715.784 150.823 714.399 C 153.176 712.697 153.88 710.564 156.943 710.393 C 163.637 710.019 170.604 709.195 177.235 708.63 C 179.923 707.704 183.234 708.101 186.164 708.101 z" fill="rgb(241,240,241)" transform="translate(0,0)"></path>
<path d="M 190.335 709.771 C 187.388 715.914 184.63 720.745 181.195 726.639 C 173.543 736.916 155.42 773.497 150.262 778.275 C 146.962 770.665 143.836 764.669 139.92 757.335 C 149.363 752.481 157.086 746.837 165.277 740.155 C 166.441 735.739 171.012 719.928 167.302 717.338 C 175.496 714.209 181.888 712.207 190.335 709.771 z" fill="rgb(170,189,206)" transform="translate(0,0)"></path>
<path d="M 167.302 717.338 C 171.012 719.928 166.441 735.739 165.277 740.155 C 157.086 746.837 149.363 752.481 139.92 757.335 C 139.311 755.99 137.447 752.324 137.75 751.004 C 139.522 743.278 143.276 731.606 145.675 724.11 C 153.055 722.441 160.288 720.176 167.302 717.338 z" fill="rgb(241,240,241)" transform="translate(0,0)"></path>
<path d="M 186.164 708.101 C 189.391 708.805 188.677 708.173 190.709 710.198 C 191.311 715.52 186.193 721.72 183.091 725.997 L 181.195 726.639 C 184.63 720.745 187.388 715.914 190.335 709.771 C 181.888 712.207 175.496 714.209 167.302 717.338 C 160.288 720.176 153.055 722.441 145.675 724.11 C 143.276 731.606 139.522 743.278 137.75 751.004 C 137.447 752.324 139.311 755.99 139.92 757.335 C 143.836 764.669 146.962 770.665 150.262 778.275 L 149.161 778.624 C 146.552 774.91 142.814 768.754 141.715 764.358 L 135.079 752.697 C 138.228 742.996 141.16 733.225 143.87 723.392 C 137.829 728.016 130.689 736.02 124.659 741.566 L 123.926 740.097 C 127.967 734.453 138.022 723.886 144.937 722.769 C 144.516 718.429 146.948 715.784 150.823 714.399 C 153.176 712.697 153.88 710.564 156.943 710.393 C 163.637 710.019 170.604 709.195 177.235 708.63 C 179.923 707.704 183.234 708.101 186.164 708.101 z" fill="rgb(33,33,37)" transform="translate(0,0)"></path>
<path d="M 150.823 714.399 C 153.176 712.697 153.88 710.564 156.943 710.393 C 163.637 710.019 170.604 709.195 177.235 708.63 C 178.332 709.381 178.24 709.313 178.764 710.615 C 170.168 713.339 161.69 716.414 153.161 719.337 C 144.313 722.37 147.385 719.608 150.823 714.399 z" fill="rgb(241,240,241)" transform="translate(0,0)"></path>
<path d="M 177.235 708.63 C 179.923 707.704 183.234 708.101 186.164 708.101 C 183.297 709.226 181.739 709.895 178.764 710.615 C 178.24 709.313 178.332 709.381 177.235 708.63 z" fill="rgb(166,160,170)" transform="translate(0,0)"></path>
<path d="M 141.715 764.358 C 142.814 768.754 146.552 774.91 149.161 778.624 C 147.705 784.102 120.403 796.974 114.501 800.7 C 113.703 801.204 107.957 801.06 106.469 801.066 C 118.316 787.238 130.942 779.613 141.715 764.358 z" fill="rgb(199,199,200)" transform="translate(0,0)"></path>
<path d="M 1718.32 656.934 C 1732.49 664.119 1783.89 690.144 1794.16 698.448 C 1800.56 703.733 1805.97 710.113 1810.15 717.292 C 1802 718.675 1793.84 720.013 1785.68 721.308 C 1785.75 725.926 1786.23 738.778 1785.52 742.669 C 1777.66 739.083 1769.9 735.295 1762.24 731.307 C 1747.91 724.959 1728.51 713.834 1714.07 706.251 C 1711.71 701.157 1708.68 695.484 1706.12 690.408 C 1708.3 683.116 1711.5 675.439 1714.31 668.3 L 1718.32 656.934 z" fill="rgb(241,240,241)" transform="translate(0,0)"></path>
<path d="M 1718.32 656.934 C 1732.49 664.119 1783.89 690.144 1794.16 698.448 C 1800.56 703.733 1805.97 710.113 1810.15 717.292 C 1802 718.675 1793.84 720.013 1785.68 721.308 C 1785.75 725.926 1786.23 738.778 1785.52 742.669 C 1784.7 737.381 1784.79 728.939 1784.7 723.402 C 1784.64 719.726 1787.04 721.224 1786.53 717.905 C 1779.11 711.212 1724.43 675.88 1718.17 674.915 C 1718.14 671.98 1716.28 670.464 1714.31 668.3 L 1718.32 656.934 z" fill="url(#Gradient3)" transform="translate(0,0)"></path>
<path d="M 1706.12 690.408 C 1708.3 683.116 1711.5 675.439 1714.31 668.3 C 1716.28 670.464 1718.14 671.98 1718.17 674.915 C 1727.15 694.084 1750.73 715.503 1762.24 731.307 C 1747.91 724.959 1728.51 713.834 1714.07 706.251 C 1711.71 701.157 1708.68 695.484 1706.12 690.408 z" fill="rgb(170,189,206)" transform="translate(0,0)"></path>
<path d="M 1857.26 709.231 C 1860.87 711.103 1875.84 716.293 1879.91 717.141 C 1883.92 718.465 1887.9 719.859 1891.89 721.246 C 1894.67 722.054 1897.43 722.899 1900.19 723.781 C 1903.1 724.9 1902.52 726.289 1903.77 728.722 C 1904.32 728.331 1904.86 727.903 1905.4 727.493 C 1915.01 736.17 1949.14 770.786 1957.05 780.713 C 1964.8 787.554 1970 794.464 1976.92 801.134 C 1977.14 800.432 1977.2 800.159 1977.53 799.492 C 1977.99 799.767 1978.35 800.486 1978.24 801.012 C 1977.54 804.142 1981.19 802.555 1983.9 803.321 L 1983.91 803.35 C 1980.48 804.164 1934.88 804.243 1933.75 802.639 C 1933.83 802.574 1938.79 801.463 1939.74 801.15 L 1937.63 801.229 C 1936.37 801.162 1932.5 801.124 1931.63 800.583 C 1921.72 794.411 1907.24 787.028 1898.13 780.599 C 1897.83 780.363 1897.52 780.128 1897.22 779.892 C 1895.16 775.97 1892.33 771.357 1890.08 767.449 C 1881.16 750.967 1863.03 724.754 1857.26 709.231 z" fill="rgb(241,240,241)" transform="translate(0,0)"></path>
<path d="M 1857.26 709.231 C 1860.87 711.103 1875.84 716.293 1879.91 717.141 C 1883.92 718.465 1887.9 719.859 1891.89 721.246 C 1894.67 722.054 1897.43 722.899 1900.19 723.781 C 1903.1 724.9 1902.52 726.289 1903.77 728.722 C 1904.44 731.185 1905.08 733.654 1905.7 736.129 C 1907.19 741.868 1910.17 746.828 1912.02 752.238 L 1913.24 752.309 C 1911.21 756.455 1909.17 760.829 1907.12 764.924 C 1904.74 768.658 1900.56 776.36 1898.13 780.599 C 1897.83 780.363 1897.52 780.128 1897.22 779.892 C 1895.16 775.97 1892.33 771.357 1890.08 767.449 C 1881.16 750.967 1863.03 724.754 1857.26 709.231 z" fill="rgb(241,240,241)" transform="translate(0,0)"></path>
<path d="M 1857.26 709.231 C 1860.87 711.103 1875.84 716.293 1879.91 717.141 C 1881.04 733.145 1889.84 752.47 1890.08 767.449 C 1881.16 750.967 1863.03 724.754 1857.26 709.231 z" fill="rgb(170,189,206)" transform="translate(0,0)"></path>
<path d="M 1891.89 721.246 C 1894.67 722.054 1897.43 722.899 1900.19 723.781 C 1903.1 724.9 1902.52 726.289 1903.77 728.722 C 1904.44 731.185 1905.08 733.654 1905.7 736.129 C 1899.41 730.279 1896.47 728.356 1891.89 721.246 z" fill="rgb(170,189,206)" transform="translate(0,0)"></path>
<path d="M 1897.22 779.892 C 1899.72 774.949 1909.22 755.902 1912.02 752.238 L 1913.24 752.309 C 1911.21 756.455 1909.17 760.829 1907.12 764.924 C 1904.74 768.658 1900.56 776.36 1898.13 780.599 C 1897.83 780.363 1897.52 780.128 1897.22 779.892 z" fill="rgb(90,89,89)" transform="translate(0,0)"></path>
<path d="M 1898.13 780.599 C 1900.56 776.36 1904.74 768.658 1907.12 764.924 C 1916.36 778.472 1927.63 784.989 1937.63 801.229 C 1936.37 801.162 1932.5 801.124 1931.63 800.583 C 1921.72 794.411 1907.24 787.028 1898.13 780.599 z" fill="rgb(199,199,200)" transform="translate(0,0)"></path>
<path d="M 1903.77 728.722 C 1904.32 728.331 1904.86 727.903 1905.4 727.493 C 1915.01 736.17 1949.14 770.786 1957.05 780.713 C 1949.95 778.017 1922.67 752 1914.27 750.578 L 1913.24 752.309 L 1912.02 752.238 C 1910.17 746.828 1907.19 741.868 1905.7 736.129 C 1905.08 733.654 1904.44 731.185 1903.77 728.722 z" fill="rgb(152,180,211)" transform="translate(0,0)"></path>
<path d="M 1903.77 728.722 C 1904.32 728.331 1904.86 727.903 1905.4 727.493 C 1907.02 732.596 1911.5 746.758 1914.27 750.578 L 1913.24 752.309 L 1912.02 752.238 C 1910.17 746.828 1907.19 741.868 1905.7 736.129 C 1905.08 733.654 1904.44 731.185 1903.77 728.722 z" fill="rgb(18,23,27)" transform="translate(0,0)"></path>
<path d="M 1976.92 801.134 C 1977.14 800.432 1977.2 800.159 1977.53 799.492 C 1977.99 799.767 1978.35 800.486 1978.24 801.012 C 1977.54 804.142 1981.19 802.555 1983.9 803.321 L 1983.91 803.35 C 1980.48 804.164 1934.88 804.243 1933.75 802.639 C 1933.83 802.574 1938.79 801.463 1939.74 801.15 C 1950.54 800.565 1965.9 800.96 1976.92 801.134 z" fill="rgb(33,33,37)" transform="translate(0,0)"></path>
<path d="M 238.057 717.354 C 240.172 714.048 247.578 702.205 250.175 700.681 C 270.278 688.882 307.98 666.059 328.272 658.269 C 330.757 660.022 331.223 662.544 332.304 665.537 C 334.979 673.25 338.514 682.722 340.755 690.419 C 337.926 695.741 335.526 700.12 333.277 705.743 C 316.229 714.933 298.082 725.132 280.803 733.652 C 276.047 736.392 268.223 739.786 263.012 742.209 L 263.181 720.53 C 254.817 719.389 246.442 718.331 238.057 717.354 z" fill="rgb(241,240,241)" transform="translate(0,0)"></path>
<path d="M 332.304 665.537 C 334.979 673.25 338.514 682.722 340.755 690.419 C 337.926 695.741 335.526 700.12 333.277 705.743 C 316.229 714.933 298.082 725.132 280.803 733.652 C 288.055 725.27 295.674 714.189 302.544 705.196 C 312.462 692.213 323.227 679.025 332.304 665.537 z" fill="rgb(199,199,200)" transform="translate(0,0)"></path>
<path d="M 1763.13 420.417 C 1782.27 426.41 1801.34 432.612 1820.34 439.021 L 1846.54 447.914 C 1854.3 450.853 1867.61 454.483 1876 457.242 C 1869.06 464.866 1858.06 480.031 1852.61 485.335 C 1844.49 484.696 1794.3 477.162 1790.08 473.792 C 1788.81 471.653 1779.61 460.967 1777.56 458.606 C 1768.36 448.021 1760.43 438.395 1752.1 427.107 L 1763.13 420.417 z" fill="rgb(241,240,241)" transform="translate(0,0)"></path>
<path d="M 1763.13 420.417 C 1782.27 426.41 1801.34 432.612 1820.34 439.021 C 1809.97 442.275 1799.68 442.752 1788.85 443.571 C 1789.66 454.381 1789.97 463.006 1790.08 473.792 C 1788.81 471.653 1779.61 460.967 1777.56 458.606 C 1768.36 448.021 1760.43 438.395 1752.1 427.107 L 1763.13 420.417 z" fill="rgb(161,152,165)" transform="translate(0,0)"></path>
<path d="M 1846.54 447.914 C 1854.3 450.853 1867.61 454.483 1876 457.242 C 1869.06 464.866 1858.06 480.031 1852.61 485.335 C 1850.84 472.694 1848.03 460.346 1846.54 447.914 z" fill="rgb(161,152,165)" transform="translate(0,0)"></path>
<path d="M 286.392 420.107 C 289.038 421.084 293.88 422.448 295.432 424.473 C 293.328 428.101 292.662 428.687 289.805 431.858 C 278.063 446.357 266.274 461.193 254.335 475.5 C 243.882 477.387 202.338 485.439 194.078 484.804 C 193.233 482.755 181.429 469.604 178.952 466.664 L 172.528 457.486 C 182.515 454.179 194.653 450.497 204.222 446.523 C 231.875 438.388 258.286 427.917 286.392 420.107 z" fill="rgb(161,152,165)" transform="translate(0,0)"></path>
<path d="M 194.078 484.804 C 199.226 477.89 276.528 433.536 288.747 427.017 L 289.805 431.858 C 278.063 446.357 266.274 461.193 254.335 475.5 C 243.882 477.387 202.338 485.439 194.078 484.804 z" fill="url(#Gradient2)" transform="translate(0,0)"></path>
<path d="M 288.747 427.017 C 291.335 425.826 292.707 425.303 295.432 424.473 C 293.328 428.101 292.662 428.687 289.805 431.858 L 288.747 427.017 z" fill="rgb(241,240,241)" transform="translate(0,0)"></path>
<path d="M 290.656 448.539 C 296.014 441.926 302.132 434.708 306.861 427.726 C 307.724 448.838 310.748 483.856 309.965 503.685 C 311.016 519.025 311.517 534.243 312.725 549.534 C 305.767 548.478 298.175 547.486 291.351 546.348 C 286.736 545.756 281.179 544.64 276.513 543.838 C 272.168 522.757 268.918 501.534 264.382 480.301 C 272.606 471.142 282.307 458.404 290.656 448.539 z" fill="rgb(241,240,241)" transform="translate(0,0)"></path>
<path d="M 264.382 480.301 C 272.606 471.142 282.307 458.404 290.656 448.539 C 290.934 459.203 292.793 529.472 295.401 534.195 C 293.52 538.051 292.312 542.171 291.351 546.348 C 286.736 545.756 281.179 544.64 276.513 543.838 C 272.168 522.757 268.918 501.534 264.382 480.301 z" fill="rgb(170,189,206)" transform="translate(0,0)"></path>
<path d="M 295.401 534.195 C 299.142 525.412 305.109 511.7 309.965 503.685 C 311.016 519.025 311.517 534.243 312.725 549.534 C 305.767 548.478 298.175 547.486 291.351 546.348 C 292.312 542.171 293.52 538.051 295.401 534.195 z" fill="rgb(161,152,165)" transform="translate(0,0)"></path>
<path d="M 1742.41 430.783 C 1749.93 439.988 1776.42 473.634 1783.68 480.259 C 1779.19 500.466 1775.36 524.001 1771.87 544.582 C 1763.82 545.443 1755.78 546.43 1747.77 547.542 C 1744 548.23 1740.22 548.894 1736.45 549.536 C 1737.41 524.661 1738.91 499.81 1740.94 475 L 1742.41 430.783 z" fill="url(#Gradient1)" transform="translate(0,0)"></path>
<path d="M 1740.94 475 C 1745.37 484.24 1743.04 517.815 1744.12 529.182 C 1744.62 534.465 1742.33 545.115 1747.77 547.542 C 1744 548.23 1740.22 548.894 1736.45 549.536 C 1737.41 524.661 1738.91 499.81 1740.94 475 z" fill="rgb(199,199,200)" transform="translate(0,0)"></path>
<path d="M 1843.27 349.544 C 1862.41 322.251 1886.1 282.896 1903.71 254.206 C 1901.58 269.911 1899.71 285.651 1898.1 301.418 C 1896.2 329.949 1891.98 361.631 1889.26 390.411 L 1859.19 364.398 L 1843.27 349.544 z" fill="rgb(199,199,200)" transform="translate(0,0)"></path>
<path d="M 1875.2 322.132 C 1883.48 316.06 1889.84 307.167 1898.1 301.418 C 1896.2 329.949 1891.98 361.631 1889.26 390.411 L 1859.19 364.398 C 1863.97 361.379 1883.7 362.232 1889.86 362.441 C 1883.39 350.649 1879.17 335.14 1875.2 322.132 z" fill="rgb(241,240,241)" transform="translate(0,0)"></path>
<path d="M 262.979 751.269 C 288.073 740.458 315.852 724.855 340.145 714.969 C 351.126 721.368 361.568 727.502 372.883 733.309 C 356.412 741.92 328.932 752.823 311.106 760.785 C 288.991 768.889 260.079 782.232 237.58 791.596 C 246.704 776.734 263.034 767.679 262.979 751.269 z" fill="rgb(199,199,200)" transform="translate(0,0)"></path>
<path d="M 262.979 751.269 C 276.749 754.345 298.779 757.298 311.106 760.785 C 288.991 768.889 260.079 782.232 237.58 791.596 C 246.704 776.734 263.034 767.679 262.979 751.269 z" fill="rgb(105,123,182)" transform="translate(0,0)"></path>
<path d="M 1710.05 714.361 C 1724.89 724.617 1765.19 742.815 1782.7 750.55 C 1785.51 753.269 1784.79 756.199 1784.96 760.854 C 1792.19 769.271 1804.07 782.974 1810.09 792.092 C 1783.92 780.985 1757.82 769.707 1731.79 758.261 C 1713.61 751.025 1692.96 741.422 1674.54 733.611 C 1686.36 727.54 1698.41 720.79 1710.05 714.361 z" fill="rgb(170,189,206)" transform="translate(0,0)"></path>
<path d="M 1782.7 750.55 C 1785.51 753.269 1784.79 756.199 1784.96 760.854 C 1792.19 769.271 1804.07 782.974 1810.09 792.092 C 1783.92 780.985 1757.82 769.707 1731.79 758.261 C 1743.89 757.604 1772.88 754.72 1782.7 750.55 z" fill="rgb(105,123,182)" transform="translate(0,0)"></path>
<path d="M 144.411 252.298 C 150.746 261.343 204.186 345.979 204.255 350.038 L 200.946 353.14 C 189.793 358.798 170.984 373.278 159.187 380.505 C 158.52 375.607 157.34 368.391 157.059 363.673 C 151.583 329.116 150.212 288.266 144.411 252.298 z" fill="rgb(161,152,165)" transform="translate(0,0)"></path>
<path d="M 144.411 252.298 C 150.746 261.343 204.186 345.979 204.255 350.038 L 200.946 353.14 C 186.964 331.673 173.606 309.372 158.951 288.477 C 162.506 312.754 166.965 339.52 157.059 363.673 C 151.583 329.116 150.212 288.266 144.411 252.298 z" fill="rgb(241,240,241)" transform="translate(0,0)"></path>
<path d="M 150.647 491.928 L 149.93 491.096 C 150.022 486.186 172.542 452.066 180.552 452.821 C 184.859 453.228 199.271 444.233 204.222 446.523 C 194.653 450.497 182.515 454.179 172.528 457.486 L 178.952 466.664 L 174.817 467.448 C 121.128 557.959 66.8936 648.144 12.1156 737.999 C 14.3331 729.527 19.0483 710.491 22.8893 703.349 C 33.0924 684.378 46.0057 664.304 57.3432 645.784 L 125.492 533.843 C 131.209 524.395 146.649 500.774 150.647 491.928 z" fill="rgb(199,199,200)" transform="translate(0,0)"></path>
<path d="M 150.647 491.928 L 149.93 491.096 C 150.022 486.186 172.542 452.066 180.552 452.821 C 184.859 453.228 199.271 444.233 204.222 446.523 C 194.653 450.497 182.515 454.179 172.528 457.486 L 178.952 466.664 L 174.817 467.448 C 173.11 463.861 173.944 464.118 171.041 462.865 C 163.892 466.679 155.056 487.492 150.647 491.928 z" fill="rgb(33,33,37)" transform="translate(0,0)"></path>
<path d="M 1878.34 460.763 C 1881.76 464.967 1895.41 489.477 1899.23 496.002 L 1940.96 565.898 L 1998.44 660.544 C 2007.43 675.295 2017.42 690.624 2025.79 705.609 C 2027.51 708.696 2034.97 732.815 2035.36 736.414 L 2033.98 736.154 C 2006.27 690.534 1977.18 643.527 1950.17 597.568 C 1933.55 569.104 1916.68 540.784 1899.58 512.611 C 1890.95 498.219 1881.83 481.847 1872.71 468.003 L 1878.34 460.763 z" fill="rgb(133,154,193)" transform="translate(0,0)"></path>
<path d="M 1798.42 760.015 C 1812.49 763.702 1828.98 765.471 1843.81 769.208 C 1854.91 773.728 1883.51 793.298 1897.55 800.933 L 1854.83 800.909 L 1843.94 800.828 C 1838.97 800.88 1833.99 800.881 1829.02 800.832 C 1823.88 794.732 1810.88 778.422 1807.24 772.177 C 1805.08 770.22 1800.31 762.797 1798.42 760.015 z" fill="rgb(161,152,165)" transform="translate(0,0)"></path>
<path d="M 1843.81 769.208 C 1854.91 773.728 1883.51 793.298 1897.55 800.933 L 1854.83 800.909 C 1851.61 794.214 1844.55 776.096 1843.81 769.208 z" fill="rgb(170,189,206)" transform="translate(0,0)"></path>
<path d="M 1807.24 772.177 C 1810.59 772.527 1843.09 796.852 1843.94 800.828 C 1838.97 800.88 1833.99 800.881 1829.02 800.832 C 1823.88 794.732 1810.88 778.422 1807.24 772.177 z" fill="rgb(241,240,241)" transform="translate(0,0)"></path>
<path d="M 198.935 367.985 L 199.602 368.699 C 200.094 376.264 187.5 425.527 185.172 435.686 C 178.761 438.11 169.663 440.689 162.951 442.812 C 160.095 448.318 157.636 452.761 154.415 458.063 L 153.868 457.604 C 153.275 451.492 162.003 403.873 163.528 393.91 C 174.579 385.171 187.433 376.565 198.935 367.985 z" fill="rgb(170,189,206)" transform="translate(0,0)"></path>
<path d="M 208.062 768.33 C 221.697 765.667 235.364 763.173 249.061 760.848 C 247.222 763.088 242.413 769.299 240.647 771.068 C 234.571 779.36 224.214 792.439 217.494 800.414 C 210.622 801.53 179.167 800.822 170.45 800.776 L 150.068 801.016 C 162.224 794.152 197.406 770.618 208.062 768.33 z" fill="rgb(161,152,165)" transform="translate(0,0)"></path>
<path d="M 150.068 801.016 C 162.224 794.152 197.406 770.618 208.062 768.33 C 202.86 777.951 190.541 791.271 183.001 799.795 C 179.446 799.918 173.712 799.898 170.45 800.776 L 150.068 801.016 z" fill="rgb(199,199,200)" transform="translate(0,0)"></path>
<path d="M 195.76 799.853 C 204.743 793.851 233.026 772.046 240.647 771.068 C 234.571 779.36 224.214 792.439 217.494 800.414 C 212.043 799.48 201.934 799.937 195.76 799.853 z" fill="rgb(241,240,241)" transform="translate(0,0)"></path>
<path d="M 1848.21 368.076 C 1857.63 375.417 1867.92 383.935 1877.08 391.581 L 1885.96 399.377 C 1888.85 417.767 1892.03 441.827 1896 459.699 C 1892.04 454.65 1888.91 448.441 1885.8 442.779 C 1878.6 440.485 1868.59 436.964 1861.47 435.191 C 1860.14 427.728 1858.71 418.124 1857.06 410.897 C 1854.26 396.592 1851.12 382.379 1848.21 368.076 z" fill="rgb(199,199,200)" transform="translate(0,0)"></path>
<path d="M 1848.21 368.076 C 1857.63 375.417 1867.92 383.935 1877.08 391.581 C 1872.44 396.498 1862.16 406.564 1857.06 410.897 C 1854.26 396.592 1851.12 382.379 1848.21 368.076 z" fill="rgb(241,240,241)" transform="translate(0,0)"></path>
<path d="M 1644.92 672.245 C 1652.89 675.986 1663.4 681.128 1671.32 684.383 C 1679.88 688.4 1689.92 693.22 1698.51 696.916 C 1700.5 702.079 1702.44 707.454 1704.46 712.569 C 1691.93 719.145 1680.91 725.967 1668.05 732.317 C 1665.02 724.052 1659.61 709.625 1656.2 701.902 C 1652.93 692.477 1648.58 681.617 1644.92 672.245 z" fill="rgb(199,199,200)" transform="translate(0,0)"></path>
<path d="M 1644.92 672.245 C 1652.89 675.986 1663.4 681.128 1671.32 684.383 C 1667.36 689.604 1660.9 697.399 1656.2 701.902 C 1652.93 692.477 1648.58 681.617 1644.92 672.245 z" fill="rgb(241,240,241)" transform="translate(0,0)"></path>
<path d="M 378.403 684.256 C 386.495 680.636 395.962 675.464 403.819 671.323 C 398.226 685.642 392.373 702.938 386.302 716.809 C 384.999 721.015 380.816 728.012 378.735 732.137 C 366.776 726.264 355.483 718.819 343.308 712.678 C 345.883 707.935 348.304 703.774 350.76 698.927 C 357.037 695.103 371.598 687.149 378.403 684.256 z" fill="rgb(170,189,206)" transform="translate(0,0)"></path>
<path d="M 378.403 684.256 C 386.495 680.636 395.962 675.464 403.819 671.323 C 398.226 685.642 392.373 702.938 386.302 716.809 C 385.546 715.41 378.891 686.964 378.403 684.256 z" fill="rgb(241,240,241)" transform="translate(0,0)"></path>
<path d="M 1698.43 765.236 C 1718.37 773.851 1742.1 786.015 1761.84 793.427 C 1764.17 794.517 1768.75 796.829 1770.97 797.649 L 1769.9 801.387 C 1760.64 800.826 1730.97 801.845 1725.16 800.244 C 1716.53 797.867 1691.79 784.24 1680.71 779.283 C 1686.55 774.515 1692.46 769.833 1698.43 765.236 z" fill="rgb(166,160,170)" transform="translate(0,0)"></path>
<path d="M 276.999 798.537 L 349.752 765.6 C 355.359 769.939 361.297 774.717 366.988 778.868 C 354.846 784.978 337.8 795.238 325.868 799.649 C 315.718 803.401 289.812 799.419 277.645 801.548 L 276.999 798.537 z" fill="rgb(166,160,170)" transform="translate(0,0)"></path>
<path d="M 1705.8 650.694 C 1714.97 655.075 1713.33 653.242 1710.02 662.791 C 1708.87 666.091 1707.26 669.685 1706.21 672.978 C 1704.27 677.245 1702.49 683.034 1700.75 687.545 C 1695.42 685.039 1692.38 683.421 1687.25 680.561 C 1676.44 674.348 1664.5 667.122 1653.22 662.029 C 1652.32 661.614 1651.41 661.212 1650.49 660.824 C 1657.83 659.479 1666.56 658.065 1673.72 656.269 C 1683.64 655.284 1695.99 652.641 1705.8 650.694 z" fill="rgb(241,240,241)" transform="translate(0,0)"></path>
<path d="M 1705.8 650.694 C 1714.97 655.075 1713.33 653.242 1710.02 662.791 C 1708.87 666.091 1707.26 669.685 1706.21 672.978 C 1698.45 669.357 1681.09 658.16 1673.72 656.269 C 1683.64 655.284 1695.99 652.641 1705.8 650.694 z" fill="rgb(170,189,206)" transform="translate(0,0)"></path>
<path d="M 1650.49 660.824 C 1657.83 659.479 1666.56 658.065 1673.72 656.269 C 1676.1 662.417 1682.92 670.66 1687.25 680.561 C 1676.44 674.348 1664.5 667.122 1653.22 662.029 C 1652.32 661.614 1651.41 661.212 1650.49 660.824 z" fill="rgb(199,199,200)" transform="translate(0,0)"></path>
<path d="M 2041.94 405.375 C 2042.2 406.176 2042.78 407.27 2043.16 408.041 C 2043.18 412.29 2020.93 465.93 2017.34 475.984 C 2015.19 465.224 2010.12 428.818 2008 421.465 C 2007.75 420.741 2007.58 420.122 2007.38 419.442 C 2007.56 419.203 2009.03 419.198 2009.93 418.806 C 2019.86 414.504 2032.01 409.218 2041.94 405.375 z" fill="rgb(105,123,182)" transform="translate(0,0)"></path>
<path d="M 2041.94 405.375 C 2042.2 406.176 2042.78 407.27 2043.16 408.041 C 2032.97 410.99 2017.9 420.035 2008 421.465 C 2007.75 420.741 2007.58 420.122 2007.38 419.442 C 2007.56 419.203 2009.03 419.198 2009.93 418.806 C 2019.86 414.504 2032.01 409.218 2041.94 405.375 z" fill="rgb(33,33,37)" transform="translate(0,0)"></path>
<path d="M 342.068 652.032 C 359.453 654.835 379.177 657.944 396.53 659.76 C 389.348 664.685 383.4 667.541 375.694 671.469 C 365.083 676.723 355.305 681.469 345.123 687.55 C 342.046 676.877 337.406 666.836 334.214 656.114 C 335.708 654.102 339.514 653.041 342.068 652.032 z" fill="rgb(199,199,200)" transform="translate(0,0)"></path>
<path d="M 1837.51 725.601 L 1849.21 724.685 C 1853.35 738.942 1858.04 751.359 1863.53 765.075 C 1856.68 761.002 1849.35 756.121 1842.57 751.803 C 1832.7 745.439 1814.19 734.651 1805.72 727.807 C 1816.33 727.161 1826.92 726.425 1837.51 725.601 z" fill="rgb(170,189,206)" transform="translate(0,0)"></path>
<path d="M 1779.91 675.31 C 1771.07 671.459 1774.7 671.304 1773.89 662.041 C 1773.3 655.341 1775.02 652.691 1780.17 658.845 L 1781.86 659.088 C 1786.87 659.656 1789.39 662.177 1793.56 663.868 C 1809.72 670.417 1818.29 680.645 1829.99 693.7 C 1826.81 693.683 1816.76 694.069 1814.42 693.36 C 1803.35 690.004 1792.21 681.128 1781.79 677.014 C 1781 676.352 1780.61 676.066 1779.91 675.31 z" fill="rgb(199,199,200)" transform="translate(0,0)"></path>
<path d="M 1779.91 675.31 C 1771.07 671.459 1774.7 671.304 1773.89 662.041 C 1773.3 655.341 1775.02 652.691 1780.17 658.845 C 1779.74 664.323 1779.65 669.822 1779.91 675.31 z" fill="rgb(199,199,200)" transform="translate(0,0)"></path>
<path d="M 1780.17 658.845 L 1781.86 659.088 C 1782.03 665.063 1782 671.041 1781.79 677.014 C 1781 676.352 1780.61 676.066 1779.91 675.31 C 1779.65 669.822 1779.74 664.323 1780.17 658.845 z" fill="rgb(33,33,37)" transform="translate(0,0)"></path>
<path d="M 198.898 725.741 C 213.517 726.031 228.126 726.688 242.712 727.71 C 235.074 733.394 220.974 741.823 212.548 747.202 L 186.01 764.081 C 188.813 752.718 194.744 736.684 198.898 725.741 z" fill="rgb(170,189,206)" transform="translate(0,0)"></path>
<path d="M 268.312 658.682 C 268.596 658.352 273.555 652.946 273.733 655.064 C 274.175 660.335 274.48 666.125 274.532 671.43 C 274.546 672.878 270.159 673.759 269.137 673.905 L 267.186 674.444 C 264.819 678.731 241.092 690.205 235.166 693.336 C 229.301 693.039 224.051 692.769 218.178 692.273 C 236.863 677.284 243.344 668.877 265.868 658.942 C 266.684 658.869 267.499 658.782 268.312 658.682 z" fill="rgb(199,199,200)" transform="translate(0,0)"></path>
<path d="M 268.312 658.682 C 268.596 658.352 273.555 652.946 273.733 655.064 C 274.175 660.335 274.48 666.125 274.532 671.43 C 274.546 672.878 270.159 673.759 269.137 673.905 C 268.937 669.314 269.16 662.92 268.312 658.682 z" fill="rgb(199,199,200)" transform="translate(0,0)"></path>
<path d="M 265.868 658.942 C 266.684 658.869 267.499 658.782 268.312 658.682 C 269.16 662.92 268.937 669.314 269.137 673.905 L 267.186 674.444 C 265.671 669.007 266.139 664.541 265.868 658.942 z" fill="rgb(33,33,37)" transform="translate(0,0)"></path>
<path d="M 2029.26 367.249 C 2032.34 374.576 2041.15 394.835 2044.23 403.414 C 2044.47 404.101 2042.7 404.988 2041.94 405.375 C 2032.01 409.218 2019.86 414.504 2009.93 418.806 C 2009.43 417.585 2008.93 416.547 2009.44 415.216 C 2015.74 398.723 2023.15 384.088 2029.26 367.249 z" fill="rgb(105,123,182)" transform="translate(0,0)"></path>
<path d="M 862.067 603.51 L 871.559 603.447 C 876.463 603.434 876.054 608.442 875.554 612.133 C 875.765 613.992 875.984 616.199 877.214 617.643 C 877.218 617.646 877.465 617.808 877.512 617.718 C 881.611 609.841 877.554 602.526 889.936 605.31 C 890.99 606.256 890.739 610.513 890.732 611.25 C 890.69 616.057 890.878 620.729 890.694 625.504 C 890.606 627.775 885.94 627.134 884.312 627.186 C 883.299 622.62 884.125 621.857 882.131 617.332 L 881.795 616.557 C 881.992 625.612 877.522 633.536 872.706 619.689 C 869.798 624.309 871.589 623.186 871.123 627.464 C 870.679 627.753 866.651 628.833 865.952 628.897 C 862.472 629.129 862.81 626.442 862.96 624.037 C 863.398 617.047 862.635 610.432 862.067 603.51 z" fill="rgb(251,208,139)" transform="translate(0,0)"></path>
<path d="M 862.067 603.51 L 871.559 603.447 C 876.463 603.434 876.054 608.442 875.554 612.133 C 873.364 606.569 874.25 603.157 865.138 605.64 C 865.007 605.676 862.138 629.167 867.56 627.148 C 872.063 625.47 868.366 616.289 870.268 613.659 L 870.446 613.586 C 871.654 614.353 872.509 618.23 872.706 619.689 C 869.798 624.309 871.589 623.186 871.123 627.464 C 870.679 627.753 866.651 628.833 865.952 628.897 C 862.472 629.129 862.81 626.442 862.96 624.037 C 863.398 617.047 862.635 610.432 862.067 603.51 z" fill="rgb(33,33,37)" transform="translate(0,0)"></path>
<path d="M 881.795 616.557 C 882.767 615.309 883.443 613.661 884.66 613.069 C 885.659 615.955 884.78 624.061 884.312 627.186 C 883.299 622.62 884.125 621.857 882.131 617.332 L 881.795 616.557 z" fill="rgb(33,33,37)" transform="translate(0,0)"></path>
<path d="M 47.5131 353.113 C 47.9744 353.151 49.589 353.237 49.5686 353.618 C 48.9466 365.214 45.7898 388.505 43.6855 398.685 C 41.0374 393.943 40.5851 393.317 38.4838 388.265 C 34.9062 378.631 30.776 368.115 26.4676 358.822 C 33.4088 357.09 40.5649 354.898 47.5131 353.113 z" fill="rgb(241,240,241)" transform="translate(0,0)"></path>
<path d="M 1998.64 353.224 C 2006.34 355.201 2013.83 357.867 2021.9 359.898 C 2017.88 367.925 2014.69 376.571 2010.71 384.317 C 2008.57 389.195 2006.12 393.931 2003.38 398.497 C 2001.93 383.519 1999.63 368.138 1998.64 353.224 z" fill="rgb(241,240,241)" transform="translate(0,0)"></path>
<path d="M 243.976 740.256 C 246.937 737.86 250.014 735.611 253.196 733.518 C 252.507 743.94 251.906 747.376 249.593 757.689 C 243.012 758.649 236.32 759.663 229.71 760.402 C 224.894 761.476 212.852 763.008 207.599 763.711 C 216.033 757.863 235.028 745.096 243.976 740.256 z" fill="rgb(241,240,241)" transform="translate(0,0)"></path>
<path d="M 207.599 763.711 C 216.033 757.863 235.028 745.096 243.976 740.256 C 238.128 749.229 235.961 747.958 229.71 760.402 C 224.894 761.476 212.852 763.008 207.599 763.711 z" fill="rgb(166,160,170)" transform="translate(0,0)"></path>
<path d="M 1794.89 734.521 C 1798.4 736.899 1802.68 739.802 1806.08 742.271 C 1816.15 747.854 1830.69 757.342 1840.52 763.713 C 1835.72 763.102 1823.37 761.659 1819.02 760.556 C 1811.56 759.447 1804.97 758.35 1797.44 757.541 C 1795.24 747.239 1795.12 745.024 1794.89 734.521 z" fill="rgb(241,240,241)" transform="translate(0,0)"></path>
<path d="M 1806.08 742.271 C 1816.15 747.854 1830.69 757.342 1840.52 763.713 C 1835.72 763.102 1823.37 761.659 1819.02 760.556 C 1814.58 753.947 1810.03 749.043 1806.08 742.271 z" fill="rgb(166,160,170)" transform="translate(0,0)"></path>
<path d="M 1256.99 605.021 C 1260.94 604.907 1265.54 604.611 1268.91 607.024 C 1270.35 608.05 1269.33 609.602 1268.14 610.278 C 1265.42 611.977 1263.72 609.048 1260.49 609.566 C 1253.8 610.637 1253.5 619.093 1258.87 622.309 C 1261.4 623.828 1267.65 623.156 1265.86 619.529 C 1265.07 617.931 1263.17 619.772 1260.36 615.296 C 1269.09 611.407 1270.96 613.387 1270.97 620.004 C 1273.21 626.373 1267.54 628.886 1260.5 627.339 C 1244.12 623.738 1247.14 612.267 1256.99 605.021 z" fill="rgb(251,208,139)" transform="translate(0,0)"></path>
<path d="M 1337.84 603.44 C 1338.89 603.783 1341.13 604.172 1341.7 605.244 C 1342.46 606.665 1342.39 625.511 1341.66 626.526 C 1340.05 628.781 1337.63 625.816 1336.03 626.135 C 1333.9 626.558 1331.58 627.641 1329.4 628.181 C 1326.1 624.196 1322.88 620.231 1326.37 614.64 C 1329.56 609.512 1333.58 612.557 1336.45 612.082 C 1337.08 610.011 1336.61 607.584 1337.84 603.44 z" fill="rgb(251,208,139)" transform="translate(0,0)"></path>
<path d="M 1331.12 616.552 C 1332.16 615.684 1333.59 615.449 1334.86 615.939 C 1336.12 616.428 1337.02 617.565 1337.2 618.907 C 1337.39 620.249 1336.83 621.586 1335.74 622.397 C 1334.12 623.606 1331.84 623.307 1330.59 621.723 C 1329.34 620.139 1329.57 617.846 1331.12 616.552 z" fill="rgb(33,33,37)" transform="translate(0,0)"></path>
<path d="M 1857.26 709.231 C 1860.85 708.825 1861.54 709.458 1865.15 709.63 C 1872.93 708.281 1884.65 710.644 1893.05 711.251 C 1895.83 714.494 1898.47 717.858 1900.96 721.332 C 1901.31 721.134 1901.88 720.672 1902.3 720.75 C 1902.39 720.766 1902.38 720.849 1902.4 720.918 C 1902.01 721.749 1900.81 722.972 1900.19 723.781 C 1897.43 722.899 1894.67 722.054 1891.89 721.246 C 1887.9 719.859 1883.92 718.465 1879.91 717.141 C 1875.84 716.293 1860.87 711.103 1857.26 709.231 z" fill="rgb(241,240,241)" transform="translate(0,0)"></path>
<path d="M 1857.26 709.231 C 1860.85 708.825 1861.54 709.458 1865.15 709.63 C 1875.87 713.715 1889.92 717.78 1900.96 721.332 C 1901.31 721.134 1901.88 720.672 1902.3 720.75 C 1902.39 720.766 1902.38 720.849 1902.4 720.918 C 1902.01 721.749 1900.81 722.972 1900.19 723.781 C 1897.43 722.899 1894.67 722.054 1891.89 721.246 C 1887.9 719.859 1883.92 718.465 1879.91 717.141 C 1875.84 716.293 1860.87 711.103 1857.26 709.231 z" fill="rgb(33,33,37)" transform="translate(0,0)"></path>
<path d="M 1666.97 787.037 C 1668.44 787.04 1673.04 786.874 1673.99 787.32 C 1676.41 788.448 1696.52 798.76 1696.56 800.123 C 1696.3 800.51 1696.51 800.269 1695.77 800.867 C 1689.04 800.835 1682.3 800.862 1675.57 800.949 C 1673.77 799.156 1665.16 791.087 1664.87 789.602 C 1665.33 788.546 1666.15 787.891 1666.97 787.037 z" fill="rgb(90,89,89)" transform="translate(0,0)"></path>
<path d="M 373.615 786.908 C 388.734 787.981 380.033 792.589 373.033 800.099 L 360.147 800.304 C 356.425 800.503 352.699 800.609 348.971 800.622 C 357.081 795.866 365.298 791.293 373.615 786.908 z" fill="rgb(90,89,89)" transform="translate(0,0)"></path>
<path d="M 1364.69 625.775 C 1343.29 635.199 1345.63 601.618 1365.72 615.283 C 1365.92 615.115 1366.12 614.947 1366.33 614.779 C 1368.67 616.247 1366.09 625.233 1364.69 625.775 z" fill="rgb(251,208,139)" transform="translate(0,0)"></path>
<path d="M 1365.72 615.283 C 1365.92 615.115 1366.12 614.947 1366.33 614.779 C 1368.67 616.247 1366.09 625.233 1364.69 625.775 C 1364.4 625.407 1364.09 625.019 1363.08 623.827 C 1361.88 622.419 1354.67 625.486 1355.42 621.626 C 1355.81 619.661 1366.57 623.231 1365.62 618.434 C 1365.43 617.482 1365.66 616.078 1365.72 615.283 z" fill="rgb(33,33,37)" transform="translate(0,0)"></path>
<path d="M 1357.14 616.121 C 1357.54 615.91 1358.26 615.399 1358.75 615.516 C 1358.88 615.544 1358.96 615.605 1359.01 615.72 C 1359.21 616.139 1358.71 617.024 1358.6 617.267 C 1357.69 617.481 1356.81 617.787 1355.89 617.679 C 1355.85 617.605 1355.8 617.53 1355.76 617.456 C 1355.97 617.217 1356.18 616.978 1356.4 616.739 L 1357.14 616.121 z" fill="rgb(33,33,37)" transform="translate(0,0)"></path>
<path d="M 666.972 604.948 C 670.023 604.846 677.875 604.625 678.775 607.672 C 678.057 613.102 675.514 611.083 672.949 610.121 C 662.55 606.221 662.674 629.016 676.083 621.528 C 678.465 621.816 680.05 624.317 678.335 625.348 C 664.369 633.745 651.082 617.216 666.972 604.948 z" fill="rgb(251,208,139)" transform="translate(0,0)"></path>
<path d="M 1305.94 612.016 C 1317.66 611.644 1323.33 617.717 1314.54 627.214 C 1302.06 627.791 1295.55 621.641 1305.94 612.016 z" fill="rgb(251,208,139)" transform="translate(0,0)"></path>
<path d="M 1307.9 616.537 C 1309.09 615.76 1310.61 615.716 1311.84 616.423 C 1313.06 617.131 1313.79 618.469 1313.71 619.884 C 1313.63 621.298 1312.76 622.547 1311.46 623.113 C 1309.68 623.892 1307.59 623.174 1306.66 621.46 C 1305.74 619.746 1306.27 617.607 1307.9 616.537 z" fill="rgb(33,33,37)" transform="translate(0,0)"></path>
<path d="M 1099.73 612.185 C 1102.37 610.723 1105.59 610.8 1108.15 612.385 C 1110.72 613.971 1112.23 616.818 1112.1 619.831 C 1111.97 622.844 1110.23 625.552 1107.53 626.913 C 1103.48 628.964 1098.53 627.392 1096.41 623.378 C 1094.28 619.364 1095.76 614.387 1099.73 612.185 z" fill="rgb(251,208,139)" transform="translate(0,0)"></path>
<path d="M 1101.69 616.527 C 1102.79 615.716 1104.27 615.6 1105.49 616.229 C 1106.71 616.858 1107.46 618.124 1107.44 619.496 C 1107.42 620.869 1106.63 622.112 1105.39 622.705 C 1103.71 623.513 1101.69 622.906 1100.73 621.304 C 1099.76 619.702 1100.18 617.632 1101.69 616.527 z" fill="rgb(33,33,37)" transform="translate(0,0)"></path>
<path d="M 948.463 623.953 C 946.197 627.553 941.564 628.839 937.768 626.92 C 933.971 625.002 932.257 620.51 933.811 616.55 C 935.365 612.59 939.677 610.463 943.765 611.64 C 947.853 612.816 950.375 616.91 949.587 621.09 C 949.395 622.106 949.014 623.077 948.463 623.953 z" fill="rgb(251,208,139)" transform="translate(0,0)"></path>
<path d="M 946.023 620.77 L 949.587 621.09 C 949.395 622.106 949.014 623.077 948.463 623.953 C 942.758 622.752 943.169 625.166 938.15 622.18 C 941.873 620.856 941.935 621.008 946.023 620.77 z" fill="rgb(33,33,37)" transform="translate(0,0)"></path>
<path d="M 1073.76 605.134 C 1075.87 605.141 1088.95 604.575 1089.45 606.103 C 1092.19 614.581 1076.12 605.167 1079.69 614.266 C 1080.01 615.088 1088.37 615.174 1090.03 615.371 C 1087.79 620.684 1088.14 618.978 1081.93 619.042 C 1075.9 619.32 1083.46 630.193 1074.11 626.399 C 1073.38 626.104 1073.75 607.117 1073.76 605.134 z" fill="rgb(251,208,139)" transform="translate(0,0)"></path>
<path d="M 764.222 616.148 C 764.935 609.733 773.418 610.782 776.461 614.565 C 777.623 617.314 777.438 622.623 777.837 625.502 C 778.394 629.517 772.856 625.751 771.067 626.468 C 763.185 629.624 759.376 625.124 764.612 618.216 L 764.222 616.148 z" fill="rgb(251,208,139)" transform="translate(0,0)"></path>
<path d="M 764.222 616.148 C 773.13 614.498 774.892 617.484 764.612 618.216 L 764.222 616.148 z" fill="rgb(33,33,37)" transform="translate(0,0)"></path>
<path d="M 769.94 619.352 C 772.059 621.01 773.755 622.758 769.727 622.826 C 765.919 622.488 767.756 621.823 769.94 619.352 z" fill="rgb(33,33,37)" transform="translate(0,0)"></path>
<path d="M 702.504 611.339 C 710.972 612.294 708.673 614.314 711.717 622.255 C 712.114 621.125 715.243 607.404 719.535 612.436 C 719.851 612.807 715.7 623.515 714.992 625.775 C 714.237 627.508 710.241 639.622 704.261 634.02 C 702.253 630.343 707.568 629.78 707.75 628.867 C 708.343 625.894 703.198 613.317 702.504 611.339 z" fill="rgb(251,208,139)" transform="translate(0,0)"></path>
<path d="M 1292.74 622.709 C 1293.2 630.035 1283.33 627.957 1280.93 625.079 C 1273.63 616.346 1286.71 606.005 1293.71 615.081 C 1295.58 617.506 1295.28 619.81 1292.79 621.333 L 1292.74 622.709 z" fill="rgb(251,208,139)" transform="translate(0,0)"></path>
<path d="M 1284.6 622.163 C 1288.5 620.492 1288.52 620.952 1292.79 621.333 L 1292.74 622.709 C 1288.77 623.366 1287.59 624.923 1284.6 622.163 z" fill="rgb(33,33,37)" transform="translate(0,0)"></path>
<path d="M 973.774 615.331 C 972.562 609.749 987.954 610.513 986.733 617.953 C 985.651 624.542 990.09 625.294 983.018 626.714 C 977.201 627.881 965.543 626.742 974.869 618.073 L 973.774 615.331 z" fill="rgb(251,208,139)" transform="translate(0,0)"></path>
<path d="M 973.774 615.331 L 974.643 615.383 C 984.46 615.888 983.705 617.583 974.869 618.073 L 973.774 615.331 z" fill="rgb(47,45,35)" transform="translate(0,0)"></path>
<path d="M 978.536 621.797 C 979.274 621.242 979.642 620.808 980.532 620.778 C 981.075 621.262 980.695 621.858 980.493 622.501 C 978.875 624.242 977.654 624.862 978.536 621.797 z" fill="rgb(33,33,37)" transform="translate(0,0)"></path>
<path d="M 921.237 611.678 C 929.282 611.036 928.439 630.9 923.271 627.126 C 918.847 623.896 926.196 619.082 917.451 615.197 C 916.481 619.221 916.655 621.716 916.433 625.768 C 916.324 627.75 911.036 627.813 911.142 625.054 C 911.292 621.18 910.409 616.019 911.669 612.437 C 911.827 611.986 915.08 611.925 915.405 612.344 C 917.327 613.225 919.352 612.245 921.237 611.678 z" fill="rgb(251,208,139)" transform="translate(0,0)"></path>
<path d="M 1140.53 619.933 C 1130.14 616.403 1149.91 605.16 1149.94 615.98 L 1149.68 618.63 C 1156.1 628.676 1138.52 630.763 1137.56 622.981 C 1138.5 622.047 1139.69 620.925 1140.53 619.933 z" fill="rgb(251,208,139)" transform="translate(0,0)"></path>
<path d="M 1149.68 618.63 C 1142.62 617.211 1140.87 614.795 1149.22 615.89 L 1149.94 615.98 L 1149.68 618.63 z" fill="rgb(33,33,37)" transform="translate(0,0)"></path>
<path d="M 1140.53 619.933 C 1151.73 624.533 1142.31 623.466 1137.56 622.981 C 1138.5 622.047 1139.69 620.925 1140.53 619.933 z" fill="rgb(33,33,37)" transform="translate(0,0)"></path>
<path d="M 798.5 620.935 C 791.219 609.441 809.525 609.966 807.582 615.427 L 805.504 618.46 C 823.353 624.905 789.318 632.807 797.463 623.45 L 798.5 620.935 z" fill="rgb(251,208,139)" transform="translate(0,0)"></path>
<path d="M 798.5 620.935 C 804.438 620.892 807.278 624.88 797.463 623.45 L 798.5 620.935 z" fill="rgb(33,33,37)" transform="translate(0,0)"></path>
<path d="M 805.504 618.46 C 797.118 615.068 804.446 615.45 807.582 615.427 L 805.504 618.46 z" fill="rgb(47,45,35)" transform="translate(0,0)"></path>
<path d="M 1008.69 620.006 C 995.191 613.568 1025.1 607.572 1017.12 616.15 C 1016.92 617.03 1016.76 617.837 1016.59 618.719 C 1029.12 628.759 1001.3 629.82 1007.06 623.55 L 1008.69 620.006 z" fill="rgb(251,208,139)" transform="translate(0,0)"></path>
<path d="M 1016.59 618.719 C 1009.73 617.189 1009.3 614.619 1017.12 616.15 C 1016.92 617.03 1016.76 617.837 1016.59 618.719 z" fill="rgb(47,45,35)" transform="translate(0,0)"></path>
<path d="M 1008.69 620.006 C 1017.55 623.739 1012.93 623.607 1007.06 623.55 L 1008.69 620.006 z" fill="rgb(33,33,37)" transform="translate(0,0)"></path>
<path d="M 1666.32 760.214 C 1672.65 760.18 1678.85 760.209 1685.19 760.097 C 1680.94 763.347 1676.84 766.601 1672.52 769.778 C 1669.87 772.147 1665.02 775.418 1662.1 777.518 C 1663.35 771.89 1664.55 765.627 1666.32 760.214 z" fill="rgb(170,189,206)" transform="translate(0,0)"></path>
<path d="M 1120.44 620.461 C 1114.13 610.48 1131.97 608.488 1129.78 615.815 L 1129.51 618.643 C 1137.23 628.051 1118.47 631.052 1118.84 623.23 C 1119.33 622.416 1120.05 621.312 1120.44 620.461 z" fill="rgb(251,208,139)" transform="translate(0,0)"></path>
<path d="M 1120.44 620.461 C 1130.72 622.841 1124.98 623.638 1118.84 623.23 C 1119.33 622.416 1120.05 621.312 1120.44 620.461 z" fill="rgb(33,33,37)" transform="translate(0,0)"></path>
<path d="M 1129.51 618.643 C 1123.16 617.131 1122.16 614.533 1129.78 615.815 L 1129.51 618.643 z" fill="rgb(33,33,37)" transform="translate(0,0)"></path>
<path d="M 1373.86 620.188 C 1365.77 611.97 1385.48 609.241 1381.84 615.309 L 1382.06 619.042 C 1391.54 622.005 1379.61 632.001 1372.54 626.675 C 1370.85 625.4 1372.48 624.204 1373.35 623.574 L 1373.86 620.188 z" fill="rgb(251,208,139)" transform="translate(0,0)"></path>
<path d="M 1373.86 620.188 C 1381.5 622.396 1381.48 624.012 1373.35 623.574 L 1373.86 620.188 z" fill="rgb(33,33,37)" transform="translate(0,0)"></path>
<path d="M 1382.06 619.042 C 1376.59 617.159 1374.61 615.68 1381.84 615.309 L 1382.06 619.042 z" fill="rgb(47,45,35)" transform="translate(0,0)"></path>
<path d="M 1184.76 619.825 C 1174.57 615.56 1193.48 606.314 1194.28 614.499 C 1191.54 616.624 1189.81 614.447 1187.93 615.626 L 1187.79 615.908 C 1188.21 616.945 1189.58 617.398 1190.55 617.818 C 1201.38 622.549 1192.32 630.164 1183.96 626.728 C 1182.13 625.974 1182.24 624.749 1182.14 623.172 C 1182.95 622.173 1184.07 620.871 1184.76 619.825 z" fill="rgb(251,208,139)" transform="translate(0,0)"></path>
<path d="M 1184.76 619.825 C 1195.12 623.973 1187.36 623.495 1182.14 623.172 C 1182.95 622.173 1184.07 620.871 1184.76 619.825 z" fill="rgb(33,33,37)" transform="translate(0,0)"></path>
<path d="M 728.093 621.081 C 717.926 612.698 740.484 608.082 735.964 615.22 L 736.067 619.09 C 740.673 621.546 737.766 626.718 733.28 627.483 C 730.887 627.89 723.207 626.357 727.746 623.644 L 728.093 621.081 z" fill="rgb(251,208,139)" transform="translate(0,0)"></path>
<path d="M 728.093 621.081 C 729.411 621.216 731.433 621.009 732.353 622.204 C 732.488 622.384 732.542 622.612 732.501 622.833 C 732.208 624.345 728.713 623.727 727.746 623.644 L 728.093 621.081 z" fill="rgb(47,45,35)" transform="translate(0,0)"></path>
<path d="M 736.067 619.09 C 730.045 617.064 728.832 615.9 735.964 615.22 L 736.067 619.09 z" fill="rgb(47,45,35)" transform="translate(0,0)"></path>
<path d="M 1835.73 703.389 C 1841.71 702.334 1841.24 709.214 1840.69 709.733 C 1839 711.335 1829.29 712.598 1826.14 713.287 C 1819.57 712.027 1816.82 703.558 1827.87 704.559 C 1828.01 704.572 1835.12 703.472 1835.73 703.389 z" fill="rgb(241,240,241)" transform="translate(0,0)"></path>
<path d="M 208.834 702.866 C 210.443 702.985 227.579 704.254 227.887 704.637 C 228.108 706.155 225.077 709.979 224.065 711.497 C 222.377 712.682 208.074 711.351 207.037 710.409 C 206.597 709.026 208.322 704.64 208.834 702.866 z" fill="rgb(241,240,241)" transform="translate(0,0)"></path>
<path d="M 363.26 760.1 C 369.474 760.292 375.223 760.736 381.417 761.191 C 382.752 766.693 383.995 771.77 385.178 777.332 C 381.096 775.123 367.772 763.802 363.26 760.1 z" fill="rgb(241,240,241)" transform="translate(0,0)"></path>
<path d="M 751.801 617.772 C 751.335 625.036 755.207 622.135 756.257 625.5 C 757.142 628.336 745.082 630.646 746.466 617.002 C 745.74 616.039 740.498 614.668 744.182 612.542 C 747.489 610.633 747.204 602.601 753.09 610.606 C 757.892 614.585 756.508 615.073 751.801 617.772 z" fill="rgb(251,208,139)" transform="translate(0,0)"></path>
<path d="M 1170.81 603.417 C 1172.54 604.032 1175.02 604.315 1175.04 606.422 C 1175.12 613.413 1175.41 621.14 1174.74 628.039 C 1173.1 627.456 1170.06 627.084 1170.08 625.088 C 1170.15 618.242 1169.28 610.014 1170.81 603.417 z" fill="rgb(251,208,139)" transform="translate(0,0)"></path>
<path d="M 784.687 604.255 C 786.451 604.577 789.611 604.468 789.604 606.888 C 789.583 613.821 789.694 620.818 789.529 627.747 C 788.365 627.569 784.54 627.382 784.516 625.875 C 784.404 618.951 784.285 611.116 784.687 604.255 z" fill="rgb(251,208,139)" transform="translate(0,0)"></path>
<path d="M 1761.84 793.427 C 1771.64 791.925 1776.03 801.663 1779.32 802.107 C 1794.49 804.151 1810.36 802.466 1826.04 803.439 C 1808.57 803.678 1791.1 803.698 1773.64 803.5 C 1769.19 803.456 1757.64 803.796 1754.02 803.263 C 1759.46 802.476 1774.64 802.201 1776.8 801.275 C 1774.25 801.22 1772.44 801.119 1769.9 801.387 L 1770.97 797.649 C 1768.75 796.829 1764.17 794.517 1761.84 793.427 z" fill="rgb(33,33,37)" transform="translate(0,0)"></path>
<path d="M 1770.97 797.649 C 1773.48 798.993 1774.5 799.583 1776.8 801.275 C 1774.25 801.22 1772.44 801.119 1769.9 801.387 L 1770.97 797.649 z" fill="rgb(161,152,165)" transform="translate(0,0)"></path>
<path d="M 994.157 604.102 C 995.408 604.337 999.001 604.457 999.074 605.957 C 999.417 613.064 999.24 620.835 999.163 627.924 C 997.875 627.548 994.434 627.06 994.35 625.508 C 993.974 618.623 994.126 610.968 994.157 604.102 z" fill="rgb(251,208,139)" transform="translate(0,0)"></path>
<path d="M 696.077 611.27 C 697.33 611.926 697.715 612.193 698.312 613.514 C 697.641 617.917 692.616 615.854 691.812 617.917 C 689.646 623.473 694.001 623.592 688.478 628.276 C 685.397 624.935 685.405 613.097 686.664 612.343 C 692.306 608.966 687.302 616.266 696.077 611.27 z" fill="rgb(251,208,139)" transform="translate(0,0)"></path>
<path d="M 961.64 617.318 C 962.428 632.344 955.871 629.99 956.661 617.894 C 957.05 611.952 955.711 611.699 961.993 611.986 C 971.606 612.025 967.511 614.939 961.64 617.318 z" fill="rgb(251,208,139)" transform="translate(0,0)"></path>
<path d="M 1159.15 609.661 C 1159.62 609.785 1160.12 609.777 1160.59 609.639 L 1162.11 612.385 C 1163.85 636.066 1154.89 630.466 1157.73 611.792 L 1159.15 609.661 z" fill="rgb(251,208,139)" transform="translate(0,0)"></path>
<path d="M 1159.15 609.661 C 1159.62 609.785 1160.12 609.777 1160.59 609.639 L 1162.11 612.385 L 1157.73 611.792 L 1159.15 609.661 z" fill="rgb(47,45,35)" transform="translate(0,0)"></path>
<path d="M 898.964 611.13 C 906.848 613.001 903.881 619.425 903.895 627.754 C 895.877 625.923 898.9 619.618 898.964 611.13 z" fill="rgb(251,208,139)" transform="translate(0,0)"></path>
<path d="M 1220.14 613.592 C 1222.31 612.274 1225.14 612.956 1226.46 615.119 C 1227.79 617.281 1227.13 620.111 1224.97 621.452 C 1222.8 622.803 1219.94 622.129 1218.6 619.951 C 1217.26 617.772 1217.95 614.919 1220.14 613.592 z" fill="rgb(251,208,139)" transform="translate(0,0)"></path>
<path d="M 1044.36 613.603 C 1046.51 612.755 1048.95 613.68 1050 615.738 C 1051.04 617.797 1050.35 620.312 1048.4 621.545 C 1046.96 622.452 1045.13 622.467 1043.68 621.585 C 1042.23 620.703 1041.41 619.075 1041.55 617.383 C 1041.69 615.691 1042.78 614.227 1044.36 613.603 z" fill="rgb(251,208,139)" transform="translate(0,0)"></path>
<path d="M 834.379 613.676 C 836.496 612.675 839.027 613.486 840.17 615.53 C 841.312 617.575 840.675 620.155 838.713 621.434 C 837.319 622.342 835.536 622.397 834.089 621.578 C 832.641 620.759 831.771 619.201 831.832 617.539 C 831.893 615.877 832.875 614.387 834.379 613.676 z" fill="rgb(251,208,139)" transform="translate(0,0)"></path>
<path d="M 899.055 605.602 C 899.639 604.746 900.65 604.283 901.681 604.403 C 902.711 604.522 903.59 605.203 903.963 606.17 C 904.337 607.138 904.142 608.233 903.459 609.013 C 902.487 610.123 900.818 610.284 899.652 609.381 C 898.485 608.477 898.223 606.822 899.055 605.602 z" fill="rgb(251,208,139)" transform="translate(0,0)"></path>
<path d="M 1159.15 609.661 C 1157.84 609.32 1156.99 608.066 1157.15 606.727 C 1157.31 605.388 1158.44 604.374 1159.79 604.353 C 1161.14 604.333 1162.3 605.312 1162.5 606.646 C 1162.7 607.98 1161.89 609.259 1160.59 609.639 C 1160.12 609.777 1159.62 609.785 1159.15 609.661 z" fill="rgb(251,208,139)" transform="translate(0,0)"></path>
<path d="M 277.645 801.548 C 277.044 801.438 273.571 801.151 273.509 800.428 C 274.118 799.446 275.912 798.921 276.999 798.537 L 277.645 801.548 z" fill="rgb(161,152,165)" transform="translate(0,0)"></path>
<metadata><recraft-signature>{"signed_by": "recraft", "signature_b64": "EmrK3rBnxRR7b/2t8BALPbF7/4AeBbx0i5JzvpxYfPpTvgCnMFGln9yEZK+UWRAhnbH8Kgtjs//ZTQsO2PREAg==", "signing_algo": "Ed25519", "generation_timestamp": 1780243767, "identifier": "ea2a8326-1aae-40a2-b03b-c659917ea031"}</recraft-signature></metadata></svg>