<svg xmlns="http://www.w3.org/2000/svg" height="768" preserveAspectRatio="none" style="display: block;" version="1.1" viewBox="0 0 2048 1024" width="1536">
<path d="M 0 0 L 2048 0 L 2048 441.792 L 2048 453.678 L 2048 457.442 L 2048 557.294 L 2048 566.466 L 2048 691.007 L 2048 699.232 L 2048 755.947 L 2048 1024 L 0 1024 L 0 793.372 L 0 785.913 L 0 777.209 L 0 772.126 L 0 764.901 L 0 758.12 L 0 753.204 L 0 743.051 L 0 731.628 L 0 713.305 L 0 706.703 L 0 678.889 L 0 673.097 L 0 668.356 L 0 663.877 L 0 656.681 L 0 647.903 L 0 641.907 L 0 617.098 L 0 607.87 L 0 594.7 L 0 576.351 L 0 563.488 L 0 553.154 L 0 538.179 L 0 518.249 L 0 484.454 L 0 467.828 L 0 458.932 L 0 448.054 L 0 440.18 L 0 422.936 L 0 417.267 L 0 411.227 L 0 385.572 L 0 381.655 L 0 373.518 L 0 365.832 L 0 361.523 L 0 360.674 L 0 354.411 L 0 324.943 L 0 317.358 L 0 313.337 L 0 303.58 L 0 284.07 L 0 273.108 L 0 267.712 L 0 258.754 L 0 250.896 L 0 244.644 L 0 235.664 L 0 0 z" fill="rgb(2,34,28)" transform="translate(0,0)"></path>
<path d="M 0 324.943 C 16.6422 323.357 22.722 324.151 38.9667 326.831 C 61.2232 330.503 78.7333 341.11 98.4736 347.391 C 129.287 357.195 160.282 357.955 187.237 380.065 C 208.301 397.343 216.07 420.685 227.53 444.229 C 235.678 460.969 243.888 472.317 245.707 492.216 C 248.745 525.467 221.414 574.867 200.907 600.445 C 191.224 612.523 173.7 627.29 161.929 638.489 C 150.005 649.834 140.522 661.894 129.526 673.107 C 118.418 684.249 113.447 687.983 100.144 696.478 C 72.6894 708.296 31.266 719.223 2.19536 707.649 C 1.45387 707.357 0.721727 707.041 0 706.703 L 0 678.889 L 0 673.097 L 0 668.356 L 0 663.877 L 0 656.681 L 0 647.903 L 0 641.907 L 0 617.098 L 0 607.87 L 0 594.7 L 0 576.351 L 0 563.488 L 0 553.154 L 0 538.179 L 0 518.249 L 0 484.454 L 0 467.828 L 0 458.932 L 0 448.054 L 0 440.18 L 0 422.936 L 0 417.267 L 0 411.227 L 0 385.572 L 0 381.655 L 0 373.518 L 0 365.832 L 0 361.523 L 0 360.674 L 0 354.411 L 0 324.943 z" fill="rgb(4,190,138)" transform="translate(0,0)"></path>
<path d="M 0 385.572 C 36.9516 383.903 44.1087 388.417 75.7422 406.497 C 93.2062 416.478 119.982 420.545 135.887 435.036 C 145.12 442.783 148.108 461.724 153.538 472.688 C 159.226 484.173 170.626 497.172 170.397 510.232 C 169.854 541.136 143.501 567.524 125.69 590.791 C 118.826 599.58 109.964 610.339 102.571 618.268 C 82.481 639.812 65.7793 638.549 39.0595 639.69 C 26.0292 640.232 13.0079 640.971 0 641.907 L 0 617.098 L 0 607.87 L 0 594.7 L 0 576.351 L 0 563.488 L 0 553.154 L 0 538.179 L 0 518.249 L 0 484.454 L 0 467.828 L 0 458.932 L 0 448.054 L 0 440.18 L 0 422.936 L 0 417.267 L 0 411.227 L 0 385.572 z" fill="rgb(4,190,138)" transform="translate(0,0)"></path>
<path d="M 0 422.936 C 5.83526 422.82 11.8564 422.411 17.5534 423.769 C 27.3221 426.096 35.7007 434.626 44.2413 438.479 C 59.6626 445.35 79.713 447.987 92.11 460.328 C 104.537 472.699 118.473 497.851 118.87 515.167 C 119.443 540.107 102.048 551.705 84.5187 564.608 C 80.062 567.888 74.696 577.583 70.2451 581.496 C 54.8638 596.572 19.8809 599.689 0 594.7 L 0 576.351 L 0 563.488 L 0 553.154 L 0 538.179 L 0 518.249 L 0 484.454 L 0 467.828 L 0 458.932 L 0 448.054 L 0 440.18 L 0 422.936 z" fill="rgb(4,190,138)" transform="translate(0,0)"></path>
<path d="M 0 448.054 C 27.9924 447.478 42.8854 450.041 65.1934 469.579 C 87.364 488.997 81.0887 521.455 63.3642 541.155 C 49.7041 556.338 19.626 558.579 0 563.488 L 0 553.154 L 0 538.179 L 0 518.249 L 0 484.454 L 0 467.828 L 0 458.932 L 0 448.054 z" fill="rgb(4,190,138)" transform="translate(0,0)"></path>
<path d="M 0 467.828 C 22.4088 469.516 61.6592 475.754 58.6727 505.733 C 55.9728 532.834 21.1177 538.32 0 538.179 L 0 518.249 L 0 484.454 L 0 467.828 z" fill="rgb(4,190,138)" transform="translate(0,0)"></path>
<path d="M 0 484.454 C 8.72534 489.75 17.4768 498.61 11.3473 510.319 C 8.98982 514.822 4.27276 516.144 0 518.249 L 0 484.454 z" fill="rgb(1,130,94)" transform="translate(0,0)"></path>
<path d="M 0 458.932 C 7.97859 458.879 14.6367 458.79 22.5572 459.775 C 56.9359 464.046 83.4147 505.678 53.3592 532.745 C 37.5542 546.978 20.6222 550.946 0 553.154 L 0 538.179 C 21.1177 538.32 55.9728 532.834 58.6727 505.733 C 61.6592 475.754 22.4088 469.516 0 467.828 L 0 458.932 z" fill="rgb(1,130,94)" transform="translate(0,0)"></path>
<path d="M 0 440.18 C 31.6317 437.212 48.3117 444.628 73.9807 463.918 C 100.896 484.145 96.7289 522.455 77.7972 546.477 C 60.3831 568.574 25.3015 568.644 0 576.351 L 0 563.488 C 19.626 558.579 49.7041 556.338 63.3642 541.155 C 81.0887 521.455 87.364 488.997 65.1934 469.579 C 42.8854 450.041 27.9924 447.478 0 448.054 L 0 440.18 z" fill="rgb(1,130,94)" transform="translate(0,0)"></path>
<path d="M 0 417.267 C 5.86513 417.014 18.3273 416.064 23.5884 418.43 C 42.3484 426.867 59.7846 436.548 79.6227 443.064 C 88.8949 446.11 100.572 454.333 108.14 460.36 C 116.191 466.842 117.102 476.909 120.56 486.008 C 122.653 491.514 127.774 498.111 129.331 503.524 C 139.348 538.343 107.817 555.874 88.3629 577.123 C 67.2921 600.138 30.5788 614.192 0 607.87 L 0 594.7 C 19.8809 599.689 54.8638 596.572 70.2451 581.496 C 74.696 577.583 80.062 567.888 84.5187 564.608 C 102.048 551.705 119.443 540.107 118.87 515.167 C 118.473 497.851 104.537 472.699 92.11 460.328 C 79.713 447.987 59.6626 445.35 44.2413 438.479 C 35.7007 434.626 27.3221 426.096 17.5534 423.769 C 11.8564 422.411 5.83526 422.82 0 422.936 L 0 417.267 z" fill="rgb(1,130,94)" transform="translate(0,0)"></path>
<path d="M 0 411.227 C 8.10367 411.313 19.2785 411.553 27.8417 414.155 C 57.8243 423.353 90.5384 435.333 115.401 454.755 C 123.853 461.357 123.749 479.925 127.146 483.625 C 150.247 508.785 142.232 545.343 118.241 567.272 C 100.092 583.861 64.998 605.521 41.5653 614.986 C 30.2363 619.469 11.7338 618.953 0 617.098 L 0 607.87 C 30.5788 614.192 67.2921 600.138 88.3629 577.123 C 107.817 555.874 139.348 538.343 129.331 503.524 C 127.774 498.111 122.653 491.514 120.56 486.008 C 117.102 476.909 116.191 466.842 108.14 460.36 C 100.572 454.333 88.8949 446.11 79.6227 443.064 C 59.7846 436.548 42.3484 426.867 23.5884 418.43 C 18.3273 416.064 5.86513 417.014 0 417.267 L 0 411.227 z" fill="rgb(2,34,28)" transform="translate(0,0)"></path>
<path d="M 0 373.518 C 35.2734 364.861 50.5073 372.61 82.7886 385.795 C 99.9575 392.807 113.549 397.77 129.965 408.215 C 139.687 413.497 145.662 419.171 153.216 426.806 C 160.401 434.068 162.208 450.242 166.242 455.181 C 187.281 480.942 202.762 515.224 184.608 547.132 C 173.686 563.984 156.697 574.542 144.322 590.529 C 132.449 605.867 126.64 624.798 114.601 639.161 C 101.749 654.494 72.0099 650.48 54.9395 652.769 C 34.5205 655.508 20.6311 659.586 0 656.681 L 0 647.903 L 0 641.907 C 13.0079 640.971 26.0292 640.232 39.0595 639.69 C 65.7793 638.549 82.481 639.812 102.571 618.268 C 109.964 610.339 118.826 599.58 125.69 590.791 C 143.501 567.524 169.854 541.136 170.397 510.232 C 170.626 497.172 159.226 484.173 153.538 472.688 C 148.108 461.724 145.12 442.783 135.887 435.036 C 119.982 420.545 93.2062 416.478 75.7422 406.497 C 44.1087 388.417 36.9516 383.903 0 385.572 L 0 381.655 L 0 373.518 z" fill="rgb(2,34,28)" transform="translate(0,0)"></path>
<path d="M 0 381.655 C 44.0901 376.771 53.8474 385.278 94.5894 401.845 C 127.349 415.166 152.375 429.795 162.096 466.948 C 163.218 469.419 165.937 479.881 167.315 481.591 C 203.328 526.235 155.14 568.82 130.239 603.264 C 95.219 651.702 54.1576 647.64 0 647.903 L 0 641.907 C 13.0079 640.971 26.0292 640.232 39.0595 639.69 C 65.7793 638.549 82.481 639.812 102.571 618.268 C 109.964 610.339 118.826 599.58 125.69 590.791 C 143.501 567.524 169.854 541.136 170.397 510.232 C 170.626 497.172 159.226 484.173 153.538 472.688 C 148.108 461.724 145.12 442.783 135.887 435.036 C 119.982 420.545 93.2062 416.478 75.7422 406.497 C 44.1087 388.417 36.9516 383.903 0 385.572 L 0 381.655 z" fill="rgb(1,130,94)" transform="translate(0,0)"></path>
<path d="M 0 360.674 C 10.5571 356.783 26.8886 356.086 38.103 358.115 C 50.7643 360.407 63.1611 367.029 75.5987 370.358 C 90.1344 374.249 105.323 375.821 119.043 382.361 C 149.089 398.707 170.384 423.967 187.222 453.3 C 193.646 464.492 198.416 468.755 203.091 481.726 C 210.714 502.804 209.704 526.04 200.28 546.376 C 192.815 562.195 182.03 571.738 171.598 585.189 C 159.761 600.452 149.333 617.236 138.771 633.433 C 136.355 637.138 126.47 649.105 125.871 650.141 C 119.167 655.61 115.219 658.872 107.14 662.505 C 82.0752 672.583 66.9893 669.101 40.8041 670.416 C 27.0704 671.106 14.2385 673.581 0 673.097 L 0 668.356 L 0 663.877 L 0 656.681 C 20.6311 659.586 34.5205 655.508 54.9395 652.769 C 72.0099 650.48 101.749 654.494 114.601 639.161 C 126.64 624.798 132.449 605.867 144.322 590.529 C 156.697 574.542 173.686 563.984 184.608 547.132 C 202.762 515.224 187.281 480.942 166.242 455.181 C 162.208 450.242 160.401 434.068 153.216 426.806 C 145.662 419.171 139.687 413.497 129.965 408.215 C 113.549 397.77 99.9575 392.807 82.7886 385.795 C 50.5073 372.61 35.2734 364.861 0 373.518 L 0 365.832 L 0 361.523 L 0 360.674 z" fill="rgb(2,34,28)" transform="translate(0,0)"></path>
<path d="M 0 365.832 C 38.6025 358.098 49.6949 366.967 85.0058 379.937 C 96.6616 384.218 113.066 387.308 123.014 394.858 C 139.278 407.202 156.737 418.748 165.258 437.835 C 168.029 444.043 170.13 451.104 175.659 452.214 C 182.035 465.245 192.336 475.289 196.483 488.012 C 194.004 492.02 200.079 523.526 195.529 536.115 C 185.495 563.877 166.102 577.459 148.572 600.205 C 132.643 620.874 124.279 648 97.7027 657.274 C 80.6028 663.241 67.2695 659.231 49.9587 659.469 C 32.7147 660.287 18.4416 667.665 0 663.877 L 0 656.681 C 20.6311 659.586 34.5205 655.508 54.9395 652.769 C 72.0099 650.48 101.749 654.494 114.601 639.161 C 126.64 624.798 132.449 605.867 144.322 590.529 C 156.697 574.542 173.686 563.984 184.608 547.132 C 202.762 515.224 187.281 480.942 166.242 455.181 C 162.208 450.242 160.401 434.068 153.216 426.806 C 145.662 419.171 139.687 413.497 129.965 408.215 C 113.549 397.77 99.9575 392.807 82.7886 385.795 C 50.5073 372.61 35.2734 364.861 0 373.518 L 0 365.832 z" fill="rgb(1,130,94)" transform="translate(0,0)"></path>
<path d="M 196.483 488.012 C 202.062 503.804 203.872 528.438 197.597 543.865 C 191.473 558.924 173.802 574.937 163.846 588.371 C 144.921 613.906 132.177 651.082 99.874 661.99 C 81.5813 668.167 63.8893 664.135 45.1432 664.584 C 30.4278 665.29 15.8299 671.322 0 668.356 L 0 663.877 C 18.4416 667.665 32.7147 660.287 49.9587 659.469 C 67.2695 659.231 80.6028 663.241 97.7027 657.274 C 124.279 648 132.643 620.874 148.572 600.205 C 166.102 577.459 185.495 563.877 195.529 536.115 C 200.079 523.526 194.004 492.02 196.483 488.012 z" fill="rgb(4,190,138)" transform="translate(0,0)"></path>
<path d="M 0 361.523 C 32.7847 357.088 47.122 361.895 77.0615 374.374 C 87.8749 378.882 102.81 380.783 113.692 386.159 C 120.8 389.191 126.216 392.743 132.169 397.304 C 159.04 417.894 163.471 421.575 175.659 452.214 C 170.13 451.104 168.029 444.043 165.258 437.835 C 156.737 418.748 139.278 407.202 123.014 394.858 C 113.066 387.308 96.6616 384.218 85.0058 379.937 C 49.6949 366.967 38.6025 358.098 0 365.832 L 0 361.523 z" fill="rgb(4,190,138)" transform="translate(0,0)"></path>
<path d="M 0 354.411 C 32.2678 348.877 35.6331 350.963 66.674 360.71 C 90.0901 368.063 116.688 369.898 138.01 386.258 C 168.111 407.912 205.627 456.244 212.97 493.777 C 217.447 516.655 205.693 552.785 191.663 571.138 C 183.78 581.449 173.068 594.19 165.659 604.536 C 150.065 626.31 144.545 643.958 120.94 659.623 C 115.707 662.99 111.933 665.286 105.905 667.368 C 83.3483 678.306 25.4269 681.127 0 678.889 L 0 673.097 C 14.2385 673.581 27.0704 671.106 40.8041 670.416 C 66.9893 669.101 82.0752 672.583 107.14 662.505 C 115.219 658.872 119.167 655.61 125.871 650.141 C 126.47 649.105 136.355 637.138 138.771 633.433 C 149.333 617.236 159.761 600.452 171.598 585.189 C 182.03 571.738 192.815 562.195 200.28 546.376 C 209.704 526.04 210.714 502.804 203.091 481.726 C 198.416 468.755 193.646 464.492 187.222 453.3 C 170.384 423.967 149.089 398.707 119.043 382.361 C 105.323 375.821 90.1344 374.249 75.5987 370.358 C 63.1611 367.029 50.7643 360.407 38.103 358.115 C 26.8886 356.086 10.5571 356.783 0 360.674 L 0 354.411 z" fill="rgb(1,130,94)" transform="translate(0,0)"></path>
<path d="M 0 284.07 C 47.7063 280.6 55.3449 283.388 96.7396 306.096 C 105.924 311.134 127.338 313.049 138.139 316.691 C 169.222 326.116 199.819 343.422 224.613 363.656 C 249.689 384.118 248.609 399.901 258.725 427.662 C 263.2 439.942 280.376 454.928 278.717 472.296 C 278.458 513.675 259.03 588.224 234.225 620.789 C 223.375 635.034 194.627 649.362 181.092 662.676 C 171.139 672.056 164.365 685.221 157.155 696.459 C 137.967 726.364 110.017 748.413 72.9152 747.944 C 49.3133 747.647 23.4433 752.775 0 753.204 L 0 743.051 L 0 731.628 L 0 713.305 L 0 706.703 C 0.721727 707.041 1.45387 707.357 2.19536 707.649 C 31.266 719.223 72.6894 708.296 100.144 696.478 C 113.447 687.983 118.418 684.249 129.526 673.107 C 140.522 661.894 150.005 649.834 161.929 638.489 C 173.7 627.29 191.224 612.523 200.907 600.445 C 221.414 574.867 248.745 525.467 245.707 492.216 C 243.888 472.317 235.678 460.969 227.53 444.229 C 216.07 420.685 208.301 397.343 187.237 380.065 C 160.282 357.955 129.287 357.195 98.4736 347.391 C 78.7333 341.11 61.2232 330.503 38.9667 326.831 C 22.722 324.151 16.6422 323.357 0 324.943 L 0 317.358 L 0 313.337 L 0 303.58 L 0 284.07 z" fill="rgb(2,34,28)" transform="translate(0,0)"></path>
<path d="M 0 313.337 C 15.0826 312.512 34.2414 306.12 47.8145 307.783 C 65.6696 309.969 85.7211 324.905 102.623 331.009 C 134.982 342.304 166.786 341.594 193.072 365.906 C 226.125 396.477 259.426 441.43 259.173 488.788 C 258.989 523.315 244.16 579.822 219.491 605.227 C 200.513 624.771 179.07 639.134 159.511 657.876 C 138.169 678.501 123.582 713.974 94.8079 725.155 C 86.4386 728.407 70.1351 727.273 60.8619 728.561 C 38.5709 731.658 22.6027 735.227 0 731.628 L 0 713.305 L 0 706.703 C 0.721727 707.041 1.45387 707.357 2.19536 707.649 C 31.266 719.223 72.6894 708.296 100.144 696.478 C 113.447 687.983 118.418 684.249 129.526 673.107 C 140.522 661.894 150.005 649.834 161.929 638.489 C 173.7 627.29 191.224 612.523 200.907 600.445 C 221.414 574.867 248.745 525.467 245.707 492.216 C 243.888 472.317 235.678 460.969 227.53 444.229 C 216.07 420.685 208.301 397.343 187.237 380.065 C 160.282 357.955 129.287 357.195 98.4736 347.391 C 78.7333 341.11 61.2232 330.503 38.9667 326.831 C 22.722 324.151 16.6422 323.357 0 324.943 L 0 317.358 L 0 313.337 z" fill="rgb(2,34,28)" transform="translate(0,0)"></path>
<path d="M 0 317.358 C 10.85 317.72 43.6668 317.524 51.9211 320.379 C 82.4527 331.023 102.549 345.613 136.205 348.943 C 156.521 350.953 187.068 367.397 200.862 383.007 C 220.172 404.857 238.657 441.587 249.745 468.817 C 256.854 488.777 250.579 513.718 246.161 532.683 C 238.949 563.639 219.184 596.5 193.54 615.89 C 176.305 628.92 150.982 661.316 135.884 671.166 L 129.526 673.107 C 140.522 661.894 150.005 649.834 161.929 638.489 C 173.7 627.29 191.224 612.523 200.907 600.445 C 221.414 574.867 248.745 525.467 245.707 492.216 C 243.888 472.317 235.678 460.969 227.53 444.229 C 216.07 420.685 208.301 397.343 187.237 380.065 C 160.282 357.955 129.287 357.195 98.4736 347.391 C 78.7333 341.11 61.2232 330.503 38.9667 326.831 C 22.722 324.151 16.6422 323.357 0 324.943 L 0 317.358 z" fill="rgb(1,130,94)" transform="translate(0,0)"></path>
<path d="M 0 706.703 C 0.721727 707.041 1.45387 707.357 2.19536 707.649 C 31.266 719.223 72.6894 708.296 100.144 696.478 L 103.699 696.637 C 100.44 703.171 82.1531 707.741 81.0557 712.394 C 53.1842 723.107 27.7809 722.376 0 713.305 L 0 706.703 z" fill="rgb(1,130,94)" transform="translate(0,0)"></path>
<path d="M 129.526 673.107 L 135.884 671.166 C 124.379 683.557 97.8593 708.085 81.0557 712.394 C 82.1531 707.741 100.44 703.171 103.699 696.637 L 100.144 696.478 C 113.447 687.983 118.418 684.249 129.526 673.107 z" fill="rgb(2,124,89)" transform="translate(0,0)"></path>
<path d="M 0 303.58 C 54.4589 288.605 90.0247 313.982 140.004 332.397 C 154.159 337.611 177.086 342.689 188.916 349.823 C 208.831 361.834 229.249 381.199 239.027 402.655 C 242.809 410.954 246.05 419.163 249.858 427.186 C 253.583 435.034 264.765 447.522 266.376 456.464 C 275.027 504.486 257.952 559.055 234.587 600.393 C 222.42 627.89 192.918 635.775 173.781 655.507 C 149.634 680.404 135.256 727.825 95.9345 735.284 C 66.7227 740.826 30.7286 740.271 0 743.051 L 0 731.628 C 22.6027 735.227 38.5709 731.658 60.8619 728.561 C 70.1351 727.273 86.4386 728.407 94.8079 725.155 C 123.582 713.974 138.169 678.501 159.511 657.876 C 179.07 639.134 200.513 624.771 219.491 605.227 C 244.16 579.822 258.989 523.315 259.173 488.788 C 259.426 441.43 226.125 396.477 193.072 365.906 C 166.786 341.594 134.982 342.304 102.623 331.009 C 85.7211 324.905 65.6696 309.969 47.8145 307.783 C 34.2414 306.12 15.0826 312.512 0 313.337 L 0 303.58 z" fill="rgb(1,130,94)" transform="translate(0,0)"></path>
<path d="M 0 250.896 C 19.97 251.411 67.8432 258.846 85.4152 269.687 C 99.533 278.397 100.516 284.312 120.983 292.378 C 124.164 292.679 129.142 291.55 132.475 290.952 C 146.176 292.953 169.279 292.626 179.28 301.342 C 196.971 312.322 203.876 324.348 225.15 332.477 C 253.274 343.224 263.332 383.875 280.623 405.834 L 278.746 407.085 L 279.056 407.708 C 280.405 410.468 280.859 411.854 281.763 414.779 C 292.196 429.421 302.169 441.2 306.464 459.06 C 312.613 484.631 299.299 505.315 293.701 529.555 C 290.195 544.737 289.742 560.843 285.404 575.824 C 276.071 594.836 269.03 596.686 259.129 612.113 C 252.929 621.774 254.352 636.215 241.777 648.534 C 221 668.887 194.719 667.169 180.859 694.036 C 178.025 702.446 175.303 710.895 172.697 719.379 C 169.737 725.878 166.415 733.732 162.438 739.511 L 161.986 740.176 C 154.211 751.452 128.605 753.263 116.327 757.42 C 103.385 761.801 91.2555 768.452 77.8611 771.237 C 67.0531 773.147 49.8727 768.753 38.6504 768.53 C 26.2337 768.283 11.8987 773.412 0 777.209 L 0 772.126 L 0 764.901 L 0 758.12 L 0 753.204 C 23.4433 752.775 49.3133 747.647 72.9152 747.944 C 110.017 748.413 137.967 726.364 157.155 696.459 C 164.365 685.221 171.139 672.056 181.092 662.676 C 194.627 649.362 223.375 635.034 234.225 620.789 C 259.03 588.224 278.458 513.675 278.717 472.296 C 280.376 454.928 263.2 439.942 258.725 427.662 C 248.609 399.901 249.689 384.118 224.613 363.656 C 199.819 343.422 169.222 326.116 138.139 316.691 C 127.338 313.049 105.924 311.134 96.7396 306.096 C 55.3449 283.388 47.7063 280.6 0 284.07 L 0 273.108 L 0 267.712 L 0 258.754 L 0 250.896 z" fill="rgb(2,34,28)" transform="translate(0,0)"></path>
<path d="M 0 267.712 C 47.361 268.596 66.7505 273.051 107.294 297.683 C 123.51 303.581 141.57 306.394 158.173 311.106 C 171.976 315.023 178.047 323.337 188.591 328.533 C 214.996 341.544 225.554 345.619 243.493 369.453 C 251.569 381.933 255.36 394.868 261.695 407.473 C 277.858 439.638 296.167 443.164 295.762 483.219 C 296.344 486.47 295.268 489.864 297.163 491.843 L 298.129 491.576 C 296.055 503.142 288.734 520.536 287.39 528.437 C 279.919 572.375 284.533 572.303 255.732 605.856 L 253.332 604.507 C 248.005 613.32 241.854 629.901 236.407 635.801 C 217.418 656.365 201.149 652.698 181.766 677.035 C 167.22 695.299 160.031 721.462 145.418 735.174 C 138.154 741.99 101.275 752.681 90.4407 756.052 C 72.2975 761.697 52.9284 757.02 34.5756 757.128 C 24.7691 757.186 9.68884 761.934 0 764.901 L 0 758.12 L 0 753.204 C 23.4433 752.775 49.3133 747.647 72.9152 747.944 C 110.017 748.413 137.967 726.364 157.155 696.459 C 164.365 685.221 171.139 672.056 181.092 662.676 C 194.627 649.362 223.375 635.034 234.225 620.789 C 259.03 588.224 278.458 513.675 278.717 472.296 C 280.376 454.928 263.2 439.942 258.725 427.662 C 248.609 399.901 249.689 384.118 224.613 363.656 C 199.819 343.422 169.222 326.116 138.139 316.691 C 127.338 313.049 105.924 311.134 96.7396 306.096 C 55.3449 283.388 47.7063 280.6 0 284.07 L 0 273.108 L 0 267.712 z" fill="rgb(4,190,138)" transform="translate(0,0)"></path>
<path d="M 0 273.108 C 44.5563 272.657 58.245 278.309 97.5654 299.826 C 107.96 305.515 133.816 309.343 146.243 313.811 C 176.152 324.564 206.424 338.821 229.54 360.932 C 248.68 379.239 254.648 398.536 263.628 422.416 C 270.682 439.475 285.924 453.768 284.185 475.227 C 281.91 503.302 276.123 542.311 268.912 569.636 C 264.718 585.529 245.703 614.407 235.927 628.043 C 224.557 640.405 200.043 650.294 188.423 663.336 C 161.942 693.532 153.883 731.847 110.557 744.533 C 97.3726 748.394 81.46 755.049 67.1149 753.48 C 42.2993 750.767 24.1713 754.65 0 758.12 L 0 753.204 C 23.4433 752.775 49.3133 747.647 72.9152 747.944 C 110.017 748.413 137.967 726.364 157.155 696.459 C 164.365 685.221 171.139 672.056 181.092 662.676 C 194.627 649.362 223.375 635.034 234.225 620.789 C 259.03 588.224 278.458 513.675 278.717 472.296 C 280.376 454.928 263.2 439.942 258.725 427.662 C 248.609 399.901 249.689 384.118 224.613 363.656 C 199.819 343.422 169.222 326.116 138.139 316.691 C 127.338 313.049 105.924 311.134 96.7396 306.096 C 55.3449 283.388 47.7063 280.6 0 284.07 L 0 273.108 z" fill="rgb(1,130,94)" transform="translate(0,0)"></path>
<path d="M 253.332 604.507 C 257.838 595.67 269.475 584.256 273.533 573.691 C 278.365 561.109 277.877 547.471 280.547 535.144 C 283.642 523.621 287.904 512.522 291.421 501.07 C 293.103 495.594 294.064 487.94 295.762 483.219 C 296.344 486.47 295.268 489.864 297.163 491.843 L 298.129 491.576 C 296.055 503.142 288.734 520.536 287.39 528.437 C 279.919 572.375 284.533 572.303 255.732 605.856 L 253.332 604.507 z" fill="rgb(1,130,94)" transform="translate(0,0)"></path>
<path d="M 253.332 604.507 L 255.732 605.856 L 255.254 606.747 C 250.306 616.216 248.241 631.998 242.424 639.876 C 226.731 661.132 199.827 660.569 181.774 682.227 C 168.397 698.276 162.061 726.157 147.99 738.028 C 139.305 745.354 105.849 754.698 94.0181 759.472 C 72.6662 768.089 52.2769 760.206 31.2772 761.711 C 22.561 762.335 8.44807 768.673 0 772.126 L 0 764.901 C 9.68884 761.934 24.7691 757.186 34.5756 757.128 C 52.9284 757.02 72.2975 761.697 90.4407 756.052 C 101.275 752.681 138.154 741.99 145.418 735.174 C 160.031 721.462 167.22 695.299 181.766 677.035 C 201.149 652.698 217.418 656.365 236.407 635.801 C 241.854 629.901 248.005 613.32 253.332 604.507 z" fill="rgb(1,130,94)" transform="translate(0,0)"></path>
<path d="M 0 258.754 C 28.5886 260.483 66.9193 265.916 91.9411 279.648 C 101.705 285.006 110.035 294.489 121.86 299.034 C 137.491 305.043 151.978 303.408 167.699 308.012 C 176.839 310.688 181.535 319.449 189.102 324.243 C 205.486 334.624 223.853 339.753 236.754 355.182 C 238.447 357.206 242.286 361.8 243.614 363.991 L 243.493 369.453 C 225.554 345.619 214.996 341.544 188.591 328.533 C 178.047 323.337 171.976 315.023 158.173 311.106 C 141.57 306.394 123.51 303.581 107.294 297.683 C 66.7505 273.051 47.361 268.596 0 267.712 L 0 258.754 z" fill="rgb(1,130,94)" transform="translate(0,0)"></path>
<path d="M 243.614 363.991 C 251.343 374.632 254.864 384.104 260.184 395.888 C 275.46 429.723 305.954 442.836 299.272 485.356 C 298.939 487.438 298.557 489.512 298.129 491.576 L 297.163 491.843 C 295.268 489.864 296.344 486.47 295.762 483.219 C 296.167 443.164 277.858 439.638 261.695 407.473 C 255.36 394.868 251.569 381.933 243.493 369.453 L 243.614 363.991 z" fill="rgb(1,130,94)" transform="translate(0,0)"></path>
<path d="M 179.28 301.342 C 196.971 312.322 203.876 324.348 225.15 332.477 C 253.274 343.224 263.332 383.875 280.623 405.834 L 278.746 407.085 L 279.056 407.708 C 280.405 410.468 280.859 411.854 281.763 414.779 C 270.611 401.691 262.983 382.367 254.138 367.065 C 237.909 338.989 202.857 322.986 175.068 303.783 C 177.206 304.257 178.031 304.569 180.186 304.397 L 179.28 301.342 z" fill="rgb(1,130,94)" transform="translate(0,0)"></path>
<path d="M 132.475 290.952 C 146.176 292.953 169.279 292.626 179.28 301.342 L 180.186 304.397 C 178.031 304.569 177.206 304.257 175.068 303.783 C 159.032 295.904 139.988 296.854 120.983 292.378 C 124.164 292.679 129.142 291.55 132.475 290.952 z" fill="rgb(2,124,89)" transform="translate(0,0)"></path>
<path d="M 0 235.664 C 22.2868 237.307 49.4472 244.065 72.0808 246.626 C 77.989 247.295 87.744 252.515 92.8722 255.516 C 105.019 263.034 114.578 272.984 127.479 279.368 C 135.635 283.405 149.457 281.635 157.469 285.333 C 188.466 299.641 228.529 318.62 251.988 343.813 C 264.74 357.508 272.104 375.437 282.642 390.622 C 305.358 421.799 325.403 437.287 322.408 479.491 C 320.902 500.705 310.692 512.139 304.941 532.145 C 299.712 550.332 300.976 566.407 294.309 584.675 C 288.934 599.404 275.5 605.951 271.471 613.689 C 263.433 630.841 266.739 647.856 249.273 660.989 C 231.799 674.128 212.657 678.167 197.418 695.247 C 177.957 717.059 191.199 748.212 159.932 761.097 C 146.921 766.459 134.205 769.215 120.677 772.91 C 112.629 775.201 89.5237 786.927 83.0408 786.555 C 48.1907 784.552 34.0012 783.46 0 793.372 L 0 785.913 L 0 777.209 C 11.8987 773.412 26.2337 768.283 38.6504 768.53 C 49.8727 768.753 67.0531 773.147 77.8611 771.237 C 91.2555 768.452 103.385 761.801 116.327 757.42 C 128.605 753.263 154.211 751.452 161.986 740.176 L 162.438 739.511 C 166.415 733.732 169.737 725.878 172.697 719.379 C 175.303 710.895 178.025 702.446 180.859 694.036 C 194.719 667.169 221 668.887 241.777 648.534 C 254.352 636.215 252.929 621.774 259.129 612.113 C 269.03 596.686 276.071 594.836 285.404 575.824 C 289.742 560.843 290.195 544.737 293.701 529.555 C 299.299 505.315 312.613 484.631 306.464 459.06 C 302.169 441.2 292.196 429.421 281.763 414.779 C 280.859 411.854 280.405 410.468 279.056 407.708 L 278.746 407.085 L 280.623 405.834 C 263.332 383.875 253.274 343.224 225.15 332.477 C 203.876 324.348 196.971 312.322 179.28 301.342 C 169.279 292.626 146.176 292.953 132.475 290.952 C 129.142 291.55 124.164 292.679 120.983 292.378 C 100.516 284.312 99.533 278.397 85.4152 269.687 C 67.8432 258.846 19.97 251.411 0 250.896 L 0 244.644 L 0 235.664 z" fill="rgb(4,190,138)" transform="translate(0,0)"></path>
<path d="M 180.859 694.036 C 180.644 697.294 179.835 703.501 180.923 706.234 L 178.701 714.824 C 175.492 728.194 171.714 745.594 159.071 753.186 C 147.041 760.409 129.218 760.857 116.099 765.636 C 103.12 770.365 97.09 778.112 82.0526 778.822 C 67.1745 779.525 52.0345 774.461 37.6116 776.371 C 24.7727 778.072 13.3126 784.26 0 785.913 L 0 777.209 C 11.8987 773.412 26.2337 768.283 38.6504 768.53 C 49.8727 768.753 67.0531 773.147 77.8611 771.237 C 91.2555 768.452 103.385 761.801 116.327 757.42 C 128.605 753.263 154.211 751.452 161.986 740.176 L 162.438 739.511 C 166.415 733.732 169.737 725.878 172.697 719.379 C 175.303 710.895 178.025 702.446 180.859 694.036 z" fill="rgb(1,130,94)" transform="translate(0,0)"></path>
<path d="M 280.623 405.834 C 300.188 428.214 316.392 445.614 315.594 478.994 C 315.195 495.688 303.775 510.341 298.57 526.402 C 294.52 538.902 293.393 575.456 286.405 583.165 L 285.407 582.755 L 282.941 585.916 C 284.138 582.377 284.667 579.486 285.404 575.824 C 289.742 560.843 290.195 544.737 293.701 529.555 C 299.299 505.315 312.613 484.631 306.464 459.06 C 302.169 441.2 292.196 429.421 281.763 414.779 C 280.859 411.854 280.405 410.468 279.056 407.708 L 278.746 407.085 L 280.623 405.834 z" fill="rgb(1,130,94)" transform="translate(0,0)"></path>
<path d="M 0 244.644 C 17.5125 243.075 33.2912 248.662 50.2327 252.303 C 63.7829 255.215 80.2218 256.175 92.1866 263.604 C 105.578 271.92 116.676 286.781 132.475 290.952 C 129.142 291.55 124.164 292.679 120.983 292.378 C 100.516 284.312 99.533 278.397 85.4152 269.687 C 67.8432 258.846 19.97 251.411 0 250.896 L 0 244.644 z" fill="rgb(1,130,94)" transform="translate(0,0)"></path>
<path d="M 285.404 575.824 C 284.667 579.486 284.138 582.377 282.941 585.916 L 285.407 582.755 L 286.405 583.165 C 279.388 598.508 270.989 599.178 265.383 608.213 C 257.372 621.121 257.297 639.745 244.248 652.563 C 221.229 675.173 192.346 671.195 180.923 706.234 C 179.835 703.501 180.644 697.294 180.859 694.036 C 194.719 667.169 221 668.887 241.777 648.534 C 254.352 636.215 252.929 621.774 259.129 612.113 C 269.03 596.686 276.071 594.836 285.404 575.824 z" fill="rgb(2,124,89)" transform="translate(0,0)"></path>
<path d="M 2037.23 451.432 C 2040.59 453.534 2044.48 455.537 2048 457.442 L 2048 557.294 C 2035.98 577.336 2024.88 598.002 2013.06 618.177 C 1993.93 650.844 1974.69 683.357 1956.97 716.826 C 1956.85 692.299 1959.8 663.435 1960.46 638.388 C 1960.77 626.228 1962.18 596.62 1964.14 586.185 C 1965.19 580.626 1981.47 551.681 1985.46 544.385 C 2002.42 513.234 2019.67 482.249 2037.23 451.432 z" fill="rgb(7,164,107)" transform="translate(0,0)"></path>
<path d="M 2048 566.466 L 2048 691.007 C 2033.64 715.403 2017.03 744.733 2003.83 769.62 C 1987.41 772.442 1970.54 774.772 1953.94 777.593 C 1954.73 763.345 1955.24 749.096 1955.98 734.845 C 1956.56 723.602 1961.98 714.37 1967.6 704.916 C 1994.82 659.125 2020.3 611.926 2048 566.466 z" fill="rgb(7,164,107)" transform="translate(0,0)"></path>
<path d="M 2048 699.232 L 2048 755.947 C 2044.28 757.562 2037.01 761.71 2033.16 763.754 L 2011.61 762.803 C 2023.46 744.485 2037.11 718.59 2048 699.232 z" fill="rgb(7,164,107)" transform="translate(0,0)"></path>
<path d="M 2039.61 448.34 C 2042.49 445.967 2045.1 444.056 2048 441.792 L 2048 453.678 C 2045.13 451.707 2042.54 450.168 2039.61 448.34 z" fill="rgb(7,164,107)" transform="translate(0,0)"></path>
<path d="M 587.204 246.223 C 605.078 244.691 622.455 245.88 637.661 256.345 C 671.791 279.833 666.927 324.046 666.963 359.843 L 666.997 453.461 L 666.921 552.15 C 666.835 599.423 672.097 661.231 610.983 672.749 C 593.594 675.653 576.006 672.932 561.315 663.103 C 526.817 640.019 530.585 596.559 530.409 560.914 L 530.545 459.998 C 530.394 426.549 530.413 393.099 530.6 359.65 C 530.943 311.224 526.471 257.951 587.204 246.223 z" fill="rgb(244,243,242)" transform="translate(0,0)"></path>
<path d="M 595.791 297.738 L 596.675 297.785 C 604.158 298.225 607.938 300.6 608.282 308.637 C 609.287 332.158 608.917 355.863 608.946 379.421 L 609.017 500.431 L 609.012 574.349 C 609.009 586.379 609.163 598.852 608.802 610.885 C 608.658 615.661 605.886 617.777 602.418 620.55 C 596.053 621.067 590.44 618.714 590.16 611.384 C 589.745 600.535 589.945 589.541 589.936 578.671 L 589.885 512.941 L 589.785 316.187 C 589.864 306.192 588.948 304.462 595.791 297.738 z" fill="rgb(2,34,28)" transform="translate(0,0)"></path>
<path d="M 1430.52 246.17 C 1449.71 244.851 1466.3 245.487 1482.46 257.038 C 1516.13 281.12 1510.95 326.738 1510.88 362.553 L 1510.91 451.072 L 1510.97 551.65 C 1510.98 570.234 1511.55 589.096 1510.07 607.605 C 1507.56 639.039 1487.2 667.502 1454.86 672.714 C 1438 675.361 1421.67 672.86 1407.21 663.809 C 1369.24 640.023 1375.34 588.837 1375.31 550.887 L 1375.25 439.881 L 1375.22 359.269 C 1375.22 311.501 1371.46 258.981 1430.52 246.17 z" fill="rgb(244,243,242)" transform="translate(0,0)"></path>
<path d="M 1440.86 297.703 C 1446.01 298.316 1447.87 298.693 1451.17 302.689 C 1453.62 313.632 1452.8 362.629 1452.8 375.856 L 1452.7 536.832 L 1452.64 586.972 C 1452.66 595.025 1452.99 604.389 1452.26 612.404 C 1451.89 616.487 1449.21 618.377 1446.12 620.594 C 1441.3 620.577 1439.04 620 1435.58 616.864 C 1432.49 607.45 1433.9 552.24 1433.88 539.403 L 1433.73 415.064 L 1433.8 343.085 C 1433.84 331.628 1433.7 319.609 1434.14 308.146 C 1434.32 303.371 1437.39 300.565 1440.86 297.703 z" fill="rgb(2,34,28)" transform="translate(0,0)"></path>
<path d="M 378.263 250.88 C 400.039 250.905 422.008 250.712 443.781 250.625 C 470.49 250.518 490.876 255.89 503.836 281.501 C 507.81 289.525 510.487 298.128 511.766 306.99 C 515.005 328.537 514.899 397.767 507.924 419.403 C 503.027 434.595 495.162 440.916 481.659 447.711 C 493.409 453.358 502.385 461.266 507.682 473.417 C 516.963 494.71 513.324 581.519 513.353 611.485 C 513.366 624.271 512.084 638.886 515.708 651.212 C 517.81 658.359 521.164 662.111 526.234 667.305 C 516.375 669.48 506.317 670.625 496.222 670.72 C 463.116 670.954 454.268 661.299 454.23 627.914 C 454.211 611.082 454.141 593.413 454.149 576.5 C 454.029 546.794 455.616 510.871 453.034 480.948 C 452.612 476.053 442.47 472.782 437.675 474.537 C 436.115 477.868 437.134 654.281 437.151 669.069 L 378.129 669.111 L 378.263 250.88 z" fill="rgb(244,243,242)" transform="translate(0,0)"></path>
<path d="M 437.189 305.022 C 447.207 305.531 454.607 307.259 454.046 319.543 C 453.327 335.285 457.993 405.103 451.575 414.731 C 447.76 417.583 442.105 419.977 437.518 418.102 C 436.552 406.139 437.025 388.586 437.024 376.2 L 437.189 305.022 z" fill="rgb(2,34,28)" transform="translate(0,0)"></path>
<path d="M 1216.95 250.74 C 1236.45 250.598 1256.45 250.873 1275.97 250.943 L 1276.14 419.324 L 1295.81 419.258 L 1295.54 250.955 L 1355.4 250.977 C 1354.71 304.853 1355.32 359.854 1355.36 413.806 L 1355.15 668.97 L 1328.5 668.98 L 1295.78 668.979 L 1295.47 473.971 L 1276.03 473.937 L 1276.09 668.944 L 1216.93 669.036 L 1216.95 250.74 z" fill="rgb(244,243,242)" transform="translate(0,0)"></path>
<path d="M 841.357 250.917 C 860.249 250.49 880.241 250.816 899.216 250.817 L 899.187 295.485 C 900.597 312.006 899.121 409.291 901.075 412.632 L 901.647 412.722 C 911.642 361.35 923.975 302.447 931.994 250.948 L 987.923 250.839 L 958.814 399.22 C 956.946 409.121 948.73 444.034 949.098 451.424 C 949.785 465.261 956.615 495.445 959.413 510.389 C 969.125 563.449 979.379 616.408 990.176 669.258 L 934.65 669.346 C 927.186 625.846 919.398 582.402 911.288 539.018 C 908 521.203 904.45 496.808 900.607 479.921 C 899.223 494.589 899.699 515.922 899.633 531.018 C 899.485 560.742 899.508 590.465 899.702 620.188 C 899.758 627.849 900.493 662.652 899.351 669.012 L 841.762 669.048 L 841.357 250.917 z" fill="rgb(244,243,242)" transform="translate(0,0)"></path>
<path d="M 899.351 669.012 C 899.176 667.438 899.044 665.861 898.954 664.281 C 898.603 657.84 898.456 629.2 898.763 624.39 C 899.777 608.483 896.656 481.753 900.529 477.476 L 900.607 479.921 C 899.223 494.589 899.699 515.922 899.633 531.018 C 899.485 560.742 899.508 590.465 899.702 620.188 C 899.758 627.849 900.493 662.652 899.351 669.012 z" fill="rgb(153,152,158)" transform="translate(0,0)"></path>
<path d="M 899.187 295.485 C 900.597 312.006 899.121 409.291 901.075 412.632 L 901.647 412.722 C 901.319 416.311 901.133 416.934 899.893 420.292 C 898.707 418.354 898.742 304.883 899.187 295.485 z" fill="rgb(153,152,158)" transform="translate(0,0)"></path>
<path d="M 753.592 245.431 C 826.235 246.362 822.191 303.14 822.284 356.749 L 822.349 419.452 C 803.231 419.237 783.453 419.587 764.284 419.674 C 764.314 383.074 764.241 346.399 764.118 309.796 C 764.162 306.313 763.3 302.368 760.352 300.084 C 754.887 295.85 751.172 297.771 747.54 302.214 C 744.37 311.915 745.65 368.786 745.661 381.982 L 745.684 525.65 L 745.463 581.575 C 745.361 593.49 741.1 616.47 755.005 621.6 C 761.914 620.814 763.146 615.125 763.717 608.923 C 764.785 597.314 764.297 585.218 764.22 573.533 C 764.08 554.523 764.056 535.511 764.148 516.5 L 764.184 495.453 L 822.949 495.328 L 822.861 556.126 C 822.87 587.869 826.282 628.727 804.211 652.143 C 761.343 697.623 688.061 671.029 686.972 606.55 C 686.591 583.967 686.262 562.865 686.297 541.357 L 686.396 434.004 L 686.455 353.859 C 686.514 314.916 683.023 267.005 728.43 249.852 C 737.107 246.575 744.38 245.986 753.592 245.431 z" fill="rgb(244,243,242)" transform="translate(0,0)"></path>
<path d="M 1531.9 250.719 L 1574.9 250.635 C 1637.12 250.583 1666.53 257.007 1667.24 328.483 L 1667.37 402.913 C 1667.37 466.96 1670.16 508.466 1590.53 509 C 1589.91 535.884 1590.55 565.211 1590.61 592.282 L 1590.44 669.046 L 1531.89 669.165 L 1531.9 250.719 z" fill="rgb(244,243,242)" transform="translate(0,0)"></path>
<path d="M 1590.56 302.868 C 1596.56 303.185 1607.28 305.293 1607.48 312.676 C 1608.06 335.364 1613.69 438.784 1604.42 453.754 C 1601.42 456.086 1594.35 459.809 1591.12 456.784 C 1589.83 443.625 1590.61 417.381 1590.61 403.449 L 1590.56 302.868 z" fill="rgb(2,34,28)" transform="translate(0,0)"></path>
<path d="M 1130.04 245.445 C 1208.36 247.129 1198.11 317.149 1198 373.854 L 1141.96 373.551 C 1141.95 352.84 1142.36 331.93 1141.36 311.268 C 1140.97 303.067 1139.96 291.697 1128.55 294.559 C 1121.78 299.906 1122.56 314.067 1122.77 322.348 C 1123.13 336.65 1123.13 356.226 1126.35 369.988 C 1129.33 382.704 1138.58 397.446 1144.75 408.925 C 1160.46 438.473 1181.3 466.429 1192.01 498.263 C 1198.88 518.551 1199.97 538.001 1199.85 559.358 C 1199.64 595.496 1204.9 642.968 1169.61 665.808 C 1151.55 677.5 1127.63 674.923 1107.55 670.375 C 1060.93 654.159 1065.01 607.79 1065.1 567.849 L 1065.01 513.942 L 1122.99 513.972 C 1123 529.168 1120.48 614.696 1126.16 621.429 C 1127.68 623.232 1130.04 624.14 1132.38 624.095 C 1134.42 624.057 1136.1 623.283 1137.47 621.76 C 1143.79 614.696 1141.2 596.081 1141.05 586.995 C 1140.7 565.774 1143.84 542.632 1138.36 521.987 C 1134.22 506.398 1124.47 492.492 1115.84 479.086 C 1091.29 440.934 1067.13 402.213 1065.23 355.567 C 1064.04 326.165 1060.51 286.444 1082.18 263.386 C 1095.29 249.427 1111.84 246.186 1130.04 245.445 z" fill="rgb(244,243,242)" transform="translate(0,0)"></path>
<path d="M 2004.62 333.367 C 2006.97 332.797 2007.37 332.497 2009.48 333.379 C 2009.59 333.697 2009.69 334.016 2009.79 334.334 C 2007.01 390.631 2005.09 450.068 2000.79 506.007 C 2000.44 510.451 1984.82 537.023 1983.67 539.085 C 1976.95 551.289 1970.3 563.528 1963.71 575.801 C 1963.88 568.551 1964.49 560.989 1964.97 553.723 L 1960.49 547.564 C 1955.51 540.145 1935.42 511.146 1933.34 504.728 C 1930.69 496.557 1929.78 458.915 1929.25 447.87 L 1924.3 344.307 C 1944.66 342.988 1983.28 336.348 2004.62 333.367 z" fill="rgb(7,164,107)" transform="translate(0,0)"></path>
<path d="M 1958.62 557.178 L 1959.6 557.341 C 1961.05 559.543 1956.98 624.742 1956.62 632.472 L 1949.59 789.654 C 1919.33 794.758 1918.26 797.336 1889.24 787.599 L 1878.58 784.308 C 1882.47 769.167 1886.12 731.783 1888.59 714.071 C 1895.37 665.361 1901.2 616.282 1908.29 567.561 C 1925.22 564.917 1942.02 561.452 1958.62 557.178 z" fill="rgb(7,164,107)" transform="translate(0,0)"></path>
<path d="M 1768.33 441.436 C 1786.98 444.031 1805.67 446.302 1824.4 448.247 C 1833.4 477.225 1839.8 511.423 1847.86 541.233 C 1854.75 566.691 1862.44 595.58 1867.59 621.414 C 1868.42 625.589 1866.74 644.447 1866.33 649.754 L 1865.57 650.465 C 1863.34 650.43 1816.58 603.024 1810.68 597.155 C 1807.82 582.698 1802.95 568.516 1799.26 554.333 C 1789.7 517.58 1776.08 478.382 1768.33 441.436 z" fill="rgb(7,164,107)" transform="translate(0,0)"></path>
<path d="M 1872.53 334.453 C 1887.15 338.445 1905.31 341.67 1920.42 344.684 C 1922.04 394.049 1924.47 453.468 1928.09 502.796 C 1923.71 506.667 1918.47 512.406 1914.32 516.739 L 1898.8 532.209 C 1896 513.696 1887.44 491.6 1884.85 472.737 C 1882.97 459.028 1882.01 444.391 1880.67 430.538 C 1877.63 398.538 1874.92 366.508 1872.53 334.453 z" fill="rgb(7,164,107)" transform="translate(0,0)"></path>
<path d="M 1863.74 411.904 C 1866.57 415.147 1892.75 523.482 1895.67 535.08 C 1887.8 542.63 1879.76 551.346 1872.16 559.267 C 1871.92 565.773 1870.41 597.888 1868.57 602.643 L 1867.35 599.784 L 1828.48 448.036 C 1839.87 435.639 1851.63 423.59 1863.74 411.904 z" fill="rgb(7,164,107)" transform="translate(0,0)"></path>
<path d="M 1780.34 640.085 C 1784.27 640.62 1803.89 676.991 1807.01 682.93 C 1805.7 690.794 1803.54 699.414 1801.73 707.256 C 1807.9 723.932 1824.03 756.389 1832.02 773.617 C 1825.56 772.192 1817.86 771.143 1811.23 770.091 L 1795.65 768.321 C 1781.25 728.973 1764.66 686.857 1751.93 647.444 C 1761.93 645.12 1770.44 643.029 1780.34 640.085 z" fill="rgb(7,164,107)" transform="translate(0,0)"></path>
<path d="M 1887.04 549.576 C 1889.12 550.298 1901.46 564.885 1904.21 567.881 C 1896.24 624.548 1889.69 684.952 1880.77 740.934 L 1880.24 742.207 C 1876.63 740.328 1868.57 720.994 1866.3 716.044 C 1867.56 706.2 1867.96 695.452 1868.56 685.507 C 1871.04 644.029 1873.14 602.618 1876.09 561.164 C 1878.66 557.883 1883.97 552.729 1887.04 549.576 z" fill="rgb(7,164,107)" transform="translate(0,0)"></path>
<path d="M 1942.94 249.541 C 1946.47 251.967 1960.09 269.481 1963.55 273.534 C 1978.83 291.446 1993.68 311.313 2009.74 328.464 C 2000.43 330.124 1991.6 331.254 1982.23 332.443 C 1970.16 335.201 1937.83 338.983 1924.63 340.598 C 1931.16 310.333 1937.26 279.978 1942.94 249.541 z" fill="rgb(7,164,107)" transform="translate(0,0)"></path>
<path d="M 1838.85 703.378 C 1840.11 704.674 1863.99 784.213 1866.06 791.134 C 1856.97 787.917 1849.93 785.932 1840.62 783.477 C 1829.2 758.589 1817.64 734.106 1806.92 708.894 C 1817.59 707.2 1828.23 705.362 1838.85 703.378 z" fill="rgb(7,164,107)" transform="translate(0,0)"></path>
<path d="M 1937.77 253.764 C 1938.59 259.056 1922.83 329.493 1920.7 340.822 C 1908.71 338.329 1896.7 335.898 1884.68 333.527 L 1873.92 330.961 C 1878.55 324.779 1885.33 317.23 1890.36 310.975 C 1905.74 291.563 1921.55 272.488 1937.77 253.764 z" fill="rgb(7,164,107)" transform="translate(0,0)"></path>
<path d="M 1810.29 602.672 C 1819.47 608.196 1855.54 647.745 1866.08 658.457 C 1864.9 674.123 1864.03 689.812 1863.47 705.513 L 1862.93 706.526 C 1860.61 705.297 1851.94 685.849 1850.12 682.05 L 1839.71 679.163 C 1833.21 665.124 1827.01 651 1820.36 637.014 C 1814.78 625.27 1809.5 615.979 1810.29 602.672 z" fill="rgb(7,164,107)" transform="translate(0,0)"></path>
<path d="M 1796.47 370.63 C 1798.8 372.781 1820.44 436.335 1823.29 444.399 L 1797.14 440.9 C 1790.18 440.62 1775.44 438.408 1767.73 437.681 C 1774.25 420.05 1788.42 388.324 1796.47 370.63 z" fill="rgb(7,164,107)" transform="translate(0,0)"></path>
<path d="M 1801.68 370.001 C 1821.32 380.785 1839.95 396.685 1861.86 407.861 C 1856.28 413.473 1850.75 419.147 1845.29 424.881 L 1827.12 444.117 C 1818.82 419.802 1809.25 394.354 1801.68 370.001 z" fill="rgb(7,164,107)" transform="translate(0,0)"></path>
<path d="M 1805.06 615.763 C 1808.88 618.507 1830.93 669.51 1834.47 677.364 C 1828.27 674.489 1820.78 671.653 1814.37 669.053 L 1811.27 667.427 L 1809.63 668.386 L 1808.73 673.95 L 1807.61 674.013 C 1804.89 670.837 1789.47 644.654 1784.93 637.874 C 1791.84 630.799 1798.47 623.162 1805.06 615.763 z" fill="rgb(7,164,107)" transform="translate(0,0)"></path>
<path d="M 1930.04 509.566 C 1934.63 514.69 1953.97 545.021 1959.7 553.04 C 1950.97 554.907 1942.26 556.823 1933.56 558.788 C 1926.06 560.717 1916.61 562.448 1908.91 564.08 C 1916.27 546.666 1923.28 527.358 1930.04 509.566 z" fill="rgb(7,164,107)" transform="translate(0,0)"></path>
<path d="M 785.519 712.753 C 787.512 716.67 795.734 755.996 795.377 760.618 C 792.695 762.25 792.014 761.668 788.464 761.677 C 784.043 758.686 782.257 745.125 781.034 739.25 L 769.474 758.935 C 764.785 752.357 761.145 746.715 756.907 739.828 L 754.324 751.382 C 753.725 755.447 753.536 758.509 750.918 761.186 C 747.157 761.296 746.41 761.299 742.727 760.455 C 742.365 757.762 751.466 719.394 752.81 713.396 L 769.399 742.08 L 785.519 712.753 z" fill="rgb(242,190,117)" transform="translate(0,0)"></path>
<path d="M 1848.39 690.716 C 1850.59 692.592 1874.01 741.004 1878.44 748.628 L 1870.14 780.666 L 1869.32 783.25 C 1865 780.122 1846.25 711.546 1843.57 702.177 L 1848.39 690.716 z" fill="rgb(7,164,107)" transform="translate(0,0)"></path>
<path d="M 1430.75 715.257 C 1440.49 715.144 1440.85 716.233 1449.49 719.308 C 1448.47 721.316 1446.84 725.237 1445.55 726.725 C 1438.71 726.754 1432.5 721.735 1424.07 728.183 C 1413.04 736.621 1418.57 752.998 1432 753.877 C 1436.04 754.54 1443.2 749.482 1443.3 745.418 C 1443.39 741.885 1432.06 746.81 1431.79 742.004 C 1431.35 734.348 1432.96 735.741 1439.75 735.72 C 1442.17 735.723 1453.86 734.546 1454.1 737.418 C 1455.56 754.66 1437.43 769.739 1421.03 760.399 C 1398.79 747.732 1403.81 720.537 1430.75 715.257 z" fill="rgb(242,190,117)" transform="translate(0,0)"></path>
<path d="M 1571.71 709.163 C 1574.94 709.127 1578.19 708.609 1580.65 710.346 C 1581.59 718.073 1581.2 753.448 1580.6 761.498 C 1573.1 765.528 1574.22 756.567 1570.45 758.841 C 1564.8 762.249 1564.71 763.205 1557.64 763.154 C 1554.54 761.984 1552.28 760.902 1550.22 758.259 C 1547.15 754.221 1545.86 749.106 1546.64 744.093 C 1548.89 729.705 1560.36 731.367 1571.11 733.815 C 1572.15 728.46 1571.74 715.229 1571.71 709.163 z" fill="rgb(242,190,117)" transform="translate(0,0)"></path>
<path d="M 1562.95 739.426 C 1565.83 738.875 1568.78 739.934 1570.65 742.189 C 1572.52 744.444 1573.01 747.538 1571.94 750.262 C 1570.86 752.987 1568.39 754.91 1565.48 755.282 C 1561.18 755.832 1557.22 752.864 1556.53 748.58 C 1555.85 744.295 1558.69 740.242 1562.95 739.426 z" fill="rgb(2,34,28)" transform="translate(0,0)"></path>
<path d="M 1771.27 595.651 L 1773.74 592.108 C 1782.64 592.601 1797.89 596.427 1806.42 599.406 C 1807.49 599.78 1807.06 607.218 1805.94 609.032 C 1804.06 610.153 1804.02 610.265 1802.42 611.837 C 1802.04 614.744 1786.62 630.91 1783.49 634.247 C 1779.98 626.679 1768.14 601.604 1764.41 592.562 C 1764.39 592.493 1764.52 592.441 1764.6 592.4 C 1765.86 592.452 1769.83 594.857 1771.27 595.651 z" fill="rgb(7,164,107)" transform="translate(0,0)"></path>
<path d="M 1771.27 595.651 L 1773.74 592.108 C 1782.64 592.601 1797.89 596.427 1806.42 599.406 C 1807.49 599.78 1807.06 607.218 1805.94 609.032 C 1804.06 610.153 1804.02 610.265 1802.42 611.837 C 1792.74 607.184 1780.99 600.747 1771.27 595.651 z" fill="rgb(7,164,107)" transform="translate(0,0)"></path>
<path d="M 1771.27 595.651 L 1773.74 592.108 C 1777.05 595.032 1800.3 606.291 1805.94 609.032 C 1804.06 610.153 1804.02 610.265 1802.42 611.837 C 1792.74 607.184 1780.99 600.747 1771.27 595.651 z" fill="rgb(2,34,28)" transform="translate(0,0)"></path>
<path d="M 409.336 715.133 C 415.288 714.778 436.879 713.696 429.353 725.2 C 426.395 729.721 410.917 718.29 402.836 731.61 C 400.839 734.84 400.283 738.757 401.303 742.415 C 405.211 756.089 418.25 754.415 428.535 750.883 C 431.751 756.942 434.23 758.406 426.706 760.933 C 413.035 765.971 394.335 760.02 390.65 744.586 C 386.974 729.193 395.681 719.351 409.336 715.133 z" fill="rgb(242,190,117)" transform="translate(0,0)"></path>
<path d="M 580.006 732.11 C 586.206 731.647 589.047 731.478 594.631 734.47 C 594.199 734.238 604.15 731.95 604.131 734.627 C 604.069 743.133 605.024 753.029 603.611 761.308 C 603.314 763.044 596.057 761.519 593.884 759.851 C 591.267 759.564 588.392 764.255 581.005 762.612 C 577.178 761.76 573.869 759.371 571.858 756.005 C 565.897 746.121 571.28 737.378 580.006 732.11 z" fill="rgb(242,190,117)" transform="translate(0,0)"></path>
<path d="M 585.955 739.8 C 590.051 738.924 594.093 741.488 595.047 745.565 C 596.001 749.643 593.515 753.734 589.457 754.766 C 586.762 755.451 583.906 754.627 581.991 752.611 C 580.075 750.594 579.398 747.701 580.221 745.044 C 581.043 742.387 583.236 740.382 585.955 739.8 z" fill="rgb(2,34,28)" transform="translate(0,0)"></path>
<path d="M 948.825 732.054 C 951.977 731.886 958.736 731.428 960.974 733.338 C 962.622 735.874 974.815 731.046 972.951 736.953 C 971.582 741.29 976.103 762.297 970.012 762.015 C 966.019 761.83 965.121 762.047 962.728 759.249 C 962.495 759.141 962.26 759.037 962.024 758.938 C 957.636 761.41 952.736 764.42 947.497 761.831 C 933.382 754.854 936.686 738.098 948.825 732.054 z" fill="rgb(242,190,117)" transform="translate(0,0)"></path>
<path d="M 953.188 739.825 C 957.141 738.073 961.765 739.863 963.508 743.821 C 965.25 747.778 963.448 752.398 959.487 754.13 C 955.539 755.857 950.939 754.063 949.203 750.12 C 947.466 746.176 949.249 741.572 953.188 739.825 z" fill="rgb(2,34,28)" transform="translate(0,0)"></path>
<path d="M 1138.5 713.488 C 1147.02 713.491 1141.91 722.674 1142.29 722.555 C 1139.65 723.391 1128.65 722.992 1124.96 723.005 C 1124.9 744.067 1126.69 731.436 1141.31 735.69 C 1142.28 735.972 1142.24 742.078 1142 742.532 C 1139.16 747.842 1124.7 739.396 1124.7 747.75 C 1124.67 751.764 1125.01 757.204 1124.07 760.993 C 1123.69 762.534 1114.86 762.028 1114.8 761.109 C 1113.85 745.782 1114.33 729.333 1114.37 713.762 L 1138.5 713.488 z" fill="rgb(242,190,117)" transform="translate(0,0)"></path>
<path d="M 1516.08 732.147 C 1539.27 730.188 1544.82 752.884 1528.64 761.172 L 1526.4 762.305 C 1505.08 765.77 1494.68 744.42 1516.08 732.147 z" fill="rgb(242,190,117)" transform="translate(0,0)"></path>
<path d="M 1518.7 738.658 C 1530.08 741.072 1530.38 748.438 1523.27 756.226 C 1513.67 754.579 1510.51 747.024 1517.12 740.296 C 1517.66 739.759 1518.18 739.213 1518.7 738.658 z" fill="rgb(2,34,28)" transform="translate(0,0)"></path>
<path d="M 1165.98 732.191 C 1189.02 731.429 1194.13 753.991 1173.06 762.767 C 1169.11 762.888 1166.84 763.159 1163.01 761.785 C 1159.03 760.336 1155.8 757.344 1154.06 753.485 C 1149.33 742.928 1157.3 736.008 1165.98 732.191 z" fill="rgb(242,190,117)" transform="translate(0,0)"></path>
<path d="M 1168.43 739.964 C 1172.53 739.446 1176.28 742.328 1176.83 746.421 C 1177.38 750.514 1174.53 754.287 1170.44 754.873 C 1166.3 755.465 1162.48 752.573 1161.92 748.432 C 1161.36 744.291 1164.28 740.489 1168.43 739.964 z" fill="rgb(2,34,28)" transform="translate(0,0)"></path>
<path d="M 1759.11 592.663 C 1763.04 597.41 1777.11 629.119 1780.61 636.4 C 1775.68 637.677 1771.3 638.814 1766.26 639.794 C 1760.86 640.663 1754.9 642.373 1749.59 643.718 C 1753.51 626.489 1755.45 609.17 1759.11 592.663 z" fill="rgb(7,164,107)" transform="translate(0,0)"></path>
<path d="M 884.529 731.177 C 892.328 731.743 901.919 735.382 901.718 745.503 C 901.665 748.198 883.055 750.489 880.207 752.272 C 878.011 756.511 891.597 754.074 893.343 754.92 L 893.885 755.187 C 894.222 756.416 895.484 759.777 894.846 760.31 C 891.833 763.016 878.985 763.486 876.005 760.95 C 861.35 748.48 868.632 735.041 884.529 731.177 z" fill="rgb(242,190,117)" transform="translate(0,0)"></path>
<path d="M 881.668 738.636 C 886.849 738.765 896.634 742.054 887.746 744.591 C 880.272 746.397 873.758 748.281 881.668 738.636 z" fill="rgb(2,34,28)" transform="translate(0,0)"></path>
<path d="M 1602.96 732.181 C 1612.43 731.248 1620.54 731.689 1624.65 742.347 C 1626.98 748.381 1616.01 749.051 1611.99 749.888 C 1605.7 751.196 1600.63 754.544 1610.51 755.03 C 1613.14 755.179 1612.78 753.616 1616.44 754.813 C 1619.29 761.064 1620.18 761.744 1611.01 762.399 C 1589.83 763.913 1583.86 743.089 1602.96 732.181 z" fill="rgb(242,190,117)" transform="translate(0,0)"></path>
<path d="M 1606.91 737.546 C 1616.84 741.06 1617.2 743.63 1607.24 745.9 C 1596.03 748.776 1602.2 741.077 1606.91 737.546 z" fill="rgb(2,34,28)" transform="translate(0,0)"></path>
<path d="M 1479.49 731.17 C 1492.66 732.309 1506.1 745.179 1489.82 748.551 C 1487.71 748.988 1476.26 751.759 1475.79 752.65 C 1476.61 756.916 1484.79 753.118 1489.5 754.743 C 1489.81 757.131 1491.12 760.487 1487.73 761.577 C 1472.38 766.508 1459.22 755.172 1465.94 739.472 C 1468.03 734.58 1474.29 732.444 1479.49 731.17 z" fill="rgb(242,190,117)" transform="translate(0,0)"></path>
<path d="M 1476.84 738.679 C 1483.73 738.8 1491.6 742.739 1481.79 745.048 C 1473.21 747.131 1469.9 747.862 1476.84 738.679 z" fill="rgb(2,34,28)" transform="translate(0,0)"></path>
<path d="M 468.27 733.368 C 469.505 733.322 477.194 732.927 477.506 733.313 C 480.606 737.15 483.956 747.74 485.84 752.271 C 487.774 746.752 490.058 739.761 492.639 734.638 C 493.254 733.419 501.02 733.581 501.809 734.663 C 501.99 736.025 492.87 753.689 491.422 756.745 C 489.074 761.956 485.584 770.413 482.56 775.281 C 481.004 776.453 478.149 775.332 476.448 775.771 C 469.104 777.668 478.365 763.975 479.811 761.2 C 477.239 756.402 469.356 738.364 468.27 733.368 z" fill="rgb(242,190,117)" transform="translate(0,0)"></path>
<path d="M 847.021 732.127 C 854.568 732.518 859.748 734.553 858.397 741.988 C 856.302 749.861 864.068 765.181 849.999 761.697 C 844.095 760.234 855.014 728.857 838.536 743.428 C 836.999 749.906 838.24 754.903 837.135 761.056 C 836.921 762.244 828.67 761.979 828.421 761.212 C 827.274 757.424 828.018 753.681 827.861 749.503 C 828.195 747.914 827.19 734.763 828.546 734.175 C 836.944 730.532 838.204 737.956 837.705 737.702 C 839.304 737.011 841.455 734.391 847.021 732.127 z" fill="rgb(242,190,117)" transform="translate(0,0)"></path>
<path d="M 1923.47 513.983 C 1923.68 517.897 1907.89 556.456 1905.38 563.338 L 1899.25 556.149 C 1895.54 552.34 1893.56 550.469 1889.49 547.007 C 1898.73 538.323 1914.73 520.512 1923.47 513.983 z" fill="rgb(7,164,107)" transform="translate(0,0)"></path>
<path d="M 1812.48 671.651 C 1818.44 676.248 1831.72 692.383 1836.61 699.489 C 1836.66 699.564 1836.5 699.857 1836.46 699.89 C 1834.96 701.084 1830.28 701.648 1828.24 702.122 C 1822.68 702.546 1811.75 704.514 1806.23 705.475 C 1809.02 692.709 1810.21 684.182 1812.48 671.651 z" fill="rgb(7,164,107)" transform="translate(0,0)"></path>
<path d="M 645.897 731.15 C 649.133 731.235 661.195 731.609 658.559 737.513 C 655.699 743.917 652.951 736.577 646.288 738.88 C 644.601 743.863 657.169 743.71 658.953 749.502 C 661.142 756.607 657.46 760.061 651.441 762.766 C 647.013 762.768 630.258 762.125 638.423 753.968 C 640.099 753.651 648.239 758.38 650.347 754.475 C 649.497 750.25 639.649 750.453 637.5 744.545 C 634.828 737.198 640.138 733.749 645.897 731.15 z" fill="rgb(242,190,117)" transform="translate(0,0)"></path>
<path d="M 519.04 731.061 C 523.267 731.231 528.726 731.732 531.985 735.139 C 532.231 735.396 532.238 736.132 532.095 736.45 C 529.263 742.713 525.396 736.966 521.055 739.035 C 519.955 739.575 520.166 739.611 519.9 740.454 C 521.491 745.361 532.035 743.175 533.073 751.468 C 533.403 753.993 532.675 756.542 531.063 758.513 C 528.147 762.135 524.715 762.075 520.581 762.61 C 516.197 761.91 503.98 760.622 511.858 753.831 C 512.863 752.965 522.889 758.363 523.908 755.008 C 524.665 752.52 520.755 751.479 518.668 750.7 C 506.244 746.065 507.285 736.208 519.04 731.061 z" fill="rgb(242,190,117)" transform="translate(0,0)"></path>
<path d="M 984.611 709.771 C 988.24 709.617 989.905 709.357 993.348 710.568 C 994.792 715.146 994.046 754 993.993 761.601 C 990.91 761.666 989.213 761.526 986.183 761.224 C 983.203 758.091 984.564 717.098 984.611 709.771 z" fill="rgb(242,190,117)" transform="translate(0,0)"></path>
<path d="M 1281.23 709.853 C 1284.52 709.85 1287.71 709.369 1290.23 711.157 C 1291.47 718.831 1290.59 752.464 1290.52 761.391 C 1287.38 761.556 1284.37 762.079 1281.73 760.409 C 1280.4 755.367 1281.17 717.715 1281.23 709.853 z" fill="rgb(242,190,117)" transform="translate(0,0)"></path>
<path d="M 1204.04 731.046 C 1208.65 731.284 1211.96 731.874 1216.05 734.092 C 1218.2 735.259 1216.1 739.563 1214 739.503 C 1211.78 739.439 1209.76 738.026 1207.48 738.234 C 1206.26 738.346 1205.35 738.725 1204.58 739.671 C 1205.48 745.326 1216.4 744.342 1217.75 749.976 C 1219.8 758.517 1212.47 761.607 1206.86 763.415 C 1197.33 761.905 1188.97 760.081 1197.49 754.092 C 1197.43 754.134 1208.1 758.414 1209.18 754.395 C 1208.56 752.279 1180.68 742.25 1204.04 731.046 z" fill="rgb(242,190,117)" transform="translate(0,0)"></path>
<path d="M 616.176 709.05 C 619.767 708.926 620.891 708.776 624.411 709.674 C 626.334 713.896 625.348 754.147 625.285 761.816 C 621.913 761.878 619.226 762.395 616.639 760.513 C 615.634 755.614 616.153 717.057 616.176 709.05 z" fill="rgb(242,190,117)" transform="translate(0,0)"></path>
<path d="M 1641.96 731.1 C 1644.37 731.133 1653.74 731.565 1654.54 733.928 C 1658.06 744.376 1643.77 734.052 1642.99 740.525 C 1644.88 744.901 1650.85 744.304 1653.15 746.758 C 1662.36 756.614 1652.13 761.661 1643.97 762.764 C 1639.53 761.998 1629.19 761.096 1634.02 754.965 C 1635.92 752.549 1637.87 754.796 1640.23 755.623 C 1642.58 756.451 1646.1 757.383 1647.75 754.958 C 1647.4 751.57 1618.58 744.01 1641.96 731.1 z" fill="rgb(242,190,117)" transform="translate(0,0)"></path>
<path d="M 1010.5 732.197 C 1014.81 731.734 1029.47 730.018 1026.9 737.948 C 1025.21 743.146 1015.37 734.638 1014.32 739.742 C 1015.3 744.928 1025.44 743.817 1027.53 749.431 C 1030.15 756.466 1026.83 759.081 1020.01 762.189 C 1015.76 762.216 999.341 762.833 1006.14 753.17 C 1006.6 752.52 1011.9 756.473 1013.47 756.063 C 1013.99 755.925 1017.16 756.8 1018.14 755.485 C 1021.61 751.67 1010.73 749.907 1007.76 747.249 C 1006.17 745.799 1005.28 743.729 1005.34 741.578 C 1005.43 736.893 1007.44 735.007 1010.5 732.197 z" fill="rgb(242,190,117)" transform="translate(0,0)"></path>
<path d="M 1307.77 732.198 C 1311.32 731.886 1328.33 730.412 1322.95 738.175 C 1319.95 742.505 1315.16 734.298 1311.27 740.635 C 1313.19 745.151 1327.78 744.315 1324.79 755.054 C 1323.59 759.334 1320.85 760.389 1317.27 762.322 C 1312.86 762.29 1304.72 762.616 1301.39 758.701 C 1300.73 757.319 1303.36 752.234 1305.27 753.718 C 1307.27 755.271 1314.58 757.76 1316.12 754.567 C 1315.25 750.75 1290.39 746.295 1307.77 732.198 z" fill="rgb(242,190,117)" transform="translate(0,0)"></path>
<path d="M 1236.05 731.043 C 1238.04 731.207 1254.51 732.808 1246.12 739.136 C 1244.17 740.611 1240.99 736.702 1236.08 739.131 C 1235.49 743.386 1264.95 750.518 1241.43 762.362 C 1239.29 762.286 1223.76 761.967 1226.21 757.155 C 1228.08 753.458 1229.08 754.107 1232.4 755.368 C 1239.55 758.086 1244.08 753.439 1234.97 750.309 C 1222.78 744.937 1224.91 735.662 1236.05 731.043 z" fill="rgb(242,190,117)" transform="translate(0,0)"></path>
<path d="M 545.758 722.081 C 562.228 722.116 552.065 723.002 556.058 733.386 C 556.767 735.231 562.27 731.687 562.121 736.953 C 561.929 743.744 559.588 739.269 555.71 741.528 C 554.753 743.025 555.148 758.8 555.136 760.774 C 546.556 765.05 544.647 759.635 545.77 752.788 C 546.163 750.393 545.688 746.23 545.833 743.479 C 546.072 738.957 539.525 742.978 540.966 735.945 C 541.553 731.589 543.088 735.255 544.996 733.074 C 546.337 731.542 545.765 724.126 545.758 722.081 z" fill="rgb(242,190,117)" transform="translate(0,0)"></path>
<path d="M 928.754 731.678 C 930.625 731.965 930.7 731.774 931.213 733.936 C 934.262 746.772 922.092 739.333 920.768 748.983 C 919.147 760.8 924.486 763.019 910.908 761.593 C 910.995 752.739 910.77 743.765 911.18 734.96 C 911.274 732.95 918.369 733.675 919.391 734.159 C 920.457 734.663 919.451 738.388 920.82 738.936 C 920.327 739.186 927.448 732.704 928.754 731.678 z" fill="rgb(242,190,117)" transform="translate(0,0)"></path>
<path d="M 460.81 731.597 C 464.098 733.199 464.597 743.307 459.032 742.415 C 457.385 742.151 452.027 746.38 451.742 748.074 C 449.596 760.794 456.863 761.278 442.054 761.51 C 442.053 754.217 442.085 746.92 442 739.629 C 441.973 737.302 441.412 733.999 444.831 733.996 C 446.865 733.994 448.83 733.478 450.668 734.764 C 452.129 735.786 450.557 738.6 452.027 738.803 C 455.092 736.665 457.593 733.985 460.81 731.597 z" fill="rgb(242,190,117)" transform="translate(0,0)"></path>
<path d="M 806.507 733.812 C 816.975 734.011 816.196 731.967 816.032 742.966 C 815.94 749.149 816.053 755.732 815.981 761.964 C 804.008 761.83 806.915 763.209 806.475 750.489 C 806.285 744.993 806.426 739.317 806.507 733.812 z" fill="rgb(242,190,117)" transform="translate(0,0)"></path>
<path d="M 1259.73 733.85 C 1271.16 733.948 1268.59 732.838 1268.83 744.57 C 1268.95 750.221 1268.85 756.001 1268.84 761.66 C 1259.67 761.56 1259.62 763.345 1259.73 753.433 C 1259.81 747.051 1259.75 740.265 1259.73 733.85 z" fill="rgb(242,190,117)" transform="translate(0,0)"></path>
<path d="M 1363.81 737.516 C 1367.68 736.076 1371.98 737.989 1373.51 741.822 C 1375.03 745.656 1373.21 750.002 1369.4 751.604 C 1366.87 752.67 1363.96 752.285 1361.8 750.596 C 1359.63 748.907 1358.55 746.18 1358.97 743.465 C 1359.39 740.751 1361.24 738.475 1363.81 737.516 z" fill="rgb(242,190,117)" transform="translate(0,0)"></path>
<path d="M 1065.38 738.599 C 1068.88 736.397 1073.5 737.444 1075.71 740.939 C 1077.92 744.434 1076.88 749.058 1073.39 751.275 C 1069.89 753.497 1065.25 752.456 1063.04 748.951 C 1060.82 745.446 1061.87 740.808 1065.38 738.599 z" fill="rgb(242,190,117)" transform="translate(0,0)"></path>
<path d="M 700.515 737.775 C 704.289 737.315 707.785 739.823 708.56 743.544 C 709.335 747.266 707.13 750.961 703.487 752.045 C 700.842 752.833 697.978 752.064 696.083 750.058 C 694.188 748.051 693.583 745.149 694.52 742.553 C 695.457 739.957 697.775 738.109 700.515 737.775 z" fill="rgb(242,190,117)" transform="translate(0,0)"></path>
<path d="M 1823.28 676.87 C 1828.92 678.72 1834.3 681.749 1839.77 683.523 C 1849.31 686.614 1847.05 685.632 1843.84 694.796 C 1843.59 695.078 1841.93 697.376 1841.42 696.882 C 1835.71 691.389 1828.13 683.145 1823.28 676.87 z" fill="rgb(7,164,107)" transform="translate(0,0)"></path>
<path d="M 809.412 718.358 C 811.954 717.224 814.933 718.362 816.071 720.902 C 817.21 723.441 816.077 726.422 813.54 727.566 C 810.996 728.712 808.005 727.576 806.863 725.03 C 805.722 722.483 806.864 719.494 809.412 718.358 z" fill="rgb(242,190,117)" transform="translate(0,0)"></path>
<path d="M 1261.88 718.581 C 1263.46 717.678 1265.41 717.711 1266.96 718.666 C 1268.52 719.621 1269.42 721.347 1269.33 723.168 C 1269.24 724.988 1268.16 726.614 1266.52 727.409 C 1264.1 728.582 1261.18 727.624 1259.93 725.242 C 1258.68 722.86 1259.54 719.914 1261.88 718.581 z" fill="rgb(242,190,117)" transform="translate(0,0)"></path>
<path d="M 1876.55 769.736 C 1877.11 774.375 1876.32 779.847 1874.31 784.115 C 1873.6 777.704 1874.07 775.988 1876.55 769.736 z" fill="rgb(2,124,89)" transform="translate(0,0)"></path>
<metadata><recraft-signature>{"signed_by": "recraft", "signature_b64": "Ec0sycLEoYvnon4XnF2Rjs0F/Zbqe4/upamjbbOuNl0DRPS9Ttlj3ZN3c2Ww0anpNNJTNegPDdlX+En/7c3dCA==", "signing_algo": "Ed25519", "generation_timestamp": 1780247300, "identifier": "b9844085-5944-4959-91ec-7795b599828b"}</recraft-signature></metadata></svg>