<svg xmlns="http://www.w3.org/2000/svg" height="768" preserveAspectRatio="none" style="display: block;" version="1.1" viewBox="0 0 2048 1024" width="1536">
<defs>
	<linearGradient gradientUnits="userSpaceOnUse" id="Gradient1" x1="1851.63" x2="2065.74" y1="535.908" y2="598.155">
		<stop class="stop0" offset="0" stop-color="rgb(222,201,238)" stop-opacity="1"></stop>
		<stop class="stop1" offset="1" stop-color="rgb(211,177,241)" stop-opacity="1"></stop>
	</linearGradient>
</defs>
<path d="M 0 0 L 2048 0 L 2048 213.112 L 2048 225.444 L 2048 240.04 L 2048 253.437 L 2048 255.378 L 2048 263.983 L 2048 277.1 L 2048 285.02 L 2048 307.758 L 2048 333.52 L 2048 345.176 L 2048 382.928 L 2048 457.561 L 2048 476.219 L 2048 480.389 L 2048 502.164 L 2048 522.428 L 2048 579.646 L 2048 626.265 L 2048 669.637 L 2048 682.812 L 2048 733.657 L 2048 752.954 L 2048 774.996 L 2048 809.816 L 2048 1024 L 0 1024 L 0 794.439 L 0 787.362 L 0 777.106 L 0 750.355 L 0 735.214 L 0 701.025 L 0 658.564 L 0 596.005 L 0 528.108 L 0 482.851 L 0 448.299 L 0 418.408 L 0 390.33 L 0 330.867 L 0 321.999 L 0 289.615 L 0 280.894 L 0 0 z" fill="rgb(18,0,61)" transform="translate(0,0)"></path>
<path d="M 2048 213.112 L 2048 225.444 L 2048 240.04 L 2048 253.437 L 2048 255.378 L 2048 263.983 L 2048 277.1 L 2048 285.02 L 2048 307.758 L 2048 333.52 L 2048 345.176 L 2048 382.928 L 2048 457.561 L 2048 476.219 L 2048 480.389 L 2048 502.164 L 2048 522.428 L 2048 579.646 L 2048 626.265 L 2048 669.637 L 2048 682.812 L 2048 733.657 L 2048 752.954 L 2048 774.996 L 2048 809.816 C 2023.57 815.858 1988 812.179 1963.72 805.769 C 1953.94 806.376 1917.92 789.558 1908.69 784.681 C 1864.59 761.367 1835.21 724.984 1820.74 677.416 C 1804.54 624.137 1818.28 572.715 1846.39 526.273 C 1862.76 499.228 1871.8 489.618 1883.65 459.054 C 1891.6 438.143 1898.95 417.007 1905.69 395.672 C 1909.18 384.35 1917.69 353.234 1922.24 344.854 C 1925.36 335.052 1929.08 325.454 1933.39 316.115 C 1935.99 303.063 1959.36 268.264 1968.94 258.148 C 1994.44 231.196 2011.13 215.825 2048 213.112 z" fill="rgb(113,30,202)" transform="translate(0,0)"></path>
<path d="M 2001.36 288.17 C 2022.07 269.008 2025.94 269.103 2048 255.378 L 2048 263.983 L 2048 277.1 L 2048 285.02 L 2048 307.758 L 2048 333.52 L 2048 345.176 L 2048 382.928 L 2048 457.561 L 2048 476.219 L 2048 480.389 L 2048 502.164 L 2048 522.428 L 2048 579.646 L 2048 626.265 L 2048 669.637 C 2024.69 732.783 1949.21 725.489 1913.16 679.015 C 1897.47 659.133 1890.32 633.837 1893.28 608.685 C 1898.17 570.187 1925.24 547.204 1954.4 525.93 C 1961.19 520.978 1969.82 511.542 1977.08 505.886 C 1987.05 493.562 1990.07 488.62 1994.04 473.376 C 1994.49 458.242 1991.68 452.125 1986.6 438.216 C 1977.36 421.967 1969.15 388.824 1969.03 369.891 C 1968.81 336.104 1978.27 312.374 2001.36 288.17 z" fill="rgb(113,30,202)" transform="translate(0,0)"></path>
<path d="M 2048 307.758 L 2048 333.52 L 2048 345.176 L 2048 382.928 L 2048 457.561 L 2048 476.219 L 2048 480.389 L 2048 502.164 C 2015.88 447.205 1974.23 379.269 2027.64 321.827 C 2034.03 314.956 2039.62 311.635 2048 307.758 z" fill="rgb(113,30,202)" transform="translate(0,0)"></path>
<path d="M 2048 476.219 C 2042.86 468.674 2037.17 455.31 2033.48 446.842 C 2018.9 413.426 2023.22 373.044 2048 345.176 L 2048 382.928 L 2048 457.561 L 2048 476.219 z" fill="rgb(113,30,202)" transform="translate(0,0)"></path>
<path d="M 2048 382.928 L 2048 457.561 C 2039.52 433.476 2035.17 406.381 2048 382.928 z" fill="rgb(218,194,237)" transform="translate(0,0)"></path>
<path d="M 2048 480.389 C 2020.68 435.082 1994.92 371.083 2048 333.52 L 2048 345.176 C 2023.22 373.044 2018.9 413.426 2033.48 446.842 C 2037.17 455.31 2042.86 468.674 2048 476.219 L 2048 480.389 z" fill="rgb(218,194,237)" transform="translate(0,0)"></path>
<path d="M 1973.65 667.972 C 1952.14 661.057 1940.46 640.153 1939.99 618.467 C 1939.55 604.268 1944.96 590.511 1954.97 580.43 C 1967.26 567.962 1988.54 559.647 2005.92 559.431 C 2020.99 559.245 2037.5 569.125 2048 579.646 L 2048 626.265 C 2038.42 611.815 2025.95 600.097 2008.37 596.43 C 1996.71 593.928 1984.53 596.273 1974.64 602.926 C 1952.18 618.123 1950.73 652.856 1975.3 665.754 L 1973.65 667.972 z" fill="rgb(218,194,237)" transform="translate(0,0)"></path>
<path d="M 2048 285.02 L 2048 307.758 C 2039.62 311.635 2034.03 314.956 2027.64 321.827 C 1974.23 379.269 2015.88 447.205 2048 502.164 L 2048 522.428 C 2008.63 462.451 1951.54 384.756 2007.33 314.714 C 2018.84 300.267 2031.36 292.45 2048 285.02 z" fill="rgb(18,0,61)" transform="translate(0,0)"></path>
<path d="M 2048 263.983 L 2048 277.1 C 2006.21 302.227 2001.19 308.131 1977.23 348.371 C 1988.11 308.764 2009.88 281.317 2048 263.983 z" fill="rgb(18,0,61)" transform="translate(0,0)"></path>
<path d="M 1983.32 667.549 C 1983.93 667.405 1984.65 667.089 1985.27 667.311 L 1985.35 667.446 C 1984.17 670.11 1977.13 668.774 1975.01 668.191 C 1977.78 667.921 1980.55 667.707 1983.32 667.549 z" fill="rgb(143,75,208)" transform="translate(0,0)"></path>
<path d="M 1975.3 665.754 C 1978.61 666.627 1979.91 666.999 1983.32 667.549 C 1980.55 667.707 1977.78 667.921 1975.01 668.191 C 1974.56 668.118 1974.1 668.045 1973.65 667.972 L 1975.3 665.754 z" fill="rgb(208,178,238)" transform="translate(0,0)"></path>
<path d="M 1988.45 429.531 L 1989.97 427.105 C 2006.86 469.503 2038.44 505.785 1983.28 537.629 C 1952.45 555.424 1918.59 570.912 1914.91 609.686 C 1908.69 649.623 1936.67 689.673 1978.45 691.677 L 1978.53 690.868 C 2002.73 684.826 2031.93 672.636 2024.7 641.409 L 2025.98 639.285 C 2028.09 646.294 2028.14 648.531 2028.45 655.811 C 2030.31 657.352 2029.84 657.636 2032.3 657.164 C 2034.59 643.378 2029.82 631.915 2019.47 622.82 C 2009.3 614.509 1995.82 614.439 1984.1 619.218 L 1982.51 618.226 C 2040.08 591.534 2073.82 688.403 1999.07 703.716 C 1978.28 707.849 1956.7 703.517 1939.11 691.682 C 1919.87 678.78 1903.56 655.94 1899.31 633.159 C 1890.08 583.78 1925.37 554.626 1959.91 527.038 C 1969.4 519.462 1981.98 509.129 1988.7 499.1 C 1994.07 495.93 1997.44 481.083 1997.78 475.145 C 1999.02 458.198 1995.15 449.453 1989.63 433.735 L 1988.45 429.531 z" fill="rgb(18,0,61)" transform="translate(0,0)"></path>
<path d="M 2024.7 641.409 L 2025.98 639.285 C 2028.09 646.294 2028.14 648.531 2028.45 655.811 C 2025.59 672.593 2019.12 675.097 2009.43 685.795 C 1998.16 690.263 1990.49 692.176 1978.45 691.677 L 1978.53 690.868 C 2002.73 684.826 2031.93 672.636 2024.7 641.409 z" fill="rgb(218,194,237)" transform="translate(0,0)"></path>
<path d="M 2028.45 655.811 C 2030.31 657.352 2029.84 657.636 2032.3 657.164 C 2030.54 669.2 2020.85 681.535 2009.43 685.795 C 2019.12 675.097 2025.59 672.593 2028.45 655.811 z" fill="rgb(104,20,200)" transform="translate(0,0)"></path>
<path d="M 1975.58 626.875 C 1973.6 629.617 1970.65 636.008 1969.76 636.853 L 1969.42 636.793 C 1967.5 631.698 1978.24 621.011 1982.51 618.226 L 1984.1 619.218 C 1981.12 621.569 1979.18 623.117 1976.51 625.814 C 1976.13 626.472 1976.19 626.552 1975.58 626.875 z" fill="rgb(54,16,109)" transform="translate(0,0)"></path>
<path d="M 2019.68 628.99 C 2023.03 632.912 2024.23 634.528 2025.98 639.285 L 2024.7 641.409 C 2023.1 637.06 2021.26 633.182 2019.68 628.99 z" fill="rgb(196,158,234)" transform="translate(0,0)"></path>
<path d="M 1988.45 429.531 C 1987.12 423.759 1986.02 418.628 1984.94 412.792 C 1986.61 417.38 1988.54 422.465 1989.97 427.105 L 1988.45 429.531 z" fill="rgb(54,16,109)" transform="translate(0,0)"></path>
<path d="M 2048 240.04 L 2048 253.437 L 2048 255.378 C 2025.94 269.103 2022.07 269.008 2001.36 288.17 C 1978.27 312.374 1968.81 336.104 1969.03 369.891 C 1969.15 388.824 1977.36 421.967 1986.6 438.216 C 1991.68 452.125 1994.49 458.242 1994.04 473.376 C 1990.07 488.62 1987.05 493.562 1977.08 505.886 C 1969.82 511.542 1961.19 520.978 1954.4 525.93 C 1925.24 547.204 1898.17 570.187 1893.28 608.685 C 1890.32 633.837 1897.47 659.133 1913.16 679.015 C 1949.21 725.489 2024.69 732.783 2048 669.637 L 2048 682.812 L 2048 733.657 C 1990.59 787.418 1895.61 744.736 1872.56 676.321 C 1853.49 619.711 1873.77 565.579 1918.32 527.153 C 1933.82 513.785 1948.91 499.858 1957.7 480.948 C 1971.61 448.494 1960.8 423.212 1946.81 393.662 C 1937.03 372.985 1941.84 343.271 1951.7 322.813 C 1971.38 281.993 2005.75 255.495 2048 240.04 z" fill="rgb(113,30,202)" transform="translate(0,0)"></path>
<path d="M 2000.52 286.189 L 2001.36 288.17 C 1978.27 312.374 1968.81 336.104 1969.03 369.891 C 1969.15 388.824 1977.36 421.967 1986.6 438.216 C 1991.68 452.125 1994.49 458.242 1994.04 473.376 C 1990.07 488.62 1987.05 493.562 1977.08 505.886 C 1969.82 511.542 1961.19 520.978 1954.4 525.93 C 1925.24 547.204 1898.17 570.187 1893.28 608.685 C 1890.32 633.837 1897.47 659.133 1913.16 679.015 C 1949.21 725.489 2024.69 732.783 2048 669.637 L 2048 682.812 C 2044.04 690.832 2039.17 700.656 2032.86 706.872 C 2000.26 739.03 1946.15 733.629 1914.69 702.623 C 1894.7 682.92 1885.93 660.516 1884.88 633.368 C 1882.85 580.921 1923.08 548.743 1956.95 515.579 C 1978.25 496.581 1988.95 458.419 1977.11 431.01 C 1952.38 373.753 1954.55 334.445 2000.52 286.189 z" fill="rgb(218,194,237)" transform="translate(0,0)"></path>
<path d="M 2000.52 286.189 C 2008.74 275.691 2035.94 260.298 2048 253.437 L 2048 255.378 C 2025.94 269.103 2022.07 269.008 2001.36 288.17 L 2000.52 286.189 z" fill="rgb(196,158,234)" transform="translate(0,0)"></path>
<path d="M 1923.66 753.578 C 1922.11 751.901 1912.95 745.388 1910.8 743.8 C 1840.97 692.298 1837.01 590.798 1896.98 529.967 C 1914.11 512.587 1932.4 502.405 1942.63 479.159 C 1954.3 452.641 1952.16 432.889 1940.46 406.883 C 1928.85 379.369 1928.09 348.83 1941.36 321.569 C 1964.58 273.897 1999.03 243.872 2048 225.444 L 2048 240.04 C 2005.75 255.495 1971.38 281.993 1951.7 322.813 C 1941.84 343.271 1937.03 372.985 1946.81 393.662 C 1960.8 423.212 1971.61 448.494 1957.7 480.948 C 1948.91 499.858 1933.82 513.785 1918.32 527.153 C 1873.77 565.579 1853.49 619.711 1872.56 676.321 C 1895.61 744.736 1990.59 787.418 2048 733.657 L 2048 752.954 C 2023.43 771.913 2005.25 774.386 1974.85 772.777 C 1972.6 771.887 1970.6 771.558 1968.26 771.083 C 1952.23 767.836 1937.88 761.24 1923.66 753.578 z" fill="rgb(18,0,61)" transform="translate(0,0)"></path>
<path d="M 1933.39 316.115 C 1933.38 319.282 1932.41 322.234 1931.51 325.241 C 1927.33 339.285 1923.37 353.424 1922.96 368.183 C 1922.77 377.705 1923.41 387.227 1924.86 396.64 C 1927.93 415.614 1934.99 433.135 1928.17 452.152 C 1922.36 468.349 1909.33 479.045 1898.15 491.412 C 1858.2 535.617 1831.14 592.45 1839.88 653.28 C 1844.13 682.834 1858.16 713.054 1878.39 735.16 C 1911.26 770.836 1969.63 799.603 2017.6 779.223 C 2005.52 791.644 1995.93 794.51 1978.37 794.993 C 1907.61 796.939 1826.96 714.118 1825.66 645.313 C 1824.67 592.905 1858.76 531.246 1886.62 487.8 C 1894.62 475.058 1911.43 465.613 1915.68 449.66 C 1922.27 428.25 1916.66 406.235 1916.97 384.269 C 1917.18 370.15 1919.41 358.378 1922.24 344.854 C 1925.36 335.052 1929.08 325.454 1933.39 316.115 z" fill="url(#Gradient1)" transform="translate(0,0)"></path>
<path d="M 2048 774.996 L 2048 809.816 C 2023.57 815.858 1988 812.179 1963.72 805.769 C 1965.38 805.553 1982.38 805.863 1987.21 805.587 C 2011.39 804.21 2028.34 788.805 2048 774.996 z" fill="rgb(218,194,237)" transform="translate(0,0)"></path>
<path d="M 1971.6 779.198 C 1916.08 776.306 1874.27 735.06 1853.74 686.092 C 1856.23 688.862 1863.2 702.013 1865.64 706.056 C 1875.34 722.107 1891.74 739.337 1907.47 749.404 C 1922.64 761.063 1950.06 773.498 1969.32 775.357 C 1973.44 776.695 1977.6 776.905 1981.91 777.311 C 1982.35 778.128 1982.26 777.771 1982.35 778.322 C 1981.79 779.401 1973.29 779.14 1971.6 779.198 z" fill="rgb(218,194,237)" transform="translate(0,0)"></path>
<path d="M 1907.47 749.404 L 1909.15 748.964 C 1921.08 756.177 1947.77 772.413 1960.76 770.954 C 1951.85 768.566 1928.07 761.932 1923.66 753.578 C 1937.88 761.24 1952.23 767.836 1968.26 771.083 C 1970.6 771.558 1972.6 771.887 1974.85 772.777 C 1972.46 774.655 1970.43 773.756 1966.59 773.538 L 1970.75 774.543 L 1969.32 775.357 C 1950.06 773.498 1922.64 761.063 1907.47 749.404 z" fill="rgb(104,20,200)" transform="translate(0,0)"></path>
<path d="M 1981.91 777.311 C 1983.74 777.399 1996.64 777.741 1997.02 777.872 L 1997.5 778.396 C 1990.95 780.534 1978.45 780.367 1971.6 779.198 C 1973.29 779.14 1981.79 779.401 1982.35 778.322 C 1982.26 777.771 1982.35 778.128 1981.91 777.311 z" fill="rgb(196,158,234)" transform="translate(0,0)"></path>
<path d="M 0 750.355 C 7.14876 738.657 18.448 718.92 26.8686 708.972 C 32.0214 702.884 53.8786 689.396 61.5703 684.318 L 116.741 647.8 C 126.173 641.644 137.61 634.912 146.514 628.592 C 150.693 641.635 153.835 651.767 159.22 664.29 C 106.522 702.422 53.4461 740.029 0 777.106 L 0 750.355 z" fill="rgb(113,30,202)" transform="translate(0,0)"></path>
<path d="M 35.2989 265.723 C 42.7943 273.263 50.546 280.543 58.5403 287.552 C 54.8524 323.781 44.8429 372.079 38.6991 409.11 C 33.6663 439.445 27.2654 487.789 20.3294 516.652 L 11.0438 510.319 C 7.12159 501.034 3.48049 492.337 0 482.851 L 0 448.299 C 4.30152 433.835 7.9891 419.139 11.8855 404.541 C 19.4356 376.254 28.0645 347.979 33.9244 319.293 C 34.687 315.56 31.0546 307.312 31.5579 303.145 C 32.3527 290.89 33.7627 277.885 35.2989 265.723 z" fill="rgb(113,30,202)" transform="translate(0,0)"></path>
<path d="M 26.9204 592.233 C 32.8595 598.032 36.6116 601.475 43.151 606.543 C 41.0318 616.629 39.0255 626.966 36.1765 636.855 C 32.6399 641.824 26.9818 653.613 23.5831 659.791 C 15.9185 673.647 8.05669 687.393 0 701.025 L 0 658.564 C 6.98274 641.441 6.49593 622.54 15.254 607.216 C 17.0277 604.112 24.0898 595.793 26.9204 592.233 z" fill="rgb(253,253,253)" transform="translate(0,0)"></path>
<path d="M 0 528.108 L 4.97016 518.109 C 11.0284 540.415 16.0642 562.62 22.2862 584.994 C 17.4152 591.027 12.4147 596.955 7.2882 602.773 L 0 596.005 L 0 528.108 z" fill="rgb(184,183,183)" transform="translate(0,0)"></path>
<path d="M 0 701.025 C 8.05669 687.393 15.9185 673.647 23.5831 659.791 C 26.9818 653.613 32.6399 641.824 36.1765 636.855 C 31.9872 656.454 26.7283 683.767 19.9419 702.264 C 17.6206 708.591 4.31486 728.59 0 735.214 L 0 701.025 z" fill="rgb(184,183,183)" transform="translate(0,0)"></path>
<path d="M 0 289.615 C 7.3904 296.771 17.4184 307.776 25.65 313.195 L 25.8152 313.711 C 27.6144 319.198 22.9174 330.367 21.2991 336.589 L 0 321.999 L 0 289.615 z" fill="rgb(184,183,183)" transform="translate(0,0)"></path>
<path d="M 0 787.362 C 9.83417 780.643 20.2835 772.174 30.0625 765.107 C 28.261 777.576 26.6276 793.069 25.5218 805.665 C 17.2988 801.963 8.02214 798.208 0 794.439 L 0 787.362 z" fill="rgb(113,30,202)" transform="translate(0,0)"></path>
<path d="M 0 330.867 C 6.8203 335.645 12.2451 339.405 19.4514 343.523 C 18.7957 345.932 16.109 356.364 15.348 358.112 C 12.9039 356.862 11.8856 361.631 10.8602 363.844 C 8.41369 369.922 2.74308 385.202 0 390.33 L 0 330.867 z" fill="rgb(184,183,183)" transform="translate(0,0)"></path>
<path d="M 0 280.894 C 4.41849 277.405 8.78227 274.431 13.275 270.892 C 16.4531 284.815 21.6643 299.353 25.65 313.195 C 17.4184 307.776 7.3904 296.771 0 289.615 L 0 280.894 z" fill="rgb(253,253,253)" transform="translate(0,0)"></path>
<path d="M 10.8602 363.844 L 13.5131 366.466 C 10.0911 379.926 4.26953 406.058 0 418.408 L 0 390.33 C 2.74308 385.202 8.41369 369.922 10.8602 363.844 z" fill="rgb(253,253,253)" transform="translate(0,0)"></path>
<path d="M 10.8602 363.844 C 11.8856 361.631 12.9039 356.862 15.348 358.112 C 14.7919 360.973 14.0863 363.641 13.5131 366.466 L 10.8602 363.844 z" fill="rgb(253,253,253)" transform="translate(0,0)"></path>
<path d="M 1676.33 368.424 C 1676.96 368.406 1677.59 368.392 1678.22 368.384 C 1707.36 368.007 1741.56 375.278 1763.39 396.233 C 1789.01 420.671 1791.04 464.85 1764.68 489.671 C 1741.26 511.725 1711.17 517.123 1680.22 517.078 C 1680.25 568.681 1686.33 655.851 1626.62 681.753 C 1600.09 693.263 1564.27 686.287 1552.78 655.985 C 1548.81 641.543 1552.16 624.709 1567.52 617.207 C 1581.61 610.324 1602.85 621.066 1598.63 638.6 C 1597.16 644.693 1586.73 641.026 1583.58 648.856 C 1583.56 652.314 1584.81 652.951 1586.75 655.443 C 1593.42 664.389 1607.5 658.771 1613.75 652.109 C 1641.43 622.575 1638.2 572.896 1638.15 535.706 L 1638.01 472.61 C 1624.21 487.944 1603.81 493.888 1586.92 478.725 C 1565.57 459.552 1569.88 425.584 1588.29 405.521 C 1611.56 380.167 1642.6 370.51 1676.33 368.424 z" fill="rgb(253,253,253)" transform="translate(0,0)"></path>
<path d="M 1673.24 390.426 C 1690 389.416 1710.55 394.606 1722.74 406.473 C 1742.55 425.376 1743.91 462.956 1724.29 482.527 C 1711.69 495.098 1696.74 496.9 1680.02 496.895 C 1680.02 482.365 1679.73 467.808 1679.8 453.283 C 1679.87 440.618 1678.31 428.283 1688.62 419.273 C 1695.31 416.568 1695.82 418.31 1701.59 416.483 L 1701.29 414.889 C 1689.91 404.828 1670.63 408.257 1657.36 413.333 C 1631.13 423.372 1642.72 452.134 1637.13 466.517 C 1635.17 468.499 1633.62 468.438 1630.98 468.767 C 1617.73 470.562 1611.69 461.795 1610.89 449.664 C 1609.14 423.181 1628.12 399.606 1653.44 393.252 C 1660.56 391.465 1665.97 390.932 1673.24 390.426 z" fill="rgb(18,0,61)" transform="translate(0,0)"></path>
<path d="M 393.534 369.406 C 431.593 364.664 486.037 381.95 498.467 422.847 C 502.962 437.788 501.303 453.906 493.859 467.619 C 484.32 485.114 468.163 494.397 449.646 499.915 C 492.642 533.829 481.038 602.608 509.609 645.408 C 521.112 662.639 553.279 667.345 541.348 643.914 C 539.735 640.746 534.659 642.873 531.335 642.848 C 516.743 618.573 561.155 604.638 571.867 626.842 C 590.743 665.969 549.755 695.315 512.655 684.402 C 443.075 663.935 454.611 579.03 428.702 526.29 C 423.101 514.932 412.073 510.105 400.793 507.18 C 400.417 525.14 400.245 543.104 400.279 561.069 C 400.796 575.868 403.276 584.881 412.189 596.736 L 348.415 596.735 C 361.929 578.884 359.621 560.199 359.585 539.176 L 359.499 469.579 C 359.486 458.74 360.129 445.628 359.836 435.097 C 359.136 409.923 412.432 402.247 422.977 416.907 C 420.376 419.859 410.38 418.258 406.261 422.96 C 396.763 433.802 400.502 472.646 400.665 487.929 C 412.815 488.08 424.839 487.423 435.521 480.881 C 445.131 475.088 451.981 465.646 454.507 454.713 C 460.656 427.35 446.279 396.137 417.01 391.564 C 394.336 388.021 374.632 388.741 354.847 401.653 C 335.393 414.348 323.613 439.487 335.539 461.02 C 338.369 466.004 343.97 466.432 349.324 467.228 C 348.445 479.67 317.625 482.825 308.472 475.066 C 287.935 457.656 289.055 426 305.901 406.597 C 327.175 382.095 362.407 372.313 393.534 369.406 z" fill="rgb(253,253,253)" transform="translate(0,0)"></path>
<path d="M 1480.31 386.23 C 1594.44 377.9 1599.51 577.003 1499.24 592.741 C 1449.15 595.707 1420.12 564.182 1410.65 516.625 C 1400.17 463.966 1420.84 396.938 1480.31 386.23 z" fill="rgb(253,253,253)" transform="translate(0,0)"></path>
<path d="M 1485.29 404.141 C 1519.58 402.621 1525.52 460.074 1525.74 484.175 C 1525.99 511.096 1523.02 562.018 1494.15 574.717 C 1475.8 575.029 1467.57 564.034 1461.43 547.841 C 1448.72 514.273 1443.81 419.621 1485.29 404.141 z" fill="rgb(18,0,61)" transform="translate(0,0)"></path>
<path d="M 585.228 386.241 C 603.601 385.047 617.806 386.449 633.597 396.996 C 698.806 440.549 689.917 576.201 605.816 592.842 C 498.234 606.746 478.41 409.378 585.228 386.241 z" fill="rgb(253,253,253)" transform="translate(0,0)"></path>
<path d="M 591.367 404.112 C 608.74 403.598 616.483 415.491 622.677 430.211 C 636.493 463.042 640.011 558.957 600.003 574.478 C 567.564 579.021 559.589 521.215 559.087 499.092 C 558.455 471.249 559.135 415.43 591.367 404.112 z" fill="rgb(18,0,61)" transform="translate(0,0)"></path>
<path d="M 1142.85 372.413 C 1168.17 370.927 1188.61 378.153 1211.34 387.74 C 1207.95 401.718 1205.09 418.045 1202.27 432.304 C 1192.86 413.962 1183.26 402.885 1162.01 398.425 C 1147.61 395.403 1123.13 399.168 1121.64 416.834 C 1119.23 445.397 1169.82 461.875 1188.31 476.024 C 1200.79 485.573 1211.35 491.307 1220.36 504.565 C 1230.89 518.659 1234.77 534.414 1232.2 551.72 C 1219.74 635.63 1041.28 640.612 1059.5 541.992 C 1072.27 503.717 1123.86 494.967 1153.35 519.694 C 1175.57 538.317 1153.89 573.93 1128.3 558.39 C 1123.62 555.544 1133.19 537.816 1126.59 533.279 C 1119.25 527.657 1107.8 528.883 1102.05 536.11 C 1097.69 541.64 1095.93 545.889 1096.64 553.141 C 1099.26 579.592 1124.9 592.297 1148.81 590.057 C 1160.32 589.073 1170.97 583.545 1178.4 574.695 C 1184.88 566.833 1189.23 554.972 1187.96 544.574 C 1183.67 509.344 1129.99 494.527 1106.3 472.684 C 1094.05 461.997 1082.87 448.844 1082.19 431.455 C 1080.61 390.708 1107.52 375.048 1142.85 372.413 z" fill="rgb(253,253,253)" transform="translate(0,0)"></path>
<path d="M 1337.51 388.801 L 1400.21 388.565 C 1397.04 393.282 1391.84 402.163 1391.04 407.687 C 1387.2 434.484 1389.22 466.127 1388.92 493.528 C 1388.64 517.923 1388.33 544.375 1390.43 568.389 C 1391.01 575.065 1396.14 584.583 1399.53 590.289 L 1382.91 590.48 C 1367.51 590.778 1352.1 590.882 1336.69 590.791 C 1353.31 570.577 1348.12 521.467 1348.03 495.005 L 1294.45 494.978 C 1295.36 524.994 1289.33 567.354 1305.18 590.307 C 1284.25 590.283 1263.33 590.429 1242.4 590.747 C 1247.83 583.075 1252.37 573.675 1252.85 564.13 C 1254.36 529.979 1253.52 495.441 1253.28 461.211 C 1253.12 438.216 1257.07 407.457 1242.14 388.856 C 1263.3 389.139 1284.85 388.922 1306.04 388.916 C 1289.61 407.791 1294.55 444.414 1294.69 469.827 C 1312.52 469.47 1330.35 469.444 1348.17 469.75 C 1348.51 441.397 1352.52 412.857 1337.51 388.801 z" fill="rgb(253,253,253)" transform="translate(0,0)"></path>
<path d="M 947.056 388.895 L 1005.26 388.905 C 975.417 407.426 965.487 427.257 945.231 452.584 L 972.668 525.942 C 978.43 541.304 984.823 559.669 991.889 574.2 C 995.538 580.758 999.658 585.174 1004.89 590.394 C 982.741 590.587 960.591 590.664 938.441 590.624 C 953.947 566.851 928.077 517.157 918.588 491.732 L 900.702 518.308 C 900.71 543.416 897.257 569.786 911.626 590.273 C 890.723 590.212 869.819 590.338 848.918 590.65 C 855.028 581.308 858.796 572.19 859.25 560.874 C 860.353 533.387 859.906 505.62 859.791 477.994 C 859.699 456.23 860.769 431.901 858.298 410.4 C 857.377 402.383 853.419 394.952 848.186 388.88 L 911.933 389.032 C 895.782 409.476 900.838 447.689 900.921 474.509 C 915.444 451.256 947.332 415.846 947.056 388.895 z" fill="rgb(253,253,253)" transform="translate(0,0)"></path>
<path d="M 770.523 386.264 C 793.835 383.179 824.52 392.291 834.256 415.476 C 837.656 423.573 837.959 433.246 834.452 441.334 C 831.168 448.913 824.92 454.813 817.166 457.658 C 807.593 461.195 792.262 459.619 788.37 448.68 C 799.442 443.395 807.417 439.09 806.08 425.214 C 805.695 410.796 788.572 399.718 774.958 402.591 C 732.614 412.067 732.898 478.302 737.354 511.277 C 741.855 544.583 758.857 569.809 795.708 564.722 C 811.612 560.125 819.911 551.082 826.476 536.405 L 840.737 543.471 C 831.154 569.013 820.693 587.777 790.899 592.818 C 768.328 596.646 745.16 591.351 726.493 578.096 C 706.057 563.482 696.883 543.564 692.908 519.277 C 683.026 458.895 704.108 397.215 770.523 386.264 z" fill="rgb(253,253,253)" transform="translate(0,0)"></path>
<path d="M 65.4326 291.4 C 84.3662 301.319 103.57 310.714 123.023 319.573 C 101.152 395.017 79.7221 475.167 59.3648 551.336 C 57.1069 559.32 54.4183 569.984 51.1468 577.362 C 50.4591 567.049 50.0479 556.718 49.9135 546.383 C 42.284 538.568 35.2193 532.728 27.5011 524.223 C 34.945 473.042 45.9983 420.48 53.6702 369.072 C 57.5478 343.088 63.0225 317.791 65.4326 291.4 z" fill="rgb(113,30,202)" transform="translate(0,0)"></path>
<path d="M 156.03 448.997 C 168.192 456.104 183.525 468.671 194.624 477.49 C 146.453 544.013 99.2946 611.659 50.7365 677.787 C 44.7069 686.933 39.4268 689.947 30.5828 696.312 C 33.9856 680.911 40.2772 645.322 46.3656 632.341 C 56.0142 611.769 75.8794 582.101 87.8685 562.556 L 156.03 448.997 z" fill="rgb(113,30,202)" transform="translate(0,0)"></path>
<path d="M 173.4 296.925 C 156.446 364.168 134.194 431.163 115.745 498.086 C 114.178 503.768 108.226 514.432 104.479 518.994 C 103.96 520.583 94.1262 536.772 92.3628 539.726 C 79.6514 561.467 66.5664 582.987 53.1138 604.277 C 59.9058 578.658 66.9408 553.104 74.2177 527.618 C 78.5054 512.027 82.5133 495.34 87.5166 480.09 L 130.618 320.19 C 144.935 313.466 159.564 304.794 173.4 296.925 z" fill="rgb(184,183,183)" transform="translate(0,0)"></path>
<path d="M 87.5166 480.09 L 88.1572 479.42 C 99.1198 467.745 115.809 435.266 124.373 420.598 C 127.007 416.086 134.151 400.279 137.049 397.518 C 137.036 401.932 132.768 415.839 131.342 421.119 L 111.748 492.23 C 110.549 496.579 104.783 515.754 104.479 518.994 C 103.96 520.583 94.1262 536.772 92.3628 539.726 C 79.6514 561.467 66.5664 582.987 53.1138 604.277 C 59.9058 578.658 66.9408 553.104 74.2177 527.618 C 78.5054 512.027 82.5133 495.34 87.5166 480.09 z" fill="rgb(253,253,253)" transform="translate(0,0)"></path>
<path d="M 200.344 482.95 C 210.818 488.365 221.259 493.845 231.664 499.391 C 235.532 501.412 235.837 500.732 237.262 503.913 C 231.938 519.103 176.652 577.466 165.85 596.534 C 155.419 614.947 135.972 626.086 118.287 637.445 C 100.057 649.222 81.8994 661.111 63.816 673.112 C 68.0598 667.078 89.6123 635.355 93.1956 632.637 C 102.025 618.047 123.983 589.149 134.338 574.76 C 156.096 543.982 178.099 513.378 200.344 482.95 z" fill="rgb(184,183,183)" transform="translate(0,0)"></path>
<path d="M 200.344 482.95 C 210.818 488.365 221.259 493.845 231.664 499.391 C 226.266 507.458 217.047 514.677 209.839 521.307 C 187.031 542.288 164.398 563.896 142.244 585.485 C 134.179 593.344 100.217 630.4 93.1956 632.637 C 102.025 618.047 123.983 589.149 134.338 574.76 C 156.096 543.982 178.099 513.378 200.344 482.95 z" fill="rgb(253,253,253)" transform="translate(0,0)"></path>
<path d="M 166.044 669.337 L 177.239 668.934 C 180.792 672.392 187.811 677.531 191.987 680.75 C 194.225 682.401 197.214 684.485 199.287 686.211 C 173.605 701.971 148.761 716.638 122.886 731.892 C 92.37 729.064 97.1547 730.366 68.1755 739.601 C 73.6129 735.303 97.2898 717.457 102.947 714.648 C 123.827 699.333 144.86 684.229 166.044 669.337 z" fill="rgb(184,183,183)" transform="translate(0,0)"></path>
<path d="M 166.044 669.337 L 177.239 668.934 C 180.792 672.392 187.811 677.531 191.987 680.75 C 188.983 685.117 108.755 715.553 102.947 714.648 C 123.827 699.333 144.86 684.229 166.044 669.337 z" fill="rgb(253,253,253)" transform="translate(0,0)"></path>
<path d="M 118.732 225.803 C 120.595 227.719 122.573 300.815 123.056 310.98 C 110.581 305.431 100.602 300.775 88.3221 294.551 L 68.6836 285.097 C 85.3865 266.912 102.762 245.072 118.732 225.803 z" fill="rgb(113,30,202)" transform="translate(0,0)"></path>
<path d="M 127.186 217.559 C 141.348 237.772 154.579 258.649 168.501 279.029 C 170.33 281.707 172.049 284.425 173.618 287.265 C 172.836 289.003 173.337 288.553 171.968 289.584 C 158.676 295.772 144.538 304.773 130.788 311.527 C 129.784 295.416 129.429 277.401 128.878 261.073 C 128.383 246.686 128.037 231.893 127.186 217.559 z" fill="rgb(184,183,183)" transform="translate(0,0)"></path>
<path d="M 128.878 261.073 C 143.648 271.58 156.551 280.144 171.968 289.584 C 158.676 295.772 144.538 304.773 130.788 311.527 C 129.784 295.416 129.429 277.401 128.878 261.073 z" fill="rgb(253,253,253)" transform="translate(0,0)"></path>
<path d="M 37.3899 760.503 C 40.7434 757.957 47.3021 752.912 51.364 752.41 C 55.5793 751.889 74.978 744.69 77.3055 745.442 C 81.3528 749.771 73.1908 761.205 71.0294 764.923 C 73.238 767.977 76.8798 772.906 78.7149 776.116 C 84.2691 782.544 90.5326 788.935 95.1485 795.944 C 90.9244 799.294 87.4946 801.651 83.0748 804.703 L 59.0343 788.233 C 51.8493 783.427 42.9858 777.315 35.9865 772.362 C 36.5796 768.148 36.9373 764.709 37.3899 760.503 z" fill="rgb(184,183,183)" transform="translate(0,0)"></path>
<path d="M 78.7149 776.116 C 84.2691 782.544 90.5326 788.935 95.1485 795.944 C 90.9244 799.294 87.4946 801.651 83.0748 804.703 L 59.0343 788.233 C 63.1329 784.585 73.4091 777.503 78.7149 776.116 z" fill="rgb(253,253,253)" transform="translate(0,0)"></path>
<path d="M 152.93 624.953 C 176.164 625.48 201.243 625.01 224.615 624.976 C 218.521 630.284 209.996 636.602 203.505 641.718 C 195.03 648.246 186.461 654.649 177.799 660.927 L 165.679 661.404 C 161.222 650.243 156.862 636.504 152.93 624.953 z" fill="rgb(113,30,202)" transform="translate(0,0)"></path>
<path d="M 242.689 424.17 C 245.345 423.903 244.96 423.489 246.51 424.69 C 230.941 439.665 213.465 454.612 197.472 469.611 C 192.63 466.495 186.721 462.002 181.949 458.571 L 162.576 443.407 C 189.236 436.814 215.941 430.401 242.689 424.17 z" fill="rgb(113,30,202)" transform="translate(0,0)"></path>
<path d="M 115.488 214.937 L 116.414 215.087 C 116.322 217.941 69.2447 273.785 63.2246 281.703 L 52.7835 272.327 L 38.8645 259.07 C 64.1316 245.107 90.1061 229.33 115.488 214.937 z" fill="rgb(113,30,202)" transform="translate(0,0)"></path>
<path d="M 222.574 456.818 C 230.098 450.224 239.842 441.223 247.487 435.192 C 244.93 454.714 244.351 475.689 241.536 494.586 L 240.243 495.453 L 237.76 493.76 C 226.17 487.914 214.066 482.288 202.701 476.036 C 208.387 469.457 216.068 462.691 222.574 456.818 z" fill="rgb(184,183,183)" transform="translate(0,0)"></path>
<path d="M 222.574 456.818 C 226.225 464.972 236.4 486.843 237.76 493.76 C 226.17 487.914 214.066 482.288 202.701 476.036 C 208.387 469.457 216.068 462.691 222.574 456.818 z" fill="rgb(253,253,253)" transform="translate(0,0)"></path>
<path d="M 83.3224 759.659 C 101.16 764.214 122.276 771.388 140.1 776.938 L 130.461 788.917 L 124.772 794.608 C 118.291 794.88 111.117 794.831 104.575 794.923 C 97.9608 787.623 85.3757 774.881 81.0906 765.777 C 80.1373 763.752 81.9733 761.87 83.3224 759.659 z" fill="rgb(113,30,202)" transform="translate(0,0)"></path>
<path d="M 14.09 521.791 C 18.8548 526.838 42.4 547.988 42.1892 552.673 C 42.1068 566.563 43.6836 582.873 43.8061 597.612 C 39.0783 593.49 34.9935 589.589 30.0374 585.689 C 29.1836 582.546 28.2836 578.083 27.4101 575.237 C 22.5074 557.576 18.8387 539.527 14.09 521.791 z" fill="rgb(253,253,253)" transform="translate(0,0)"></path>
<path d="M 27.4101 575.237 C 31.4148 570.822 36.713 559.569 42.1892 552.673 C 42.1068 566.563 43.6836 582.873 43.8061 597.612 C 39.0783 593.49 34.9935 589.589 30.0374 585.689 C 29.1836 582.546 28.2836 578.083 27.4101 575.237 z" fill="rgb(184,183,183)" transform="translate(0,0)"></path>
<path d="M 96.5302 738.104 C 104.2 737.55 115.172 738.71 123.093 739.314 C 130.066 750.75 135.442 758.993 143.455 769.646 C 139.992 768.908 135.728 767.604 132.241 766.639 C 116.088 762.014 101.126 757.612 85.2224 752.247 L 84.3216 741.594 L 96.5302 738.104 z" fill="rgb(113,30,202)" transform="translate(0,0)"></path>
<path d="M 876.722 657.515 C 878.682 651.946 880.826 645.879 883.357 640.61 C 884.002 639.342 891.289 639.896 891.413 640.34 C 893.721 648.644 894.341 657.936 895.808 666.514 C 896.654 671.461 892.965 670.884 889.653 669.884 C 888.441 669.518 887.3 659.685 887.041 658.234 C 886.985 657.347 886.977 656.042 886.696 655.281 C 886.551 654.89 886.151 654.471 886.013 654.582 C 882.89 657.103 881.822 667.338 878.542 670.2 C 878.054 670.626 875.277 670.334 874.64 669.888 C 873.668 669.207 873.379 668.692 873.03 667.559 C 871.429 662.348 869.481 657.319 867.573 652.224 C 866.767 657.626 866.359 664.628 864.5 669.607 C 863.983 670.992 858.315 670.625 858.304 669.795 C 858.196 660.83 860.526 648.634 862.276 639.899 C 870.774 639.937 870.266 638.393 872.948 647.035 C 873.961 650.296 875.487 654.318 876.722 657.515 z" fill="rgb(196,158,234)" transform="translate(0,0)"></path>
<path d="M 1353.89 639.134 C 1356.99 639.067 1372.5 638.933 1372.21 647.11 C 1372.17 648.11 1367.94 649.598 1366.9 649.826 C 1364.56 650.534 1363.53 646.878 1361.8 646.283 C 1353.14 643.304 1349.25 652.403 1351.28 659.448 C 1352.67 664.267 1357.29 666.047 1361.58 664.605 C 1362.75 664.209 1365.49 661.958 1364.85 660.503 C 1364.42 659.687 1361.55 660.322 1360.9 660.003 C 1358.08 659.471 1358.49 656.85 1358.98 654.423 L 1359.1 653.876 C 1369.08 653.908 1385.79 650.751 1366.96 669.188 C 1364.87 671.23 1356.38 672.024 1353.52 670.817 C 1338.25 664.384 1337.37 646.186 1353.89 639.134 z" fill="rgb(196,158,234)" transform="translate(0,0)"></path>
<path d="M 1459.62 636.795 C 1461.37 636.887 1465 636.489 1466.44 637.44 C 1466.95 637.782 1466.99 639.915 1467.01 640.461 C 1467.12 644.041 1467.9 668.371 1466.44 669.557 C 1464.3 671.291 1461.43 669.426 1459.29 669.064 C 1457.46 668.753 1451.94 670.869 1449.14 670.869 C 1435.06 660.371 1443.81 643.886 1457.98 650.734 C 1460.9 652.143 1459.61 638.612 1459.62 636.795 z" fill="rgb(196,158,234)" transform="translate(0,0)"></path>
<path d="M 1451.83 655.582 C 1453.38 654.492 1455.39 654.327 1457.09 655.149 C 1458.78 655.972 1459.9 657.653 1460 659.538 C 1460.1 661.422 1459.17 663.213 1457.57 664.213 C 1455.19 665.699 1452.06 665.022 1450.51 662.685 C 1448.96 660.349 1449.54 657.201 1451.83 655.582 z" fill="rgb(18,0,61)" transform="translate(0,0)"></path>
<path d="M 219.027 638.908 C 221.131 641.312 206.353 674.471 204.182 679.79 C 201.02 677.457 197.88 675.095 194.762 672.703 C 191.257 670.389 187.818 667.977 184.449 665.468 C 196.273 656.227 207.461 648.796 219.027 638.908 z" fill="rgb(113,30,202)" transform="translate(0,0)"></path>
<path d="M 35.8517 782.022 C 47.2379 787.73 60.3632 798.638 70.6503 806.231 C 70.9288 806.436 69.527 807.581 69.8213 807.305 L 32.6638 806.96 C 33.5675 798.628 34.6303 790.313 35.8517 782.022 z" fill="rgb(113,30,202)" transform="translate(0,0)"></path>
<path d="M 739.092 648.793 C 741.183 648.748 749.206 650.198 749.452 650.03 C 760.178 642.72 755.349 665.205 755.719 669.663 C 755.793 670.553 749.25 670.09 748.434 670.061 C 746.161 668.574 744.218 671.879 741.52 671.13 C 727.015 667.107 729.918 655.986 739.092 648.793 z" fill="rgb(196,158,234)" transform="translate(0,0)"></path>
<path d="M 741.337 655.58 C 742.933 654.578 744.948 654.526 746.594 655.444 C 748.24 656.361 749.256 658.102 749.244 659.986 C 749.232 661.871 748.195 663.599 746.538 664.496 C 744.086 665.822 741.025 664.963 739.621 662.556 C 738.216 660.148 738.976 657.061 741.337 655.58 z" fill="rgb(18,0,61)" transform="translate(0,0)"></path>
<path d="M 1009.92 648.841 C 1015.5 648.732 1017.88 650.784 1021.69 649.694 C 1022.56 649.029 1027.82 649.67 1027.57 651.13 C 1025.51 663.403 1034.22 670.572 1019.64 669.924 C 1018.77 666.587 1016.63 671.591 1013.01 670.808 C 999.81 667.952 1000.21 656.827 1009.92 648.841 z" fill="rgb(196,158,234)" transform="translate(0,0)"></path>
<path d="M 1013.2 655.567 C 1015.66 654.274 1018.71 655.231 1019.99 657.701 C 1021.27 660.171 1020.3 663.213 1017.83 664.484 C 1015.36 665.747 1012.35 664.784 1011.07 662.329 C 1009.8 659.875 1010.75 656.852 1013.2 655.567 z" fill="rgb(18,0,61)" transform="translate(0,0)"></path>
<path d="M 1417.76 649.01 C 1436.22 647.835 1444.02 661.205 1428.1 670.487 C 1409.98 671.136 1403.28 658.188 1417.76 649.01 z" fill="rgb(196,158,234)" transform="translate(0,0)"></path>
<path d="M 1421.36 655.413 C 1423.89 654.364 1426.8 655.527 1427.91 658.033 C 1429.02 660.538 1427.92 663.471 1425.44 664.638 C 1423.79 665.418 1421.84 665.239 1420.35 664.171 C 1418.87 663.103 1418.07 661.314 1418.28 659.495 C 1418.49 657.676 1419.67 656.114 1421.36 655.413 z" fill="rgb(18,0,61)" transform="translate(0,0)"></path>
<path d="M 1160.78 649.147 C 1179.19 647.742 1186.61 660.386 1171.51 670.424 C 1153.89 673.244 1147.09 659.742 1160.78 649.147 z" fill="rgb(196,158,234)" transform="translate(0,0)"></path>
<path d="M 1163.77 655.529 C 1165.38 654.588 1167.38 654.61 1168.97 655.586 C 1170.57 656.561 1171.5 658.333 1171.4 660.198 C 1171.29 662.064 1170.17 663.723 1168.48 664.517 C 1166.02 665.674 1163.09 664.688 1161.82 662.28 C 1160.56 659.872 1161.42 656.897 1163.77 655.529 z" fill="rgb(18,0,61)" transform="translate(0,0)"></path>
<path d="M 618.365 639.134 C 619.215 639.18 620.065 639.235 620.914 639.301 C 623.007 639.478 626.667 639.761 628.03 641.572 C 629.044 642.918 629.165 648.778 627.782 649.649 C 625.605 649.183 623.604 644.676 618.757 646.572 C 616.248 647.526 614.268 649.51 613.319 652.021 C 611.691 656.422 613.764 662.283 618.548 663.81 C 622.553 665.088 625.458 663.088 628.971 661.394 C 628.792 671.911 628.292 672.355 613.601 669.719 C 610.884 669.231 606.287 664.127 605.576 661.307 C 602.46 648.948 607.066 642.851 618.365 639.134 z" fill="rgb(196,158,234)" transform="translate(0,0)"></path>
<path d="M 1397.96 664.264 C 1404.45 663.591 1404.18 667.805 1399.01 670.195 C 1388.56 675.029 1376.48 664.963 1382.41 654.371 C 1384.03 651.528 1386.79 649.518 1389.99 648.853 C 1401.13 646.52 1412.56 661.563 1397.15 661.545 L 1397.96 664.264 z" fill="rgb(196,158,234)" transform="translate(0,0)"></path>
<path d="M 1397.96 664.264 C 1390.83 669.186 1380.95 661.601 1397.15 661.545 L 1397.96 664.264 z" fill="rgb(7,0,50)" transform="translate(0,0)"></path>
<path d="M 1391.39 652.369 C 1394.98 653.702 1398.17 654.016 1395.5 657.925 C 1389.42 656.908 1387.46 658.026 1391.39 652.369 z" fill="rgb(7,0,50)" transform="translate(0,0)"></path>
<path d="M 958.002 649.063 C 966.359 648.21 972.061 648.416 974.92 658.045 C 976.587 663.663 964.064 660.397 960.96 661.248 C 957.403 662.224 959.707 665.203 961.556 665.846 C 964.719 666.946 967.796 665.076 970.748 663.845 C 981.363 667.107 962.176 676.088 953.863 667.119 C 951.846 664.917 950.837 661.974 951.079 658.997 C 951.481 654.135 954.637 651.807 958.002 649.063 z" fill="rgb(196,158,234)" transform="translate(0,0)"></path>
<path d="M 961.537 652.368 C 964.862 653.474 968.33 654.119 965.502 657.761 C 959.366 656.711 958.083 657.745 961.537 652.368 z" fill="rgb(7,0,50)" transform="translate(0,0)"></path>
<path d="M 656.328 648.913 C 667.549 649.199 664.892 650.085 670.65 660.109 C 671.737 658.153 675.719 650.077 676.666 649.697 C 690.997 643.938 676.585 663.874 675.362 666.424 C 674.52 667.95 668.405 679.851 667.291 680.263 C 654.456 685.01 663.912 671.999 666.595 666.468 C 663.093 660.571 659.502 655.017 656.328 648.913 z" fill="rgb(196,158,234)" transform="translate(0,0)"></path>
<path d="M 1481.44 649.109 C 1488.06 648.348 1494.56 648.812 1497.42 655.386 C 1499.62 660.448 1497.1 661.715 1492.8 661.229 C 1490.01 661.457 1486.23 660.783 1483.56 661.34 C 1480.59 661.959 1483.37 665.445 1485 665.893 C 1488.04 666.727 1490.39 665.094 1492.91 663.965 C 1494.78 664.537 1498.39 665.45 1495.6 667.881 C 1483.06 678.808 1464.73 661.255 1479.32 650.643 L 1481.44 649.109 z" fill="rgb(196,158,234)" transform="translate(0,0)"></path>
<path d="M 1484.17 652.576 C 1488.42 653.384 1490.16 652.944 1489.53 657.739 C 1483.79 656.937 1481.74 658.413 1484.17 652.576 z" fill="rgb(18,0,61)" transform="translate(0,0)"></path>
<path d="M 1130 639.917 C 1132.82 639.886 1146.8 639.437 1147.25 640.447 C 1151.62 650.983 1136.32 641.962 1137.79 649.509 C 1139.53 658.468 1146.33 645.098 1147.13 658.68 C 1145.24 658.733 1140.55 658.62 1138.97 659.097 C 1136.25 659.922 1139.98 669.894 1136.19 670.144 C 1128.67 670.637 1130.19 668.634 1130.12 662.75 L 1130 639.917 z" fill="rgb(196,158,234)" transform="translate(0,0)"></path>
<path d="M 921.925 648.862 C 931.251 649.572 926.386 651.759 934.461 648.827 C 942.457 645.923 946.099 658.735 944.463 664.5 C 944.304 665.062 944.775 669.124 943.413 669.792 C 934.974 672.076 936.958 666.464 936.744 660.759 C 937.099 655.752 934.888 654.325 930.231 655.256 C 924.435 656.416 936.409 674.029 921.33 668.923 C 920.689 668.706 921.122 651.296 921.925 648.862 z" fill="rgb(196,158,234)" transform="translate(0,0)"></path>
<path d="M 1506.12 660.697 C 1500.63 643.933 1526.06 646.24 1519.44 653.404 C 1517.99 654.982 1510.19 651.695 1513.28 655.652 C 1515.48 657.755 1520.46 656.564 1521.95 661.955 C 1525.33 674.178 1497.86 672.565 1506.31 664.305 C 1506.33 662.95 1506.42 662.03 1506.12 660.697 z" fill="rgb(196,158,234)" transform="translate(0,0)"></path>
<path d="M 1506.12 660.697 C 1518.83 664.443 1513.96 667.893 1506.31 664.305 C 1506.33 662.95 1506.42 662.03 1506.12 660.697 z" fill="rgb(7,0,50)" transform="translate(0,0)"></path>
<path d="M 1270.37 661.861 C 1262.81 655.419 1267.44 649.858 1275.49 648.667 C 1282.24 647.668 1287 653.293 1279.02 653.746 C 1277.33 653.814 1274.46 652.5 1273.83 655.009 C 1276.33 658.899 1285.12 655.727 1284 664.512 C 1282.81 673.898 1258.89 672.187 1268.34 664.501 L 1270.37 661.861 z" fill="rgb(196,158,234)" transform="translate(0,0)"></path>
<path d="M 1270.37 661.861 C 1279.24 663.718 1277.44 667.561 1268.34 664.501 L 1270.37 661.861 z" fill="rgb(7,0,50)" transform="translate(0,0)"></path>
<path d="M 786.554 648.083 C 788.949 648.154 795.914 648.147 796.696 650.137 C 798.916 655.782 790.477 652.935 788.78 653.877 C 788.364 654.548 788.451 654.288 788.384 654.698 C 791.448 658.424 796.84 656.927 798.157 661.46 C 800.058 668.003 795.661 670.255 790.049 671.74 C 786.987 671.298 779.093 671.521 780.516 666.649 C 782.261 660.677 788.946 670.046 790.702 664.499 C 789.511 661.913 771.473 659.347 786.554 648.083 z" fill="rgb(196,158,234)" transform="translate(0,0)"></path>
<path d="M 1217.77 648.108 C 1220.9 648.417 1228.9 648.047 1226.54 652.535 C 1224.29 656.822 1219.29 649.934 1217.59 654.778 C 1219.48 657.033 1222.02 656.535 1223.58 657.819 C 1233.49 666.013 1224.16 670.135 1217.5 671.568 C 1216.28 671.239 1210.46 669.88 1210.06 668.84 C 1207.42 661.906 1217.63 667.39 1219.86 665.151 C 1220.23 662.975 1197.61 655.762 1217.77 648.108 z" fill="rgb(196,158,234)" transform="translate(0,0)"></path>
<path d="M 1192.62 648.117 C 1195.08 648.326 1204.3 648.35 1201.86 652.985 C 1200.16 656.203 1194.61 651.491 1193.47 654.35 C 1193.7 656.216 1216.29 663.438 1194.45 671.317 C 1192.79 671.087 1183.02 670.248 1185.47 666.448 C 1188.31 662.051 1189.62 667.141 1195.39 665.662 C 1196.98 661.372 1174.2 658.324 1192.62 648.117 z" fill="rgb(196,158,234)" transform="translate(0,0)"></path>
<path d="M 1057.01 649.009 C 1059.72 648.721 1068.91 647.377 1069.16 651.426 C 1067.53 654.752 1052.35 653.125 1063.66 657.433 C 1072.99 660.989 1072.32 665.146 1064.76 670.663 C 1062.49 670.877 1049.17 671.851 1052.79 666.216 C 1054.8 663.089 1060.17 668.022 1062.44 664.657 C 1060.57 660.287 1045.07 661.4 1057.01 649.009 z" fill="rgb(196,158,234)" transform="translate(0,0)"></path>
<path d="M 694.547 648.87 C 696.656 648.798 705.992 648.049 705.917 651.925 C 703.349 655.735 696.801 652.046 696.984 655.325 C 697.094 657.268 703.805 657.882 705.399 660.582 C 708.883 666.485 704.715 668.856 699.996 671.303 C 697.581 671.151 687.557 671.489 689.177 666.909 C 690.067 664.395 691.882 664.376 693.986 665.588 C 694.942 666.139 698.504 666.377 698.96 664.831 C 697.938 661.233 681.394 660.695 694.547 648.87 z" fill="rgb(196,158,234)" transform="translate(0,0)"></path>
<path d="M 765.18 636.383 C 772.845 637.378 772.497 635.535 772.53 643.995 C 772.565 652.904 772.74 661.749 772.483 670.669 C 771.41 670.602 765.637 670.597 765.57 669.833 C 764.677 659.655 765.14 646.536 765.18 636.383 z" fill="rgb(196,158,234)" transform="translate(0,0)"></path>
<path d="M 1037.01 636.766 C 1043.81 637.586 1044.24 636.082 1044.22 643.647 C 1044.19 652.668 1044.27 661.779 1044.33 670.805 C 1036.04 669.534 1036.88 671.365 1036.93 662.342 C 1036.99 653.834 1036.77 645.279 1037.01 636.766 z" fill="rgb(196,158,234)" transform="translate(0,0)"></path>
<path d="M 715.174 643.041 C 722.538 643.253 722.193 641.669 722.661 648.608 C 722.628 648.128 731.115 652.815 723.279 655.373 C 721.968 655.801 722.497 668.27 722.499 669.978 C 708.104 670.791 719.273 662.247 713.978 655.816 C 711.818 653.192 710.123 652.364 713.689 649.406 C 715.058 648.269 715.011 644.126 715.174 643.041 z" fill="rgb(196,158,234)" transform="translate(0,0)"></path>
<path d="M 1251.07 636.371 C 1252.47 636.563 1257.63 636.867 1257.71 637.666 C 1258.53 645.591 1258.27 663.749 1258.31 670.853 C 1256.53 670.563 1253.01 670.592 1251.6 669.52 C 1250.03 668.33 1251.07 640.127 1251.07 636.371 z" fill="rgb(196,158,234)" transform="translate(0,0)"></path>
<path d="M 995.591 649.202 C 998.657 649.239 997.874 652.301 997.463 654.589 C 997.119 656.511 993.719 655.717 992.378 656.482 C 987.512 659.257 989.896 664.705 988.96 669.045 C 988.727 670.081 985.222 670.881 984.036 671.285 C 980.462 667.109 981.615 655.83 982.58 650.594 C 982.726 649.798 988.193 648.895 990 650.995 L 990.432 651.506 C 990.726 651.567 994.747 649.571 995.591 649.202 z" fill="rgb(196,158,234)" transform="translate(0,0)"></path>
<path d="M 637.061 648.561 C 639.227 648.833 643.319 648.568 644.063 650.872 C 644.778 653.09 645.983 651.274 647.248 650.284 C 651.542 646.923 653.706 650.255 652.66 654.45 C 652.216 656.227 647.947 655.683 644.142 658.087 C 644.115 658.987 646.263 675.165 637.433 669.353 C 636.584 668.794 636.993 651.84 637.061 648.561 z" fill="rgb(196,158,234)" transform="translate(0,0)"></path>
<path d="M 905.083 649.79 C 913.089 649.903 912.743 648.608 912.614 657.407 C 912.551 661.624 912.603 666.172 912.613 670.403 C 903.878 670.242 905.144 670.983 905.095 662.071 C 905.073 658.028 905.094 653.841 905.083 649.79 z" fill="rgb(196,158,234)" transform="translate(0,0)"></path>
<path d="M 1236.28 648.715 C 1237.52 648.944 1241.49 649.337 1241.7 650.262 C 1242.69 654.65 1242.45 667.106 1241.32 671.069 C 1239.91 670.723 1235.1 670.2 1235.14 668.562 C 1235.29 663.141 1233.82 653.327 1236.28 648.715 z" fill="rgb(196,158,234)" transform="translate(0,0)"></path>
<path d="M 1310.68 650.23 C 1312.99 649.472 1315.52 650.078 1317.23 651.794 C 1318.94 653.511 1319.53 656.044 1318.77 658.343 C 1318 660.642 1316 662.312 1313.61 662.659 C 1310.32 663.137 1307.21 661.02 1306.45 657.784 C 1305.69 654.549 1307.53 651.269 1310.68 650.23 z" fill="rgb(196,158,234)" transform="translate(0,0)"></path>
<path d="M 825.565 650.444 C 828.889 649.36 832.462 651.184 833.534 654.512 C 834.606 657.841 832.77 661.407 829.438 662.467 C 826.122 663.522 822.578 661.697 821.511 658.385 C 820.445 655.074 822.257 651.523 825.565 650.444 z" fill="rgb(196,158,234)" transform="translate(0,0)"></path>
<path d="M 1096.16 650.378 C 1099.25 649.061 1102.83 650.427 1104.25 653.468 C 1105.68 656.509 1104.44 660.132 1101.45 661.663 C 1099.42 662.703 1096.98 662.552 1095.1 661.27 C 1093.21 659.988 1092.18 657.779 1092.4 655.51 C 1092.62 653.24 1094.06 651.273 1096.16 650.378 z" fill="rgb(196,158,234)" transform="translate(0,0)"></path>
<path d="M 1237.21 638.318 C 1239.24 637.646 1241.45 638.625 1242.31 640.581 C 1243.17 642.537 1242.41 644.829 1240.55 645.876 C 1239.17 646.648 1237.48 646.574 1236.17 645.684 C 1234.87 644.794 1234.19 643.242 1234.41 641.679 C 1234.62 640.117 1235.71 638.814 1237.21 638.318 z" fill="rgb(208,178,238)" transform="translate(0,0)"></path>
<path d="M 907.112 638.476 C 909.025 637.491 911.374 638.187 912.443 640.054 C 913.511 641.921 912.92 644.299 911.102 645.449 C 909.852 646.24 908.269 646.28 906.98 645.555 C 905.692 644.829 904.905 643.455 904.933 641.976 C 904.96 640.497 905.797 639.153 907.112 638.476 z" fill="rgb(208,178,238)" transform="translate(0,0)"></path>
<metadata><recraft-signature>{"signed_by": "recraft", "signature_b64": "D4VpLutJYSRLnLw1B5Sn+7h/2bwk87KPPwkbKIx6NB+J7abdQq4SrbAhoJqDlwYEtApKhXIRLZoQ8eNf1oTQBw==", "signing_algo": "Ed25519", "generation_timestamp": 1780247409, "identifier": "c6327f2c-47ba-4e58-aef9-bb0e4041eecb"}</recraft-signature></metadata></svg>