<svg xmlns="http://www.w3.org/2000/svg" height="768" preserveAspectRatio="none" style="display: block;" version="1.1" viewBox="0 0 2048 1024" width="1536">
<path d="M 0 0 L 2048 0 L 2048 365.364 L 2048 372.318 L 2048 374.655 L 2048 388.75 L 2048 390.877 L 2048 422.645 L 2048 424.733 L 2048 454.894 L 2048 457.421 L 2048 473.889 L 2048 476.425 L 2048 567.345 L 2048 571.602 L 2048 593.976 L 2048 596.491 L 2048 613.517 L 2048 617.34 L 2048 645.153 L 2048 647.046 L 2048 655.68 L 2048 659.34 L 2048 676.567 L 2048 678.939 L 2048 703.211 L 2048 1024 L 0 1024 L 0 682.219 L 0 665.439 L 0 658.82 L 0 627.572 L 0 615.486 L 0 563.943 L 0 557.702 L 0 539.05 L 0 534.335 L 0 506.978 L 0 503.882 L 0 469.615 L 0 463.312 L 0 435.197 L 0 0 z" fill="rgb(39,7,19)" transform="translate(0,0)"></path>
<path d="M 1796.32 658.187 C 1782.74 649.291 1773.75 635.206 1778.7 618.069 C 1782.42 605.206 1795.74 594.996 1800.18 581.675 C 1805.36 566.168 1803.46 549.502 1809.75 534.423 C 1815.01 523.762 1835.52 504.388 1840.9 493.677 C 1850.1 475.351 1857.06 453.601 1865.82 434.508 C 1875.15 413.336 1898.32 390.286 1921.46 383.68 C 1949.49 375.679 1993.3 375.846 2022.62 379.362 C 2030.44 380.301 2041.29 385.445 2048 388.75 L 2048 390.877 L 2048 422.645 L 2048 424.733 L 2048 454.894 L 2048 457.421 L 2048 473.889 L 2048 476.425 L 2048 567.345 L 2048 571.602 L 2048 593.976 L 2048 596.491 L 2048 613.517 L 2048 617.34 L 2048 645.153 L 2048 647.046 L 2048 655.68 L 2048 659.34 L 2048 676.567 L 2048 678.939 C 2041.55 679.045 2037 679.193 2030.83 681.747 C 2002.83 714.332 2010.3 691.595 1978.19 700.398 C 1976.19 700.663 1971.36 700.496 1969.1 700.47 C 1945.07 693.888 1938.57 682.542 1914.34 697.764 L 1915.78 694.376 C 1894.35 705.627 1880.81 691.976 1860.26 687.607 C 1850.16 690.077 1832.48 700.277 1827.16 700.106 L 1825.9 700.51 C 1822.41 696.272 1820.71 687.415 1819.38 681.966 C 1817.85 681.343 1816.33 680.693 1814.83 680.02 C 1803.4 674.874 1800.44 669.124 1796.32 658.187 z" fill="rgb(39,7,19)" transform="translate(0,0)"></path>
<path d="M 1978.61 441.086 C 1994.44 446.84 2001.01 449.104 2009.49 434.242 C 2010.16 433.074 2014.13 432.914 2015.54 433.252 C 2022.94 435.039 2022.76 445.81 2026.8 451.067 C 2031.07 457.061 2039.67 455.49 2048 457.421 L 2048 473.889 L 2048 476.425 L 2048 567.345 L 2048 571.602 L 2048 593.976 L 2048 596.491 C 2045.51 598.167 2044.03 599.218 2041.37 600.642 L 2040.7 598.323 C 2013.46 606.385 2028.32 615.805 1997.24 612.969 C 1989.49 621.007 1987.51 624.997 1976.75 630.244 C 1958.12 639.333 1945.84 622.188 1928.29 616.242 L 1927.82 616.087 C 1909.55 626.9 1909.27 621.765 1889.54 618.789 C 1885.34 614.588 1878.81 609.278 1874.15 605.286 C 1873.5 595.656 1872.7 593.005 1877.23 584.339 C 1873.99 563.865 1872.15 564.284 1887.06 550.316 C 1887.91 547.263 1888.7 543.051 1889.4 539.866 C 1898.83 534.265 1904.6 531.421 1912.04 523.459 C 1912.3 513.497 1909.65 509.234 1914.53 500.474 L 1921.18 489.92 L 1919.9 476.198 C 1925.68 470.485 1930.79 464.924 1936.27 458.91 C 1959.77 454.64 1958.29 451.665 1978.61 441.086 z" fill="rgb(245,156,157)" transform="translate(0,0)"></path>
<path d="M 1978.61 441.086 C 1994.44 446.84 2001.01 449.104 2009.49 434.242 C 2010.16 433.074 2014.13 432.914 2015.54 433.252 C 2022.94 435.039 2022.76 445.81 2026.8 451.067 C 2031.07 457.061 2039.67 455.49 2048 457.421 L 2048 473.889 L 2048 476.425 L 2039.76 468.048 C 2032.55 467.226 2027.15 467.722 2022.19 461.978 C 2017.77 456.864 2020.82 446.454 2012.9 446.405 C 2003.27 446.346 1999.68 463.33 1988.75 462.318 C 1982.47 461.737 1977.6 457.56 1972.26 462.448 C 1968.22 465.567 1964.47 472.519 1958.84 472.207 C 1951.57 471.805 1947.38 468.425 1940.95 473.676 C 1929.16 483.294 1944.11 494.126 1934.16 503.866 C 1932.27 505.718 1929.21 507.545 1926.97 508.985 C 1915.74 536.157 1922.85 531.756 1896.56 545.717 C 1895.29 556.152 1893.32 559.558 1888.96 569.095 C 1898.26 586.502 1896.46 580.659 1889.66 596.146 C 1892.34 598.671 1906.23 606.262 1910.24 608.553 C 1916.13 606.949 1918.47 600.489 1921.89 600.087 C 1933.23 598.755 1953.94 613.445 1964.62 617.594 C 1967.08 616.915 1974.13 614.966 1975.88 613.73 C 1992.02 602.347 1991.21 598.604 2010.91 598.639 C 2016.63 592.325 2023.44 583.552 2032.58 582.174 C 2035.41 581.748 2037.13 581.815 2039.96 580.998 L 2042.62 581.107 C 2043.43 579.207 2045.36 574.193 2046.54 573.025 L 2048 571.602 L 2048 593.976 L 2048 596.491 C 2045.51 598.167 2044.03 599.218 2041.37 600.642 L 2040.7 598.323 C 2013.46 606.385 2028.32 615.805 1997.24 612.969 C 1989.49 621.007 1987.51 624.997 1976.75 630.244 C 1958.12 639.333 1945.84 622.188 1928.29 616.242 L 1927.82 616.087 C 1909.55 626.9 1909.27 621.765 1889.54 618.789 C 1885.34 614.588 1878.81 609.278 1874.15 605.286 C 1873.5 595.656 1872.7 593.005 1877.23 584.339 C 1873.99 563.865 1872.15 564.284 1887.06 550.316 C 1887.91 547.263 1888.7 543.051 1889.4 539.866 C 1898.83 534.265 1904.6 531.421 1912.04 523.459 C 1912.3 513.497 1909.65 509.234 1914.53 500.474 L 1921.18 489.92 L 1919.9 476.198 C 1925.68 470.485 1930.79 464.924 1936.27 458.91 C 1959.77 454.64 1958.29 451.665 1978.61 441.086 z" fill="rgb(245,156,157)" transform="translate(0,0)"></path>
<path d="M 1964.71 619.537 C 1954.17 616.042 1935.36 602.69 1924.09 601.966 C 1918.94 601.635 1917.56 609.729 1909 611.034 C 1905.86 610.262 1904.91 609.189 1902.95 606.656 C 1898.83 601.346 1891.2 603.583 1887.56 597.054 C 1887.54 591.35 1891.47 590.831 1891.81 585.501 C 1892.21 579.309 1887.66 570.226 1889.02 564.271 C 1894.81 538.844 1896.38 546.589 1914.12 533.255 C 1917.45 531.323 1923.2 509.991 1924.57 509.15 C 1943.48 497.501 1930.39 489.465 1935.23 477.51 C 1940.25 465.131 1953.99 470.325 1962.53 469.132 C 1965.66 468.695 1970.74 459.466 1974.31 458.703 C 1981.54 455.739 1988.11 462.198 1995.03 458.075 C 2001.29 454.342 2007.48 438.565 2016.89 445.762 C 2022.18 449.813 2022.59 456.803 2023.36 462.958 C 2029.94 464.962 2033.79 465.291 2040.6 466.07 L 2048 473.889 L 2048 476.425 L 2039.76 468.048 C 2032.55 467.226 2027.15 467.722 2022.19 461.978 C 2017.77 456.864 2020.82 446.454 2012.9 446.405 C 2003.27 446.346 1999.68 463.33 1988.75 462.318 C 1982.47 461.737 1977.6 457.56 1972.26 462.448 C 1968.22 465.567 1964.47 472.519 1958.84 472.207 C 1951.57 471.805 1947.38 468.425 1940.95 473.676 C 1929.16 483.294 1944.11 494.126 1934.16 503.866 C 1932.27 505.718 1929.21 507.545 1926.97 508.985 C 1915.74 536.157 1922.85 531.756 1896.56 545.717 C 1895.29 556.152 1893.32 559.558 1888.96 569.095 C 1898.26 586.502 1896.46 580.659 1889.66 596.146 C 1892.34 598.671 1906.23 606.262 1910.24 608.553 C 1916.13 606.949 1918.47 600.489 1921.89 600.087 C 1933.23 598.755 1953.94 613.445 1964.62 617.594 C 1967.08 616.915 1974.13 614.966 1975.88 613.73 C 1992.02 602.347 1991.21 598.604 2010.91 598.639 C 2016.63 592.325 2023.44 583.552 2032.58 582.174 C 2035.41 581.748 2037.13 581.815 2039.96 580.998 L 2042.62 581.107 C 2038.04 586.011 2033.32 582.398 2028.03 585.466 C 2022.32 588.777 2016.22 595.9 2011.62 600.883 L 1996.06 601.084 C 1982.58 609.021 1987.71 613.62 1964.71 619.537 z" fill="rgb(39,7,19)" transform="translate(0,0)"></path>
<path d="M 2048 593.976 L 2048 596.491 C 2045.51 598.167 2044.03 599.218 2041.37 600.642 L 2040.7 598.323 C 2043.38 596.635 2045.21 595.95 2048 593.976 z" fill="rgb(81,14,28)" transform="translate(0,0)"></path>
<path d="M 2039.96 580.998 C 2042.48 576.275 2043.42 571.845 2046.3 569.028 C 2046.88 568.475 2047.44 567.914 2048 567.345 L 2048 571.602 L 2046.54 573.025 C 2045.36 574.193 2043.43 579.207 2042.62 581.107 L 2039.96 580.998 z" fill="rgb(39,7,19)" transform="translate(0,0)"></path>
<path d="M 2002.59 464.029 C 2016.14 462.454 2015.57 466.009 2019.77 475.917 C 2027.35 493.81 2039.42 477.07 2046.27 500.672 L 2042.98 509.428 C 2048.33 528.008 2043.5 539.369 2040.31 558.681 C 2033.15 563.127 2027.97 565.113 2020.14 568.12 C 2011 590.562 2009.72 581.959 1991.91 590.17 C 1973.52 598.644 1978.95 607.173 1956.1 595.698 C 1947.4 593.227 1937.52 590.165 1928.73 588.526 C 1898.3 611.619 1912.06 562.769 1914.41 550.522 C 1918.13 547.018 1925.38 541.995 1929.89 538.189 C 1930.42 533.58 1931.04 528.983 1931.78 524.401 C 1936.4 517.977 1939.44 516.43 1946.03 512.321 C 1945 489.295 1945.25 481.912 1970.24 483.316 C 1983.33 473.104 1987.34 470.64 2002.59 464.029 z" fill="rgb(39,7,19)" transform="translate(0,0)"></path>
<path d="M 1992.26 379.176 L 1997.83 379.151 C 2001.38 379.747 2003.07 380.13 2006.74 379.737 C 2024.93 380.594 2031.37 382.912 2048 390.877 L 2048 422.645 L 2048 424.733 L 2048 454.894 L 2048 457.421 C 2039.67 455.49 2031.07 457.061 2026.8 451.067 C 2022.76 445.81 2022.94 435.039 2015.54 433.252 C 2014.13 432.914 2010.16 433.074 2009.49 434.242 C 2001.01 449.104 1994.44 446.84 1978.61 441.086 C 1958.29 451.665 1959.77 454.64 1936.27 458.91 C 1930.79 464.924 1925.68 470.485 1919.9 476.198 L 1921.18 489.92 L 1914.53 500.474 L 1912.95 499.968 C 1911.06 502.903 1911.18 503.801 1908.41 505.103 C 1900.32 501.695 1883.43 491.224 1874.66 486.405 C 1875.62 481.093 1875.93 478.041 1876.3 472.679 C 1875.01 467.745 1877.44 469.662 1877.58 466.135 C 1872.58 468.69 1874.03 479.522 1873.66 485.278 C 1867.71 481.861 1861.63 478.254 1855.56 475.108 C 1855.01 474.711 1854.58 474.411 1854.01 474.033 L 1853.23 472.219 C 1853.56 462.443 1873.1 421.611 1882.32 412.578 C 1906.81 388.578 1921.59 382.432 1954.25 380.705 C 1958.05 381.051 1959.45 380.79 1963.09 380.159 L 1976.24 379.689 C 1980.95 380.35 1987.55 379.836 1992.26 379.176 z" fill="rgb(39,7,19)" transform="translate(0,0)"></path>
<path d="M 1992.26 379.176 L 1997.83 379.151 C 2001.38 379.747 2003.07 380.13 2006.74 379.737 C 2024.93 380.594 2031.37 382.912 2048 390.877 L 2048 422.645 C 2033.72 417.271 2030.09 419.099 2020.02 406.93 C 2021.88 402.199 2025.5 393.879 2026.06 389.21 C 2021.99 394.214 2019.54 401.366 2017.38 407.455 C 2001.47 410.715 1996.5 408.704 1981.27 402.185 C 1980.9 398.252 1980.83 392.688 1978.84 389.485 C 1976.97 392.449 1978.38 399.448 1978.87 403.203 C 1974 405.865 1970.47 407.846 1965.25 409.893 L 1953.13 408.07 C 1952.13 403.417 1950.86 395.605 1948.57 391.762 C 1948.95 392.911 1949.34 394.018 1949.64 395.192 L 1948.27 394.265 C 1948.84 399.363 1949.58 402.859 1950.66 407.818 C 1945.21 414.461 1940.67 419.053 1933.31 423.706 L 1916.09 424.326 C 1913.91 420.855 1909.35 413.132 1906.92 410.319 L 1905.78 410.177 L 1906.42 409.787 L 1905.25 408.959 L 1905.21 409.008 L 1906.77 410.583 L 1906.32 411.883 C 1908.94 416.807 1911.28 421.136 1914.21 425.909 C 1906.29 448.123 1896.1 443.781 1879.13 435.408 L 1878.86 436.27 C 1884.14 442.741 1893.93 441.202 1892.95 452.232 C 1892.3 459.467 1884.78 462.709 1879.24 465.219 L 1877.58 466.135 C 1872.58 468.69 1874.03 479.522 1873.66 485.278 C 1867.71 481.861 1861.63 478.254 1855.56 475.108 C 1855.01 474.711 1854.58 474.411 1854.01 474.033 L 1853.23 472.219 C 1853.56 462.443 1873.1 421.611 1882.32 412.578 C 1906.81 388.578 1921.59 382.432 1954.25 380.705 C 1958.05 381.051 1959.45 380.79 1963.09 380.159 L 1976.24 379.689 C 1980.95 380.35 1987.55 379.836 1992.26 379.176 z" fill="rgb(197,97,107)" transform="translate(0,0)"></path>
<path d="M 1982.07 404.857 C 1988.59 407.31 1995.19 409.53 2001.87 411.514 L 2003.95 411.139 C 2005.6 410.86 2006.08 411.007 2007.62 411.337 L 2015.06 410.39 C 2016.51 413.958 2011.73 416.39 2013.56 420.87 C 2016.33 419.224 2017.62 412.648 2018.78 409.008 C 2034.98 425.956 2036.01 418.417 2048 424.733 L 2048 454.894 C 2046.07 454.421 2043.05 453.992 2041 453.63 C 2037.03 452.73 2035.94 452.977 2031.9 453.165 C 2023.84 447.067 2025.88 434.144 2015.33 430.488 C 2008.81 428.228 2004.72 440.766 1998.15 442.837 C 1991.88 444.815 1988.89 442.743 1983.34 440.654 C 1982.78 428.726 1982.36 416.793 1982.07 404.857 z" fill="rgb(194,18,61)" transform="translate(0,0)"></path>
<path d="M 2001.87 411.514 L 2003.95 411.139 C 2005.6 410.86 2006.08 411.007 2007.62 411.337 C 2005.52 412.452 2004.24 411.958 2001.87 411.514 z" fill="rgb(81,14,28)" transform="translate(0,0)"></path>
<path d="M 1881.23 466.215 C 1883.8 465.127 1886.54 463.961 1888.94 462.434 C 1892.16 460.384 1894.28 453.855 1897.93 454.159 C 1904.82 461.263 1910.68 468.596 1917.86 475.896 C 1918.11 480.455 1918.31 485.218 1918.68 489.75 L 1912.95 499.968 C 1911.06 502.903 1911.18 503.801 1908.41 505.103 C 1900.32 501.695 1883.43 491.224 1874.66 486.405 C 1875.62 481.093 1875.93 478.041 1876.3 472.679 C 1875.01 467.745 1877.44 469.662 1877.58 466.135 L 1879.24 465.219 L 1881.23 466.215 z" fill="rgb(194,18,61)" transform="translate(0,0)"></path>
<path d="M 1877.58 466.135 L 1879.24 465.219 L 1881.23 466.215 C 1876.44 469.667 1877.98 467.097 1876.3 472.679 C 1875.01 467.745 1877.44 469.662 1877.58 466.135 z" fill="rgb(155,14,53)" transform="translate(0,0)"></path>
<path d="M 2031.9 453.165 C 2035.94 452.977 2037.03 452.73 2041 453.63 C 2036.42 454.221 2036.24 454.217 2031.9 453.165 z" fill="rgb(81,14,28)" transform="translate(0,0)"></path>
<path d="M 1934.07 425.819 C 1942.47 419.897 1944.37 417.92 1951.2 410.224 C 1952.87 418.279 1959.45 444.141 1959.9 449.788 C 1957.45 451.569 1956.32 452.231 1953.49 453.173 C 1946.7 455.114 1941.87 455.839 1935 457.246 C 1929.3 446.991 1923.33 436.502 1917.42 426.365 C 1923.02 426.1 1928.48 426.058 1934.07 425.819 z" fill="rgb(194,18,61)" transform="translate(0,0)"></path>
<path d="M 1953.49 453.173 C 1956.16 450.818 1956.58 450.928 1959.9 449.788 C 1957.45 451.569 1956.32 452.231 1953.49 453.173 z" fill="rgb(155,14,53)" transform="translate(0,0)"></path>
<path d="M 1910.26 438.029 C 1910.69 437.388 1911.12 436.752 1911.56 436.122 C 1913.21 433.729 1914.61 430.389 1915.89 427.709 C 1921.47 439.153 1926.96 447.894 1933.41 458.767 C 1927.83 465.126 1925.27 468.02 1918.99 473.59 C 1910.04 464.396 1901.3 455.011 1892.75 445.443 C 1902.07 443.571 1901.56 445.056 1908.94 439.446 C 1909.55 438.444 1909.33 438.635 1910.26 438.029 z" fill="rgb(194,18,61)" transform="translate(0,0)"></path>
<path d="M 1910.26 438.029 C 1909.85 438.999 1909.89 438.942 1908.94 439.446 C 1909.55 438.444 1909.33 438.635 1910.26 438.029 z" fill="rgb(155,14,53)" transform="translate(0,0)"></path>
<path d="M 1964.81 411.657 C 1972.83 409.588 1973 409.348 1979.69 404.874 C 1979.98 414.64 1980.5 427.938 1980.62 437.973 C 1980.65 440.391 1975.63 439.63 1972.54 441.557 C 1969.26 443.6 1965.62 446.129 1962.26 448.211 C 1959.56 437.966 1955.85 421.528 1953.34 410.616 C 1953.31 410.461 1953.48 410.279 1953.58 410.258 C 1955.39 409.899 1960.02 411.185 1962.25 411.5 C 1963.5 411.149 1963.47 411.285 1964.81 411.657 z" fill="rgb(194,18,61)" transform="translate(0,0)"></path>
<path d="M 1962.25 411.5 C 1963.5 411.149 1963.47 411.285 1964.81 411.657 C 1963.44 412.076 1963.56 412.086 1962.25 411.5 z" fill="rgb(155,14,53)" transform="translate(0,0)"></path>
<path d="M 1797.98 656.969 C 1762.59 631.13 1785.86 612.578 1800.33 586.689 C 1799.03 614.052 1798.88 632.888 1818.78 655.044 C 1833.83 671.802 1854.1 683.799 1876.95 685.042 C 1896.08 686.082 1911.51 680.39 1929.58 679.023 C 1963.7 676.444 1998.9 691.247 2029.86 673.606 C 2030.59 673.219 2030.63 673.285 2031.15 672.723 C 2037.25 669.412 2042.93 664.022 2048 659.34 L 2048 676.567 L 2048 678.939 C 2041.55 679.045 2037 679.193 2030.83 681.747 C 2002.83 714.332 2010.3 691.595 1978.19 700.398 C 1976.19 700.663 1971.36 700.496 1969.1 700.47 C 1945.07 693.888 1938.57 682.542 1914.34 697.764 L 1915.78 694.376 C 1894.35 705.627 1880.81 691.976 1860.26 687.607 C 1850.16 690.077 1832.48 700.277 1827.16 700.106 C 1824.21 694.553 1822.66 687.076 1821.67 680.911 C 1816.83 678.88 1812.45 677.332 1808.33 674.033 C 1805.9 672.468 1805.75 671.984 1803.98 669.761 C 1800.55 664.489 1799.96 662.728 1797.98 656.969 z" fill="rgb(197,97,107)" transform="translate(0,0)"></path>
<path d="M 2009.53 698.652 C 2027.88 690.197 2021.2 677.411 2048 676.567 L 2048 678.939 C 2041.55 679.045 2037 679.193 2030.83 681.747 C 2002.83 714.332 2010.3 691.595 1978.19 700.398 C 1976.19 700.663 1971.36 700.496 1969.1 700.47 C 1945.07 693.888 1938.57 682.542 1914.34 697.764 L 1915.78 694.376 L 1916.47 693.888 C 1937.96 678.755 1949.48 695.283 1970.71 698.059 C 1976.41 698.804 1988.04 696.512 1994.15 696.473 C 1998.01 696.448 2005.54 697.937 2009.53 698.652 z" fill="rgb(39,7,19)" transform="translate(0,0)"></path>
<path d="M 1803.98 669.761 C 1806.74 671.632 1807.23 671.228 1808.33 674.033 C 1805.9 672.468 1805.75 671.984 1803.98 669.761 z" fill="rgb(126,61,65)" transform="translate(0,0)"></path>
<path d="M 1811.13 533.899 C 1821.96 523.4 1837.83 502.614 1845.85 489.072 C 1847.97 485.495 1849.29 478.294 1852.25 475.679 L 1854.97 477.037 L 1872.18 487.293 C 1871.89 506.034 1867.09 514.833 1854.65 528.111 C 1849.04 525.094 1840.66 520.037 1834.44 519.677 C 1838.47 522.763 1848.47 527.082 1853.52 529.434 C 1852.6 542.865 1853.1 543.995 1841.34 551.066 C 1836.34 549.1 1819.06 539.135 1815.48 539.475 C 1819.71 544.042 1834.33 550.114 1840.67 553.037 C 1837.1 574.708 1836.94 574.374 1822.44 591.149 L 1801.79 591.438 C 1805.24 572.719 1806.52 552.847 1811.13 533.899 z" fill="rgb(197,97,107)" transform="translate(0,0)"></path>
<path d="M 2013.39 648.086 C 2025.4 646.743 2035.97 646.962 2048 647.046 L 2048 655.68 C 2047.31 656.416 2046.62 657.143 2045.91 657.862 C 2030.71 673.374 2016.42 680.294 1994.75 680.553 C 1994.71 676.147 1994.37 671.441 1994.14 667.018 C 2000.4 661.324 2007.31 654.124 2013.39 648.086 z" fill="rgb(197,97,107)" transform="translate(0,0)"></path>
<path d="M 2048 596.491 L 2048 613.517 L 2048 617.34 C 2046.16 618.003 2044.99 618.291 2043.12 618.75 L 2042.07 617.811 C 2036.97 616.71 2033.08 608.573 2030.82 604.164 C 2034.7 602.77 2037.25 601.34 2041.37 600.642 C 2044.03 599.218 2045.51 598.167 2048 596.491 z" fill="rgb(155,14,53)" transform="translate(0,0)"></path>
<path d="M 2042.07 617.811 C 2044.08 616.065 2045.73 615.356 2048 613.517 L 2048 617.34 C 2046.16 618.003 2044.99 618.291 2043.12 618.75 L 2042.07 617.811 z" fill="rgb(81,14,28)" transform="translate(0,0)"></path>
<path d="M 2048 617.34 L 2048 645.153 C 2034.69 644.558 2041.59 644.475 2041.97 630.996 C 2042.07 627.733 2041.75 621.142 2043.12 618.75 C 2044.99 618.291 2046.16 618.003 2048 617.34 z" fill="rgb(197,97,107)" transform="translate(0,0)"></path>
<path d="M 1976.24 379.689 C 1978.6 378.084 1988.96 378.981 1992.26 379.176 C 1987.55 379.836 1980.95 380.35 1976.24 379.689 z" fill="rgb(126,61,65)" transform="translate(0,0)"></path>
<path d="M 1997.83 379.151 C 2000.96 378.901 2004.47 377.955 2006.74 379.737 C 2003.07 380.13 2001.38 379.747 1997.83 379.151 z" fill="rgb(126,61,65)" transform="translate(0,0)"></path>
<path d="M 1954.25 380.705 C 1956.46 379.091 1960.12 379.957 1963.09 380.159 C 1959.45 380.79 1958.05 381.051 1954.25 380.705 z" fill="rgb(126,61,65)" transform="translate(0,0)"></path>
<path d="M 1854.01 474.033 C 1854.58 474.411 1855.01 474.711 1855.56 475.108 L 1854.97 477.037 L 1852.25 475.679 L 1854.01 474.033 z" fill="rgb(39,7,19)" transform="translate(0,0)"></path>
<path d="M 2029.86 673.606 C 2030.49 672.987 2030.35 673.065 2031.15 672.723 C 2030.63 673.285 2030.59 673.219 2029.86 673.606 z" fill="rgb(81,14,28)" transform="translate(0,0)"></path>
<path d="M 1837.75 620.847 C 1842.63 627.082 1843.65 628.961 1849.35 635.079 C 1850.18 639.271 1850.79 643.793 1851.43 648.039 C 1847.68 651.637 1842.88 655.706 1840.48 660.191 L 1841.75 658.325 L 1841.26 660.241 L 1841.32 659.026 L 1842.84 659.209 C 1845.76 657.214 1850.15 652.387 1852.77 649.693 C 1871.37 651.833 1872.92 652.779 1889.94 659.87 C 1889.88 663.204 1889.37 671.936 1891.37 674.085 C 1892.75 670.195 1892.2 664.483 1892.08 660.207 C 1899.19 656.245 1902.77 653.496 1908.89 648.292 C 1908.96 651.943 1908.54 659.664 1911.14 661.923 L 1910.69 663.644 L 1910.22 662.726 L 1910.92 663.61 C 1912.32 658.8 1911.65 651.801 1911.45 646.619 C 1918.58 647.904 1930.67 646.756 1934.55 649.8 C 1935.89 654.367 1933.34 663.408 1934.06 670.372 L 1935.5 670.467 L 1937.44 653.686 C 1943.62 657.973 1946.43 658.239 1953.71 659.291 L 1952.97 677.662 C 1916.14 673.411 1894.7 688.915 1860.2 679.764 C 1838.96 674.129 1819.54 656.409 1808.87 637.383 C 1818.52 631.779 1828.11 626.611 1837.75 620.847 z" fill="rgb(197,97,107)" transform="translate(0,0)"></path>
<path d="M 1857.08 528.619 C 1869.65 515.5 1873.03 505.735 1874.3 488.171 C 1884.63 494.928 1898.49 502.286 1909.36 508.298 C 1909.7 512.827 1909.74 517.9 1909.87 522.482 C 1907.37 525.463 1905.12 527.213 1902.14 529.707 C 1901.63 530.274 1901.62 530.193 1900.88 530.577 L 1892.32 535.599 C 1891.8 536.2 1891.91 536.181 1891.23 536.474 L 1887.56 539.206 C 1883.26 539.746 1863.8 530.802 1857.08 528.619 z" fill="rgb(194,18,61)" transform="translate(0,0)"></path>
<path d="M 1891.23 536.474 C 1891.5 535.837 1891.53 535.944 1892.32 535.599 C 1891.8 536.2 1891.91 536.181 1891.23 536.474 z" fill="rgb(155,14,53)" transform="translate(0,0)"></path>
<path d="M 1900.88 530.577 C 1901.5 529.97 1901.37 530.029 1902.14 529.707 C 1901.63 530.274 1901.62 530.193 1900.88 530.577 z" fill="rgb(155,14,53)" transform="translate(0,0)"></path>
<path d="M 1872.01 607.025 C 1876.83 610.263 1883.99 616.51 1888.14 620.604 C 1883.19 630.194 1876.48 640.969 1870.64 650.088 C 1865.7 649.059 1865.09 649.018 1860.08 648.543 C 1851.21 646.735 1853.17 641.771 1850.36 632.506 C 1847.83 630.37 1838.31 621.34 1841.29 619.428 C 1847.19 615.635 1865.33 610.173 1872.01 607.025 z" fill="rgb(194,18,61)" transform="translate(0,0)"></path>
<path d="M 1842.56 554.77 C 1846.45 556.174 1870.07 565.906 1872.71 567.985 L 1873.38 570.001 C 1873.88 571.58 1873.8 572.065 1873.68 573.627 L 1874.22 580.41 C 1875.3 581.893 1875.32 582.966 1874.48 584.639 C 1872.39 590.017 1872 591.931 1865.58 591.706 C 1852.08 591.231 1838.45 591.214 1824.98 590.978 C 1838.78 575.713 1839.72 575.339 1842.56 554.77 z" fill="rgb(194,18,61)" transform="translate(0,0)"></path>
<path d="M 1874.22 580.41 C 1875.3 581.893 1875.32 582.966 1874.48 584.639 C 1874.04 582.545 1874 582.545 1874.22 580.41 z" fill="rgb(155,14,53)" transform="translate(0,0)"></path>
<path d="M 1872.71 567.985 L 1873.38 570.001 C 1873.88 571.58 1873.8 572.065 1873.68 573.627 C 1872.84 571.844 1872.88 569.922 1872.71 567.985 z" fill="rgb(81,14,28)" transform="translate(0,0)"></path>
<path d="M 1802.02 593.994 C 1809.55 593.484 1816.66 593.718 1824.26 593.419 C 1829.62 599.797 1836.2 609.591 1840.25 616.978 C 1836.83 619.003 1833.3 620.893 1829.84 622.905 C 1822.5 627.212 1815.39 631.011 1807.89 635.492 C 1801.08 616.683 1801.58 614.134 1802.02 593.994 z" fill="rgb(197,97,107)" transform="translate(0,0)"></path>
<path d="M 2028.5 604.731 C 2030.67 607.466 2034.65 615.586 2038.02 619.063 C 2041.77 622.921 2038.59 638.577 2037.47 644.218 C 2030.27 644.431 2023.07 644.78 2015.89 645.263 C 2011.52 643.692 2006.17 621.042 2004.94 616.024 C 2020.38 614.824 2018.29 616.96 2028.5 604.731 z" fill="rgb(194,18,61)" transform="translate(0,0)"></path>
<path d="M 1966.27 654.416 C 1974.6 653 1978.57 654.942 1985.67 657.684 L 1986.39 657.954 C 1988.75 660.741 1990.52 663.003 1992.73 665.926 C 1993.19 677.062 1996.28 680.956 1984.94 679.583 C 1976.81 678.761 1963.03 678.026 1954.91 677.866 L 1955.82 655.576 C 1959.35 655.129 1962.74 654.848 1966.27 654.416 z" fill="rgb(197,97,107)" transform="translate(0,0)"></path>
<path d="M 1998.22 614.46 C 2005.23 616.516 2008.68 636.901 2012.56 646.001 C 2006.22 651.429 2001.87 656.472 1995.83 662.223 C 1988.76 667.864 1984.42 633.279 1983.62 629.189 C 1993.55 622.529 1990.28 623.421 1998.22 614.46 z" fill="rgb(194,18,61)" transform="translate(0,0)"></path>
<path d="M 1855.69 530.439 C 1858.83 531.188 1886.55 541.262 1886.56 543.64 C 1886.59 551.467 1877.03 554.985 1872.22 563.527 C 1871.64 566.761 1846.55 554.415 1842.71 552.87 C 1855.65 544.202 1853.92 545.312 1855.69 530.439 z" fill="rgb(194,18,61)" transform="translate(0,0)"></path>
<path d="M 1890.27 621.761 C 1900.58 622.335 1902.22 620.211 1904.61 631.082 C 1905.48 635.06 1907.47 640.5 1908.74 644.488 C 1902.17 651.164 1899.41 652.855 1891.33 657.842 C 1886.85 656.516 1877.02 652.354 1872.63 650.262 C 1878.87 640.423 1884.65 632.157 1890.27 621.761 z" fill="rgb(194,18,61)" transform="translate(0,0)"></path>
<path d="M 1827.38 593.39 C 1840.65 594.338 1858.07 594.207 1871.35 593.879 C 1872.37 597.617 1871.96 598.723 1871.78 602.48 C 1871.89 607.178 1847.18 614.063 1842.01 615.86 C 1836.54 606.204 1834.28 602.383 1827.38 593.39 z" fill="rgb(194,18,61)" transform="translate(0,0)"></path>
<path d="M 1871.35 593.879 C 1872.37 597.617 1871.96 598.723 1871.78 602.48 C 1870.89 598.104 1870.81 598.375 1871.35 593.879 z" fill="rgb(155,14,53)" transform="translate(0,0)"></path>
<path d="M 1920.88 622.485 C 1925.1 619.804 1931.98 616.711 1935.38 621.622 C 1935.84 622.277 1932.86 644.173 1932.59 645.808 C 1927.99 645.906 1915.22 646.739 1911.21 643.394 C 1910.14 642.498 1905.33 626.971 1905.24 624.53 C 1905.23 624.422 1905.36 624.277 1905.5 624.263 C 1907.17 624.11 1910.55 625.02 1912.3 625.35 C 1913.01 625.289 1913.27 625.32 1913.97 625.353 C 1915.72 624.891 1917.46 624.412 1919.2 623.917 C 1919.89 622.874 1919.76 622.914 1920.88 622.485 z" fill="rgb(194,18,61)" transform="translate(0,0)"></path>
<path d="M 1912.3 625.35 C 1913.01 625.289 1913.27 625.32 1913.97 625.353 C 1912.93 625.967 1913.32 625.8 1912.3 625.35 z" fill="rgb(155,14,53)" transform="translate(0,0)"></path>
<path d="M 1919.2 623.917 C 1919.89 622.874 1919.76 622.914 1920.88 622.485 C 1920.37 623.455 1920.23 623.381 1919.2 623.917 z" fill="rgb(155,14,53)" transform="translate(0,0)"></path>
<path d="M 1980.81 630.007 C 1982.2 631.308 1985.95 652.199 1986.92 656.25 C 1977.5 652.688 1978.74 651.901 1967.43 651.919 C 1963.03 652.537 1960.3 652.777 1955.9 653.034 C 1956.92 646.932 1957.89 641.006 1958.69 634.865 C 1969.73 634.894 1970.18 636.03 1980.81 630.007 z" fill="rgb(194,18,61)" transform="translate(0,0)"></path>
<path d="M 1937.78 622.717 C 1940.94 624.739 1943.77 626.616 1947 628.583 C 1948.37 629.071 1949.3 629.098 1950.01 630.46 C 1951.13 630.947 1957.51 633.139 1956.85 634.935 C 1952.48 646.972 1958.83 666.769 1938.88 652.099 C 1933.32 648.013 1936.67 630.925 1937.78 622.717 z" fill="rgb(194,18,61)" transform="translate(0,0)"></path>
<path d="M 1947 628.583 C 1948.37 629.071 1949.3 629.098 1950.01 630.46 C 1948.56 630.042 1947.72 629.936 1947 628.583 z" fill="rgb(155,14,53)" transform="translate(0,0)"></path>
<path d="M 1906.39 356.684 C 1919.63 364.027 1935.57 370.763 1950.86 366.333 C 1960.08 363.662 1968.55 357.193 1977.77 354.478 C 1983.54 352.778 1989.51 356.967 1995.32 357.032 C 2007.64 356.488 2019.78 349.254 2031.84 355.698 C 2039.59 359.836 2041.55 367.323 2048 372.318 L 2048 374.655 L 2048 388.75 C 2041.29 385.445 2030.44 380.301 2022.62 379.362 C 1993.3 375.846 1949.49 375.679 1921.46 383.68 C 1898.32 390.286 1875.15 413.336 1865.82 434.508 C 1857.06 453.601 1850.1 475.351 1840.9 493.677 C 1835.52 504.388 1815.01 523.762 1809.75 534.423 C 1803.46 549.502 1805.36 566.168 1800.18 581.675 C 1795.74 594.996 1782.42 605.206 1778.7 618.069 C 1773.75 635.206 1782.74 649.291 1796.32 658.187 C 1800.44 669.124 1803.4 674.874 1814.83 680.02 C 1816.33 680.693 1817.85 681.343 1819.38 681.966 C 1820.71 687.415 1822.41 696.272 1825.9 700.51 L 1826.33 701.705 L 1825.06 702.64 C 1819.12 701.663 1814.35 697.919 1810.6 693.071 C 1793.44 670.913 1775.04 649.245 1758.66 626.555 C 1755.66 622.397 1754.97 619.822 1756.1 615.094 L 1754.67 613.589 C 1760.65 594.291 1769.79 593.48 1771.43 570.802 C 1771.29 569.549 1771.23 569.408 1771.38 568.201 C 1769.77 540.86 1777.1 543.302 1795.57 526.295 C 1798.58 523.521 1803.31 513.331 1807.14 510.009 C 1813.74 504.274 1819.94 501.911 1824.49 494.3 C 1829.58 485.783 1827.79 477.137 1830.79 468.44 L 1830.99 467.884 C 1833.58 460.44 1842.35 459.715 1843.98 449.489 C 1846.48 433.778 1837.88 418.964 1847.98 404.329 C 1853.34 396.568 1862.23 397.248 1870.91 395.64 C 1889.03 392.281 1886.75 374.189 1895.71 360.781 L 1896.78 361.819 C 1900.13 358.416 1900.72 358.358 1904.8 357.694 L 1906.39 356.684 z" fill="rgb(245,156,157)" transform="translate(0,0)"></path>
<path d="M 1895.71 360.781 L 1896.78 361.819 C 1892.42 371.187 1890.49 380.417 1885.05 389.247 C 1876.38 403.356 1853.56 392.629 1847.65 409.097 C 1837.68 436.919 1859.39 444.279 1832.36 467.987 C 1830.03 495.988 1827.96 494.639 1807.65 512.909 C 1803.76 516.412 1796.63 530.351 1792.58 532.453 C 1767.63 545.408 1775.94 556.75 1772.67 579.836 C 1771.41 588.748 1760.15 603.131 1756.1 615.094 L 1754.67 613.589 C 1760.65 594.291 1769.79 593.48 1771.43 570.802 C 1771.29 569.549 1771.23 569.408 1771.38 568.201 C 1769.77 540.86 1777.1 543.302 1795.57 526.295 C 1798.58 523.521 1803.31 513.331 1807.14 510.009 C 1813.74 504.274 1819.94 501.911 1824.49 494.3 C 1829.58 485.783 1827.79 477.137 1830.79 468.44 L 1830.99 467.884 C 1833.58 460.44 1842.35 459.715 1843.98 449.489 C 1846.48 433.778 1837.88 418.964 1847.98 404.329 C 1853.34 396.568 1862.23 397.248 1870.91 395.64 C 1889.03 392.281 1886.75 374.189 1895.71 360.781 z" fill="rgb(39,7,19)" transform="translate(0,0)"></path>
<path d="M 1771.38 568.201 C 1771.87 569.322 1771.88 569.666 1771.43 570.802 C 1771.29 569.549 1771.23 569.408 1771.38 568.201 z" fill="rgb(126,61,65)" transform="translate(0,0)"></path>
<path d="M 1906.39 356.684 C 1919.63 364.027 1935.57 370.763 1950.86 366.333 C 1960.08 363.662 1968.55 357.193 1977.77 354.478 C 1983.54 352.778 1989.51 356.967 1995.32 357.032 C 2007.64 356.488 2019.78 349.254 2031.84 355.698 C 2039.59 359.836 2041.55 367.323 2048 372.318 L 2048 374.655 C 2040.06 369.248 2038.74 361.997 2032.4 358.297 C 2022.69 352.629 2004.26 358.717 1993.37 358.581 C 1990.28 358.542 1982.8 356.272 1979.6 355.351 C 1969.18 358.95 1960.96 367.069 1947.66 368.742 C 1932.66 370.629 1916.83 366.718 1904.8 357.694 L 1906.39 356.684 z" fill="rgb(39,7,19)" transform="translate(0,0)"></path>
<path d="M 1770.21 535.858 C 1760.91 501.522 1794.44 512.876 1810.17 490.449 C 1815.43 482.674 1835.27 450.039 1834.23 442.574 C 1829.07 405.195 1836.08 402.458 1866.95 384.657 C 1876.2 379.325 1878.26 362.643 1898.31 356.461 L 1898.98 357.133 L 1895.71 360.781 C 1886.75 374.189 1889.03 392.281 1870.91 395.64 C 1862.23 397.248 1853.34 396.568 1847.98 404.329 C 1837.88 418.964 1846.48 433.778 1843.98 449.489 C 1842.35 459.715 1833.58 460.44 1830.99 467.884 L 1830.79 468.44 C 1827.79 477.137 1829.58 485.783 1824.49 494.3 C 1819.94 501.911 1813.74 504.274 1807.14 510.009 C 1803.31 513.331 1798.58 523.521 1795.57 526.295 C 1777.1 543.302 1769.77 540.86 1771.38 568.201 C 1771.23 569.408 1771.29 569.549 1771.43 570.802 C 1769.79 593.48 1760.65 594.291 1754.67 613.589 L 1753.19 613.03 C 1751.47 599.012 1757.52 594.877 1758.13 581.601 C 1758.34 577.125 1752.24 567.069 1754.5 562.66 C 1762.01 547.967 1765.5 553.537 1770.21 535.858 z" fill="rgb(197,97,107)" transform="translate(0,0)"></path>
<path d="M 9.08531 525.509 C 17.393 534.825 25.2163 548.08 34.6985 559.111 L 39.2458 614.804 C 48.3139 615.023 57.649 615.054 66.6167 616.287 C 71.9574 621.224 74.9706 624.958 78.1222 631.704 L 75.6474 632.859 C 71.4611 625.314 69.4192 622.547 62.5376 617.625 C 64.0066 617.351 52.1313 617.949 50.9927 618.08 C 46.5434 618.536 35.752 618.012 31.24 617.575 C 27.4145 615.878 25.888 615.357 21.8822 615.966 C 19.9761 619.895 19.1695 621.897 17.7978 626.045 L 18.091 626.936 L 17.2869 626.346 C 17.1866 628.43 15.6235 629.943 14.7513 632.336 C 15.2548 636.091 11.2328 644.912 7.95057 645.849 L 4.55528 647.16 C 3.27204 640.199 1.81264 634.351 0 627.572 L 0 615.486 L 0 563.943 L 0 557.702 L 0 539.05 L 0 534.335 L 9.08531 525.509 z" fill="rgb(39,7,19)" transform="translate(0,0)"></path>
<path d="M 9.9534 568.975 C 17.3659 567.048 23.9111 564.951 31.1971 562.569 C 33.268 577.015 34.4119 599.192 35.6838 614.294 C 31.0504 613.972 25.1102 612.673 21.8822 615.966 C 19.9761 619.895 19.1695 621.897 17.7978 626.045 C 15.6372 619.194 10.9596 577.671 9.9534 568.975 z" fill="rgb(194,18,61)" transform="translate(0,0)"></path>
<path d="M 0 563.943 C 5.80795 567.514 5.28455 567.645 7.05197 574.078 C 11.1937 589.152 11.3202 618.582 14.7513 632.336 C 15.2548 636.091 11.2328 644.912 7.95057 645.849 L 4.55528 647.16 C 3.27204 640.199 1.81264 634.351 0 627.572 L 0 615.486 L 0 563.943 z" fill="rgb(194,18,61)" transform="translate(0,0)"></path>
<path d="M 0 615.486 C 3.44354 626.098 4.41355 635.667 7.95057 645.849 L 4.55528 647.16 C 3.27204 640.199 1.81264 634.351 0 627.572 L 0 615.486 z" fill="rgb(39,7,19)" transform="translate(0,0)"></path>
<path d="M 0 539.05 C 3.20679 536.129 5.73548 533.55 8.78826 530.538 C 11.7417 534.58 14.6161 538.789 17.5671 542.899 C 12.3559 551.016 10.7182 554.407 7.01388 563.247 C 4.64045 561.386 2.32847 559.628 0 557.702 L 0 539.05 z" fill="rgb(194,18,61)" transform="translate(0,0)"></path>
<path d="M 19.4532 546.137 C 22.3989 548.716 28.2153 555.888 30.8842 559.226 C 28.184 560.051 23.3047 561.476 20.7663 562.432 C 16.6562 563.429 13.9579 564.165 9.73601 564.897 C 12.9532 556.798 14.7553 553.64 19.4532 546.137 z" fill="rgb(194,18,61)" transform="translate(0,0)"></path>
<path d="M 0 506.978 L 23.735 506.508 C 32.429 519.926 46.3947 547.874 54.4694 563.152 C 63.4346 580.115 81.2749 610.352 88.2786 626.755 C 86.0717 629.417 83.8168 632.926 80.6476 633.643 C 79.9244 633.107 78.7336 632.291 78.1222 631.704 C 74.9706 624.958 71.9574 621.224 66.6167 616.287 C 57.649 615.054 48.3139 615.023 39.2458 614.804 L 34.6985 559.111 C 25.2163 548.08 17.393 534.825 9.08531 525.509 L 0 534.335 L 0 506.978 z" fill="rgb(194,18,61)" transform="translate(0,0)"></path>
<path d="M 0 435.197 C 11.2175 440.945 25.9179 448.32 36.5984 454.882 C 40.7041 462.579 44.5202 469.583 49.0178 477.05 C 42.254 486.217 35.0872 496.354 27.8639 505.069 C 17.1133 490.89 9.77778 476.389 0 463.312 L 0 435.197 z" fill="rgb(194,18,61)" transform="translate(0,0)"></path>
<path d="M 2030.83 681.747 C 2037 679.193 2041.55 679.045 2048 678.939 L 2048 703.211 L 2018.61 702.784 C 1970.68 703.143 1922.76 703.143 1874.84 702.785 C 1881.22 699.918 1888.95 703.452 1893.79 700.588 C 1898.32 700.814 1902.46 701.147 1906.99 700.657 L 1914.34 697.764 C 1938.57 682.542 1945.07 693.888 1969.1 700.47 C 1971.36 700.496 1976.19 700.663 1978.19 700.398 C 2010.3 691.595 2002.83 714.332 2030.83 681.747 z" fill="rgb(155,14,53)" transform="translate(0,0)"></path>
<path d="M 1914.34 697.764 C 1938.57 682.542 1945.07 693.888 1969.1 700.47 C 1964.59 703.129 1911.25 703.589 1906.99 700.657 L 1914.34 697.764 z" fill="rgb(194,18,61)" transform="translate(0,0)"></path>
<path d="M 1906.39 356.684 L 1905.67 355.447 C 1916.85 351.271 1926.65 368.21 1940.1 362.49 C 1948.8 358.789 1954.59 350.811 1961.84 347.573 C 1964.86 346.249 1968.1 345.477 1971.4 345.292 C 1976.21 345.03 1984.83 346.413 1990.36 346.685 C 1998.14 347.066 2008.67 346.305 2016.07 347.251 C 2020.21 347.745 2024.27 348.815 2028.12 350.43 C 2035.95 353.766 2042.02 359.444 2048 365.364 L 2048 372.318 C 2041.55 367.323 2039.59 359.836 2031.84 355.698 C 2019.78 349.254 2007.64 356.488 1995.32 357.032 C 1989.51 356.967 1983.54 352.778 1977.77 354.478 C 1968.55 357.193 1960.08 363.662 1950.86 366.333 C 1935.57 370.763 1919.63 364.027 1906.39 356.684 z" fill="rgb(197,97,107)" transform="translate(0,0)"></path>
<path d="M 0 627.572 C 1.81264 634.351 3.27204 640.199 4.55528 647.16 C 9.73346 668.576 22.1189 682.675 44.407 685.959 C 45.1189 691.587 45.3123 692.759 48.38 697.499 L 48.2167 700.12 C 46.0918 701.516 43.177 700.781 40.1021 700.644 C 38.0968 699.489 2.73141 662.157 0 658.82 L 0 627.572 z" fill="rgb(194,18,61)" transform="translate(0,0)"></path>
<path d="M 1828.95 702.899 C 1868.09 684.277 1856.82 690.758 1893.79 700.588 C 1888.95 703.452 1881.22 699.918 1874.84 702.785 C 1860.41 703.374 1843.46 703.082 1828.95 702.899 z" fill="rgb(194,18,61)" transform="translate(0,0)"></path>
<path d="M 0 665.439 C 8.35045 671.394 30.8406 694.487 36.1936 703.232 C 21.9176 697.697 12.5395 691.098 0 682.219 L 0 665.439 z" fill="rgb(194,18,61)" transform="translate(0,0)"></path>
<path d="M 0 469.615 C 6.73939 479.589 14.3851 491.963 20.8256 502.231 C 13.6738 503.056 7.16935 503.197 0 503.882 L 0 469.615 z" fill="rgb(194,18,61)" transform="translate(0,0)"></path>
<path d="M 31.24 617.575 C 35.752 618.012 46.5434 618.536 50.9927 618.08 C 52.2842 618.298 55.6892 618.555 56.5496 619.376 C 56.5998 619.724 48.7329 630.84 47.6919 632.343 C 44.1566 630.814 27.9095 622.386 31.24 617.575 z" fill="rgb(194,18,61)" transform="translate(0,0)"></path>
<path d="M 62.5376 617.625 C 69.4192 622.547 71.4611 625.314 75.6474 632.859 C 67.4139 632.946 59.3145 633.26 51.1007 633.437 C 55.0415 627.426 57.5372 622.852 62.5376 617.625 z" fill="rgb(194,18,61)" transform="translate(0,0)"></path>
<path d="M 572.007 381.368 C 615.255 374.942 655.749 402.381 662.31 446.407 C 670.598 502.017 659.469 559.927 595.764 571.146 C 595.209 571.232 594.653 571.311 594.097 571.384 C 545.936 577.667 507.994 547.782 502.675 499.313 C 496.677 444.654 508.787 389.333 572.007 381.368 z" fill="rgb(254,254,254)" transform="translate(0,0)"></path>
<path d="M 571.544 433.43 C 592.022 432.004 633.789 433.225 650.263 446.159 C 662.04 455.406 661.491 494.379 650.415 505.117 C 637.891 517.259 611.502 518.521 595.076 519.393 C 576.399 520.711 533.153 519.335 518.49 507.094 C 511.142 500.964 508.703 492.646 507.755 483.549 C 502.824 436.23 534.258 435.66 571.544 433.43 z" fill="rgb(39,7,19)" transform="translate(0,0)"></path>
<path d="M 1467.64 381.384 C 1514.6 374.824 1551.98 406.808 1557.27 453.06 C 1563.4 506.636 1549.67 563.095 1488.06 571.285 C 1438.4 576.075 1402.11 548.903 1396.7 498.247 C 1390.71 442.139 1403.04 388.327 1467.64 381.384 z" fill="rgb(254,254,254)" transform="translate(0,0)"></path>
<path d="M 1471.33 433.433 C 1490.27 432.398 1527.57 433.874 1543.16 446.104 C 1556.11 456.264 1555.51 492.995 1544.55 504.465 C 1531.93 517.678 1501.12 518.655 1483.36 519.496 C 1461.51 519.672 1409.73 520.387 1403.46 493.241 C 1390.27 436.133 1428.67 435.414 1471.33 433.433 z" fill="rgb(39,7,19)" transform="translate(0,0)"></path>
<path d="M 354.08 381.484 C 381.457 381.48 409.73 380.486 436.931 382.173 C 479.371 384.805 510.315 436.088 478.992 470.377 C 465.201 485.474 429.866 480.912 410.387 480.88 C 446.455 505.338 499.197 523.098 506.079 571.354 C 497.861 571.43 488.221 571.25 480.165 571.568 C 450.286 572.748 443.258 566.453 436.214 538.243 C 429.191 511.729 426.357 495.726 401.927 480.914 C 388.512 480.431 372.961 480.759 359.374 480.71 C 360.942 507.036 384.469 546.682 396.54 571.646 L 326.697 571.667 C 335.389 547.175 347.574 516.021 353.561 491.357 C 361.034 460.565 338.445 411.321 328.144 381.961 L 354.08 381.484 z" fill="rgb(254,254,254)" transform="translate(0,0)"></path>
<path d="M 368.339 435.13 C 384.265 434.56 474.677 432.396 482.388 439.695 C 484.371 441.573 485.176 444.131 485.083 446.813 C 484.778 455.586 477.208 464.65 471.033 470.393 C 461.431 476.311 436.725 474.561 424.706 474.554 L 359.168 474.521 C 359.776 463.013 358.722 441.9 368.339 435.13 z" fill="rgb(39,7,19)" transform="translate(0,0)"></path>
<path d="M 1128.23 381.428 C 1157.7 382.002 1188.2 381.43 1217.89 381.67 C 1214.08 402.595 1210.89 423.63 1208.33 444.744 C 1170.78 428.028 1129.57 435.743 1089.18 435.746 C 1083.15 435.747 1072.75 440.734 1074.62 448.21 C 1089.31 510.436 1219.17 434.964 1222.37 510.812 C 1224.03 550.093 1190.89 569.759 1156.16 571.479 L 1064.59 571.394 C 1067.28 549.357 1071.06 526.828 1074.47 504.848 C 1110.72 521.863 1147.84 515.08 1186.65 515.422 C 1195 515.495 1206.15 513.002 1211.99 506.671 C 1213.5 505.032 1213.89 502.937 1213.61 500.792 C 1208.67 459.822 1106.3 497.733 1080.89 470.289 C 1072.41 463.048 1068.02 454.181 1067.24 442.5 C 1064.77 405.195 1094.93 383.617 1128.23 381.428 z" fill="rgb(254,254,254)" transform="translate(0,0)"></path>
<path d="M 1558.03 381.972 C 1559.9 381.903 1561.78 381.848 1563.65 381.806 C 1589.19 381.265 1614.94 381.889 1640.46 381.518 C 1664.07 381.175 1682.84 381.587 1701.96 397.379 C 1724.14 415.235 1727 450.325 1707.16 470.968 C 1694.61 484.029 1669.74 480.671 1652.71 480.651 C 1631.42 480.557 1610.12 480.605 1588.82 480.794 C 1588.99 488.86 1590.35 494.444 1592.51 502.073 C 1601.47 524.745 1615.05 550.4 1627.31 571.512 C 1604.07 571.87 1580.3 571.704 1557.02 571.786 C 1592.59 462.07 1592.48 491.814 1558.03 381.972 z" fill="rgb(254,254,254)" transform="translate(0,0)"></path>
<path d="M 1598.45 435.122 C 1630.04 434.993 1662.38 434.706 1693.99 435.213 C 1698.69 435.536 1709.31 436.429 1712.06 440.498 C 1718.64 450.197 1706.13 465.071 1699.06 470.642 C 1696.25 472.39 1693.09 473.519 1689.81 473.956 C 1680.91 475.154 1662.93 474.663 1653.21 474.652 L 1588.74 474.508 C 1589.24 461.938 1588.08 443.406 1598.45 435.122 z" fill="rgb(39,7,19)" transform="translate(0,0)"></path>
<path d="M 753.318 381.472 C 780.251 381.277 807.186 381.375 834.117 381.767 C 830.249 401.699 827.955 423.533 824.473 443.89 C 785.863 429.417 748.66 433.778 708.488 437.504 C 669.132 441.155 677.052 500.47 692.909 508.965 C 716.819 521.777 781.872 519.22 808.521 512.418 C 815.35 509.935 817.602 508.695 823.863 504.953 C 827.084 525.643 830.343 551.321 834.665 571.432 L 784.813 571.54 C 752.436 571.601 727.818 573.62 701.31 550.049 C 682.775 533.567 675.826 511.036 675.126 486.989 C 674.317 459.182 675.197 428.325 695.731 406.928 C 712.191 389.776 730.059 382.375 753.318 381.472 z" fill="rgb(254,254,254)" transform="translate(0,0)"></path>
<path d="M 840.955 381.871 C 864.151 381.639 887.35 381.632 910.546 381.851 C 898.182 411.868 878.87 441.542 871.601 474.447 L 909.804 474.713 C 942.331 456.059 950.033 416.29 944.129 381.814 L 1014.11 381.718 C 998.587 424.862 951.972 451.605 915.598 477.043 C 938.767 491.222 965.601 509.291 986.7 526.346 C 1002.43 540.968 1008.77 551.176 1015.06 571.266 C 997.104 571.437 979.146 571.422 961.19 571.221 L 960.43 570.679 C 944.796 559.31 947.084 547.033 944.697 529.976 C 941.324 505.866 924.358 477.685 896.59 480.482 C 889.93 481.153 877.371 478.204 873.206 484.181 C 874.737 503.35 901.747 551.624 911.556 571.449 C 888.105 571.645 864.654 571.674 841.202 571.533 C 852.865 530.536 878.643 489.613 864.829 448.711 C 857.991 428.466 845.961 401.692 840.955 381.871 z" fill="rgb(254,254,254)" transform="translate(0,0)"></path>
<path d="M 1327.92 381.673 C 1350.98 381.323 1375.26 381.782 1398.41 381.878 L 1383.66 423.895 C 1371.95 457.32 1364.2 477.318 1377.71 512.532 C 1384.98 531.499 1392.3 552.155 1398.82 571.387 L 1328.7 571.487 C 1339.58 548.635 1360.87 504.49 1366.96 480.794 L 1255.97 480.666 C 1258.46 505.478 1282.41 548.266 1294.23 571.895 L 1224.03 571.335 C 1228.34 558.445 1232.83 545.611 1237.48 532.839 C 1247.72 505.487 1258.98 482.338 1249.33 451.76 C 1242.03 428.608 1231.88 405.145 1224.05 381.741 L 1294.29 381.933 C 1280.34 410.004 1262.15 444.485 1255.22 474.609 C 1291.34 475.487 1330.62 474.609 1367 474.428 C 1362.13 447.021 1340.87 407.725 1327.92 381.673 z" fill="rgb(254,254,254)" transform="translate(0,0)"></path>
<path d="M 52.6211 384.317 C 73.2943 397.272 93.7514 410.569 113.984 424.202 C 111.68 438.983 110.329 454.636 108.544 469.585 C 104.595 501.293 100.936 533.037 97.5671 564.812 C 97.5166 565.375 96.9372 567.559 96.7707 568.249 C 91.7269 562.631 63.2425 498.386 58.0428 487.689 C 53.8581 479.08 46.8677 466.041 41.6896 456.856 C 43.9662 435.626 49.0029 405.476 52.6211 384.317 z" fill="rgb(194,18,61)" transform="translate(0,0)"></path>
<path d="M 288.943 434.973 L 290.99 435.233 C 290.55 442.015 240.947 493.471 232.547 501.372 C 239.645 505.504 246.71 509.692 253.742 513.937 C 257.329 516.14 264.679 520.146 265.625 524.108 C 261.946 533.513 229.198 571.202 221.267 580.882 C 204.674 601.244 188.23 621.727 171.939 642.33 C 170.263 644.208 170.31 644.893 168.487 645.064 C 168.506 627.882 181.713 624.472 186.837 612.169 C 201.325 577.377 219.931 540.3 232.522 504.974 C 230.977 501.872 224.674 493.159 222.395 489.663 L 204.645 482.369 C 207.315 475.567 209.813 470.458 213.088 463.909 C 238.11 454.053 263.786 444.554 288.943 434.973 z" fill="rgb(194,18,61)" transform="translate(0,0)"></path>
<path d="M 198.375 493.859 C 200.754 496.04 212.137 511.019 214.812 514.429 C 195.108 539.589 175.966 567.011 156.105 591.6 L 123.419 596.528 C 120.452 596.861 116.792 599.7 113.83 601.431 L 112.903 601.087 C 116.62 593.653 144.522 559.893 150.431 552.749 L 198.375 493.859 z" fill="rgb(194,18,61)" transform="translate(0,0)"></path>
<path d="M 281.477 527.169 C 284.074 526.782 284.354 526.638 286.853 527.225 C 286.964 530.38 171.68 673.438 156.818 689.495 C 154.025 690.917 149.114 690.45 145.809 690.378 C 142.635 690.389 141.993 690.433 138.871 689.427 C 139.888 685.058 252.958 547.877 266.859 530.586 L 281.477 527.169 z" fill="rgb(194,18,61)" transform="translate(0,0)"></path>
<path d="M 119.553 320.81 C 121.713 324.577 115.138 408.279 114.072 419.157 C 104.528 413.92 89.3705 403.605 79.7053 397.484 L 53.947 381.015 C 74.4509 363.128 100.51 339.878 119.553 320.81 z" fill="rgb(194,18,61)" transform="translate(0,0)"></path>
<path d="M 124.187 323.484 C 128.197 325.838 169.471 390.449 174.652 399.228 L 153.917 406.978 C 141.736 411.536 129.486 415.91 117.173 420.1 C 120.303 389.813 122.85 353.946 124.187 323.484 z" fill="rgb(194,18,61)" transform="translate(0,0)"></path>
<path d="M 151.072 596.45 L 153.916 596.389 C 155.555 600.471 150.854 614.105 149.375 619.167 C 125.337 637.112 74.9175 671.773 55.0485 693.228 C 52.8387 691.242 52.7739 689.741 52.6469 687.372 C 61.689 680.419 75.25 668.467 82.9956 660.265 C 82.4987 652.144 81.9683 651.998 82.3311 643.162 C 87.0037 635.389 114.024 608.487 121.795 600.482 C 131.857 598.588 140.939 597.588 151.072 596.45 z" fill="rgb(194,18,61)" transform="translate(0,0)"></path>
<path d="M 130.272 423.132 L 133.357 423.973 C 136.58 431.39 120.981 550.232 120.522 567 C 120.305 574.933 117.816 591.242 110.685 596.453 L 109.353 594.641 C 103.967 584.281 99.5251 578.981 101.529 566.884 C 109.318 519.873 118.035 472.946 126.513 426.072 C 126.513 426.072 129.933 423.397 130.272 423.132 z" fill="rgb(194,18,61)" transform="translate(0,0)"></path>
<path d="M 291.958 440.98 C 294.286 443.739 290.251 511.442 289.92 520.781 C 271.647 518.801 268.424 519.128 252.965 509.684 C 247.826 506.04 243.443 503.496 238.013 500.342 C 258.167 481.155 274.201 462.386 291.958 440.98 z" fill="rgb(194,18,61)" transform="translate(0,0)"></path>
<path d="M 225.797 509.834 C 223.272 520.493 211.25 547.693 206.589 558.247 C 199.22 574.933 191.235 595.389 183.249 611.525 C 175.419 609.923 172.055 609.812 164.008 609.884 C 162.824 604.611 161.514 597.821 159.751 592.838 C 164.566 584.93 180.779 564.468 187.13 556.255 C 196.496 544.145 211.791 522.243 221.692 511.59 C 223.056 510.994 224.424 510.409 225.797 509.834 z" fill="rgb(194,18,61)" transform="translate(0,0)"></path>
<path d="M 144.776 627.033 C 142.247 647.085 96.2236 687.564 80.6806 702.905 C 73.3683 702.413 65.5941 702.285 58.2328 702.047 C 57.2423 700.46 56.6996 699.928 57.0082 697.967 C 58.5892 687.923 134.097 634.723 144.776 627.033 z" fill="rgb(194,18,61)" transform="translate(0,0)"></path>
<path d="M 45.4271 487.721 C 47.2742 490.03 58.9605 515.434 61.1923 519.68 C 75.3947 546.702 88.5706 577.454 102.945 603.99 C 102.953 606.892 100.721 608.984 98.8043 611.451 C 93.9467 604.568 83.0937 582.223 78.928 573.789 C 66.4919 548.61 52.3137 521.413 41.3183 495.6 C 41.2732 492.611 43.5396 490.319 45.4271 487.721 z" fill="rgb(194,18,61)" transform="translate(0,0)"></path>
<path d="M 169.35 411.537 C 170.169 412.262 170.33 412.873 170.85 413.888 C 169.009 444.329 157.606 502.63 153.179 535.226 C 152.943 536.971 149.774 537.607 147.729 538.373 L 146.561 536.679 C 145.422 530.054 153.5 488.735 154.498 479.8 C 156.567 461.289 161.307 439.977 163.694 421.225 C 164.49 414.972 164.181 414.701 169.35 411.537 z" fill="rgb(194,18,61)" transform="translate(0,0)"></path>
<path d="M 64.3297 636.563 C 68.7499 636.267 73.1767 636.079 77.6061 636.001 C 78.7988 644.781 78.8616 645.723 78.8233 654.659 C 70.7123 659.232 64.0007 662.151 55.7361 665.997 C 52.2645 667.533 48.5469 669.115 45.1449 670.744 C 46.3844 658.544 46.9188 649.16 49.3312 636.917 C 54.4455 636.927 59.211 636.91 64.3297 636.563 z" fill="rgb(194,18,61)" transform="translate(0,0)"></path>
<path d="M 163.032 631.205 C 164.794 634.339 163.236 644.304 162.836 648.728 C 144.144 663.389 126.691 683.769 108.596 699.419 C 104.077 703.327 103.366 702.789 98.2279 702.321 C 112.972 686.537 130.838 672.556 143.782 655.437 C 144.254 654.812 141.993 647.425 142 646.099 C 142.019 643.051 144.821 638.765 146.248 636.256 L 163.032 631.205 z" fill="rgb(194,18,61)" transform="translate(0,0)"></path>
<path d="M 150.896 417.374 C 152.272 417.792 152.523 418.121 153.654 418.991 C 151.004 444.081 148.026 469.136 144.721 494.148 C 143.055 507.036 141.428 520.149 139.594 533.024 C 138.99 537.264 138.304 537.475 135.371 539.465 L 132.567 536.849 C 132.447 528.117 146.744 423.553 148.641 419.842 C 149.032 419.076 150.281 418.047 150.896 417.374 z" fill="rgb(194,18,61)" transform="translate(0,0)"></path>
<path d="M 1491.08 597.411 C 1491.78 597.584 1496.42 598.371 1496.44 599.214 C 1496.65 609.635 1496.96 620.511 1496.43 630.996 C 1496.22 635.11 1490.37 629.223 1487.99 630.935 C 1483.71 634.008 1476.14 632.55 1471.25 631.346 C 1454.44 617.911 1473.73 601.795 1488.45 609.149 C 1492.11 610.979 1490.64 601.018 1491.08 597.411 z" fill="rgb(222,165,118)" transform="translate(0,0)"></path>
<path d="M 1476.57 612.101 C 1487.53 611.811 1492.29 612.227 1490.7 624.044 C 1490.43 626.043 1486.97 627.462 1485.47 628.284 C 1472.2 628.499 1464.9 621.72 1476.57 612.101 z" fill="rgb(39,7,19)" transform="translate(0,0)"></path>
<path d="M 1440.33 607.24 C 1462.09 607.302 1468.91 625.189 1447.52 633.128 C 1423.91 632.836 1418.74 613.042 1440.33 607.24 z" fill="rgb(222,165,118)" transform="translate(0,0)"></path>
<path d="M 1438.77 612.093 C 1452.77 611.358 1460.41 619.727 1447.94 628.783 C 1436.53 629.307 1427.07 621.573 1436.89 613.63 C 1437.52 613.124 1438.15 612.612 1438.77 612.093 z" fill="rgb(39,7,19)" transform="translate(0,0)"></path>
<path d="M 1136.19 607.279 C 1143.2 607.441 1151.23 608.525 1154.32 615.956 C 1155.5 618.875 1155.4 622.16 1154.02 624.997 C 1151.39 630.486 1146.88 631.468 1141.9 633.215 C 1118.11 631.776 1114.98 612.815 1136.19 607.279 z" fill="rgb(222,165,118)" transform="translate(0,0)"></path>
<path d="M 1134.7 611.941 C 1140.08 611.775 1144.61 611.219 1147.95 616.552 C 1148.95 618.179 1149.26 620.141 1148.8 621.996 C 1147.96 625.424 1145.22 626.818 1142.5 628.528 C 1131.25 629.024 1123.31 621.36 1132.79 613.528 C 1133.44 613.004 1134.07 612.475 1134.7 611.941 z" fill="rgb(39,7,19)" transform="translate(0,0)"></path>
<path d="M 782.003 599.688 C 783.403 599.762 787.182 599.506 788.027 600.546 C 793.456 607.235 798.058 614.806 803.562 621.477 C 808.425 614.874 812.868 607.902 818.124 601.606 C 819.28 600.221 824.897 600.609 824.946 601.695 C 825.377 611.272 825.321 621.391 824.797 630.961 C 824.29 632.37 820.608 632.211 819.879 631.44 C 818.451 629.928 819.174 627.373 819.151 625.509 C 819.112 622.259 819.158 618.996 819.171 615.75 C 819.181 614.877 819.565 610.661 818.401 610.305 C 818.298 610.352 804.854 627.723 803.132 629.671 C 798.633 623.567 793.002 615.204 787.962 609.812 C 787.948 615.246 788.557 625.934 787.29 631.33 C 787.01 632.524 782.512 632.32 782.439 631.588 C 781.416 621.352 782.01 610.173 782.003 599.688 z" fill="rgb(222,165,118)" transform="translate(0,0)"></path>
<path d="M 36.1383 630.808 C 39.2437 631.155 42.6701 633.429 45.6306 634.906 C 44.2665 645.722 43.4271 656.41 42.4161 667.223 C 38.2586 664.378 34.0544 661.603 29.805 658.898 C 24.4831 655.363 18.4317 652.563 12.618 649.931 C 19.8127 642.11 27.4178 636.873 36.1383 630.808 z" fill="rgb(194,18,61)" transform="translate(0,0)"></path>
<path d="M 1367.1 599.378 C 1370.37 599.386 1372.82 599.466 1376 599.879 C 1387.06 601.314 1386.21 608.447 1375.49 604.886 C 1372.78 603.984 1364.35 604.864 1361.52 606.026 C 1358.56 607.218 1356.22 609.559 1355.02 612.514 C 1350.12 624.699 1369.14 631.334 1377.91 626.638 C 1380.21 625.407 1379.5 619.509 1378.72 619.182 C 1373.28 616.911 1371.37 621.652 1368.24 614.603 C 1374.1 613.587 1379.3 613.997 1385.25 614.119 C 1385.54 619.338 1385.7 624.562 1385.74 629.788 C 1345.11 643.571 1333.18 605.013 1367.1 599.378 z" fill="rgb(222,165,118)" transform="translate(0,0)"></path>
<path d="M 897.44 607.156 C 904.248 607.088 917.724 608.538 916.21 620.569 C 915.76 624.141 892.944 621.037 892.07 622.619 C 889.506 627.258 902.363 628.392 904.89 628.349 C 906.922 628.013 909.525 627.149 911.528 627.456 C 914.202 628.05 913.699 630.116 911.611 631.065 C 903.741 634.644 888.831 633.088 885.373 623.802 C 882.492 616.065 887.675 609.973 894.976 607.857 L 897.44 607.156 z" fill="rgb(222,165,118)" transform="translate(0,0)"></path>
<path d="M 898.87 611.17 C 907.424 611.951 916.779 617.973 903.989 618.581 C 901.878 618.558 899.6 618.515 897.489 618.546 C 885.831 618.719 892.135 613.63 898.87 611.17 z" fill="rgb(39,7,19)" transform="translate(0,0)"></path>
<path d="M 1517.51 607.178 C 1525.64 607.188 1535.58 609.62 1535.19 620.587 C 1530.49 624.697 1516.66 620.326 1510.58 622.715 C 1509.97 622.955 1510.19 623.979 1511.42 625.104 C 1516.09 629.362 1522.07 628.318 1527.83 627.795 C 1531.38 625.073 1533.54 629.272 1530.1 630.962 C 1510.26 640.681 1489.39 615.129 1515 607.877 L 1517.51 607.178 z" fill="rgb(222,165,118)" transform="translate(0,0)"></path>
<path d="M 1516.96 611.032 C 1519.74 611.135 1530.31 612.341 1528.96 617.15 C 1527.84 618.263 1525.76 618.045 1524.25 618.062 C 1517.46 618.077 1499.9 619.63 1516.96 611.032 z" fill="rgb(39,7,19)" transform="translate(0,0)"></path>
<path d="M 1405.4 607.261 C 1415.15 607.532 1422.64 609.739 1422.08 620.532 C 1421.59 624.109 1399.41 620.671 1398.65 622.781 C 1396.04 630.046 1415.33 627.855 1416.78 627.712 C 1417.69 627.283 1419.41 626.897 1419.47 627.892 C 1419.95 634.722 1400.82 632.988 1397.37 630.343 C 1384.24 620.286 1392.07 610.47 1405.4 607.261 z" fill="rgb(222,165,118)" transform="translate(0,0)"></path>
<path d="M 1401.93 612.135 C 1406.03 611.667 1415.34 610.93 1416.09 616.766 C 1415.36 617.577 1415.13 617.791 1414.07 618.262 C 1406.84 618.286 1391.7 621.391 1401.93 612.135 z" fill="rgb(39,7,19)" transform="translate(0,0)"></path>
<path d="M 952.032 607.325 C 965.55 607.07 973.39 608.631 971.567 624.379 C 971.389 625.914 973.045 635.527 966.265 631.57 C 962.534 629.392 961.92 632.776 957.541 633.014 C 952.717 633.276 950.468 632.424 946.205 630.989 C 935.52 614.462 958.158 619.56 964.657 617.272 C 969.964 615.403 955.237 609.418 953.719 611.836 C 953.998 611.392 944.708 614.309 944.82 611.215 C 945.143 608.584 950.042 607.823 952.032 607.325 z" fill="rgb(222,165,118)" transform="translate(0,0)"></path>
<path d="M 957.708 621.394 C 969.866 621.323 967.318 625.706 958.089 629.306 C 947.831 627.952 945.523 622.635 957.708 621.394 z" fill="rgb(39,7,19)" transform="translate(0,0)"></path>
<path d="M 650.514 607.358 C 663.841 607.88 667.141 611.28 666.024 624.505 C 665.833 626.762 667.667 635.293 660.842 631.358 C 657.616 629.498 655.298 632.837 651.025 632.835 C 643.776 632.832 642.128 632.378 637.106 627.608 C 638.835 613.986 649.945 619.062 659.362 617.592 C 661.207 617.303 659.347 611.392 651.446 611.348 C 647.577 611.326 641.874 614.072 639.506 611.416 C 639.454 607.865 647.915 607.728 650.514 607.358 z" fill="rgb(222,165,118)" transform="translate(0,0)"></path>
<path d="M 651.408 621.407 C 664.657 621.591 662.636 625.696 651.808 629.162 C 649.243 628.884 644.489 628.748 643.823 625.468 C 643.666 624.726 643.853 623.952 644.332 623.364 C 645.687 621.69 649.305 621.666 651.408 621.407 z" fill="rgb(39,7,19)" transform="translate(0,0)"></path>
<path d="M 500.065 600.17 C 506.03 599.823 514.807 599.115 520.169 602.625 C 521.053 603.204 520.181 605.659 519.098 606.23 C 516.756 607.463 514.023 604.937 511.496 605.054 C 499.521 602.809 487.003 610.911 495.689 623.291 C 498.81 627.738 506.676 627.961 512.324 628.216 C 513.539 627.895 514.747 627.549 515.947 627.179 C 522.086 625.244 522.126 630.086 519.527 631.087 C 509.925 634.787 491.829 633.502 487.294 622.393 C 482.578 610.841 490.418 604.207 500.065 600.17 z" fill="rgb(222,165,118)" transform="translate(0,0)"></path>
<path d="M 1089.96 600.03 C 1094.59 600.005 1119.33 598.495 1120.02 601.971 C 1120.63 608.159 1097.84 602.704 1096.74 605.493 C 1091.27 619.427 1107.9 615.229 1111.25 615.237 C 1115.07 615.215 1116.09 614.586 1117.63 618.155 L 1116.71 619.379 C 1115.03 620.001 1099.55 619.63 1096.64 619.633 C 1096.55 623.035 1097.05 628.31 1095.85 631.372 C 1095.46 632.373 1090.64 632.037 1090.56 631.347 C 1089.46 621.492 1089.99 610.053 1089.96 600.03 z" fill="rgb(222,165,118)" transform="translate(0,0)"></path>
<path d="M 9.4504 653.562 C 20.4866 656.129 31.5026 662.914 40.4001 670.155 C 41.8487 671.334 40.6653 678.466 40.418 680.771 C 26.466 681.154 14.2244 665.313 9.4504 653.562 z" fill="rgb(194,18,61)" transform="translate(0,0)"></path>
<path d="M 546.973 607.725 C 547.896 607.515 551.171 606.656 551.728 607.432 C 555.473 612.64 560.195 620.833 563.672 626.25 C 565.627 622.308 567.516 618.396 569.55 614.359 C 571.775 609.941 571.864 606.447 578.021 608.048 C 578.099 607.924 578.63 608.523 578.59 608.61 C 574.023 618.593 568.795 628.768 563.081 638.302 C 560.991 641.79 554.66 643.863 551.052 641.439 C 548.428 639.677 550.871 636.762 553.416 637.699 C 556.457 638.748 560.204 635.734 560.556 632.558 C 557.966 625.276 551.345 618.409 547.976 611.076 L 546.973 607.725 z" fill="rgb(222,165,118)" transform="translate(0,0)"></path>
<path d="M 1547.87 607.111 C 1551.7 607.085 1561.24 607.045 1563.49 610.201 C 1564.44 611.524 1562.1 614.882 1558.96 612.598 C 1557.04 610.833 1543.61 610.447 1546.33 615.366 C 1548.25 618.821 1563.73 616.908 1565.48 623.554 C 1567.01 629.382 1561.58 631.502 1557.37 633.026 C 1554.29 633.036 1537.46 633.376 1540.35 627.124 C 1541.42 624.823 1551.07 630.584 1555.37 628.592 C 1565.85 623.498 1549.69 622.424 1547.01 621.5 C 1535.04 617.374 1539.33 610.741 1547.87 607.111 z" fill="rgb(222,165,118)" transform="translate(0,0)"></path>
<path d="M 849.404 606.364 C 856.501 608.071 852.782 606.305 855.545 610.488 C 861.734 609.577 864.428 604.131 874.495 610.018 C 879.52 612.957 882.463 636.189 873.69 631.535 C 872.297 630.796 872.868 620.979 872.874 619.013 C 870.865 611.475 864.347 609.987 858.034 613.541 C 852.415 616.704 857.744 629.147 853.808 632.25 C 852.903 632.425 853.056 632.391 852.117 632.229 C 847.223 631.385 849.19 611.197 849.404 606.364 z" fill="rgb(222,165,118)" transform="translate(0,0)"></path>
<path d="M 1201.24 607.207 C 1203.19 607.224 1215.86 607.111 1214.81 611.036 C 1213.54 614.449 1209.77 611.861 1207.9 611.694 C 1194.49 610.502 1192.6 616.246 1207.38 618.44 C 1220.83 620.435 1220.95 630.63 1204.7 633.25 C 1202.11 632.969 1187.88 631.671 1190.41 627.203 C 1191.81 624.74 1202.65 630.776 1207.56 628.232 C 1215.51 624.12 1202.78 622.511 1200.65 622.053 C 1187.22 619.164 1187.51 610.506 1201.24 607.207 z" fill="rgb(222,165,118)" transform="translate(0,0)"></path>
<path d="M 588.724 607.224 C 590.833 607.142 604.637 607.181 605.501 609.674 C 606.522 614.063 602.575 613.595 599.984 612.154 C 599.182 609.834 583.26 612.408 588.636 615.768 C 591.761 617.72 621.916 620.303 601.544 632.518 C 596.089 632.965 587.544 633.126 582.872 630.253 C 579.862 628.401 583.716 625.606 587.576 627.639 C 590.074 629.022 599.554 629.768 600.895 626.464 C 603.512 620.016 584.512 624.19 582.454 617.56 C 580.523 611.337 584.502 609.591 588.724 607.224 z" fill="rgb(222,165,118)" transform="translate(0,0)"></path>
<path d="M 1259.94 607.153 C 1262.02 607.118 1278.71 606.745 1275.27 611.71 C 1273.07 613.857 1266.71 610.661 1264.5 611.321 C 1242.82 617.798 1276.73 616.41 1277.08 622.936 C 1277.56 631.754 1272.28 631.697 1267.17 633.148 C 1263.96 633.011 1252.88 632.863 1251.91 629.437 C 1251.41 625.74 1256.93 627.328 1259 628.231 C 1261.18 629.187 1273.48 629.448 1271.24 624.972 C 1269.75 622 1261.24 622.369 1257.7 621.026 C 1246.23 616.675 1251.14 610.623 1259.94 607.153 z" fill="rgb(222,165,118)" transform="translate(0,0)"></path>
<path d="M 1001.78 607.279 C 1004.74 607.176 1015.87 606.861 1017.05 610.055 C 1017.25 610.564 1017.22 611.131 1016.99 611.623 C 1016.11 613.437 1011.42 612.096 1010.41 611.588 C 1006.69 609.732 993.725 613.314 1002.49 616.819 C 1007.57 618.852 1023.77 617.721 1017.82 628.882 C 1016.53 631.298 1011.44 632.367 1009.02 633.092 C 996.191 632.647 984.403 625.327 1002.42 628.416 C 1012.89 630.21 1017.36 623.474 1005 622.089 C 992.208 620.656 987.935 612.92 1001.78 607.279 z" fill="rgb(222,165,118)" transform="translate(0,0)"></path>
<path d="M 137.806 649.727 L 140.534 652.444 L 140.424 654.71 C 133.253 663.019 122.686 672.492 114.64 680.307 C 107.321 687.416 97.7767 697.702 90.1217 703.987 C 87.5417 702.983 87.7934 703.548 86.5811 701.656 C 103.483 683.863 121.233 668.338 137.806 649.727 z" fill="rgb(194,18,61)" transform="translate(0,0)"></path>
<path d="M 697.233 607.183 C 699.712 607.201 712.007 607.703 711.621 610.345 C 710.727 616.471 698.591 606.789 693.647 614.105 C 694.963 619.373 705.575 617.428 709.496 620.07 C 719.401 626.744 710.768 630.969 703.169 633.023 C 701.065 632.98 684.674 632.851 688.593 627.025 C 692.103 626.161 699.288 630.468 703.023 628.658 C 717.499 621.639 690.743 624.586 687.996 616.57 C 687.476 615.044 687.658 613.365 688.495 611.986 C 690.403 608.912 694.072 608.068 697.233 607.183 z" fill="rgb(222,165,118)" transform="translate(0,0)"></path>
<path d="M 1170.36 607.141 C 1185.54 607.289 1190.21 615.55 1173.51 611.222 C 1168.49 609.922 1161.2 616.9 1172 617.741 C 1189.25 619.082 1192.4 630.384 1172.6 633.222 C 1169.19 632.718 1153.62 630.829 1161.53 626.783 C 1162.02 626.533 1178.83 632.327 1180.2 625.594 C 1177.01 620.856 1168.36 622.758 1164.6 620.64 C 1153.67 614.488 1163.85 608.889 1170.36 607.141 z" fill="rgb(222,165,118)" transform="translate(0,0)"></path>
<path d="M 619.445 602.644 C 623.381 603.357 621.358 604.661 622.478 607.267 C 623.869 609.326 630.959 606.703 631.745 608.992 C 634.061 615.732 622.607 608.901 622.196 614.404 C 622.053 616.744 622.136 619.179 622.141 621.518 C 622.161 631.006 627.748 628.262 633.548 628.603 C 631.764 634.151 629.382 633.264 623.311 632.563 C 612.984 631.369 618.731 618.91 616.449 612.869 C 616.005 611.693 613.015 612.343 612.19 611.714 C 609.459 608.84 612.659 607.613 615.503 607.98 C 616.677 608.132 618.696 603.803 619.445 602.644 z" fill="rgb(222,165,118)" transform="translate(0,0)"></path>
<path d="M 76.7447 660.122 C 77.9225 660.741 77.2452 661.429 76.3362 662.254 C 68.8553 669.044 61.1454 675.813 53.6203 682.504 C 52.785 683.247 45.6626 682.906 44.3107 682.895 C 42.1214 680.268 45.5231 674.164 46.9781 673.532 C 56.999 669.179 66.9853 665.143 76.7447 660.122 z" fill="rgb(194,18,61)" transform="translate(0,0)"></path>
<path d="M 157.506 602.733 C 159.197 604.355 163.929 622.966 164.83 626.601 L 163.169 627.14 C 160.215 628.11 157.241 629.017 154.248 629.859 C 152.883 630.302 149.432 631.938 148.331 630.604 C 148.422 629.799 156.385 606.656 157.506 602.733 z" fill="rgb(194,18,61)" transform="translate(0,0)"></path>
<path d="M 676.701 597.243 C 677.535 597.584 680.495 598.575 680.461 599.515 C 680.166 607.62 681.886 626.913 678.922 633.466 C 677.178 632.661 673.926 631.92 674.267 629.616 C 675.439 621.683 671.537 602.412 676.701 597.243 z" fill="rgb(222,165,118)" transform="translate(0,0)"></path>
<path d="M 1238.38 598.267 C 1239.71 598.455 1244.12 598.771 1244.2 599.624 C 1244.84 606.844 1244.57 626.439 1244.56 632.702 C 1238.03 631.623 1238.18 632.933 1238.28 625.904 C 1238.41 616.704 1238.17 607.473 1238.38 598.267 z" fill="rgb(222,165,118)" transform="translate(0,0)"></path>
<path d="M 545.563 612.243 C 541.333 614.132 540.226 611.487 536.947 614.001 C 531.57 618.039 533.814 624.795 533.171 630.519 C 532.854 633.344 527.333 632.183 527.365 630.452 C 527.444 626.1 526.303 612.136 527.682 608.614 C 533.073 605.37 532.346 611.933 535.086 610.27 C 538.77 608.033 540.478 608.089 544.551 608.181 C 544.872 609.539 545.21 610.893 545.563 612.243 z" fill="rgb(222,165,118)" transform="translate(0,0)"></path>
<path d="M 938.818 607.024 C 940.434 607.378 941.557 607.996 941.549 609.898 C 941.364 614.67 936.212 611.042 932.648 613.261 C 922.411 619.634 935.654 628.638 924.17 633.207 C 924.417 633.767 923.218 631.105 923.2 630.92 C 922.646 624.163 922.179 615.319 923.186 608.7 C 923.703 605.302 929.784 610.382 929.234 610.516 C 930.115 610.302 934.591 608.215 936.115 607.766 C 936.557 607.636 938.347 607.155 938.818 607.024 z" fill="rgb(222,165,118)" transform="translate(0,0)"></path>
<path d="M 979.999 598.622 C 982.092 598.859 985.901 598.315 985.935 600.876 C 986.079 611.52 985.971 622.216 985.968 632.863 C 979.349 631.763 979.931 633.093 979.973 626.061 C 980.028 616.923 980.003 607.762 979.999 598.622 z" fill="rgb(222,165,118)" transform="translate(0,0)"></path>
<path d="M 202.98 492.895 C 209.269 492.749 214.143 492.825 220.414 493.065 C 219.318 500.829 218.979 502.517 218.579 510.645 C 214.859 511.957 205.13 496.408 202.98 492.895 z" fill="rgb(194,18,61)" transform="translate(0,0)"></path>
<path d="M 834.042 607.664 C 842.548 608.527 840.042 607.604 840.338 617.226 C 840.491 622.209 840.282 627.373 840.257 632.371 C 832.888 631.384 834.123 632.412 834.032 624.466 C 833.967 618.887 834.041 613.245 834.042 607.664 z" fill="rgb(222,165,118)" transform="translate(0,0)"></path>
<path d="M 1223.32 607.284 C 1224.43 607.493 1228.81 608.043 1228.93 608.685 C 1229.84 613.576 1229.32 628.901 1229.1 633.296 C 1228.05 632.979 1223.66 631.929 1223.59 631.279 C 1222.82 624.724 1223.12 613.514 1223.32 607.284 z" fill="rgb(222,165,118)" transform="translate(0,0)"></path>
<path d="M 24.3795 618.527 C 28.1047 620.982 30.8726 624.912 33.7215 628.397 L 24.8649 634.81 C 24.0326 635.425 19.3472 639.457 18.4655 638.708 C 18.1882 637.27 23.5584 620.703 24.3795 618.527 z" fill="rgb(194,18,61)" transform="translate(0,0)"></path>
<path d="M 1309.63 614.509 C 1311.35 613.866 1313.28 614.229 1314.65 615.453 C 1316.01 616.677 1316.59 618.558 1316.13 620.334 C 1315.68 622.111 1314.28 623.489 1312.49 623.91 C 1309.97 624.507 1307.41 623.036 1306.65 620.551 C 1305.9 618.066 1307.2 615.421 1309.63 614.509 z" fill="rgb(222,165,118)" transform="translate(0,0)"></path>
<path d="M 1050.05 615.494 C 1051.41 614.453 1053.23 614.233 1054.8 614.919 C 1056.37 615.606 1057.44 617.09 1057.6 618.796 C 1057.76 620.501 1056.98 622.159 1055.57 623.124 C 1053.46 624.563 1050.59 624.061 1049.09 621.994 C 1047.6 619.926 1048.02 617.044 1050.05 615.494 z" fill="rgb(222,165,118)" transform="translate(0,0)"></path>
<path d="M 743.837 615.374 C 745.339 614.472 747.221 614.495 748.702 615.431 C 750.183 616.368 751.009 618.059 750.838 619.803 C 750.667 621.546 749.528 623.045 747.893 623.676 C 745.648 624.543 743.113 623.549 742.056 621.386 C 740.999 619.223 741.773 616.612 743.837 615.374 z" fill="rgb(222,165,118)" transform="translate(0,0)"></path>
<path d="M 267.729 522.031 C 269.736 521.935 280.767 521.054 279.43 524.328 C 271.991 526.397 270.373 529.262 267.729 522.031 z" fill="rgb(194,18,61)" transform="translate(0,0)"></path>
<path d="M 834.996 598.519 C 836.371 597.2 838.552 597.239 839.879 598.606 C 841.205 599.972 841.179 602.154 839.821 603.489 C 838.451 604.835 836.247 604.809 834.908 603.431 C 833.57 602.052 833.61 599.848 834.996 598.519 z" fill="rgb(222,165,118)" transform="translate(0,0)"></path>
<path d="M 1224.1 598.54 C 1225.47 597.321 1227.57 597.437 1228.8 598.8 C 1230.03 600.162 1229.93 602.261 1228.58 603.499 C 1227.21 604.751 1225.08 604.649 1223.84 603.272 C 1222.6 601.896 1222.72 599.771 1224.1 598.54 z" fill="rgb(222,165,118)" transform="translate(0,0)"></path>
<path d="M 221.869 508.664 C 222.034 506.748 222.514 500.353 224.277 499.402 C 224.525 499.424 225.446 499.959 225.715 500.101 C 226.648 502.1 227.04 503.77 226.955 505.91 C 225.244 506.799 223.549 507.717 221.869 508.664 z" fill="rgb(194,18,61)" transform="translate(0,0)"></path>
<path d="M 226.955 505.91 C 227.986 507.998 227.482 508.546 225.797 509.834 C 224.424 510.409 223.056 510.994 221.692 511.59 L 221.869 508.664 C 223.549 507.717 225.244 506.799 226.955 505.91 z" fill="rgb(39,7,19)" transform="translate(0,0)"></path>
<path d="M 544.551 608.181 L 546.973 607.725 L 547.976 611.076 L 545.563 612.243 C 545.21 610.893 544.872 609.539 544.551 608.181 z" fill="rgb(39,7,19)" transform="translate(0,0)"></path>
<metadata><recraft-signature>{"signed_by": "recraft", "signature_b64": "tJaDip3D6iuIBMFbqupJcRND27KtQSMwvQmexMvHfZg8iIeLKf3KoU6sv28bt5AY+1Quus2HCVlUqExN/O8+DA==", "signing_algo": "Ed25519", "generation_timestamp": 1780247325, "identifier": "35018209-86c2-4676-9ab3-cfa1bb688757"}</recraft-signature></metadata></svg>