<svg xmlns="http://www.w3.org/2000/svg" height="768" preserveAspectRatio="none" style="display: block;" version="1.1" viewBox="0 0 2048 1024" width="1536">
<path d="M 0 0 L 2048 0 L 2048 343.166 L 2048 496.319 L 2048 594.548 L 2048 686.515 L 2048 703.904 L 2048 773.281 L 2048 776.591 L 2048 818.985 L 2048 1024 L 0 1024 L 0 794.433 L 0 720.021 L 0 690.896 L 0 678.837 L 0 666.623 L 0 662.433 L 0 568.326 L 0 505.451 L 0 478.544 L 0 470.377 L 0 0 z" fill="rgb(7,9,9)" transform="translate(0,0)"></path>
<path d="M 0 0 L 2048 0 L 2048 343.166 L 2035.71 328.1 C 2037.47 323.634 2036.46 236.147 2036.14 225.479 L 1010.26 225.588 L 480.339 225.81 L 313.997 225.279 C 283.655 225.273 251.105 226.147 221.13 225.556 C 215.076 215.514 210.058 204.57 204.962 193.989 C 198.827 194.851 195.716 194.415 189.607 193.892 C 184.055 203.731 177.513 215.158 173.699 225.707 C 122.032 225.952 63.7235 226.669 12.3207 225.439 L 12.2485 460.507 C 8.9429 463.195 3.2923 468.055 0 470.377 L 0 0 z" fill="rgb(22,22,22)" transform="translate(0,0)"></path>
<path d="M 369.756 769.121 C 371.805 773.476 374.989 781.053 377.939 784.486 C 376.715 786.943 377.96 785.987 378.151 788.449 C 383.679 790.42 397.622 790.873 404.128 791.336 L 396.743 812.743 L 389.565 817.482 C 388.927 817.792 388.306 818.103 387.738 818.493 C 387.731 818.855 387.927 818.947 388.243 819.286 L 385.983 820.168 C 384.921 818.429 384.696 818.201 383.243 816.723 L 382.854 816.333 L 372.072 821.121 C 377.042 824.355 405.703 821.257 413.469 821.242 C 442.584 821.183 471.709 821.002 500.828 821.183 L 960.314 821.804 L 1096.45 821.615 C 1113.29 821.566 1153.03 822.325 1168.46 820.124 C 1173.84 818.973 1176.39 818.653 1181.89 818.316 L 1181.56 819.479 C 1189.86 820.996 1216.28 819.571 1226.54 820.158 L 1229.46 820.04 C 1238.11 822.949 1338.11 820.652 1356.59 821.026 C 1381.73 821.536 1420.86 821.167 1447.33 821.311 C 1450.34 821.328 1452.44 821.68 1454.24 819.745 C 1469.77 819.811 1485.31 819.794 1500.85 819.692 C 1507.16 819.665 1521.92 819.306 1527.52 820.09 C 1533.27 822.516 1540.85 821.849 1546.72 820.067 L 1545.65 819.61 L 1546.8 818.749 C 1558.07 819.622 1572.65 818.424 1581.76 819.312 C 1578.84 820.804 1563.34 820.522 1559.07 820.58 C 1570.23 821.522 1653.73 822.331 1660.54 819.226 C 1665.63 819.582 1670.72 819.81 1675.82 819.912 C 1682.49 821.984 1709.19 820.976 1717.35 820.773 C 1721.45 820.672 1721.89 820.736 1723.89 818.361 C 1740.89 821.286 1779.62 817.05 1792.86 819.77 L 1792.15 819.904 C 1780.45 821.987 1751.28 819.463 1737.75 820.556 C 1748.69 820.686 1836.93 822.165 1840.21 819.129 C 1845.09 819.058 1852.26 818.737 1856.95 819.081 C 1859.35 820.328 1861.66 820.838 1864.38 820.838 C 1919.09 820.826 1973.84 821.643 2028.56 820.73 C 2031.42 820.682 2034.58 820.759 2037.03 819.151 L 2048 818.985 L 2048 1024 L 0 1024 L 0 794.433 C 4.31915 796.097 6.5953 797.02 11.102 797.906 C 11.5136 805.895 11.9112 813.572 11.9642 821.571 C 32.7609 821.475 55.4634 821.002 76.091 821.722 C 96.6201 822.437 108.52 826.009 130.233 823.481 L 127.441 822.654 L 131.448 822.198 C 135.516 823.015 159.469 825.305 161.596 822.937 C 168.07 822.385 179.786 822.302 186.139 823.371 L 188.63 823.961 L 191.018 821.718 C 199.162 824.766 240.034 820.561 250.951 823.665 C 253.623 826.995 258.657 827.677 262.088 825.271 C 268.045 824.876 272.793 825.253 278.727 824.497 C 281.367 826.409 281.795 826.458 285.058 826.762 C 286.546 825.945 286.595 826.317 286.969 825.277 C 287.854 821.942 345.386 785.855 350.517 785.794 L 351.491 783.295 C 353.661 780.944 363.512 771.382 365.736 770.05 L 369.756 769.121 z" fill="rgb(22,22,22)" transform="translate(0,0)"></path>
<path d="M 286.969 825.277 C 287.854 821.942 345.386 785.855 350.517 785.794 C 359.487 789.755 368.113 792.042 376.915 795.5 C 363.038 805.033 347.747 812.935 332.795 820.642 C 318.469 828.026 302.487 823.993 286.969 825.277 z" fill="rgb(98,120,136)" transform="translate(0,0)"></path>
<path d="M 378.894 796.988 C 376.711 791.334 381.836 793.875 383.059 793.138 L 383.066 792.776 C 383.916 792.086 384.3 793.262 384.647 793.786 C 388.011 798.168 391.431 802.295 394.697 806.724 C 395.236 807.167 395.077 806.974 395.279 807.302 C 395.309 808.114 393.636 809.535 393.044 810.219 C 390.029 812.77 386.364 814.495 382.854 816.333 L 372.072 821.121 C 360.297 827.379 345.162 825.24 331.334 825.091 C 341.127 819.956 373.957 805.034 378.894 796.988 z" fill="rgb(239,236,231)" transform="translate(0,0)"></path>
<path d="M 378.894 796.988 C 376.711 791.334 381.836 793.875 383.059 793.138 L 383.066 792.776 C 383.916 792.086 384.3 793.262 384.647 793.786 C 388.011 798.168 391.431 802.295 394.697 806.724 C 395.236 807.167 395.077 806.974 395.279 807.302 C 395.309 808.114 393.636 809.535 393.044 810.219 C 391.398 807.977 382.678 795.41 380.659 795.055 C 379.901 795.436 379.419 796.287 378.894 796.988 z" fill="rgb(7,9,9)" transform="translate(0,0)"></path>
<path d="M 351.491 783.295 C 353.661 780.944 363.512 771.382 365.736 770.05 C 369.684 777.227 372.773 783.924 376.36 791.201 C 367.79 788.213 359.999 786.032 351.491 783.295 z" fill="rgb(98,120,136)" transform="translate(0,0)"></path>
<path d="M 384.647 793.786 C 400.447 794.43 398.904 792.968 394.697 806.724 C 391.431 802.295 388.011 798.168 384.647 793.786 z" fill="rgb(239,236,231)" transform="translate(0,0)"></path>
<path d="M 1168.46 820.124 C 1173.84 818.973 1176.39 818.653 1181.89 818.316 L 1181.56 819.479 C 1189.86 820.996 1216.28 819.571 1226.54 820.158 C 1219.15 821.833 1175.5 821.523 1168.46 820.124 z" fill="rgb(21,75,74)" transform="translate(0,0)"></path>
<path d="M 1728.57 316.68 C 1717.03 333.925 1711.99 355.906 1711.74 376.818 C 1711.66 383.745 1721.74 396.077 1718.9 404.778 C 1700.63 428.58 1667.03 376.061 1666.68 355.488 C 1664.19 335.148 1672.93 306.133 1685.7 289.744 C 1708.69 260.233 1759.58 241.687 1796 238.606 C 1890.64 230.602 1972.6 254.95 2035.71 328.1 L 2048 343.166 L 2048 496.319 C 2039.02 466.803 2029.82 439.253 2013.89 412.125 C 1988.47 368.828 1941.93 325.075 1887.42 337.706 C 1877.86 339.922 1870.53 344.186 1862.18 349.24 C 1867.49 323.632 1871.91 322.96 1895.2 314.115 C 1879.98 314.606 1872.24 313.605 1861.82 325.954 C 1839.71 332.92 1829.07 341.051 1815.35 359.412 C 1814.85 358.649 1814.36 357.875 1813.89 357.092 C 1801.31 336.182 1809.56 328.948 1827.59 318.446 C 1820.95 320.045 1814.2 321.997 1808.23 325.283 C 1802.73 326.701 1801.7 337.019 1799.95 338.617 C 1774.22 362.177 1774.3 391.103 1792.49 420.851 C 1783.84 421.002 1776.11 420.424 1769.01 415.272 C 1737.03 391.726 1742.68 353.461 1761.9 323.767 C 1785.9 286.717 1818.02 269.994 1859.96 260.428 C 1858.19 258.923 1858.39 258.678 1856.17 258.39 C 1816.72 263.178 1789.15 278.058 1763.84 309.608 C 1752.65 323.547 1742.82 342.352 1738.95 360.116 C 1738.3 363.091 1738.22 378.241 1738.21 382.117 C 1726.89 383.113 1723.52 366.339 1723.04 357.893 C 1722.25 344.084 1724.84 331.678 1729.94 318.903 L 1728.57 316.68 z" fill="rgb(22,139,122)" transform="translate(0,0)"></path>
<path d="M 1856.17 258.39 C 1857.7 257.971 1869.97 257.012 1871.25 257.548 C 1871.48 258.937 1861.39 260.177 1859.96 260.428 C 1858.19 258.923 1858.39 258.678 1856.17 258.39 z" fill="rgb(15,51,52)" transform="translate(0,0)"></path>
<path d="M 1728.57 316.68 C 1729.36 315.569 1731.72 311.42 1733.12 311.754 C 1733.57 313.036 1730.69 317.635 1729.94 318.903 L 1728.57 316.68 z" fill="rgb(15,51,52)" transform="translate(0,0)"></path>
<path d="M 1748.36 277.249 C 1754.36 268.453 1760.85 262.451 1769.97 256.896 C 1783.09 248.739 1798.95 246.224 1813.96 249.923 L 1814 252.22 C 1791.25 250.802 1766.1 264.142 1748.36 277.249 z" fill="rgb(7,9,9)" transform="translate(0,0)"></path>
<path d="M 1696.64 317.816 C 1697.78 323.145 1687.09 357.217 1692.47 367.346 C 1693.07 368.48 1693.58 374.749 1693.38 376.392 L 1691.53 374.526 C 1682.15 353.048 1680.37 336.544 1696.64 317.816 z" fill="rgb(7,9,9)" transform="translate(0,0)"></path>
<path d="M 1813.96 249.923 C 1815.2 249.95 1817.39 249.697 1818.42 250.465 C 1818.73 251.79 1814.98 252.025 1814 252.22 L 1813.96 249.923 z" fill="rgb(15,51,52)" transform="translate(0,0)"></path>
<path d="M 191.725 198.486 C 195.205 198.586 199.169 198.603 202.58 199.006 C 217.605 228.405 234.739 257.975 250.531 287.159 C 255.08 283.714 261.054 278.923 265.677 275.839 L 282.802 276.011 C 291.624 298.765 300.221 321.606 308.592 344.53 C 314.952 362.121 322.078 383.863 330.399 400.563 C 331.524 402.821 344.513 413.657 347.358 416.086 L 364.425 411.55 C 372.676 421.114 379.956 428.245 388.987 437.073 C 391.711 450.289 396.855 471.578 398.529 484.126 C 407.997 487.06 417.132 489.808 426.393 493.401 C 437.384 515.332 447.734 537.708 458.422 559.807 C 466.776 577.079 477.337 591.446 488.1 607.245 L 523.535 659.612 C 555.227 706.7 586.522 754.054 617.415 801.669 L 614.709 801.092 C 613.109 798.696 610.651 795.89 608.841 793.584 C 591.272 771.192 572.711 749.446 555.264 726.977 C 527.272 691.606 500.362 655.393 474.569 618.389 C 463.372 602.017 451.988 586.371 443.357 568.442 C 433.62 548.215 423.559 528.094 413.617 507.964 C 404.246 504.262 393.74 500.9 384.078 497.208 C 379.754 480.597 376.125 462.669 372.328 445.809 C 367.527 441.249 362.328 435.708 357.628 430.935 C 352.454 432.396 347.248 434.863 342.295 437.03 C 337.193 431.473 317.696 414.808 315.7 410.907 C 299.476 379.206 287.254 332.475 273.187 300.731 C 271.512 315.306 270.487 330.366 269.331 345.027 C 289.24 372.661 300.397 406.011 314.052 437.116 C 321.883 442.379 329.663 447.718 337.392 453.129 C 340.557 466.789 354.895 507.776 360.024 521.059 C 351.769 510.951 339.905 498.725 330.871 488.917 C 330.916 496.747 331.272 504.899 331.507 512.752 L 328.529 515.198 C 316.401 490.011 303.09 466.256 291.336 440.68 C 290.155 450.263 290.218 461.036 290.043 470.775 C 282.44 457.077 274.906 443.341 267.44 429.567 C 266.403 436.193 265.403 442.824 264.44 449.461 C 258.526 434.421 251.521 420.03 245.486 405.102 C 241.145 394.367 241.302 380.502 240.858 368.854 C 236.515 379.272 232.5 389.825 228.82 400.497 L 225.092 377.852 C 222.125 390.203 220.939 402.218 217.523 414.966 C 214.342 416.991 199.718 424.487 198.185 426.03 C 187.434 436.85 173.026 461.582 165.142 474.699 L 162.403 473.97 C 166.529 459.184 172.068 431.981 180.892 420.451 C 184.997 415.086 193.821 408.074 198.643 402.773 L 202.218 376.417 C 210.161 370.192 220.162 363.822 228.65 358.131 C 230.034 330.733 228.578 330.15 240.563 305.773 C 233.779 291.503 224.415 276.112 216.551 262.143 C 210.147 250.768 203.814 237.809 197.371 226.767 C 186.766 246.201 176.379 265.752 166.21 285.417 C 160.496 296.447 155.101 307.987 148.615 318.589 C 147.151 320.982 144.163 321.334 141.554 321.907 C 134.08 328.739 127.73 339.428 120.835 347.206 L 114.633 336.982 L 96.3899 381.678 C 93.4966 388.802 86.7576 406.878 82.8427 412.435 C 75.0812 423.453 61.3863 437.316 51.9393 447.641 L 0 505.451 L 0 478.544 C 19.7688 455.869 43.7546 432.806 62.938 409.736 C 73.7419 396.743 80.6463 367.712 88.5257 352.061 C 93.1255 341.125 98.848 327.812 102.739 317.023 C 110.626 316.841 115.179 315.903 121.919 319.881 L 127.351 308.783 C 130.366 307.729 133.716 306.636 136.66 305.483 C 154.496 269.038 173.738 234.373 191.725 198.486 z" fill="rgb(22,139,122)" transform="translate(0,0)"></path>
<path d="M 1679.7 418.242 C 1695.59 425.294 1706.72 430.036 1720.02 441.509 C 1760.95 476.839 1770.14 538.574 1746.5 587.563 C 1705.8 671.9 1603.89 719.902 1520.98 753.058 C 1467.85 773.334 1385.89 794.67 1330.15 804.395 C 1308.62 808.102 1287.05 811.607 1265.45 814.911 C 1255.81 816.316 1238.37 818.134 1229.46 820.04 L 1226.54 820.158 C 1216.28 819.571 1189.86 820.996 1181.56 819.479 L 1181.89 818.316 C 1193.42 817.536 1229 811.704 1241.28 809.592 C 1323.92 795.376 1434.77 775.909 1511.77 743.921 C 1501.49 745.628 1492.01 745.098 1481.67 744.559 C 1497.27 736.375 1508.99 728.662 1519.51 714.577 C 1509.84 715.889 1497.78 718.253 1488.54 715.781 C 1489.17 714.074 1499.97 709.206 1503.26 707.129 C 1510.86 702.323 1517.58 696.25 1523.13 689.172 C 1513.86 690.609 1506.75 690.32 1497.48 689.746 C 1509.42 684.798 1519.49 677.914 1526.84 667.064 L 1526.47 665.861 C 1518.74 667.251 1515.83 668.117 1508.17 666.926 C 1508.93 664.532 1521.63 656.141 1524.46 652.982 C 1527.83 649.2 1529.23 647.114 1531.97 642.858 C 1525.04 644.265 1520.37 644.558 1513.31 645.049 C 1527.57 632.141 1530.61 628.303 1541.27 612.503 C 1537.29 613.606 1532.55 614.07 1528.4 614.605 L 1525.98 611.656 C 1535.93 603.549 1538.88 600.256 1546.05 589.604 C 1540.92 590.599 1535.6 590.977 1530.39 591.461 C 1545.69 576.269 1549.65 569.489 1556.17 548.838 C 1566.91 574.826 1559.67 567.153 1579.84 590.173 L 1579 591.053 C 1573.78 591.054 1570.54 589.837 1565.6 588.365 C 1568.87 592.651 1586.77 612.08 1587.65 613.879 L 1586.73 614.854 C 1581.61 615.03 1576.88 613.461 1571.93 612.14 C 1579.58 624.929 1587.93 635.876 1600.34 644.309 C 1593.12 644.174 1588.39 644.105 1581.26 643.054 C 1589.82 655.165 1595 659.347 1607.65 667.06 C 1597.75 667.922 1594.44 667.758 1585.01 664.801 C 1595.71 679.235 1598.9 681.111 1614.9 689.56 C 1603.16 690.889 1600.23 691.453 1588.84 688.373 C 1593.62 693.58 1598.93 698.345 1604.11 703.165 C 1609.25 701.311 1621.68 696.157 1624.96 692.051 C 1623.93 690.09 1620.99 690.971 1617.35 689.461 C 1623.03 683.296 1629.16 683.696 1639.69 670.98 C 1631.58 670.984 1626.13 670.769 1618.06 669.976 C 1630.17 663.99 1635.82 660.055 1644.89 650.268 C 1640.84 651.231 1632.9 653.214 1629.13 651.607 C 1630.07 649.731 1641.85 640.663 1646.17 635.842 C 1641.91 636.522 1638.44 637.351 1634.18 636.461 C 1634.05 634.82 1645.41 625.097 1649.42 619.823 C 1646.13 620.478 1640.86 621.869 1638.02 620.488 C 1636.61 624.392 1656.53 598.439 1656.89 597.911 C 1651.92 599.641 1646.5 600.491 1641.31 601.47 C 1647.23 596.632 1656.12 590.464 1658.89 583.479 L 1658.39 582.573 L 1651.87 583.301 C 1651.21 581.372 1659.41 571.312 1660.95 568.444 C 1663.52 563.651 1665.14 558.86 1666.96 553.78 C 1671.08 566.937 1672.84 572.303 1682.52 582.304 C 1681.14 583.164 1674.56 582.67 1672.49 582.607 C 1676.82 588.005 1686.95 596.199 1687.61 599.53 C 1684.73 600.833 1680.99 599.667 1677.76 599.052 C 1685.1 608.805 1688.55 613.941 1698.31 621.132 C 1692.53 621.189 1688.67 620.758 1682.98 620.127 C 1689.72 626.905 1693.54 630.217 1701.17 635.914 C 1715.71 621.152 1726.81 606.896 1735.76 588.261 C 1767.32 522.519 1745.49 451.484 1679.16 419.867 L 1679.7 418.242 z" fill="rgb(22,139,122)" transform="translate(0,0)"></path>
<path d="M 1687.71 635.672 C 1691.33 636.011 1699.54 635.268 1698.34 639.418 C 1691.3 643.412 1693.28 642.145 1687.71 635.672 z" fill="rgb(7,9,9)" transform="translate(0,0)"></path>
<path d="M 1833.81 354.226 C 1875.85 365.973 1905.18 379.87 1927.47 419.77 C 1950.49 460.993 1955.47 512.166 1941.75 557.663 C 1903.09 685.887 1770.5 768.636 1649.9 808.211 C 1637.69 812.217 1626.15 816.472 1613.53 818.699 C 1604.05 820.153 1591.62 818.892 1581.76 819.312 C 1572.65 818.424 1558.07 819.622 1546.8 818.749 C 1617.42 799.731 1668.76 783.434 1734.82 749.032 C 1813.02 708.316 1890.73 646.505 1919.34 559.589 C 1933.57 516.365 1931.92 466.29 1910.69 425.59 C 1895.28 396.04 1862.95 365.978 1830.67 356.053 L 1833.81 354.226 z" fill="rgb(22,139,122)" transform="translate(0,0)"></path>
<path d="M 2014.76 494.026 C 2021.37 582.485 2009.23 646.438 1950.39 718.23 C 1917.8 757.994 1842.08 806.344 1792.86 819.77 C 1779.62 817.05 1740.89 821.286 1723.89 818.361 C 1742.44 813.539 1763.8 804.331 1781.38 796.609 C 1899.71 744.632 2007.41 637.981 2011.94 501.711 C 2012.8 497.544 2012.38 497.562 2014.76 494.026 z" fill="rgb(22,139,122)" transform="translate(0,0)"></path>
<path d="M 2048 686.515 L 2048 703.904 L 2048 773.281 L 2048 776.591 L 2048 818.985 L 2037.03 819.151 C 2034.58 820.759 2031.42 820.682 2028.56 820.73 C 1973.84 821.643 1919.09 820.826 1864.38 820.838 C 1861.66 820.838 1859.35 820.328 1856.95 819.081 C 1893.02 817.544 1886.77 821.242 1920.39 802.547 C 1975.9 771.68 2013.46 740.306 2048 686.515 z" fill="rgb(7,9,9)" transform="translate(0,0)"></path>
<path d="M 2048 703.904 L 2048 773.281 C 2047.34 769.244 2046.84 765.698 2046.41 761.631 C 2026.8 778.486 1987.16 812.271 1961.44 818.525 C 1953.96 820.345 1929.84 817.955 1919.68 819.704 L 1918.96 816.484 C 1968.89 792 2018.04 750.665 2048 703.904 z" fill="rgb(22,139,122)" transform="translate(0,0)"></path>
<path d="M 2048 776.591 L 2048 818.985 L 2037.03 819.151 C 2022.34 818.637 2005.31 819.002 1990.43 818.95 C 2008.6 808.841 2032.92 790.856 2048 776.591 z" fill="rgb(22,139,122)" transform="translate(0,0)"></path>
<path d="M 1918.96 816.484 L 1919.68 819.704 C 1918.81 819.513 1916.29 819.297 1915.78 818.506 C 1916.09 817.608 1918.15 816.857 1918.96 816.484 z" fill="rgb(22,123,113)" transform="translate(0,0)"></path>
<path d="M 1840.21 819.129 C 1841.63 816.953 1851.3 813.661 1854.13 812.542 C 1939.53 778.845 2007.84 709.73 2038.29 622.745 C 2041.5 613.582 2044.56 603.765 2048 594.548 L 2048 686.515 C 2013.46 740.306 1975.9 771.68 1920.39 802.547 C 1886.77 821.242 1893.02 817.544 1856.95 819.081 C 1852.26 818.737 1845.09 819.058 1840.21 819.129 z" fill="rgb(22,139,122)" transform="translate(0,0)"></path>
<path d="M 1938.26 375.959 C 1976.05 424.058 1987.03 474.813 1980.15 535.469 C 1971.16 614.679 1920.75 682.168 1859.22 730.173 C 1816.1 763.461 1767.94 789.657 1716.57 807.775 C 1705.34 811.855 1687.22 818.088 1675.82 819.912 C 1670.72 819.81 1665.63 819.582 1660.54 819.226 C 1673.9 813.601 1692.65 808.478 1706.99 802.977 C 1741.21 789.69 1774 772.974 1804.86 753.084 C 1878.55 705.353 1948.23 630.643 1966.69 542.548 C 1978.38 486.763 1969.28 426.461 1937.99 378.416 L 1938.26 375.959 z" fill="rgb(22,139,122)" transform="translate(0,0)"></path>
<path d="M 10.0813 544.824 C 11.1651 548.403 12.6905 553.789 14.3717 557.03 C 16.523 561.177 23.1072 568.311 24.3916 572.465 C 21.5868 572.591 19.7723 572.479 17.0255 572.29 C 17.7543 577.019 29.3794 585.945 33.3675 588.879 L 20.1793 587.6 C 22.2809 590.548 35.657 606.399 35.9116 607.351 C 33.5057 608.819 29.2074 608.352 26.1476 608.307 C 31.8522 614.75 35.515 618.444 41.9029 624.21 L 28.5648 622.668 C 33.732 628.211 39.4805 635.258 46.2762 638.46 C 44.0135 638.643 41.7469 638.942 39.4918 639.216 L 35.0542 639 L 34.3523 640.252 C 37.5787 647.034 51.0256 653.758 57.8146 656.797 C 49.6564 657.573 44.4015 658.234 36.1812 657.295 C 44 664.318 50.8528 670.421 59.7653 676.055 C 55.6761 676.419 50.9907 676.96 46.9512 677.182 C 39.6968 672.145 28.134 663.604 20.9113 659.316 C 14.3132 660.317 6.53231 661.707 0 662.433 L 0 568.326 C 5.23106 559.969 7.26612 554.306 10.0813 544.824 z" fill="rgb(22,139,122)" transform="translate(0,0)"></path>
<path d="M 0 690.896 L 7.6482 687.411 L 53.1832 727.67 C 77.4906 749.227 85.2089 754.524 100.116 783.747 C 92.3542 782.7 79.46 781.06 72.3444 777.619 C 46.9815 765.351 23.3795 735.81 0 720.021 L 0 690.896 z" fill="rgb(239,236,231)" transform="translate(0,0)"></path>
<path d="M 370.855 752.888 C 408.696 751.221 448.046 750.101 485.662 746.838 C 480.367 755.968 474.868 765.872 469.333 774.788 L 411.682 780.706 C 401.443 781.772 387.845 782.753 377.939 784.486 C 374.989 781.053 371.805 773.476 369.756 769.121 C 366.492 761.45 367.478 761.283 370.855 752.888 z" fill="rgb(239,236,231)" transform="translate(0,0)"></path>
<path d="M 378.151 788.449 C 381.753 786.645 462.131 778.978 470.941 778.79 C 482.35 785.632 493.599 792.735 504.681 800.093 C 500.948 802.147 491.636 807.611 487.899 808.349 C 459.218 814.011 426.298 814.828 397.404 818.403 C 394.487 818.192 392.465 817.923 389.565 817.482 L 396.743 812.743 L 404.128 791.336 C 397.622 790.873 383.679 790.42 378.151 788.449 z" fill="rgb(239,185,123)" transform="translate(0,0)"></path>
<path d="M 191.018 821.718 C 200.179 811.975 214.993 795.16 225.124 787.646 C 235.447 779.989 254.147 771.342 265.739 764.753 C 260.565 784.179 256.317 804.74 250.951 823.665 C 240.034 820.561 199.162 824.766 191.018 821.718 z" fill="rgb(239,185,123)" transform="translate(0,0)"></path>
<path d="M 161.596 822.937 C 175.486 798.463 190.779 768.03 203.863 742.53 C 207.882 757.825 212.857 772.782 217.296 787.948 C 211.195 794.485 190.195 816.437 186.139 823.371 C 179.786 822.302 168.07 822.385 161.596 822.937 z" fill="rgb(239,185,123)" transform="translate(0,0)"></path>
<path d="M 82.5523 745.22 C 91.0371 745.73 99.5303 746.088 108.028 746.294 C 122.314 771.472 135.897 797.186 150.803 822.011 C 144.827 822.051 137.29 821.889 131.448 822.198 L 127.441 822.654 C 112.675 796.729 97.7114 770.917 82.5523 745.22 z" fill="rgb(98,120,136)" transform="translate(0,0)"></path>
<path d="M 1454.24 819.745 C 1470.27 795.012 1487.76 798.368 1513.69 798.696 C 1522.41 798.806 1540.07 797.339 1544.09 807.159 C 1544.38 815.56 1534.32 818.643 1527.52 820.09 C 1521.92 819.306 1507.16 819.665 1500.85 819.692 C 1485.31 819.794 1469.77 819.811 1454.24 819.745 z" fill="rgb(98,120,136)" transform="translate(0,0)"></path>
<path d="M 0 666.623 C 5.44957 665.531 11.2568 664.734 16.7778 663.884 C 14.9574 667.431 13.1958 671.124 11.2854 674.62 C 6.31873 683.711 8.05797 682.786 0 678.837 L 0 666.623 z" fill="rgb(239,236,231)" transform="translate(0,0)"></path>
<path d="M 262.088 825.271 C 261.907 824.993 261.403 824.358 261.671 823.959 C 265.644 818.05 272.794 822.23 278.727 824.497 C 272.793 825.253 268.045 824.876 262.088 825.271 z" fill="rgb(98,120,136)" transform="translate(0,0)"></path>
<path d="M 2011.94 501.711 C 2011.85 492.894 2011.64 486.19 2013.15 477.462 L 2014.76 494.026 C 2012.38 497.562 2012.8 497.544 2011.94 501.711 z" fill="rgb(21,75,74)" transform="translate(0,0)"></path>
<path d="M 1937.99 378.416 C 1936.02 376.441 1929.63 368.125 1929.51 365.564 C 1932.97 367.787 1936.27 372.336 1938.26 375.959 L 1937.99 378.416 z" fill="rgb(15,51,52)" transform="translate(0,0)"></path>
<path d="M 617.415 801.669 C 618.725 802.684 623.617 809.259 622.814 810.533 C 621.7 812.302 615.521 802.186 614.709 801.092 L 617.415 801.669 z" fill="rgb(15,51,52)" transform="translate(0,0)"></path>
<path d="M 1679.16 419.867 C 1677.18 419.341 1668.35 416.165 1667.65 414.744 C 1668.74 413.6 1677.8 417.381 1679.7 418.242 L 1679.16 419.867 z" fill="rgb(15,51,52)" transform="translate(0,0)"></path>
<path d="M 331.507 512.752 C 331.635 514.305 332.061 518.23 331.22 519.458 C 329.942 520.022 328.789 515.968 328.529 515.198 L 331.507 512.752 z" fill="rgb(22,123,113)" transform="translate(0,0)"></path>
<path d="M 165.142 474.699 C 164.477 475.72 161.737 480.699 160.76 480.64 C 159.935 479.465 161.838 475.316 162.403 473.97 L 165.142 474.699 z" fill="rgb(22,123,113)" transform="translate(0,0)"></path>
<path d="M 1830.67 356.053 C 1819.46 352.612 1829.9 353.302 1833.81 354.226 L 1830.67 356.053 z" fill="rgb(21,75,74)" transform="translate(0,0)"></path>
<path d="M 1528.4 614.605 C 1524.3 615.054 1519.55 614.081 1525.98 611.656 L 1528.4 614.605 z" fill="rgb(22,123,113)" transform="translate(0,0)"></path>
<path d="M 388.243 819.286 C 387.927 818.947 387.731 818.855 387.738 818.493 C 388.306 818.103 388.927 817.792 389.565 817.482 C 392.465 817.923 394.487 818.192 397.404 818.403 C 394.164 818.824 391.485 819.056 388.243 819.286 z" fill="rgb(239,185,123)" transform="translate(0,0)"></path>
<path d="M 46.2762 638.46 C 47.7873 638.528 47.3714 638.34 48.3444 639.242 C 48.1874 640.85 40.5703 639.42 39.4918 639.216 C 41.7469 638.942 44.0135 638.643 46.2762 638.46 z" fill="rgb(22,123,113)" transform="translate(0,0)"></path>
<path d="M 706.245 425.19 C 771.337 417.752 799.147 563.282 716.742 595.584 C 649.309 602.798 624.585 459.146 706.245 425.19 z" fill="rgb(239,185,123)" transform="translate(0,0)"></path>
<path d="M 690.022 444.607 C 722.288 445.945 748.559 558.362 728.316 578.53 C 696.859 575.779 675.415 476.738 686.121 450.841 C 686.961 448.81 688.666 446.383 690.022 444.607 z" fill="rgb(7,9,9)" transform="translate(0,0)"></path>
<path d="M 1348.38 424.306 C 1355.75 424.682 1361.66 426.494 1367.66 430.947 C 1407.65 460.63 1415.63 527.445 1387.24 567.47 C 1376.44 582.692 1365.17 592.821 1346.82 596.207 C 1313.65 594.04 1295.54 557.019 1291.31 527.889 C 1287.15 499.622 1294.39 470.861 1311.45 447.938 C 1321.05 435.222 1332.21 426.532 1348.38 424.306 z" fill="rgb(239,185,123)" transform="translate(0,0)"></path>
<path d="M 1325.16 444.818 L 1325.98 444.804 C 1356.73 444.501 1384.21 558.357 1364.18 578.359 C 1360.14 577.628 1356.36 575.875 1353.2 573.267 C 1330.18 554.657 1306.31 467.855 1325.16 444.818 z" fill="rgb(7,9,9)" transform="translate(0,0)"></path>
<path d="M 596.506 423.24 C 605.524 422.847 614.57 424.1 622.848 427.857 C 633.66 432.638 642.029 441.658 645.985 452.799 C 650.991 466.524 650.539 483.478 644.247 496.658 C 638.795 508.116 628.927 516.871 616.901 520.919 C 598.245 527.261 579.911 522.786 562.781 514.543 C 583.035 538.192 615.427 566.335 647.131 544.06 L 647.02 595.011 C 618.529 595.4 606.407 596.123 589.847 569.74 C 585.431 561.14 568.051 522.292 558.386 521.315 C 546.522 530.181 584.43 584.29 591.168 594.752 C 571.903 595.24 551.698 594.966 532.365 594.991 C 544.584 567.159 540.236 528.348 541.118 498.172 C 541.881 472.044 541.744 449.446 535.005 424.009 C 561.452 431.802 569.608 428.99 596.506 423.24 z" fill="rgb(239,185,123)" transform="translate(0,0)"></path>
<path d="M 584.802 459.364 C 591.563 459.194 598.223 460.592 604.218 463.667 C 618.722 471.107 621.277 490.286 607.067 499.584 C 600.667 503.772 595.276 504.479 587.965 505.921 C 575.43 506.732 555.48 507.335 553.302 491.495 C 550.71 472.644 569.386 461.738 584.802 459.364 z" fill="rgb(7,9,9)" transform="translate(0,0)"></path>
<path d="M 1467.19 424.271 C 1530.99 419.02 1543.91 512.132 1484.59 525.925 C 1463.16 530.908 1447.85 526.959 1429.31 515.302 L 1427.44 515.879 C 1422.75 523.825 1442.41 559.154 1446.43 567.287 C 1451.18 576.482 1455.86 585.712 1460.47 594.975 L 1404.05 595.022 C 1415.86 571.669 1412.2 532.951 1412.88 507.142 C 1413.62 479.086 1413.35 451.563 1406.59 424.227 C 1429.23 432.419 1444.5 428.809 1467.19 424.271 z" fill="rgb(239,185,123)" transform="translate(0,0)"></path>
<path d="M 1450.69 460.257 C 1460.34 459.63 1468.08 458.96 1476.85 464.34 C 1486.71 470.388 1492.09 483.854 1485.24 494.131 C 1479.84 502.246 1470.2 504.043 1461.24 505.72 C 1441.5 507.844 1415.75 505.223 1429.03 475.16 C 1432.48 467.352 1442.39 462.272 1450.69 460.257 z" fill="rgb(7,9,9)" transform="translate(0,0)"></path>
<path d="M 900.231 426.315 C 918.002 425.668 939.173 426.219 957.211 426.214 C 942.543 451.388 931.932 466.917 920.576 494.206 C 946.413 476.574 966.683 456.134 976.908 426.143 C 988.573 426.077 1000.24 426.242 1011.9 426.64 C 1009.88 434.508 1002.87 463.687 999.258 468.644 C 985.251 487.86 945.087 474.531 929.001 498.685 C 926.49 502.455 924.619 505.646 925.343 510.21 C 926.404 511.393 927.639 512.72 929.398 512.37 C 944.996 509.262 960.783 507.056 975.816 514.343 C 987.497 520.004 991.295 530.236 995.2 542.24 C 1001 564.647 1005.05 575.805 1017.67 594.945 L 969.466 595.077 C 951.729 577.826 960.289 546.184 940.556 528.362 C 935.819 524.084 931.369 521.196 924.813 521.35 C 921.554 522.89 922.606 521.885 920.923 525.211 C 920.259 535.775 949.128 583.074 955.994 595.01 L 898.986 595.019 C 912.246 567.948 905.885 521.083 907.751 490.819 C 908.962 471.174 906.871 444.846 900.231 426.315 z" fill="rgb(239,185,123)" transform="translate(0,0)"></path>
<path d="M 1232.29 426.13 L 1287.71 426.258 C 1287.55 426.614 1287.39 426.972 1287.24 427.332 C 1276.93 451.716 1279.25 485.896 1279.29 512.27 C 1279.34 539.739 1277.62 569.351 1288.02 595.081 L 1235.91 594.998 L 1234.77 594.71 C 1233.19 589.253 1274.03 517.884 1263.35 506.589 L 1255.2 510.564 C 1221.88 526.575 1219.95 518.05 1189.2 507.255 C 1187.87 507.855 1187.5 507.767 1187.02 509.163 C 1183.24 520.248 1212.93 581.672 1219.25 594.871 L 1165.89 594.996 C 1178.13 566.526 1173.16 488.357 1172.8 454.795 C 1172.72 447.219 1168.22 430.694 1168.84 427.177 L 1171.6 426.503 C 1186.73 426.112 1203.6 426.544 1218.86 426.607 C 1212.27 438.766 1206.37 451.285 1201.19 464.106 C 1196.87 474.716 1189.35 490.477 1203.62 495.545 C 1211.21 498.242 1255.78 501.072 1256.39 489.512 C 1257.31 472.128 1240.1 441.796 1232.29 426.13 z" fill="rgb(239,185,123)" transform="translate(0,0)"></path>
<path d="M 1099.48 424.216 C 1122.99 422.595 1136.33 440.778 1161.04 426.759 C 1157.06 446.526 1152.61 463.918 1145.49 482.826 C 1129.83 466.813 1109.85 456.989 1088.82 449.911 C 1084.24 448.368 1067.91 448.949 1070.38 454.898 C 1078.86 475.288 1115.04 483.531 1132.84 495.616 C 1140.97 501.136 1147.12 503.929 1153.81 511.029 C 1171.54 529.381 1164.22 565.661 1146.9 581.989 C 1134.13 594.027 1120.66 596.387 1103.95 595.979 C 1079.47 592.281 1067.47 579.948 1052.13 561.946 C 1060.81 547.58 1069.72 533.357 1078.86 519.282 C 1084.16 549.732 1098.76 558.28 1125.96 569.297 C 1132.25 571.841 1142.29 575.268 1147.28 568.724 C 1154.87 546.188 1080.87 518.645 1068.46 504.654 C 1065.82 502.06 1064.66 498.949 1063.32 495.576 C 1049.55 460.928 1065.39 435.793 1099.48 424.216 z" fill="rgb(239,185,123)" transform="translate(0,0)"></path>
<path d="M 1667.56 298.909 C 1668.93 298.86 1669.22 299.045 1670.55 299.366 C 1671.26 302.486 1667.22 309.5 1665.85 313.4 C 1656.81 339.094 1656.09 359.326 1666.95 384.005 C 1657.35 399.891 1654.11 419.049 1661.13 437.025 C 1663.02 441.862 1668.33 449.064 1668.09 453.683 C 1664.65 455.883 1649.13 455.354 1645.98 452.9 C 1619.36 432.161 1631.21 393.991 1641.1 370.823 C 1639.82 372.226 1638.56 373.655 1637.34 375.108 C 1623.56 391.518 1620.21 406.804 1622.04 427.636 C 1614.62 457.118 1616.91 460.534 1628.4 486.934 L 1627.39 488.058 C 1622.48 488.623 1617.5 487.794 1613.04 485.668 C 1597.79 478.393 1588.67 458.783 1583.04 443.801 C 1572.99 417.057 1580.74 385.621 1592.84 360.612 C 1608.89 327.435 1633.75 310.709 1667.56 298.909 z" fill="rgb(22,139,122)" transform="translate(0,0)"></path>
<path d="M 1609.51 375.795 C 1610.16 378.229 1607.52 383.802 1606.63 386.483 C 1601.84 401.004 1599.85 416.034 1600 431.305 C 1600.03 435.609 1600.99 440.273 1600.6 444.548 L 1598.93 442.669 C 1595.98 436.645 1594.11 430.15 1593.4 423.479 C 1591.42 404.493 1597.79 390.173 1609.51 375.795 z" fill="rgb(7,9,9)" transform="translate(0,0)"></path>
<path d="M 836.868 424.138 C 854.29 423.527 868.4 430.855 883.495 438.459 C 905.126 449.354 882.92 471.428 873.152 484.893 C 867.29 480.75 861.536 476.224 855.738 472.177 C 845.483 465.388 834.475 454.681 822.689 450.892 C 803.29 444.976 798.64 470.394 800.497 484.683 C 804.261 513.655 822.604 548.504 853.257 555.854 C 862.724 558.124 870.652 556.433 878.461 551.782 C 884.13 546.104 884.155 540.967 888.095 535.312 L 890.236 535.56 C 890.632 536.031 891.478 537.032 891.56 537.663 C 892.993 548.639 889.077 564.596 883.91 573.983 C 869.526 600.118 830.553 600.985 807.465 586.95 C 791.858 577.462 783.924 560.661 779.964 543.475 C 773.279 513.726 778.6 482.54 794.773 456.691 C 804.544 441.25 818.658 428.232 836.868 424.138 z" fill="rgb(239,185,123)" transform="translate(0,0)"></path>
<path d="M 284.84 568.605 C 288.042 568.262 292.029 567.392 294.58 568.915 C 294.238 577.844 288.797 602.262 287.029 612.543 C 280.985 647.684 273.1 683.177 267.573 718.397 C 251.581 723.112 235.489 727.48 219.309 731.5 C 216.385 732.413 214.644 733.185 211.551 732.813 C 210.77 724.916 222.724 669.892 225.08 657.634 C 230.348 629.489 235.472 601.317 240.452 573.12 C 253.466 571.218 271.08 570.156 284.84 568.605 z" fill="rgb(98,120,136)" transform="translate(0,0)"></path>
<path d="M 192.174 533.017 C 204.14 541.852 223.258 560.981 236.624 571.842 C 228.306 625.032 216.346 679.43 206.574 732.495 C 206.404 733.421 200.309 741.174 198.904 743.772 L 189.623 759.33 C 187.962 737.754 187.628 714.918 186.121 692.884 C 179.471 684.659 172.646 676.578 165.65 668.645 C 175.03 623.945 183.526 577.872 192.174 533.017 z" fill="rgb(98,120,136)" transform="translate(0,0)"></path>
<path d="M 359.29 581.736 C 363.199 585.198 378.27 606.144 383.368 612.109 L 343.567 721.76 C 338.139 736.933 332.996 754.019 326.64 768.693 C 325.715 770.827 316.705 778.013 314.343 779.964 L 301.345 790.591 C 304.224 775.938 306.868 761.24 309.276 746.502 L 303.852 738.452 C 309.279 719.871 318.727 696.163 325.417 677.611 L 359.29 581.736 z" fill="rgb(239,236,231)" transform="translate(0,0)"></path>
<path d="M 386.666 613.026 C 397.477 613.152 408.289 613.06 419.096 612.752 C 412.847 631.715 403.412 654.875 396.22 673.863 C 385.023 703.352 374.161 732.967 363.635 762.702 C 361.218 764.543 338.007 763.061 333.315 762.889 C 350.108 712.687 369.394 663.217 386.666 613.026 z" fill="rgb(239,236,231)" transform="translate(0,0)"></path>
<path d="M 1362.17 813.476 C 1464.73 792.802 1566.8 761.517 1656.38 705.749 C 1672.88 695.478 1684.46 684.347 1699.31 673.739 C 1699.14 679.159 1698.78 685.654 1698.88 690.973 C 1680.05 702.064 1664.47 721.451 1643.11 733.808 C 1562.32 780.558 1468.38 802.559 1376.49 814.087 C 1373.03 814.523 1369.23 814.88 1365.83 815.523 L 1362.17 813.476 z" fill="rgb(98,120,136)" transform="translate(0,0)"></path>
<path d="M 129.91 589.109 C 131.903 591.856 136.372 605.686 137.891 609.543 C 145.024 627.647 151.66 651.197 160.152 668.254 C 152.904 677.514 145.856 686.929 139.013 696.492 C 139.705 704.137 139.972 712.029 140.323 719.717 C 136.521 720.16 132.715 720.569 128.906 720.944 L 94.2565 615.701 C 106.115 607.296 118.246 597.884 129.91 589.109 z" fill="rgb(239,236,231)" transform="translate(0,0)"></path>
<path d="M 73.6099 617.59 C 78.4458 617.034 85.4639 616.832 90.495 616.552 C 102.258 648.079 113.894 687.96 125.098 720.697 C 119.657 717.931 114.197 715.204 108.717 712.516 C 101.522 708.866 87.9445 701.537 80.8425 699.638 C 69.9304 672.988 58.4153 646.346 48.8622 619.226 C 57.035 618.587 65.4093 618.151 73.6099 617.59 z" fill="rgb(239,185,123)" transform="translate(0,0)"></path>
<path d="M 1757 686.91 C 1764.12 686.46 1779.15 693.413 1782.61 698.636 C 1793.83 716.251 1760.99 725.88 1749.46 732.26 C 1738.07 738.565 1727.98 745.808 1715.18 743.185 C 1709.71 739.263 1686.47 728.005 1685.43 723.442 C 1679.54 697.739 1704.35 700.026 1721.4 697.95 C 1732.99 696.537 1746.29 691.602 1757 686.91 z" fill="rgb(98,120,136)" transform="translate(0,0)"></path>
<path d="M 1873.31 470.037 C 1884.2 469.292 1911.86 479.952 1910.68 493.6 C 1907.9 525.812 1912.09 533.379 1877.61 534.367 C 1874.18 532.696 1870.91 530.506 1867.66 528.541 C 1849.55 517.617 1826.91 504.849 1851.87 484.868 C 1858.45 479.604 1865.44 474.069 1873.31 470.037 z" fill="rgb(98,120,136)" transform="translate(0,0)"></path>
<path d="M 1779.92 463.185 L 1781.77 465.9 C 1785.77 465.38 1791.86 464.443 1795.77 465.045 C 1812.01 467.548 1828.68 481.66 1835.16 496.514 C 1845.47 521.031 1814.33 512.554 1801.93 513.147 C 1786.04 513.908 1774.9 514.411 1768.47 497.039 C 1764.01 484.981 1762.4 478.242 1772.89 468.99 L 1772.23 468.002 C 1774.35 466.339 1777.51 464.656 1779.92 463.185 z" fill="rgb(98,120,136)" transform="translate(0,0)"></path>
<path d="M 1779.92 463.185 L 1781.77 465.9 C 1778.76 467.016 1775.99 467.761 1772.89 468.99 L 1772.23 468.002 C 1774.35 466.339 1777.51 464.656 1779.92 463.185 z" fill="rgb(22,22,22)" transform="translate(0,0)"></path>
<path d="M 1819.9 614.431 C 1826.19 615.751 1833.47 625.159 1845.95 629.052 C 1861.75 646.139 1840.96 659.116 1825.29 664.338 C 1823.33 664.991 1819.17 665.235 1817.1 665.401 C 1809.11 661.459 1802.11 658.984 1793.54 656.691 C 1786.24 654.739 1782.41 651.472 1782.28 643.609 C 1781.76 613.466 1796.26 615.497 1819.9 614.431 z" fill="rgb(98,120,136)" transform="translate(0,0)"></path>
<path d="M 1775.6 521.033 C 1785.84 520.511 1800.72 521.635 1805.51 532.478 C 1810.2 543.106 1830.14 562.661 1823.45 573.66 C 1820.61 575.714 1819.27 575.501 1815.76 575.645 C 1805.38 574.38 1793.82 573.552 1783.29 573.405 C 1769.71 573.215 1763.22 567.368 1764.45 553.225 C 1765.43 541.91 1766.56 529.103 1775.6 521.033 z" fill="rgb(98,120,136)" transform="translate(0,0)"></path>
<path d="M 412.115 693.036 C 420.762 696.062 430.18 700.496 438.64 704.25 C 439.821 710.578 440.769 717.718 441.763 724.141 C 431.702 730.927 420.277 739.723 410.356 746.985 L 403.455 747.423 L 372.533 749.18 L 385.775 712.094 C 394.807 706.552 403.718 699.55 412.115 693.036 z" fill="rgb(239,185,123)" transform="translate(0,0)"></path>
<path d="M 20.7777 664.298 C 25.6652 666.545 40.0951 676.923 45.1393 680.414 C 56.8889 688.64 68.8388 696.576 80.9781 704.215 C 79.4315 713.53 79.4251 736.568 77.4171 743.146 L 74.3808 741.577 C 53.0352 723.459 30.9863 703.376 10.0298 684.643 C 13.5372 677.822 17.12 671.04 20.7777 664.298 z" fill="rgb(239,236,231)" transform="translate(0,0)"></path>
<path d="M 1837.07 571.897 C 1841.48 572.554 1863.37 582.123 1868.48 584.346 C 1875.89 597.68 1886.2 620.785 1864.58 626.247 C 1839.28 624.654 1816.88 620.672 1825.13 585.14 C 1826.54 579.067 1831.34 574.388 1837.07 571.897 z" fill="rgb(98,120,136)" transform="translate(0,0)"></path>
<path d="M 256.275 486.683 C 258.52 488.458 290.982 555.415 295.161 563.705 L 279.756 565.381 C 266.832 566.584 254.356 567.795 241.384 568.368 C 246.864 542.683 251.415 512.818 256.275 486.683 z" fill="rgb(98,120,136)" transform="translate(0,0)"></path>
<path d="M 250.895 484.994 L 251.315 485.42 C 252.506 489.288 239.033 560.271 237.366 567.532 L 214.703 547.451 L 193.512 529.177 C 212.084 514.369 231.981 499.438 250.895 484.994 z" fill="rgb(98,120,136)" transform="translate(0,0)"></path>
<path d="M 126.88 726.704 C 131.454 729.31 163.166 790.168 169.898 799.921 C 166.136 807.289 161.246 817.161 156.486 823.643 C 146.364 809.604 121.074 761.574 112.114 744.664 C 117.16 738.78 122.083 732.792 126.88 726.704 z" fill="rgb(98,120,136)" transform="translate(0,0)"></path>
<path d="M 1734.93 650.033 C 1747.67 649.571 1766.7 665.998 1760.21 679.156 C 1756.56 686.563 1736.16 690.469 1727.76 692.639 C 1712.36 696.069 1699.18 700.804 1702.12 678.261 C 1702.85 672.665 1704.75 663.634 1709.84 660.357 L 1710.34 660.04 C 1716.24 656.261 1727.96 652.509 1734.93 650.033 z" fill="rgb(98,120,136)" transform="translate(0,0)"></path>
<path d="M 154.641 356.481 L 155.397 358.161 C 132.434 379.935 131.32 386.572 116.985 414.615 C 105.736 436.558 94.3766 458.444 82.907 480.272 C 76.7499 492.04 68.084 509.647 60.8882 520.375 C 78.0881 475.326 93.9426 427.833 110.67 382.233 C 118.778 376.353 145.452 361.508 154.641 356.481 z" fill="rgb(22,139,122)" transform="translate(0,0)"></path>
<path d="M 292.892 663.833 L 305.642 671.403 C 307.099 681.482 308.958 697.182 311.175 706.579 L 301.168 733.402 C 298.187 728.936 296.872 724.254 291.569 726.693 L 274.097 736.381 C 269.917 714.856 274.76 699.901 278.696 678.414 C 282.339 673.994 288.648 668.044 292.892 663.833 z" fill="rgb(239,236,231)" transform="translate(0,0)"></path>
<path d="M 1687.12 738.317 C 1690.43 737.821 1694.6 737.692 1697.46 739.915 C 1717.55 755.46 1676.04 770.326 1666.04 775.172 C 1661.57 777.341 1656 778.214 1651.14 778.532 C 1634.36 776.712 1628.58 759.736 1638.29 749.24 C 1645.14 741.833 1674.5 740.528 1687.12 738.317 z" fill="rgb(98,120,136)" transform="translate(0,0)"></path>
<path d="M 1586.55 766.018 C 1596.66 767.53 1622.53 771.403 1626.09 781.694 C 1626.51 794.046 1602.78 798.706 1593.5 800.775 C 1535.99 810.706 1546.48 783.797 1586.55 766.018 z" fill="rgb(98,120,136)" transform="translate(0,0)"></path>
<path d="M 1869.7 537.923 C 1877.9 537.689 1895.12 541.615 1900.81 547.722 C 1904.98 557.426 1890.52 580.818 1880.78 585.21 C 1876.27 583.954 1871.82 579.76 1867.54 578.779 C 1836.73 571.708 1852.01 554.793 1869.7 537.923 z" fill="rgb(98,120,136)" transform="translate(0,0)"></path>
<path d="M 1777.5 576.867 C 1781.35 576.708 1807.28 579.104 1809.26 580.695 C 1820.76 589.966 1827.41 608.938 1806.82 611.821 C 1795.7 611.341 1772.82 614.882 1766.24 605.478 C 1756.51 591.574 1767.28 584.58 1777.5 576.867 z" fill="rgb(98,120,136)" transform="translate(0,0)"></path>
<path d="M 1755.91 608.868 C 1765.96 610.19 1783.4 617.851 1780.91 630.491 C 1777.89 645.749 1774.29 656.626 1756.39 654.302 C 1751.2 652.221 1734.67 646.922 1731.53 644.466 C 1723.69 638.337 1751.91 612.101 1755.91 608.868 z" fill="rgb(98,120,136)" transform="translate(0,0)"></path>
<path d="M 1789.97 374.689 C 1801.09 374.155 1818.93 380.011 1829.08 384.79 C 1847.55 393.491 1839.11 400.434 1829.09 410.519 C 1804.12 431.023 1776.96 391.424 1789.97 374.689 z" fill="rgb(98,120,136)" transform="translate(0,0)"></path>
<path d="M 1749 460.482 C 1742.54 448.123 1733.16 424.291 1754.53 422.311 C 1760.92 421.261 1770.25 422.213 1775.73 426.327 C 1780.13 429.629 1781.24 448.44 1783.25 454.009 C 1784.46 457.359 1781.52 460.655 1779.92 463.185 C 1777.51 464.656 1774.35 466.339 1772.23 468.002 C 1765.75 467.032 1754.98 463.218 1749 460.482 z" fill="rgb(98,120,136)" transform="translate(0,0)"></path>
<path d="M 1809.41 423.182 C 1818.35 423.105 1837.49 427.656 1841.01 436.983 C 1841.78 439.01 1841.69 441.261 1840.77 443.223 C 1837.17 450.968 1823.54 453.981 1815.7 456.402 C 1811.65 457.577 1805.15 458.504 1800.82 459.255 C 1795.95 457.38 1792.3 455.206 1788.6 451.464 C 1773.19 435.859 1798.57 427.513 1809.41 423.182 z" fill="rgb(98,120,136)" transform="translate(0,0)"></path>
<path d="M 1821.87 522.229 C 1832.02 521.795 1848.9 521.651 1857.54 527.377 C 1868.46 534.621 1854.41 549.255 1849.21 555.455 C 1825.78 569.826 1805.53 537.326 1812.89 525.714 C 1815.68 523.086 1818.09 522.969 1821.87 522.229 z" fill="rgb(98,120,136)" transform="translate(0,0)"></path>
<path d="M 1777.3 658.276 C 1802.69 657.038 1838.5 675.048 1801.4 690.737 C 1787.03 696.537 1781.59 695.485 1770.04 685.995 C 1767.81 677.608 1765.59 669.716 1764.23 661.114 C 1768.81 659.734 1772.63 659.107 1777.3 658.276 z" fill="rgb(98,120,136)" transform="translate(0,0)"></path>
<path d="M 143.918 725.671 C 170.468 743.194 168.061 741.194 186.643 765.704 C 183.398 772.918 179.527 780.455 176.014 787.592 C 174.882 789.79 172.809 794.945 171.023 795.556 C 160.727 778.464 149.914 757.726 140.105 739.946 L 143.918 725.671 z" fill="rgb(239,236,231)" transform="translate(0,0)"></path>
<path d="M 261.636 724.088 L 263.382 724.507 C 259.731 730.851 225.629 776.58 221.098 781.219 L 219.697 780.777 L 218.06 776.796 C 214.141 764.27 210.547 751.645 207.283 738.934 C 220.868 734.226 246.804 728.197 261.636 724.088 z" fill="rgb(239,185,123)" transform="translate(0,0)"></path>
<path d="M 1842.98 400.973 C 1850.26 400.947 1864.95 400.722 1870.75 404.556 C 1880.79 411.187 1889.15 427.837 1871.43 431.477 C 1862.93 431.182 1837.71 429.324 1832.34 421.725 C 1826.87 413.979 1836.69 405.113 1842.98 400.973 z" fill="rgb(98,120,136)" transform="translate(0,0)"></path>
<path d="M 73.7243 557.434 C 77.3868 558.738 88.9607 565.159 93.0947 567.345 C 104.57 573.451 116.111 579.431 127.717 585.284 L 114.407 596.077 C 107.381 601.42 99.9473 606.694 92.796 611.908 L 73.7243 557.434 z" fill="rgb(239,185,123)" transform="translate(0,0)"></path>
<path d="M 25.5038 782.151 C 38.0059 786.003 94.5394 809.564 98.3532 820.987 L 96.9725 822.099 C 92.3362 822.434 91.2562 822.073 86.7111 820.857 C 59.69 811.468 35.369 804.636 8.31783 793.719 C 13.823 790.373 20.1046 785.852 25.5038 782.151 z" fill="rgb(98,120,136)" transform="translate(0,0)"></path>
<path d="M 277.027 739.326 C 282.134 740.814 283.924 742.795 287.941 746.201 C 284.274 766.071 278.43 791.161 273.33 810.728 L 261.489 819.614 L 254.859 823.774 C 258.353 810.324 272.431 746.941 277.027 739.326 z" fill="rgb(98,120,136)" transform="translate(0,0)"></path>
<path d="M 69.3091 559.675 C 71.6792 562.04 87.0378 606.994 89.0783 612.748 C 81.8783 613.487 75.5377 613.834 68.3009 614.137 C 62.838 614.905 54.8192 614.994 49.0837 615.205 C 56.1303 596.715 62.4856 578.212 69.3091 559.675 z" fill="rgb(239,185,123)" transform="translate(0,0)"></path>
<path d="M 333.399 767.146 C 337.328 770.084 342.1 778.609 344.641 782.959 C 324.153 796.205 303.661 808.627 283.227 822.17 L 271.093 817.375 C 293.131 801.294 314.223 786.694 333.399 767.146 z" fill="rgb(98,120,136)" transform="translate(0,0)"></path>
<path d="M 462.747 668.426 C 466.416 668.02 472.82 668.111 476.705 668.046 C 465.622 677.808 452.705 689.905 440.932 699.115 C 439.211 700.461 435.629 698.401 433.362 697.494 L 415.411 688.868 L 426.407 671.11 C 437.909 669.899 451.093 669.245 462.747 668.426 z" fill="rgb(239,185,123)" transform="translate(0,0)"></path>
<path d="M 1850.83 455.275 C 1846.87 449.564 1847.19 444.165 1853.39 439.81 C 1862.82 433.189 1875.13 435.994 1885.48 438.854 C 1893.93 446.861 1899.68 452.621 1890.2 463.194 C 1886.89 466.89 1861.03 460.144 1856.32 458.535 L 1855.83 460.041 C 1854.13 459.452 1852.67 458.893 1851.01 458.223 L 1850.83 455.275 z" fill="rgb(98,120,136)" transform="translate(0,0)"></path>
<path d="M 1850.83 455.275 C 1852.77 456.262 1855.13 456.996 1856.32 458.535 L 1855.83 460.041 C 1854.13 459.452 1852.67 458.893 1851.01 458.223 L 1850.83 455.275 z" fill="rgb(22,22,22)" transform="translate(0,0)"></path>
<path d="M 490.436 746.688 C 508.952 756.945 530.596 763.963 548.558 774.281 L 534.25 774.227 C 514.42 774.054 494.736 774.433 474.766 774.177 C 479.823 764.92 485.047 755.756 490.436 746.688 z" fill="rgb(239,185,123)" transform="translate(0,0)"></path>
<path d="M 477.898 671.768 C 478.259 672.127 478.621 672.487 478.982 672.846 C 475.693 688.911 471.719 704.444 469.315 720.872 C 462.982 721.128 451.544 721.789 445.387 722.573 C 443.886 716.97 443.876 709.472 443.248 703.297 C 454.315 692.344 466.47 682.326 477.898 671.768 z" fill="rgb(239,185,123)" transform="translate(0,0)"></path>
<path d="M 1838.52 452.888 C 1846.9 457.214 1842.84 455.087 1851.01 458.223 C 1852.67 458.893 1854.13 459.452 1855.83 460.041 C 1858.52 462.002 1866.54 467.562 1863.34 471.262 C 1857.51 477.991 1841.23 481.786 1832.9 484.123 C 1829.99 481.484 1827.01 478.902 1823.86 476.546 C 1803.77 461.541 1825.74 456.518 1838.52 452.888 z" fill="rgb(98,120,136)" transform="translate(0,0)"></path>
<path d="M 401.84 553.85 C 402.045 558.2 387.043 600.921 384.552 608.314 L 375.513 596.472 C 370.948 590.42 365.976 584.296 361.266 578.324 C 374.744 570.089 388.269 561.931 401.84 553.85 z" fill="rgb(239,236,231)" transform="translate(0,0)"></path>
<path d="M 405.48 556.781 C 406.882 558.374 417.925 602.367 419.845 609.032 L 401.75 609.086 L 388.096 609.056 C 394.037 591.705 399.448 574.216 405.48 556.781 z" fill="rgb(239,236,231)" transform="translate(0,0)"></path>
<path d="M 27.1218 763.664 C 37.9809 768.89 66.9989 779.169 80.1392 784.6 C 79.8816 789.161 79.0184 794.921 78.4583 799.55 C 74.0768 799.972 34.2104 781.436 26.9706 778.221 L 27.1218 763.664 z" fill="rgb(98,120,136)" transform="translate(0,0)"></path>
<path d="M 291.421 748.175 L 305.076 747.672 L 296.978 794.174 L 285.573 802.134 L 277.528 808.146 C 282.561 788.712 286.954 767.832 291.421 748.175 z" fill="rgb(98,120,136)" transform="translate(0,0)"></path>
<path d="M 181.702 696.871 C 183.904 701.468 185.258 749.159 185.762 758.03 L 178.785 748.356 C 176.092 744.909 171.587 740.634 168.413 737.433 C 166.668 727.317 166.084 716.927 165.724 706.689 L 181.702 696.871 z" fill="rgb(239,185,123)" transform="translate(0,0)"></path>
<path d="M 267.581 726.813 C 272.334 734.098 268.752 751.421 266.863 759.301 C 259.321 764.819 238.809 775.453 229.461 780.782 L 228.285 780.693 C 228.245 777.04 262.684 732.285 267.581 726.813 z" fill="rgb(239,185,123)" transform="translate(0,0)"></path>
<path d="M 531.381 777.999 C 533.41 777.865 546.463 776.878 547.168 778.449 C 546.408 779.56 544.971 780.016 543.724 780.5 L 508.3 798.42 L 478.072 778.414 C 494.486 777.824 515.084 777.561 531.381 777.999 z" fill="rgb(239,185,123)" transform="translate(0,0)"></path>
<path d="M 531.381 777.999 C 533.41 777.865 546.463 776.878 547.168 778.449 C 546.408 779.56 544.971 780.016 543.724 780.5 C 540.733 779.109 536.497 779.539 531.381 777.999 z" fill="rgb(239,185,123)" transform="translate(0,0)"></path>
<path d="M 1728.62 397.069 C 1734.05 397.678 1743.97 399.827 1748.63 402.628 C 1755.61 406.816 1757.34 417.793 1746.75 420.404 C 1741.06 421.57 1736.71 422.721 1730.84 423.732 C 1727.65 420.441 1724.7 417.139 1721.62 413.746 C 1729.37 404.501 1727.1 409.399 1728.62 397.069 z" fill="rgb(98,120,136)" transform="translate(0,0)"></path>
<path d="M 871.517 648.444 C 872.653 644.713 875.127 632.92 877.554 631.976 C 892.039 626.343 884.036 648.935 885.633 655.962 C 885.866 656.984 880.599 657.484 879.54 657.672 C 878.424 651.935 880.049 650.316 877.586 645.997 C 870.078 664.707 869.069 658.951 863.795 642.732 C 862.466 648.353 862.977 651.547 862.204 657.21 C 861.125 657.111 857.656 657.275 856.915 656.344 C 855.766 654.9 856.081 635.228 856.799 632.992 C 856.923 632.606 857.129 632.404 857.502 632.248 C 858.572 631.803 859.895 631.987 861.017 631.973 C 862.602 631.955 864.957 631.532 866.168 632.881 C 868.964 635.997 870.116 644.275 871.517 648.444 z" fill="rgb(239,185,123)" transform="translate(0,0)"></path>
<path d="M 877.586 645.997 C 877.868 644.619 878.026 642.456 879.353 641.657 C 880.67 642.163 879.721 655.872 879.54 657.672 C 878.424 651.935 880.049 650.316 877.586 645.997 z" fill="rgb(53,42,27)" transform="translate(0,0)"></path>
<path d="M 862.204 657.21 C 862.071 655.023 861.27 642.032 862.807 641.36 C 863.275 641.544 863.584 642.318 863.795 642.732 C 862.466 648.353 862.977 651.547 862.204 657.21 z" fill="rgb(84,66,43)" transform="translate(0,0)"></path>
<path d="M 307.474 623.802 C 309.29 625.916 315.955 652.212 317.088 656.401 C 313.697 660.054 310.346 663.745 307.036 667.473 C 303.044 665.114 299.102 662.672 295.212 660.149 C 298.32 649.725 303.357 633.437 307.474 623.802 z" fill="rgb(239,236,231)" transform="translate(0,0)"></path>
<path d="M 142.938 699.329 C 149.327 701.862 155.238 704.641 161.827 707.011 C 162.245 716.686 163.287 725.078 164.264 734.586 C 160.535 732.639 148.549 724.24 144.388 721.378 C 143.995 713.913 143.321 706.711 142.938 699.329 z" fill="rgb(239,236,231)" transform="translate(0,0)"></path>
<path d="M 84.1945 708.676 C 88.2768 712.262 105.587 738.728 104.675 743.049 C 96.7478 742.209 89.749 741.854 81.8522 740.776 C 82.3547 730.057 83.1357 719.354 84.1945 708.676 z" fill="rgb(98,120,136)" transform="translate(0,0)"></path>
<path d="M 89.2098 707.708 C 96.9807 710.603 116.411 720.273 124.163 724.703 C 122.079 727.235 120.308 729.465 118.315 732.086 C 115.515 735.083 113.024 737.912 110.309 740.972 C 103.297 730.492 96.0327 718.499 89.2098 707.708 z" fill="rgb(98,120,136)" transform="translate(0,0)"></path>
<path d="M 1261.3 631.167 C 1265.23 631.897 1274.17 633.396 1268.85 637.916 C 1266.89 639.99 1265.34 637.721 1263 637.674 C 1252.32 637.461 1253.02 652.584 1263.04 652.789 C 1265.32 652.836 1267.58 649.363 1264.86 648.104 C 1262.56 647.044 1261.89 644.85 1263.34 642.73 C 1264.14 641.725 1269.03 641.816 1270.71 641.673 C 1272.7 643.807 1272.68 652.693 1272.07 654.551 C 1270.23 658.762 1257.4 658.284 1254.52 655.984 C 1241.67 645.735 1248.46 634.841 1261.3 631.167 z" fill="rgb(239,185,123)" transform="translate(0,0)"></path>
<path d="M 302.362 624.003 C 302.736 627.534 292.499 655.128 290.444 660.726 C 290.054 661.788 282.625 668.772 281.112 670.17 C 280.284 665.612 285.553 642.527 286.457 636.498 C 291.131 632.571 297.382 627.545 302.362 624.003 z" fill="rgb(239,185,123)" transform="translate(0,0)"></path>
<path d="M 453.749 725.401 C 456.882 724.919 460.64 724.965 463.84 724.92 C 454.511 731.51 445.937 738.746 436.922 745.647 C 436.218 746.185 431.667 746.138 430.424 746.215 L 429.762 746.261 C 424.777 746.854 421.506 746.972 416.541 747.145 C 425.02 740.711 436.299 732.515 445.298 726.479 C 445.984 726.019 452.206 725.582 453.749 725.401 z" fill="rgb(239,185,123)" transform="translate(0,0)"></path>
<path d="M 1343.94 630.142 C 1344.54 630.273 1349.14 630.934 1349.18 631.604 C 1349.61 639.522 1349.83 648.565 1348.95 656.384 C 1348.78 657.942 1343.66 656.766 1342.96 656.36 C 1340.58 656.969 1338.52 657.722 1336.04 658.236 C 1331.12 654.781 1328.78 652.75 1330 645.996 C 1330.4 643.899 1331.63 642.049 1333.4 640.864 C 1342.78 634.49 1343.86 651.717 1343.94 630.142 z" fill="rgb(239,185,123)" transform="translate(0,0)"></path>
<path d="M 1338.31 644.401 C 1339.81 643.883 1341.47 644.231 1342.64 645.307 C 1343.8 646.383 1344.28 648.014 1343.89 649.551 C 1343.49 651.088 1342.29 652.283 1340.74 652.663 C 1338.51 653.213 1336.23 651.907 1335.58 649.696 C 1334.93 647.486 1336.13 645.154 1338.31 644.401 z" fill="rgb(7,9,9)" transform="translate(0,0)"></path>
<path d="M 82.9224 789.762 C 90.9258 796.729 112.73 815.071 118.319 822.038 C 114.662 822.114 110.772 822.232 107.132 822.065 C 98.9078 815.568 89.816 808.394 81.5016 802.086 C 81.9546 797.576 82.1977 794.273 82.9224 789.762 z" fill="rgb(98,120,136)" transform="translate(0,0)"></path>
<path d="M 660.144 632.01 C 662.643 631.834 675.812 631.312 671.329 637.702 C 669.559 640.225 666.964 637.922 664.499 638.047 C 654.565 638.548 655.136 652.879 664.991 652.128 C 666.884 651.966 667.831 650.4 670.697 650.015 C 675.359 658.151 665.401 659.294 661.501 657.881 C 644.626 651.768 648.568 639.051 660.144 632.01 z" fill="rgb(239,185,123)" transform="translate(0,0)"></path>
<path d="M 312.568 625.663 C 317.077 628.951 326.143 643.037 331.086 648.773 C 329.093 654.718 327.224 660.753 325.174 666.724 C 324.939 667.588 324.096 670.09 323.495 670.524 C 324.918 673.127 312.592 625.788 312.568 625.663 z" fill="rgb(239,185,123)" transform="translate(0,0)"></path>
<path d="M 1102.79 639.246 C 1107.85 638.078 1112.91 641.17 1114.19 646.205 C 1115.46 651.24 1112.48 656.371 1107.47 657.753 C 1104.14 658.674 1100.57 657.718 1098.14 655.256 C 1095.71 652.793 1094.8 649.209 1095.76 645.886 C 1096.73 642.564 1099.42 640.023 1102.79 639.246 z" fill="rgb(239,185,123)" transform="translate(0,0)"></path>
<path d="M 1103.8 644.641 C 1105.93 644.038 1108.16 645.218 1108.86 647.32 C 1109.56 649.422 1108.49 651.704 1106.42 652.501 C 1105 653.05 1103.38 652.772 1102.23 651.776 C 1101.07 650.781 1100.55 649.229 1100.88 647.738 C 1101.21 646.247 1102.33 645.057 1103.8 644.641 z" fill="rgb(7,9,9)" transform="translate(0,0)"></path>
<path d="M 1309.22 640.505 C 1313.65 638.077 1319.21 639.635 1321.73 644.012 C 1324.26 648.388 1322.83 653.981 1318.51 656.605 C 1315.63 658.355 1312.02 658.408 1309.09 656.744 C 1306.16 655.08 1304.36 651.959 1304.39 648.588 C 1304.41 645.217 1306.26 642.124 1309.22 640.505 z" fill="rgb(239,185,123)" transform="translate(0,0)"></path>
<path d="M 1312.25 644.713 C 1313.61 644.181 1315.16 644.43 1316.29 645.364 C 1317.42 646.298 1317.96 647.77 1317.69 649.211 C 1317.43 650.653 1316.4 651.838 1315.01 652.308 C 1312.93 653.014 1310.67 651.927 1309.92 649.862 C 1309.16 647.797 1310.2 645.51 1312.25 644.713 z" fill="rgb(7,9,9)" transform="translate(0,0)"></path>
<path d="M 1074.11 632.509 C 1078.04 632.47 1084.9 632.16 1088.89 632.522 C 1089.34 632.67 1089.71 633.144 1089.83 633.542 C 1092.19 641.533 1080.11 635.07 1078.94 638.546 C 1076.96 644.495 1085.54 641.102 1087.95 642.365 C 1089.29 643.064 1089.33 645.567 1089.57 646.85 L 1089.7 647.503 C 1086.75 647.575 1084.26 647.305 1080.45 647.664 C 1075.94 649.298 1083.04 659.944 1073.32 656.514 C 1072.08 655.736 1072.32 651.404 1072.5 650.46 C 1073.4 645.747 1070.8 635.72 1074.11 632.509 z" fill="rgb(239,185,123)" transform="translate(0,0)"></path>
<path d="M 695.148 639.645 C 709.872 640.791 700.626 646.792 706.072 647.796 C 707.795 647.197 708.377 641.351 709.601 640.609 C 713.108 638.482 715.941 639.987 713.844 644.061 C 711.582 648.457 710.136 653.895 708.491 658.496 C 707.373 661.803 702.528 670.593 697.252 664.451 C 695.942 661.182 699.993 660.701 700.984 660.408 C 706.937 658.652 696.587 642.513 695.148 639.645 z" fill="rgb(239,185,123)" transform="translate(0,0)"></path>
<path d="M 159.888 674.727 C 161.347 680.405 161.038 695.865 161.223 702.557 C 157.802 701.027 153.894 699.424 150.403 698.023 C 143.818 695.296 143.431 696.053 148.141 689.984 C 149.697 687.98 151.164 685.819 152.739 683.821 L 159.888 674.727 z" fill="rgb(239,236,231)" transform="translate(0,0)"></path>
<path d="M 980.789 639.209 C 992.026 641.134 991.196 643.109 990.495 656.436 C 990.404 658.18 984.78 656.109 983.475 657 C 981.324 658.468 977.406 657.603 974.963 657.215 C 973.096 651.261 973.249 648.179 980.485 646.879 C 980.979 646.791 986.297 646.647 984.307 644.682 C 982.249 642.456 978.398 645.223 977.01 644.745 C 970.986 642.67 979.584 639.62 980.789 639.209 z" fill="rgb(239,185,123)" transform="translate(0,0)"></path>
<path d="M 980.347 650.432 C 981.014 649.518 982.252 649.235 983.251 649.767 C 984.249 650.3 984.703 651.486 984.316 652.549 C 984.012 653.384 983.249 653.964 982.364 654.036 C 981.479 654.107 980.633 653.656 980.199 652.881 C 979.766 652.106 979.823 651.149 980.347 650.432 z" fill="rgb(7,9,9)" transform="translate(0,0)"></path>
<path d="M 164.969 673.961 C 168.55 677.85 171.891 681.746 175.227 685.813 C 181.778 693.8 181.869 692.356 173.7 697.657 C 170.688 699.459 168.337 700.938 165.181 702.672 C 165.046 697.399 164.222 678.071 164.969 673.961 z" fill="rgb(239,185,123)" transform="translate(0,0)"></path>
<path d="M 317.45 661.685 C 319.118 666.892 320.067 672.3 321.268 677.647 C 318.82 684.589 316.577 691.496 313.675 698.303 C 311.955 691.786 310.264 678.061 309.618 671.245 C 312.327 667.88 314.572 664.971 317.45 661.685 z" fill="rgb(239,236,231)" transform="translate(0,0)"></path>
<path d="M 939.967 639.012 C 945.564 639.92 950.765 641.227 950.093 648.624 C 949.752 652.374 935.94 647.865 939.064 652.603 C 940.785 655.213 944.762 652.718 948.76 652.96 C 947.248 666.521 917.995 650.469 939.967 639.012 z" fill="rgb(239,185,123)" transform="translate(0,0)"></path>
<path d="M 939.824 644.88 C 943.044 643.027 943.278 643.676 944.463 646.899 C 942.014 646.832 937.275 647.967 939.824 644.88 z" fill="rgb(7,9,9)" transform="translate(0,0)"></path>
<path d="M 1287 638.954 C 1290.1 639.363 1299.65 640.695 1297.74 649.037 C 1297.25 651.2 1289.61 649.152 1286.51 650.479 C 1286.57 651.248 1286.96 651.955 1287.57 652.427 C 1289.76 654.153 1293.29 652.962 1296.77 652.782 C 1292.17 666.009 1268.17 650.404 1287 638.954 z" fill="rgb(239,185,123)" transform="translate(0,0)"></path>
<path d="M 1287.17 642.634 C 1289.36 643.13 1293.57 643.379 1289.68 645.421 C 1285.96 646.22 1286.14 646.086 1287.17 642.634 z" fill="rgb(7,9,9)" transform="translate(0,0)"></path>
<path d="M 768.693 656.815 C 764.491 658.037 759.343 658.85 758.706 653.006 C 757.803 644.735 769.838 648.55 769.426 644.793 C 768.994 644.187 768.545 643.958 767.879 643.638 L 767.827 643.56 C 765.168 643.862 762.109 645.535 759.833 643.958 L 760.003 642.74 C 764.131 637.598 775.388 639.196 775.222 645.973 C 775.046 653.177 778.299 658.017 769.882 656.871 L 768.693 656.815 z" fill="rgb(239,185,123)" transform="translate(0,0)"></path>
<path d="M 765.94 654.145 C 761.82 650.386 767.79 647.416 771.047 652.54 C 769.283 653.233 767.753 653.635 765.94 654.145 z" fill="rgb(7,9,9)" transform="translate(0,0)"></path>
<path d="M 765.94 654.145 C 767.753 653.635 769.283 653.233 771.047 652.54 L 769.882 656.871 L 768.693 656.815 C 767.575 655.393 767.499 654.979 765.94 654.145 z" fill="rgb(239,185,123)" transform="translate(0,0)"></path>
<path d="M 1362 639.843 C 1368.43 639.807 1373.1 639.803 1374.26 647.586 C 1375.21 653.875 1358.93 647.641 1363.98 653.189 C 1365.15 654.484 1370.58 652.84 1372.47 652.584 C 1373.57 663.916 1344.26 655.822 1362 639.843 z" fill="rgb(239,185,123)" transform="translate(0,0)"></path>
<path d="M 1364.28 644.969 C 1367.01 643.103 1367.2 644.052 1368.15 646.858 C 1367.2 646.885 1363.36 647.33 1362.82 646.624 C 1362.75 645.918 1363.82 645.357 1364.28 644.969 z" fill="rgb(7,9,9)" transform="translate(0,0)"></path>
<path d="M 1013.82 649.798 C 1003.33 642.786 1021.18 635.025 1025.11 642.094 C 1024.87 643.072 1024.4 643.961 1024.2 644.955 L 1024.09 645.492 L 1023.58 647.538 C 1033.89 657.305 1013.01 660.01 1010.85 654.989 C 1010.62 654.429 1010.67 653.791 1010.99 653.277 C 1011.43 652.699 1011.83 652.09 1012.24 651.49 C 1012.8 650.91 1013.29 650.412 1013.82 649.798 z" fill="rgb(239,185,123)" transform="translate(0,0)"></path>
<path d="M 1023.58 647.538 C 1015.13 646.532 1013.24 642.625 1024.09 645.492 L 1023.58 647.538 z" fill="rgb(22,22,22)" transform="translate(0,0)"></path>
<path d="M 1013.82 649.798 C 1022.99 652.456 1020.28 653.862 1012.24 651.49 C 1012.8 650.91 1013.29 650.412 1013.82 649.798 z" fill="rgb(22,22,22)" transform="translate(0,0)"></path>
<path d="M 907.908 639.566 C 913.83 640.445 912.195 641.844 918.026 639.725 C 925.606 639.051 924.183 644.564 924.964 647.543 C 927.857 658.59 917.639 659.799 919.661 653.677 L 919.826 653.19 C 919.661 650.833 920.179 642.979 916.095 644.322 C 910.898 646.031 918.188 660.749 908.233 656.37 C 907.502 656.048 907.899 641.036 907.908 639.566 z" fill="rgb(239,185,123)" transform="translate(0,0)"></path>
<path d="M 1384.41 650.133 C 1379.39 648.208 1379.9 642.505 1383.99 640.518 C 1387.13 638.999 1396.24 638.822 1392.74 644.924 L 1392.09 647.413 C 1408.19 655.804 1372.67 663.461 1382.25 652.38 C 1383.01 651.613 1383.69 650.947 1384.41 650.133 z" fill="rgb(239,185,123)" transform="translate(0,0)"></path>
<path d="M 1392.09 647.413 C 1390.65 647.109 1386.58 646.719 1386.68 644.737 C 1387.97 643.441 1390.97 644.684 1392.74 644.924 L 1392.09 647.413 z" fill="rgb(22,22,22)" transform="translate(0,0)"></path>
<path d="M 1384.41 650.133 C 1393.4 653.746 1389.13 654.014 1382.25 652.38 C 1383.01 651.613 1383.69 650.947 1384.41 650.133 z" fill="rgb(53,42,27)" transform="translate(0,0)"></path>
<path d="M 797.233 649.539 C 790.402 637.251 808.722 637.923 809.926 642.81 C 806.171 647.082 802.096 641.152 801.009 644.703 C 803.014 647.336 811.558 646.176 810.774 652.521 C 809.994 658.837 793.337 661.466 796.408 651.264 L 797.233 649.539 z" fill="rgb(239,185,123)" transform="translate(0,0)"></path>
<path d="M 797.233 649.539 C 807.812 652.264 805.011 654.168 796.408 651.264 L 797.233 649.539 z" fill="rgb(53,42,27)" transform="translate(0,0)"></path>
<path d="M 2.17999 771.953 C 12.3806 773.831 12.952 774.947 22.379 779.192 C 19.5473 781.698 18.6839 782.354 15.6842 784.608 C 12.4018 786.834 9.06801 788.983 5.68546 791.054 C 4.21553 785.156 1.92825 777.954 2.17999 771.953 z" fill="rgb(98,120,136)" transform="translate(0,0)"></path>
<path d="M 102.003 788.719 C 105.51 790.139 118.721 814.637 117.916 815.649 C 116.902 815.728 115.906 814.773 115.105 814.24 C 108.825 808.505 100.369 800.569 93.8517 795.389 C 96.5732 793.048 99.2131 790.962 102.003 788.719 z" fill="rgb(239,236,231)" transform="translate(0,0)"></path>
<path d="M 1144.17 649.905 C 1135.07 640.283 1150.78 636.935 1155.3 641.439 L 1155.4 642.437 C 1151.58 646.011 1148.19 641.764 1147.2 644.684 C 1148.52 647.1 1158.17 646.679 1156.33 653.497 C 1154.69 659.547 1138.37 659.644 1142.21 651.316 L 1144.17 649.905 z" fill="rgb(239,185,123)" transform="translate(0,0)"></path>
<path d="M 1144.17 649.905 L 1146.6 650.146 C 1148.07 650.305 1150.76 651.06 1150.31 653.056 C 1148.52 654.956 1144.9 652.158 1142.21 651.316 L 1144.17 649.905 z" fill="rgb(22,22,22)" transform="translate(0,0)"></path>
<path d="M 1132.9 647.322 C 1135.94 649.908 1136.86 651.136 1134.84 654.852 C 1132.06 659.94 1114.52 657.484 1122.68 652.331 C 1124.11 651.428 1128.51 656.028 1129.75 652.435 C 1128.83 649.548 1118.54 651.141 1120.88 643.485 C 1122.53 638.085 1136.48 637.14 1133.34 644.858 L 1132.9 647.322 z" fill="rgb(239,185,123)" transform="translate(0,0)"></path>
<path d="M 1132.9 647.322 C 1131.43 647.062 1126.83 646.623 1126.76 644.695 C 1127.89 643.333 1131.07 644.522 1132.54 644.745 L 1133.34 644.858 L 1132.9 647.322 z" fill="rgb(22,22,22)" transform="translate(0,0)"></path>
<path d="M 1201.05 647.383 C 1214.24 654.618 1190.64 662.179 1189.35 654.991 C 1188.42 649.812 1196.14 655.027 1198.37 653.224 C 1198.55 652.747 1198.6 652.779 1198.54 652.361 C 1196.66 650.238 1187.08 649.888 1190.46 642.443 C 1192.34 638.297 1202.18 638.908 1204.36 642.36 C 1204.61 642.75 1202.36 645.526 1202.08 645.941 L 1201.05 647.383 z" fill="rgb(239,185,123)" transform="translate(0,0)"></path>
<path d="M 1201.05 647.383 C 1193.39 645.396 1192.94 641.313 1202.08 645.941 L 1201.05 647.383 z" fill="rgb(22,22,22)" transform="translate(0,0)"></path>
<path d="M 732.817 647.15 C 741.636 656.547 726.154 659.806 722.417 656.494 C 715.513 650.375 727.786 653.849 729.205 652.386 C 729.737 649.877 718.141 649.53 720.962 642.829 C 723.092 637.767 738.842 638.802 732.701 644.931 L 732.817 647.15 z" fill="rgb(239,185,123)" transform="translate(0,0)"></path>
<path d="M 732.817 647.15 C 731.642 646.859 726.115 646.106 726.577 644.268 C 726.646 643.983 726.83 643.738 727.085 643.592 C 728.491 642.795 731.358 644.409 732.701 644.931 L 732.817 647.15 z" fill="rgb(22,22,22)" transform="translate(0,0)"></path>
<path d="M 744.636 635.315 C 751.038 633.493 745.677 638.874 750.489 639.9 C 757.191 641.33 750.31 644.677 748.766 644.856 C 747.645 644.985 747.371 652.288 750.041 652.553 C 752.322 652.779 753.47 653.646 755.299 655.632 C 744.37 661.324 742.258 653.251 742.699 645.062 C 742.728 644.516 737.474 642.771 739.217 641.341 C 742.644 638.532 742.439 639.308 744.636 635.315 z" fill="rgb(239,185,123)" transform="translate(0,0)"></path>
<path d="M 338.77 766.982 C 346.729 767.093 354.688 767.102 362.647 767.008 C 360.115 769.672 357.872 771.979 355.22 774.534 C 352.699 776.886 350.133 779.19 347.525 781.445 C 344.312 775.286 342.483 772.663 338.77 766.982 z" fill="rgb(144,160,176)" transform="translate(0,0)"></path>
<path d="M 997.959 629.672 C 998.764 629.762 1003.63 629.959 1003.71 630.655 C 1004.63 638.349 1004.12 650.166 1004.13 657.618 C 1002.73 657.441 998.716 657.215 998.569 656.693 C 997.497 652.883 997.962 633.202 997.959 629.672 z" fill="rgb(239,185,123)" transform="translate(0,0)"></path>
<path d="M 783.47 629.619 C 790.244 631.09 788.846 630.521 788.855 638.106 C 788.863 644.634 788.936 651.205 788.68 657.73 C 787.75 657.545 783.627 656.947 783.518 656.361 C 782.609 651.489 782.878 633.9 783.47 629.619 z" fill="rgb(239,185,123)" transform="translate(0,0)"></path>
<path d="M 1176.7 630.089 C 1183.26 631.85 1182.51 630.367 1182.4 637.736 C 1182.29 644.45 1182.32 651.323 1182.36 658.046 C 1174.87 656.007 1176.93 657.05 1176.76 648.507 C 1176.63 642.398 1176.77 636.207 1176.7 630.089 z" fill="rgb(239,185,123)" transform="translate(0,0)"></path>
<path d="M 678.249 639.557 C 682.618 640.098 686.028 641.26 690.05 639.894 C 691.544 639.387 692.547 645.14 688.527 645.246 C 685.857 645.316 684.578 645.884 685.214 648.834 C 685.007 650.665 685.2 656.433 683.036 656.684 C 679.858 657.052 678.199 656.43 678.248 653.076 C 678.323 648.57 678.323 644.063 678.249 639.557 z" fill="rgb(239,185,123)" transform="translate(0,0)"></path>
<path d="M 957.198 639.295 C 960.036 639.849 963.328 641.947 965.367 640.726 C 965.989 640.121 968.029 639.549 968.216 640.988 C 969.116 647.915 962.732 642.559 962.918 648.785 C 962.875 649.422 963.784 661.62 957.356 655.964 C 956.563 655.267 957.066 641.688 957.198 639.295 z" fill="rgb(239,185,123)" transform="translate(0,0)"></path>
<path d="M 414.793 680.985 C 419.128 685.838 394.837 701.454 391.09 703.941 C 388.658 701.202 411.329 683.54 414.793 680.985 z" fill="rgb(239,185,123)" transform="translate(0,0)"></path>
<path d="M 1223.86 641.477 C 1226.6 640.122 1229.92 641.229 1231.3 643.957 C 1232.68 646.685 1231.61 650.017 1228.89 651.423 C 1226.14 652.848 1222.76 651.755 1221.36 648.99 C 1219.96 646.225 1221.08 642.85 1223.86 641.477 z" fill="rgb(239,185,123)" transform="translate(0,0)"></path>
<path d="M 1163.2 639.27 C 1169.67 640.518 1168.81 639.808 1168.8 646.708 C 1168.8 650.379 1168.78 654.051 1168.63 657.736 C 1161.71 656.428 1163.14 657.297 1162.98 649.961 C 1162.9 646.367 1162.98 642.872 1163.2 639.27 z" fill="rgb(239,185,123)" transform="translate(0,0)"></path>
<path d="M 830.128 641.426 C 831.923 640.599 834.025 640.804 835.627 641.962 C 837.229 643.121 838.081 645.053 837.857 647.017 C 837.634 648.981 836.368 650.672 834.547 651.441 C 831.794 652.603 828.617 651.341 827.411 648.607 C 826.204 645.873 827.414 642.676 830.128 641.426 z" fill="rgb(239,185,123)" transform="translate(0,0)"></path>
<path d="M 894.442 639.329 C 900.963 640.86 899.829 639.935 899.952 647.189 C 900.012 650.745 899.937 654.17 899.724 657.732 C 893.271 656.379 894.203 656.439 894.209 649.615 C 894.212 646.181 894.276 642.775 894.442 639.329 z" fill="rgb(239,185,123)" transform="translate(0,0)"></path>
<path d="M 1046.49 641.518 C 1048.28 640.631 1050.42 640.82 1052.03 642.007 C 1053.63 643.195 1054.44 645.182 1054.12 647.154 C 1053.8 649.127 1052.4 650.755 1050.5 651.371 C 1047.84 652.231 1044.97 650.895 1043.92 648.308 C 1042.86 645.72 1043.99 642.759 1046.49 641.518 z" fill="rgb(239,185,123)" transform="translate(0,0)"></path>
<path d="M 21.0439 763.894 C 24.7795 764.252 22.5646 770.359 22.8822 773.525 C 23.341 778.099 16.8412 773.274 15.5021 772.598 C 5.45212 768.479 14.1245 767.625 21.0439 763.894 z" fill="rgb(98,120,136)" transform="translate(0,0)"></path>
<path d="M 295.302 732.543 C 297.538 734.446 303.197 741.086 302.755 744.1 C 290.671 744.541 292.159 745.068 295.302 732.543 z" fill="rgb(144,160,176)" transform="translate(0,0)"></path>
<path d="M 131.21 724.48 C 141.996 723.237 140.823 722.778 137.134 733.078 C 136.592 733.48 136.806 733.382 136.465 733.482 C 134.674 733.062 131.531 726.531 131.21 724.48 z" fill="rgb(239,236,231)" transform="translate(0,0)"></path>
<path d="M 289.344 731.846 C 292.648 732.45 290.047 740.679 287.747 742.401 C 281.325 735.861 281.303 736.658 289.344 731.846 z" fill="rgb(144,160,176)" transform="translate(0,0)"></path>
<path d="M 83.6169 784.761 C 85.7726 785.089 96.5177 786.258 97.3125 787.642 C 97.276 788.222 96.8939 788.56 96.5121 789.112 C 88.902 793.297 89.8614 791.282 83.6169 784.761 z" fill="rgb(239,236,231)" transform="translate(0,0)"></path>
<path d="M 1365.83 815.523 C 1363.6 816.039 1348.06 817.71 1346.41 817.353 L 1346.14 817.435 L 1345.97 817.285 C 1346.16 817.117 1346.35 816.95 1346.55 816.782 L 1346.52 816.968 C 1347.78 816.305 1360.52 813.666 1362.17 813.476 L 1365.83 815.523 z" fill="rgb(15,51,52)" transform="translate(0,0)"></path>
<path d="M 1164.45 631.501 C 1166.1 630.829 1167.99 631.617 1168.67 633.265 C 1169.36 634.913 1168.58 636.804 1166.94 637.5 C 1165.28 638.202 1163.36 637.418 1162.67 635.753 C 1161.98 634.088 1162.78 632.179 1164.45 631.501 z" fill="rgb(239,185,123)" transform="translate(0,0)"></path>
<path d="M 895.003 631.582 C 896.377 630.484 898.377 630.69 899.497 632.045 C 900.618 633.401 900.444 635.404 899.108 636.547 C 898.223 637.303 897 637.523 895.907 637.123 C 894.814 636.723 894.022 635.765 893.835 634.617 C 893.648 633.468 894.094 632.308 895.003 631.582 z" fill="rgb(239,185,123)" transform="translate(0,0)"></path>
<path d="M 154.641 356.481 C 155.8 355.618 157.859 353.66 159.242 354.345 C 159.5 355.374 156.174 357.557 155.397 358.161 L 154.641 356.481 z" fill="rgb(22,123,113)" transform="translate(0,0)"></path>
<metadata><recraft-signature>{"signed_by": "recraft", "signature_b64": "SPky8FW+W1hWXW5kHEVTxtAvFKlwobVYJBcIkNo9Bs3sAYfNAErqaKVLfx6hOiAcmDh3gLvwa4FWA9WnA9dJCA==", "signing_algo": "Ed25519", "generation_timestamp": 1780247610, "identifier": "17f8d847-cd83-415e-a732-f13dfcdae69e"}</recraft-signature></metadata></svg>