<svg xmlns="http://www.w3.org/2000/svg" height="768" preserveAspectRatio="none" style="display: block;" version="1.1" viewBox="0 0 2048 1024" width="1536">
<path d="M 0 0 L 2048 0 L 2048 1024 L 0 1024 L 0 755.998 L 0 743.269 L 0 692.752 L 0 626.873 L 0 558.795 L 0 479.889 L 0 445.679 L 0 351.597 L 0 341.568 L 0 267.994 L 0 0 z" fill="rgb(39,39,39)" transform="translate(0,0)"></path>
<path d="M 0 479.889 C 44.082 496.588 97.1791 516.307 140.406 534.673 L 164.678 668.502 C 114.223 648.531 61.6718 625.846 11.1626 607.052 C 7.7344 592.117 4.15978 573.002 0 558.795 L 0 479.889 z" fill="rgb(175,174,174)" transform="translate(0,0)"></path>
<path d="M 9.03146 615.057 L 79.7912 643.962 C 70.3067 666.357 61.2767 688.941 52.7068 711.701 C 44.9158 712.564 36.0052 713.765 28.2787 714.311 C 19.4953 707.597 8.86974 698.998 0 692.752 L 0 626.873 C 2.80951 623.306 6.60268 618.768 9.03146 615.057 z" fill="rgb(189,157,88)" transform="translate(0,0)"></path>
<path d="M 0 351.597 C 9.19563 348.632 20.861 344.501 30.0222 342.121 C 44.7689 362.456 59.4332 381.472 74.2782 401.455 C 62.6893 408.769 8.13092 444.581 0 445.679 L 0 351.597 z" fill="rgb(175,174,174)" transform="translate(0,0)"></path>
<path d="M 13.6641 359.791 C 23.9767 360.728 29.4528 360.913 38.1059 367.056 C 37.8851 375.296 37.3843 381.639 36.8567 389.799 C 34.5914 390.54 30.9844 391.728 28.7403 392.188 C 24.2119 393.224 20.066 394.332 15.6039 395.509 C 11.5763 389.633 8.40126 384.025 4.53776 378.336 C 7.1171 373.01 10.827 364.594 13.6641 359.791 z" fill="rgb(252,252,252)" transform="translate(0,0)"></path>
<path d="M 0 267.994 L 48.5028 267.851 C 55.8055 267.797 67.5294 267.186 74.4521 267.683 C 59.8018 289.86 44.266 311.446 29.6768 333.722 C 21.558 335.897 7.81792 339.999 0 341.568 L 0 267.994 z" fill="rgb(189,157,88)" transform="translate(0,0)"></path>
<path d="M 0 743.269 C 18.1856 743.186 32.0648 743.783 50.1434 745.851 L 62.6237 755.684 L 0 755.998 L 0 743.269 z" fill="rgb(189,157,88)" transform="translate(0,0)"></path>
<path d="M 643.501 363.359 C 712.12 357.315 713.929 404.792 711.683 456.43 C 709.778 500.224 721.579 543.152 662.251 551.06 C 589.479 557.5 588.183 514.474 590.606 458.007 C 592.606 411.425 580.324 370.473 643.501 363.359 z" fill="rgb(252,252,252)" transform="translate(0,0)"></path>
<path d="M 644.966 393.136 C 649.297 392.84 653.855 392.411 658.08 393.634 C 661.277 394.56 664.707 396.973 666.15 400.059 C 670.421 409.194 670.156 503.788 666.743 513.922 C 665.293 518.225 662.121 520.248 658.249 522.136 C 653.811 522.751 649.384 523.316 644.999 522.082 C 641.847 521.196 638.048 518.804 636.594 515.753 C 632.563 507.294 632.247 410.088 635.501 401.184 C 637.187 396.571 640.823 395.038 644.966 393.136 z" fill="rgb(39,39,39)" transform="translate(0,0)"></path>
<path d="M 1387.95 363.377 C 1458.47 358.727 1457 403.276 1455.51 456.37 C 1454.32 499.138 1464.46 545.012 1405.25 551.089 C 1335.81 555.878 1332.8 517.808 1335.13 461.317 C 1337.07 414.415 1323.52 370.783 1387.95 363.377 z" fill="rgb(252,252,252)" transform="translate(0,0)"></path>
<path d="M 1395.74 392.323 C 1399 392.645 1402.11 393.12 1404.99 394.78 C 1407.68 396.325 1409.57 398.699 1410.38 401.698 C 1413.43 412.989 1413.95 509.018 1409.35 516.756 C 1406.62 521.352 1401.99 522.227 1397.16 523.393 C 1393.32 523.167 1388.82 523.152 1385.47 521.049 C 1382.59 519.233 1381.3 516.717 1380.59 513.464 C 1377.89 501.14 1376.69 405.545 1381.57 398.52 C 1384.92 393.705 1390.35 393.147 1395.74 392.323 z" fill="rgb(39,39,39)" transform="translate(0,0)"></path>
<path d="M 455.241 366.389 C 503.924 368.148 577.849 350.515 570.95 423.047 C 569.298 440.408 563.374 447.802 547.951 454.599 C 590.383 474.085 557.751 512.11 577.94 548.514 L 532.167 548.17 L 530.166 539.892 C 527.325 526.332 529.192 509.326 529.195 495.361 C 529.2 471.954 517.91 471.621 498.439 471.678 C 498.765 497.121 498.59 522.924 498.612 548.397 C 484.098 548.568 469.583 548.613 455.068 548.532 C 455.039 488.155 454.427 426.677 455.241 366.389 z" fill="rgb(252,252,252)" transform="translate(0,0)"></path>
<path d="M 498.462 395.692 C 524.361 395.491 531.198 396.514 529.22 426.507 C 528.894 431.449 527.174 434.176 524.776 438.331 C 516.844 444.084 508.387 442.779 498.474 442.753 C 498.709 427.067 498.705 411.378 498.462 395.692 z" fill="rgb(39,39,39)" transform="translate(0,0)"></path>
<path d="M 1196.26 366.474 L 1237.34 366.681 C 1237.6 390.192 1237.7 413.704 1237.62 437.216 C 1248.52 437.122 1259.41 437.254 1270.3 437.613 L 1270.14 366.685 L 1313.36 366.708 L 1313.72 548.41 L 1301.5 548.435 L 1270.4 548.227 C 1270.22 521.132 1270.18 494.035 1270.29 466.939 L 1237.71 466.992 L 1237.44 548.357 L 1194.03 548.295 L 1194.07 427.461 C 1194.07 414.234 1193.31 378.799 1194.62 367.646 L 1196.26 366.474 z" fill="rgb(252,252,252)" transform="translate(0,0)"></path>
<path d="M 945.67 366.159 L 990.145 366.375 C 977.394 390.055 964.772 415.112 952.553 439.12 C 965.878 471.659 982.429 515.138 994.047 548.392 C 978.987 548.74 963.161 548.505 948.042 548.505 C 942.579 527.971 930.362 494.904 923.368 473.945 L 912.656 492.735 C 913.513 509.594 912.912 531.126 912.912 548.33 C 898.601 548.59 884.288 548.663 869.975 548.548 L 870.003 366.73 L 912.952 366.733 L 913.056 432.202 L 916.164 431.322 L 945.67 366.159 z" fill="rgb(252,252,252)" transform="translate(0,0)"></path>
<path d="M 913.056 432.202 L 916.164 431.322 C 915.696 432.462 914.456 435.831 913.532 436.323 L 913.35 436.18 C 912.891 435.073 913.039 433.425 913.056 432.202 z" fill="rgb(50,48,48)" transform="translate(0,0)"></path>
<path d="M 1527.16 366.513 C 1528.03 366.488 1528.89 366.474 1529.75 366.47 C 1547.66 366.372 1567.29 367.345 1580.33 381.097 C 1599.35 401.151 1599.4 443.573 1579.1 462.738 C 1562.7 478.214 1541.22 477.02 1520.71 476.935 L 1520.83 527.019 L 1520.82 548.575 C 1506.53 548.685 1492.24 548.633 1477.95 548.419 C 1477.31 487.842 1477.18 427.26 1477.57 366.681 L 1527.16 366.513 z" fill="rgb(252,252,252)" transform="translate(0,0)"></path>
<path d="M 1520.81 395.11 C 1527.76 395.103 1539.29 394.32 1545.11 397.981 C 1556.05 404.863 1553.66 432.911 1547.78 442.3 C 1540.29 448.091 1529.94 446.794 1520.7 446.67 L 1520.81 395.11 z" fill="rgb(39,39,39)" transform="translate(0,0)"></path>
<path d="M 265.479 429.947 C 267.426 435.654 269.944 455.176 270.929 461.852 L 279.589 518.876 C 266.406 538.679 247.363 563.005 233.148 582.96 C 219.815 601.973 206.121 620.732 192.074 639.224 C 186.985 645.992 179.055 657.516 173.397 663.229 C 171.598 661.79 171.522 658.068 171.012 655.236 C 170.338 646.327 166.139 626.464 164.343 616.662 C 159.354 588.794 154.017 560.99 148.331 533.256 L 265.479 429.947 z" fill="rgb(129,129,128)" transform="translate(0,0)"></path>
<path d="M 133.333 374.824 C 135.87 374.765 231.369 413.188 240.514 416.895 C 217.63 436.888 186.608 461.157 165.7 481.659 C 151.191 484.876 135.959 487.179 121.252 489.599 L 110.991 491.334 C 79.2453 478.182 46.561 462.832 15.1462 448.601 C 54.3559 424.93 94.5616 399.315 133.333 374.824 z" fill="rgb(189,157,88)" transform="translate(0,0)"></path>
<path d="M 789.511 363.424 C 790.471 363.416 791.431 363.415 792.391 363.422 C 808.586 363.539 825.26 367.071 836.998 379.149 C 851.629 394.207 850.082 413.117 849.898 432.287 L 806.942 432.136 C 807.005 422.269 809.27 405.884 803.221 397.552 C 801.006 394.502 797.677 392.918 794.02 392.347 C 789.187 391.592 783.856 392.686 779.884 395.599 C 776.809 397.854 775.034 400.843 774.514 404.627 C 772.528 419.062 771.491 511.57 777.114 518.142 C 780.054 521.578 784.621 523.241 789.063 523.322 C 793.627 523.405 798.471 521.7 801.732 518.451 C 810.209 510.006 807.247 489.93 807.116 478.565 L 819.5 478.399 L 849.832 478.233 C 850.159 497.376 851.943 516.493 839.264 533.096 C 821.525 556.324 767.488 556.995 746.887 539.527 C 720.761 517.375 734.432 461.829 730.9 430.969 C 729.216 416.265 732.539 392.307 743.09 381.437 C 755.304 367.185 771.832 364.633 789.511 363.424 z" fill="rgb(252,252,252)" transform="translate(0,0)"></path>
<path d="M 1108.66 363.363 C 1110.87 363.208 1113.08 363.101 1115.29 363.045 C 1156.07 362.081 1172.84 379.112 1173.14 419.632 C 1159.32 419.399 1145.17 419.536 1131.32 419.524 C 1131.46 410.784 1132.73 400.846 1125.51 394.261 C 1119.07 388.388 1109.38 390.987 1104.25 397.31 C 1101.24 400.961 1099.85 405.675 1100.38 410.372 C 1103.52 437.346 1176.15 449.527 1176.45 493.434 C 1176.69 528.19 1166.5 547.255 1129.22 551.125 C 1126.75 551.319 1124.28 551.431 1121.8 551.46 C 1076.2 552.35 1059.97 536.457 1059.25 491.791 L 1100.22 491.749 C 1100.82 500.727 1101 516.578 1108.97 521.288 C 1130.92 534.259 1142.26 502.726 1127.82 487.135 C 1106.31 463.927 1065.8 457.277 1061.9 420.831 C 1058.2 386.173 1073.41 367.45 1108.66 363.363 z" fill="rgb(252,252,252)" transform="translate(0,0)"></path>
<path d="M 402.573 533.721 C 404.855 540.206 387.74 651.251 385.516 666.603 C 366 692.077 335.934 725.077 314.347 750.181 L 298.391 739.809 C 294.714 737.549 290.199 734.266 286.548 731.776 C 292 710.989 299.454 664.11 302.355 643.011 C 334.616 610.014 371.116 568.142 402.573 533.721 z" fill="rgb(153,127,76)" transform="translate(0,0)"></path>
<path d="M 220.98 614.512 C 235.595 618.54 277.171 637.421 293.518 644.124 C 291.097 666.954 282.8 706.149 278.59 729.497 C 267.72 730.145 256.644 730.587 245.751 731.122 C 231.827 731.973 217.631 732.668 203.781 734.145 L 176.41 675.475 C 190.242 655.258 206.316 634.312 220.98 614.512 z" fill="rgb(175,174,174)" transform="translate(0,0)"></path>
<path d="M 230.533 635.211 C 235.257 634.509 242.109 639.227 246.177 641.723 C 245.953 650.965 245.613 654.922 243.698 664.152 C 237.576 665.568 233.446 666.463 227.243 668.395 C 222.171 670.555 215.322 658.452 211.984 654.231 C 214.055 648.638 216.056 643.02 217.988 637.377 C 223.461 636.663 225.141 636.285 230.533 635.211 z" fill="rgb(252,252,252)" transform="translate(0,0)"></path>
<path d="M 83.0023 658.982 C 96.559 661.002 113.879 662.036 127.85 663.303 C 135.165 664.965 159.011 675.234 168.245 678.478 C 173.897 688.667 180.027 702.609 184.458 713.55 C 174.071 727.778 167.353 741.617 158.059 755.904 C 137.155 755.896 108.493 754.984 88.2405 755.933 L 74.756 755.871 C 69.1284 750.69 62.5271 745.518 56.5506 740.65 C 60.343 708.476 70.983 689.023 83.0023 658.982 z" fill="rgb(129,129,128)" transform="translate(0,0)"></path>
<path d="M 83.0023 658.982 C 96.559 661.002 113.879 662.036 127.85 663.303 L 127.018 664.546 C 113.883 665.518 99.3115 665.675 85.9855 666.27 C 80.8501 687.924 72.0992 710.386 65.9882 732.403 C 69.4339 735.63 87.008 751.431 88.8783 754.494 L 88.2405 755.933 L 74.756 755.871 C 69.1284 750.69 62.5271 745.518 56.5506 740.65 C 60.343 708.476 70.983 689.023 83.0023 658.982 z" fill="rgb(252,252,252)" transform="translate(0,0)"></path>
<path d="M 81.0519 272.604 C 99.6227 280.845 129.784 298.01 149.22 307.943 C 146.331 325.243 144.066 351.096 140.415 366.919 C 137.858 368.061 135.164 364.954 133.534 365.449 C 124.772 368.11 107.952 380.196 100.442 385.045 L 81.8632 396.786 C 68.5877 377.769 51.5024 356.636 37.3094 337.868 C 52.3621 315.95 66.3354 294.605 81.0519 272.604 z" fill="rgb(252,252,252)" transform="translate(0,0)"></path>
<path d="M 289.399 520.607 C 311.519 528.412 333.787 535.791 356.191 542.74 C 358.677 549.239 361.564 555.819 364.292 562.241 C 350.842 579.233 324.714 606.088 309.058 623.398 L 307.666 624.461 C 302.881 625.091 244.585 598.231 236.112 594.036 C 252.371 571.256 272.304 541.965 289.399 520.607 z" fill="rgb(252,252,252)" transform="translate(0,0)"></path>
<path d="M 206.437 278.858 C 210.054 280.394 233.07 334.058 236.317 341.058 C 221.431 356.442 207.146 373.501 191.973 388.306 L 183.354 385.055 C 172.367 380.439 160.814 376.071 149.683 371.705 C 150.436 354.624 155.626 327.392 157.371 308.408 C 174.069 299.14 190.435 289.284 206.437 278.858 z" fill="rgb(153,127,76)" transform="translate(0,0)"></path>
<path d="M 242.725 347.228 C 257.992 351.693 295.376 368.609 311.183 375.311 C 296.888 389.999 281.795 403.128 267.658 418.275 C 246.462 410.777 221.58 400.065 200.445 391.586 C 214.825 377.15 228.347 361.339 242.725 347.228 z" fill="rgb(175,174,174)" transform="translate(0,0)"></path>
<path d="M 312.632 395.862 C 314.144 397.476 313.751 468.256 313.908 479.156 C 305.209 488.501 296.693 499.491 287.77 508.336 C 286.183 507.097 286.564 506.39 286.173 503.893 C 282.624 481.662 279.814 459.438 275.543 437.337 C 286.9 423.777 300.688 409.137 312.632 395.862 z" fill="rgb(175,174,174)" transform="translate(0,0)"></path>
<path d="M 1763.6 635.588 C 1775.01 638.412 1794.25 645.169 1806.08 648.839 C 1805.06 660.021 1805 668.877 1804.95 680.062 C 1799.08 685.27 1791.58 690.944 1785.35 695.898 L 1777.33 701.619 C 1771.03 696.3 1747.9 677.062 1745.97 669.965 C 1743.77 661.871 1758.44 643.689 1763.6 635.588 z" fill="rgb(189,157,88)" transform="translate(0,0)"></path>
<path d="M 1796.01 367.868 C 1799.18 367.854 1814.69 376.3 1818.3 378.146 L 1818.29 417.153 C 1813.04 420.246 1795.5 432.088 1790.34 430.146 C 1781.5 423.567 1774.42 419.061 1764.85 413.715 L 1764.87 385.877 C 1775.34 380.03 1785.72 374.026 1796.01 367.868 z" fill="rgb(189,157,88)" transform="translate(0,0)"></path>
<path d="M 1730.31 371.959 C 1731.68 372.083 1754.91 384.335 1758.91 386.047 L 1758.92 413.087 C 1749.13 417.777 1738.95 423.646 1729.39 428.921 C 1720.82 423.687 1707.8 417.159 1698.69 412.281 C 1699.2 402.21 1700.1 392.496 1701.03 382.468 C 1711.28 379.094 1720.38 376.306 1730.31 371.959 z" fill="rgb(252,252,252)" transform="translate(0,0)"></path>
<path d="M 1732.08 434.15 C 1742.38 428.316 1751.93 423.594 1762.55 418.38 C 1771.5 423.806 1780.28 429.502 1788.88 435.46 C 1788.26 443.061 1787.29 452.023 1787.01 459.536 C 1781.96 462.912 1767.08 474.095 1761.91 472.96 C 1757.47 471.348 1748.85 467.135 1744.83 464.523 C 1740.61 462.886 1736.37 461.332 1732.09 459.863 L 1732.08 434.15 z" fill="rgb(189,157,88)" transform="translate(0,0)"></path>
<path d="M 1732.08 434.15 C 1742.38 428.316 1751.93 423.594 1762.55 418.38 C 1771.5 423.806 1780.28 429.502 1788.88 435.46 C 1788.26 443.061 1787.29 452.023 1787.01 459.536 C 1781.96 462.912 1767.08 474.095 1761.91 472.96 C 1763.86 467.636 1779.67 460.073 1784.99 457.405 C 1784.86 450.627 1784.91 443.847 1785.14 437.072 C 1776.1 432.702 1768.81 428.101 1760.35 422.687 C 1751.88 426.405 1744.43 430.487 1736.36 435.063 C 1736.2 443.105 1736.08 451.147 1736.01 459.191 C 1738.5 460.512 1744.01 462.608 1744.83 464.523 C 1740.61 462.886 1736.37 461.332 1732.09 459.863 L 1732.08 434.15 z" fill="rgb(252,252,252)" transform="translate(0,0)"></path>
<path d="M 1833.57 635.903 C 1839.23 635.601 1856.41 647.051 1862.18 650.578 L 1862.31 679.97 C 1852.84 685.566 1846.55 684.266 1835.45 684.265 C 1830.41 685.122 1829.24 685.922 1824.73 688.482 L 1809.88 681.031 C 1810.75 670.751 1810.98 659.639 1811.7 649.184 C 1818.25 644.724 1826.65 640.016 1833.57 635.903 z" fill="rgb(153,127,76)" transform="translate(0,0)"></path>
<path d="M 317.472 486.576 C 339.11 495.077 362.344 506.227 384.578 515.286 C 376.953 520.291 367.697 527.663 360.263 533.252 C 360.109 533.355 359.966 533.479 359.799 533.559 C 355.131 535.818 302.686 516.577 293.733 514.073 C 302.108 504.767 309.626 496.34 317.472 486.576 z" fill="rgb(189,157,88)" transform="translate(0,0)"></path>
<path d="M 1764.48 328.894 C 1768.3 329.683 1788.21 340.919 1792.78 343.414 C 1793.48 349.627 1793.84 355.681 1794.24 361.916 C 1784.86 366.964 1773.76 373.868 1764.42 379.343 L 1763.25 380.116 C 1759.12 380.866 1740.36 370.117 1735.45 367.531 L 1737.22 342.699 C 1745.5 337.933 1755.8 333.167 1764.48 328.894 z" fill="rgb(129,129,128)" transform="translate(0,0)"></path>
<path d="M 1868.15 651.829 C 1869.47 647.626 1880.8 639.824 1884.79 636.87 C 1895.08 640.843 1904.64 646.268 1913.95 649.914 L 1914 679.322 C 1905.77 683.354 1896.73 688.152 1888.53 691.979 C 1882.88 688.846 1873.14 684.083 1868.62 680.255 L 1868.2 677.103 C 1868.03 668.672 1868.29 660.249 1868.15 651.829 z" fill="rgb(129,129,128)" transform="translate(0,0)"></path>
<path d="M 1868.15 651.829 C 1869.47 647.626 1880.8 639.824 1884.79 636.87 C 1895.08 640.843 1904.64 646.268 1913.95 649.914 L 1914 679.322 C 1905.77 683.354 1896.73 688.152 1888.53 691.979 C 1882.88 688.846 1873.14 684.083 1868.62 680.255 L 1868.2 677.103 C 1871.12 675.985 1885.29 686.136 1889 688.424 C 1895.63 684.771 1903.89 680.384 1910.13 676.266 C 1910.04 667.844 1910.06 659.42 1910.19 650.998 C 1897.53 646.275 1898.19 647.605 1885.69 640.349 C 1881.61 643.13 1872.14 650.721 1868.15 651.829 z" fill="rgb(175,174,174)" transform="translate(0,0)"></path>
<path d="M 1930.84 553.924 C 1935.7 553.13 1955.13 565.259 1960.53 568.341 C 1959.6 579.41 1959 590.504 1958.74 601.609 C 1953.94 603.202 1948.91 605.634 1944.27 607.731 C 1935.32 604.94 1927.26 602.517 1918.13 600.205 C 1916.71 587.575 1915.21 574.954 1913.63 562.343 L 1930.84 553.924 z" fill="rgb(129,129,128)" transform="translate(0,0)"></path>
<path d="M 1950.51 507.868 C 1954.67 508.063 1987.19 537.718 1992.48 542.746 C 1987.28 546.871 1979.08 552.217 1973.46 556.137 L 1963.37 563.038 C 1954.29 557.609 1945.06 552.454 1935.67 547.581 C 1935.45 537.653 1935.6 527.341 1935.61 517.381 L 1950.51 507.868 z" fill="rgb(189,157,88)" transform="translate(0,0)"></path>
<path d="M 93.3237 268.353 C 130.011 267.515 169.307 268.518 206.244 268.711 L 186.5 280.947 C 176.053 287.487 164.799 294.888 153.896 300.462 C 138.228 292.996 107.96 277.232 93.3237 268.353 z" fill="rgb(129,129,128)" transform="translate(0,0)"></path>
<path d="M 1841.79 466.485 C 1844.75 463.469 1856.23 470.866 1858.25 472.965 C 1863.17 476.346 1862.18 475.579 1864.97 480.856 C 1864.97 481.754 1864.93 481.96 1864.78 482.867 C 1869.75 490.626 1867.95 488.517 1863.41 497.031 C 1862.74 499.303 1856.75 508.093 1855.05 510.403 C 1851.85 515.291 1849.33 515.034 1844.33 517.409 C 1843.86 517.628 1843.41 517.854 1842.94 518.054 C 1834.5 512.74 1826.56 508.301 1818.06 503.293 C 1818.11 494.331 1817.91 488.908 1818.97 480.054 C 1824.92 475.926 1835.31 469.394 1841.79 466.485 z" fill="rgb(129,129,128)" transform="translate(0,0)"></path>
<path d="M 1841.79 466.485 C 1841.33 468.562 1824.95 480.21 1822.02 482.25 C 1821.89 488.584 1821.84 494.919 1821.88 501.254 C 1831.57 507.34 1832.58 508.334 1842.77 512.945 C 1847.93 511.994 1848.51 510.593 1855.05 510.403 C 1851.85 515.291 1849.33 515.034 1844.33 517.409 C 1843.86 517.628 1843.41 517.854 1842.94 518.054 C 1834.5 512.74 1826.56 508.301 1818.06 503.293 C 1818.11 494.331 1817.91 488.908 1818.97 480.054 C 1824.92 475.926 1835.31 469.394 1841.79 466.485 z" fill="rgb(175,174,174)" transform="translate(0,0)"></path>
<path d="M 1864.78 482.867 C 1869.75 490.626 1867.95 488.517 1863.41 497.031 C 1863.34 493.609 1864.14 486.308 1864.78 482.867 z" fill="rgb(252,252,252)" transform="translate(0,0)"></path>
<path d="M 1864.97 480.856 C 1860.62 478.34 1858.32 478.209 1858.25 472.965 C 1863.17 476.346 1862.18 475.579 1864.97 480.856 z" fill="rgb(175,174,174)" transform="translate(0,0)"></path>
<path d="M 1788.62 465.891 C 1791.97 465.695 1808.9 476.945 1812.99 479.434 L 1812.9 503.223 C 1806.18 508.207 1799.37 512.574 1792.37 517.127 C 1789.48 517.583 1772.71 507.274 1768.83 505.065 C 1768.08 496.764 1767.96 486.729 1767.65 478.283 C 1774.61 474.089 1781.6 469.958 1788.62 465.891 z" fill="rgb(189,157,88)" transform="translate(0,0)"></path>
<path d="M 1942.59 341.162 L 1943.58 341.194 C 1946.91 342.927 1959.67 357.212 1963.06 360.841 L 1962.96 373.379 C 1955.56 378.154 1943.51 384.625 1935.59 389.174 L 1911.57 373.351 L 1912.13 349.727 C 1922.44 346.482 1932.01 343.485 1942.59 341.162 z" fill="rgb(189,157,88)" transform="translate(0,0)"></path>
<path d="M 1879.66 534.859 C 1879.63 530.058 1894.22 513.521 1898.03 508.874 C 1898.76 507.988 1905.37 510.76 1906.72 511.185 C 1912.38 512.173 1923.76 515.845 1929.99 517.423 C 1929.79 526.524 1930.17 535.893 1929.79 544.928 C 1929.37 549.577 1919.37 553.619 1915.21 555.402 C 1909.6 558.495 1905.44 537.212 1892.86 552.53 L 1893.06 552.32 C 1892.57 552.771 1892.53 552.95 1891.99 553.099 C 1889.75 552.459 1881.46 537.381 1879.66 534.859 z" fill="rgb(189,157,88)" transform="translate(0,0)"></path>
<path d="M 1879.66 534.859 C 1879.63 530.058 1894.22 513.521 1898.03 508.874 C 1898.76 507.988 1905.37 510.76 1906.72 511.185 C 1897.75 512.851 1901.18 509.241 1894.59 517.415 C 1890.62 522.346 1884.57 531.5 1879.66 534.859 z" fill="rgb(252,252,252)" transform="translate(0,0)"></path>
<path d="M 1915.21 555.402 C 1916.19 552.578 1926.74 544.131 1929.79 544.928 C 1929.37 549.577 1919.37 553.619 1915.21 555.402 z" fill="rgb(175,174,174)" transform="translate(0,0)"></path>
<path d="M 1963.87 378.84 C 1967.78 378.865 1975.83 382.251 1980.62 383.609 C 1982.81 402.114 1981.84 404.896 1978.7 423.716 C 1975.53 425.641 1972.77 427.468 1969.71 429.547 C 1966.78 427.684 1963.5 425.886 1960.46 424.191 C 1953.39 419.842 1944.98 415.382 1937.55 411.667 C 1937.95 405.566 1938.2 399.52 1938.54 393.418 C 1946.65 388.726 1956.04 383.734 1963.87 378.84 z" fill="rgb(189,157,88)" transform="translate(0,0)"></path>
<path d="M 1914.65 607.018 C 1920.76 606.387 1934.63 611.521 1941.14 613.656 L 1941.03 628.37 C 1937.03 631.126 1933.02 633.852 1928.98 636.546 C 1923.96 639.869 1918.24 644.698 1912.72 643.577 C 1904.38 639 1884.27 633.448 1883.48 624.581 C 1886.28 616.903 1892.39 614.015 1899.23 609.381 C 1906.38 610.686 1907.97 610.072 1914.65 607.018 z" fill="rgb(175,174,174)" transform="translate(0,0)"></path>
<path d="M 1724.79 614.911 C 1731.04 617.172 1745.39 620.516 1751.76 621.756 C 1753.62 625.315 1756.44 629.775 1758.53 633.316 C 1754.69 638.933 1744.74 656.007 1738.82 657.03 C 1737.88 657.184 1733.83 657.763 1733.27 657.741 C 1725.88 657.448 1709.75 640.494 1703.6 634.96 L 1724.79 614.911 z" fill="rgb(175,174,174)" transform="translate(0,0)"></path>
<path d="M 1773.8 604.769 C 1789.1 613.968 1801.83 616.158 1818.77 621.881 C 1820.77 626.409 1823.4 628.419 1826.98 631.753 L 1826.97 633.301 L 1812.28 641.957 C 1812.04 642.119 1811.81 642.29 1811.56 642.442 C 1806.91 645.331 1770.86 632.067 1763.19 630.073 L 1758.03 620.555 L 1773.8 604.769 z" fill="rgb(175,174,174)" transform="translate(0,0)"></path>
<path d="M 1745.28 571 C 1751.44 572.029 1756.17 572.195 1762.81 573.386 C 1764.47 583.422 1764.59 592.293 1769.18 601.248 L 1769.39 601.664 C 1765.93 604.386 1754.22 615.565 1752.64 615.781 C 1743.94 613.682 1735 611.277 1726.34 609.249 C 1726.2 600.024 1726.71 593.311 1727.15 584.173 C 1733.02 579.574 1739.22 575.343 1745.28 571 z" fill="rgb(129,129,128)" transform="translate(0,0)"></path>
<path d="M 276.611 738.463 C 281.956 737.605 299.479 752.145 304.617 755.989 L 228.43 755.778 L 198.227 755.942 L 203.506 742.513 C 227.734 740.907 252.339 739.805 276.611 738.463 z" fill="rgb(153,127,76)" transform="translate(0,0)"></path>
<path d="M 1817.57 303.478 C 1820.51 303.575 1819.35 303.249 1821.99 304.986 C 1823.57 308.827 1822.06 318.141 1821.59 322.778 C 1812.8 327.69 1803.98 332.542 1795.13 337.333 C 1791.1 335.623 1786.61 333.332 1782.61 331.409 C 1768.63 323.979 1760.46 319.594 1776.43 306.325 C 1790.33 304.883 1803.62 304.21 1817.57 303.478 z" fill="rgb(189,157,88)" transform="translate(0,0)"></path>
<path d="M 160.136 491.312 L 162.523 490.991 C 166.318 493.285 167.317 498.993 168.745 503.587 C 160.876 511.108 151.912 518.961 143.794 526.325 L 127.289 520.038 L 112.253 514.213 L 115.56 499.412 C 125.778 496.637 148.827 493.296 160.136 491.312 z" fill="rgb(252,252,252)" transform="translate(0,0)"></path>
<path d="M 1700.7 572.828 C 1705.08 573.412 1716.98 582.865 1720.77 585.731 C 1720.64 593.935 1720.23 602.458 1719.95 610.687 C 1715.9 615.317 1710.79 619.999 1706.33 624.304 L 1699.74 630.145 L 1691.84 623.743 C 1692.1 610.151 1691.87 593.947 1693.81 580.583 C 1694.48 575.953 1697.15 575.072 1700.7 572.828 z" fill="rgb(175,174,174)" transform="translate(0,0)"></path>
<path d="M 1801.64 690.677 C 1808.39 691.485 1811.85 692.995 1818.05 695.436 C 1818.15 701.383 1819.79 727.901 1816.39 732.717 C 1815.18 734.427 1801.39 733.313 1797.75 733.182 C 1795.96 733.143 1792.54 733.666 1791.72 731.635 C 1788.31 723.073 1784.29 714.782 1780.51 706.379 C 1788.25 700.918 1794.26 696.679 1801.64 690.677 z" fill="rgb(252,252,252)" transform="translate(0,0)"></path>
<path d="M 1897.28 310.845 C 1912.42 313.348 1928.22 325.598 1938.78 336.199 L 1912.47 343.936 L 1909.55 344.534 C 1904.35 342.266 1897.17 336.862 1892.3 333.44 C 1883.91 333.051 1877.86 334.68 1871.21 329.53 L 1870.95 326.707 C 1875.29 320.573 1889.91 314.556 1897.28 310.845 z" fill="rgb(175,174,174)" transform="translate(0,0)"></path>
<path d="M 1866.2 339.369 C 1874.01 338.987 1881.95 338.86 1889.8 338.59 C 1895.39 342.136 1900.81 345.96 1906.02 350.048 C 1906.01 355.427 1908.14 370.217 1902.77 371.1 C 1893.55 372.612 1884.6 373.82 1875.27 374.348 C 1871.81 369.859 1868.92 365.435 1865.33 360.809 C 1865.44 353.656 1865.73 346.507 1866.2 339.369 z" fill="rgb(175,174,174)" transform="translate(0,0)"></path>
<path d="M 1990.78 550.81 C 1991.85 556.694 1987.21 610.934 1986.56 620.851 C 1983.32 618.462 1979.27 614.896 1976.09 612.257 L 1964.86 602.532 C 1965.04 591.418 1966.06 578.816 1966.93 567.717 L 1990.78 550.81 z" fill="rgb(175,174,174)" transform="translate(0,0)"></path>
<path d="M 1822.55 328.84 C 1826.03 328.487 1846.38 344.415 1846.82 345.637 C 1853.64 364.678 1826.6 346.723 1821.02 364.47 C 1820.54 365.866 1819.26 370.347 1818.33 371.089 C 1816.51 371.268 1802.58 363.449 1800.04 362.074 C 1799.41 355.025 1799.04 349.442 1798.67 342.363 C 1806.54 337.696 1814.5 333.187 1822.55 328.84 z" fill="rgb(175,174,174)" transform="translate(0,0)"></path>
<path d="M 1910.16 472.827 C 1913.36 472.759 1943.4 499.077 1947.65 502.654 C 1943.07 505.666 1935.91 511.064 1930.79 510.994 C 1919.74 508.541 1908.98 505.437 1898.08 502.395 L 1891.03 483.654 C 1897.23 480.456 1904.05 476.338 1910.16 472.827 z" fill="rgb(175,174,174)" transform="translate(0,0)"></path>
<path d="M 1887.6 439.923 C 1891.81 442.219 1905.9 460.768 1907.99 467.821 C 1901.43 471.532 1894.56 475.526 1887.77 478.783 C 1883.63 480.767 1883.05 480.614 1879.45 479.239 C 1872.59 474.574 1863.46 469.846 1858.05 466.016 C 1858.85 461.345 1869.4 457.374 1870.55 450.372 C 1871.23 446.15 1882.96 441.976 1887.6 439.923 z" fill="rgb(175,174,174)" transform="translate(0,0)"></path>
<path d="M 1818.02 424.894 C 1818.68 427.928 1818.16 442.364 1818.23 446.843 C 1824.39 454.987 1827.06 457.484 1835.37 463.004 C 1831.17 465.478 1817.47 475.131 1813.97 473.138 C 1807.13 468.962 1800.13 465.028 1793.24 460.788 C 1794.03 453.423 1794.72 444.078 1795.29 436.59 C 1802.37 433.1 1811.27 428.751 1818.02 424.894 z" fill="rgb(175,174,174)" transform="translate(0,0)"></path>
<path d="M 1943.58 633.778 C 1946.67 633.455 1961.41 642.236 1964.89 644.197 C 1954.37 653.489 1943.46 661.655 1933.07 670.702 L 1919.65 682.427 C 1919.32 671.414 1919.54 660.091 1919.45 649.033 C 1927.67 644.044 1935.5 638.944 1943.58 633.778 z" fill="rgb(189,157,88)" transform="translate(0,0)"></path>
<path d="M 1794.63 267.216 C 1802.88 267.091 1811.14 267.049 1819.39 267.092 C 1821.48 273.111 1822.86 279.07 1824.9 284.824 C 1823.84 287.791 1821 296.261 1818.81 297.841 C 1809.37 298.158 1800.31 298.908 1790.77 299.216 C 1789.71 296.609 1788.25 292.82 1787.26 290.156 C 1789.85 281.275 1791.45 276.03 1794.63 267.216 z" fill="rgb(175,174,174)" transform="translate(0,0)"></path>
<path d="M 1885.97 567.312 C 1886.33 567.279 1888.61 567.016 1888.65 567.504 C 1889.27 576.014 1887.83 586.633 1887.62 595.255 C 1890.13 599.478 1891.54 601.515 1894.5 605.551 C 1891.39 608.153 1883.87 614.16 1880.57 616.326 C 1876.35 613.494 1873.44 611.992 1869 609.743 C 1869.07 596.709 1869.07 583.674 1868.99 570.639 C 1874.62 569.533 1880.35 568.348 1885.97 567.312 z" fill="rgb(189,157,88)" transform="translate(0,0)"></path>
<path d="M 1815.52 508.839 C 1818.09 509.215 1837.02 520.309 1840.66 522.348 C 1818.54 527.424 1823.46 528.445 1820.51 547.755 C 1813.12 548.122 1809.84 550.333 1808.51 542.793 C 1807.3 536.189 1791.47 530.101 1794.12 523.415 C 1795.17 520.79 1811.71 511.427 1815.52 508.839 z" fill="rgb(189,157,88)" transform="translate(0,0)"></path>
<path d="M 1844.17 306.085 C 1844.42 306.117 1845.47 306.126 1845.59 306.27 C 1851.95 313.755 1873.8 321.637 1865.81 333.633 C 1865.87 333.546 1852.86 339.614 1851.3 340.366 C 1846.84 338.949 1832.01 327.242 1827.69 323.685 C 1827.78 319.457 1827.9 315.23 1828.07 311.004 L 1844.17 306.085 z" fill="rgb(153,127,76)" transform="translate(0,0)"></path>
<path d="M 1876.35 485.495 C 1880.45 487.291 1881.09 486.308 1885.2 486.361 C 1887.87 492.948 1890.18 498.354 1893.07 504.86 C 1887.26 513.452 1882.68 519.625 1875.56 527.232 C 1869.65 524.106 1863.39 521.513 1857.26 518.185 C 1863.92 507.515 1869.91 495.571 1876.35 485.495 z" fill="rgb(252,252,252)" transform="translate(0,0)"></path>
<path d="M 1885.51 700.914 C 1890.06 703.208 1895.43 705.328 1900.23 707.702 C 1897.75 714.637 1894.91 726.395 1891.52 733.163 C 1890.99 734.237 1887.57 733.942 1886.25 733.952 C 1875.36 733.922 1877.23 735.455 1869.01 728.357 L 1868.74 710.197 C 1874.37 707.379 1879.88 703.95 1885.51 700.914 z" fill="rgb(252,252,252)" transform="translate(0,0)"></path>
<path d="M 1868.45 394.481 C 1875.01 399.755 1882.81 406.434 1889.16 411.928 C 1888.69 420.685 1890.14 431.171 1882.62 435.856 L 1868.07 442.964 C 1868.29 426.878 1868.11 410.427 1868.45 394.481 z" fill="rgb(129,129,128)" transform="translate(0,0)"></path>
<path d="M 1958.41 607.947 C 1962.21 607.497 1979.6 623.266 1983.84 626.764 L 1970.74 638.146 C 1967.22 640.07 1951.12 629.842 1946.98 627.586 L 1947.04 612.477 C 1950.83 610.897 1954.58 609.573 1958.41 607.947 z" fill="rgb(175,174,174)" transform="translate(0,0)"></path>
<path d="M 1697.66 419.258 C 1703.36 421.246 1719.43 430.765 1725.97 434.059 C 1725.98 443.244 1726.37 454.811 1725.77 463.725 C 1721.45 463.876 1709.57 453.515 1708.04 450.453 C 1703.44 441.292 1700.78 429.22 1697.66 419.258 z" fill="rgb(175,174,174)" transform="translate(0,0)"></path>
<path d="M 850.538 606.054 C 850.449 607.077 852.061 624.466 842.843 618.402 C 841.644 617.613 842.655 598.187 842.384 595.444 C 842.181 591.363 852.151 592.93 852.674 594.124 C 854.513 598.321 855.925 603.042 857.619 607.413 C 858.796 604.204 861 596.313 863.608 594.065 C 864.814 593.438 872.715 592.953 872.807 594.532 C 873.25 602.162 873.635 610.897 872.743 618.409 C 872.666 619.054 866.725 619.667 865.963 619.788 C 863.651 614.039 866.989 614.211 863.658 609.062 C 856.964 627.41 856.176 619.47 850.538 606.054 z" fill="rgb(252,252,252)" transform="translate(0,0)"></path>
<path d="M 863.658 609.062 C 863.983 607.907 864.303 606.11 865.379 605.476 C 866.418 606.074 865.992 617.954 865.963 619.788 C 863.651 614.039 866.989 614.211 863.658 609.062 z" fill="rgb(77,75,73)" transform="translate(0,0)"></path>
<path d="M 1871.43 267.012 L 1891.77 267.073 C 1893.75 271.874 1896.15 277.579 1898.03 282.345 C 1894.96 286.033 1893.44 287.708 1890.02 291.053 C 1882.04 297.678 1877 292.587 1867.79 288.969 C 1868.55 280.169 1869.42 275.554 1871.43 267.012 z" fill="rgb(252,252,252)" transform="translate(0,0)"></path>
<path d="M 1300.11 604.038 C 1300.49 611.53 1301.74 616.779 1292.99 619.113 C 1272.81 624.518 1265.06 595.97 1286.5 592.932 C 1291.21 592.264 1298.35 594.184 1298.61 599.905 C 1299.06 601.323 1299.58 602.651 1300.11 604.038 z" fill="rgb(252,252,252)" transform="translate(0,0)"></path>
<path d="M 1287.07 603.762 C 1287.2 605.235 1287.11 607.539 1287.5 608.856 C 1287.95 610.413 1291.5 610.051 1292.45 610.937 C 1292.98 611.429 1292.11 612.446 1291.67 612.624 C 1288.73 613.823 1284.4 612.975 1282.77 610.063 C 1281 606.907 1281.59 602.307 1284.99 600.556 C 1287.66 599.18 1290.24 600.054 1292.88 600.908 C 1290.28 602.69 1289.92 602.737 1287.07 603.762 z" fill="rgb(39,39,39)" transform="translate(0,0)"></path>
<path d="M 1292.88 600.908 C 1295.43 602.277 1295.71 601.396 1298.04 600.192 L 1298.61 599.905 C 1299.06 601.323 1299.58 602.651 1300.11 604.038 C 1295.59 603.976 1291.6 604.014 1287.07 603.762 C 1289.92 602.737 1290.28 602.69 1292.88 600.908 z" fill="rgb(50,48,48)" transform="translate(0,0)"></path>
<path d="M 1866.02 295.094 C 1869.11 295.983 1880.79 299.916 1882.98 300.033 C 1891.39 300.48 1887.88 295.295 1894.28 306.452 C 1888.74 309.138 1883.68 311.508 1878.06 314.025 C 1875.46 315.284 1872.5 316.567 1869.85 317.765 C 1863.18 312.809 1858.26 308.772 1851.98 303.263 C 1857.17 300.44 1860.94 298.252 1866.02 295.094 z" fill="rgb(175,174,174)" transform="translate(0,0)"></path>
<path d="M 1868.72 614.943 C 1871.63 616.773 1874.57 618.385 1877.47 620.21 C 1877.94 624.449 1878.05 628.513 1878.31 632.754 C 1872.48 636.897 1869.01 639.529 1863.44 644.208 C 1860.35 642.402 1857.01 640.65 1853.86 638.893 C 1849.57 636.339 1844.55 633.799 1839.92 631.116 L 1839.27 630.748 L 1854.94 629.952 C 1859.34 626.644 1864.75 623.164 1867.22 618.043 L 1868.72 614.943 z" fill="rgb(129,129,128)" transform="translate(0,0)"></path>
<path d="M 1730.64 466.347 C 1737.4 467.709 1754.63 476.542 1761.99 479.878 C 1762.02 482.841 1763.02 500.715 1762.32 501.56 C 1761.93 501.67 1762.2 501.624 1761.38 501.632 C 1757.95 498.757 1727.94 471.166 1727.33 469.501 C 1727.54 468.435 1729.82 467.005 1730.64 466.347 z" fill="rgb(129,129,128)" transform="translate(0,0)"></path>
<path d="M 188.317 724.67 C 190.366 726.91 194.45 735.62 196.208 738.976 C 193.719 744.712 191.632 750.298 189.317 756.038 L 175.75 756.074 C 174.218 756.091 169.838 756.561 169.01 755.243 C 169.048 754.727 186.681 727.131 188.317 724.67 z" fill="rgb(129,129,128)" transform="translate(0,0)"></path>
<path d="M 1807.98 585.676 C 1812.36 586.919 1815.9 587.732 1820.26 588.78 C 1820.32 594.306 1820.29 599.832 1820.18 605.357 C 1816.65 611.035 1816.97 615.163 1810.37 612.927 C 1804.55 611.165 1800.62 610.04 1794.7 608.575 C 1803.33 599.993 1805.3 597.068 1807.98 585.676 z" fill="rgb(189,157,88)" transform="translate(0,0)"></path>
<path d="M 1371.67 592.711 C 1372.96 592.83 1378.84 592.719 1378.46 594.349 C 1377.54 598.221 1382.4 622.298 1374.46 619.101 C 1370.32 617.435 1368.95 618.965 1364.13 620.087 C 1363.67 619.756 1363.22 619.424 1362.76 619.093 C 1352.56 613.094 1357.61 596.988 1370.04 600.662 C 1370.28 600.732 1371.2 600.717 1371.45 600.512 C 1371.81 599.391 1371.65 594.186 1371.67 592.711 z" fill="rgb(252,252,252)" transform="translate(0,0)"></path>
<path d="M 1366.43 606.661 C 1368.22 605.703 1370.45 606.311 1371.51 608.047 C 1372.57 609.784 1372.1 612.045 1370.42 613.203 C 1369.25 614.014 1367.73 614.11 1366.47 613.452 C 1365.2 612.794 1364.41 611.491 1364.4 610.067 C 1364.39 608.643 1365.17 607.331 1366.43 606.661 z" fill="rgb(39,39,39)" transform="translate(0,0)"></path>
<path d="M 1704.24 562.148 C 1713.15 561.632 1733.32 561.795 1742.13 562.152 C 1741.39 568.881 1729.35 574.855 1723.22 579.643 C 1717.5 575.915 1710.63 571.272 1704.72 567.554 C 1704.03 567.121 1704.27 563.318 1704.24 562.148 z" fill="rgb(189,157,88)" transform="translate(0,0)"></path>
<path d="M 1742.13 562.152 C 1741.39 568.881 1729.35 574.855 1723.22 579.643 C 1717.5 575.915 1710.63 571.272 1704.72 567.554 C 1704.03 567.121 1704.27 563.318 1704.24 562.148 C 1710.77 567.338 1716.45 570.758 1723.45 575.236 C 1731.06 570.49 1735.08 567.314 1742.13 562.152 z" fill="rgb(252,252,252)" transform="translate(0,0)"></path>
<path d="M 628.026 593.062 C 633.77 592.749 639.14 592.532 643.455 597.649 C 643.724 597.967 643.849 598.897 643.566 599.277 C 639.149 605.195 635.262 598.233 629.975 600.689 C 626.46 602.106 625.071 606.572 627.356 609.752 C 631.397 615.378 635.306 611.94 639.318 609.576 C 640.384 610.51 643.981 612.975 643.557 613.972 C 641.874 618.554 632.242 620.926 627.967 619.119 C 613.165 612.862 616.018 599.944 628.026 593.062 z" fill="rgb(252,252,252)" transform="translate(0,0)"></path>
<path d="M 1729.94 345.958 C 1731.69 347.917 1729.62 362.721 1729.26 366.143 C 1717.8 370.101 1710.41 373.527 1698.13 376.696 C 1697.76 376.232 1696.95 375.505 1696.91 374.864 C 1696.81 373.579 1726.39 349.256 1729.94 345.958 z" fill="rgb(129,129,128)" transform="translate(0,0)"></path>
<path d="M 4.20284 708.594 C 9.73529 711.87 17.1698 717.255 22.7805 720.929 C 21.9511 725.26 21.1905 730.166 20.3913 734.618 C 18.0326 735.372 6.21531 734.959 2.8157 734.943 C 3.18797 726.067 3.83873 717.472 4.20284 708.594 z" fill="rgb(129,129,128)" transform="translate(0,0)"></path>
<path d="M 736.982 599.898 C 741.399 600.173 743.589 602.065 746.996 600.272 C 749.483 599.445 752.435 600.706 751.974 603.478 C 750.118 614.638 757.644 619.004 744.661 619.246 C 742.861 617.968 740.613 620.208 738.56 619.539 C 726.352 615.564 729.054 605.797 736.982 599.898 z" fill="rgb(252,252,252)" transform="translate(0,0)"></path>
<path d="M 739.955 606.506 C 741.221 605.814 742.766 605.875 743.973 606.666 C 745.181 607.456 745.855 608.847 745.728 610.284 C 745.6 611.722 744.692 612.972 743.364 613.538 C 741.445 614.356 739.221 613.523 738.311 611.646 C 737.401 609.769 738.124 607.507 739.955 606.506 z" fill="rgb(39,39,39)" transform="translate(0,0)"></path>
<path d="M 384.28 525.923 C 386.581 526.881 388.378 532.381 389.685 535.086 C 383.553 542.066 377.254 548.896 370.792 555.572 C 368.628 551.267 365.918 544.546 364.04 539.903 C 370.596 534.973 377.348 530.309 384.28 525.923 z" fill="rgb(252,252,252)" transform="translate(0,0)"></path>
<path d="M 969.852 599.948 C 972.998 600.463 976.347 602.186 979.053 600.936 C 980.026 600.44 984.08 600.287 983.826 602.043 C 982.126 613.772 990.108 619.453 976.445 618.874 C 974.291 617.902 972.014 619.901 969.996 619.112 C 958.54 614.633 960.987 604.915 969.852 599.948 z" fill="rgb(252,252,252)" transform="translate(0,0)"></path>
<path d="M 971.364 606.725 C 972.527 605.922 974.033 605.806 975.305 606.423 C 976.577 607.04 977.419 608.293 977.509 609.704 C 977.598 611.115 976.922 612.465 975.738 613.238 C 973.941 614.412 971.534 613.923 970.337 612.14 C 969.14 610.358 969.597 607.945 971.364 606.725 z" fill="rgb(39,39,39)" transform="translate(0,0)"></path>
<path d="M 1889.87 378.401 C 1905.01 375.853 1890.06 385.843 1890.47 396.082 C 1890.58 398.911 1890.51 405.528 1886.65 402.197 C 1882.66 399.226 1878.73 396.174 1874.87 393.045 C 1875.34 388.631 1875.79 384.738 1876.14 380.282 C 1881.25 379.445 1884.79 379.063 1889.87 378.401 z" fill="rgb(189,157,88)" transform="translate(0,0)"></path>
<path d="M 1078.05 593.228 C 1080.67 593.235 1096.39 592.461 1097.11 594.523 C 1100.48 604.157 1086.56 597.169 1085.53 601.649 C 1087.78 608.038 1093.91 596.442 1097.47 609.136 C 1093.32 610.052 1089.27 609.279 1086.03 610.549 C 1084.53 612.377 1087.13 618.13 1084.02 618.762 C 1083.1 618.795 1078.44 619.33 1078.31 617.902 C 1077.62 610.255 1077.82 600.861 1078.05 593.228 z" fill="rgb(252,252,252)" transform="translate(0,0)"></path>
<path d="M 1106.8 601.015 C 1122.35 599.599 1129.47 609.889 1116.69 619.316 C 1103.58 620.399 1095.92 610.699 1104.92 602.7 C 1105.56 602.145 1106.18 601.583 1106.8 601.015 z" fill="rgb(252,252,252)" transform="translate(0,0)"></path>
<path d="M 1110.18 606.61 C 1112.05 605.539 1114.44 606.198 1115.49 608.078 C 1116.55 609.957 1115.87 612.337 1113.98 613.376 C 1112.12 614.404 1109.77 613.735 1108.73 611.877 C 1107.68 610.019 1108.33 607.668 1110.18 606.61 z" fill="rgb(39,39,39)" transform="translate(0,0)"></path>
<path d="M 1828.94 288.645 C 1838.4 289.172 1847.87 289.532 1857.34 289.727 L 1856.43 293.261 C 1854.29 294.282 1844.53 300.82 1845.37 300.592 C 1825.1 306.103 1823.46 306.539 1828.94 288.645 z" fill="rgb(189,157,88)" transform="translate(0,0)"></path>
<path d="M 1339.23 600.121 C 1342.81 599.209 1346.62 600.324 1349.14 603.03 C 1351.67 605.735 1352.53 609.603 1351.37 613.122 C 1350.22 616.641 1347.24 619.252 1343.6 619.936 C 1338.21 620.949 1333 617.502 1331.81 612.149 C 1330.63 606.796 1333.91 601.471 1339.23 600.121 z" fill="rgb(252,252,252)" transform="translate(0,0)"></path>
<path d="M 1339.89 606.614 C 1341.11 605.96 1342.58 606.016 1343.75 606.761 C 1344.92 607.505 1345.59 608.821 1345.51 610.203 C 1345.44 611.585 1344.62 612.818 1343.37 613.426 C 1341.5 614.342 1339.24 613.588 1338.29 611.732 C 1337.34 609.875 1338.05 607.599 1339.89 606.614 z" fill="rgb(39,39,39)" transform="translate(0,0)"></path>
<path d="M 1323.51 613.707 C 1326.82 622.448 1312.12 619.801 1309.63 617.644 C 1302.67 611.608 1305.24 601.659 1315.02 600.188 C 1322.34 599.086 1329.91 607.381 1325.95 611.505 C 1325.04 612.092 1324.28 612.938 1323.51 613.707 z" fill="rgb(252,252,252)" transform="translate(0,0)"></path>
<path d="M 1323.51 613.707 C 1321.29 614.353 1315.87 615.849 1314.17 613.408 C 1313.98 611.612 1324.07 611.721 1325.95 611.505 C 1325.04 612.092 1324.28 612.938 1323.51 613.707 z" fill="rgb(77,75,73)" transform="translate(0,0)"></path>
<path d="M 1315.37 606.203 C 1316.07 605.922 1317.76 604.989 1318.44 605.851 C 1318.38 606.688 1317.31 606.918 1316.65 607.218 C 1316.18 607.33 1313.7 608.198 1313.5 607.254 C 1313.88 606.622 1314.67 606.466 1315.37 606.203 z" fill="rgb(50,48,48)" transform="translate(0,0)"></path>
<path d="M 1816.12 552.965 C 1816.91 553.064 1818.98 553.002 1819.6 553.484 C 1820.79 554.41 1820.38 578.082 1820.07 581.478 C 1820.02 581.967 1819.99 582.766 1819.47 583.011 C 1818.66 583.389 1817.5 582.811 1816.74 582.521 C 1814.95 581.838 1809.91 580.607 1809.03 578.954 C 1808.05 577.113 1808.37 556.471 1809.46 554.692 C 1810.05 553.741 1814.95 553.219 1816.12 552.965 z" fill="rgb(175,174,174)" transform="translate(0,0)"></path>
<path d="M 937.328 613.721 C 936.866 623.425 923.2 619.773 920.753 614.613 C 916.262 605.145 925.815 596.857 935.238 601.483 C 937.352 602.512 938.955 604.358 939.676 606.596 C 940.547 609.26 940.267 610.363 939.026 612.595 C 938.353 612.886 937.927 613.271 937.328 613.721 z" fill="rgb(252,252,252)" transform="translate(0,0)"></path>
<path d="M 937.328 613.721 C 923.31 615.412 925.154 610.255 939.026 612.595 C 938.353 612.886 937.927 613.271 937.328 613.721 z" fill="rgb(50,48,48)" transform="translate(0,0)"></path>
<path d="M 929.059 605.921 C 931.829 604.49 931.975 605.084 932.99 607.84 C 932.082 607.838 926.256 608.554 928.395 606.572 L 929.059 605.921 z" fill="rgb(39,39,39)" transform="translate(0,0)"></path>
<path d="M 1870.11 539.883 C 1876.34 539.907 1877.61 539.434 1880.46 546.259 C 1882.66 551.525 1892.44 559.292 1885.79 561.049 L 1869.45 564.823 C 1869.54 558.556 1869.19 545.394 1870.11 539.883 z" fill="rgb(175,174,174)" transform="translate(0,0)"></path>
<path d="M 665.531 600.642 C 676.098 600.952 672.871 601.444 676.619 611.675 C 677.038 610.477 679.689 595.582 686.762 601.599 C 687.333 602.084 682.298 615.004 681.209 617.73 C 680.742 618.979 680.19 620.194 679.557 621.366 C 677.62 624.889 669.746 630.011 667.865 624.002 C 666.751 621.131 672.976 620.956 672.744 619.877 C 671.597 614.543 667.464 605.778 665.531 600.642 z" fill="rgb(252,252,252)" transform="translate(0,0)"></path>
<path d="M 1391.75 599.978 C 1398 600.365 1403.95 601.145 1405.38 608.396 C 1406.59 614.502 1394.22 610.724 1392.53 612.484 C 1392.57 616.502 1399.1 614.443 1401.66 614.087 C 1404.42 628.066 1368.22 613.737 1391.75 599.978 z" fill="rgb(252,252,252)" transform="translate(0,0)"></path>
<path d="M 1394.64 606.27 C 1395.55 605.844 1396.23 605.392 1397.2 605.828 C 1397.71 606.665 1396.28 607.05 1395.73 607.311 C 1395.27 607.408 1392.67 608.237 1392.5 607.276 C 1392.95 606.628 1393.87 606.499 1394.64 606.27 z" fill="rgb(39,39,39)" transform="translate(0,0)"></path>
<path d="M 896.545 599.959 C 898.314 600.386 898.916 600.69 900.55 601.48 C 902.014 601.407 903.143 600.537 904.523 600.161 C 906.56 599.622 908.728 599.939 910.525 601.039 C 914.714 603.552 914.707 617.42 913.237 618.234 C 906.043 622.213 906.98 615.12 906.659 610.788 C 907.014 608.973 906.85 605.413 904.039 605.929 C 896.346 607.436 906.548 623.536 894.488 618.275 C 894.374 618.225 891.53 602.78 896.545 599.959 z" fill="rgb(252,252,252)" transform="translate(0,0)"></path>
<path d="M 1151.98 611.15 C 1142.18 595.649 1173.47 598.305 1163.7 605.764 L 1163.3 607.612 C 1176.29 620.553 1146.13 624.321 1149.81 613.633 C 1150.49 612.903 1151.42 611.955 1151.98 611.15 z" fill="rgb(252,252,252)" transform="translate(0,0)"></path>
<path d="M 1151.98 611.15 C 1152.5 611.25 1161.31 612.468 1159.09 614.23 C 1157.82 615.243 1151.94 613.884 1149.81 613.633 C 1150.49 612.903 1151.42 611.955 1151.98 611.15 z" fill="rgb(50,48,48)" transform="translate(0,0)"></path>
<path d="M 1163.3 607.612 C 1154.05 606.034 1156.5 603.918 1163.7 605.764 L 1163.3 607.612 z" fill="rgb(77,75,73)" transform="translate(0,0)"></path>
<path d="M 1413.42 611.837 C 1398.28 600.598 1430.73 594.893 1424.67 605.994 L 1423.38 607.753 C 1439.11 619.901 1405.21 623.996 1410.99 613.722 L 1413.42 611.837 z" fill="rgb(252,252,252)" transform="translate(0,0)"></path>
<path d="M 1413.42 611.837 C 1415.55 612.198 1417.35 612.31 1419.1 613.56 C 1419.93 615.889 1412.02 613.858 1410.99 613.722 L 1413.42 611.837 z" fill="rgb(77,75,73)" transform="translate(0,0)"></path>
<path d="M 1423.38 607.753 C 1414.06 605.998 1416.97 604.755 1424.67 605.994 L 1423.38 607.753 z" fill="rgb(77,75,73)" transform="translate(0,0)"></path>
<path d="M 693.563 610.86 C 683.582 596.966 714.238 598.078 705.507 605.777 L 705.293 607.768 C 720.05 622.064 681.223 623.086 693.984 612.46 L 693.563 610.86 z" fill="rgb(252,252,252)" transform="translate(0,0)"></path>
<path d="M 693.563 610.86 C 706.434 613.624 702.086 616.245 693.984 612.46 L 693.563 610.86 z" fill="rgb(77,75,73)" transform="translate(0,0)"></path>
<path d="M 705.293 607.768 C 696.196 606.287 698.656 604.186 705.507 605.777 L 705.293 607.768 z" fill="rgb(77,75,73)" transform="translate(0,0)"></path>
<path d="M 773.759 610.447 C 766.754 596.137 793.771 598.239 785.747 605.934 L 785.522 607.313 C 800.177 619.829 767.229 624.961 773.974 613.054 L 773.759 610.447 z" fill="rgb(252,252,252)" transform="translate(0,0)"></path>
<path d="M 773.759 610.447 C 784.984 613.496 783.309 616.628 773.974 613.054 L 773.759 610.447 z" fill="rgb(50,48,48)" transform="translate(0,0)"></path>
<path d="M 785.522 607.313 C 784.61 607.235 779.523 607.255 779.777 605.591 C 780.868 604.17 784.364 605.522 785.747 605.934 L 785.522 607.313 z" fill="rgb(129,129,128)" transform="translate(0,0)"></path>
<path d="M 1131.59 611.485 C 1117.89 600.195 1148.09 594.141 1142.37 606.54 L 1142.07 607.92 C 1151.47 621.1 1127.81 623.412 1127.82 614.169 C 1129.23 613.26 1130.33 612.64 1131.59 611.485 z" fill="rgb(252,252,252)" transform="translate(0,0)"></path>
<path d="M 1131.59 611.485 C 1133.23 611.76 1135 611.972 1136.55 612.537 L 1136.38 612.501 L 1137.55 613.377 L 1137.56 613.181 C 1138.55 615.629 1129.22 614.17 1127.82 614.169 C 1129.23 613.26 1130.33 612.64 1131.59 611.485 z" fill="rgb(50,48,48)" transform="translate(0,0)"></path>
<path d="M 1142.07 607.92 C 1140.85 607.732 1135.6 607.286 1135.58 605.7 C 1136.92 603.991 1140.63 605.975 1142.37 606.54 L 1142.07 607.92 z" fill="rgb(77,75,73)" transform="translate(0,0)"></path>
<path d="M 1008.14 611.737 C 991.578 598.692 1027.94 596.027 1016.97 606.476 L 1017.06 607.965 C 1031.89 619.077 1000.85 624.726 1003.82 613.653 C 1005.3 613.028 1006.7 612.447 1008.14 611.737 z" fill="rgb(252,252,252)" transform="translate(0,0)"></path>
<path d="M 1008.14 611.737 C 1009.76 611.923 1012.91 612.234 1013.75 613.925 C 1012.97 615.824 1005.88 613.881 1003.82 613.653 C 1005.3 613.028 1006.7 612.447 1008.14 611.737 z" fill="rgb(50,48,48)" transform="translate(0,0)"></path>
<path d="M 1017.06 607.965 C 1016 607.709 1011.29 607.156 1011.62 605.595 C 1012.92 604.059 1015.67 605.775 1016.97 606.476 L 1017.06 607.965 z" fill="rgb(77,75,73)" transform="translate(0,0)"></path>
<path d="M 1202.42 612.007 C 1189.69 598.74 1222.49 596.256 1212.94 606.668 L 1213.22 608.042 C 1227.16 621.193 1191.02 623.591 1201.69 613.418 L 1201.89 613.226 L 1202.42 612.007 z" fill="rgb(252,252,252)" transform="translate(0,0)"></path>
<path d="M 1202.42 612.007 C 1204.23 612.143 1207.33 612.074 1208.74 613.558 C 1209.34 614.192 1208.27 614.88 1207.71 614.925 C 1205.68 615.089 1203.71 613.938 1201.89 613.226 L 1202.42 612.007 z" fill="rgb(77,75,73)" transform="translate(0,0)"></path>
<path d="M 1213.22 608.042 C 1201.66 606.171 1206.59 603.606 1212.94 606.668 L 1213.22 608.042 z" fill="rgb(50,48,48)" transform="translate(0,0)"></path>
<path d="M 45.5133 724.472 C 54.272 723.249 49.5481 730.193 48.4496 738.22 C 44.4064 737.948 41.1614 737.662 37.1289 737.196 C 25.335 736.752 28.5113 737.047 30.5551 724.78 C 35.8074 724.774 40.274 724.746 45.5133 724.472 z" fill="rgb(252,252,252)" transform="translate(0,0)"></path>
<path d="M 715.756 594.876 C 717.228 595.05 720.296 595.029 721.545 595.802 C 722.814 596.587 722.373 599.387 723.204 600.414 C 723.803 601.057 725.173 600.485 725.648 601.219 C 726.356 602.314 726.42 605.223 724.89 605.744 C 722.101 606.693 721.923 608.941 722.367 611.5 C 722.519 612.379 722.775 613.259 723.676 613.67 C 724.085 613.897 724.493 614.125 724.902 614.352 C 726.322 615.238 726.491 617.379 726.88 618.794 C 712.681 623.297 717.31 612.36 713.968 606.163 C 710.744 600.186 714.475 603.531 715.756 594.876 z" fill="rgb(252,252,252)" transform="translate(0,0)"></path>
<path d="M 1920.19 385.155 C 1924.32 386.999 1928.91 390.451 1932.79 393.038 C 1932.79 399.098 1932.75 402.11 1932.02 408.205 L 1919.11 402.183 C 1919.2 395.366 1919.47 391.936 1920.19 385.155 z" fill="rgb(189,157,88)" transform="translate(0,0)"></path>
<path d="M 759.075 592.462 C 767.057 593.557 766.011 592.059 766.013 600.628 C 766.014 606.928 765.994 613.349 765.993 619.656 C 765.14 619.532 759.566 619.047 759.494 618.406 C 758.609 610.459 759.041 600.471 759.075 592.462 z" fill="rgb(252,252,252)" transform="translate(0,0)"></path>
<path d="M 991.065 592.461 C 999.201 593.6 997.933 592.146 997.982 601.147 C 998.014 607.273 997.96 613.54 997.957 619.673 C 990.997 618.566 991.012 620.055 991.073 612.551 C 991.127 605.91 991.064 599.113 991.065 592.461 z" fill="rgb(252,252,252)" transform="translate(0,0)"></path>
<path d="M 1863.07 684.552 C 1867.97 686.428 1877.93 692.285 1883.23 695.165 C 1881.12 696.675 1879.66 697.593 1877.37 698.86 C 1876.2 699.685 1870.44 703.936 1869.43 703.576 C 1868.98 703.065 1867.92 698.072 1867.67 697.06 C 1866.02 690.508 1860.09 691.111 1863.07 684.552 z" fill="rgb(189,157,88)" transform="translate(0,0)"></path>
<path d="M 1186.07 593.554 C 1187.4 593.63 1192.66 593.261 1192.74 594.96 C 1193.14 602.858 1192.94 611.406 1192.94 619.3 C 1191.99 619.244 1186.6 619.307 1186.49 618.407 C 1185.68 611.686 1186.07 600.037 1186.07 593.554 z" fill="rgb(252,252,252)" transform="translate(0,0)"></path>
<path d="M 649.878 600.328 C 653.09 600.655 654.525 600.586 657.375 601.796 C 659.819 600.982 660.893 599.246 663.084 602.16 C 663.58 603.995 662.819 607.03 660.477 607.107 C 658.111 607.185 657.293 608.132 656.901 609.866 C 656.805 612.422 656.966 615.012 656.595 617.44 C 656.231 619.821 650.787 619.119 650.633 618.647 C 649.247 614.416 649.885 604.913 649.878 600.328 z" fill="rgb(252,252,252)" transform="translate(0,0)"></path>
<path d="M 945.893 600.382 C 945.902 600.383 951.154 600.429 951.709 601.249 C 953.614 604.06 960.452 595.947 958.034 605.867 C 957.558 607.822 953.421 606.015 952.546 610.248 C 952.519 610.735 953.894 623.44 946.429 618.261 C 945.37 617.527 945.887 603.589 945.893 600.382 z" fill="rgb(252,252,252)" transform="translate(0,0)"></path>
<path d="M 886.546 600.861 C 887.505 607.054 889.371 623.875 880.636 618.61 C 879.709 618.051 879.933 603.023 879.842 601.001 C 882.152 601.029 884.24 600.96 886.546 600.861 z" fill="rgb(252,252,252)" transform="translate(0,0)"></path>
<path d="M 1046.11 601.442 C 1049.24 600.367 1052.66 601.976 1053.84 605.076 C 1055.01 608.176 1053.52 611.649 1050.46 612.924 C 1048.39 613.785 1046.01 613.451 1044.26 612.052 C 1042.51 610.652 1041.66 608.41 1042.04 606.201 C 1042.43 603.992 1043.98 602.168 1046.11 601.442 z" fill="rgb(252,252,252)" transform="translate(0,0)"></path>
<path d="M 1241.98 601.453 C 1245.08 600.223 1248.59 601.739 1249.83 604.841 C 1251.06 607.943 1249.55 611.458 1246.45 612.694 C 1243.34 613.933 1239.82 612.417 1238.58 609.311 C 1237.35 606.204 1238.87 602.685 1241.98 601.453 z" fill="rgb(252,252,252)" transform="translate(0,0)"></path>
<path d="M 1172.77 600.722 C 1179.75 601.497 1179.07 600.352 1179.07 607.998 C 1179.07 611.741 1179.05 615.626 1179.04 619.378 C 1172.56 618.642 1172.6 620.106 1172.72 612.722 C 1172.78 608.821 1172.75 604.637 1172.77 600.722 z" fill="rgb(252,252,252)" transform="translate(0,0)"></path>
<path d="M 811.571 601.64 C 814.632 600.611 817.951 602.236 819.015 605.285 C 820.079 608.333 818.491 611.67 815.455 612.768 C 813.46 613.49 811.231 613.084 809.619 611.705 C 808.007 610.326 807.261 608.187 807.665 606.104 C 808.069 604.021 809.561 602.317 811.571 601.64 z" fill="rgb(252,252,252)" transform="translate(0,0)"></path>
<path d="M 1909.76 687.18 L 1910.97 690.021 C 1905.6 694.577 1904.08 696.531 1899.92 701.852 C 1899.24 701.57 1892.34 697.561 1891.47 697.039 C 1895.62 694.981 1906.16 689.864 1909.76 687.18 z" fill="rgb(189,157,88)" transform="translate(0,0)"></path>
<path d="M 1859.8 342.019 C 1860.31 345.695 1860.29 353.44 1859.5 357.244 C 1859.37 357.858 1855.33 357.935 1854.75 357.986 C 1851.96 354.117 1852.81 350.6 1853.01 345.956 C 1853.07 344.533 1858.39 342.687 1859.8 342.019 z" fill="rgb(175,174,174)" transform="translate(0,0)"></path>
<path d="M 1745.57 562.264 C 1753.83 561.531 1759.86 558.869 1761.24 567.095 C 1755.26 566.305 1747.32 567.62 1745.57 562.264 z" fill="rgb(175,174,174)" transform="translate(0,0)"></path>
<path d="M 880.334 597.881 C 878.651 589.934 887.494 589.109 887.008 598.767 L 886.546 600.861 C 884.24 600.96 882.152 601.029 879.842 601.001 C 879.996 599.927 880.134 598.953 880.334 597.881 z" fill="rgb(252,252,252)" transform="translate(0,0)"></path>
<path d="M 880.334 597.881 C 883.332 599.009 883.883 598.796 887.008 598.767 L 886.546 600.861 C 884.24 600.96 882.152 601.029 879.842 601.001 C 879.996 599.927 880.134 598.953 880.334 597.881 z" fill="rgb(50,48,48)" transform="translate(0,0)"></path>
<path d="M 1967.72 365.495 C 1971.59 369.083 1973.63 371.36 1974.2 376.49 C 1965.61 373.598 1966.87 373.887 1967.72 365.495 z" fill="rgb(252,252,252)" transform="translate(0,0)"></path>
<path d="M 1174.26 592.411 C 1175.95 591.729 1177.88 592.447 1178.71 594.066 C 1179.54 595.686 1179 597.673 1177.46 598.65 C 1176.34 599.365 1174.9 599.382 1173.76 598.694 C 1172.62 598.005 1171.96 596.729 1172.06 595.398 C 1172.17 594.067 1173.02 592.91 1174.26 592.411 z" fill="rgb(252,252,252)" transform="translate(0,0)"></path>
<path d="M 1694.36 561.232 C 1700.72 562.768 1700.01 563.519 1697.18 569.708 C 1691.98 570.896 1693.95 565.22 1694.36 561.232 z" fill="rgb(153,127,76)" transform="translate(0,0)"></path>
<path d="M 1868.29 375.772 C 1871.55 379.33 1870.21 386.706 1869.72 391.274 C 1866.82 388.822 1868.03 379.52 1868.29 375.772 z" fill="rgb(129,129,128)" transform="translate(0,0)"></path>
<path d="M 1897.18 291.73 C 1899.44 294.015 1899.88 300.256 1899.25 303.26 C 1896.12 297.709 1893.35 296.916 1897.18 291.73 z" fill="rgb(153,127,76)" transform="translate(0,0)"></path>
<path d="M 1693.41 381.544 C 1697.06 384.176 1695.07 388.838 1694.77 393.425 C 1691.47 394.048 1693.22 383.637 1693.41 381.544 z" fill="rgb(175,174,174)" transform="translate(0,0)"></path>
<path d="M 1857.01 525.098 C 1858.94 524.281 1864.89 527.445 1866.66 528.674 C 1865.22 531.173 1858.21 526.389 1857.01 525.098 z" fill="rgb(77,75,73)" transform="translate(0,0)"></path>
<path d="M 1761.64 319.858 C 1765.23 323.252 1759.25 324.707 1756.48 326.149 C 1756.13 325.907 1755.77 325.799 1755.63 325.419 C 1755.85 324.085 1760.38 320.872 1761.64 319.858 z" fill="rgb(252,252,252)" transform="translate(0,0)"></path>
<path d="M 1857.34 289.727 C 1858.62 289.404 1860.07 289.05 1861.32 289.476 C 1862.45 290.773 1857.21 292.884 1856.43 293.261 L 1857.34 289.727 z" fill="rgb(153,127,76)" transform="translate(0,0)"></path>
<path d="M 1737.33 664.048 C 1740.2 663.043 1741.5 662.807 1739.24 665.79 C 1737.64 666.182 1736.62 665.791 1737.33 664.048 z" fill="rgb(252,252,252)" transform="translate(0,0)"></path>
<path d="M 1871.09 532.174 C 1871.57 531.942 1872.26 531.386 1872.77 531.799 C 1872.99 532.348 1872.76 532.721 1872.58 533.346 C 1872.06 533.902 1871.58 534.606 1870.85 534.735 C 1870.14 534.254 1870.9 532.81 1871.09 532.174 z" fill="rgb(175,174,174)" transform="translate(0,0)"></path>
<path d="M 1909.76 687.18 C 1911.01 686.584 1914.28 684.399 1915.39 685.54 C 1915.34 686.893 1912.03 689.157 1910.97 690.021 L 1909.76 687.18 z" fill="rgb(153,127,76)" transform="translate(0,0)"></path>
<path d="M 1781.26 517.988 C 1783.23 517.281 1783.33 517.622 1785.01 519.032 C 1782.91 519.773 1782.51 519.977 1781.26 517.988 z" fill="rgb(77,75,73)" transform="translate(0,0)"></path>
<path d="M 1870.25 481.249 C 1870.56 481.094 1870.87 480.939 1871.18 480.783 C 1871.38 481.136 1871.27 481.538 1871.25 481.986 C 1870.53 482.352 1870.81 482.26 1870.37 482.355 L 1870.26 482.268 C 1870.19 481.864 1870.21 482.154 1870.25 481.249 z" fill="rgb(175,174,174)" transform="translate(0,0)"></path>
<path d="M 1977.52 430.265 C 1978.18 430.138 1977.95 430.128 1978.29 430.197 C 1978.18 430.439 1978.07 430.682 1977.97 430.924 C 1977.74 430.976 1977.18 431.164 1976.93 431.082 C 1977.08 430.687 1976.94 430.944 1977.52 430.265 z" fill="rgb(129,129,128)" transform="translate(0,0)"></path>
<path d="M 1849.01 521.95 C 1849.43 522.033 1849.17 521.953 1849.8 522.256 C 1849.13 522.061 1849.37 522.174 1849.01 521.95 z" fill="rgb(175,174,174)" transform="translate(0,0)"></path>
<path d="M 1979.73 376.985 C 1980.06 377.059 1979.88 376.981 1980.29 377.278 C 1980.1 377.18 1979.92 377.083 1979.73 376.985 z" fill="rgb(77,75,73)" transform="translate(0,0)"></path>
<metadata><recraft-signature>{"signed_by": "recraft", "signature_b64": "jgnz2/EDQ3STgLvmam4yVQSK2kupDFkAkoQ+w29WLoFZ2x1FHxLD1Y5tOQO1qWiDolvUG9zPU2XBKu34JDkCDg==", "signing_algo": "Ed25519", "generation_timestamp": 1780247873, "identifier": "680c0019-f0ad-48d6-919c-c7fa3baa0ca0"}</recraft-signature></metadata></svg>