<svg xmlns="http://www.w3.org/2000/svg" height="768" preserveAspectRatio="none" style="display: block;" version="1.1" viewBox="0 0 2048 1024" width="1536">
<path d="M 0 0 L 2048 0 L 2048 207.244 L 2048 304.198 L 2048 350.103 L 2048 355.053 L 2048 365.757 L 2048 371.217 L 2048 420.996 L 2048 427.678 L 2048 443.407 L 2048 467.318 L 2048 506.808 L 2048 508.44 L 2048 527.742 L 2048 548.094 L 2048 559.845 L 2048 564.773 L 2048 575.663 L 2048 581.157 L 2048 595.291 L 2048 655.996 L 2048 720.247 L 2048 792.872 L 2048 803.516 L 2048 823.511 L 2048 1024 L 0 1024 L 0 823.217 L 0 789.399 L 0 781.401 L 0 779.785 L 0 772.046 L 0 724.125 L 0 683.48 L 0 639.893 L 0 601.127 L 0 594.329 L 0 566.262 L 0 556.452 L 0 521.477 L 0 500.215 L 0 337.954 L 0 240.758 L 0 222.619 L 0 207.27 L 0 0 z" fill="rgb(1,0,0)" transform="translate(0,0)"></path>
<path d="M 0 0 L 2048 0 L 2048 207.244 L 0 207.27 L 0 0 z" fill="rgb(31,29,29)" transform="translate(0,0)"></path>
<path d="M 0 823.217 L 2048 823.511 L 2048 1024 L 0 1024 L 0 823.217 z" fill="rgb(31,29,29)" transform="translate(0,0)"></path>
<path d="M 0 337.954 C 29.0171 335.131 49.9642 345.313 78.8939 346.455 C 102.547 347.389 118.478 342.68 141.128 339.064 C 170.694 334.344 200.705 345.261 223.582 364.038 C 252.076 387.426 268.189 423.96 273.756 459.96 C 238.104 460.215 203.01 472.235 181.366 502.166 C 150.831 491.703 118.808 476.183 88.3034 466.244 C 60.7243 476.315 26.4345 488.561 0 500.215 L 0 337.954 z" fill="rgb(247,171,67)" transform="translate(0,0)"></path>
<path d="M 1846.2 495.9 C 1848.96 492.17 1851.85 488.53 1854.85 484.988 C 1863.14 475.132 1871.87 467.71 1882.56 460.585 C 1936.85 424.406 1997.44 424.46 2048 467.318 L 2048 506.808 L 2048 508.44 L 2048 527.742 C 2047.06 528.55 2046.1 529.331 2045.11 530.083 C 2021.49 548.057 1971.24 559.973 1941.95 554.099 C 1896.52 544.987 1872.91 531.44 1846.2 495.9 z" fill="rgb(231,95,56)" transform="translate(0,0)"></path>
<path d="M 1864.06 498.677 C 1891.32 469.411 1906.03 461.431 1943.96 450.569 C 1902.6 473.572 1907.61 523.015 1951.91 536.654 C 1948.81 538.502 1947.53 537.806 1943.58 538.202 C 1914.84 535.236 1884.44 519.232 1864.06 498.677 z" fill="rgb(1,0,0)" transform="translate(0,0)"></path>
<path d="M 1984.78 451.417 C 2006.75 458.699 2031.8 469.709 2047.52 487.359 C 2047.28 492.81 2046.58 501.726 2048 506.808 L 2048 508.44 C 2022.9 522.92 2009.63 533.025 1979.38 537.673 L 1975.22 535.542 C 1976.65 535.086 1978.07 534.58 1979.46 534.024 C 1990.45 529.603 1999.2 520.467 2003.78 509.612 C 2008.41 498.439 2008.41 485.887 2003.8 474.709 C 1999.97 465.531 1991.92 456.822 1982.7 453.008 L 1984.78 451.417 z" fill="rgb(1,0,0)" transform="translate(0,0)"></path>
<path d="M 1951.91 536.654 C 1963.18 536.269 1961.94 537.29 1975.22 535.542 L 1979.38 537.673 C 1969.31 539.114 1953.47 539.925 1943.58 538.202 C 1947.53 537.806 1948.81 538.502 1951.91 536.654 z" fill="rgb(20,7,3)" transform="translate(0,0)"></path>
<path d="M 1982.7 453.008 C 1981.78 452.549 1979.58 451.803 1979.5 450.55 C 1980.26 449.404 1983.85 451.086 1984.78 451.417 L 1982.7 453.008 z" fill="rgb(96,43,22)" transform="translate(0,0)"></path>
<path d="M 1954.19 455.327 C 1967.47 452.564 1981.21 457.162 1990.16 467.362 C 1999.1 477.562 2001.86 491.785 1997.39 504.592 C 1992.91 517.399 1981.89 526.806 1968.54 529.217 C 1948.28 532.875 1928.83 519.569 1924.91 499.354 C 1920.98 479.139 1934.03 459.521 1954.19 455.327 z" fill="rgb(254,253,252)" transform="translate(0,0)"></path>
<path d="M 1956.66 467.228 C 1965.87 465.426 1975.34 468.747 1981.41 475.91 C 1987.47 483.073 1989.19 492.957 1985.9 501.748 C 1982.61 510.538 1974.82 516.861 1965.54 518.275 C 1951.6 520.4 1938.52 510.99 1936.1 497.099 C 1933.69 483.207 1942.82 469.934 1956.66 467.228 z" fill="rgb(46,176,198)" transform="translate(0,0)"></path>
<path d="M 1957.61 479.428 C 1962.65 478.107 1968 479.593 1971.64 483.318 C 1975.27 487.044 1976.63 492.434 1975.19 497.435 C 1973.74 502.436 1969.72 506.276 1964.66 507.491 C 1956.95 509.344 1949.18 504.641 1947.25 496.948 C 1945.32 489.254 1949.94 481.44 1957.61 479.428 z" fill="rgb(1,0,0)" transform="translate(0,0)"></path>
<path d="M 2038.95 516.188 C 2044.8 518.416 2046.19 519.669 2044.03 525.585 C 2035.26 525.119 2036.02 523.588 2038.95 516.188 z" fill="rgb(254,253,252)" transform="translate(0,0)"></path>
<path d="M 2009.25 447.478 C 2010.51 446.808 2012.03 446.876 2013.22 447.656 C 2014.41 448.435 2015.08 449.802 2014.97 451.221 C 2014.85 452.639 2013.98 453.884 2012.68 454.467 C 2010.76 455.327 2008.51 454.514 2007.59 452.63 C 2006.66 450.745 2007.4 448.467 2009.25 447.478 z" fill="rgb(254,253,252)" transform="translate(0,0)"></path>
<path d="M 1932.34 541.358 C 1934.29 540.815 1936.33 541.881 1937.01 543.796 C 1937.68 545.712 1936.76 547.821 1934.89 548.623 C 1933.57 549.192 1932.04 548.976 1930.92 548.063 C 1929.81 547.149 1929.29 545.691 1929.59 544.281 C 1929.89 542.871 1930.95 541.744 1932.34 541.358 z" fill="rgb(254,253,252)" transform="translate(0,0)"></path>
<path d="M 1930.19 441.412 C 1931.27 440.451 1932.81 440.188 1934.15 440.731 C 1935.49 441.275 1936.41 442.532 1936.52 443.976 C 1936.63 445.42 1935.91 446.801 1934.66 447.54 C 1932.97 448.543 1930.8 448.098 1929.64 446.51 C 1928.48 444.923 1928.72 442.715 1930.19 441.412 z" fill="rgb(254,253,252)" transform="translate(0,0)"></path>
<path d="M 2027.84 528.714 C 2029.03 527.908 2030.56 527.84 2031.81 528.539 C 2033.06 529.237 2033.81 530.582 2033.75 532.013 C 2033.68 533.443 2032.81 534.714 2031.5 535.295 C 2029.72 536.089 2027.62 535.388 2026.67 533.678 C 2025.71 531.968 2026.23 529.814 2027.84 528.714 z" fill="rgb(254,253,252)" transform="translate(0,0)"></path>
<path d="M 2033.15 462.706 C 2034.98 462.003 2037.04 462.832 2037.87 464.605 C 2038.7 466.379 2038.02 468.494 2036.31 469.45 C 2035.09 470.132 2033.6 470.075 2032.43 469.304 C 2031.26 468.532 2030.63 467.175 2030.78 465.786 C 2030.93 464.396 2031.85 463.208 2033.15 462.706 z" fill="rgb(254,253,252)" transform="translate(0,0)"></path>
<path d="M 1867.45 476.59 C 1869.38 475.912 1871.49 476.929 1872.17 478.86 C 1872.85 480.791 1871.83 482.905 1869.9 483.582 C 1867.97 484.258 1865.85 483.241 1865.18 481.311 C 1864.5 479.38 1865.52 477.267 1867.45 476.59 z" fill="rgb(254,253,252)" transform="translate(0,0)"></path>
<path d="M 2011.3 535.573 C 2012.34 534.7 2013.77 534.472 2015.03 534.978 C 2016.29 535.484 2017.17 536.642 2017.32 537.992 C 2017.47 539.343 2016.87 540.665 2015.75 541.434 C 2014.13 542.547 2011.92 542.19 2010.73 540.625 C 2009.54 539.059 2009.79 536.835 2011.3 535.573 z" fill="rgb(254,253,252)" transform="translate(0,0)"></path>
<path d="M 1978.25 543.668 C 1980.08 542.922 1982.17 543.788 1982.95 545.611 C 1983.72 547.435 1982.88 549.54 1981.07 550.338 C 1979.87 550.864 1978.49 550.706 1977.44 549.924 C 1976.4 549.141 1975.85 547.856 1976.02 546.561 C 1976.19 545.265 1977.04 544.159 1978.25 543.668 z" fill="rgb(254,253,252)" transform="translate(0,0)"></path>
<path d="M 1886.54 461.507 C 1887.63 460.802 1889.02 460.742 1890.18 461.349 C 1891.33 461.956 1892.07 463.136 1892.11 464.438 C 1892.15 465.74 1891.48 466.964 1890.37 467.641 C 1888.68 468.669 1886.47 468.146 1885.42 466.467 C 1884.37 464.788 1884.87 462.577 1886.54 461.507 z" fill="rgb(254,253,252)" transform="translate(0,0)"></path>
<path d="M 1955.37 545.434 C 1956.94 544.5 1958.97 544.902 1960.07 546.366 C 1961.18 547.83 1961.01 549.889 1959.67 551.149 C 1958.67 552.099 1957.21 552.39 1955.92 551.897 C 1954.62 551.405 1953.73 550.216 1953.61 548.839 C 1953.49 547.461 1954.18 546.138 1955.37 545.434 z" fill="rgb(254,253,252)" transform="translate(0,0)"></path>
<path d="M 1910.34 536.455 C 1911.9 535.325 1914.07 535.641 1915.23 537.167 C 1916.4 538.692 1916.13 540.869 1914.63 542.07 C 1913.63 542.872 1912.28 543.069 1911.09 542.585 C 1909.9 542.101 1909.07 541.012 1908.92 539.739 C 1908.76 538.466 1909.31 537.209 1910.34 536.455 z" fill="rgb(254,253,252)" transform="translate(0,0)"></path>
<path d="M 1907.73 448.42 C 1908.64 447.481 1909.99 447.126 1911.25 447.5 C 1912.5 447.874 1913.44 448.913 1913.69 450.197 C 1913.93 451.481 1913.44 452.795 1912.42 453.607 C 1910.97 454.754 1908.88 454.581 1907.64 453.211 C 1906.41 451.842 1906.44 449.746 1907.73 448.42 z" fill="rgb(254,253,252)" transform="translate(0,0)"></path>
<path d="M 1873.61 513.582 C 1875.26 512.869 1877.17 513.549 1878 515.139 C 1878.83 516.729 1878.29 518.688 1876.76 519.625 C 1875.67 520.293 1874.3 520.298 1873.2 519.636 C 1872.11 518.975 1871.48 517.759 1871.57 516.484 C 1871.65 515.21 1872.44 514.09 1873.61 513.582 z" fill="rgb(254,253,252)" transform="translate(0,0)"></path>
<path d="M 1987.46 439.66 C 1989.21 439.555 1990.76 440.801 1991.02 442.535 C 1991.29 444.269 1990.19 445.922 1988.49 446.349 C 1987.24 446.663 1985.92 446.242 1985.08 445.261 C 1984.24 444.281 1984.03 442.911 1984.54 441.724 C 1985.04 440.537 1986.17 439.737 1987.46 439.66 z" fill="rgb(254,253,252)" transform="translate(0,0)"></path>
<path d="M 1891.55 528.458 C 1892.49 527.728 1893.75 527.564 1894.85 528.03 C 1895.95 528.496 1896.7 529.519 1896.83 530.703 C 1896.95 531.887 1896.43 533.046 1895.45 533.731 C 1894 534.757 1891.99 534.433 1890.93 533 C 1889.87 531.568 1890.15 529.551 1891.55 528.458 z" fill="rgb(254,253,252)" transform="translate(0,0)"></path>
<path d="M 1954.08 438.472 C 1955.49 437.368 1957.52 437.607 1958.64 439.007 C 1959.75 440.408 1959.53 442.446 1958.14 443.574 C 1956.73 444.716 1954.66 444.492 1953.53 443.074 C 1952.4 441.656 1952.65 439.589 1954.08 438.472 z" fill="rgb(254,253,252)" transform="translate(0,0)"></path>
<path d="M 1995.91 541.568 C 1997.27 540.422 1999.3 540.588 2000.45 541.939 C 2001.61 543.291 2001.45 545.32 2000.11 546.48 C 1998.75 547.65 1996.7 547.494 1995.54 546.132 C 1994.38 544.77 1994.55 542.722 1995.91 541.568 z" fill="rgb(254,253,252)" transform="translate(0,0)"></path>
<path d="M 0 222.619 C 35.9576 245.569 79.6355 253.088 121.197 243.485 C 141.809 238.862 156.626 232.311 173.154 219.488 C 167.176 249.093 156.519 272.181 130.752 289.624 C 92.4425 315.557 37.1739 303.415 12.2461 264.817 C 7.16131 256.944 3.89961 249.182 0 240.758 L 0 222.619 z" fill="rgb(247,171,67)" transform="translate(0,0)"></path>
<path d="M 40.2313 506.666 C 53.5593 501.709 66.7929 496.502 79.9252 491.047 C 81.0493 498.474 81.9586 504.693 83.7973 511.961 C 70.0126 545.754 55.7335 577.797 42.6483 612.092 C 29.4002 606.69 12.6726 600.371 0 594.329 L 0 566.262 C 12.9864 547.056 28.3999 526.126 40.2313 506.666 z" fill="rgb(25,62,154)" transform="translate(0,0)"></path>
<path d="M 0 601.127 C 13.6137 606.393 32.7652 612.666 44.2635 620.957 C 46.5151 622.58 52.1054 629.564 54.1778 632.125 C 58.3256 659.596 63.6543 703.934 69.6309 730.284 C 61.9529 728.189 49.431 725.196 42.2781 722.65 C 27.3009 695.801 14.6709 667.315 0 639.893 L 0 601.127 z" fill="rgb(25,62,154)" transform="translate(0,0)"></path>
<path d="M 2048 655.996 L 2048 720.247 C 2020.54 733.655 1982.28 727.885 1970.03 696.461 C 2003.36 691.193 2021.18 675.254 2048 655.996 z" fill="rgb(25,62,154)" transform="translate(0,0)"></path>
<path d="M 0 772.046 C 27.1316 755.306 50.5029 759.07 72.9957 780.58 C 50.817 801.3 26.595 804.398 0 789.399 L 0 781.401 L 0 779.785 L 0 772.046 z" fill="rgb(247,171,67)" transform="translate(0,0)"></path>
<path d="M 25.008 768.912 C 32.4509 767.886 30.4901 768.009 37.7303 769.137 C 46.3603 775.175 47.5575 785.168 38.0114 791.06 C 32.8728 791.706 32.947 792.103 27.5028 791.405 L 24.7922 790.634 C 16.5922 783.959 17.4822 775.596 25.008 768.912 z" fill="rgb(247,171,67)" transform="translate(0,0)"></path>
<path d="M 0 779.785 C 8.25731 773.599 13.5795 769.967 23.8205 767.395 L 25.008 768.912 C 17.4822 775.596 16.5922 783.959 24.7922 790.634 L 22.2997 792.689 C 11.8598 789.29 8.90005 787.509 0 781.401 L 0 779.785 z" fill="rgb(1,0,0)" transform="translate(0,0)"></path>
<path d="M 38.9766 767.532 C 49.7542 770.785 54.802 773.732 63.6497 780.37 C 55.5791 787.415 49.2786 789.93 38.986 792.59 L 38.0114 791.06 C 47.5575 785.168 46.3603 775.175 37.7303 769.137 L 38.9766 767.532 z" fill="rgb(1,0,0)" transform="translate(0,0)"></path>
<path d="M 27.5028 791.405 C 32.947 792.103 32.8728 791.706 38.0114 791.06 L 38.986 792.59 C 35.5089 793.722 31.3466 793.946 27.7275 793.558 L 27.5028 791.405 z" fill="rgb(92,62,24)" transform="translate(0,0)"></path>
<path d="M 37.0976 766.828 C 37.9913 767.071 38.1445 767.118 38.9766 767.532 L 37.7303 769.137 C 30.4901 768.009 32.4509 767.886 25.008 768.912 L 23.8205 767.395 C 24.7032 767.04 24.8174 767 25.7551 766.845 C 30.549 767.149 32.3509 767.163 37.0976 766.828 z" fill="rgb(57,38,17)" transform="translate(0,0)"></path>
<path d="M 25.7551 766.845 C 31.0801 765.724 31.7969 765.655 37.0976 766.828 C 32.3509 767.163 30.549 767.149 25.7551 766.845 z" fill="rgb(92,62,24)" transform="translate(0,0)"></path>
<path d="M 24.7922 790.634 L 27.5028 791.405 L 27.7275 793.558 C 25.6762 793.142 24.4164 792.91 22.2997 792.689 L 24.7922 790.634 z" fill="rgb(20,7,3)" transform="translate(0,0)"></path>
<path d="M 2024.06 431.33 C 2024.3 426.853 2024.6 422.379 2024.94 417.91 C 2026.59 397.885 2032.56 384.323 2048 371.217 L 2048 420.996 C 2043.45 425.665 2038.18 430.58 2033.47 435.168 C 2030.52 433.86 2027.09 432.559 2024.06 431.33 z" fill="rgb(25,62,154)" transform="translate(0,0)"></path>
<path d="M 2048 304.198 L 2048 350.103 C 2043.16 351.804 2041.86 352.561 2037.52 355.299 C 2033.76 340.624 2030.85 330.979 2025.2 316.663 C 2032.04 311.823 2040.08 306.972 2048 304.198 z" fill="rgb(247,171,67)" transform="translate(0,0)"></path>
<path d="M 2048 355.053 L 2048 365.757 C 2024.42 382.464 2020.22 402.577 2019.12 430.021 L 2009.97 426.706 C 2015.44 409.461 2016.23 402.151 2016.11 384.099 C 2025.3 370.172 2034.2 363.745 2048 355.053 z" fill="rgb(25,62,154)" transform="translate(0,0)"></path>
<path d="M 0 521.477 C 8.65194 517.246 23.1671 512.709 32.5014 509.036 L 0 556.452 L 0 521.477 z" fill="rgb(25,62,154)" transform="translate(0,0)"></path>
<path d="M 0 683.48 C 5.08326 691.686 17.7458 718.606 22.7882 728.635 C 15.6986 727.585 6.93141 725.99 0 724.125 L 0 683.48 z" fill="rgb(247,171,67)" transform="translate(0,0)"></path>
<path d="M 2029.71 574.807 C 2035.75 577.16 2042.04 578.85 2048 581.157 L 2048 595.291 C 2037.43 591.903 2030.01 589.066 2020.42 583.387 C 2021.84 583.08 2022.18 582.795 2023.41 583.282 C 2026.54 580.267 2028.62 579.558 2025.87 575.472 L 2029.71 574.807 z" fill="rgb(247,171,67)" transform="translate(0,0)"></path>
<path d="M 2040.34 581.746 C 2046.94 584.246 2047.37 585.334 2043.78 591.264 C 2037.45 588.937 2035.88 587.542 2040.34 581.746 z" fill="rgb(46,83,180)" transform="translate(0,0)"></path>
<path d="M 2014.46 562.364 C 2020.06 560.681 2025.49 559.087 2031.06 557.21 C 2036.93 560.358 2041.47 562.772 2048 564.773 L 2048 575.663 C 2034.87 572.284 2026.35 568.185 2014.46 562.364 z" fill="rgb(25,62,154)" transform="translate(0,0)"></path>
<path d="M 1996.98 567.25 L 2008.61 564.392 C 2015.04 568.182 2022.62 572.804 2029.71 574.807 L 2025.87 575.472 C 2028.62 579.558 2026.54 580.267 2023.41 583.282 C 2022.18 582.795 2021.84 583.08 2020.42 583.387 C 2015.33 580.905 2002.47 571.108 1996.98 567.25 z" fill="rgb(247,171,67)" transform="translate(0,0)"></path>
<path d="M 2023.41 583.282 C 2018.68 579.202 2019.49 575.481 2025.87 575.472 C 2028.62 579.558 2026.54 580.267 2023.41 583.282 z" fill="rgb(46,83,180)" transform="translate(0,0)"></path>
<path d="M 2048 427.678 L 2048 443.407 C 2043.88 440.372 2042.48 439.201 2038.06 436.487 L 2048 427.678 z" fill="rgb(25,62,154)" transform="translate(0,0)"></path>
<path d="M 2048 548.094 L 2048 559.845 C 2043.99 558.051 2039.88 556.507 2035.69 555.22 C 2040.24 552.836 2043.75 551.104 2048 548.094 z" fill="rgb(25,62,154)" transform="translate(0,0)"></path>
<path d="M 2048 803.516 C 2046.46 803.117 2040.9 802.163 2041.19 800.6 C 2042.25 795.006 2043.17 793.277 2048 792.872 L 2048 803.516 z" fill="rgb(247,171,67)" transform="translate(0,0)"></path>
<path d="M 274.302 480.456 C 274.69 480.448 275.862 480.956 276.299 481.119 C 285.665 506.222 274.627 584.413 266.259 609.757 C 260.882 626.232 253.057 641.804 243.045 655.95 C 222.689 684.761 194.748 707.368 162.323 721.262 C 158.515 722.87 144.339 729.322 141.159 727.052 L 142.209 724.581 C 153.126 703.497 163.233 680.82 173.757 659.389 C 187.202 632.012 200.746 604.472 212.776 576.46 C 208.753 555.995 204.514 535.572 200.058 515.196 C 223.128 491.438 241.163 482.502 274.302 480.456 z" fill="rgb(247,171,67)" transform="translate(0,0)"></path>
<path d="M 1210.08 581.603 L 1209.91 487.939 C 1209.9 478.334 1210.05 468.067 1209.89 458.555 C 1209.41 430.985 1213.54 414.024 1244.2 408.764 L 1243.99 477.099 C 1240.36 482.678 1238.23 486.552 1236.78 493.286 L 1238.66 494.804 C 1254.48 465.925 1300.36 463.994 1314.65 493.469 L 1316.62 492.217 C 1314.84 485.702 1313.53 482.113 1309.21 476.721 C 1308.83 446.192 1304.13 414.674 1343.89 409.147 L 1343.63 581.05 L 1309.05 581.073 C 1309.15 564.861 1310.52 538.369 1307.9 524.987 C 1303.04 500.285 1267.06 496.718 1251.62 513.459 C 1239.88 526.193 1244.26 566.567 1244.18 581.386 C 1232.92 581.465 1221.31 581.689 1210.08 581.603 z" fill="rgb(247,171,67)" transform="translate(0,0)"></path>
<path d="M 1236.78 493.286 L 1238.66 494.804 C 1238.31 496.232 1237.28 500.118 1236.41 501.21 C 1234.99 500.456 1236.46 494.666 1236.78 493.286 z" fill="rgb(57,38,17)" transform="translate(0,0)"></path>
<path d="M 1316.62 492.217 C 1317.09 493.711 1317.24 495.021 1317.5 496.564 L 1315.41 497.49 C 1315.19 495.934 1315.1 495.01 1314.65 493.469 L 1316.62 492.217 z" fill="rgb(20,7,3)" transform="translate(0,0)"></path>
<path d="M 1317.5 496.564 C 1317.88 497.961 1318.66 500.395 1317.25 501.406 C 1315.76 501.191 1315.63 498.616 1315.41 497.49 L 1317.5 496.564 z" fill="rgb(57,38,17)" transform="translate(0,0)"></path>
<path d="M 1919.95 425.888 C 1911.79 395.37 1910.49 369.412 1926.64 340.622 C 1934.98 325.744 1950.82 310.945 1961.86 297.29 C 2000.86 333.172 2024.39 372.585 2005.04 425.785 C 2001.84 425.028 1997.35 423.804 1994.18 423.66 C 1975.81 419.301 1950.33 420.953 1931.81 423.64 C 1927.88 424.512 1923.92 425.261 1919.95 425.888 z" fill="rgb(46,176,198)" transform="translate(0,0)"></path>
<path d="M 1919.95 425.888 C 1911.79 395.37 1910.49 369.412 1926.64 340.622 C 1934.98 325.744 1950.82 310.945 1961.86 297.29 C 2000.86 333.172 2024.39 372.585 2005.04 425.785 C 2001.84 425.028 1997.35 423.804 1994.18 423.66 C 2002.06 416.301 2004.04 381.637 2001.43 370.775 C 1999.4 358.78 1991.89 338.045 1980.47 332.15 C 1931.59 306.918 1915.95 373.416 1925.15 408.066 C 1926.48 413.07 1928.07 421.295 1931.81 423.64 C 1927.88 424.512 1923.92 425.261 1919.95 425.888 z" fill="rgb(31,29,29)" transform="translate(0,0)"></path>
<path d="M 1959.81 340.175 C 1960.67 340.107 1961.54 340.046 1962.41 339.993 C 1984.81 338.576 1996.59 357.551 1977.89 373.608 C 1972.87 364.174 1969.75 358.736 1959.43 353.658 C 1947.12 347.6 1944.84 344.056 1959.81 340.175 z" fill="rgb(254,253,252)" transform="translate(0,0)"></path>
<path d="M 374.891 408.972 C 397.11 408.799 426.316 406.49 447.023 412.464 C 478.27 421.477 491.865 456.089 481.63 485.561 C 475.743 502.513 466.171 510.865 450.588 518.242 C 467.878 538.364 488.383 559.882 504.692 579.881 C 503.417 581.323 501.754 580.9 499.25 581.072 L 461.735 581.185 C 445.913 562.787 427.516 545.22 412.81 526.247 C 410.701 523.526 407.534 515.854 407.496 512.17 C 407.231 486.417 434.429 493.005 446.021 478.676 C 448.968 475.033 450.832 469.875 449.892 465.488 C 441.931 428.33 410.6 452.433 387.507 433.526 C 379.282 426.791 376.167 418.45 374.891 408.972 z" fill="rgb(247,171,67)" transform="translate(0,0)"></path>
<path d="M 1798.6 630.431 C 1866.53 624.347 1895.73 685.81 1956.96 696.209 C 1949.9 719.666 1929.48 725.605 1907.66 726.633 C 1852.32 723.264 1836 670.097 1784.93 655.138 C 1768.81 650.416 1761.18 650.005 1744.37 649.672 C 1761.71 634.94 1776.16 632.018 1798.6 630.431 z" fill="rgb(25,62,154)" transform="translate(0,0)"></path>
<path d="M 213.306 248.263 C 230.805 255.772 256.824 285.99 267.181 301.709 C 297.838 348.238 306.542 404.622 295.868 458.754 C 295.078 455.178 294.468 451.391 293.829 447.771 C 282.827 384.891 253.56 344.506 195.056 319.811 C 210.348 295.965 212.796 275.672 213.306 248.263 z" fill="rgb(247,171,67)" transform="translate(0,0)"></path>
<path d="M 951.405 409.005 L 994.126 408.968 C 969.648 437.594 944.991 466.066 920.156 494.382 C 927.813 502.515 936.436 513.259 944.019 521.911 L 989.201 573.011 L 995.763 581.322 C 981.074 581.189 966.384 581.155 951.694 581.219 C 933.673 558.316 895.54 527.778 894.116 497.209 C 893.751 488.786 895.509 480.406 899.229 472.84 C 905.94 458.86 939.433 422.046 951.405 409.005 z" fill="rgb(247,171,67)" transform="translate(0,0)"></path>
<path d="M 1962.63 235.636 C 1966.39 236.58 1975.94 248.513 1978.7 251.969 C 2003.92 283.446 2022.85 318.865 2032.39 358.24 C 2025.62 364.351 2021.68 368.211 2015.65 375.033 C 2008.91 338.688 1988.49 316.133 1963.58 289.94 C 1938.69 312.615 1915.04 342.112 1910.18 376.107 C 1904.82 370.062 1899.31 364.157 1893.65 358.399 C 1903.8 313.039 1929.99 268.543 1962.63 235.636 z" fill="rgb(247,171,67)" transform="translate(0,0)"></path>
<path d="M 1960.36 264.633 C 1963.46 263.495 1966.92 264.111 1969.43 266.244 C 1971.94 268.377 1973.11 271.697 1972.48 274.931 C 1971.86 278.166 1969.54 280.814 1966.42 281.86 C 1961.69 283.444 1956.56 280.936 1954.9 276.228 C 1953.25 271.52 1955.68 266.356 1960.36 264.633 z" fill="rgb(25,62,154)" transform="translate(0,0)"></path>
<path d="M 1984.9 286.075 C 1988.8 284.176 1993.49 285.809 1995.38 289.715 C 1997.26 293.622 1995.61 298.314 1991.69 300.179 C 1987.8 302.034 1983.14 300.393 1981.27 296.51 C 1979.4 292.627 1981.02 287.962 1984.9 286.075 z" fill="rgb(25,62,154)" transform="translate(0,0)"></path>
<path d="M 1937.04 285.288 C 1941.18 284.68 1945.05 287.499 1945.74 291.631 C 1946.43 295.763 1943.69 299.689 1939.58 300.464 C 1936.84 300.979 1934.03 299.974 1932.25 297.836 C 1930.46 295.698 1929.97 292.761 1930.96 290.158 C 1931.96 287.555 1934.28 285.692 1937.04 285.288 z" fill="rgb(25,62,154)" transform="translate(0,0)"></path>
<path d="M 2001.07 311.143 C 2003.39 310.297 2005.97 311.386 2006.98 313.639 C 2007.99 315.892 2007.09 318.543 2004.92 319.715 C 2003.36 320.553 2001.47 320.452 2000.02 319.455 C 1998.56 318.457 1997.79 316.729 1998.01 314.979 C 1998.23 313.228 1999.41 311.748 2001.07 311.143 z" fill="rgb(25,62,154)" transform="translate(0,0)"></path>
<path d="M 1921.73 311.24 C 1923.82 310.086 1926.45 310.757 1927.73 312.773 C 1929 314.789 1928.49 317.451 1926.56 318.85 C 1925.2 319.834 1923.41 319.981 1921.9 319.234 C 1920.4 318.487 1919.44 316.967 1919.4 315.289 C 1919.36 313.612 1920.26 312.052 1921.73 311.24 z" fill="rgb(25,62,154)" transform="translate(0,0)"></path>
<path d="M 1901.89 351.64 C 1903.07 350.511 1904.78 350.121 1906.34 350.622 C 1907.91 351.124 1909.07 352.438 1909.37 354.048 C 1909.68 355.658 1909.09 357.307 1907.82 358.349 C 1905.96 359.883 1903.22 359.666 1901.62 357.859 C 1900.02 356.051 1900.14 353.302 1901.89 351.64 z" fill="rgb(25,62,154)" transform="translate(0,0)"></path>
<path d="M 2011.54 332.196 C 2012.99 331.768 2014.55 332.166 2015.62 333.233 C 2016.68 334.3 2017.07 335.864 2016.64 337.308 C 2016.21 338.752 2015.02 339.843 2013.55 340.15 C 2011.39 340.599 2009.27 339.268 2008.73 337.134 C 2008.19 334.999 2009.43 332.82 2011.54 332.196 z" fill="rgb(25,62,154)" transform="translate(0,0)"></path>
<path d="M 2017.88 352.363 C 2019.74 351.05 2022.31 351.5 2023.6 353.364 C 2024.9 355.228 2024.44 357.793 2022.56 359.079 C 2020.71 360.351 2018.17 359.889 2016.89 358.044 C 2015.6 356.199 2016.05 353.662 2017.88 352.363 z" fill="rgb(25,62,154)" transform="translate(0,0)"></path>
<path d="M 1912.13 330.534 C 1913.99 329.879 1916.04 330.737 1916.88 332.519 C 1917.73 334.302 1917.08 336.433 1915.4 337.454 C 1914.14 338.216 1912.56 338.195 1911.32 337.4 C 1910.09 336.605 1909.41 335.175 1909.58 333.716 C 1909.75 332.256 1910.74 331.021 1912.13 330.534 z" fill="rgb(25,62,154)" transform="translate(0,0)"></path>
<path d="M 1565.42 408.949 C 1590.59 408.713 1626.34 405.1 1648.21 416.85 C 1661.5 423.851 1671.33 436.01 1675.39 450.474 C 1679.95 466.905 1677.82 484.471 1669.47 499.338 C 1661.01 514.194 1648.29 523.127 1632.06 527.631 C 1631.58 527.749 1631.1 527.859 1630.62 527.961 C 1622.03 529.803 1600.3 534.816 1598.59 522.199 C 1594.04 488.685 1622.83 500.808 1637.21 483.688 C 1640.69 478.891 1643.04 469.455 1641.61 463.838 C 1630.5 420.232 1575.74 465.518 1565.42 408.949 z" fill="rgb(247,171,67)" transform="translate(0,0)"></path>
<path d="M 1811.77 503.125 C 1815.84 501.532 1820.71 500.621 1825.02 499.641 C 1827.49 503.5 1829.63 507.278 1831.94 511.197 C 1826.81 512.3 1823.11 513.214 1818.06 514.566 C 1792.77 521.014 1774.95 537.861 1755.99 554.162 C 1815.81 587.261 1858.24 597.738 1921.52 564.882 L 1931.3 567.535 C 1866.86 624.303 1780.08 606.844 1709.71 571.591 C 1739.53 539.928 1769.18 515.364 1811.77 503.125 z" fill="rgb(247,171,67)" transform="translate(0,0)"></path>
<path d="M 1811.77 503.125 C 1815.84 501.532 1820.71 500.621 1825.02 499.641 C 1827.49 503.5 1829.63 507.278 1831.94 511.197 C 1826.81 512.3 1823.11 513.214 1818.06 514.566 C 1815.09 512.454 1814.72 513.938 1814.66 509.914 C 1814.95 508.817 1814.72 507.649 1814.03 506.744 C 1813.35 505.84 1812.29 505.299 1811.15 505.278 L 1811.77 503.125 z" fill="rgb(247,171,67)" transform="translate(0,0)"></path>
<path d="M 1811.15 505.278 C 1812.29 505.299 1813.35 505.84 1814.03 506.744 C 1814.72 507.649 1814.95 508.817 1814.66 509.914 C 1814.17 511.779 1812.33 512.954 1810.43 512.613 C 1808.53 512.273 1807.22 510.531 1807.41 508.612 C 1807.6 506.693 1809.23 505.242 1811.15 505.278 z" fill="rgb(46,83,180)" transform="translate(0,0)"></path>
<path d="M 1741.99 559.282 C 1746.39 558.648 1750.49 561.672 1751.18 566.068 C 1751.86 570.463 1748.89 574.593 1744.5 575.332 C 1741.62 575.818 1738.69 574.715 1736.85 572.446 C 1735 570.176 1734.52 567.09 1735.59 564.366 C 1736.65 561.641 1739.1 559.7 1741.99 559.282 z" fill="rgb(25,62,154)" transform="translate(0,0)"></path>
<path d="M 1765.35 568.69 C 1768.37 567.936 1771.43 569.716 1772.27 572.706 C 1773.11 575.697 1771.42 578.811 1768.45 579.734 C 1766.46 580.354 1764.28 579.842 1762.78 578.397 C 1761.27 576.951 1760.67 574.801 1761.2 572.783 C 1761.74 570.765 1763.33 569.197 1765.35 568.69 z" fill="rgb(25,62,154)" transform="translate(0,0)"></path>
<path d="M 1749.92 540.46 C 1752.12 538.927 1755.14 539.43 1756.73 541.594 C 1758.31 543.758 1757.88 546.791 1755.76 548.426 C 1754.33 549.519 1752.43 549.756 1750.79 549.047 C 1749.14 548.337 1748.01 546.791 1747.83 545.008 C 1747.65 543.225 1748.45 541.484 1749.92 540.46 z" fill="rgb(25,62,154)" transform="translate(0,0)"></path>
<path d="M 1806.22 586.491 C 1807.7 585.524 1809.58 585.427 1811.15 586.236 C 1812.72 587.045 1813.73 588.636 1813.8 590.4 C 1813.87 592.165 1812.98 593.829 1811.48 594.758 C 1809.2 596.169 1806.21 595.485 1804.77 593.222 C 1803.33 590.959 1803.98 587.959 1806.22 586.491 z" fill="rgb(25,62,154)" transform="translate(0,0)"></path>
<path d="M 1785.51 580.639 C 1787.66 579.12 1790.64 579.617 1792.18 581.754 C 1793.72 583.891 1793.25 586.87 1791.13 588.433 C 1789.74 589.459 1787.91 589.658 1786.33 588.955 C 1784.75 588.252 1783.67 586.755 1783.5 585.035 C 1783.33 583.315 1784.1 581.636 1785.51 580.639 z" fill="rgb(25,62,154)" transform="translate(0,0)"></path>
<path d="M 1769.07 526.497 C 1770.48 525.607 1772.25 525.56 1773.7 526.373 C 1775.15 527.186 1776.03 528.729 1776 530.388 C 1775.97 532.048 1775.03 533.556 1773.55 534.314 C 1771.41 535.416 1768.78 534.636 1767.58 532.544 C 1766.38 530.452 1767.04 527.788 1769.07 526.497 z" fill="rgb(25,62,154)" transform="translate(0,0)"></path>
<path d="M 1850.63 589.764 C 1851.99 589.254 1853.52 589.517 1854.64 590.452 C 1855.76 591.387 1856.29 592.851 1856.03 594.285 C 1855.77 595.718 1854.76 596.902 1853.38 597.383 C 1851.29 598.117 1848.99 597.026 1848.23 594.938 C 1847.48 592.849 1848.54 590.542 1850.63 589.764 z" fill="rgb(25,62,154)" transform="translate(0,0)"></path>
<path d="M 1829.22 589.577 C 1831.1 588.764 1833.29 589.5 1834.3 591.282 C 1835.31 593.065 1834.81 595.321 1833.15 596.515 C 1831.9 597.409 1830.25 597.512 1828.9 596.781 C 1827.55 596.05 1826.74 594.612 1826.81 593.079 C 1826.87 591.546 1827.81 590.186 1829.22 589.577 z" fill="rgb(25,62,154)" transform="translate(0,0)"></path>
<path d="M 1872.01 587.388 C 1873.9 586.516 1876.14 587.274 1877.12 589.113 C 1878.09 590.953 1877.45 593.231 1875.67 594.3 C 1874.42 595.044 1872.87 595.041 1871.63 594.292 C 1870.39 593.543 1869.67 592.171 1869.75 590.725 C 1869.83 589.278 1870.7 587.995 1872.01 587.388 z" fill="rgb(25,62,154)" transform="translate(0,0)"></path>
<path d="M 1891.25 581.556 C 1892.28 580.772 1893.64 580.597 1894.83 581.1 C 1896.02 581.603 1896.84 582.704 1896.99 583.984 C 1897.14 585.265 1896.59 586.526 1895.55 587.287 C 1893.96 588.446 1891.74 588.114 1890.57 586.544 C 1889.39 584.974 1889.7 582.75 1891.25 581.556 z" fill="rgb(46,83,180)" transform="translate(0,0)"></path>
<path d="M 1789.86 514.238 C 1791.59 513.765 1793.39 514.656 1794.07 516.313 C 1794.74 517.969 1794.07 519.867 1792.5 520.731 C 1791.31 521.388 1789.85 521.302 1788.74 520.51 C 1787.64 519.717 1787.08 518.359 1787.32 517.02 C 1787.56 515.681 1788.55 514.598 1789.86 514.238 z" fill="rgb(25,62,154)" transform="translate(0,0)"></path>
<path d="M 1124.55 478.417 C 1134.14 477.017 1150.7 490.229 1158.45 496.016 C 1170.04 504.668 1180.02 519.048 1181.55 533.611 C 1182.74 544.932 1179.32 556.255 1172.05 565.015 C 1148.39 593.522 1107.91 584.817 1082.84 563.336 C 1080.57 561.286 1080.12 560.705 1078.37 558.186 C 1079.62 555.676 1098.63 539.629 1102.43 536.298 C 1110.91 543.671 1142.22 565.136 1146.29 538.013 C 1148.81 521.15 1111.19 504.189 1099.96 496.161 C 1094.47 492.242 1089.81 489.012 1083.9 483.156 C 1096.63 481.062 1111.73 479.454 1124.55 478.417 z" fill="rgb(247,171,67)" transform="translate(0,0)"></path>
<path d="M 699.253 471.958 C 714.731 473.797 719.465 475.631 729.809 486.649 C 729.188 536.353 765.192 563.657 812.4 542.59 C 819.111 549.682 826.448 558.652 832.896 566.147 L 824.355 571.972 C 823.809 572.306 823.254 572.627 822.692 572.933 C 803.126 583.524 780.15 585.89 758.836 579.51 C 713.88 566.312 685.502 517.318 699.253 471.958 z" fill="rgb(247,171,67)" transform="translate(0,0)"></path>
<path d="M 885.138 409.104 C 886.696 408.925 887.031 409.21 888.501 409.758 C 889.586 415.751 889.144 452.149 889.171 460.106 L 889.617 581.212 L 859.75 581.058 C 857.516 581.17 857.132 581.362 855.351 580.216 C 853.544 564.396 854.98 531.497 854.714 514.141 C 855.187 488.759 853.784 463.044 855.705 437.741 C 856.911 421.854 870.978 412.302 885.138 409.104 z" fill="rgb(247,171,67)" transform="translate(0,0)"></path>
<path d="M 1811.83 283.631 C 1842.37 288.232 1875.15 300.366 1900.93 317.517 C 1894.84 331.88 1892.19 341.247 1888.62 356.195 C 1874.52 346.401 1852.68 333.917 1841.11 322.603 C 1841.1 328.709 1840.38 336.376 1839.93 342.591 C 1839.42 371.347 1842.73 395.215 1852.65 422.17 C 1844.62 417.743 1840.23 415.646 1831.7 412.29 C 1814.26 378.901 1810 321.67 1811.83 283.631 z" fill="rgb(247,171,67)" transform="translate(0,0)"></path>
<path d="M 1868.6 317.369 C 1871.27 316.079 1874.42 316.325 1876.86 318.012 C 1879.29 319.699 1880.63 322.567 1880.36 325.517 C 1880.09 328.467 1878.25 331.043 1875.54 332.257 C 1871.45 334.099 1866.63 332.308 1864.73 328.237 C 1862.83 324.166 1864.55 319.325 1868.6 317.369 z" fill="rgb(25,62,154)" transform="translate(0,0)"></path>
<path d="M 1825.12 297.362 C 1829.32 296.059 1833.8 298.313 1835.25 302.462 C 1836.71 306.611 1834.62 311.169 1830.53 312.777 C 1827.75 313.871 1824.59 313.357 1822.29 311.435 C 1820 309.513 1818.94 306.492 1819.53 303.558 C 1820.12 300.625 1822.26 298.248 1825.12 297.362 z" fill="rgb(25,62,154)" transform="translate(0,0)"></path>
<path d="M 1826.48 327.518 C 1829.16 326.487 1832.18 327.704 1833.4 330.305 C 1834.61 332.905 1833.61 336.004 1831.11 337.401 C 1829.32 338.396 1827.12 338.311 1825.42 337.179 C 1823.71 336.048 1822.78 334.059 1823.01 332.026 C 1823.23 329.992 1824.57 328.253 1826.48 327.518 z" fill="rgb(25,62,154)" transform="translate(0,0)"></path>
<path d="M 1826.04 353.343 C 1828.19 352.006 1831.01 352.56 1832.5 354.612 C 1833.99 356.665 1833.64 359.519 1831.7 361.152 C 1830.31 362.318 1828.39 362.612 1826.72 361.914 C 1825.05 361.216 1823.91 359.643 1823.77 357.838 C 1823.62 356.032 1824.5 354.298 1826.04 353.343 z" fill="rgb(25,62,154)" transform="translate(0,0)"></path>
<path d="M 1849.19 308.473 C 1851.4 307.364 1854.08 308.142 1855.36 310.258 C 1856.63 312.374 1856.06 315.113 1854.04 316.541 C 1852.6 317.565 1850.7 317.694 1849.13 316.875 C 1847.56 316.056 1846.58 314.426 1846.59 312.655 C 1846.6 310.884 1847.61 309.269 1849.19 308.473 z" fill="rgb(25,62,154)" transform="translate(0,0)"></path>
<path d="M 1828.01 376.475 C 1829.43 375.76 1831.12 375.883 1832.42 376.794 C 1833.72 377.706 1834.41 379.258 1834.21 380.832 C 1834.02 382.405 1832.97 383.744 1831.49 384.313 C 1829.36 385.133 1826.96 384.137 1826.03 382.047 C 1825.1 379.957 1825.97 377.507 1828.01 376.475 z" fill="rgb(25,62,154)" transform="translate(0,0)"></path>
<path d="M 1833.62 398.453 C 1835.47 397.337 1837.87 397.937 1838.98 399.793 C 1840.08 401.648 1839.47 404.05 1837.61 405.147 C 1835.76 406.236 1833.38 405.629 1832.28 403.787 C 1831.18 401.945 1831.78 399.562 1833.62 398.453 z" fill="rgb(25,62,154)" transform="translate(0,0)"></path>
<path d="M 1707.55 369.428 C 1740.78 365.8 1778.38 360.893 1811.07 368.422 C 1814.99 384.223 1817.4 393.653 1823.98 408.769 C 1802.2 403.029 1781.05 398.809 1758.93 394.701 C 1773.95 420.751 1791.24 454.605 1813.72 474.784 C 1816.87 477.606 1827.89 482.284 1829.59 485.235 C 1825.98 491.912 1814.8 486.137 1810.05 483.112 C 1808.65 483.049 1807.38 482.235 1806.74 480.981 C 1777.97 459.533 1726.68 400.631 1707.55 369.428 z" fill="rgb(247,171,67)" transform="translate(0,0)"></path>
<path d="M 1806.74 480.981 C 1805.93 479.403 1806.28 477.48 1807.6 476.291 C 1808.91 475.101 1810.86 474.94 1812.35 475.899 C 1813.84 476.857 1814.5 478.696 1813.97 480.385 C 1813.43 482.074 1811.82 483.192 1810.05 483.112 C 1808.65 483.049 1807.38 482.235 1806.74 480.981 z" fill="rgb(25,62,154)" transform="translate(0,0)"></path>
<path d="M 1735.75 378.373 C 1738.68 377.382 1741.92 378.073 1744.2 380.175 C 1746.48 382.277 1747.42 385.454 1746.67 388.459 C 1745.91 391.464 1743.58 393.818 1740.58 394.596 C 1736.17 395.741 1731.64 393.186 1730.34 388.817 C 1729.03 384.447 1731.43 379.831 1735.75 378.373 z" fill="rgb(25,62,154)" transform="translate(0,0)"></path>
<path d="M 1784.37 374.428 C 1788.55 372.978 1793.11 375.172 1794.58 379.338 C 1796.06 383.504 1793.89 388.079 1789.73 389.576 C 1785.54 391.084 1780.92 388.895 1779.44 384.696 C 1777.95 380.496 1780.16 375.89 1784.37 374.428 z" fill="rgb(25,62,154)" transform="translate(0,0)"></path>
<path d="M 1747.79 404.125 C 1750.12 402.837 1753.06 403.546 1754.55 405.759 C 1756.04 407.973 1755.6 410.959 1753.53 412.643 C 1752.01 413.876 1749.93 414.147 1748.15 413.343 C 1746.37 412.539 1745.2 410.799 1745.12 408.847 C 1745.04 406.895 1746.08 405.067 1747.79 404.125 z" fill="rgb(25,62,154)" transform="translate(0,0)"></path>
<path d="M 1760.19 378.562 C 1761.75 377.696 1763.66 377.758 1765.17 378.722 C 1766.67 379.687 1767.52 381.399 1767.39 383.18 C 1767.25 384.96 1766.15 386.523 1764.51 387.247 C 1762.14 388.301 1759.36 387.298 1758.2 384.973 C 1757.04 382.647 1757.92 379.822 1760.19 378.562 z" fill="rgb(25,62,154)" transform="translate(0,0)"></path>
<path d="M 1765.77 422.403 C 1768.19 421.699 1770.73 423.065 1771.48 425.473 C 1772.23 427.881 1770.91 430.443 1768.51 431.233 C 1766.93 431.757 1765.18 431.384 1763.95 430.256 C 1762.71 429.129 1762.18 427.423 1762.56 425.795 C 1762.94 424.167 1764.17 422.87 1765.77 422.403 z" fill="rgb(25,62,154)" transform="translate(0,0)"></path>
<path d="M 1776.37 440.671 C 1778.24 439.146 1780.99 439.422 1782.52 441.289 C 1784.05 443.155 1783.77 445.906 1781.91 447.435 C 1780.04 448.965 1777.28 448.691 1775.75 446.822 C 1774.23 444.953 1774.5 442.199 1776.37 440.671 z" fill="rgb(25,62,154)" transform="translate(0,0)"></path>
<path d="M 1792.12 458.575 C 1793.96 457.925 1795.97 458.88 1796.63 460.71 C 1797.29 462.541 1796.34 464.559 1794.51 465.226 C 1792.67 465.897 1790.64 464.944 1789.98 463.101 C 1789.31 461.259 1790.28 459.229 1792.12 458.575 z" fill="rgb(46,83,180)" transform="translate(0,0)"></path>
<path d="M 141.758 597.062 L 142.566 597.905 C 142.025 601.284 131.197 627.349 129.464 631.847 C 116.187 666.308 100.487 701.024 87.863 735.643 C 77.9998 732.696 75.9896 733.581 74.2621 723.108 C 69.1049 693.917 64.9021 662.343 60.4912 632.947 C 83.7084 621.267 117.28 607.811 141.758 597.062 z" fill="rgb(25,62,154)" transform="translate(0,0)"></path>
<path d="M 1559.32 417.831 C 1559.94 418.482 1563.91 424.967 1564.79 426.162 C 1573.87 438.489 1580.07 441.7 1594.02 446.251 L 1594.01 581.453 L 1559.32 581.223 L 1559.32 417.831 z" fill="rgb(247,171,67)" transform="translate(0,0)"></path>
<path d="M 368.701 425.054 L 371.421 423.119 C 380.913 437.352 386.961 441.617 403.201 446.418 C 403.366 491.389 403.294 536.361 402.986 581.332 C 391.602 581.45 380.218 581.469 368.835 581.387 L 368.701 425.054 z" fill="rgb(247,171,67)" transform="translate(0,0)"></path>
<path d="M 87.4982 518.456 C 91.7661 521.278 137.862 582.386 143.326 590.458 C 126.04 597.26 107.919 605.326 90.7436 612.623 C 79.7396 617.578 68.7978 622.671 57.9207 627.898 C 54.7302 623.487 50.8499 619.219 47.2618 615.092 C 61.1155 584.373 74.118 549.989 87.4982 518.456 z" fill="rgb(25,62,154)" transform="translate(0,0)"></path>
<path d="M 1963.62 558.84 C 1972.85 567.319 1978.49 580.489 1985.34 590.719 C 2002.34 616.092 2007.72 656.218 1967.8 662.422 C 1960.12 662.369 1951.28 660.757 1945.04 656.247 C 1910.86 631.545 1948.54 581.187 1963.62 558.84 z" fill="rgb(251,163,58)" transform="translate(0,0)"></path>
<path d="M 1964.23 564.965 C 1978.06 586.151 2012.23 631.58 1981.27 653.192 C 1976.38 656.603 1971.45 657.637 1965.62 658.45 C 1933.89 654.818 1929.82 629.263 1941.68 604.193 C 1948.52 589.737 1955.68 578.43 1964.23 564.965 z" fill="rgb(96,43,22)" transform="translate(0,0)"></path>
<path d="M 1963.79 568.5 C 1970.01 571.448 1990.95 612.992 1991.61 622.12 C 1993 641.405 1986.03 653.441 1967.11 656.171 C 1953.83 655.689 1941.27 649.571 1938.33 635.86 C 1933.51 613.358 1952.5 586.474 1963.79 568.5 z" fill="rgb(231,95,56)" transform="translate(0,0)"></path>
<path d="M 781.727 406.438 C 803.321 406.874 815.755 411.798 833.242 423.987 C 825.622 431.524 818.035 440.006 810.727 447.909 C 786.071 434.537 760.453 438.398 741.615 459.489 C 736.546 465.92 733.834 472.469 730.875 479.973 C 720.105 470.107 714.57 469.298 700.393 466.811 C 714.631 429.532 741.739 409.189 781.727 406.438 z" fill="rgb(247,171,67)" transform="translate(0,0)"></path>
<path d="M 1369.41 472.338 C 1383.06 473.552 1391.46 474.608 1400.11 486.347 C 1399.38 519.886 1415.38 544.869 1450.18 550.34 C 1450.24 556.503 1450.87 577.548 1449.6 582.301 L 1447.83 583.073 C 1442 582.29 1436.41 581.574 1430.74 579.964 C 1408.15 573.618 1389.06 558.48 1377.73 537.938 C 1366.38 517.592 1362.96 494.821 1369.41 472.338 z" fill="rgb(247,171,67)" transform="translate(0,0)"></path>
<path d="M 672.035 473.32 C 673.959 472.902 674.044 473.1 675.861 473.747 C 676.934 475.672 677.578 477.434 677.836 479.64 C 683.974 532.085 653.513 574.349 601.23 582.884 C 598.831 583.078 597.575 583.458 595.544 582.237 C 592.62 577.269 594.105 557.908 594.294 550.758 C 632.482 544.858 644.373 520.891 645.716 485.995 C 655.401 476.267 658.789 475.422 672.035 473.32 z" fill="rgb(247,171,67)" transform="translate(0,0)"></path>
<path d="M 507.98 472.858 C 521.244 473.423 531.076 476.562 539.425 487.28 C 538.076 519.863 557.009 545.547 589.695 550.397 L 589.259 583.174 C 585.946 582.934 582.646 582.546 579.367 582.011 C 556.332 578.263 535.894 565.206 522.551 546.199 C 506.083 522.741 503.41 500.337 507.98 472.858 z" fill="rgb(247,171,67)" transform="translate(0,0)"></path>
<path d="M 1533.74 473.295 L 1535.44 473.254 C 1537.95 475.645 1538.23 478.854 1538.66 482.258 C 1545.03 532.873 1511.35 576.378 1460.4 582.628 L 1457.49 582.793 L 1456.01 581.402 C 1454.6 574.718 1455.25 558.092 1455.33 550.343 C 1490.05 545.433 1506.31 521.698 1506.04 487.7 C 1514.08 477.946 1521.84 474.994 1533.74 473.295 z" fill="rgb(247,171,67)" transform="translate(0,0)"></path>
<path d="M 1119.31 407.196 C 1145.84 404.859 1160.58 411.08 1180.98 427.313 L 1159.63 450.412 C 1143.7 437.057 1115.68 430.018 1106.54 454.671 C 1108.74 465.64 1112.83 467.758 1121.82 473.781 C 1108.64 475.422 1093.47 477.005 1080.58 479.378 C 1059.44 442.752 1082.75 414.581 1119.31 407.196 z" fill="rgb(247,171,67)" transform="translate(0,0)"></path>
<path d="M 99.2864 490.469 C 122.818 499.31 147.27 510.342 171.343 519.592 C 165.785 538.052 159.499 556.284 152.499 574.247 L 147.646 586.665 C 135.157 568.601 120.519 551.104 107.327 533.516 C 102.043 526.473 96.0105 518.644 90.0006 512.283 C 93.2259 505.068 96.3217 497.795 99.2864 490.469 z" fill="rgb(25,62,154)" transform="translate(0,0)"></path>
<path d="M 188.834 580.128 L 189.702 581.098 C 188.02 586.416 170.599 620.731 167.181 627.456 C 152.683 655.985 139.079 688.114 123.81 715.861 C 115.663 719.549 107.58 723.375 99.563 727.338 L 98.6076 726.376 C 113.171 683.949 134.94 636.599 150.928 593.921 C 162.24 589.256 176.901 584.606 188.834 580.128 z" fill="rgb(25,62,154)" transform="translate(0,0)"></path>
<path d="M 584.725 406.364 L 588.004 406.279 C 591.306 410.542 589.855 431.503 589.751 438.607 C 562.215 443.122 550.045 454.676 540.527 480.064 C 534.987 475.29 532.483 473.395 525.611 470.853 C 521.675 469.765 513.83 468.437 509.592 467.607 C 523.614 431.471 545.897 411.449 584.725 406.364 z" fill="rgb(247,171,67)" transform="translate(0,0)"></path>
<path d="M 1455.15 405.836 C 1495.99 409.382 1521.52 429.835 1535.58 468.359 C 1531.49 468.701 1527.4 469.082 1523.32 469.503 C 1514.05 472.799 1511.54 474.389 1504.72 481.176 C 1496.5 454.573 1482.44 443.627 1455.26 438.492 L 1455.15 405.836 z" fill="rgb(247,171,67)" transform="translate(0,0)"></path>
<path d="M 1445.61 406.378 C 1446.4 406.26 1448.37 406.469 1449.26 406.532 C 1451.55 409.684 1450.69 433.099 1450.81 438.395 C 1424.29 442.841 1410.51 453.845 1401.75 479.32 C 1395.98 474.818 1393.61 473.477 1387.1 470.655 C 1382.26 468.963 1375.79 467.811 1370.66 466.735 C 1382.85 432.248 1409.34 410.534 1445.61 406.378 z" fill="rgb(247,171,67)" transform="translate(0,0)"></path>
<path d="M 594.762 405.938 C 634.731 406.985 660.341 432.763 675.111 467.681 L 664.161 469.27 C 654.648 471.421 650.363 474.724 644.162 481.519 C 638.176 456.241 619.889 442.131 595.016 438.499 L 594.762 405.938 z" fill="rgb(247,171,67)" transform="translate(0,0)"></path>
<path d="M 1831.73 517.204 L 1835.99 516.811 C 1839.25 518.098 1842.59 522.591 1845.04 525.385 C 1818.52 530.543 1808.96 535.393 1786.88 551.929 C 1796.93 554.324 1807.88 559.465 1817.97 562.588 C 1845.57 571.128 1871.85 569.435 1897.94 557.519 C 1902.98 559.419 1909.55 561.373 1914.78 563.077 L 1903.25 568.377 C 1850.49 588.621 1813.92 578.408 1765.27 553.734 C 1788.03 532.368 1800.87 523.687 1831.73 517.204 z" fill="rgb(25,62,154)" transform="translate(0,0)"></path>
<path d="M 1846.08 334.581 C 1870.09 351.444 1893.28 359.927 1909.7 384.803 C 1909.69 391.72 1909.73 396.579 1910.39 403.304 C 1910.84 407.776 1914.5 423.656 1914.15 426.556 C 1910.99 428.244 1910.46 428.352 1907 429.027 C 1905.23 426.711 1905.33 415.97 1904.62 411.874 C 1899.32 381.227 1883.64 369.286 1860.48 352.289 C 1858.14 350.737 1859.14 350.977 1856.47 350.835 C 1854.69 353.562 1855.33 356.354 1855.11 359.524 C 1852.97 391.309 1865.18 415.78 1888.38 437.074 C 1883.17 439.998 1878.2 443.11 1873.13 446.253 C 1855.4 419.999 1847.31 397.162 1845.24 365.411 C 1844.57 355.096 1844.11 344.823 1846.08 334.581 z" fill="rgb(25,62,154)" transform="translate(0,0)"></path>
<path d="M 1398.93 762.136 C 1401.27 761.891 1403.63 761.733 1405.98 761.661 C 1425.17 761.179 1435.95 768.443 1449.06 780.898 C 1438.87 790.396 1430.48 794.685 1417.25 798.315 C 1416.56 798.44 1415.86 798.541 1415.17 798.618 C 1395.01 800.955 1380.97 792.625 1366.07 780.649 C 1375.61 771.324 1386.15 765.561 1398.93 762.136 z" fill="rgb(247,171,67)" transform="translate(0,0)"></path>
<path d="M 1402.75 766.728 C 1406.36 766.042 1407.16 765.704 1410.85 766.491 C 1412.4 766.724 1413.79 766.953 1415.32 767.26 C 1427.85 771.516 1429.57 772.345 1440.4 780.577 C 1430.64 787.444 1427.45 789.677 1415.86 792.685 C 1410.38 794.368 1405.98 794.069 1400.55 792.666 C 1389.66 789.734 1384.18 786.478 1375 780.084 C 1386.49 772.38 1385.87 772.809 1398.4 767.793 C 1399.85 767.416 1401.3 767.061 1402.75 766.728 z" fill="rgb(247,171,67)" transform="translate(0,0)"></path>
<path d="M 1415.32 767.26 C 1427.85 771.516 1429.57 772.345 1440.4 780.577 C 1430.64 787.444 1427.45 789.677 1415.86 792.685 L 1414.87 791.082 C 1423.01 783.993 1423.41 775.36 1414.17 768.816 L 1415.32 767.26 z" fill="rgb(1,0,0)" transform="translate(0,0)"></path>
<path d="M 1398.4 767.793 L 1398.81 770.787 C 1393.15 778.345 1393.29 785.067 1401.26 790.89 L 1400.55 792.666 C 1389.66 789.734 1384.18 786.478 1375 780.084 C 1386.49 772.38 1385.87 772.809 1398.4 767.793 z" fill="rgb(1,0,0)" transform="translate(0,0)"></path>
<path d="M 1402.75 766.728 C 1406.36 766.042 1407.16 765.704 1410.85 766.491 C 1412.4 766.724 1413.79 766.953 1415.32 767.26 L 1414.17 768.816 C 1406.76 767.335 1405.62 767.452 1398.81 770.787 L 1398.4 767.793 C 1399.85 767.416 1401.3 767.061 1402.75 766.728 z" fill="rgb(57,38,17)" transform="translate(0,0)"></path>
<path d="M 1402.75 766.728 C 1406.36 766.042 1407.16 765.704 1410.85 766.491 C 1406.91 767.265 1406.63 767.082 1402.75 766.728 z" fill="rgb(166,115,48)" transform="translate(0,0)"></path>
<path d="M 1401.26 790.89 C 1407.64 792.428 1408.55 792.321 1414.87 791.082 L 1415.86 792.685 C 1410.38 794.368 1405.98 794.069 1400.55 792.666 L 1401.26 790.89 z" fill="rgb(92,62,24)" transform="translate(0,0)"></path>
<path d="M 1508.05 762.146 C 1509.02 762.051 1509.98 761.982 1510.95 761.937 C 1532.34 760.912 1542.86 766.739 1558.2 780.61 C 1548.23 791.142 1538.67 795.084 1525.07 798.706 C 1503.27 800.676 1491.97 792.878 1474.96 781.094 C 1484.75 772.135 1495.08 765.319 1508.05 762.146 z" fill="rgb(247,171,67)" transform="translate(0,0)"></path>
<path d="M 1509.94 767.345 C 1516.53 766.731 1520.48 766.689 1526.93 768.282 C 1538.85 772.791 1539.01 772.732 1548.62 780.814 C 1541.75 787.261 1534 790.365 1524.99 792.758 C 1519.35 794.162 1514.68 794.524 1509.09 792.63 C 1498.25 789.681 1494.17 786.93 1485.07 780.623 C 1495.25 772.764 1497.41 770.779 1509.94 767.345 z" fill="rgb(247,171,67)" transform="translate(0,0)"></path>
<path d="M 1509.94 767.345 L 1510.85 769.539 C 1503.01 776.24 1502.43 783.719 1509.98 791.141 L 1509.09 792.63 C 1498.25 789.681 1494.17 786.93 1485.07 780.623 C 1495.25 772.764 1497.41 770.779 1509.94 767.345 z" fill="rgb(1,0,0)" transform="translate(0,0)"></path>
<path d="M 1526.93 768.282 C 1538.85 772.791 1539.01 772.732 1548.62 780.814 C 1541.75 787.261 1534 790.365 1524.99 792.758 L 1523.92 791.088 C 1530.46 785.134 1531.35 779.913 1527.3 771.995 C 1527.17 770.758 1527.04 769.521 1526.93 768.282 z" fill="rgb(1,0,0)" transform="translate(0,0)"></path>
<path d="M 1509.94 767.345 C 1516.53 766.731 1520.48 766.689 1526.93 768.282 C 1527.04 769.521 1527.17 770.758 1527.3 771.995 C 1520.95 768.397 1518.34 768.108 1510.85 769.539 L 1509.94 767.345 z" fill="rgb(57,38,17)" transform="translate(0,0)"></path>
<path d="M 1509.98 791.141 C 1516.01 792.392 1517.98 792.31 1523.92 791.088 L 1524.99 792.758 C 1519.35 794.162 1514.68 794.524 1509.09 792.63 L 1509.98 791.141 z" fill="rgb(92,62,24)" transform="translate(0,0)"></path>
<path d="M 1861.05 762.161 C 1863.01 761.94 1864.99 761.803 1866.97 761.75 C 1886.38 761.172 1897.25 768.237 1910.65 780.918 C 1900.39 790.73 1893.74 793.731 1880.31 797.993 C 1859.84 801.502 1843.32 794.776 1828.77 780.521 C 1838.08 770.23 1848.14 765.824 1861.05 762.161 z" fill="rgb(247,171,67)" transform="translate(0,0)"></path>
<path d="M 1860.06 768.194 C 1865.29 766.665 1871.85 766.744 1877.26 767.349 C 1889.95 772.001 1890.95 771.292 1901.6 780.75 C 1893.36 787.316 1887.47 790.465 1876.94 792.671 C 1873.78 793.455 1864.93 793.175 1861.59 792.761 C 1850.71 788.83 1846.27 787.983 1837.11 779.99 C 1846.37 773.715 1849.15 771.552 1860.06 768.194 z" fill="rgb(247,171,67)" transform="translate(0,0)"></path>
<path d="M 1877.26 767.349 C 1889.95 772.001 1890.95 771.292 1901.6 780.75 C 1893.36 787.316 1887.47 790.465 1876.94 792.671 L 1875.81 790.928 C 1885.48 784.766 1883.98 775.308 1875.09 769.236 L 1877.26 767.349 z" fill="rgb(1,0,0)" transform="translate(0,0)"></path>
<path d="M 1860.06 768.194 L 1860.98 770.735 C 1856.02 777.943 1855.74 785.397 1862.8 791.064 L 1861.59 792.761 C 1850.71 788.83 1846.27 787.983 1837.11 779.99 C 1846.37 773.715 1849.15 771.552 1860.06 768.194 z" fill="rgb(1,0,0)" transform="translate(0,0)"></path>
<path d="M 1860.06 768.194 C 1865.29 766.665 1871.85 766.744 1877.26 767.349 L 1875.09 769.236 L 1870.82 768.68 C 1868.82 768.743 1868.48 768.737 1866.5 768.363 C 1864.54 769.297 1863.01 769.968 1860.98 770.735 L 1860.06 768.194 z" fill="rgb(57,38,17)" transform="translate(0,0)"></path>
<path d="M 1866.5 768.363 C 1868.53 767.771 1869.01 767.412 1870.82 768.68 C 1868.82 768.743 1868.48 768.737 1866.5 768.363 z" fill="rgb(166,115,48)" transform="translate(0,0)"></path>
<path d="M 1862.8 791.064 C 1869.2 791.614 1869.57 791.414 1875.81 790.928 L 1876.94 792.671 C 1873.78 793.455 1864.93 793.175 1861.59 792.761 L 1862.8 791.064 z" fill="rgb(57,38,17)" transform="translate(0,0)"></path>
<path d="M 587.965 762.138 C 589.223 762.028 590.483 761.942 591.744 761.88 C 612.998 760.832 623.163 767.075 638.359 780.768 C 627.673 790.558 620.156 794.521 606.363 798.252 C 605.163 798.462 603.956 798.621 602.742 798.728 C 583.596 800.421 569.591 792.31 555.632 780.707 C 565.198 771.922 575.31 765.34 587.965 762.138 z" fill="rgb(247,171,67)" transform="translate(0,0)"></path>
<path d="M 589.331 767.778 C 592.635 766.696 601.651 766.69 605.193 767.163 C 616.503 770.892 620.501 772.857 629.439 780.397 C 621.344 786.813 615.715 790.465 605.381 792.584 C 603.955 792.924 602.527 793.17 601.086 793.436 C 597.961 794.617 595.832 793.895 592.61 793.245 C 591.338 793.022 590.06 792.834 588.777 792.682 C 576.95 787.807 576.519 788.268 565.273 780.563 C 573.723 773.936 577.67 770.625 588.185 767.892 L 589.331 767.778 z" fill="rgb(247,171,67)" transform="translate(0,0)"></path>
<path d="M 605.193 767.163 C 616.503 770.892 620.501 772.857 629.439 780.397 C 621.344 786.813 615.715 790.465 605.381 792.584 L 604.632 790.849 C 612.752 783.865 612.119 775.679 603.908 769.032 L 605.193 767.163 z" fill="rgb(1,0,0)" transform="translate(0,0)"></path>
<path d="M 565.273 780.563 C 573.723 773.936 577.67 770.625 588.185 767.892 L 589.356 770.42 C 583.271 776.615 584.118 782.666 588.95 789.196 L 588.777 792.682 C 576.95 787.807 576.519 788.268 565.273 780.563 z" fill="rgb(1,0,0)" transform="translate(0,0)"></path>
<path d="M 588.95 789.196 C 589.616 789.487 590.279 789.786 590.938 790.092 C 596.733 792.733 599.149 792.121 604.632 790.849 L 605.381 792.584 C 603.955 792.924 602.527 793.17 601.086 793.436 C 597.961 794.617 595.832 793.895 592.61 793.245 C 591.338 793.022 590.06 792.834 588.777 792.682 L 588.95 789.196 z" fill="rgb(57,38,17)" transform="translate(0,0)"></path>
<path d="M 592.61 793.245 C 596.415 792.894 597.277 792.48 601.086 793.436 C 597.961 794.617 595.832 793.895 592.61 793.245 z" fill="rgb(135,93,39)" transform="translate(0,0)"></path>
<path d="M 589.331 767.778 C 592.635 766.696 601.651 766.69 605.193 767.163 L 603.908 769.032 L 599.833 768.783 C 597.608 768.863 595.568 768.834 593.349 768.795 L 592.356 768.769 C 591.353 768.423 590.345 768.093 589.331 767.778 z" fill="rgb(57,38,17)" transform="translate(0,0)"></path>
<path d="M 593.349 768.795 C 596.122 767.926 597.284 767.072 599.833 768.783 C 597.608 768.863 595.568 768.834 593.349 768.795 z" fill="rgb(166,115,48)" transform="translate(0,0)"></path>
<path d="M 589.331 767.778 C 590.345 768.093 591.353 768.423 592.356 768.769 C 591.365 769.309 590.327 769.854 589.356 770.42 L 588.185 767.892 L 589.331 767.778 z" fill="rgb(20,7,3)" transform="translate(0,0)"></path>
<path d="M 483.78 762.242 C 484.851 762.096 485.928 761.999 487.008 761.951 C 507.537 760.993 518.543 767.369 533.129 780.591 C 523.082 789.8 514.069 794.821 500.941 798.011 C 500.002 798.175 499.058 798.308 498.11 798.411 C 479.167 800.473 463.772 792.01 449.593 780.593 C 461.58 770.572 468.419 765.408 483.78 762.242 z" fill="rgb(247,171,67)" transform="translate(0,0)"></path>
<path d="M 482.05 768.068 C 488.871 766.832 493.214 766.526 500.213 767.331 C 512.41 772.406 513.162 772.295 524.412 780.567 C 515.73 787.26 509.704 789.948 499.042 792.642 L 496.429 793.374 C 492.944 794.132 491.725 794.48 488.372 793.177 L 487.038 793.141 C 474.751 790.266 469.827 787.141 459.52 780.427 C 468.94 774.043 471.127 771.95 482.05 768.068 z" fill="rgb(247,171,67)" transform="translate(0,0)"></path>
<path d="M 500.213 767.331 C 512.41 772.406 513.162 772.295 524.412 780.567 C 515.73 787.26 509.704 789.948 499.042 792.642 L 498.026 791.092 C 506.732 784.43 507.574 775.932 498.096 769.18 L 500.213 767.331 z" fill="rgb(1,0,0)" transform="translate(0,0)"></path>
<path d="M 482.05 768.068 C 482.903 768.597 483.75 769.136 484.59 769.686 C 484.034 770.293 483.47 770.891 482.897 771.48 C 476.964 777.669 478.808 786.405 486.055 790.829 L 487.038 793.141 C 474.751 790.266 469.827 787.141 459.52 780.427 C 468.94 774.043 471.127 771.95 482.05 768.068 z" fill="rgb(1,0,0)" transform="translate(0,0)"></path>
<path d="M 482.05 768.068 C 488.871 766.832 493.214 766.526 500.213 767.331 L 498.096 769.18 C 490.827 768.577 491.532 768.639 484.59 769.686 C 483.75 769.136 482.903 768.597 482.05 768.068 z" fill="rgb(57,38,17)" transform="translate(0,0)"></path>
<path d="M 486.055 790.829 C 492.39 791.971 491.836 791.892 498.026 791.092 L 499.042 792.642 L 496.429 793.374 C 492.944 794.132 491.725 794.48 488.372 793.177 L 487.038 793.141 L 486.055 790.829 z" fill="rgb(57,38,17)" transform="translate(0,0)"></path>
<path d="M 488.372 793.177 C 492.153 792.823 492.712 792.907 496.429 793.374 C 492.944 794.132 491.725 794.48 488.372 793.177 z" fill="rgb(166,115,48)" transform="translate(0,0)"></path>
<path d="M 130.114 762.199 C 151.699 760.617 164.829 765.421 179.246 781.18 C 169.439 790.559 160.729 794.514 147.891 797.925 C 146.271 798.256 144.637 798.509 142.992 798.683 C 124.756 800.51 110.018 791.684 96.664 780.608 C 107.13 771.014 116.461 765.741 130.114 762.199 z" fill="rgb(247,171,67)" transform="translate(0,0)"></path>
<path d="M 130.158 767.856 C 136.123 766.523 141.995 766.616 147.914 768.025 C 157.568 771.144 162.778 774.052 170.436 780.765 C 159.47 788.663 157.926 788.21 146.296 792.623 C 142.047 793.185 135.119 793.58 131.022 792.68 C 120.133 789.661 115.218 787.43 106.177 780.731 C 114.631 773.524 119.345 770.823 130.158 767.856 z" fill="rgb(247,171,67)" transform="translate(0,0)"></path>
<path d="M 147.914 768.025 C 157.568 771.144 162.778 774.052 170.436 780.765 C 159.47 788.663 157.926 788.21 146.296 792.623 L 143.971 790.767 C 153.572 784.445 152.916 777.953 145.431 770.067 C 146.298 769.305 146.97 768.703 147.914 768.025 z" fill="rgb(1,0,0)" transform="translate(0,0)"></path>
<path d="M 106.177 780.731 C 114.631 773.524 119.345 770.823 130.158 767.856 L 130.791 769.43 C 130.246 770.012 129.694 770.589 129.136 771.161 C 123.28 777.246 125.184 785.629 131.58 790.593 L 131.022 792.68 C 120.133 789.661 115.218 787.43 106.177 780.731 z" fill="rgb(1,0,0)" transform="translate(0,0)"></path>
<path d="M 130.158 767.856 C 136.123 766.523 141.995 766.616 147.914 768.025 C 146.97 768.703 146.298 769.305 145.431 770.067 C 143.247 769.701 141.607 768.98 139.51 768.279 C 137.513 768.748 137.315 768.926 135.36 768.667 C 133.842 768.918 132.305 769.161 130.791 769.43 L 130.158 767.856 z" fill="rgb(57,38,17)" transform="translate(0,0)"></path>
<path d="M 135.36 768.667 C 137.014 767.376 137.57 767.787 139.51 768.279 C 137.513 768.748 137.315 768.926 135.36 768.667 z" fill="rgb(135,93,39)" transform="translate(0,0)"></path>
<path d="M 131.58 790.593 C 137.278 791.238 138.209 791.271 143.971 790.767 L 146.296 792.623 C 142.047 793.185 135.119 793.58 131.022 792.68 L 131.58 790.593 z" fill="rgb(57,38,17)" transform="translate(0,0)"></path>
<path d="M 936.882 762.235 C 959.289 760.325 971.318 765.409 987.132 780.722 C 977.447 790.052 969.476 793.933 956.713 797.888 C 955.032 798.269 953.329 798.539 951.613 798.697 C 932.228 800.508 919.149 792.432 905.157 780.804 C 916.338 771 922.391 766.184 936.882 762.235 z" fill="rgb(247,171,67)" transform="translate(0,0)"></path>
<path d="M 938.157 767.861 C 942.888 766.707 949.186 766.64 954.02 767.279 C 965.965 772.497 967.34 771.671 978.497 780.536 C 969.903 787.473 964.646 789.584 954.114 792.714 C 950.801 793.364 942.371 793.557 939.184 792.602 C 936.468 791.912 912.33 784.535 915.953 779.639 C 919.721 774.547 931.785 769.521 938.157 767.861 z" fill="rgb(247,171,67)" transform="translate(0,0)"></path>
<path d="M 939.184 792.602 C 936.468 791.912 912.33 784.535 915.953 779.639 C 919.721 774.547 931.785 769.521 938.157 767.861 L 938.779 769.329 C 931.702 777.237 931.868 783.93 940.236 790.939 L 939.184 792.602 z" fill="rgb(1,0,0)" transform="translate(0,0)"></path>
<path d="M 954.02 767.279 C 965.965 772.497 967.34 771.671 978.497 780.536 C 969.903 787.473 964.646 789.584 954.114 792.714 L 952.976 790.861 C 961.907 784.859 961.738 776.041 953.143 769.606 L 954.02 767.279 z" fill="rgb(1,0,0)" transform="translate(0,0)"></path>
<path d="M 938.157 767.861 C 942.888 766.707 949.186 766.64 954.02 767.279 L 953.143 769.606 C 951.333 769.239 949.481 768.952 947.656 768.649 C 945.704 768.871 945.342 768.875 943.34 768.673 L 938.779 769.329 L 938.157 767.861 z" fill="rgb(57,38,17)" transform="translate(0,0)"></path>
<path d="M 943.34 768.673 C 944.967 767.528 945.965 767.572 947.656 768.649 C 945.704 768.871 945.342 768.875 943.34 768.673 z" fill="rgb(166,115,48)" transform="translate(0,0)"></path>
<path d="M 940.236 790.939 C 947.135 792.154 946.275 791.814 952.976 790.861 L 954.114 792.714 C 950.801 793.364 942.371 793.557 939.184 792.602 L 940.236 790.939 z" fill="rgb(57,38,17)" transform="translate(0,0)"></path>
<path d="M 1963.15 762.189 C 1985.32 760.114 1996.11 766.516 2012.52 780.105 C 2003.11 789.391 1994.27 794.154 1981.69 797.642 C 1961.35 802.038 1945.41 793.561 1930.35 780.945 C 1939.58 770.783 1949.72 764.981 1963.15 762.189 z" fill="rgb(247,171,67)" transform="translate(0,0)"></path>
<path d="M 1964.84 767.431 C 1968.12 766.621 1975.5 766.698 1978.92 767.189 C 1991.34 771.909 1993.24 772.691 2004.02 780.647 C 1993.91 787.912 1990.72 789.028 1978.98 792.733 C 1973.82 793.2 1968.43 793.317 1963.3 792.599 C 1952.82 788.945 1948.08 787.958 1939.31 780.487 C 1948.95 772.811 1953.03 770.694 1964.84 767.431 z" fill="rgb(247,171,67)" transform="translate(0,0)"></path>
<path d="M 1975.09 768.022 C 1976.39 767.7 1977.58 767.383 1978.92 767.189 C 1991.34 771.909 1993.24 772.691 2004.02 780.647 C 1993.91 787.912 1990.72 789.028 1978.98 792.733 L 1979.05 790.475 C 1988.05 781.185 1985.19 774.281 1975.09 768.022 z" fill="rgb(1,0,0)" transform="translate(0,0)"></path>
<path d="M 1939.31 780.487 C 1948.95 772.811 1953.03 770.694 1964.84 767.431 L 1965.92 768.707 C 1957.39 774.288 1956.7 781.358 1962.82 789.238 L 1963.3 792.599 C 1952.82 788.945 1948.08 787.958 1939.31 780.487 z" fill="rgb(1,0,0)" transform="translate(0,0)"></path>
<path d="M 1962.82 789.238 C 1965.06 790.021 1967.14 790.864 1969.42 791.634 C 1971.45 791.223 1971.6 791.188 1973.69 791.354 C 1975.48 791.082 1977.27 790.789 1979.05 790.475 L 1978.98 792.733 C 1973.82 793.2 1968.43 793.317 1963.3 792.599 L 1962.82 789.238 z" fill="rgb(57,38,17)" transform="translate(0,0)"></path>
<path d="M 1969.42 791.634 C 1971.45 791.223 1971.6 791.188 1973.69 791.354 C 1971.88 792.614 1971.46 792.203 1969.42 791.634 z" fill="rgb(135,93,39)" transform="translate(0,0)"></path>
<path d="M 1964.84 767.431 C 1968.12 766.621 1975.5 766.698 1978.92 767.189 C 1977.58 767.383 1976.39 767.7 1975.09 768.022 L 1972.31 768.799 C 1971.52 768.794 1970.85 768.796 1970.05 768.747 L 1965.92 768.707 L 1964.84 767.431 z" fill="rgb(57,38,17)" transform="translate(0,0)"></path>
<path d="M 1970.05 768.747 C 1971.04 768.232 1971.3 768.303 1972.31 768.799 C 1971.52 768.794 1970.85 768.796 1970.05 768.747 z" fill="rgb(166,115,48)" transform="translate(0,0)"></path>
<path d="M 1041.03 762.141 C 1043.66 761.886 1046.3 761.746 1048.95 761.72 C 1066.58 761.616 1078.49 769.299 1090.57 781.133 C 1080.21 789.534 1073.61 794.046 1060.75 797.597 C 1040.18 801.594 1023.3 794.483 1008.59 780.43 C 1018.21 771.202 1028.19 765.562 1041.03 762.141 z" fill="rgb(247,171,67)" transform="translate(0,0)"></path>
<path d="M 1049.17 766.414 C 1050.06 766.533 1050.76 766.555 1051.66 766.602 L 1053.94 768.785 C 1055.04 769.217 1056.1 769.576 1057.21 769.962 L 1057.7 767.514 C 1070.63 772.812 1070.31 771.187 1081.85 781.095 C 1072.2 787.712 1068.37 790.101 1056.82 792.618 C 1053.29 793.689 1045.05 793.153 1041.34 792.076 C 1031.35 789.947 1026.01 786.663 1017.92 780.985 C 1026.91 772.82 1030.76 770.093 1042.61 767.519 C 1044.98 766.895 1046.75 766.726 1049.17 766.414 z" fill="rgb(247,171,67)" transform="translate(0,0)"></path>
<path d="M 1057.7 767.514 C 1070.63 772.812 1070.31 771.187 1081.85 781.095 C 1072.2 787.712 1068.37 790.101 1056.82 792.618 L 1055.68 790.859 C 1063.57 785.149 1064.25 776.671 1057.21 769.962 L 1057.7 767.514 z" fill="rgb(1,0,0)" transform="translate(0,0)"></path>
<path d="M 1017.92 780.985 C 1026.91 772.82 1030.76 770.093 1042.61 767.519 L 1043.14 768.952 C 1035.5 775.626 1034.68 783.754 1042.65 790.525 L 1041.34 792.076 C 1031.35 789.947 1026.01 786.663 1017.92 780.985 z" fill="rgb(1,0,0)" transform="translate(0,0)"></path>
<path d="M 1042.65 790.525 C 1049.83 791.843 1048.64 791.634 1055.68 790.859 L 1056.82 792.618 C 1053.29 793.689 1045.05 793.153 1041.34 792.076 L 1042.65 790.525 z" fill="rgb(57,38,17)" transform="translate(0,0)"></path>
<path d="M 1049.17 766.414 C 1050.06 766.533 1050.76 766.555 1051.66 766.602 L 1053.94 768.785 C 1049.67 768.557 1048.54 768.608 1044.33 769.05 L 1043.14 768.952 L 1042.61 767.519 C 1044.98 766.895 1046.75 766.726 1049.17 766.414 z" fill="rgb(135,93,39)" transform="translate(0,0)"></path>
<path d="M 1042.61 767.519 C 1044.98 766.895 1046.75 766.726 1049.17 766.414 C 1047.57 767.322 1045.95 768.2 1044.33 769.05 L 1043.14 768.952 L 1042.61 767.519 z" fill="rgb(57,38,17)" transform="translate(0,0)"></path>
<path d="M 1051.66 766.602 C 1053.77 766.853 1055.62 767.139 1057.7 767.514 L 1057.21 769.962 C 1056.1 769.576 1055.04 769.217 1053.94 768.785 L 1051.66 766.602 z" fill="rgb(57,38,17)" transform="translate(0,0)"></path>
<path d="M 1843.67 531.356 C 1853.48 530.348 1861.86 539.61 1870.47 544.561 C 1878.05 548.918 1883.42 551.661 1891.58 555.065 C 1876.89 560.863 1863.54 562.843 1847.88 563.059 C 1828.25 562.758 1816.23 557.252 1798.99 549.261 C 1816 538.198 1823.59 533.863 1843.67 531.356 z" fill="rgb(25,62,154)" transform="translate(0,0)"></path>
<path d="M 1860.27 358.661 C 1885.34 372.891 1901.87 396.326 1901.31 425.019 C 1901.26 427.821 1901.6 428.956 1900.8 431.796 C 1898.88 432.545 1896.91 433.158 1894.95 433.801 C 1885.04 432.733 1876.3 417.562 1871.55 409.812 C 1861.69 393.735 1860.02 377.074 1860.27 358.661 z" fill="rgb(25,62,154)" transform="translate(0,0)"></path>
<path d="M 1770.62 403.39 C 1801.34 407.895 1835.36 412.673 1858.98 434.764 C 1861.49 437.114 1868.11 445.505 1868.55 448.77 C 1867.91 449.445 1866.68 450.368 1866.08 451.15 C 1862.57 455.678 1855.47 442.476 1851.99 440.439 C 1851.04 439.884 1848.26 436.52 1846.35 435.148 C 1830.1 423.458 1810.65 419.698 1791.32 416.586 L 1790.71 417.391 C 1788.79 424.89 1800.91 441.404 1805.47 447.325 C 1814.93 459.591 1825.32 468.155 1839.87 473.548 L 1833.7 481.099 C 1808.08 468.839 1798.11 449.942 1783.64 426.35 C 1779.7 419.915 1773.24 409.805 1770.62 403.39 z" fill="rgb(25,62,154)" transform="translate(0,0)"></path>
<path d="M 1796.57 422.304 C 1823.74 427.318 1842.92 432.761 1859.32 456.236 L 1853.12 461.408 L 1844.43 469.84 C 1843.16 469.455 1841.91 469.027 1840.67 468.558 C 1818.36 460.324 1806.29 443.259 1796.57 422.304 z" fill="rgb(25,62,154)" transform="translate(0,0)"></path>
<path d="M 177.606 521.583 C 183.271 526.486 189.607 562.771 191.67 572.7 L 164.253 582.506 C 162.032 583.508 156.629 585.112 154.08 585.944 C 162.723 565.285 170.114 542.803 177.606 521.583 z" fill="rgb(25,62,154)" transform="translate(0,0)"></path>
<path d="M 1604.57 747.611 C 1609.18 748.687 1611.61 749.394 1613.31 753.997 C 1611.79 761.376 1599.09 764.136 1592.98 765.845 C 1600.56 768.105 1615.56 771.581 1620.2 777.392 L 1619.79 778.739 C 1612.62 780.254 1601.01 775.023 1593.97 772.291 C 1597.88 778.214 1601.63 784.244 1605.21 790.375 C 1606.47 794.475 1606.45 796.136 1604.4 799.779 C 1598.53 804.248 1583.21 804.364 1581.7 796.743 C 1586.06 791.913 1590.84 792.713 1596.88 792.627 C 1591.81 784.409 1585.1 774.212 1581.35 765.54 C 1587.93 760.873 1594.93 759.927 1600.28 755.649 C 1601.38 751.653 1601.7 750.599 1604.57 747.611 z" fill="rgb(247,171,67)" transform="translate(0,0)"></path>
<path d="M 817.146 626.725 C 825.635 626.934 824.16 625.875 827.88 634.515 C 829.505 638.288 831.254 642.62 832.997 646.328 C 833.435 645.322 837.971 634.567 837.928 634.191 C 837.184 627.7 847.327 624.224 848.199 628.431 C 850.124 637.713 852.326 651.323 853.004 660.932 C 853.088 662.114 847.155 661.989 846.293 661.276 C 844.455 658.753 843.979 648.728 843.572 645.573 C 843.406 645.071 842.702 642.368 842.557 642.201 C 842.127 642.485 834.365 661.593 833.127 664.141 C 828.874 656.008 826.656 649.097 822.689 641.146 C 822.206 646.097 821.893 656.641 819.891 661.406 C 819.623 662.045 813.117 662.091 813.149 661.041 C 813.481 650.134 815.029 637.524 817.146 626.725 z" fill="rgb(246,200,160)" transform="translate(0,0)"></path>
<path d="M 1139.08 748.606 C 1143.73 748.338 1150.2 748.45 1149.92 754.364 C 1146.43 760.732 1136.6 763.711 1130.04 766.252 C 1136.86 768.354 1153.68 772.273 1157.76 777.145 L 1156.52 778.05 C 1146.31 778.242 1141.75 776.535 1131.79 774.087 C 1135.3 779.286 1138.37 784.621 1141.55 790.023 L 1142.87 795.041 C 1139.46 808.433 1118.12 802.461 1118.81 796.111 C 1123.17 791.976 1128.83 792.803 1134.6 792.945 C 1128.25 783.674 1122.73 775.674 1118.35 765.301 C 1125.36 760.706 1130.75 760.253 1137.25 755.58 C 1139.52 753.947 1138.97 751.564 1139.08 748.606 z" fill="rgb(247,171,67)" transform="translate(0,0)"></path>
<path d="M 225.416 747.509 C 229.354 748.167 231.246 749.06 233.719 752.105 C 234.174 760.114 219.472 763.852 213.186 766.261 C 221.234 768.476 235.703 771.734 241.535 777.038 L 241.312 778.312 C 235.1 779.487 222.038 774.985 215.585 772.999 C 219.119 779.119 222.548 785.299 225.872 791.536 C 230.741 803.511 209.912 805.941 203.509 799.965 C 202.519 796.243 202.624 797.617 203.993 793.713 C 206.945 792.546 214.144 792.974 217.679 792.998 C 212.879 783.858 206.842 775.592 201.871 765.712 C 209.953 760.247 216.971 759.083 222.277 754.08 C 223.197 751.034 223.824 750.138 225.416 747.509 z" fill="rgb(247,171,67)" transform="translate(0,0)"></path>
<path d="M 684.432 747.565 C 688.339 748.473 690.364 749.234 692.888 752.246 C 693.852 760.141 679.23 764.088 672.796 766.804 C 680.498 768.677 695.471 771.502 700.809 776.916 L 700.291 778.33 C 693.719 779.748 680.22 775.336 673.749 773.408 C 678.189 779.902 681.317 784.658 685.11 791.524 C 686.401 794.759 686.105 796.343 684.57 799.16 C 679.363 803.109 668.055 805.002 663.159 799.732 C 662.551 796.374 662.456 797.776 664.042 794.242 C 667.134 792.403 673.939 792.839 677.849 792.786 C 672.316 784.681 665.012 774.94 661.358 766.094 C 667.554 761.198 677.714 758.744 680.705 755.371 C 681.491 751.837 681.653 751.022 683.929 748.181 L 684.432 747.565 z" fill="rgb(247,171,67)" transform="translate(0,0)"></path>
<path d="M 288.899 753.976 C 293.702 756.45 298.675 759.231 303.454 761.806 C 308.017 759.476 313.141 756.469 317.675 753.94 C 322.04 756.123 327.193 759.411 331.453 761.968 C 336.72 758.978 340.485 757.131 345.971 754.638 C 350.125 756.879 353.77 758.241 354.758 763.267 L 353.545 764.792 C 350.517 765.44 347.385 763.215 344.523 761.69 C 334.11 769.564 331.821 770.157 320.683 763.15 C 313.983 760.304 310.763 767.193 303.277 766.926 C 297.222 766.711 294.06 764.445 288.651 761.75 C 283.953 764.719 280.086 766.687 275.165 769.192 C 266.096 763.1 267.013 764.158 256.214 762.731 L 255.348 761.388 C 256.317 758.32 259.084 756.46 261.587 754.298 C 265.615 756.1 270.895 759.272 274.858 761.497 C 279.141 759.654 284.715 756.316 288.899 753.976 z" fill="rgb(247,171,67)" transform="translate(0,0)"></path>
<path d="M 1235.49 754.006 C 1240.37 756.704 1245.31 759.292 1250.3 761.768 C 1254.26 759.719 1260.06 755.358 1264.41 755.456 C 1269.67 755.575 1272.06 759.998 1271.89 764.591 L 1270.6 765.636 L 1268.78 764.219 L 1265.02 762.683 C 1260.27 762.76 1255 766.31 1250.53 768.624 C 1245.94 766.997 1239.64 763.969 1235.06 761.928 C 1230.44 764.407 1225.78 766.808 1221.09 769.129 C 1216.64 767.078 1211.56 764.243 1207.17 761.936 C 1202.44 764.53 1197.67 766.853 1192.84 769.242 C 1190.7 767.923 1188.55 766.618 1186.39 765.328 C 1178.94 760.946 1183.04 762.799 1174.27 765.098 L 1172.96 764.088 C 1172.45 758.826 1175.88 757.66 1179.91 754.736 C 1184.21 755.031 1190.12 759.946 1193.72 762.568 L 1206.77 754.047 C 1211.37 756.315 1216.62 759.481 1221.14 762.052 C 1225.99 759.071 1230.49 756.667 1235.49 754.006 z" fill="rgb(247,171,67)" transform="translate(0,0)"></path>
<path d="M 1697.34 762.174 C 1701.55 759.518 1705.79 756.92 1710.07 754.383 C 1714 756.311 1720.84 760.845 1724.83 761.399 C 1725.4 761.479 1728.23 758.256 1730.85 758.358 C 1731.15 762.072 1731.33 762.889 1730.11 766.467 C 1724.33 771.374 1716.76 765.672 1711.39 762.334 C 1708.23 762.133 1700.65 767.891 1697.18 770.036 C 1691.5 767.477 1688.85 765.392 1683.85 761.783 C 1670.13 770.853 1670.13 769.334 1655.74 761.79 C 1649.98 765.905 1639.92 770.514 1633.51 765.088 C 1633.25 761.204 1633.31 761.672 1636.21 758.28 C 1638.95 759.227 1640.52 759.98 1643.06 761.226 C 1647.46 760.509 1652.05 757.169 1655.95 754.756 C 1661.19 756.836 1665.84 759.655 1670.73 762.436 C 1674.53 760.417 1679.94 756.85 1683.74 754.513 L 1697.34 762.174 z" fill="rgb(247,171,67)" transform="translate(0,0)"></path>
<path d="M 758.54 761.587 L 772.93 753.933 L 788.17 761.753 C 793.249 758.796 801.651 752.254 805.898 759.504 C 805.384 762.6 805.987 761.781 804.009 763.502 L 800.421 762.478 C 795.687 765.468 792.69 766.952 787.718 769.313 C 783.188 766.725 778.608 764.227 773.98 761.819 L 759.079 768.695 C 754.382 767.093 748.41 764.075 743.802 761.912 C 738.728 764.894 735.353 766.548 730.054 768.979 L 729.064 768.466 C 726.085 766.952 724.738 765.546 721.335 764.373 C 717.495 763.05 712.261 764.293 709.946 761.884 C 710.618 758.717 712.927 756.834 715.201 754.464 C 717.943 755.283 728.348 760.521 731.713 762.064 C 735.843 759.369 740.027 756.758 744.263 754.232 L 758.54 761.587 z" fill="rgb(247,171,67)" transform="translate(0,0)"></path>
<path d="M 1327.97 627.203 C 1334.99 626.522 1342.75 625.753 1347.48 632.402 C 1348.34 633.606 1349.02 634.765 1347.62 635.771 C 1340.29 640.911 1342.4 634.09 1335.38 633.513 C 1324.35 632.608 1321.99 647.881 1328.44 654.254 C 1331.48 657.264 1338.43 657.03 1341.04 653.388 C 1344.44 648.653 1338.17 650.304 1335.81 649.511 C 1334.89 649.155 1334.09 644.815 1333.86 643.926 C 1336.2 643.301 1352.55 640.964 1352 645.902 C 1349.06 672.246 1310.9 665.681 1317.04 639.496 C 1318.69 632.438 1322.27 630.588 1327.97 627.203 z" fill="rgb(246,200,160)" transform="translate(0,0)"></path>
<path d="M 1200.08 780.783 C 1202.37 780.853 1212.25 786.563 1215.12 788.103 C 1226.26 779.202 1226.03 779.445 1237.78 787.647 C 1242.19 785.628 1246.89 783.249 1251.28 781.122 C 1255.31 783.488 1259.65 786.727 1264.36 786.003 C 1268 785.443 1269.11 784.19 1271.29 787.499 C 1271.05 789.383 1270.41 790.274 1268.95 791.56 C 1260.54 798.941 1258.44 788.882 1249.71 788.83 C 1246.22 791.058 1242.03 793.132 1238.33 795.077 C 1234.64 793.206 1229.9 790.31 1226.2 788.21 C 1222.14 790.431 1217.93 792.961 1213.9 795.283 L 1201.9 788.03 L 1188.69 794.847 C 1183.53 791.867 1180.99 791.119 1179.25 785.585 L 1180.16 784.012 C 1184.12 783.617 1185.65 785.168 1189.62 787.094 L 1200.08 780.783 z" fill="rgb(247,171,67)" transform="translate(0,0)"></path>
<path d="M 1679.82 788.14 C 1683.33 786.327 1688.06 783.083 1691.49 780.871 L 1704.65 788.611 C 1708.04 786.355 1711.9 783.399 1715.25 780.966 C 1721.49 785.066 1729.73 786.844 1732.33 790.883 L 1731.37 793.556 C 1723.02 794.927 1716.49 787.06 1712.48 791.045 C 1702.13 797.186 1700.44 794.611 1691.08 788.767 C 1686.14 791.54 1682.91 793.065 1677.79 795.303 C 1673.79 793.019 1669.72 790.847 1665.6 788.79 C 1661.94 791.055 1657.51 793.296 1653.67 795.355 C 1652.88 794.959 1652.1 794.553 1651.32 794.138 C 1647.33 792.004 1645.76 791.188 1644.41 786.722 L 1645.52 785.139 C 1649.75 784.967 1649.98 785.915 1654.31 788.06 C 1657.98 786.193 1661.92 783.911 1665.56 781.911 C 1666.92 782.015 1677.48 787.079 1679.82 788.14 z" fill="rgb(247,171,67)" transform="translate(0,0)"></path>
<path d="M 1436.01 623.659 C 1437.17 623.764 1443.51 623.641 1443.51 625.271 C 1443.54 637.027 1444.51 649.921 1442.99 661.465 C 1442.85 662.509 1436.18 661.832 1435.46 661.176 C 1430.7 662.455 1430.2 662.671 1425.4 662.448 C 1411.49 651.787 1419.79 634.872 1434.62 640.746 C 1435.17 640.963 1435.31 640.984 1435.79 640.773 C 1436.74 639.083 1436.09 626.171 1436.01 623.659 z" fill="rgb(246,200,160)" transform="translate(0,0)"></path>
<path d="M 1429.28 646.495 C 1430.94 645.681 1432.9 645.834 1434.42 646.894 C 1435.93 647.955 1436.74 649.754 1436.54 651.588 C 1436.33 653.422 1435.15 655 1433.44 655.705 C 1430.92 656.747 1428.03 655.6 1426.9 653.114 C 1425.78 650.628 1426.83 647.698 1429.28 646.495 z" fill="rgb(1,0,0)" transform="translate(0,0)"></path>
<path d="M 281.899 781.187 C 284.582 781.984 292.757 786.466 295.663 787.977 L 307.25 780.841 L 319.78 788.04 L 332.318 780.886 C 347.451 790.425 341.374 783.46 350.814 785.534 C 352.116 788.225 351.821 787.079 351.045 790.789 C 344.614 797.994 338.427 790.933 331.464 787.949 C 328.03 790.406 323.254 793.067 319.55 795.272 C 306.885 786.79 307.707 787.06 294.773 795.058 C 290.68 793.105 286.724 790.236 282.946 787.675 C 278.302 790.419 274.509 792.309 269.695 794.649 C 265.268 792.309 261.567 791.097 260.562 785.778 L 261.916 784.166 C 265.074 783.381 268.071 785.512 271.062 787.076 L 281.899 781.187 z" fill="rgb(247,171,67)" transform="translate(0,0)"></path>
<path d="M 734.855 781.718 C 740.228 781.645 746.443 785.386 751.374 787.829 L 762.325 781.391 C 766.898 783.68 771.493 785.925 776.11 788.126 C 779.801 786.104 783.616 783.758 787.258 781.607 C 797.885 787.294 797.612 784.674 804.399 787.518 C 805.527 791.884 805.034 792.186 801.503 794.012 C 796.496 794.169 791.55 791.041 786.476 788.915 L 774.837 795.172 C 770.866 792.859 766.883 790.568 762.888 788.298 L 750.529 794.765 C 746.039 792.683 741.153 790.044 736.703 787.77 L 725.152 795.183 C 720.86 792.366 716.073 790.22 715.391 784.8 L 716.58 783.715 C 720.333 783.097 720.11 784.645 724.979 787.055 C 728.171 786.866 732.014 783.674 734.855 781.718 z" fill="rgb(247,171,67)" transform="translate(0,0)"></path>
<path d="M 689.176 638.892 C 692.174 639.284 693.888 639.452 696.552 641.142 C 697.334 641.639 705.285 637.283 705.406 641 C 705.615 647.447 706.182 655.172 705.079 661.411 C 704.909 662.378 698.496 661.805 697.702 661.764 C 696.228 657.895 694.505 664.426 689.01 662.174 C 675.807 656.762 679.153 645.023 689.176 638.892 z" fill="rgb(246,200,160)" transform="translate(0,0)"></path>
<path d="M 690.479 646.677 C 692.875 645.131 696.068 645.805 697.634 648.187 C 699.201 650.568 698.556 653.767 696.188 655.355 C 693.791 656.963 690.542 656.308 688.956 653.896 C 687.369 651.484 688.053 648.242 690.479 646.677 z" fill="rgb(1,0,0)" transform="translate(0,0)"></path>
<path d="M 962.785 639.898 C 969.45 639.517 970.545 641.795 975.546 640.457 C 978.917 639.735 981.89 640.488 981.155 644.482 C 978.907 656.692 987.363 661.83 973.477 661.782 C 973.214 660.826 973.282 659.99 972.198 660.499 C 957.425 667.426 950.149 650.892 962.785 639.898 z" fill="rgb(246,200,160)" transform="translate(0,0)"></path>
<path d="M 966.493 646.624 C 968.92 645.295 971.963 646.153 973.34 648.553 C 974.716 650.952 973.919 654.012 971.547 655.436 C 969.971 656.383 968.005 656.403 966.409 655.489 C 964.813 654.576 963.835 652.871 963.852 651.032 C 963.87 649.193 964.88 647.507 966.493 646.624 z" fill="rgb(1,0,0)" transform="translate(0,0)"></path>
<path d="M 566.331 626.083 C 569.798 626.094 575.304 626.025 577.947 629.038 C 578.93 630.159 579.174 633.035 578.943 634.535 C 578.417 637.588 575.032 633.854 573.196 633.459 C 558.357 630.266 554.122 651.679 568.601 655.606 C 573.421 656.913 575.642 654.745 579.773 652.215 C 579.71 654.281 580.197 660.416 578.104 661.264 C 569.764 664.729 558.37 661.9 553.911 653.548 C 546.506 639.678 554.058 631.102 566.331 626.083 z" fill="rgb(246,200,160)" transform="translate(0,0)"></path>
<path d="M 1775.44 749.955 C 1795.36 751.012 1787.92 760.974 1778.74 769.805 C 1781.85 770.001 1794.26 769.462 1794.17 773.44 C 1794.05 778.289 1794.75 782.829 1789.01 783.305 C 1788.83 782.341 1788.07 776.855 1787.57 776.685 C 1778.82 773.122 1781.91 782.885 1780.37 783.71 C 1766.51 791.132 1775.02 762.659 1772.29 757.974 C 1770.51 754.927 1774.45 751.029 1775.44 749.955 z" fill="rgb(247,171,67)" transform="translate(0,0)"></path>
<path d="M 1128.17 639.086 C 1134.35 639.511 1139.52 640.786 1142.52 646.862 C 1143.77 649.398 1143.92 652.334 1142.95 654.988 C 1141.22 659.639 1138.2 661.02 1134.06 662.894 C 1130.93 662.838 1128.02 662.897 1125 661.713 C 1122.03 660.546 1119.66 658.197 1118.48 655.224 C 1114.97 646.616 1121.18 641.865 1128.17 639.086 z" fill="rgb(246,200,160)" transform="translate(0,0)"></path>
<path d="M 1127.57 646.723 C 1129.94 645.081 1133.19 645.656 1134.86 648.012 C 1136.53 650.367 1135.99 653.625 1133.65 655.317 C 1132.11 656.427 1130.1 656.627 1128.38 655.841 C 1126.65 655.055 1125.49 653.404 1125.32 651.517 C 1125.15 649.631 1126.01 647.8 1127.57 646.723 z" fill="rgb(1,0,0)" transform="translate(0,0)"></path>
<path d="M 1397.01 639.117 C 1413.55 640.208 1419.08 654.192 1403.6 662.373 C 1383.57 662.215 1380.38 646.008 1397.01 639.117 z" fill="rgb(246,200,160)" transform="translate(0,0)"></path>
<path d="M 1397.1 646.569 C 1398.78 645.558 1400.88 645.535 1402.58 646.51 C 1404.28 647.484 1405.33 649.303 1405.31 651.265 C 1405.29 653.228 1404.21 655.026 1402.49 655.968 C 1399.9 657.383 1396.66 656.468 1395.19 653.909 C 1393.72 651.351 1394.57 648.089 1397.1 646.569 z" fill="rgb(1,0,0)" transform="translate(0,0)"></path>
<path d="M 852.455 749.657 C 854.887 750.064 858.961 750.486 860.631 752.356 C 867.544 760.098 859.252 765.032 854.947 769.265 C 864.538 770.711 875.032 769.065 869.468 782.15 C 868.737 783.871 866.951 783.433 865.805 782.468 C 864.718 778.328 865.762 775.456 858.911 776.208 C 855.147 776.622 860.204 788.982 848.7 783.407 C 848.131 783.132 849.079 757.784 848.667 754.937 C 848.332 752.623 850.77 751.063 852.455 749.657 z" fill="rgb(247,171,67)" transform="translate(0,0)"></path>
<path d="M 398.947 749.849 C 423.628 754.9 392.021 770.727 408.017 770.247 C 418.632 769.929 418.502 782.188 410.214 784.57 C 409.7 779.437 411.501 775.691 403.981 776.731 C 399.732 777.318 406.416 787.731 394.467 783.391 C 393.837 783.162 393.987 775.592 394.022 774.149 C 394.19 767.261 393.734 759.877 394.256 752.99 C 394.345 751.754 398.067 750.283 398.947 749.849 z" fill="rgb(247,171,67)" transform="translate(0,0)"></path>
<path d="M 1313.42 749.708 C 1316.34 750.014 1320.19 749.995 1322.09 752.417 C 1328.39 760.439 1319.85 765.405 1315.47 769.584 C 1318.36 769.827 1330.09 769.677 1331.02 772.554 C 1333.06 778.878 1331.08 781.638 1326.11 784.812 C 1325.68 783.485 1324.75 776.847 1324.03 776.509 C 1315.07 772.287 1319.42 789.217 1310.29 783.254 C 1309.03 782.429 1310.36 757.312 1309.82 753.985 C 1309.6 752.572 1312.5 750.506 1313.42 749.708 z" fill="rgb(247,171,67)" transform="translate(0,0)"></path>
<path d="M 1092.22 627.064 C 1096.64 627.072 1116.62 624.389 1112.74 632.126 C 1110.43 636.733 1094.88 629.42 1100.67 640.604 C 1102.44 644.033 1112.61 635.123 1110.98 647.326 C 1091.43 647.413 1103.46 650.864 1099.28 660.668 C 1099 661.344 1091.01 665.129 1092.36 654.322 C 1093.13 648.172 1092.2 634.884 1092.22 627.064 z" fill="rgb(246,200,160)" transform="translate(0,0)"></path>
<path d="M 1368.27 639.022 C 1370.24 639.338 1372.52 639.692 1374.36 640.462 C 1377.33 641.706 1379.62 644.174 1380.64 647.23 C 1384.52 658.542 1363.53 648.119 1366.41 655.561 C 1367.49 658.337 1376.48 655.776 1380.77 656.053 C 1366.99 674.647 1342.98 648.892 1368.27 639.022 z" fill="rgb(246,200,160)" transform="translate(0,0)"></path>
<path d="M 913.955 639.92 C 928.868 638.5 936.921 653.724 923.82 652.776 C 921.91 652.638 914.956 652.367 913.975 653.576 C 913.01 659.529 923.945 655.802 925.828 655.212 C 932.331 661.283 919.166 663.154 915.986 662.138 C 902.519 657.835 903.713 647.935 913.955 639.92 z" fill="rgb(246,200,160)" transform="translate(0,0)"></path>
<path d="M 916.713 643.669 C 920.146 644.663 923.636 645.086 920.611 648.841 C 914.776 647.836 912.094 648.845 916.713 643.669 z" fill="rgb(1,0,0)" transform="translate(0,0)"></path>
<path d="M 605.351 639.822 C 617.001 640.29 613.086 641.135 618.901 651.679 C 620.602 648.085 622.195 643.962 624.358 640.74 C 625.157 639.55 631.355 639.835 631.747 640.547 C 631.73 642.473 624.524 655.054 623.189 657.511 C 620.397 662.054 618.056 666.571 615.683 671.317 C 614.923 672.513 612.391 671.951 611.395 672.195 C 604.11 673.977 613.077 661.275 614.752 658.273 C 608.839 649.431 609.67 649.558 605.351 639.822 z" fill="rgb(246,200,160)" transform="translate(0,0)"></path>
<path d="M 1459.02 639.929 C 1466.63 639.753 1475.43 641.832 1473.52 651.606 C 1472.96 654.467 1452.54 649.772 1460.58 656.851 C 1462.53 658.578 1467.92 655.654 1469.81 654.933 C 1476.7 663.101 1465.67 662.059 1459.48 662.161 C 1453.21 662.264 1449.61 654.022 1451.13 648.494 C 1452.41 643.858 1455.11 642.388 1459.02 639.929 z" fill="rgb(246,200,160)" transform="translate(0,0)"></path>
<path d="M 1458.81 645.084 C 1463.88 644.623 1464.34 643.791 1467.38 648.113 C 1462.63 648.378 1459.29 650.238 1458.81 645.084 z" fill="rgb(1,0,0)" transform="translate(0,0)"></path>
<path d="M 876.365 639.74 C 886.056 640.587 881.217 642.304 889.47 639.86 C 898.846 637.083 900.145 649.077 899.365 655.555 C 898.838 659.938 900.692 663.775 892.604 661.082 C 891.521 660.662 891.864 653.516 891.827 651.754 C 892.361 643.561 885.529 643.228 883.852 649.518 C 882.75 653.574 886.188 659.919 881.606 661.743 C 873.366 665.025 876.272 647.128 876.365 639.74 z" fill="rgb(246,200,160)" transform="translate(0,0)"></path>
<path d="M 1215.01 624.788 C 1216.82 624.837 1220.97 624.319 1222.39 625.489 C 1223.34 626.27 1222.86 658.223 1222.87 661.848 C 1221.13 661.82 1215.6 662.136 1215.49 661.002 C 1214.72 653.447 1215.03 631.186 1215.01 624.788 z" fill="rgb(246,200,160)" transform="translate(0,0)"></path>
<path d="M 1179.56 639.115 C 1180.89 639.148 1196.68 639.008 1188.81 644.627 C 1187.99 645.21 1182.76 643.01 1181.91 645.517 C 1182.81 647.215 1202.77 652.006 1185.9 662.435 C 1183.67 662.356 1172.24 662.554 1174.16 657.493 C 1175.37 654.301 1178.43 655.908 1180.52 656.788 C 1181.51 657.2 1184.09 657.3 1184.38 655.611 C 1183.2 652.175 1165.99 650.713 1179.56 639.115 z" fill="rgb(246,200,160)" transform="translate(0,0)"></path>
<path d="M 732.765 640.121 C 736.284 639.876 740.589 639.387 744.039 640.266 C 745.519 640.793 744.942 642.924 744.206 643.69 C 742.18 645.798 728.848 643.589 741.481 648.526 C 746.265 650.395 747.261 652.95 745.881 658.031 C 745.019 661.203 740.988 662.195 738.481 662.994 C 736.223 662.671 728.188 661.738 728.181 659.973 C 728.146 651.508 738.092 659.597 738.977 655.824 C 737.476 651.568 721.836 652.272 732.765 640.121 z" fill="rgb(246,200,160)" transform="translate(0,0)"></path>
<path d="M 713.897 624.598 C 715.767 624.673 720.779 624.556 720.909 625.357 C 721.92 631.594 721.276 656.32 721.268 661.61 C 719.631 661.706 714.651 662.044 714.502 660.957 C 713.472 653.433 713.93 630.992 713.897 624.598 z" fill="rgb(246,200,160)" transform="translate(0,0)"></path>
<path d="M 1237.8 639.048 C 1240.22 639.431 1247.83 639.963 1245.65 643.802 C 1244.28 646.225 1236.65 641.916 1238.17 646.311 C 1238.93 648.493 1246.57 648.229 1247.15 652.447 C 1248.64 660.888 1243.97 661.616 1237.46 662.772 C 1235.1 662.216 1228.05 661.584 1230.74 657.336 C 1232.28 654.131 1237.7 658.018 1238.98 656.97 C 1243.35 653.403 1226.88 652.748 1230.45 644.67 C 1232 641.156 1234.79 640.178 1237.8 639.048 z" fill="rgb(246,200,160)" transform="translate(0,0)"></path>
<path d="M 1156.64 639.109 C 1161.41 639.327 1168.65 638.935 1165.22 644.225 C 1163.88 646.301 1156.32 642.937 1157.41 646.141 C 1158.22 648.515 1166.6 648.359 1167.21 652.453 C 1169.25 659.363 1164.33 661.351 1158.52 662.943 C 1155.86 662.362 1148.33 662.014 1150.21 657.612 C 1151.77 653.98 1159.77 659.503 1160.73 656.188 C 1160.34 652.049 1153.29 654.083 1151.25 649.907 C 1148.73 644.74 1151.77 642.16 1156.64 639.109 z" fill="rgb(246,200,160)" transform="translate(0,0)"></path>
<path d="M 990.103 624.735 C 991.809 624.766 995.558 624.27 996.911 625.337 C 997.901 626.117 997.417 657.789 997.442 661.722 C 990.009 662.008 989.994 662.762 990.052 655.555 C 990.133 645.297 990.147 634.994 990.103 624.735 z" fill="rgb(246,200,160)" transform="translate(0,0)"></path>
<path d="M 1484.58 640.023 C 1487.42 639.779 1496.78 638.41 1497.06 642.764 C 1495.12 646.794 1491.09 643.567 1487.88 644.844 C 1485.16 648.961 1506.03 647.073 1494.3 661.807 C 1492.02 662.049 1479.31 663.732 1480.19 658.001 C 1480.79 654.169 1488.85 659.758 1490.33 655.716 C 1488.34 651.453 1473.12 652.479 1484.58 640.023 z" fill="rgb(246,200,160)" transform="translate(0,0)"></path>
<path d="M 643.702 638.973 C 650.271 639.486 658.629 642.119 649.221 644.588 C 648.249 644.843 644.612 642.991 644.284 645.813 C 645.747 647.989 647.726 647.5 649.473 648.524 C 659.201 654.226 653.558 660.651 646.05 662.865 C 644.754 662.665 637.312 661.732 637.163 660.053 C 636.446 651.963 645.677 659.804 647.144 655.756 C 646.607 653.105 626.584 649.489 643.702 638.973 z" fill="rgb(246,200,160)" transform="translate(0,0)"></path>
<path d="M 663.834 632.537 C 674.168 632.627 669.503 632.958 671.418 639.325 C 671.52 639.664 672.629 640.206 673.005 640.128 C 675.864 639.568 675.661 645.986 673.473 645.818 C 669.602 645.52 670.877 650.53 670.71 653.295 C 670.565 655.685 670.677 658.919 670.636 661.526 C 663.094 662.795 662.75 661.766 663.196 654.501 C 663.307 652.704 663.875 646.517 662.003 645.912 C 658.99 644.938 659.417 640.782 662.259 639.661 C 663.443 639.195 663.647 633.893 663.834 632.537 z" fill="rgb(246,200,160)" transform="translate(0,0)"></path>
<path d="M 1009.54 639.902 C 1018.2 639.553 1026.56 642.16 1017.53 645.016 C 1016.86 645.226 1012.59 642.988 1012.19 645.799 C 1015.41 649.39 1020.95 647.712 1022.1 653.402 C 1023.3 659.311 1019.04 661.333 1014.1 662.694 C 1012.16 662.416 999.877 661.703 1006.14 656.336 C 1007.99 654.749 1014.44 660.308 1015.51 655.435 C 1012.59 651.252 997.617 651.534 1009.54 639.902 z" fill="rgb(246,200,160)" transform="translate(0,0)"></path>
<path d="M 836.584 795.097 C 850.467 795.456 864.793 794.777 878.486 795.622 C 879.318 795.673 878.883 799.896 878.829 800.513 C 869.988 800.494 847.332 801.181 837.666 799.864 C 837.069 799.782 836.726 796.013 836.584 795.097 z" fill="rgb(247,171,67)" transform="translate(0,0)"></path>
<path d="M 381.883 795.07 C 388.295 795.047 415.617 794.82 423.392 795.843 C 424.184 795.948 423.974 799.262 423.929 800.451 C 415.402 800.439 392.049 801.122 382.664 799.763 C 382.156 799.689 381.97 795.886 381.883 795.07 z" fill="rgb(247,171,67)" transform="translate(0,0)"></path>
<path d="M 1297.23 795.356 C 1306.64 794.873 1327.74 795.283 1337.95 795.509 C 1338.89 795.53 1339.45 799.401 1339.69 800.45 C 1332.72 800.834 1306.45 800.886 1298.17 799.841 C 1297.52 799.759 1297.34 796.38 1297.23 795.356 z" fill="rgb(247,171,67)" transform="translate(0,0)"></path>
<path d="M 1761.12 795.44 C 1772.12 795.199 1783.17 795.353 1794.17 795.306 C 1800.74 795.279 1802.27 793.716 1801.95 800.412 C 1796.31 800.452 1768.17 801.35 1761.37 799.855 C 1760.67 799.701 1761.02 796.603 1761.12 795.44 z" fill="rgb(247,171,67)" transform="translate(0,0)"></path>
<path d="M 586.61 640.023 C 590.758 640.201 592.732 638.861 594.51 642.457 C 594.519 642.452 594.528 642.445 594.539 642.441 C 595.752 641.974 596.515 640.926 597.662 640.338 C 598.485 639.917 600.123 639.669 600.976 640.067 C 601.549 640.335 601.819 640.987 601.964 641.557 C 602.27 642.759 602.43 645.353 601.697 646.372 C 601.378 646.816 600.521 646.838 600.047 646.836 C 598.135 646.827 597.212 646.972 595.831 648.367 C 595.236 648.97 594.691 649.67 594.128 650.307 C 594.116 650.844 596.428 666.521 587.414 661.316 C 586.298 660.671 586.631 643.656 586.61 640.023 z" fill="rgb(246,200,160)" transform="translate(0,0)"></path>
<path d="M 949.455 640.288 C 950.186 640.267 951.448 640.05 951.735 640.975 C 952.133 642.255 952.246 644.255 951.731 645.517 C 950.882 647.595 948.161 646.247 946.625 647.18 C 941.766 649.699 945.227 656.5 943.769 660.404 C 943.244 661.809 940.51 662.36 939.128 662.835 C 934.97 658.963 936.865 647.224 937.184 641.658 C 937.405 637.789 943.882 642.311 944.651 642.809 C 945.451 642.753 948.544 640.775 949.455 640.288 z" fill="rgb(246,200,160)" transform="translate(0,0)"></path>
<path d="M 2035.68 611.696 C 2038.92 611.686 2041.9 611.23 2044.6 613.42 C 2045.98 614.55 2046.83 616.202 2046.94 617.981 C 2047.17 621.294 2044.77 623.586 2042.77 625.881 C 2031.63 626.401 2028.77 620.143 2035.68 611.696 z" fill="rgb(246,200,160)" transform="translate(0,0)"></path>
<path d="M 2012.39 600.241 C 2016.13 598.958 2020.22 600.884 2021.61 604.589 C 2023 608.293 2021.19 612.432 2017.53 613.931 C 2015.07 614.94 2012.25 614.529 2010.17 612.858 C 2008.1 611.186 2007.09 608.519 2007.55 605.895 C 2008.02 603.271 2009.87 601.105 2012.39 600.241 z" fill="rgb(246,200,160)" transform="translate(0,0)"></path>
<path d="M 1883.41 611.539 C 1887.33 610.921 1891 613.616 1891.59 617.541 C 1892.18 621.466 1889.46 625.119 1885.53 625.68 C 1881.64 626.234 1878.03 623.547 1877.45 619.662 C 1876.87 615.777 1879.53 612.15 1883.41 611.539 z" fill="rgb(246,200,160)" transform="translate(0,0)"></path>
<path d="M 841.618 788.057 C 852.096 787.973 862.58 788.022 873.05 788.324 C 875.526 788.396 874.931 791.272 874.684 792.882 C 870.344 792.925 847.23 793.638 841.724 792.245 C 841.069 792.079 841.422 789.653 841.562 788.638 L 841.618 788.057 z" fill="rgb(247,171,67)" transform="translate(0,0)"></path>
<path d="M 1908.27 600.508 C 1910.55 599.289 1913.32 599.412 1915.49 600.827 C 1917.66 602.243 1918.89 604.728 1918.7 607.312 C 1918.51 609.896 1916.92 612.171 1914.57 613.249 C 1911.07 614.846 1906.94 613.378 1905.24 609.934 C 1903.53 606.489 1904.88 602.315 1908.27 600.508 z" fill="rgb(246,200,160)" transform="translate(0,0)"></path>
<path d="M 1198.88 639.686 C 1208.35 640.045 1205.96 639.129 1206.27 649.063 C 1206.41 653.279 1206.32 657.633 1206.36 661.859 C 1197.9 661.413 1198.99 662.596 1198.92 653.519 C 1198.89 648.967 1198.9 644.25 1198.88 639.686 z" fill="rgb(246,200,160)" transform="translate(0,0)"></path>
<path d="M 387.181 788.067 C 396.993 787.958 406.811 787.962 416.622 788.064 C 419.767 788.096 419.224 790.659 418.75 792.896 C 410.348 792.895 395.498 793.444 386.868 792.476 C 386.141 792.395 387.08 788.655 387.181 788.067 z" fill="rgb(247,171,67)" transform="translate(0,0)"></path>
<path d="M 860.783 639.864 C 869.211 640.268 868.026 639.004 868.063 647.98 C 868.081 652.552 868.051 657.279 868.048 661.861 C 859.625 661.547 860.911 662.662 860.792 653.296 C 860.736 648.856 860.786 644.31 860.783 639.864 z" fill="rgb(246,200,160)" transform="translate(0,0)"></path>
<path d="M 1302.49 788.462 C 1311.84 788.244 1321.19 788.18 1330.54 788.269 C 1334.27 788.304 1334.64 789.443 1333.81 792.924 C 1323.68 792.818 1313.54 793.04 1303.42 792.876 C 1300.83 792.835 1301.93 789.797 1302.49 788.462 z" fill="rgb(247,171,67)" transform="translate(0,0)"></path>
<path d="M 1765.63 788.419 C 1774.59 788.298 1783.59 788.249 1792.54 788.328 C 1796.65 788.364 1798.08 788.911 1797.65 792.869 C 1787.42 792.835 1777.14 793.134 1766.93 792.886 C 1764.32 792.823 1765.2 789.847 1765.63 788.419 z" fill="rgb(247,171,67)" transform="translate(0,0)"></path>
<path d="M 1051.95 641.406 C 1054.97 639.323 1059.11 640.076 1061.2 643.09 C 1063.3 646.103 1062.56 650.243 1059.56 652.35 C 1056.53 654.469 1052.37 653.728 1050.26 650.697 C 1048.15 647.666 1048.91 643.5 1051.95 641.406 z" fill="rgb(246,200,160)" transform="translate(0,0)"></path>
<path d="M 776.043 641.657 C 777.97 640.142 780.579 639.822 782.815 640.826 C 785.052 641.83 786.546 643.992 786.694 646.439 C 786.843 648.886 785.621 651.213 783.522 652.48 C 780.541 654.28 776.674 653.45 774.694 650.585 C 772.715 647.72 773.305 643.809 776.043 641.657 z" fill="rgb(246,200,160)" transform="translate(0,0)"></path>
<path d="M 1278.11 641.447 C 1281.03 639.39 1285.06 640.091 1287.12 643.011 C 1289.17 645.932 1288.46 649.964 1285.54 652.015 C 1282.62 654.063 1278.6 653.36 1276.55 650.443 C 1274.5 647.527 1275.2 643.501 1278.11 641.447 z" fill="rgb(246,200,160)" transform="translate(0,0)"></path>
<path d="M 1200.47 627.623 C 1201.97 626.855 1203.76 626.963 1205.16 627.903 C 1206.55 628.843 1207.32 630.468 1207.17 632.142 C 1207.02 633.816 1205.96 635.275 1204.42 635.949 C 1202.14 636.947 1199.48 635.952 1198.41 633.702 C 1197.34 631.452 1198.26 628.76 1200.47 627.623 z" fill="rgb(246,200,160)" transform="translate(0,0)"></path>
<path d="M 87.3777 487.5 C 97.1876 488.715 91.8174 493.875 88.5906 501.685 C 88.2892 501.923 87.9271 502.303 87.5962 502.335 C 85.5848 500.341 85.9096 490.614 87.3777 487.5 z" fill="rgb(25,62,154)" transform="translate(0,0)"></path>
<path d="M 861.875 628.508 C 863.169 627.581 864.871 627.447 866.295 628.159 C 867.719 628.871 868.632 630.313 868.667 631.905 C 868.702 633.496 867.854 634.977 866.462 635.751 C 864.473 636.858 861.965 636.22 860.747 634.297 C 859.529 632.373 860.024 629.833 861.875 628.508 z" fill="rgb(246,200,160)" transform="translate(0,0)"></path>
<path d="M 368.701 425.054 C 368.681 424.035 368.096 418.807 369.118 418.625 C 370.055 419.131 371.095 422.074 371.421 423.119 L 368.701 425.054 z" fill="rgb(251,163,58)" transform="translate(0,0)"></path>
<metadata><recraft-signature>{"signed_by": "recraft", "signature_b64": "t/ITGECJU/mY0/csZWh7Sh5UCe8F4ZtEC3TmXTkty4E3pQLjGWsjEWT1jYvfGhTp85IEqJsUI3obUg6Dz0siDA==", "signing_algo": "Ed25519", "generation_timestamp": 1780247629, "identifier": "ad2d3527-bf7f-4fdd-b152-e274f421e0b3"}</recraft-signature></metadata></svg>