<svg xmlns="http://www.w3.org/2000/svg" height="768" preserveAspectRatio="none" style="display: block;" version="1.1" viewBox="0 0 2048 1024" width="1536">
<defs>
	<linearGradient gradientUnits="userSpaceOnUse" id="Gradient1" x1="1105.87" x2="1109.92" y1="585.303" y2="583.778">
		<stop class="stop0" offset="0" stop-color="rgb(200,153,97)" stop-opacity="1"></stop>
		<stop class="stop1" offset="1" stop-color="rgb(239,179,111)" stop-opacity="1"></stop>
	</linearGradient>
</defs>
<path d="M 0 0 L 2048 0 L 2048 416.071 L 2048 418.558 L 2048 436.847 L 2048 438.873 L 2048 484.142 L 2048 486.247 L 2048 552.928 L 2048 555.09 L 2048 564.842 L 2048 569.768 L 2048 592.914 L 2048 596.949 L 2048 619.756 L 2048 622.418 L 2048 636.474 L 2048 639.95 L 2048 780.209 L 2048 798.414 L 2048 823.234 L 2048 826.085 L 2048 1024 L 0 1024 L 0 825.986 L 0 822.39 L 0 798.559 L 0 794.814 L 0 783.021 L 0 780.125 L 0 639.327 L 0 636.222 L 0 623.249 L 0 620.917 L 0 596.168 L 0 591.732 L 0 571.011 L 0 564.762 L 0 555.11 L 0 552.902 L 0 486.757 L 0 484.204 L 0 439.081 L 0 436.86 L 0 418.683 L 0 416.029 L 0 0 z" fill="rgb(16,22,27)" transform="translate(0,0)"></path>
<path d="M 0 416.029 L 124.524 416.141 C 152.973 441.302 189.374 467.436 215.797 492.198 C 182.097 518.643 147.269 550.932 114.348 576.184 C 102.343 576.244 5.32252 577.966 2.42692 575.128 C 1.33642 574.059 0.664792 572.372 0 571.011 L 0 564.762 L 0 555.11 L 0 552.902 L 0 486.757 L 0 484.204 L 0 439.081 L 0 436.86 L 0 418.683 L 0 416.029 z" fill="rgb(189,147,93)" transform="translate(0,0)"></path>
<path d="M -1.42109e-14 486.757 C 51.1749 486.354 102.352 486.388 153.527 486.858 C 154.01 494.113 154.413 501.535 155.253 508.743 C 144.598 523.026 132.833 538.241 122.934 552.92 L 0 552.902 L 0 486.757 z" fill="rgb(16,22,27)" transform="translate(0,0)"></path>
<path d="M 0 439.081 L 127.685 438.919 L 152.24 484.396 C 101.494 484.055 50.7467 483.991 -3.55271e-14 484.204 L 0 439.081 z" fill="rgb(16,22,27)" transform="translate(0,0)"></path>
<path d="M 0 418.683 C 40.3935 418.717 83.1687 418.115 123.388 418.857 C 124.338 423.581 125.891 432.44 127.224 436.783 L 0 436.86 L 0 418.683 z" fill="rgb(16,22,27)" transform="translate(0,0)"></path>
<path d="M 0 555.11 L 121.481 555.07 L 113.398 573.995 L 5.15825 573.958 C 3.95914 571.734 1.32985 566.569 0 564.762 L 0 555.11 z" fill="rgb(16,22,27)" transform="translate(0,0)"></path>
<path d="M 130.752 439.196 L 148.197 439.474 C 164.954 452.172 191.615 475.129 207.772 489.028 C 195.014 488.993 168.994 485.483 154.881 484.454 L 130.752 439.196 z" fill="rgb(16,22,27)" transform="translate(0,0)"></path>
<path d="M 204.33 496.186 L 204.913 496.282 L 205.438 497.103 C 188.68 510.42 172.564 524.811 155.913 538.295 C 146.511 545.908 140.953 547.535 129.617 550.883 L 128.25 550.053 C 134.872 539.265 148.862 521.516 156.803 510.796 C 172.156 505.578 188.639 500.01 204.33 496.186 z" fill="rgb(16,22,27)" transform="translate(0,0)"></path>
<path d="M 155.59 486.829 C 170.667 488.101 187.266 490.631 202.276 491.038 L 201.499 493.868 C 187.329 498.444 171.346 503.787 157.234 507.921 C 156.872 500.695 156.149 494.027 155.59 486.829 z" fill="rgb(16,22,27)" transform="translate(0,0)"></path>
<path d="M 126.113 421.594 C 129.685 423.824 141.251 433.801 145.013 436.923 C 139.869 437.016 134.723 437.024 129.579 436.948 C 128.15 431.199 127.319 427.365 126.113 421.594 z" fill="rgb(13,16,19)" transform="translate(0,0)"></path>
<path d="M 137 551.092 L 136.868 553.877 C 131.021 558.31 123.142 565.658 117.281 570.723 C 119.624 565.191 121.701 560.172 124.593 554.875 C 129.041 553.664 132.655 552.46 137 551.092 z" fill="rgb(13,16,19)" transform="translate(0,0)"></path>
<path d="M 202.276 491.038 C 210.562 491.099 205.014 492.762 201.499 493.868 L 202.276 491.038 z" fill="rgb(41,40,35)" transform="translate(0,0)"></path>
<path d="M 137 551.092 C 138.079 550.585 139.432 549.719 140.582 550.055 C 141.527 551.08 137.574 553.395 136.868 553.877 L 137 551.092 z" fill="rgb(86,75,62)" transform="translate(0,0)"></path>
<path d="M 1922.98 416.55 C 1963.54 415.497 2007.38 416.005 2048 416.071 L 2048 418.558 L 2048 436.847 L 2048 438.873 L 2048 484.142 L 2048 486.247 L 2048 552.928 L 2048 555.09 L 2048 564.842 L 2048 569.768 C 2047.23 571.275 2044.93 575.642 2044.18 575.674 C 2021.81 576.63 1952.15 576.257 1933.28 576.305 C 1906.56 551.513 1869.47 523.184 1840.69 498.855 L 1842.24 496.713 L 1843.31 495.497 C 1843.33 494.718 1843.47 493.961 1843.16 493.288 L 1842.75 492.414 L 1842.36 489.699 L 1840.31 489.7 C 1839.35 488.587 1839.12 488.433 1838.47 487.128 C 1842.11 483.231 1860.19 468.763 1865.03 464.719 C 1884.21 448.496 1903.52 432.439 1922.98 416.55 z" fill="rgb(189,147,93)" transform="translate(0,0)"></path>
<path d="M 2048 486.247 L 2048 552.928 L 1925.55 552.955 C 1916.83 540.099 1902.31 520.685 1892.68 508.61 C 1893.09 501.544 1893.93 493.766 1894.55 486.654 L 2048 486.247 z" fill="rgb(16,22,27)" transform="translate(0,0)"></path>
<path d="M 1918.98 438.977 L 2048 438.873 L 2048 484.142 C 1997.6 483.551 1945.93 484.138 1895.42 484.178 C 1903.44 469.198 1911.29 454.13 1918.98 438.977 z" fill="rgb(16,22,27)" transform="translate(0,0)"></path>
<path d="M 1924.46 419.071 L 2048 418.558 L 2048 436.847 C 2034 436.116 2016.44 436.588 2002.11 436.587 L 1919.84 436.584 C 1921.44 430.761 1922.98 424.923 1924.46 419.071 z" fill="rgb(16,22,27)" transform="translate(0,0)"></path>
<path d="M 2048 555.09 L 2048 564.842 L 2043.05 573.865 L 1934 573.872 C 1931.88 567.511 1929.56 561.525 1927.14 555.274 L 2048 555.09 z" fill="rgb(16,22,27)" transform="translate(0,0)"></path>
<path d="M 1898.88 439.187 L 1916.09 439.046 C 1908.6 453.836 1900.09 469.438 1893.04 484.218 C 1878.96 485.536 1855.94 487.211 1842.36 489.699 L 1840.31 489.7 C 1844.27 484.701 1857.33 474.385 1862.68 469.942 C 1874.97 459.952 1887.03 449.698 1898.88 439.187 z" fill="rgb(16,22,27)" transform="translate(0,0)"></path>
<path d="M 1843.31 495.497 C 1856.05 500.678 1877.27 506.008 1891.35 510.876 C 1901.63 524.552 1911.74 538.35 1921.69 552.267 C 1903.04 546.366 1894.04 541.708 1879.56 528.018 C 1868.48 517.539 1852.77 507.404 1842.24 496.713 L 1843.31 495.497 z" fill="rgb(16,22,27)" transform="translate(0,0)"></path>
<path d="M 1842.75 492.414 C 1854.54 490.1 1879.56 487.762 1892.22 486.813 C 1891.39 493.859 1890.72 500.934 1889.81 507.916 C 1874.41 502.593 1858.85 497.715 1843.16 493.288 L 1842.75 492.414 z" fill="rgb(16,22,27)" transform="translate(0,0)"></path>
<path d="M 1906.39 549.922 C 1912.34 551.379 1918.06 553.278 1923.92 555.092 C 1926.09 559.95 1928.14 564.468 1929.96 569.5 C 1925.01 566.201 1910.96 554.234 1906.39 549.922 z" fill="rgb(16,22,27)" transform="translate(0,0)"></path>
<path d="M 1919.88 421.995 C 1921.73 424.66 1918.47 433.306 1917.51 436.639 C 1913.36 436.863 1909.28 436.827 1905.12 436.848 C 1902.69 435.128 1917.29 424.279 1919.88 421.995 z" fill="rgb(16,22,27)" transform="translate(0,0)"></path>
<path d="M 5.20456 591.521 C 9.51594 590.507 29.1513 587.833 32.481 589.006 C 52.2612 595.97 76.9234 613.026 95.506 622.619 C 104.29 627.154 121.246 661.451 122.815 671.949 C 126.259 694.989 127.533 710.335 116.972 731.347 C 113.28 732.21 109.588 733.113 105.858 733.784 C 105.91 744.945 106.23 749.238 103.637 760.154 C 102.258 752.256 102.666 742.026 102.722 733.837 C 95.4179 746.058 81.4109 769.502 71.9854 779.598 L 71.9657 795.768 C 76.944 790.236 80.3632 786.194 86.2322 781.614 C 85.7998 787.262 74.0151 794.015 76.1189 798.86 L 79.4593 799.589 L 79.9496 800.802 C 77.8954 802.407 77.4322 802.276 74.7226 802.593 L 74.9481 803.495 C 75.4602 805.499 76.9597 807.711 75.4481 809.193 C 57.6782 826.605 23.9354 826.186 2.63305 825.864 L 0 825.986 L 0 822.39 L 0 798.559 L 0 794.814 L 0 783.021 L 0 780.125 L 0 639.327 L 0 636.222 L 0 623.249 L 0 620.917 L 0 596.168 L 0 591.732 L 5.20456 591.521 z" fill="rgb(73,93,123)" transform="translate(0,0)"></path>
<path d="M 0 639.327 C 17.8691 636.458 44.4185 640.873 59.1602 651.966 C 90.4551 675.517 96.6763 722.097 73.1267 753.606 C 55.4989 777.192 28.5883 785.665 0 780.125 L 0 639.327 z" fill="rgb(16,22,27)" transform="translate(0,0)"></path>
<path d="M 0 623.249 L 18.9308 620.668 C 41.7795 632.049 61.7948 643.817 80.9565 660.69 C 83.5137 662.942 86.718 665.389 89.5745 667.222 C 95.0253 681.647 97.7559 691.276 107.697 703.072 C 106.524 708.34 103.515 722.394 101.573 726.697 C 92.4375 746.946 76.7034 774.512 57.5365 786.485 C 42.3632 795.963 21.8225 795.629 4.73799 794.95 L 0 794.814 L 0 783.021 L 0 780.125 C 28.5883 785.665 55.4989 777.192 73.1267 753.606 C 96.6763 722.097 90.4551 675.517 59.1602 651.966 C 44.4185 640.873 17.8691 636.458 0 639.327 L 0 636.222 L 0 623.249 z" fill="rgb(16,22,27)" transform="translate(0,0)"></path>
<path d="M 0 636.222 C 110.191 623.374 122.687 770.469 24.1014 784.884 C 16.22 786.037 7.64806 785.005 0 783.021 L 0 780.125 C 28.5883 785.665 55.4989 777.192 73.1267 753.606 C 96.6763 722.097 90.4551 675.517 59.1602 651.966 C 44.4185 640.873 17.8691 636.458 0 639.327 L 0 636.222 z" fill="rgb(76,99,129)" transform="translate(0,0)"></path>
<path d="M 0 596.168 L 5.26886 596.469 C 9.51561 598.261 19.4621 600.702 24.1915 601.827 C 22.0154 608.219 20.5418 612.291 17.8093 618.456 C 11.804 619.238 5.98805 619.875 0 620.917 L 0 596.168 z" fill="rgb(16,22,27)" transform="translate(0,0)"></path>
<path d="M 11.9715 810.902 C 26.4776 810.392 26.8241 805.05 46.25 809.435 C 41.3948 814.128 37.3309 818.348 32.6722 823.165 C 23.0605 823.234 12.7957 823.345 3.23266 822.85 C 6.41185 818.69 8.75909 813.473 11.9715 810.902 z" fill="rgb(16,22,27)" transform="translate(0,0)"></path>
<path d="M 2.88838 797.642 C 12.4427 798.377 22.0758 797.781 31.4133 797.844 C 31.9736 797.847 32.7961 803.798 31.7362 804.182 C 25.832 806.32 15.5654 808.254 9.21987 809.451 C 7.14624 804.315 6.19856 802.325 2.88838 797.642 z" fill="rgb(16,22,27)" transform="translate(0,0)"></path>
<path d="M 0 794.814 L 4.73799 794.95 C 3.22666 795.854 3.43529 795.882 2.88838 797.642 C 6.19856 802.325 7.14624 804.315 9.21987 809.451 C 10.3968 809.869 10.9182 810.263 11.9715 810.902 C 8.75909 813.473 6.41185 818.69 3.23266 822.85 C 2.95153 823.96 2.8011 824.734 2.63305 825.864 L 0 825.986 L 0 822.39 L 0 798.559 L 0 794.814 z" fill="rgb(76,99,129)" transform="translate(0,0)"></path>
<path d="M 0 798.559 C 3.69876 804.116 4.11725 805.745 6.39241 811.634 C 4.21453 815.806 2.75007 818.53 0 822.39 L 0 798.559 z" fill="rgb(13,16,19)" transform="translate(0,0)"></path>
<path d="M 0 591.732 L 5.20456 591.521 C 8.41189 592.823 8.48832 595.135 5.26886 596.469 L 0 596.168 L 0 591.732 z" fill="rgb(76,99,129)" transform="translate(0,0)"></path>
<path d="M 21.1658 618.315 C 26.0506 607.628 23.5684 600.038 36.2677 601.458 L 73.3269 625.997 C 70.2797 629.088 62.0959 637.282 58.9853 639.534 C 49.4453 633 31.8978 623.824 21.1658 618.315 z" fill="rgb(16,22,27)" transform="translate(0,0)"></path>
<path d="M 76.6497 627.761 C 80.4529 629.442 84.4572 630.751 88.3671 632.487 C 91.5992 640.77 94.8785 650.248 97.6273 658.584 C 97.4167 657.946 94.0272 665.979 88.3917 662.404 C 79.8472 655.553 71.1764 648.861 62.3841 642.331 C 68.4532 634.908 69.6398 634.28 76.6497 627.761 z" fill="rgb(16,22,27)" transform="translate(0,0)"></path>
<path d="M 108.178 668.35 C 109.976 669.071 117.837 673.215 120.136 674.409 C 120.706 678.949 123.68 695.92 120.553 698.748 C 118.697 699.81 114.466 702.883 112.485 701.977 C 112.294 701.703 108.678 671.537 108.178 668.35 z" fill="rgb(16,22,27)" transform="translate(0,0)"></path>
<path d="M 99.8872 657.073 C 99.6216 650.762 90.714 636.563 93.4884 630.58 C 93.7692 629.974 97.0835 627.163 98.4509 629.228 C 104.434 638.268 109.072 648.053 114.084 657.653 C 110.79 657.895 107.462 657.798 104.281 658.304 L 99.8872 657.073 z" fill="rgb(16,22,27)" transform="translate(0,0)"></path>
<path d="M 53.4473 793.153 C 58.7965 792.692 63.9105 795.44 69.1078 797.235 C 62.3275 800.734 56.179 803.972 49.1738 807.071 C 45.1183 806.537 39.8919 805.558 35.9927 804.421 C 34.5848 804.01 33.6692 797.826 34.5503 797.588 C 40.6977 795.926 47.1354 794.685 53.4473 793.153 z" fill="rgb(16,22,27)" transform="translate(0,0)"></path>
<path d="M 100.955 661.743 L 102.187 662.281 C 106.789 671.324 107.721 688.894 108.578 699.528 C 98.0148 685.385 98.9922 682.687 92.8369 666.727 C 95.6736 664.067 97.1268 662.799 100.955 661.743 z" fill="rgb(16,22,27)" transform="translate(0,0)"></path>
<path d="M 38.9748 597.3 C 39.4946 596.832 40.6543 595.601 41.5371 595.96 C 49.067 599.02 56.2708 603.747 63.3128 607.835 C 66.9301 609.934 71.0899 611.916 73.8316 614.957 C 74.901 616.143 76.2884 623.357 72.6651 621.761 C 61.9199 614.518 49.2293 608.022 39.1187 600.034 L 38.9748 597.3 z" fill="rgb(16,22,27)" transform="translate(0,0)"></path>
<path d="M 111.321 704.121 L 112.094 704.421 C 113.096 704.804 115.163 705.85 115.187 707.02 C 115.439 718.975 123.151 725.369 110.503 730.245 C 102.438 729.865 105.557 725.478 107.435 717.687 C 107.619 716.955 107.792 716.22 107.953 715.483 C 108.855 711.351 109.954 708.086 111.321 704.121 z" fill="rgb(16,22,27)" transform="translate(0,0)"></path>
<path d="M 8.40726 593.847 C 13.7402 592.606 22.328 592.073 27.9944 591.341 C 29.2644 591.177 31.3934 594.485 32.6444 595.805 L 33.0729 596.251 C 28.1392 601.393 14.1888 596.165 8.40726 593.847 z" fill="rgb(16,22,27)" transform="translate(0,0)"></path>
<path d="M 77.4849 616.718 C 81.9981 618.662 94.6368 623.371 93.5688 628.623 L 92.087 629.364 C 88.4806 630.799 88.465 628.758 84.8169 627.325 C 76.5141 624.063 78.2636 624.525 77.4849 616.718 z" fill="rgb(16,22,27)" transform="translate(0,0)"></path>
<path d="M 49.1335 811.134 C 52.643 812.439 56.1364 813.787 59.6132 815.177 C 55.0858 817.008 50.5988 818.671 46.0795 820.456 C 31.7478 824.108 44.3538 815.512 49.1335 811.134 z" fill="rgb(13,16,19)" transform="translate(0,0)"></path>
<path d="M 69.0878 801.136 C 69.8442 803.399 68.2151 804.029 66.8612 805.864 C 61.28 813.43 63.3883 812.635 55.2706 811.427 C 54.5516 810.672 53.455 809.856 53.2846 808.872 C 53.7397 808.315 67.224 802.022 69.0878 801.136 z" fill="rgb(13,16,19)" transform="translate(0,0)"></path>
<path d="M 67.6013 781.784 C 70.6649 784.01 68.6052 787.07 68.8515 790.488 C 69.2298 795.739 63.9816 792.356 61.2844 791.377 C 60.3488 791.184 58.4469 790.936 57.7569 790.364 C 58.157 789.379 66.255 782.875 67.6013 781.784 z" fill="rgb(13,16,19)" transform="translate(0,0)"></path>
<path d="M 105.305 660.503 C 116.056 659.997 117.219 658.759 119.921 670.553 C 116.419 669.068 106.251 664.028 105.305 660.503 z" fill="rgb(13,16,19)" transform="translate(0,0)"></path>
<path d="M 120.869 700.56 C 122.495 704.687 120.933 712.43 119.616 716.629 C 118.726 712.747 116.258 705.391 119.357 702.16 L 120.869 700.56 z" fill="rgb(13,16,19)" transform="translate(0,0)"></path>
<path d="M 33.8527 595.222 L 37.8115 595.854 C 38.22 596.465 38.4966 596.749 38.9748 597.3 L 39.1187 600.034 C 38.1721 600.516 37.2218 600.991 36.2677 601.458 C 33.3262 599.37 33.733 599.704 33.0729 596.251 L 33.8527 595.222 z" fill="rgb(76,99,129)" transform="translate(0,0)"></path>
<path d="M 100.955 661.743 C 98.3947 660.3 97.6553 659.488 99.8872 657.073 L 104.281 658.304 C 103.724 660.582 103.788 660.444 102.187 662.281 L 100.955 661.743 z" fill="rgb(76,99,129)" transform="translate(0,0)"></path>
<path d="M 71.5219 804.766 L 71.8402 805.16 C 74.4684 808.465 69.5488 810.436 67.1051 811.961 C 65.3824 810.101 70.0218 806.391 71.5219 804.766 z" fill="rgb(13,16,19)" transform="translate(0,0)"></path>
<path d="M 33.8527 595.222 C 30.2034 587.92 37.2027 592.258 37.8115 595.854 L 33.8527 595.222 z" fill="rgb(16,22,27)" transform="translate(0,0)"></path>
<path d="M 2048 780.209 C 2040.04 781.659 2033.35 783.254 2025.23 782.282 C 1926.18 770.413 1943.35 621.822 2048 639.95 L 2048 780.209 z" fill="rgb(16,22,27)" transform="translate(0,0)"></path>
<path d="M 2026.95 620.915 C 2033.25 621.96 2041.47 622.12 2048 622.418 L 2048 636.474 L 2048 639.95 C 1943.35 621.822 1926.18 770.413 2025.23 782.282 C 2033.35 783.254 2040.04 781.659 2048 780.209 L 2048 798.414 L 2048 823.234 L 2048 826.085 C 2026.85 826.257 2004.37 828.301 1985.18 817.718 L 1980.25 815.549 C 1975.45 812.825 1967.24 810.885 1971.94 804.939 C 1974.46 797.929 1964.64 802.797 1966.34 798.187 C 1967.17 797.551 1969.09 797.979 1970.51 797.857 L 1973.2 797.62 C 1973.32 796.618 1973.42 795.614 1973.49 794.607 L 1976.2 795.392 C 1975.15 791.942 1974.81 783.596 1974.53 779.655 C 1963.01 764.42 1954.09 750.632 1943.72 734.677 C 1943.83 740.777 1944.34 748.178 1943.03 754.024 L 1942.29 753.992 C 1940.18 748.187 1940.81 743.34 1941.31 737.313 C 1940.92 734.854 1941.16 734.153 1939.78 732.12 L 1939.1 729.815 L 1941.22 728.5 C 1941.97 727.134 1942.54 726.239 1943.41 724.937 C 1941.66 717.675 1939.97 710.4 1938.33 703.113 C 1949.33 691.635 1951.96 681.762 1956.98 667.137 C 1967.37 659.856 1978.52 650.165 1988.9 643.28 C 2000.35 635.687 2014.86 627.813 2026.95 620.915 z" fill="rgb(73,93,123)" transform="translate(0,0)"></path>
<path d="M 2026.95 620.915 C 2033.25 621.96 2041.47 622.12 2048 622.418 L 2048 636.474 C 1972.21 626.315 1929.74 697.209 1973.4 759.589 C 1995.62 791.327 2044.78 783.504 2046.88 785.124 C 2046.95 787.832 2047.5 792.47 2046.1 794.412 C 2035.46 797.778 2004.34 793.651 1993.2 790.127 C 1983.99 777.526 1980.16 780.422 1972.95 772.136 C 1963.98 761.809 1955.02 744.689 1946.65 733.196 C 1945.38 730.312 1944.58 727.81 1943.41 724.937 C 1941.66 717.675 1939.97 710.4 1938.33 703.113 C 1949.33 691.635 1951.96 681.762 1956.98 667.137 C 1967.37 659.856 1978.52 650.165 1988.9 643.28 C 2000.35 635.687 2014.86 627.813 2026.95 620.915 z" fill="rgb(16,22,27)" transform="translate(0,0)"></path>
<path d="M 1978.34 790.402 L 1979.35 792.571 C 1979.57 793.43 1979.69 794.962 1979.78 795.871 C 1978.89 798.617 1997.2 806.52 2000.21 807.73 C 2001.14 809.74 2000.87 809.812 2000.05 811.843 C 1998.71 811.463 1997.7 811.316 1996.35 811.084 C 1995.8 810.324 1995.37 809.725 1994.87 808.932 C 1992.61 809.938 1989.78 810.796 1987.84 811.895 C 1986.3 811.624 1984.7 811.372 1983.18 811.03 C 1982.33 812.719 1981.29 813.928 1980.25 815.549 C 1975.45 812.825 1967.24 810.885 1971.94 804.939 C 1974.46 797.929 1964.64 802.797 1966.34 798.187 C 1967.17 797.551 1969.09 797.979 1970.51 797.857 L 1973.2 797.62 C 1973.32 796.618 1973.42 795.614 1973.49 794.607 L 1976.2 795.392 C 1977.05 793.62 1977.64 792.233 1978.34 790.402 z" fill="rgb(76,99,129)" transform="translate(0,0)"></path>
<path d="M 1978.6 802.585 C 1980.18 806.345 1982.06 807.571 1983.18 811.03 C 1982.33 812.719 1981.29 813.928 1980.25 815.549 C 1975.45 812.825 1967.24 810.885 1971.94 804.939 C 1974.81 803.701 1975.49 804.077 1978.6 802.585 z" fill="rgb(65,81,114)" transform="translate(0,0)"></path>
<path d="M 1975.03 807.186 C 1977.42 806.15 1979.54 810.179 1981.18 812.109 C 1978.55 811.119 1974.94 810.308 1975.03 807.186 z" fill="rgb(13,16,19)" transform="translate(0,0)"></path>
<path d="M 1978.6 802.585 C 1980.22 799.985 1992.2 807.411 1994.87 808.932 C 1992.61 809.938 1989.78 810.796 1987.84 811.895 C 1986.3 811.624 1984.7 811.372 1983.18 811.03 C 1982.06 807.571 1980.18 806.345 1978.6 802.585 z" fill="rgb(16,22,27)" transform="translate(0,0)"></path>
<path d="M 1979.78 795.871 C 1991.92 790.894 1998.82 794.839 2010.96 797.136 C 2013.12 797.544 2012.56 800.94 2011.68 802.361 C 2009.06 806.579 2005.03 805.296 2000.21 807.73 C 1997.2 806.52 1978.89 798.617 1979.78 795.871 z" fill="rgb(16,22,27)" transform="translate(0,0)"></path>
<path d="M 2039.44 808.82 C 2035.8 809.238 2030.02 807.265 2025.81 807.194 C 2022.27 806.896 2016.83 807.062 2013.74 805.359 C 2012.57 804.709 2015.08 797.431 2015.88 797.72 C 2020.47 799.368 2045.94 794.393 2042.65 801.278 C 2043.07 802.071 2043.6 803.182 2044.14 803.87 C 2043.18 806.412 2042.22 808.017 2040.86 810.337 L 2039.44 808.82 z" fill="rgb(16,22,27)" transform="translate(0,0)"></path>
<path d="M 2042.65 801.278 C 2043.07 802.071 2043.6 803.182 2044.14 803.87 C 2043.18 806.412 2042.22 808.017 2040.86 810.337 L 2039.44 808.82 C 2040.52 806.074 2041.38 803.955 2042.65 801.278 z" fill="rgb(65,81,114)" transform="translate(0,0)"></path>
<path d="M 1996.35 811.084 C 1997.7 811.316 1998.71 811.463 2000.05 811.843 C 2002.14 815.723 2007.29 819.915 2010.68 823.186 C 2001.67 820.595 1994.92 818.319 1986.13 815.217 C 1989.88 813.799 1992.72 812.869 1996.35 811.084 z" fill="rgb(16,22,27)" transform="translate(0,0)"></path>
<path d="M 2048 798.414 L 2048 823.234 C 2046.19 820.473 2041.74 813.363 2040.86 810.337 C 2042.22 808.017 2043.18 806.412 2044.14 803.87 C 2045.43 801.931 2046.57 800.264 2048 798.414 z" fill="rgb(16,22,27)" transform="translate(0,0)"></path>
<path d="M 1978.34 790.402 C 1978.25 788.607 1977.31 781.575 1978.46 780.507 C 1980.36 781.349 1989.4 787.772 1987.93 790.214 C 1987.25 791.344 1981.11 792.233 1979.35 792.571 L 1978.34 790.402 z" fill="rgb(13,16,19)" transform="translate(0,0)"></path>
<path d="M 1941.22 728.5 C 1941.97 727.134 1942.54 726.239 1943.41 724.937 C 1944.58 727.81 1945.38 730.312 1946.65 733.196 C 1944.71 736.463 1944.1 733.406 1941.67 736.813 L 1941.31 737.313 C 1940.92 734.854 1941.16 734.153 1939.78 732.12 L 1939.1 729.815 L 1941.22 728.5 z" fill="rgb(76,99,129)" transform="translate(0,0)"></path>
<path d="M 2005.08 808.202 C 2012.9 807.957 2028.95 809.932 2036.87 811.441 C 2038.82 814.243 2046.04 821.551 2042 822.999 C 2032.47 823.061 2022.93 823.059 2013.39 822.993 C 2010.02 819.101 2005.6 814.483 2002.47 810.435 C 2002.12 809.982 2004.83 808.356 2005.08 808.202 z" fill="rgb(16,22,27)" transform="translate(0,0)"></path>
<path d="M 2014.07 588.057 C 2023.19 589.586 2031.79 590.119 2041.24 591.996 C 2044.4 591.998 2045.04 592.398 2048 592.914 L 2048 596.949 L 2048 619.756 L 2048 622.418 C 2041.47 622.12 2033.25 621.96 2026.95 620.915 C 2014.86 627.813 2000.35 635.687 1988.9 643.28 C 1978.52 650.165 1967.37 659.856 1956.98 667.137 C 1951.96 681.762 1949.33 691.635 1938.33 703.113 C 1939.97 710.4 1941.66 717.675 1943.41 724.937 C 1942.54 726.239 1941.97 727.134 1941.22 728.5 L 1939.1 729.815 L 1939.78 732.12 C 1913.65 729.48 1921.82 678.458 1927.36 661.774 C 1930.96 655.144 1940.53 631.355 1945.81 627.384 C 1961.9 615.285 1996.89 595.718 2014.07 588.057 z" fill="rgb(73,93,123)" transform="translate(0,0)"></path>
<path d="M 2042.22 597.087 C 2044.95 596.235 2045.21 596.311 2048 596.949 L 2048 619.756 C 2041.64 619.45 2035.28 619.005 2028.94 618.42 C 2026.19 612.207 2024.43 608.17 2022.22 601.665 C 2028.93 600.356 2035.6 598.829 2042.22 597.087 z" fill="rgb(16,22,27)" transform="translate(0,0)"></path>
<path d="M 1939.1 729.815 C 1937.08 729.395 1931.64 728.834 1930.55 726.456 C 1928.73 722.782 1930.65 706.822 1933.49 704.529 C 1936.96 701.738 1940.9 726.253 1941.22 728.5 L 1939.1 729.815 z" fill="rgb(13,16,19)" transform="translate(0,0)"></path>
<path d="M 2037.24 595.994 C 2034.42 596.238 2015.95 601.277 2014.98 596.632 C 2013.14 587.906 2035.49 593.271 2039.48 594.625 L 2037.24 595.994 z" fill="rgb(16,22,27)" transform="translate(0,0)"></path>
<path d="M 2041.24 591.996 C 2044.4 591.998 2045.04 592.398 2048 592.914 L 2048 596.949 C 2045.21 596.311 2044.95 596.235 2042.22 597.087 C 2040.56 596.713 2038.91 596.349 2037.24 595.994 L 2039.48 594.625 C 2040.1 593.764 2040.74 592.93 2041.24 591.996 z" fill="rgb(76,99,129)" transform="translate(0,0)"></path>
<path d="M 2012.62 600.845 C 2020.99 600.332 2023.09 611.419 2025.65 618.053 C 2014.28 625.319 1999.11 633.114 1987.02 639.694 L 1972.37 625.851 C 1985.66 617.99 1999.27 608.989 2012.62 600.845 z" fill="rgb(16,22,27)" transform="translate(0,0)"></path>
<path d="M 1969.06 627.123 C 1973.34 630.422 1980.65 638.119 1984.75 642.099 L 1960.5 660.708 C 1958.88 662.05 1956.22 664.194 1954.52 663.01 C 1951.44 660.865 1947.39 660.611 1949.16 656.622 C 1952.16 649.852 1956.81 638.615 1959.13 631.997 C 1962.48 630.468 1965.8 628.843 1969.06 627.123 z" fill="rgb(16,22,27)" transform="translate(0,0)"></path>
<path d="M 1948.26 628.028 C 1950.62 629.252 1953.8 631.328 1956.05 632.819 C 1954.14 637.892 1947.24 657.182 1942.73 658.771 C 1930.98 657.583 1932.53 658.986 1936.95 649.491 C 1940.49 641.902 1944.01 635.284 1948.26 628.028 z" fill="rgb(16,22,27)" transform="translate(0,0)"></path>
<path d="M 1937.85 668.091 C 1938.38 668.799 1938.58 669.105 1938.58 670.008 C 1938.57 672.789 1934.46 701.373 1933.87 701.704 C 1932.76 702.329 1930.25 700.956 1929.23 700.51 C 1927.8 699.661 1926.38 698.812 1924.95 697.962 C 1924.15 691.393 1926.25 680.813 1927.24 674.272 C 1931.45 671.998 1933.83 670.572 1937.85 668.091 z" fill="rgb(16,22,27)" transform="translate(0,0)"></path>
<path d="M 1945.5 660.619 C 1948.31 662.498 1951.15 664.266 1953.98 666.119 C 1950.19 677.82 1948.22 684.001 1941.96 694.58 C 1941.37 695.441 1939.49 698.705 1938.37 698.594 C 1937.25 697.222 1938.72 690.991 1938.91 688.996 C 1940.02 677.856 1940.57 670.724 1945.5 660.619 z" fill="rgb(16,22,27)" transform="translate(0,0)"></path>
<path d="M 2003.82 595.736 C 2004.94 596.427 2008.28 597.953 2008.45 599.482 C 2007.88 600.325 1977.34 619.503 1974.51 621.219 C 1968.95 623.634 1970.95 618.65 1972.08 616.509 C 1974.96 611.066 1998.79 598.681 2003.82 595.736 z" fill="rgb(16,22,27)" transform="translate(0,0)"></path>
<path d="M 1967.82 617.129 C 1971.7 622.575 1959.61 628.957 1955.34 630.155 C 1954.43 629.124 1952.36 627.341 1952.36 625.897 C 1953.21 624.439 1965.39 618.488 1967.82 617.129 z" fill="rgb(13,16,19)" transform="translate(0,0)"></path>
<path d="M 1930.9 660.068 C 1933.81 660.568 1936.83 660.866 1939.73 661.253 C 1939.9 661.275 1940.23 661.583 1940.2 661.826 C 1940.05 663.368 1936.2 665.697 1935.06 666.502 C 1925.57 672.453 1926.89 668.649 1930.9 660.068 z" fill="rgb(13,16,19)" transform="translate(0,0)"></path>
<path d="M 1924.48 700.686 C 1932.37 703.771 1929.36 707.411 1927.77 715.345 C 1924.91 715.716 1924.53 703.208 1924.48 700.686 z" fill="rgb(13,16,19)" transform="translate(0,0)"></path>
<path d="M 2012.91 591.005 C 2014.36 593.009 2013.49 593.586 2011.21 594.306 C 2010.38 594.223 2009.42 594.339 2008.72 593.844 C 2008.64 593.032 2012.1 591.488 2012.91 591.005 z" fill="rgb(16,22,27)" transform="translate(0,0)"></path>
<path d="M 1838.47 487.128 C 1839.12 488.433 1839.35 488.587 1840.31 489.7 L 1842.36 489.699 L 1842.75 492.414 L 1843.16 493.288 C 1843.47 493.961 1843.33 494.718 1843.31 495.497 L 1842.24 496.713 L 1840.69 498.855 C 1832.37 492.124 1830.85 493.708 1838.47 487.128 z" fill="rgb(207,165,111)" transform="translate(0,0)"></path>
<path d="M 1955.31 779.537 C 1962.48 782.769 1968.89 788.241 1973.49 794.607 C 1973.42 795.614 1973.32 796.618 1973.2 797.62 C 1967.21 791.634 1961.16 785.665 1955.31 779.537 z" fill="rgb(65,81,114)" transform="translate(0,0)"></path>
<path d="M 1662.05 634.353 C 1673.72 622.02 1688.92 608.525 1701.5 596.812 L 1766 536.5 C 1786.86 558.199 1809.52 578.756 1830.81 599.998 C 1839.02 608.188 1854.17 621.966 1861.23 630.75 C 1861.29 635.377 1862.21 673.985 1860.79 675.848 C 1857.29 668.074 1858.98 643.632 1858.91 633.331 L 1820.64 673.081 C 1820.68 689.297 1822.11 818.152 1819.56 824.195 C 1817.06 815.882 1818.02 775.082 1818.04 764.448 L 1818.03 673.981 C 1785.35 674.126 1752.67 674.082 1719.99 673.851 C 1719.96 688.002 1720.85 820.993 1718.33 824.198 C 1715.46 817.569 1717.46 691.283 1717.17 673.054 C 1700.09 660.83 1681.6 649.018 1664.94 636.885 C 1664.62 671.75 1664.56 706.616 1664.73 741.482 L 1662.25 739.766 C 1661.39 705.345 1662.01 668.919 1662.05 634.353 z" fill="rgb(109,146,150)" transform="translate(0,0)"></path>
<path d="M 1765.33 544.433 C 1768.71 546.546 1780.6 579.473 1782.95 585.485 L 1816.85 671.123 C 1801.84 671.547 1786.81 671.77 1771.79 671.792 C 1755.62 671.878 1735.95 672.121 1720.06 671.081 C 1735.29 628.81 1749.64 586.614 1765.33 544.433 z" fill="rgb(16,22,27)" transform="translate(0,0)"></path>
<path d="M 1761.64 544.972 C 1761.74 547.766 1721.92 657.791 1717.85 670.029 L 1686.47 648.357 L 1665.39 634.235 C 1668.72 630.933 1672.41 627.671 1675.87 624.504 C 1704.63 598.239 1732.31 570.594 1761.64 544.972 z" fill="rgb(16,22,27)" transform="translate(0,0)"></path>
<path d="M 1770.98 546.013 C 1773.63 548.394 1776.41 551.107 1778.95 553.612 C 1805.03 579.295 1832.97 603.869 1857.52 630.997 C 1851.27 636.924 1844.69 643.959 1838.62 650.182 C 1832.37 656.966 1826.06 663.699 1819.7 670.382 C 1807.92 643.737 1797.38 613.39 1786.09 586.237 C 1783.1 579.023 1772.35 552.561 1770.98 546.013 z" fill="rgb(16,22,27)" transform="translate(0,0)"></path>
<path d="M 184.713 630.748 C 215.936 599.314 250.729 568.067 280.98 536.527 C 314.221 569.51 353.049 601.173 385.8 634.26 C 385.584 666.031 386.73 709.244 385.165 739.863 L 383.083 739.651 C 382.758 705.319 383.289 670.57 382.788 636.371 C 369.086 645.908 341.608 663.653 329.962 673.179 C 329.955 690.254 331.112 818.058 328.619 824.211 C 326.179 815.875 327.156 777.239 327.186 765.991 C 327.393 735.282 327.356 704.572 327.074 673.863 C 294.29 673.962 260.859 673.706 228.134 674.181 C 228.109 689.927 229.42 816.897 226.62 823.977 C 225.366 814.379 225.83 803.965 225.7 794.258 C 225.164 754.04 226.365 713.606 225.795 673.407 C 213.651 660.687 198.737 645.875 187.326 632.961 C 187.345 639.687 188.701 671.377 185.539 675.021 C 184.525 669.978 184.743 638.207 184.713 630.748 z" fill="rgb(109,146,150)" transform="translate(0,0)"></path>
<path d="M 280.415 543.579 C 282.709 545.625 321.351 657.536 326.533 671.091 L 274.75 671.69 C 259.558 671.83 244.365 671.773 229.174 671.52 C 246.049 632.081 265.19 583.751 280.415 543.579 z" fill="rgb(16,22,27)" transform="translate(0,0)"></path>
<path d="M 284.571 544.738 C 291 549.094 307.157 564.768 313.563 570.614 C 336.502 591.583 359.251 612.758 381.808 634.137 L 361.812 647.82 L 328.983 669.985 C 326.784 664.437 324.588 658.268 322.704 652.608 C 310.75 616.683 295.637 580.828 284.571 544.738 z" fill="rgb(16,22,27)" transform="translate(0,0)"></path>
<path d="M 275.732 545.951 C 275.137 554.22 233.49 654.926 227.031 670.258 C 221.318 664.841 215.056 658.2 209.443 652.539 C 202.455 645.246 195.564 638.16 188.989 630.476 C 216.471 602.941 247.097 572.282 275.732 545.951 z" fill="rgb(16,22,27)" transform="translate(0,0)"></path>
<path d="M 634.866 406.25 C 673.659 400.59 709.662 427.545 715.155 466.362 C 720.648 505.18 693.539 541.066 654.698 546.393 C 616.092 551.688 580.47 524.778 575.01 486.195 C 569.55 447.613 596.307 411.875 634.866 406.25 z" fill="rgb(254,254,254)" transform="translate(0,0)"></path>
<path d="M 639.023 417.459 C 671.493 414.057 700.59 437.58 704.067 470.043 C 707.543 502.505 684.086 531.656 651.631 535.206 C 619.072 538.768 589.806 515.219 586.319 482.651 C 582.832 450.084 606.447 420.872 639.023 417.459 z" fill="rgb(16,22,27)" transform="translate(0,0)"></path>
<path d="M 636.235 423.717 C 665.415 418.752 693.068 438.461 697.897 467.664 C 702.725 496.867 682.888 524.428 653.663 529.121 C 624.63 533.783 597.288 514.104 592.491 485.093 C 587.694 456.081 607.246 428.649 636.235 423.717 z" fill="rgb(254,254,254)" transform="translate(0,0)"></path>
<path d="M 641.281 433.764 C 664.699 431.578 685.478 448.734 687.764 472.142 C 690.05 495.551 672.984 516.403 649.586 518.79 C 626.045 521.191 605.037 503.998 602.737 480.447 C 600.437 456.896 617.72 435.963 641.281 433.764 z" fill="rgb(16,22,27)" transform="translate(0,0)"></path>
<path d="M 1389.82 406.473 C 1428.55 400.772 1464.52 427.66 1470.03 466.417 C 1475.53 505.174 1448.46 541.013 1409.68 546.317 C 1371.17 551.584 1335.65 524.75 1330.18 486.272 C 1324.72 447.794 1351.37 412.133 1389.82 406.473 z" fill="rgb(254,254,254)" transform="translate(0,0)"></path>
<path d="M 1393.75 417.44 C 1426.28 413.827 1455.58 437.306 1459.14 469.85 C 1462.69 502.394 1439.16 531.648 1406.61 535.151 C 1374.14 538.645 1344.97 515.185 1341.42 482.719 C 1337.87 450.253 1361.29 421.044 1393.75 417.44 z" fill="rgb(16,22,27)" transform="translate(0,0)"></path>
<path d="M 1390.79 423.735 C 1420 418.506 1447.87 438.104 1452.83 467.364 C 1457.79 496.624 1437.94 524.314 1408.64 529.008 C 1379.71 533.641 1352.45 514.099 1347.56 485.215 C 1342.66 456.332 1361.95 428.896 1390.79 423.735 z" fill="rgb(254,254,254)" transform="translate(0,0)"></path>
<path d="M 1396.24 433.902 C 1419.53 431.804 1440.15 448.875 1442.44 472.144 C 1444.73 495.412 1427.82 516.174 1404.57 518.652 C 1381.06 521.158 1360 504.017 1357.69 480.478 C 1355.37 456.94 1372.68 436.025 1396.24 433.902 z" fill="rgb(16,22,27)" transform="translate(0,0)"></path>
<path d="M 1704.43 200.437 L 1704.42 198.136 C 1707.7 195.573 1770.44 195.499 1773.75 197.555 C 1775.05 231.095 1774.14 269.809 1774.07 303.68 C 1804.95 303.629 1836.86 304.032 1867.61 303.491 C 1867.59 290.744 1866.03 201.321 1868.77 197.924 C 1871.09 203.446 1870.1 290.781 1870.01 303.246 C 1883.27 302.264 1900.52 300.029 1913.07 299.64 C 1912.65 288.626 1906.24 200.963 1907.87 198.001 C 1911.12 209.769 1915.24 286.353 1915.33 301.718 C 1885.61 335.172 1856.07 370.436 1826.11 403.242 C 1806.79 381.744 1787.65 360.078 1768.7 338.246 C 1758.56 326.649 1746.69 312.402 1736.1 301.528 C 1736.02 293.789 1735.36 264.291 1736.38 258.558 C 1732 252.501 1713.58 236.108 1707.26 230.312 L 1705.85 229.936 C 1704.35 225.226 1705.94 208.547 1704.43 200.437 z" fill="rgb(109,146,150)" transform="translate(0,0)"></path>
<path d="M 1704.43 200.437 L 1704.42 198.136 C 1707.7 195.573 1770.44 195.499 1773.75 197.555 C 1772.99 203.815 1773.93 225.543 1771.62 228.008 C 1764.69 234.944 1745.93 254.273 1738.53 259.324 L 1736.38 258.558 C 1732 252.501 1713.58 236.108 1707.26 230.312 L 1705.85 229.936 C 1704.35 225.226 1705.94 208.547 1704.43 200.437 z" fill="rgb(207,165,111)" transform="translate(0,0)"></path>
<path d="M 1771.62 228.008 L 1771.63 303.312 C 1760.8 302.15 1749.64 301.097 1738.88 299.692 C 1738.67 291.686 1737.57 266.446 1738.53 259.324 C 1745.93 254.273 1764.69 234.944 1771.62 228.008 z" fill="rgb(16,22,27)" transform="translate(0,0)"></path>
<path d="M 1774.78 305.986 L 1866.24 306.054 C 1858.05 327.586 1847.49 349.358 1838.34 370.691 C 1834.37 379.799 1830.57 388.711 1826 397.549 L 1774.78 305.986 z" fill="rgb(16,22,27)" transform="translate(0,0)"></path>
<path d="M 1908.5 302.485 L 1909.47 302.429 L 1910.08 303.529 C 1904.98 310.694 1890 326.196 1883.28 333.864 C 1867.45 351.909 1851.2 371.824 1834.73 389.061 C 1834.46 389.217 1833.84 389.112 1833.43 389.096 C 1833.77 385.788 1865.17 315.965 1869.52 305.841 C 1880.49 304.277 1897.07 303.427 1908.5 302.485 z" fill="rgb(16,22,27)" transform="translate(0,0)"></path>
<path d="M 1740.41 302.711 C 1749.25 303.063 1762.12 304.699 1771.55 305.329 L 1818.9 390.394 C 1812.8 386.788 1750.54 313.939 1740.41 302.711 z" fill="rgb(16,22,27)" transform="translate(0,0)"></path>
<path d="M 73.3461 825.853 L 110.215 755.037 C 125.069 726.265 127.501 714.36 158.059 699.502 C 166.28 695.504 179.29 684.236 187.404 681.326 L 187.929 683.236 L 190.348 685.263 C 192.666 694.719 194.505 704.627 196.321 714.225 C 203.388 751.571 212.629 788.674 219.656 826.005 C 211.607 826.041 166.325 827.953 162.474 824.547 C 162.32 824.411 162.204 824.237 162.069 824.081 L 159.904 825.619 C 156.501 826.29 137.371 826.071 132.816 826.059 L 73.3461 825.853 z" fill="rgb(73,93,123)" transform="translate(0,0)"></path>
<path d="M 190.348 685.263 C 192.666 694.719 194.505 704.627 196.321 714.225 C 203.388 751.571 212.629 788.674 219.656 826.005 C 211.607 826.041 166.325 827.953 162.474 824.547 C 162.32 824.411 162.204 824.237 162.069 824.081 C 163.991 819.083 169.362 789.185 170.801 781.973 L 190.348 685.263 z" fill="rgb(73,93,123)" transform="translate(0,0)"></path>
<path d="M 187.929 683.236 L 190.348 685.263 L 170.801 781.973 C 169.362 789.185 163.991 819.083 162.069 824.081 L 159.904 825.619 C 160.979 813.314 168.323 779.595 171.098 766.511 C 176.909 739.112 181.954 710.417 187.929 683.236 z" fill="rgb(13,16,19)" transform="translate(0,0)"></path>
<path d="M 177.904 303.112 C 177.734 292.341 176.806 200.921 179.46 197.473 C 181.536 225.059 180.109 273.458 180.157 303.022 C 211.373 303.064 242.588 303.345 273.8 303.866 L 273.901 229.528 L 276.292 229.224 C 286.055 237.147 299.363 252.481 308.178 259.041 L 311.043 257.84 C 311.542 271.347 311.102 287.777 311.114 301.521 C 282.527 335.52 251.222 370.063 221.959 404.008 C 192.084 369.681 161.937 335.592 131.52 301.744 C 132.65 276.862 134.284 252.006 136.423 227.191 C 136.828 221.961 138.144 201.29 139.54 197.399 C 141.721 206.579 134.919 283.199 133.999 299.563 C 148.142 300.322 163.685 301.932 177.904 303.112 z" fill="rgb(109,146,150)" transform="translate(0,0)"></path>
<path d="M 276.292 229.224 C 286.055 237.147 299.363 252.481 308.178 259.041 C 309.122 264.552 308.531 293.19 308.485 299.946 C 297.722 301.286 286.932 302.408 276.123 303.309 C 276.018 280.091 275.411 252.086 276.292 229.224 z" fill="rgb(16,22,27)" transform="translate(0,0)"></path>
<path d="M 181.043 305.51 L 272.792 305.993 C 262.299 325.989 250.554 345.957 239.308 365.586 C 233.324 376.45 227.567 387.437 222.041 398.541 C 216.989 389.214 210.703 374.103 206.226 363.993 C 197.552 344.621 189.156 325.124 181.043 305.51 z" fill="rgb(16,22,27)" transform="translate(0,0)"></path>
<path d="M 135.415 302.042 C 148.995 302.41 163.43 304.811 178.05 305.113 C 185.142 324.973 196.143 346.581 204.559 366.078 C 208.352 374.865 213.244 384.087 216.162 393.151 C 213.207 390.824 193.173 367.328 189.258 362.832 C 171.429 342.464 153.481 322.2 135.415 302.042 z" fill="rgb(16,22,27)" transform="translate(0,0)"></path>
<path d="M 275.992 306.306 C 285.864 304.591 296.517 303.699 306.534 302.674 L 234.302 385.532 L 232.187 384.529 C 246.34 358.206 260.944 332.128 275.992 306.306 z" fill="rgb(16,22,27)" transform="translate(0,0)"></path>
<path d="M 234.302 385.532 C 230.004 391.113 228.399 390.515 232.187 384.529 L 234.302 385.532 z" fill="rgb(13,16,19)" transform="translate(0,0)"></path>
<path d="M 1858.79 681.265 C 1863.51 682.898 1916.15 716.325 1917.38 718.91 C 1933.82 753.298 1957.28 791.5 1972.91 825.961 L 1886.51 825.97 C 1876.11 778.981 1868.45 728.671 1858.79 681.265 z" fill="rgb(73,93,123)" transform="translate(0,0)"></path>
<path d="M 463.293 676.244 C 480.421 690.113 502.443 710.593 518.481 725.965 C 526.703 733.846 536.632 748.777 546.357 758.209 C 546.366 769.081 546.636 781.57 546.27 792.31 C 555.366 800.635 573.38 811.876 570.915 823.731 C 568.898 825.827 566.31 825.925 563.135 825.879 C 546.119 825.635 527.932 826.301 511.019 825.377 C 506.024 820.32 512.023 813.772 515.351 809.529 C 514.453 788.464 514.967 764.493 514.948 743.218 C 505.578 743.931 496.222 744.811 486.884 745.859 C 486.9 761.19 488.097 812.212 485.702 824.202 C 484.113 821.669 484.501 754.099 484.463 745.165 L 435.992 722.813 C 434.815 752.382 435.478 781.984 435.089 811.566 C 435.035 815.703 434.866 819.809 434.366 823.918 C 431.754 818.059 432.966 734.625 432.991 721.522 C 427.593 719.397 421.662 717.909 416.052 716.351 C 415.903 731.97 416.908 753.336 415.717 768.296 L 413.989 765.814 C 408.803 761.601 396.248 749.909 391.644 744.94 L 389.511 743.502 C 394.773 737.127 408.595 719.272 413.167 715.171 C 428.267 701.629 447.379 689.454 463.293 676.244 z" fill="rgb(207,165,111)" transform="translate(0,0)"></path>
<path d="M 518.029 807.713 C 523.203 802.803 537.207 788.15 543.514 787.56 L 546.27 792.31 C 555.366 800.635 573.38 811.876 570.915 823.731 C 568.898 825.827 566.31 825.925 563.135 825.879 C 546.119 825.635 527.932 826.301 511.019 825.377 C 506.024 820.32 512.023 813.772 515.351 809.529 C 515.965 808.869 517.205 808.217 518.029 807.713 z" fill="rgb(207,165,111)" transform="translate(0,0)"></path>
<path d="M 517.043 744.54 C 525.599 749.108 535.479 755.379 543.913 760.436 C 543.963 768.869 544.297 779.329 543.514 787.56 C 537.207 788.15 523.203 802.803 518.029 807.713 C 517.381 803.82 517.502 790.344 517.467 785.907 L 517.043 744.54 z" fill="rgb(16,22,27)" transform="translate(0,0)"></path>
<path d="M 413.849 718.03 C 414.016 733.941 413.759 749.871 413.989 765.814 C 408.803 761.601 396.248 749.909 391.644 744.94 C 399.008 736.599 406.316 726.768 413.849 718.03 z" fill="rgb(16,22,27)" transform="translate(0,0)"></path>
<path d="M 466.57 683.342 C 473.259 687.009 506.223 717.889 513.863 724.972 L 503.449 731.732 C 498.046 735.666 491.666 739.655 486.011 743.35 L 472.804 736.729 C 470.273 721.75 468.365 698.923 466.57 683.342 z" fill="rgb(16,22,27)" transform="translate(0,0)"></path>
<path d="M 462.596 681.849 C 465.12 684.642 469.355 728.121 470.398 735.682 L 453.771 728.006 L 436.884 720.271 C 444.083 707.892 454.295 693.828 462.596 681.849 z" fill="rgb(16,22,27)" transform="translate(0,0)"></path>
<path d="M 455.901 685.096 C 455.525 689.537 437.526 713.28 433.458 719.431 C 429.602 718.046 426.149 716.823 422.254 715.529 C 421.116 715.167 418.991 714.859 418.786 713.415 C 420.171 711.412 451.741 688.144 455.901 685.096 z" fill="rgb(16,22,27)" transform="translate(0,0)"></path>
<path d="M 513.64 727.925 C 515.849 730.044 515.005 737.636 515.009 740.722 C 508.137 741.096 501.04 741.836 494.151 742.482 C 493.954 742.291 493.758 742.1 493.561 741.909 C 493.834 741.332 511.674 729.241 513.64 727.925 z" fill="rgb(16,22,27)" transform="translate(0,0)"></path>
<path d="M 517.125 729.442 C 521.104 731.836 535.121 749.041 537.812 753.246 C 533.021 751.562 522.434 744.42 517.008 741.345 C 517.004 737.377 517.043 733.409 517.125 729.442 z" fill="rgb(13,16,19)" transform="translate(0,0)"></path>
<path d="M 1501.02 759.381 C 1528.07 724.996 1549.98 705.253 1583 676.649 C 1590.37 680.776 1596.69 686.621 1603.33 691.208 C 1628.76 708.773 1638.37 719.163 1657.25 743.067 L 1655.37 744.83 C 1651.2 749.239 1638.04 761.327 1633.55 765.047 L 1631.26 767.518 C 1630.76 750.933 1631.14 732.704 1631.15 715.999 C 1625.62 717.636 1619.47 719.846 1613.95 721.703 C 1614.31 742.856 1613.83 764.693 1614 785.893 C 1614.07 794 1614.28 818.204 1612.89 824.81 C 1610.17 815.292 1611.55 738.847 1611.36 722.759 C 1596.13 730.532 1579.22 737.099 1563.38 745.186 C 1563.23 761.246 1564.67 812.157 1561.94 824.155 C 1560.06 821.094 1560.74 754.463 1560.76 745.172 C 1554.6 744.812 1537.4 742.876 1533.06 743.734 C 1532.92 765.502 1533.37 788.558 1532.9 810.143 L 1530.22 807.623 C 1524.58 803.95 1516.85 795.042 1511.19 790.65 C 1507.56 787.825 1507.98 788.195 1504 788.598 L 1501.32 792.996 C 1500.61 784.332 1501.02 768.626 1501.02 759.381 z" fill="rgb(189,147,93)" transform="translate(0,0)"></path>
<path d="M 1529.93 744.506 L 1533.06 743.734 C 1532.92 765.502 1533.37 788.558 1532.9 810.143 L 1530.22 807.623 C 1524.58 803.95 1516.85 795.042 1511.19 790.65 C 1507.56 787.825 1507.98 788.195 1504 788.598 C 1503.29 781.27 1503.73 768.603 1503.77 760.877 L 1529.93 744.506 z" fill="rgb(16,22,27)" transform="translate(0,0)"></path>
<path d="M 1529.93 744.506 L 1533.06 743.734 C 1532.92 765.502 1533.37 788.558 1532.9 810.143 L 1530.22 807.623 C 1529.81 786.9 1530 765.291 1529.93 744.506 z" fill="rgb(189,147,93)" transform="translate(0,0)"></path>
<path d="M 1633.72 718.538 C 1640.16 726.761 1650.03 737.435 1655.37 744.83 C 1651.2 749.239 1638.04 761.327 1633.55 765.047 C 1633.47 749.544 1633.53 734.04 1633.72 718.538 z" fill="rgb(16,22,27)" transform="translate(0,0)"></path>
<path d="M 1579.66 682.917 L 1580.22 683.575 C 1581.06 688.274 1574.52 730.188 1573.54 737.083 C 1569.39 738.859 1565.86 740.748 1561.89 742.844 C 1556.98 740.311 1551.84 736.568 1547.23 733.409 C 1542.78 730.31 1538.44 727.708 1533.81 724.902 C 1549.02 710.824 1564.3 696.829 1579.66 682.917 z" fill="rgb(16,22,27)" transform="translate(0,0)"></path>
<path d="M 1583.54 682.36 C 1588.88 686.224 1606.57 713.589 1611.12 720.53 L 1596.7 726.507 L 1576.54 735.699 C 1578.17 718.829 1581.27 699.356 1583.54 682.36 z" fill="rgb(16,22,27)" transform="translate(0,0)"></path>
<path d="M 1596.72 689.74 C 1603.25 693.507 1623.02 709.074 1629.39 714.08 L 1613.51 719.731 C 1607.37 709.402 1601.18 700.632 1593.91 691.063 L 1596.72 689.74 z" fill="rgb(16,22,27)" transform="translate(0,0)"></path>
<path d="M 1532.75 728.169 C 1538.63 730.644 1549.74 738.283 1555.63 741.843 C 1547.42 742.182 1540.79 741.14 1532.62 740.619 C 1532.6 736.468 1532.64 732.318 1532.75 728.169 z" fill="rgb(13,16,19)" transform="translate(0,0)"></path>
<path d="M 1529.42 729.773 C 1530.24 733.709 1529.96 737.609 1529.95 741.659 C 1523.56 745.485 1517.96 749.377 1511.7 753.346 C 1511.07 749.979 1526.18 733.421 1529.42 729.773 z" fill="rgb(13,16,19)" transform="translate(0,0)"></path>
<path d="M 1593.91 691.063 C 1588.44 682.945 1591.96 685.588 1596.72 689.74 L 1593.91 691.063 z" fill="rgb(13,16,19)" transform="translate(0,0)"></path>
<path d="M 1628.97 196.846 L 1691.05 196.82 L 1691.09 273.95 L 1661.81 301.294 L 1660.4 302.592 C 1652.69 296.858 1636.77 280.87 1629.15 273.573 C 1628.83 248.128 1629 222.32 1628.97 196.846 z" fill="rgb(207,165,111)" transform="translate(0,0)"></path>
<path d="M 356.26 196.715 L 418.068 196.77 L 418.003 273.922 C 407.531 283.663 397.189 293.154 387.204 303.4 L 385.641 302.845 C 378.368 293.503 364.854 282.725 356.115 273.203 L 356.26 196.715 z" fill="rgb(207,165,111)" transform="translate(0,0)"></path>
<path d="M 1991.27 196.503 L 2045.01 196.365 C 2045.17 228.655 2044.5 238.863 2037.88 269.956 L 2025.78 326.455 C 2013.14 319.584 1937.22 275.189 1930.04 267.277 L 1930.15 265.205 L 1934.2 249.005 C 1937.76 255.626 1941.9 265.365 1945.13 272.39 C 1952.86 277.959 1965.37 284.893 1973.82 289.885 L 2023.08 318.935 C 2009.61 281.389 1989.26 234.348 1974.16 196.541 L 1991.27 196.503 z" fill="rgb(73,93,123)" transform="translate(0,0)"></path>
<path d="M 3.05041 196.375 L 74.2872 196.684 C 64.4127 219.77 54.7572 242.95 45.3219 266.219 C 38.5264 282.749 30.1211 301.898 24.8067 318.71 C 33.191 314.843 46.9869 305.828 55.3473 300.667 C 70.4398 291.35 85.616 282.168 100.874 273.124 C 103.155 270.485 111.582 253.848 113.508 250.156 C 115.349 255.304 116.904 262.485 118.25 267.919 C 86.8486 285.98 54.088 307.613 22.5034 326.506 C 21.4106 322.734 20.2854 318.467 19.6027 314.468 C 14.1007 282.245 2.39229 249.703 2.80425 216.876 C 2.89232 209.858 2.9464 203.195 3.05041 196.375 z" fill="rgb(73,93,123)" transform="translate(0,0)"></path>
<path d="M 1914.38 196.473 L 1970.57 196.559 C 1986.53 230.262 1998.28 268.978 2013.53 303.261 C 2014.68 305.835 2015.61 307.61 2016.03 310.439 L 2014.53 310.828 C 1993.88 297.176 1969.67 283.795 1948.1 271.288 C 1944.23 263.914 1912.54 199.875 1912.28 197.061 L 1914.38 196.473 z" fill="rgb(73,93,123)" transform="translate(0,0)"></path>
<path d="M 77.6815 196.464 L 136.441 196.412 C 125.174 220.76 111.255 245.601 99.3703 270.38 C 89.5435 276.664 78.5383 283.041 68.4926 289.114 C 55.5418 296.741 42.7473 304.631 30.117 312.778 C 42.9816 277.575 58.2142 243.263 72.2571 208.525 C 73.9113 204.433 75.6231 200.372 77.6815 196.464 z" fill="rgb(73,93,123)" transform="translate(0,0)"></path>
<path d="M 383.083 739.651 L 385.165 739.863 L 389.511 743.502 L 391.644 744.94 C 396.248 749.909 408.803 761.601 413.989 765.814 L 415.717 768.296 C 417.193 769.193 420.211 772.082 421.632 773.367 C 420.836 790.204 421.154 808.994 421.113 825.986 L 347.027 825.919 L 347.176 773.314 C 357.701 762.373 373.667 750.749 383.083 739.651 z" fill="rgb(109,146,150)" transform="translate(0,0)"></path>
<path d="M 1662.25 739.766 L 1664.73 741.482 C 1676.06 752.635 1687.99 762.353 1699 773.041 L 1699.07 825.994 L 1624.83 825.862 L 1624.83 772.75 C 1626.52 771.365 1629.6 768.691 1631.26 767.518 L 1633.55 765.047 C 1638.04 761.327 1651.2 749.239 1655.37 744.83 L 1657.25 743.067 L 1662.25 739.766 z" fill="rgb(109,146,150)" transform="translate(0,0)"></path>
<path d="M 444.333 409.045 C 465.376 408.872 486.483 408.532 507.53 408.887 C 522.276 409.135 542.318 417.271 550.045 430.337 C 565.932 457.199 554.737 479.034 530.782 494.903 C 543.027 509.905 555.529 527.388 566.894 543.074 L 553.237 543.249 C 547.024 535.247 524.423 503.56 518.873 498.844 C 515.337 498.172 516.567 497.909 513.899 499.333 C 514.295 504.189 540.824 536.72 545.87 543.136 L 531.926 543.74 L 522.995 532.377 C 514.278 520.94 507.312 511.142 497.955 500.114 C 486.958 498.179 482.665 496.39 472.733 491.296 L 472.843 543.207 L 460.639 543.119 L 460.742 464.247 C 462.06 465.848 463.419 467.416 464.815 468.949 C 475.441 480.549 487.599 488.137 503.857 489.038 C 524.152 490.163 544.989 474.833 544.96 453.331 C 544.949 445.254 541.689 437.52 535.915 431.872 C 519.082 415.147 479.314 420.32 455.036 420.655 C 451.438 416.813 447.87 412.943 444.333 409.045 z" fill="rgb(254,254,254)" transform="translate(0,0)"></path>
<path d="M 1855.41 685.725 C 1857.89 688.627 1880.51 812.408 1882.9 826.006 L 1855.96 826.01 L 1825.26 825.953 C 1834 780.033 1848 731.667 1855.41 685.725 z" fill="rgb(73,93,123)" transform="translate(0,0)"></path>
<path d="M 1491.67 417.33 C 1495.64 419.72 1517.3 442.68 1521.65 447.278 C 1521.92 455.179 1521.74 464.152 1521.78 472.143 C 1533.88 471.919 1567.38 474.838 1572.63 466.969 C 1597.57 429.525 1529.08 437.03 1520.59 437.049 L 1509.51 426.008 C 1537.44 425.745 1604.01 417.266 1588.05 466.333 C 1573.71 490.983 1535.23 483.921 1509.69 483.764 C 1509.58 475.038 1512.53 450.143 1504.95 445.953 C 1501.28 450.586 1506.28 527.983 1503.05 541.691 C 1500.6 543.351 1495.07 543.682 1492.57 542.125 C 1491.05 539.025 1491.51 429.456 1491.67 417.33 z" fill="rgb(254,254,254)" transform="translate(0,0)"></path>
<path d="M 993.174 409.76 C 997.831 409.648 1003.79 409.878 1008.54 409.939 C 986.641 432.865 964.299 455.366 941.531 477.431 C 961.514 494.625 989.219 523.893 1008.73 543.061 L 992.447 543.059 C 977.733 529.38 950.145 500.593 933.5 486.794 C 933.099 486.462 932.192 487.198 931.431 487.618 L 931.227 490.223 C 932.928 494.807 947.712 508.03 952.138 512.287 L 984.681 543.701 L 967.335 543.672 C 952.141 528.47 936.746 513.472 921.151 498.682 L 912.082 506.762 C 912.147 515.394 912.701 534.287 911.625 541.937 C 909.591 543.389 903.27 543.203 901.13 541.829 C 899.954 534.222 900.733 510.851 900.816 501.688 C 923.268 479.306 946.188 457.41 968.199 434.588 C 976.348 426.139 984.548 417.726 993.174 409.76 z" fill="rgb(254,254,254)" transform="translate(0,0)"></path>
<path d="M 800.679 407.341 C 804.115 407.054 807.566 406.993 811.01 407.16 C 832.414 408.018 847.529 416.494 861.785 431.96 C 859.215 434.401 856.212 436.949 853.536 439.325 C 849.254 434.585 844.332 430.462 838.914 427.077 C 795.322 400.191 736.798 437.906 749.688 490.564 C 753.317 505.368 762.781 518.073 775.926 525.788 C 791.946 535.381 808.402 535.88 826.007 531.34 C 838.855 527.265 847.403 520.844 855.095 509.886 L 864.591 516.129 C 864.302 516.534 864.009 516.935 863.713 517.334 C 852.915 531.998 836.73 541.766 818.724 544.484 C 799.105 547.276 779.034 543.159 763.083 531.114 C 748.738 520.252 739.357 504.083 737.049 486.239 C 734.349 467.771 739.317 449.002 750.799 434.288 C 763.597 417.651 780.308 409.963 800.679 407.341 z" fill="rgb(254,254,254)" transform="translate(0,0)"></path>
<path d="M 442.853 418.369 C 447.386 420.895 456.455 432.825 461.146 437.835 C 476.175 453.885 495.287 486.272 520.952 466.51 C 527.176 461.583 529.597 448.419 523.073 443.079 C 512.101 434.101 484.799 437.112 470.56 436.997 C 465.894 433.579 462.733 430.08 458.734 425.95 C 486.222 425.766 551.481 417.238 536.98 464.276 C 524.439 486.129 502.126 489.785 481.389 475.41 C 471.632 468.645 462.457 456.986 454.488 448.01 L 454.753 515.145 C 454.752 521.76 456.534 538.35 452.817 542.752 C 449.149 543.362 448.415 543.228 444.799 542.79 C 444.392 542.377 443.91 541.886 443.351 541.319 C 442.334 508.154 442.964 448.668 442.853 418.369 z" fill="rgb(254,254,254)" transform="translate(0,0)"></path>
<path d="M 1105.45 424.197 C 1121.61 422.628 1134.99 427.668 1147.92 436.933 L 1142.44 444.71 C 1128.91 437.88 1108.67 427.732 1097.93 442.724 C 1096.43 444.813 1096.71 445.611 1097.15 447.763 C 1106.34 460.672 1149.62 457.186 1160.54 481.401 C 1171.14 504.897 1163.49 525.924 1141.38 538.647 C 1125.33 547.884 1106.45 546.031 1089.64 541.304 C 1075.16 534.766 1068.32 529.065 1057.43 517.684 L 1066.96 510.433 C 1072.36 517.166 1079.07 522.723 1086.7 526.762 C 1113.91 541.222 1160.2 533.516 1152.21 491.256 C 1148.61 472.224 1112.17 470.694 1097.66 463.652 C 1076.84 453.548 1084.48 430.632 1105.45 424.197 z" fill="rgb(254,254,254)" transform="translate(0,0)"></path>
<path d="M 1493.76 409.214 C 1499.69 409.093 1505.63 409.015 1511.56 408.98 C 1539.74 408.739 1574.96 403.595 1595.56 424.251 C 1603.8 432.41 1608.42 443.538 1608.37 455.133 C 1608.19 466.92 1603.28 478.14 1594.74 486.266 C 1575.71 504.722 1546.88 500.641 1521.8 500.286 L 1521.86 542.986 L 1509.51 542.948 L 1509.56 489.004 C 1535.89 489.12 1596.4 497.33 1596.33 456.246 C 1596.25 410.365 1535.81 420.385 1504.3 420.605 C 1500.15 416.499 1497.52 413.712 1493.76 409.214 z" fill="rgb(254,254,254)" transform="translate(0,0)"></path>
<path d="M 273.909 196.196 L 342.498 196.443 L 342.166 227.877 L 339.91 230.288 C 333.65 236.168 315.605 252.382 311.043 257.84 L 308.178 259.041 C 299.363 252.481 286.055 237.147 276.292 229.224 L 273.901 229.528 L 273.909 196.196 z" fill="rgb(109,146,150)" transform="translate(0,0)"></path>
<path d="M 1105.2 407.252 C 1127.03 406.218 1139.3 410.317 1157.11 423.042 L 1150.86 432.388 C 1148.59 430.596 1146.21 428.951 1143.73 427.464 C 1125.54 416.33 1096.17 411.721 1083.12 433.475 C 1071.61 452.661 1084.44 465.121 1102.88 471.374 C 1113.13 474.704 1125.05 475.572 1134.47 481.167 C 1160.91 496.876 1145.33 521.959 1120.26 527.835 C 1098.62 529.831 1085.54 521.853 1071.3 506.841 L 1080.82 499.93 C 1092.12 512.266 1101.73 518.54 1119.54 516.361 C 1126.5 515.51 1139.03 505.314 1136.07 499.407 C 1127.79 482.858 1098.4 486.363 1084.2 475.421 C 1072.62 467.863 1065.63 456.988 1067.52 442.401 C 1070.05 422.798 1087.09 410.803 1105.2 407.252 z" fill="rgb(254,254,254)" transform="translate(0,0)"></path>
<path d="M 801.836 424.304 C 821.965 421.337 835.007 429.359 848.939 442.552 L 841.282 449.294 C 820.215 428.757 786.105 428.264 770.742 454.906 C 764.992 465.007 763.536 476.994 766.701 488.178 C 769.709 498.939 777.001 507.993 786.873 513.227 C 798.875 519.525 810.507 519.064 822.995 515.169 C 832.352 510.772 834.698 508.19 841.546 500.888 L 850.901 507.468 C 819.066 543.91 764.927 531.229 754.566 485.707 C 747.467 454.515 772.421 428.887 801.836 424.304 z" fill="rgb(254,254,254)" transform="translate(0,0)"></path>
<path d="M 1206.03 409.859 C 1209.76 409.68 1214.68 409.084 1217.61 411.233 C 1218.95 420.645 1218.11 451.075 1218.04 462.057 C 1239.93 450.788 1258.59 451.849 1280.7 461.018 C 1280.76 453.294 1279.31 414.039 1282.24 410.225 C 1285.08 410.143 1289.78 409.566 1291.9 411.036 C 1293.02 419.283 1292.47 441.139 1292.43 450.5 L 1292.29 485.803 C 1287.45 480.688 1282.7 475.363 1276.43 472.056 C 1249.13 457.641 1221.34 465.238 1206.12 491.25 L 1206.03 409.859 z" fill="rgb(254,254,254)" transform="translate(0,0)"></path>
<path d="M 1241.81 471.257 C 1260.98 470.104 1277.22 473.391 1288.03 491.241 C 1293.2 499.763 1294.36 533.067 1291.74 542.342 C 1288.97 543.53 1285.59 543.048 1282.45 542.932 C 1272.87 533.937 1295.35 496.536 1258.07 482.588 C 1234.14 479.253 1220.02 494.227 1218.28 516.979 C 1217.65 525.109 1220.37 540.656 1213.04 544.659 C 1210.03 544.295 1206.34 542.917 1206.04 539.391 C 1203.46 508.887 1207.81 480.103 1241.81 471.257 z" fill="rgb(254,254,254)" transform="translate(0,0)"></path>
<path d="M 969.227 409.423 L 985.762 409.333 C 957.85 435.637 928.433 466.21 900.799 493.498 L 900.737 453.5 C 900.714 444.936 900.012 417.424 901.219 410.843 C 903.407 409.364 908.935 409.493 911.216 410.765 C 912.925 419.559 911.918 454.74 911.802 466.079 C 929.549 447.973 950.789 426.561 969.227 409.423 z" fill="rgb(254,254,254)" transform="translate(0,0)"></path>
<path d="M 889.229 409.057 C 891.736 409.347 891.934 409.276 893.871 410.755 C 895.646 438.95 893.292 469.47 894.192 497.894 C 894.633 511.835 894.448 527.873 893.836 541.825 C 891.765 543.426 889.318 543.274 886.372 543.711 C 884.127 543.265 883.974 543.305 882.328 541.819 C 881.25 529.456 882.004 503.887 882.094 490.788 C 882.273 464.989 881.621 436.944 882.613 411.326 C 884.775 409.052 885.494 409.634 889.229 409.057 z" fill="rgb(254,254,254)" transform="translate(0,0)"></path>
<path d="M 1298.6 409.944 C 1303.16 409.803 1304.99 409.662 1309.41 410.567 C 1311.27 414.624 1310.49 529.311 1310.29 543.133 C 1306.83 543.222 1301.42 543.669 1298.64 542.044 C 1297.67 531.873 1298.66 507.232 1298.74 495.514 C 1298.9 466.991 1298.86 438.467 1298.6 409.944 z" fill="rgb(254,254,254)" transform="translate(0,0)"></path>
<path d="M 1504 788.598 C 1507.98 788.195 1507.56 787.825 1511.19 790.65 C 1516.85 795.042 1524.58 803.95 1530.22 807.623 L 1532.9 810.143 C 1537.19 813.366 1541.68 818.361 1539.12 824.126 C 1535.01 827.393 1479.14 826.709 1476.13 824.367 C 1472.1 814.355 1494.16 798.666 1501.32 792.996 L 1504 788.598 z" fill="rgb(109,146,150)" transform="translate(0,0)"></path>
<path d="M 1188.58 409.701 C 1192.12 409.631 1196.49 409.158 1199.53 410.732 C 1200.57 416.94 1200.07 445.188 1200.07 452.949 L 1200 543.352 C 1196.44 543.411 1191.47 543.941 1188.79 542.03 C 1187.62 532.493 1188.26 508.812 1188.27 498.446 L 1188.58 409.701 z" fill="rgb(254,254,254)" transform="translate(0,0)"></path>
<path d="M 1576.99 236.713 C 1577 223.977 1576.77 210.493 1577.41 197.826 L 1578.19 197.262 C 1581.47 204.777 1579.59 225.612 1579.66 235.21 C 1597.31 252.159 1615.12 268.941 1633.08 285.554 C 1637.62 289.783 1654.17 305.721 1658.41 308.608 C 1660.26 306.762 1659.88 305.647 1660.4 302.592 L 1661.81 301.294 C 1661.73 303.964 1661.97 305.818 1662.25 308.432 L 1663.19 308.844 C 1676.14 298.026 1691.97 282.079 1704.46 270.176 C 1704.36 247.959 1703.48 222.344 1704.43 200.437 C 1705.94 208.547 1704.35 225.226 1705.85 229.936 L 1707.26 230.312 C 1706.24 240.233 1706.91 260.835 1706.98 271.558 C 1693.78 284.369 1674.31 303.981 1660.62 315.074 L 1576.99 236.713 z" fill="rgb(189,147,93)" transform="translate(0,0)"></path>
<path d="M 468.021 235.245 C 468.085 226.223 466.622 203.977 469.765 197.286 L 470.465 197.984 C 470.891 211.098 470.807 223.405 470.645 236.53 C 445.937 260.736 412.586 292.373 386.393 315.117 C 375.172 305.991 350.088 280.75 339.706 270.03 L 339.91 230.288 L 342.166 227.877 L 342.175 268.32 C 346.257 273.639 379.182 305.624 384.04 309.257 L 385.139 308.506 L 385.641 302.845 L 387.204 303.4 C 387.497 306.141 387.339 306.838 388.937 308.926 C 395.514 304.199 407.607 291.882 414.103 285.974 C 432.315 269.409 450.483 252.519 468.021 235.245 z" fill="rgb(189,147,93)" transform="translate(0,0)"></path>
<path d="M 1417.91 591.274 C 1418.29 579.418 1414.19 580.582 1425.54 580.915 C 1425.8 580.882 1427.13 581.366 1427.17 581.666 C 1428.27 591.293 1427.44 601.607 1427.75 611.377 C 1427.81 613.159 1417.69 611.205 1416.63 610.932 C 1413.61 612.196 1410.75 613.069 1407.63 611.564 C 1405.11 610.326 1403.23 608.077 1402.45 605.375 C 1400 596.867 1404.95 592.662 1412.55 590.779 L 1413.34 592.822 L 1417.58 592.824 L 1417.91 591.274 z" fill="rgb(207,165,111)" transform="translate(0,0)"></path>
<path d="M 1416.63 610.932 C 1413.61 612.196 1410.75 613.069 1407.63 611.564 C 1405.11 610.326 1403.23 608.077 1402.45 605.375 C 1400 596.867 1404.95 592.662 1412.55 590.779 L 1413.34 592.822 L 1417.58 592.824 C 1418.45 598.041 1418.69 605.923 1416.63 610.932 z" fill="rgb(207,165,111)" transform="translate(0,0)"></path>
<path d="M 1413.34 592.822 L 1417.58 592.824 C 1418.45 598.041 1418.69 605.923 1416.63 610.932 C 1410.5 607.699 1411.29 598.349 1413.34 592.822 z" fill="rgb(13,16,19)" transform="translate(0,0)"></path>
<path d="M 890.774 593.222 C 893.702 591.642 896.514 589.934 900.043 591.163 C 901.671 591.746 902.971 592.999 903.613 594.605 C 904.399 596.558 904.255 608.796 904.325 611.825 C 900.594 611.879 897.593 612.544 894.589 610.86 C 891.915 610.857 891.961 610.793 889.518 611.83 C 886.417 612.006 882.767 611.98 879.635 611.889 L 879.648 591.347 L 879.244 591.345 C 884.409 590.452 886.011 591.328 890.282 593.031 L 890.774 593.222 z" fill="rgb(207,165,111)" transform="translate(0,0)"></path>
<path d="M 879.648 591.347 L 879.244 591.345 C 884.409 590.452 886.011 591.328 890.282 593.031 L 890.774 593.222 C 888.368 598.949 889.278 605.583 889.518 611.83 C 886.417 612.006 882.767 611.98 879.635 611.889 L 879.648 591.347 z" fill="rgb(207,165,111)" transform="translate(0,0)"></path>
<path d="M 890.774 593.222 C 897.805 593.167 895.147 605.168 894.589 610.86 C 891.915 610.857 891.961 610.793 889.518 611.83 C 889.278 605.583 888.368 598.949 890.774 593.222 z" fill="rgb(13,16,19)" transform="translate(0,0)"></path>
<path d="M 1132.34 590.745 C 1145.36 597.505 1144.41 607.903 1130.64 612.244 C 1127.02 613.03 1126.81 613.001 1123.13 612.729 C 1110.64 604.708 1110.27 597.601 1123.98 590.963 L 1125.16 592.019 C 1126.63 592.442 1128.32 592.697 1129.84 592.975 C 1130.58 592.267 1131.51 591.318 1132.34 590.745 z" fill="rgb(207,165,111)" transform="translate(0,0)"></path>
<path d="M 1132.34 590.745 C 1145.36 597.505 1144.41 607.903 1130.64 612.244 L 1130.28 610.844 C 1130.47 604.911 1131.08 598.69 1129.84 592.975 C 1130.58 592.267 1131.51 591.318 1132.34 590.745 z" fill="rgb(207,165,111)" transform="translate(0,0)"></path>
<path d="M 1125.16 592.019 C 1126.63 592.442 1128.32 592.697 1129.84 592.975 C 1131.08 598.69 1130.47 604.911 1130.28 610.844 L 1130.64 612.244 C 1127.02 613.03 1126.81 613.001 1123.13 612.729 L 1124.37 611.035 C 1124.49 604.751 1124.03 598.045 1125.16 592.019 z" fill="rgb(13,16,19)" transform="translate(0,0)"></path>
<path d="M 1130.28 610.844 L 1130.64 612.244 C 1127.02 613.03 1126.81 613.001 1123.13 612.729 L 1124.37 611.035 C 1126.4 610.926 1128.23 610.853 1130.28 610.844 z" fill="rgb(113,93,70)" transform="translate(0,0)"></path>
<path d="M 1381.54 612.621 L 1380.9 612.234 C 1354.75 596.611 1398.42 578.666 1398.79 601.505 C 1398.85 604.253 1397.78 606.906 1395.83 608.846 C 1393.79 610.909 1391.79 611.533 1389.15 612.522 C 1385.59 613.138 1385.07 613.051 1381.54 612.621 z" fill="rgb(207,165,111)" transform="translate(0,0)"></path>
<path d="M 1383.56 611.203 C 1379.45 581.993 1393.55 588.815 1388.32 610.836 C 1386.77 610.935 1385.08 611.011 1383.56 611.203 z" fill="rgb(13,16,19)" transform="translate(0,0)"></path>
<path d="M 1383.56 611.203 C 1385.08 611.011 1386.77 610.935 1388.32 610.836 L 1389.15 612.522 C 1385.59 613.138 1385.07 613.051 1381.54 612.621 L 1383.56 611.203 z" fill="rgb(113,93,70)" transform="translate(0,0)"></path>
<path d="M 975.451 591.544 C 977.735 590.982 979.949 590.796 982.045 592.168 C 983.569 593.145 984.619 594.712 984.944 596.493 C 985.295 598.359 985.092 607.921 985.146 610.772 L 985.057 612.347 C 980.107 612.26 976.317 610.362 974.47 611.08 C 965.485 614.298 957.44 608.83 964.26 603.038 L 965.542 601.43 C 963.245 597.125 962.151 590.12 969.284 591.71 C 971.609 591.875 973.125 591.705 975.451 591.544 z" fill="rgb(207,165,111)" transform="translate(0,0)"></path>
<path d="M 965.542 601.43 C 963.245 597.125 962.151 590.12 969.284 591.71 C 971.609 591.875 973.125 591.705 975.451 591.544 C 975.487 595.862 976.471 598.63 974.018 601.364 C 970.633 601.542 967.525 602.2 964.26 603.038 L 965.542 601.43 z" fill="rgb(207,165,111)" transform="translate(0,0)"></path>
<path d="M 969.284 591.71 C 971.609 591.875 973.125 591.705 975.451 591.544 C 975.487 595.862 976.471 598.63 974.018 601.364 C 970.633 601.542 967.525 602.2 964.26 603.038 L 965.542 601.43 C 972.352 599.146 973.842 599.454 969.72 592.458 L 969.284 591.71 z" fill="rgb(41,40,35)" transform="translate(0,0)"></path>
<path d="M 964.26 603.038 C 967.525 602.2 970.633 601.542 974.018 601.364 L 974.054 601.835 C 971.925 605.836 972.009 605.549 973.089 609.849 L 974.47 611.08 C 965.485 614.298 957.44 608.83 964.26 603.038 z" fill="rgb(207,165,111)" transform="translate(0,0)"></path>
<path d="M 974.054 601.835 C 977.361 604.952 976.207 607.258 973.089 609.849 C 972.009 605.549 971.925 605.836 974.054 601.835 z" fill="rgb(13,16,19)" transform="translate(0,0)"></path>
<path d="M 706.862 591.874 C 719.945 586.979 716.011 604.822 717.99 611.599 C 711.938 614.339 710.192 610.433 706.039 610.866 C 704.8 610.995 701.587 614.175 698.199 612.627 C 691.689 609.652 693.637 604.736 697.783 601.495 L 698.072 599.964 C 691.089 594.576 698.923 590.428 701.255 592.274 C 702.963 592.295 705.128 592.029 706.862 591.874 z" fill="rgb(207,165,111)" transform="translate(0,0)"></path>
<path d="M 698.072 599.964 C 691.089 594.576 698.923 590.428 701.255 592.274 C 701.987 596.36 704.109 592.845 703.188 599.289 C 701.675 599.455 699.505 599.617 698.072 599.964 z" fill="rgb(207,165,111)" transform="translate(0,0)"></path>
<path d="M 701.255 592.274 C 702.963 592.295 705.128 592.029 706.862 591.874 C 707.034 594.96 707.153 598.048 707.221 601.138 C 705.776 600.526 704.573 600.047 703.188 599.289 C 704.109 592.845 701.987 596.36 701.255 592.274 z" fill="rgb(13,16,19)" transform="translate(0,0)"></path>
<path d="M 704.165 601.502 L 707.307 602.682 C 706.653 613.184 702.702 611.594 704.165 601.502 z" fill="rgb(13,16,19)" transform="translate(0,0)"></path>
<path d="M 698.072 599.964 C 699.505 599.617 701.675 599.455 703.188 599.289 C 704.573 600.047 705.776 600.526 707.221 601.138 L 707.307 602.682 L 704.165 601.502 C 701.583 600.876 701.078 601.308 698.456 601.46 L 697.783 601.495 L 698.072 599.964 z" fill="rgb(86,75,62)" transform="translate(0,0)"></path>
<path d="M 1086.01 581.059 C 1089.99 580.784 1093.27 581.024 1097.64 580.641 L 1097.16 582.868 C 1096.79 590.189 1096.96 604.169 1097.07 611.777 C 1093.39 611.858 1089.7 611.908 1086.02 611.928 L 1086.01 581.059 z" fill="rgb(207,165,111)" transform="translate(0,0)"></path>
<path d="M 842.739 581.026 C 846.459 580.951 850.179 580.934 853.899 580.976 L 853.906 611.826 C 850.42 611.866 846.47 612.012 843.028 611.886 C 843.078 603.683 843.189 595.189 842.846 587.01 C 842.858 585.015 842.822 583.019 842.739 581.026 z" fill="rgb(207,165,111)" transform="translate(0,0)"></path>
<path d="M 1321.33 613.559 C 1317.37 612.881 1314.59 612.578 1310.89 610.506 C 1307.17 608.444 1304.46 604.94 1303.4 600.818 C 1300.16 588.31 1309.29 583.029 1319.61 580.5 L 1319.98 581.694 C 1313.49 589.954 1312.91 603.731 1320.05 611.752 L 1321.33 613.559 z" fill="rgb(207,165,111)" transform="translate(0,0)"></path>
<path d="M 920.162 590.006 C 921.162 590.072 922.063 590.163 923.059 590.275 C 934.55 595.206 939.112 605.136 925.043 601.208 C 922.881 601.623 920.731 602.097 918.596 602.631 C 919.456 607.505 919.299 607.184 921.634 611.642 C 923.636 611.353 925.506 610.932 927.483 610.518 L 928.297 612.344 C 923.811 613.274 921.786 613.197 917.24 612.947 C 911.579 609.196 907.734 606.248 909.887 598.454 C 911.44 592.832 915.76 592.515 920.162 590.006 z" fill="rgb(207,165,111)" transform="translate(0,0)"></path>
<path d="M 923.059 590.275 C 934.55 595.206 939.112 605.136 925.043 601.208 L 924.137 599.27 C 924.052 595.15 924.236 594.342 923.059 590.275 z" fill="rgb(207,165,111)" transform="translate(0,0)"></path>
<path d="M 920.162 590.006 C 921.162 590.072 922.063 590.163 923.059 590.275 C 924.236 594.342 924.052 595.15 924.137 599.27 L 925.043 601.208 C 922.881 601.623 920.731 602.097 918.596 602.631 C 918.892 602.18 919.188 601.729 919.484 601.279 C 919.077 596.179 918.928 594.944 920.162 590.006 z" fill="rgb(13,16,19)" transform="translate(0,0)"></path>
<path d="M 924.137 599.27 L 925.043 601.208 C 922.881 601.623 920.731 602.097 918.596 602.631 C 918.892 602.18 919.188 601.729 919.484 601.279 C 921.026 600.588 922.577 599.918 924.137 599.27 z" fill="rgb(144,117,84)" transform="translate(0,0)"></path>
<path d="M 921.634 611.642 C 923.636 611.353 925.506 610.932 927.483 610.518 L 928.297 612.344 C 923.811 613.274 921.786 613.197 917.24 612.947 C 919.39 612.585 919.616 612.537 921.634 611.642 z" fill="rgb(144,117,84)" transform="translate(0,0)"></path>
<path d="M 576.15 612.776 C 554.766 607.553 556.784 586.519 576.344 580.319 L 577.587 582.142 C 571.149 591.57 570.695 602.411 578.358 611.215 C 577.454 611.977 577.22 612.188 576.15 612.776 z" fill="rgb(207,165,111)" transform="translate(0,0)"></path>
<path d="M 1210.87 581.029 C 1222.8 580.606 1221.91 579.237 1221.76 590.967 C 1221.68 597.636 1221.59 605.236 1221.82 611.913 C 1219.74 611.916 1212.27 612.278 1210.82 611.371 C 1212.59 608.009 1212.23 585.025 1210.87 581.029 z" fill="rgb(207,165,111)" transform="translate(0,0)"></path>
<path d="M 723.704 580.385 C 727.455 580.336 731.206 580.327 734.956 580.356 L 735.031 611.711 C 731.634 611.64 728.333 611.716 725.018 611.659 C 725.055 605.548 726.024 584.612 723.704 580.385 z" fill="rgb(207,165,111)" transform="translate(0,0)"></path>
<path d="M 817.24 581.505 C 822.212 580.943 825.005 581.022 830.072 581.023 C 831.645 586.556 833.632 593.344 835.355 598.827 C 835.719 600.676 836.214 601.69 836.901 603.416 C 836.224 605.634 835.088 611.859 833.383 612.101 C 828.192 612.835 822.096 590.426 820.781 586.732 C 820.372 584.251 819.009 583.288 817.24 581.505 z" fill="rgb(207,165,111)" transform="translate(0,0)"></path>
<path d="M 1233.01 590.509 L 1233.42 591.493 C 1230.84 594.746 1231.71 596.186 1235.45 596.145 C 1245.21 596.039 1253.59 606.768 1241.98 612.242 C 1237.32 613.849 1234.7 612.681 1229.99 610.932 C 1224.82 612.547 1227.34 605.523 1228.51 604.521 L 1230.22 604.153 C 1226.08 597.932 1226.47 594.647 1233.01 590.509 z" fill="rgb(207,165,111)" transform="translate(0,0)"></path>
<path d="M 1230.22 604.153 C 1234.53 604.995 1245.02 605.917 1241.63 611.315 L 1241.98 612.242 C 1237.32 613.849 1234.7 612.681 1229.99 610.932 C 1224.82 612.547 1227.34 605.523 1228.51 604.521 L 1230.22 604.153 z" fill="rgb(13,16,19)" transform="translate(0,0)"></path>
<path d="M 1230.91 609.263 C 1236.93 611.365 1235.25 610.906 1241.63 611.315 L 1241.98 612.242 C 1237.32 613.849 1234.7 612.681 1229.99 610.932 L 1230.91 609.263 z" fill="rgb(113,93,70)" transform="translate(0,0)"></path>
<path d="M 1229.99 610.932 C 1224.82 612.547 1227.34 605.523 1228.51 604.521 C 1229.36 606.529 1229.83 607.423 1230.91 609.263 L 1229.99 610.932 z" fill="rgb(207,165,111)" transform="translate(0,0)"></path>
<path d="M 1462.96 592.976 C 1463.6 593.439 1464.24 593.912 1464.86 594.394 C 1471.22 598.317 1491.52 600.269 1477.44 611.6 C 1471.75 613.838 1471.03 613.646 1465.49 611.153 C 1463.38 611.553 1462.72 611.609 1460.8 612.412 C 1460.64 610.552 1459.77 603.792 1461.54 602.793 C 1461.83 602.955 1462.13 603.117 1462.42 603.279 C 1462.62 603.044 1462.83 602.809 1463.03 602.575 C 1461.22 597.635 1461.9 597.941 1462.96 592.976 z" fill="rgb(207,165,111)" transform="translate(0,0)"></path>
<path d="M 1463.03 602.575 C 1463.91 603.047 1464.79 603.53 1465.66 604.022 C 1469.88 606.209 1477.73 605.681 1477.39 609.671 L 1477.44 611.6 C 1471.75 613.838 1471.03 613.646 1465.49 611.153 C 1463.38 611.553 1462.72 611.609 1460.8 612.412 C 1460.64 610.552 1459.77 603.792 1461.54 602.793 C 1461.83 602.955 1462.13 603.117 1462.42 603.279 C 1462.62 603.044 1462.83 602.809 1463.03 602.575 z" fill="rgb(16,22,27)" transform="translate(0,0)"></path>
<path d="M 1463.03 602.575 C 1463.91 603.047 1464.79 603.53 1465.66 604.022 C 1464.59 604.817 1463.54 605.534 1462.44 606.288 C 1464.08 607.696 1465.46 609.002 1467 610.502 L 1465.49 611.153 C 1463.38 611.553 1462.72 611.609 1460.8 612.412 C 1460.64 610.552 1459.77 603.792 1461.54 602.793 C 1461.83 602.955 1462.13 603.117 1462.42 603.279 C 1462.62 603.044 1462.83 602.809 1463.03 602.575 z" fill="rgb(13,16,19)" transform="translate(0,0)"></path>
<path d="M 1460.8 612.412 C 1461.31 610.36 1461.85 608.318 1462.44 606.288 C 1464.08 607.696 1465.46 609.002 1467 610.502 L 1465.49 611.153 C 1463.38 611.553 1462.72 611.609 1460.8 612.412 z" fill="rgb(207,165,111)" transform="translate(0,0)"></path>
<path d="M 1467 610.502 C 1471.7 611.302 1473.02 611.491 1477.39 609.671 L 1477.44 611.6 C 1471.75 613.838 1471.03 613.646 1465.49 611.153 L 1467 610.502 z" fill="rgb(86,75,62)" transform="translate(0,0)"></path>
<path d="M 993.861 580.683 C 995.917 580.624 1000.72 579.973 1002.48 581.109 C 1004.29 582.281 1002.73 607.198 1003.65 611.152 L 1003.79 611.772 C 1000.83 611.779 996.42 611.963 993.648 611.561 L 993.888 611.567 C 993.864 601.331 994.049 590.875 993.861 580.683 z" fill="rgb(207,165,111)" transform="translate(0,0)"></path>
<path d="M 1185.78 590.512 C 1188.13 590.475 1187.49 594.463 1187.67 596.49 C 1186.95 597.23 1186.45 597.833 1185.78 598.617 C 1191.34 603.787 1190.9 605.671 1186.49 611.31 L 1184.68 610.838 C 1184.22 606.328 1179.5 606.862 1176.03 605.519 C 1168.18 602.485 1164.99 596.742 1173.73 591.776 C 1177.93 590.365 1181.22 590.871 1185.78 590.512 z" fill="rgb(207,165,111)" transform="translate(0,0)"></path>
<path d="M 1185.78 590.512 C 1188.13 590.475 1187.49 594.463 1187.67 596.49 C 1186.95 597.23 1186.45 597.833 1185.78 598.617 C 1181.3 597.738 1176.53 596.906 1173.75 593.23 L 1173.73 591.776 C 1177.93 590.365 1181.22 590.871 1185.78 590.512 z" fill="rgb(13,16,19)" transform="translate(0,0)"></path>
<path d="M 1173.73 591.776 C 1177.93 590.365 1181.22 590.871 1185.78 590.512 L 1182.94 592.654 C 1178.65 591.961 1178.01 591.793 1173.75 593.23 L 1173.73 591.776 z" fill="rgb(86,75,62)" transform="translate(0,0)"></path>
<path d="M 1185.78 590.512 C 1188.13 590.475 1187.49 594.463 1187.67 596.49 C 1185.96 595.192 1184.56 594.064 1182.94 592.654 L 1185.78 590.512 z" fill="rgb(207,165,111)" transform="translate(0,0)"></path>
<path d="M 741.852 592.867 C 747.121 588.901 750.749 591.012 757.834 590.379 C 759.234 592.889 759.347 593.652 758.196 596.383 L 757.946 599.328 C 761.532 603.275 761.071 610.292 755.814 611.71 L 755.593 611.65 C 755.38 611.155 757.407 607.461 754.493 606.829 C 748.215 605.467 749.014 606.212 743.06 603.566 C 742.707 603.146 742.492 602.817 742.047 602.529 C 739.968 597.272 740.84 598.522 741.765 593.379 L 741.852 592.867 z" fill="rgb(207,165,111)" transform="translate(0,0)"></path>
<path d="M 741.852 592.867 C 747.121 588.901 750.749 591.012 757.834 590.379 C 759.234 592.889 759.347 593.652 758.196 596.383 L 757.946 599.328 C 755.305 598.668 748.743 596.943 746.452 595.807 L 743.856 594.494 C 743.135 593.879 742.62 593.43 741.852 592.867 z" fill="rgb(13,16,19)" transform="translate(0,0)"></path>
<path d="M 741.852 592.867 C 747.121 588.901 750.749 591.012 757.834 590.379 C 756.968 591.067 756.109 591.765 755.258 592.472 C 749.613 592.145 748.236 590.963 743.856 594.494 C 743.135 593.879 742.62 593.43 741.852 592.867 z" fill="rgb(41,40,35)" transform="translate(0,0)"></path>
<path d="M 757.834 590.379 C 759.234 592.889 759.347 593.652 758.196 596.383 L 755.258 592.472 C 756.109 591.765 756.968 591.067 757.834 590.379 z" fill="rgb(189,147,93)" transform="translate(0,0)"></path>
<path d="M 655.781 591.854 C 657.305 591.855 658.791 591.787 660.312 591.732 C 663.435 590.983 671.054 590.678 669.043 596.028 L 670.017 598.567 C 671.223 604.909 672.966 606.716 667.223 611.314 L 666.997 609.686 C 663.889 602.836 649.906 608.49 651.052 596.978 C 651.327 594.211 653.63 593.126 655.781 591.854 z" fill="rgb(207,165,111)" transform="translate(0,0)"></path>
<path d="M 655.781 591.854 C 657.305 591.855 658.791 591.787 660.312 591.732 C 663.435 590.983 671.054 590.678 669.043 596.028 L 670.017 598.567 C 665.229 597.766 656.582 597.26 655.781 591.854 z" fill="rgb(13,16,19)" transform="translate(0,0)"></path>
<path d="M 660.312 591.732 C 663.435 590.983 671.054 590.678 669.043 596.028 C 664.71 594.256 664.504 592.105 660.312 591.732 z" fill="rgb(207,165,111)" transform="translate(0,0)"></path>
<path d="M 687.464 612.654 C 672.327 614.24 677.659 604.834 676.554 594.247 C 676.486 593.597 674.569 593.481 673.926 593.112 C 673.674 592.2 674.075 591.213 674.985 591.148 C 678.375 590.906 675.537 585.389 679.493 585.972 C 681.262 586.233 685.184 584.724 685.34 585.032 C 687.61 589.507 683.533 589.185 687.96 592.353 C 687.977 592.65 687.743 592.928 687.528 593.132 C 687.016 593.617 686.674 593.507 686.31 594.02 C 684.993 595.878 686.161 608.213 686.391 610.736 L 687.464 612.654 z" fill="rgb(207,165,111)" transform="translate(0,0)"></path>
<path d="M 863.214 587.808 C 865.005 589.828 868.094 590.019 870.121 588.235 L 870.846 590.915 C 872.29 592.922 872.388 608.868 872.168 611.395 C 872.074 611.47 871.98 611.545 871.885 611.619 C 863.399 611.808 860.647 614.857 862.131 604.515 C 862.523 601.785 861.424 591.623 861.302 592.082 C 861.69 591.914 862.079 591.747 862.467 591.58 L 863.214 587.808 z" fill="rgb(207,165,111)" transform="translate(0,0)"></path>
<path d="M 863.214 587.808 C 865.005 589.828 868.094 590.019 870.121 588.235 L 870.846 590.915 C 867.803 591.272 865.536 591.461 862.467 591.58 L 863.214 587.808 z" fill="rgb(13,16,19)" transform="translate(0,0)"></path>
<path d="M 938.59 591.535 C 942.541 591.505 946.16 590.286 948.808 593.079 L 949.093 596.261 L 948.94 596.812 C 947.009 612.353 953.701 612.323 938.113 612.148 C 938.378 605.295 938.649 598.388 938.59 591.535 z" fill="rgb(207,165,111)" transform="translate(0,0)"></path>
<path d="M 597.799 591.25 C 601.467 591.498 605.973 591.332 609.402 592.119 C 610.02 592.261 610.01 594.486 610.589 594.923 C 611.505 594.606 612.192 593.962 612.841 594.049 C 613.375 595.841 610.64 597.068 610.501 598.148 C 610.048 601.662 610.308 607.512 610.396 611.051 C 609.415 612.987 600.419 612.222 599.459 611.381 C 601.932 606.337 602.36 595.692 597.799 591.25 z" fill="rgb(207,165,111)" transform="translate(0,0)"></path>
<path d="M 1193.1 591.016 C 1196.04 591.199 1202 591.607 1204.75 591.917 C 1204.72 595.532 1205.5 609.682 1205.19 611.912 C 1201.67 611.917 1198.15 612.076 1194.64 611.753 C 1196.74 614.134 1193.47 592.643 1193.1 591.016 z" fill="rgb(207,165,111)" transform="translate(0,0)"></path>
<path d="M 635.791 614.351 C 631.364 607.663 618.539 585.634 634.571 592.078 C 635.491 592.449 639.299 602.2 640.358 604.227 L 641.174 606.077 C 639.691 608.995 638.249 611.934 636.85 614.893 L 635.791 614.351 z" fill="rgb(207,165,111)" transform="translate(0,0)"></path>
<path d="M 1149.91 591.973 L 1150.45 592.465 C 1148.91 601.562 1164.64 595.48 1165.35 604.525 C 1165.56 607.208 1163.13 609.635 1161.25 611.336 L 1160.46 610.146 C 1160.69 603.492 1148.9 608.104 1145.52 601.928 C 1142.7 596.788 1145.88 593.951 1149.91 591.973 z" fill="rgb(207,165,111)" transform="translate(0,0)"></path>
<path d="M 1354.85 613.133 C 1349.27 610.073 1342.96 606.475 1345.35 598.601 C 1346.12 596.002 1347.96 593.853 1350.41 592.687 C 1353.2 591.355 1354.27 591.238 1357.04 592.151 C 1355.5 594.34 1353.01 598.951 1356.91 600.054 C 1353.88 605.399 1354.83 606.447 1357.59 611.854 C 1356.28 612.679 1356.3 612.782 1354.85 613.133 z" fill="rgb(207,165,111)" transform="translate(0,0)"></path>
<path d="M 1012.93 591.65 L 1013.31 592.867 C 1013.82 598.876 1039.21 597.177 1025.41 611.509 L 1024.06 609.962 C 1022.82 603.716 1000.24 604.299 1012.93 591.65 z" fill="rgb(207,165,111)" transform="translate(0,0)"></path>
<path d="M 1445.65 612.122 C 1424.88 611.445 1432.67 588.055 1444.17 592.163 C 1442.49 595.206 1442.02 596.403 1443.96 599.366 C 1442.4 604.847 1442.13 606.879 1445.76 611.291 L 1445.65 612.122 z" fill="rgb(207,165,111)" transform="translate(0,0)"></path>
<path d="M 1327.2 597.758 L 1326.67 597.755 C 1327.13 597.699 1341.35 597.826 1340.82 597.584 L 1340.89 597.784 C 1339.6 599.946 1337.48 599.049 1337.85 602.988 C 1337.98 604.443 1338.19 610.35 1337.07 611.479 C 1335.77 612.78 1334.77 609.82 1332.89 610.473 C 1330.87 611.178 1328.68 611.914 1326.64 612.476 C 1326.72 611.887 1326.76 611.432 1326.92 610.86 C 1327.82 605.733 1327.54 602.82 1327.2 597.758 z" fill="rgb(207,165,111)" transform="translate(0,0)"></path>
<path d="M 1360.13 591.572 C 1370.27 591.027 1376.4 605.133 1360.33 601.51 L 1356.91 600.054 C 1353.01 598.951 1355.5 594.34 1357.04 592.151 L 1360.13 591.572 z" fill="rgb(207,165,111)" transform="translate(0,0)"></path>
<path d="M 1357.04 592.151 L 1360.13 591.572 C 1360.09 595.099 1360.15 598.002 1360.33 601.51 L 1356.91 600.054 C 1353.01 598.951 1355.5 594.34 1357.04 592.151 z" fill="rgb(13,16,19)" transform="translate(0,0)"></path>
<path d="M 1446.54 591.775 C 1448.83 590.913 1450.04 591.12 1452.41 592.263 C 1454.79 593.409 1456.58 595.506 1457.33 598.037 C 1459.08 603.721 1448.99 601.607 1446.72 600.545 L 1443.96 599.366 C 1442.02 596.403 1442.49 595.206 1444.17 592.163 L 1446.54 591.775 z" fill="rgb(207,165,111)" transform="translate(0,0)"></path>
<path d="M 1446.54 591.775 C 1448.01 595.486 1448.56 597.015 1446.72 600.545 L 1443.96 599.366 C 1442.02 596.403 1442.49 595.206 1444.17 592.163 L 1446.54 591.775 z" fill="rgb(13,16,19)" transform="translate(0,0)"></path>
<path d="M 785.322 592.504 C 788.369 591.056 792.012 592.349 793.466 595.393 C 794.919 598.437 793.633 602.083 790.592 603.542 C 787.542 605.005 783.884 603.715 782.427 600.663 C 780.97 597.611 782.267 593.955 785.322 592.504 z" fill="rgb(207,165,111)" transform="translate(0,0)"></path>
<path d="M 1272.08 592.248 C 1275.1 591.196 1278.41 592.682 1279.63 595.634 C 1280.85 598.585 1279.55 601.975 1276.67 603.358 C 1274.66 604.324 1272.28 604.098 1270.48 602.772 C 1268.69 601.445 1267.78 599.235 1268.11 597.029 C 1268.45 594.823 1269.97 592.983 1272.08 592.248 z" fill="rgb(207,165,111)" transform="translate(0,0)"></path>
<path d="M 1054.14 592.64 C 1056.09 591.793 1058.34 592.055 1060.04 593.328 C 1061.73 594.601 1062.62 596.688 1062.35 598.793 C 1062.08 600.898 1060.7 602.696 1058.74 603.502 C 1055.75 604.73 1052.33 603.321 1051.07 600.344 C 1049.81 597.368 1051.18 593.931 1054.14 592.64 z" fill="rgb(207,165,111)" transform="translate(0,0)"></path>
<path d="M 951.593 591.568 C 967.737 587.853 958.955 606.22 951.889 598.031 C 950.952 597.602 949.903 597.203 948.94 596.812 L 949.093 596.261 L 948.808 593.079 C 950.39 592.814 950.363 592.663 951.593 591.568 z" fill="rgb(207,165,111)" transform="translate(0,0)"></path>
<path d="M 948.808 593.079 C 950.39 592.814 950.363 592.663 951.593 591.568 L 952.437 593.271 C 954.645 595.012 953.022 595.169 951.889 598.031 C 950.952 597.602 949.903 597.203 948.94 596.812 L 949.093 596.261 L 948.808 593.079 z" fill="rgb(41,40,35)" transform="translate(0,0)"></path>
<path d="M 948.808 593.079 C 950.39 592.814 950.363 592.663 951.593 591.568 L 952.437 593.271 L 949.093 596.261 L 948.808 593.079 z" fill="rgb(144,117,84)" transform="translate(0,0)"></path>
<path d="M 1196.74 580.205 C 1199.09 578.81 1202.12 579.593 1203.5 581.951 C 1204.88 584.308 1204.07 587.335 1201.7 588.692 C 1199.36 590.034 1196.37 589.237 1195.01 586.906 C 1193.65 584.576 1194.42 581.585 1196.74 580.205 z" fill="rgb(207,165,111)" transform="translate(0,0)"></path>
<path d="M 863.214 587.808 C 861.417 585.78 861.605 582.68 863.634 580.885 C 865.664 579.09 868.764 579.282 870.556 581.313 C 872.349 583.344 872.154 586.444 870.121 588.235 C 868.094 590.019 865.005 589.828 863.214 587.808 z" fill="rgb(207,165,111)" transform="translate(0,0)"></path>
<path d="M 820.781 586.732 C 819.237 593.571 820.228 600.065 819.904 606.975 C 819.678 611.8 821.043 609.872 823.017 611.476 L 822.838 611.675 C 821.715 612.046 816.821 612.565 816.139 611.496 C 820.197 605.681 816.814 593.342 818.038 585.966 C 818.486 583.264 816.024 582.519 815.831 581.571 C 816.353 581.429 816.673 581.495 817.24 581.505 C 819.009 583.288 820.372 584.251 820.781 586.732 z" fill="rgb(113,93,70)" transform="translate(0,0)"></path>
<path d="M 628.201 623.165 C 610.49 615.446 634.055 608.121 629.982 618.066 C 629.057 619.749 628.736 621.31 628.201 623.165 z" fill="rgb(207,165,111)" transform="translate(0,0)"></path>
<path d="M 614.18 591.118 C 622.221 590.982 624.258 593.347 620.509 600.615 C 612.417 601.009 616.703 597.12 614.18 591.118 z" fill="rgb(207,165,111)" transform="translate(0,0)"></path>
<path d="M 586.072 610.854 C 588.016 608.748 592.618 601.909 593.377 601.758 C 594.566 602.589 593.791 606.024 593.965 607.389 C 594.693 613.119 590.141 611.8 585.993 612.428 L 586.072 610.854 z" fill="rgb(207,165,111)" transform="translate(0,0)"></path>
<path d="M 1105.4 580.701 L 1108.75 581.397 C 1114.54 581.548 1112.09 590.329 1111.23 591.348 C 1111.04 591.292 1110.85 591.236 1110.67 591.179 C 1110.69 590.66 1110.74 590.554 1110.85 590.047 C 1108.36 586.758 1107.92 585.789 1104.88 582.891 L 1105.4 580.701 z" fill="url(#Gradient1)" transform="translate(0,0)"></path>
<path d="M 1108.75 581.397 C 1114.54 581.548 1112.09 590.329 1111.23 591.348 C 1111.04 591.292 1110.85 591.236 1110.67 591.179 C 1110.69 590.66 1110.74 590.554 1110.85 590.047 C 1111.47 586.658 1111.67 583.953 1108.75 581.397 z" fill="rgb(207,165,111)" transform="translate(0,0)"></path>
<path d="M 651.454 611.671 C 650.218 611.318 650.613 607.991 650.905 607.083 C 651.084 606.991 651.262 606.899 651.441 606.807 C 652.543 607.34 653.785 609.134 654.641 610.091 C 659.315 611.219 662.692 611.86 666.997 609.686 L 667.223 611.314 C 660.941 614.546 658.813 612.392 651.454 611.671 z" fill="rgb(113,93,70)" transform="translate(0,0)"></path>
<path d="M 651.454 611.671 C 650.218 611.318 650.613 607.991 650.905 607.083 C 651.084 606.991 651.262 606.899 651.441 606.807 C 652.543 607.34 653.785 609.134 654.641 610.091 C 653.561 610.66 652.552 611.146 651.454 611.671 z" fill="rgb(207,165,111)" transform="translate(0,0)"></path>
<path d="M 587.563 582.124 C 589.905 581.737 593.893 579.649 593.958 583.364 C 594.171 595.577 593.167 589.555 587.809 583.893 C 587.719 583.304 587.637 582.715 587.563 582.124 z" fill="rgb(207,165,111)" transform="translate(0,0)"></path>
<path d="M 1328.79 581.016 L 1329.34 581.249 C 1333.97 583.166 1334.77 580.486 1335.82 582.307 C 1336.08 582.758 1336.27 589.474 1335.61 590.098 C 1335.33 590.367 1335.28 590.358 1335.2 590.287 C 1332.99 588.539 1332.07 584.909 1328.84 582.995 C 1328.61 582.808 1328.39 582.62 1328.17 582.433 L 1328.79 581.016 z" fill="rgb(207,165,111)" transform="translate(0,0)"></path>
<path d="M 835.355 598.827 C 838.035 598.073 841.483 584.408 842.739 581.026 C 842.822 583.019 842.858 585.015 842.846 587.01 C 840.478 590.504 839.068 598.094 836.901 603.416 C 836.214 601.69 835.719 600.676 835.355 598.827 z" fill="rgb(113,93,70)" transform="translate(0,0)"></path>
<path d="M 1105.07 591.515 C 1106.49 592.486 1106.68 603.404 1104.69 604.578 C 1102.22 592.883 1098.83 600.892 1105.07 591.515 z" fill="rgb(207,165,111)" transform="translate(0,0)"></path>
<path d="M 742.047 602.529 C 742.492 602.817 742.707 603.146 743.06 603.566 C 742.709 605.482 743 606.355 743.225 608.291 L 744.049 609.606 L 741.131 610.858 C 740.821 610.975 740.51 611.091 740.199 611.208 C 739.515 610.291 739.952 605.057 739.983 603.675 C 740.768 603.267 741.289 602.997 742.047 602.529 z" fill="rgb(207,165,111)" transform="translate(0,0)"></path>
<path d="M 742.047 602.529 C 742.492 602.817 742.707 603.146 743.06 603.566 C 742.709 605.482 743 606.355 743.225 608.291 L 739.983 603.675 C 740.768 603.267 741.289 602.997 742.047 602.529 z" fill="rgb(13,16,19)" transform="translate(0,0)"></path>
<path d="M 1357.59 611.854 C 1360.15 611.24 1363.38 611.075 1365.43 609.918 C 1366.96 609.051 1367.47 606.653 1369.15 606.936 L 1369.37 608.454 C 1365.11 613.431 1361.1 613.41 1354.85 613.133 C 1356.3 612.782 1356.28 612.679 1357.59 611.854 z" fill="rgb(86,75,62)" transform="translate(0,0)"></path>
<path d="M 1462.96 592.976 C 1469.14 588.589 1471.65 590.604 1479.19 591.166 C 1477.81 591.636 1476.6 591.983 1475.19 592.378 C 1469.97 591.817 1468.84 591.061 1464.86 594.394 C 1464.24 593.912 1463.6 593.439 1462.96 592.976 z" fill="rgb(86,75,62)" transform="translate(0,0)"></path>
<path d="M 1174.23 610.646 C 1180.44 611.228 1178.42 611.851 1184.68 610.838 L 1186.49 611.31 C 1179.91 614.295 1179.08 613.416 1172.31 611.534 L 1174.23 610.646 z" fill="rgb(86,75,62)" transform="translate(0,0)"></path>
<path d="M 635.791 614.351 L 636.85 614.893 C 634.795 620.638 633.659 620.864 628.201 623.165 C 628.736 621.31 629.057 619.749 629.982 618.066 C 632.795 621.186 634.254 616.957 635.791 614.351 z" fill="rgb(113,93,70)" transform="translate(0,0)"></path>
<path d="M 1012.93 591.65 C 1019.04 588.269 1019.98 590.414 1026.93 591.15 C 1025.62 591.706 1024.32 592.206 1022.99 592.724 C 1019.33 590.873 1017 591.716 1013.31 592.867 L 1012.93 591.65 z" fill="rgb(86,75,62)" transform="translate(0,0)"></path>
<path d="M 576.344 580.319 C 580.961 579.927 583.549 579.453 587.563 582.124 C 587.637 582.715 587.719 583.304 587.809 583.893 C 582.418 581.882 583.464 581.964 577.587 582.142 L 576.344 580.319 z" fill="rgb(144,117,84)" transform="translate(0,0)"></path>
<path d="M 1149.74 610.679 C 1154.97 611.796 1155.37 611.771 1160.46 610.146 L 1161.25 611.336 C 1158.03 612.946 1154.04 614.368 1150.56 612.353 L 1148.61 611.207 L 1149.74 610.679 z" fill="rgb(86,75,62)" transform="translate(0,0)"></path>
<path d="M 1172.31 611.534 C 1171.31 611.547 1170.04 611.762 1169.17 611.478 C 1167.83 611.033 1168.1 606.404 1168.52 605.601 C 1169.07 604.557 1173.5 609.95 1174.23 610.646 L 1172.31 611.534 z" fill="rgb(207,165,111)" transform="translate(0,0)"></path>
<path d="M 1148.61 611.207 C 1140.92 613.161 1145.15 604.381 1146.04 605.654 C 1147.06 607.13 1148.71 609.414 1149.74 610.679 L 1148.61 611.207 z" fill="rgb(207,165,111)" transform="translate(0,0)"></path>
<path d="M 1233.01 590.509 C 1238.18 589.205 1239.81 590.403 1244.88 590.976 L 1242.24 592.461 C 1239.07 591.971 1236.61 591.729 1233.42 591.493 L 1233.01 590.509 z" fill="rgb(86,75,62)" transform="translate(0,0)"></path>
<path d="M 1014.73 610.342 C 1018.74 611.114 1020.3 611.439 1024.06 609.962 L 1025.41 611.509 C 1021.72 612.661 1020.39 613.523 1016.54 612.21 L 1013.72 611.222 L 1014.73 610.342 z" fill="rgb(86,75,62)" transform="translate(0,0)"></path>
<path d="M 640.358 604.227 C 641.992 601.192 642.972 598.406 644.49 595.359 L 645.862 595.952 C 644.674 599.488 643.102 602.883 641.174 606.077 L 640.358 604.227 z" fill="rgb(86,75,62)" transform="translate(0,0)"></path>
<path d="M 578.358 611.215 C 581.01 610.894 583.396 610.997 586.072 610.854 L 585.993 612.428 C 582.446 613.154 579.74 613.191 576.15 612.776 C 577.22 612.188 577.454 611.977 578.358 611.215 z" fill="rgb(144,117,84)" transform="translate(0,0)"></path>
<path d="M 1319.61 580.5 C 1323.33 579.454 1325.24 579.958 1328.79 581.016 L 1328.17 582.433 C 1325.3 582.023 1322.84 581.94 1319.98 581.694 L 1319.61 580.5 z" fill="rgb(144,117,84)" transform="translate(0,0)"></path>
<path d="M 1149.91 591.973 C 1151.59 591.652 1162.11 590.934 1163.28 591.505 C 1163.81 592.358 1163.68 594.963 1162.93 595.694 C 1159.38 595.346 1160.66 589.221 1150.45 592.465 L 1149.91 591.973 z" fill="rgb(207,165,111)" transform="translate(0,0)"></path>
<path d="M 1445.76 611.291 C 1453.19 610.927 1454.83 607.811 1456.15 608.3 C 1456.81 612.045 1448.27 612.579 1445.65 612.122 L 1445.76 611.291 z" fill="rgb(86,75,62)" transform="translate(0,0)"></path>
<path d="M 1013.72 611.222 C 1009.64 611.657 1008.79 612.658 1009.41 606.915 C 1009.43 606.743 1009.78 606.391 1009.96 606.458 C 1011.54 607.063 1013.24 609.166 1014.73 610.342 L 1013.72 611.222 z" fill="rgb(189,147,93)" transform="translate(0,0)"></path>
<path d="M 927.483 610.518 C 935.77 602.192 933.91 608.53 928.297 612.344 L 927.483 610.518 z" fill="rgb(41,40,35)" transform="translate(0,0)"></path>
<path d="M 1244.88 590.976 C 1245.54 590.661 1245.32 590.699 1245.64 590.699 C 1246.41 591.236 1246.08 595.989 1245.51 596.642 C 1244.55 596.245 1243.06 593.574 1242.24 592.461 L 1244.88 590.976 z" fill="rgb(207,165,111)" transform="translate(0,0)"></path>
<path d="M 1097.64 580.641 L 1100.48 581.118 C 1102.21 581.029 1103.68 580.896 1105.4 580.701 L 1104.88 582.891 L 1103.11 583.07 C 1101.13 582.973 1099.14 582.905 1097.16 582.868 L 1097.64 580.641 z" fill="rgb(113,93,70)" transform="translate(0,0)"></path>
<path d="M 1100.48 581.118 C 1102.21 581.029 1103.68 580.896 1105.4 580.701 L 1104.88 582.891 L 1103.11 583.07 L 1100.48 581.118 z" fill="rgb(189,147,93)" transform="translate(0,0)"></path>
<path d="M 1479.19 591.166 C 1480.11 592.797 1481.04 594.834 1479.43 596.237 C 1478 595.761 1476.38 593.59 1475.19 592.378 C 1476.6 591.983 1477.81 591.636 1479.19 591.166 z" fill="rgb(207,165,111)" transform="translate(0,0)"></path>
<path d="M 985.146 610.772 C 987.681 607.731 986.44 606.156 987.608 604.868 C 990.199 604.864 990.085 609.832 985.057 612.347 L 985.146 610.772 z" fill="rgb(144,117,84)" transform="translate(0,0)"></path>
<path d="M 1326.92 610.86 C 1326.76 611.432 1326.72 611.887 1326.64 612.476 C 1324.41 613.158 1323.68 613.247 1321.33 613.559 L 1320.05 611.752 C 1322.73 611.265 1324.17 610.961 1326.92 610.86 z" fill="rgb(144,117,84)" transform="translate(0,0)"></path>
<path d="M 1123.98 590.963 C 1126.77 590.928 1129.63 591.148 1132.34 590.745 C 1131.51 591.318 1130.58 592.267 1129.84 592.975 C 1128.32 592.697 1126.63 592.442 1125.16 592.019 L 1123.98 590.963 z" fill="rgb(144,117,84)" transform="translate(0,0)"></path>
<path d="M 686.391 610.736 C 690.305 608.795 687.551 609.313 690.661 607.686 L 690.489 607.622 C 691.068 607.645 691.267 607.585 691.736 607.977 C 691.454 610.831 689.882 611.458 687.464 612.654 L 686.391 610.736 z" fill="rgb(144,117,84)" transform="translate(0,0)"></path>
<path d="M 1026.93 591.15 C 1027.81 592.446 1027.91 592.704 1028.19 594.286 C 1027.72 595.226 1028.01 594.867 1027.44 595.433 C 1026.16 595.742 1024 593.49 1022.99 592.724 C 1024.32 592.206 1025.62 591.706 1026.93 591.15 z" fill="rgb(207,165,111)" transform="translate(0,0)"></path>
<path d="M 744.049 609.606 L 744.653 609.916 C 745.691 610.438 749.08 611.72 749.531 612.549 C 749.464 612.628 749.397 612.707 749.33 612.785 C 747.115 613.139 743.397 611.612 741.131 610.858 L 744.049 609.606 z" fill="rgb(113,93,70)" transform="translate(0,0)"></path>
<path d="M 644.49 595.359 C 644.181 594.476 643.568 593.498 643.633 592.546 C 642.782 593.73 652.714 587.53 645.862 595.952 L 644.49 595.359 z" fill="rgb(189,147,93)" transform="translate(0,0)"></path>
<path d="M 1412.55 590.779 C 1414.34 590.955 1416.13 591.12 1417.91 591.274 L 1417.58 592.824 L 1413.34 592.822 L 1412.55 590.779 z" fill="rgb(144,117,84)" transform="translate(0,0)"></path>
<metadata><recraft-signature>{"signed_by": "recraft", "signature_b64": "Awf50B90p2rXGQtz9S75NxmaT/dCBT1YyT8z2ahDSS474nstnHEhUBsCKgVLIuOn4rRwo+zfnL/11uBudWdvAg==", "signing_algo": "Ed25519", "generation_timestamp": 1780243874, "identifier": "1e578133-c8be-4b99-8862-4bfdbea508a6"}</recraft-signature></metadata></svg>