<svg xmlns="http://www.w3.org/2000/svg" height="768" preserveAspectRatio="none" style="display: block;" version="1.1" viewBox="0 0 2048 1024" width="1536">
<path d="M 0 0 L 2048 0 L 2048 193.45 L 2048 211.642 L 2048 218.039 L 2048 303.555 L 2048 311.969 L 2048 364.702 L 2048 385.518 L 2048 419.397 L 2048 424.687 L 2048 537.547 L 2048 544.041 L 2048 545.773 L 2048 566.353 L 2048 673.963 L 2048 684.665 L 2048 767.356 L 2048 775.552 L 2048 824.397 L 2048 1024 L 0 1024 L 0 824.613 L 0 735.611 L 0 659.647 L 0 651.928 L 0 518.559 L 0 484.555 L 0 481.005 L 0 451.424 L 0 257.086 L 0 233.666 L 0 226.692 L 0 193.784 L 0 0 z" fill="rgb(26,27,31)" transform="translate(0,0)"></path>
<path d="M 199.036 636.992 C 201.339 637.098 203.286 637.09 205.587 637.052 C 199.856 645.428 190.536 656.175 183.924 664.213 L 146.111 710.046 L 52.4277 824.859 L 14.0829 824.995 L 13.9495 810.754 C 11.5537 807.646 14.2425 791.917 12.3605 788.337 C 12.5148 791.412 12.6782 808.899 11.6885 810.951 L 10.5833 804.009 C 10.4149 809.388 11.1369 819.203 9.28322 823.047 C 6.18171 825.512 4.56157 824.949 0 824.613 L 0 735.611 C 14.454 726.826 161.434 640.806 163.941 640.565 C 164.592 641.776 165.211 642.661 165.316 644.055 C 165.334 644.301 165.301 646.401 165.496 646.474 C 166.56 644.969 165.527 642.09 166.28 641.552 C 166.743 641.529 167.076 641.895 167.458 642.164 C 171.366 638.74 191.987 637.843 199.036 636.992 z" fill="rgb(15,166,190)" transform="translate(0,0)"></path>
<path d="M 0 735.611 C 14.454 726.826 161.434 640.806 163.941 640.565 C 163.703 647.679 164.675 653.046 165.345 660.078 C 161.011 660.479 157.254 660.88 152.869 660.94 C 145.537 661.524 138.716 662.16 131.352 662.058 C 132.021 672.002 133.157 684.196 133.134 693.993 C 120.748 695.317 102.436 695.782 89.7611 695.664 L 91.3509 737.721 L 50.8762 738.063 C 51.251 746.89 51.6343 766.172 52.8769 774.126 C 52.7071 777.283 53.276 778.92 51.493 780.594 C 37.944 780.894 24.4494 779.267 11.1122 779.171 C 10.9623 786.822 11.0602 796.54 10.5833 804.009 C 10.4149 809.388 11.1369 819.203 9.28322 823.047 C 6.18171 825.512 4.56157 824.949 0 824.613 L 0 735.611 z" fill="rgb(245,109,46)" transform="translate(0,0)"></path>
<path d="M 131.352 662.058 C 138.716 662.16 145.537 661.524 152.869 660.94 L 150.049 664.802 C 145.207 665.189 140.038 665.505 135.25 666.153 C 135.536 669.561 136.235 675.722 136.073 678.919 C 136.975 685.412 137.345 691.407 137.783 697.936 C 123.312 698.155 108.424 699.051 93.9329 699.764 C 94.3984 713.86 95.0497 727.95 95.8868 742.029 L 54.9901 742.103 L 55.5983 757.107 L 57.1011 785.105 C 42.7248 784.141 28.7525 783.819 14.3464 783.463 C 14.2567 791.105 14.5223 803.516 13.9495 810.754 C 11.5537 807.646 14.2425 791.917 12.3605 788.337 C 12.5148 791.412 12.6782 808.899 11.6885 810.951 L 10.5833 804.009 C 11.0602 796.54 10.9623 786.822 11.1122 779.171 C 24.4494 779.267 37.944 780.894 51.493 780.594 C 53.276 778.92 52.7071 777.283 52.8769 774.126 C 51.6343 766.172 51.251 746.89 50.8762 738.063 L 91.3509 737.721 L 89.7611 695.664 C 102.436 695.782 120.748 695.317 133.134 693.993 C 133.157 684.196 132.021 672.002 131.352 662.058 z" fill="rgb(10,8,9)" transform="translate(0,0)"></path>
<path d="M 163.941 640.565 C 164.592 641.776 165.211 642.661 165.316 644.055 C 165.334 644.301 165.301 646.401 165.496 646.474 C 166.56 644.969 165.527 642.09 166.28 641.552 C 166.743 641.529 167.076 641.895 167.458 642.164 C 168.395 649.693 168.994 656.341 169.536 663.875 C 162.846 664.094 156.741 664.319 150.049 664.802 L 152.869 660.94 C 157.254 660.88 161.011 660.479 165.345 660.078 C 164.675 653.046 163.703 647.679 163.941 640.565 z" fill="rgb(10,8,9)" transform="translate(0,0)"></path>
<path d="M 2048 544.041 L 2048 545.773 C 2043.15 558.754 2037.52 584.55 2033.91 598.935 L 2010.19 693.112 C 2004.42 716.898 1998.76 744.572 1990.71 767.301 C 1987.55 725.372 1977.47 677.578 1974.47 635.4 C 1980.19 623.516 1996.95 591.725 2004.41 581.907 C 2009.75 574.88 2039.87 550.072 2048 544.041 z" fill="rgb(15,166,190)" transform="translate(0,0)"></path>
<path d="M 11.3358 193.961 C 28.7406 193.984 46.607 193.792 63.9712 194.079 C 101.483 243.865 143.043 295.791 182.259 344.514 L 169.595 344.626 L 163.299 323.93 C 154.798 324.357 145.604 324.993 137.152 325.119 C 134.446 315.723 131.88 306.288 129.456 296.816 C 118.837 296.36 108.21 296.137 97.5818 296.147 C 96.5032 284.567 95.5094 272.979 94.6004 261.385 L 45.4452 264.471 C 47.5077 251.651 49.3604 238.798 51.0028 225.917 C 36.0916 226.5 18.3197 228.901 4.25197 229.138 C 1.82674 229.671 2.15056 228.959 0.871581 226.946 C 1.36275 224.185 1.897 221.432 2.47412 218.688 C 2.64925 217.919 2.81215 217.148 2.96276 216.373 C 5.33843 216.557 5.30359 215.556 6.56011 217.76 C 8.21568 210.115 9.60155 201.222 11.3358 193.961 z" fill="rgb(239,239,237)" transform="translate(0,0)"></path>
<path d="M 2.96276 216.373 C 5.33843 216.557 5.30359 215.556 6.56011 217.76 C 5.89104 222.68 5.39522 224.423 4.25197 229.138 C 1.82674 229.671 2.15056 228.959 0.871581 226.946 C 1.36275 224.185 1.897 221.432 2.47412 218.688 C 2.64925 217.919 2.81215 217.148 2.96276 216.373 z" fill="rgb(10,8,9)" transform="translate(0,0)"></path>
<path d="M 1969.86 421.103 C 1994.84 384.806 2022.38 348.104 2048 311.969 L 2048 364.702 L 2048 385.518 L 2048 419.397 C 2039.18 413.448 2042.94 414.493 2043.67 405.237 C 2043.49 404.206 2042.88 399.008 2042.64 398.667 L 2042.61 398.733 L 2042.78 399.31 L 2042.58 399.068 C 2041.65 403.836 2041.1 410.698 2037.73 413.605 C 2032.91 421.959 2019.53 455.78 2015.16 466.239 C 2003.13 459.623 1992.32 453.538 1980.67 446.305 C 1977.01 438.419 1973.32 429.184 1969.86 421.103 z" fill="rgb(245,109,46)" transform="translate(0,0)"></path>
<path d="M 2048 364.702 L 2048 385.518 L 2048 419.397 C 2039.18 413.448 2042.94 414.493 2043.67 405.237 C 2043.49 404.206 2042.88 399.008 2042.64 398.667 L 2042.61 398.733 L 2042.78 399.31 L 2042.58 399.068 C 2041.65 403.836 2041.1 410.698 2037.73 413.605 C 2040.1 401.187 2044.72 375.702 2048 364.702 z" fill="rgb(10,8,9)" transform="translate(0,0)"></path>
<path d="M 2043.67 405.237 C 2045.15 398.41 2046.29 392.355 2048 385.518 L 2048 419.397 C 2039.18 413.448 2042.94 414.493 2043.67 405.237 z" fill="rgb(15,166,190)" transform="translate(0,0)"></path>
<path d="M 0 233.666 C 12.1258 232.369 34.2941 230.124 46.4045 229.803 C 44.9469 242.519 42.454 256.628 41.3252 268.958 C 57.7633 267.408 74.2267 266.137 90.7081 265.148 C 91.6876 275.448 92.7032 290.175 94.2611 300.108 C 104.924 299.904 115.589 299.917 126.251 300.145 L 134.532 329.057 C 143.436 328.7 152.332 328.185 161.217 327.511 C 162.986 334.396 165.027 341.784 166.365 348.713 L 179.343 347.831 L 185.628 364.837 C 160.034 349.095 133.196 335.346 107.543 320.037 C 71.6324 298.607 36.3858 277.741 0 257.086 L 0 233.666 z" fill="rgb(15,166,190)" transform="translate(0,0)"></path>
<path d="M 2040.13 418.969 L 2048 424.687 L 2048 537.547 C 2034.07 549.87 2019.99 562.035 2005.79 574.042 L 2013.7 509.078 C 2014.81 499.75 2017.18 475.388 2019.81 467.426 C 2024.49 453.215 2033.86 433.174 2040.13 418.969 z" fill="rgb(239,239,237)" transform="translate(0,0)"></path>
<path d="M 1992.5 778.251 C 1998.02 765.455 2008.34 749.026 2015.62 736.622 C 2025.91 749.72 2037.2 762.867 2048 775.552 L 2048 824.397 C 2031.44 824.69 2014.88 824.872 1998.32 824.943 C 1997.19 810.687 1994.08 793.277 1992.5 778.251 z" fill="rgb(15,166,190)" transform="translate(0,0)"></path>
<path d="M 0 481.005 C 49.6832 483.775 100.936 483.966 150.924 486.336 L 152.88 483.667 L 155.57 484.365 L 156.196 484.513 C 160.287 485.453 159.391 484.519 163.32 486.725 L 165.48 488.426 C 162.678 489.111 159.254 488.722 157.739 489.867 L 158.054 490.562 C 149.116 492.959 135.658 495.012 126.289 496.697 C 105.85 500.417 85.3695 503.902 64.8505 507.152 C 43.9145 510.539 20.4151 515.838 0 518.559 L 0 484.555 L 0 481.005 z" fill="rgb(245,109,46)" transform="translate(0,0)"></path>
<path d="M 0 481.005 C 49.6832 483.775 100.936 483.966 150.924 486.336 L 152.88 483.667 L 155.57 484.365 L 156.196 484.513 C 160.287 485.453 159.391 484.519 163.32 486.725 L 165.48 488.426 C 162.678 489.111 159.254 488.722 157.739 489.867 C 105.922 488.678 51.7212 486.818 0 484.555 L 0 481.005 z" fill="rgb(10,8,9)" transform="translate(0,0)"></path>
<path d="M 155.57 484.365 L 156.196 484.513 C 160.287 485.453 159.391 484.519 163.32 486.725 C 160.293 486.817 157.931 487.207 155.031 486.299 C 155.351 485.412 155.475 485.258 155.57 484.365 z" fill="rgb(133,89,41)" transform="translate(0,0)"></path>
<path d="M 152.88 483.667 L 155.57 484.365 C 155.475 485.258 155.351 485.412 155.031 486.299 L 150.924 486.336 L 152.88 483.667 z" fill="rgb(223,136,46)" transform="translate(0,0)"></path>
<path d="M 2000.25 751.031 C 2017.23 690.492 2030.08 626.124 2048 566.353 L 2048 673.963 C 2035.17 697.245 2014.71 726.708 2000.25 751.031 z" fill="rgb(15,166,190)" transform="translate(0,0)"></path>
<path d="M 0 451.424 C 34.7972 459.062 69.6414 466.485 104.531 473.691 C 118.608 476.612 139.321 481.654 152.88 483.667 L 150.924 486.336 C 100.936 483.966 49.6832 483.775 0 481.005 L 0 451.424 z" fill="rgb(250,169,57)" transform="translate(0,0)"></path>
<path d="M 2018.13 731.882 C 2028.25 716.559 2037.8 700.223 2048 684.665 L 2048 767.356 C 2038.8 755.707 2027.81 743.265 2018.13 731.882 z" fill="rgb(239,239,237)" transform="translate(0,0)"></path>
<path d="M 2029.48 232.278 C 2035.03 230.61 2043.15 222.125 2048 218.039 L 2048 303.555 C 2045.05 308.193 2041.99 312.291 2038.74 316.708 C 2035.87 290.158 2034.32 258.221 2029.48 232.278 z" fill="rgb(15,166,190)" transform="translate(0,0)"></path>
<path d="M 78.507 642.496 C 82.533 637.094 87.0684 630.263 92.4304 626.461 L 93.8848 626.508 C 93.422 632.483 84.2327 644.297 80.3817 649.656 L 54.1028 633.635 L 38.2101 657.375 C 30.1257 652.2 21.963 647.148 13.7249 642.221 L 0 659.647 L 0 651.928 L 13.1345 635.482 L 36.3505 650.482 L 52.7197 626.755 C 59.9695 631.238 71.276 638.739 78.507 642.496 z" fill="rgb(239,239,237)" transform="translate(0,0)"></path>
<path d="M 2048 193.45 L 2048 211.642 L 2048 218.039 C 2043.15 222.125 2035.03 230.61 2029.48 232.278 C 2029.48 230.242 2030.04 230.35 2031.79 229.622 L 2031.78 229.545 C 2031.1 228.926 2030.17 229.107 2028.99 228.638 C 2028.96 228.54 2028.92 228.442 2028.89 228.344 L 2028.98 228.504 L 2029.04 228.485 L 2029.59 227.853 L 2029.75 227.917 L 2030.25 227.682 C 2030.97 218.881 2039.46 203.902 2042.11 194.976 C 2042.38 194.046 2046.93 193.653 2048 193.45 z" fill="rgb(250,169,57)" transform="translate(0,0)"></path>
<path d="M 2048 211.642 L 2048 218.039 C 2043.15 222.125 2035.03 230.61 2029.48 232.278 C 2029.48 230.242 2030.04 230.35 2031.79 229.622 L 2031.78 229.545 C 2031.1 228.926 2030.17 229.107 2028.99 228.638 C 2028.96 228.54 2028.92 228.442 2028.89 228.344 L 2028.98 228.504 L 2029.04 228.485 L 2029.59 227.853 L 2029.75 227.917 L 2030.25 227.682 C 2036.14 222.584 2042.08 216.899 2048 211.642 z" fill="rgb(10,8,9)" transform="translate(0,0)"></path>
<path d="M 202.776 618.439 C 209.708 617.732 215.66 616.228 223.919 615.466 C 219.919 620.412 210.764 631.954 206.473 635.727 L 205.587 637.052 C 203.286 637.09 201.339 637.098 199.036 636.992 C 198.444 636.822 193.889 635.78 193.825 635.684 C 194.713 635.163 196.594 634.631 197.654 634.194 C 198.059 634.011 201.507 632.809 201.498 632.488 C 201.376 628.31 200.236 623.551 199.466 619.445 C 200.467 619.164 201.829 618.827 202.776 618.439 z" fill="rgb(15,166,190)" transform="translate(0,0)"></path>
<path d="M 199.466 619.445 C 200.467 619.164 201.829 618.827 202.776 618.439 C 204.203 624.37 204.837 629.56 206.473 635.727 L 205.587 637.052 C 203.286 637.09 201.339 637.098 199.036 636.992 C 198.444 636.822 193.889 635.78 193.825 635.684 C 194.713 635.163 196.594 634.631 197.654 634.194 C 198.059 634.011 201.507 632.809 201.498 632.488 C 201.376 628.31 200.236 623.551 199.466 619.445 z" fill="rgb(10,8,9)" transform="translate(0,0)"></path>
<path d="M 173.941 633.575 C 179.605 629.795 193.374 621.82 199.466 619.445 C 200.236 623.551 201.376 628.31 201.498 632.488 C 201.507 632.809 198.059 634.011 197.654 634.194 C 190.417 633.726 182.079 635.128 174.981 636.661 L 173.941 633.575 z" fill="rgb(245,109,46)" transform="translate(0,0)"></path>
<path d="M 0 193.784 C 1.45371 193.871 5.45643 193.768 6.67721 194.467 C 7.02902 194.669 6.87124 196.473 6.77101 196.967 C 5.46848 203.384 4.08963 209.922 2.96276 216.373 C 2.81215 217.148 2.64925 217.919 2.47412 218.688 C 1.897 221.432 1.36275 224.185 0.871581 226.946 L 0 226.692 L 0 193.784 z" fill="rgb(15,166,190)" transform="translate(0,0)"></path>
<path d="M 174.981 636.661 C 169.52 637.258 168.689 636.077 173.941 633.575 L 174.981 636.661 z" fill="rgb(224,110,34)" transform="translate(0,0)"></path>
<path d="M 344.395 413.616 C 364.429 388.361 388.134 362.939 406.026 336.181 C 432.885 296.014 456.972 251.736 483.81 211.665 C 469.517 264.218 455.597 316.871 442.051 369.621 C 437.833 386.49 431.998 404.556 429.225 421.61 C 428.758 424.484 431.388 432.373 432.419 435.566 C 510.66 422.314 591.89 413.816 669.643 400.613 C 650.156 410.78 627.546 419.764 607.324 428.822 C 570.358 445.623 533.306 462.234 496.17 478.656 C 482.303 484.822 456.733 495.201 444.249 501.809 C 464.377 513.958 485.786 523.839 506.066 535.522 C 551.396 561.634 599.372 585.461 644.036 612.46 C 568.908 594.373 492.859 580.852 417.093 565.954 C 423.959 587.579 429.299 619.735 433.999 642.58 L 458.683 760.941 L 456.681 762.441 C 422.391 701.673 389.456 642.524 354.133 582.297 C 338.629 604.328 320.927 634.213 306.304 657.357 C 278.865 700.291 251.655 743.372 224.674 786.596 C 242.585 714.501 268.468 625.487 279.484 553.655 C 255.141 556.683 227.316 557.939 202.571 560.253 C 154.067 564.899 105.678 570.67 57.4416 577.563 L 55.2855 575.376 L 150.762 533.918 C 184.769 519.41 218.675 505.659 252.03 489.667 C 206.916 461.247 161.48 433.343 115.731 405.957 C 95.1963 393.616 70.8136 379.982 51.0934 367.049 C 57.5553 368.697 64.0958 370.512 70.4555 372.51 C 136.339 393.205 204.626 409.51 270.264 430.749 C 270.249 423.087 258.252 370.105 256.013 359.889 C 246.219 315.2 238.355 268.916 228.097 224.503 L 305.134 349.551 C 314.297 364.225 337.431 398.588 343.839 412.888 L 344.395 413.616 z" fill="rgb(10,8,9)" transform="translate(0,0)"></path>
<path d="M 51.0934 367.049 C 57.5553 368.697 64.0958 370.512 70.4555 372.51 C 136.339 393.205 204.626 409.51 270.264 430.749 L 283.598 435.043 L 285.683 434.371 C 287.601 430.387 280.509 382.338 279.518 373.953 L 281.717 373.436 C 288.564 391.955 296.125 412.935 304.071 430.992 C 296.918 435.099 287.726 440.714 280.386 444.003 L 277.148 449.928 C 249.249 441.873 221.219 434.281 193.069 427.154 C 219.55 448.176 243.992 464.975 269.709 484.728 C 267.746 491.192 265.632 498.824 263.403 505.103 C 239.609 516.883 213.252 529.509 189.987 542.029 C 217.824 540.577 249.924 536.497 277.496 532.378 C 283.233 540.943 288.844 549.593 294.327 558.324 C 292.676 587.611 286.215 621.144 283.49 650.864 C 295.672 637.994 306.402 621.752 317.966 608.523 C 325.132 600.324 347.048 567.623 355.793 566.347 C 358.496 567.935 359.091 568.362 361.361 570.521 L 354.133 582.297 C 338.629 604.328 320.927 634.213 306.304 657.357 C 278.865 700.291 251.655 743.372 224.674 786.596 C 242.585 714.501 268.468 625.487 279.484 553.655 C 255.141 556.683 227.316 557.939 202.571 560.253 C 154.067 564.899 105.678 570.67 57.4416 577.563 L 55.2855 575.376 L 150.762 533.918 C 184.769 519.41 218.675 505.659 252.03 489.667 C 206.916 461.247 161.48 433.343 115.731 405.957 C 95.1963 393.616 70.8136 379.982 51.0934 367.049 z" fill="rgb(239,239,237)" transform="translate(0,0)"></path>
<path d="M 432.419 435.566 C 510.66 422.314 591.89 413.816 669.643 400.613 C 650.156 410.78 627.546 419.764 607.324 428.822 C 570.358 445.623 533.306 462.234 496.17 478.656 C 482.303 484.822 456.733 495.201 444.249 501.809 C 437.016 498.513 433.762 496.969 426.098 495.125 C 455.141 480.268 487.797 461.599 515.78 444.767 C 486.803 445.772 457.557 447.351 428.573 448.723 C 423.905 446.111 417.666 441.825 413.029 438.82 C 419.309 438.372 426.529 437.777 432.419 435.566 z" fill="rgb(247,154,52)" transform="translate(0,0)"></path>
<path d="M 426.098 495.125 C 433.762 496.969 437.016 498.513 444.249 501.809 C 464.377 513.958 485.786 523.839 506.066 535.522 C 551.396 561.634 599.372 585.461 644.036 612.46 C 568.908 594.373 492.859 580.852 417.093 565.954 C 411.371 564.545 407.809 563.728 402.311 561.435 C 403.276 559.527 417.619 552.618 422.351 549.338 L 422.015 549.264 C 450.734 554.552 481.462 558.624 510.403 562.732 C 483.086 543.407 453.111 525.746 424.814 507.787 L 426.098 495.125 z" fill="rgb(239,239,237)" transform="translate(0,0)"></path>
<path d="M 344.395 413.616 C 364.429 388.361 388.134 362.939 406.026 336.181 C 432.885 296.014 456.972 251.736 483.81 211.665 C 469.517 264.218 455.597 316.871 442.051 369.621 C 437.833 386.49 431.998 404.556 429.225 421.61 C 428.758 424.484 431.388 432.373 432.419 435.566 C 426.529 437.777 419.309 438.372 413.029 438.82 C 412.757 435.786 415.814 415.599 416.365 411.669 C 419.501 388.848 422.781 366.047 426.206 343.268 C 404.26 366.048 381.221 393.207 360.665 417.36 L 344.395 413.616 z" fill="rgb(239,239,237)" transform="translate(0,0)"></path>
<path d="M 228.097 224.503 L 305.134 349.551 C 314.297 364.225 337.431 398.588 343.839 412.888 C 340.186 412.866 336.534 412.771 332.884 412.605 L 328.985 416.692 C 325.784 416.364 311.73 396.189 308.741 392.215 C 296.863 376.42 283.439 361.135 272.339 344.845 C 276.175 370.778 281.382 409.129 283.598 435.043 L 270.264 430.749 C 270.249 423.087 258.252 370.105 256.013 359.889 C 246.219 315.2 238.355 268.916 228.097 224.503 z" fill="rgb(247,154,52)" transform="translate(0,0)"></path>
<path d="M 402.311 561.435 C 407.809 563.728 411.371 564.545 417.093 565.954 C 423.959 587.579 429.299 619.735 433.999 642.58 L 458.683 760.941 L 456.681 762.441 C 422.391 701.673 389.456 642.524 354.133 582.297 L 361.361 570.521 C 374.095 583.392 401.198 622.333 414.183 639.318 C 410.657 614.435 407.062 585.907 402.311 561.435 z" fill="rgb(247,154,52)" transform="translate(0,0)"></path>
<path d="M 278.794 367.992 L 280.177 367.803 C 280.783 369.77 281.234 371.435 281.717 373.436 L 279.518 373.953 C 278.858 371.773 278.93 370.227 278.794 367.992 z" fill="rgb(196,180,150)" transform="translate(0,0)"></path>
<path d="M 278.794 367.992 C 278.514 367.199 277.365 364.301 278.49 363.748 C 279.748 364.394 279.917 366.623 280.177 367.803 L 278.794 367.992 z" fill="rgb(83,68,60)" transform="translate(0,0)"></path>
<path d="M 354.846 479.974 C 356.679 482.724 356.083 551.011 356.143 560.221 C 348.98 553.848 341.771 547.526 334.518 541.254 L 313.342 522.577 C 326.997 508.429 340.859 493.733 354.846 479.974 z" fill="rgb(239,239,237)" transform="translate(0,0)"></path>
<path d="M 426.058 454.022 L 427.146 454.268 C 428.448 457.372 422.505 498.34 421.424 504.381 C 409.345 498.762 397.346 492.973 385.431 487.016 L 361.519 475.422 C 383.78 468.333 404.051 461.841 426.058 454.022 z" fill="rgb(239,239,237)" transform="translate(0,0)"></path>
<path d="M 359.27 481.592 C 364.015 484.029 392.775 524.998 397.856 531.993 L 381.638 544.29 L 359.274 560.395 C 359.037 534.128 359.035 507.859 359.27 481.592 z" fill="rgb(250,169,57)" transform="translate(0,0)"></path>
<path d="M 333.634 417.809 C 337.137 422.968 351.091 463.69 355.16 472.96 C 345.071 471.869 334.811 470.17 324.761 468.631 C 315.569 467.431 306.391 466.127 297.229 464.719 C 306.73 451.166 323.09 431.758 333.634 417.809 z" fill="rgb(239,239,237)" transform="translate(0,0)"></path>
<path d="M 295.537 468.579 C 312.254 469.848 336.041 473.941 353.144 476.354 C 346.298 483.288 339.567 490.336 332.955 497.494 C 325.368 505.562 319.335 511.73 311.15 519.282 C 306.621 502.374 300.9 485.284 295.537 468.579 z" fill="rgb(15,166,190)" transform="translate(0,0)"></path>
<path d="M 388.374 424.592 C 400.115 433.706 412.185 442.387 424.561 450.618 C 412.908 455.332 400.206 459.419 388.258 463.493 C 379.108 466.565 369.903 469.474 360.649 472.219 C 369.237 456.405 379.178 440.15 388.374 424.592 z" fill="rgb(250,169,57)" transform="translate(0,0)"></path>
<path d="M 336.987 415.759 C 347.208 416.51 371.688 421.861 385.079 423.575 L 368.451 451.701 L 358.191 469.488 C 350.738 455.306 342.066 430.916 336.987 415.759 z" fill="rgb(245,109,46)" transform="translate(0,0)"></path>
<path d="M 312.184 526.548 C 324.151 533.758 339.757 552.542 351.867 561.07 C 356.121 564.066 346.899 565.71 345.002 566.315 C 333.565 568.747 322.201 571.509 310.925 574.599 C 311.127 559.062 311.659 542.164 312.184 526.548 z" fill="rgb(250,169,57)" transform="translate(0,0)"></path>
<path d="M 269.311 512.414 C 282.217 516.42 295.825 520.001 308.895 523.608 C 308.661 537.678 307.812 552.73 307.273 566.87 L 305.842 567.559 C 297.307 557.647 276.202 523.92 269.311 512.414 z" fill="rgb(15,166,190)" transform="translate(0,0)"></path>
<path d="M 292.367 470.637 C 296.874 480.984 304.414 508.293 308.75 520.673 C 303.699 519.028 295.275 516.122 290.383 514.908 C 282.828 512.937 273.856 510.459 266.601 507.924 C 274.635 495.529 284.011 483.154 292.367 470.637 z" fill="rgb(245,109,46)" transform="translate(0,0)"></path>
<path d="M 363.782 480.394 C 369.637 481.692 414.875 504.856 421.821 508.743 C 418.122 511.627 414.467 515.344 411.064 518.628 L 400.514 529.863 C 388.656 513.344 375.848 497.082 363.782 480.394 z" fill="rgb(245,109,46)" transform="translate(0,0)"></path>
<path d="M 414.863 360.903 C 415.312 364.763 391.093 414.454 387.688 421.251 C 382.475 419.926 373.591 418.68 368.043 417.742 L 366.229 417.463 L 365.995 416.07 C 370.883 408.977 376.774 404.028 382.17 397.628 C 392.901 384.902 403.466 373.036 414.863 360.903 z" fill="rgb(239,239,237)" transform="translate(0,0)"></path>
<path d="M 417.194 366.558 C 417.494 365.88 417.889 364.117 418.835 364.167 C 419.855 365.505 418.547 371.592 418.166 373.426 C 417.44 385.866 412.108 424.175 409.527 436.57 L 390.872 421.984 C 399.972 405.325 408.467 384.327 417.194 366.558 z" fill="rgb(250,169,57)" transform="translate(0,0)"></path>
<path d="M 417.194 366.558 C 417.494 365.88 417.889 364.117 418.835 364.167 C 419.855 365.505 418.547 371.592 418.166 373.426 C 417.805 371.117 417.439 368.887 417.194 366.558 z" fill="rgb(247,154,52)" transform="translate(0,0)"></path>
<path d="M 398.72 535.77 C 401.485 536.454 410.132 548.458 412.49 551.51 C 400.124 558.169 384.252 565.26 371.276 570.696 C 369.429 571.485 369.487 571.402 367.44 571.307 C 364.207 568.748 362.657 566.982 359.876 563.923 C 373.658 554.906 385.612 545.682 398.72 535.77 z" fill="rgb(15,166,190)" transform="translate(0,0)"></path>
<path d="M 282.567 365.688 C 287.009 368.459 319.216 411.126 324.215 418.129 C 323.16 420.803 322.896 420.267 319.883 421.897 L 307.106 429.292 C 301.617 418.454 286.382 377.615 282.567 365.688 z" fill="rgb(247,154,52)" transform="translate(0,0)"></path>
<path d="M 483.735 455.179 L 494.981 452.707 L 485.928 458.046 C 472.853 466.656 440.416 484.506 426.606 491.206 C 427.202 483.712 428.272 476.913 429.413 469.48 C 446.126 464.385 466.403 459.822 483.735 455.179 z" fill="rgb(247,154,52)" transform="translate(0,0)"></path>
<path d="M 341.394 570.171 L 343.29 570.402 C 340.281 577.552 302.988 621.839 295.77 630.431 L 294.406 631.727 C 293.776 628.963 315.835 583.35 319 575.562 C 325.949 573.615 334.278 571.858 341.394 570.171 z" fill="rgb(239,239,237)" transform="translate(0,0)"></path>
<path d="M 421.478 528.16 C 440.34 536.57 466.49 545.498 484.073 554.211 L 484.315 555.699 C 467.125 554.09 436.051 548.711 418.961 545.374 C 419.938 540.313 420.729 533.396 421.478 528.16 z" fill="rgb(250,169,57)" transform="translate(0,0)"></path>
<path d="M 297.484 563.15 C 299.71 566.276 305.864 575.519 308.521 577.286 L 313.604 577.635 C 313.839 581.971 295.716 619.066 292.587 625.75 C 291.465 623.475 291.2 622.608 290.477 620.219 C 292.75 601.505 294.819 581.73 297.484 563.15 z" fill="rgb(245,109,46)" transform="translate(0,0)"></path>
<path d="M 369.583 575.231 C 375.366 572.8 380.583 570.245 386.256 567.645 C 390.537 581.95 396.942 597.796 401.636 612.287 C 401.994 613.326 403.585 616.858 402.379 617.522 C 401.229 617.224 400.362 615.723 399.693 614.757 L 369.583 575.231 z" fill="rgb(247,154,52)" transform="translate(0,0)"></path>
<path d="M 401.636 612.287 C 401.994 613.326 403.585 616.858 402.379 617.522 C 401.229 617.224 400.362 615.723 399.693 614.757 C 400.519 613.821 400.984 613.376 401.636 612.287 z" fill="rgb(223,136,46)" transform="translate(0,0)"></path>
<path d="M 424.083 512.205 C 430.271 514.46 482.086 546.66 483.066 549.893 C 466.624 544.407 437.871 531.666 421.766 524.616 L 424.083 512.205 z" fill="rgb(239,239,237)" transform="translate(0,0)"></path>
<path d="M 224.279 438.436 C 241.489 443.93 261.345 447.876 277.366 453.292 L 273.289 467.813 C 256.979 460.125 238.809 449.119 222.617 440.453 L 224.279 438.436 z" fill="rgb(239,239,237)" transform="translate(0,0)"></path>
<path d="M 322.937 424.119 C 323.064 424.223 323.418 424.428 323.474 424.665 C 323.6 425.195 323.007 426.026 322.714 426.407 C 319.802 430.196 295.267 462.886 293.628 462.853 C 292.739 462.835 292.043 461.307 291.667 460.66 C 289.417 455.704 287.037 450.989 284.795 445.996 C 296.475 438.963 310.862 430.297 322.937 424.119 z" fill="rgb(239,239,237)" transform="translate(0,0)"></path>
<path d="M 481.055 449.563 L 485.88 448.828 L 487.367 450.574 L 488.037 450.389 L 487.842 448.852 L 490.039 449.474 L 488.337 450.742 L 487.844 449.251 L 486.699 449.222 L 486.398 451.44 C 471.663 456.053 451.561 460.491 436.242 464.335 C 432.276 465.353 432.82 465.911 429.871 464.5 C 428.745 461.412 430.524 455.576 431.285 452.101 C 447.864 451.042 464.455 450.196 481.055 449.563 z" fill="rgb(239,239,237)" transform="translate(0,0)"></path>
<path d="M 281.907 449.57 C 285.077 453.265 289.074 461.552 291.217 466.075 C 287.803 471.099 284.578 476.651 281.062 481.408 L 274.675 490.009 C 274.004 490.916 271.357 494.631 270.563 495.065 L 270.323 494.899 C 270.031 493.127 280.306 453.402 281.907 449.57 z" fill="rgb(250,169,57)" transform="translate(0,0)"></path>
<path d="M 388.725 566.632 C 392.238 564.922 395.804 563.321 399.417 561.833 C 402.482 578.123 404.19 592.482 406.62 608.723 L 404.288 609.728 C 398.706 595.299 394.191 580.753 388.725 566.632 z" fill="rgb(239,239,237)" transform="translate(0,0)"></path>
<path d="M 231.641 449.103 C 245.187 456.043 258.827 463.952 272.574 471.111 C 271.745 474.51 270.85 478.416 269.957 481.728 C 256.376 471.297 242.259 461.389 228.915 450.872 L 231.641 449.103 z" fill="rgb(247,154,52)" transform="translate(0,0)"></path>
<path d="M 226.237 533.416 C 240.418 528.738 254.855 525.139 269.448 520.145 C 271.463 523.347 273.325 526.421 275.421 529.594 C 261.159 531.4 243.792 533.094 230.111 535.346 L 226.237 533.416 z" fill="rgb(247,154,52)" transform="translate(0,0)"></path>
<path d="M 419.789 514.804 C 420.136 518.441 416.87 546.44 414.436 547.733 C 413.209 547.486 410.794 543.95 410.01 542.939 C 407.709 539.703 404.697 535.376 402.638 532.055 C 408.374 526.218 413.792 520.41 419.789 514.804 z" fill="rgb(250,169,57)" transform="translate(0,0)"></path>
<path d="M 262.5 508.494 L 267.792 517.623 C 255.081 521.926 241.933 525.533 229.044 529.368 L 225.28 527.713 C 237.157 521.113 250.34 514.812 262.5 508.494 z" fill="rgb(239,239,237)" transform="translate(0,0)"></path>
<path d="M 228.915 450.872 C 225.077 447.839 221.606 445.009 217.987 441.713 C 222.404 444.083 227.413 446.551 231.641 449.103 L 228.915 450.872 z" fill="rgb(223,136,46)" transform="translate(0,0)"></path>
<path d="M 292.587 625.75 C 292.274 626.596 290.804 631 289.795 630.6 C 289.221 629.772 290.248 621.59 290.477 620.219 C 291.2 622.608 291.465 623.475 292.587 625.75 z" fill="rgb(224,110,34)" transform="translate(0,0)"></path>
<path d="M 225.28 527.713 L 229.044 529.368 C 225.112 530.281 220.938 531.507 217.01 532.554 C 219.797 530.694 222.192 529.053 225.28 527.713 z" fill="rgb(239,239,237)" transform="translate(0,0)"></path>
<path d="M 221.35 534.409 C 223.087 534.087 224.509 533.892 226.237 533.416 L 230.111 535.346 C 227.717 535.687 225.612 536.041 223.242 536.523 L 221.35 534.409 z" fill="rgb(224,110,34)" transform="translate(0,0)"></path>
<path d="M 406.62 608.723 C 406.837 609.785 407.736 614.169 406.457 614.552 C 405.169 613.455 404.745 611.35 404.288 609.728 L 406.62 608.723 z" fill="rgb(202,202,203)" transform="translate(0,0)"></path>
<path d="M 223.242 536.523 C 222.257 536.691 217.16 537.651 216.768 536.649 C 217.193 536.135 220.555 534.795 221.35 534.409 L 223.242 536.523 z" fill="rgb(135,71,38)" transform="translate(0,0)"></path>
<path d="M 222.617 440.453 C 221.782 439.947 218.242 438.121 217.878 437.513 C 218.783 436.986 222.874 438.165 224.279 438.436 L 222.617 440.453 z" fill="rgb(202,202,203)" transform="translate(0,0)"></path>
<path d="M 1497.37 379.018 L 1549.33 378.965 C 1557.83 386.035 1565.55 394.286 1573.3 402.192 L 1573.59 559.86 C 1565.65 567.289 1557.76 574.76 1549.91 582.274 C 1547.58 584.04 1504.09 583.079 1497.7 583.025 L 1473.98 559.349 L 1473.91 402.523 C 1481.64 394.504 1489.16 386.561 1497.37 379.018 z" fill="rgb(250,169,57)" transform="translate(0,0)"></path>
<path d="M 1513.28 413.229 C 1517.54 413.077 1521.81 412.901 1526.07 412.895 C 1529.74 412.89 1534.13 413.262 1536.78 416.117 C 1539.49 419.032 1538.31 512.106 1538.27 523.39 C 1538.26 528.681 1539.64 540.822 1537.55 545.109 C 1537.02 546.19 1534.69 547.95 1533.75 548.883 C 1529.68 548.914 1525.61 548.925 1521.53 548.914 C 1516.8 548.891 1512.8 548.675 1509.35 545.17 C 1506.48 504.377 1510.45 459.591 1508.76 418.507 C 1508.66 416.123 1511.54 414.581 1513.28 413.229 z" fill="rgb(26,27,31)" transform="translate(0,0)"></path>
<path d="M 880.204 379.019 L 932.408 378.989 L 956.197 402.468 C 955.418 454.354 955.951 507.482 955.956 559.461 C 947.653 567.093 939.525 574.914 931.58 582.919 C 916.388 583.606 896.788 583.042 881.253 583.052 C 872.656 575.063 865.09 567.474 856.89 559.098 C 857.537 507.285 856.976 454.215 856.982 402.323 L 880.204 379.019 z" fill="rgb(250,169,57)" transform="translate(0,0)"></path>
<path d="M 896.359 413.271 C 904.524 412.988 914.244 410.99 920.211 417.251 C 923.006 425.663 920.409 467.484 921.212 478.774 C 922.414 495.652 920.455 517.552 921.311 535.01 C 921.628 541.485 922.213 544.876 916.813 548.794 C 912.385 548.902 907.503 549.046 903.137 548.997 C 889.905 548.847 891.61 541.699 891.584 532.392 C 891.478 494.305 891.49 456.558 891.286 418.512 C 891.275 416.569 894.892 414.408 896.359 413.271 z" fill="rgb(26,27,31)" transform="translate(0,0)"></path>
<path d="M 692.698 190.004 L 763.686 189.921 C 744.911 203.36 723.957 215.307 704.647 228.555 L 704.367 233.025 C 722.298 221.541 754.783 202.167 771.027 190.011 C 802.986 190.352 835.674 189.561 867.319 190.149 C 791.178 226.551 715.255 263.406 639.552 300.712 C 655.33 307.197 671.178 313.509 687.094 319.648 C 626.697 341.331 564.621 366.988 504.796 387.607 L 503.393 385.603 C 514.862 379.626 529.734 370.323 541.27 363.609 C 564.799 350.109 588.153 336.306 611.326 322.204 C 599.887 322.11 574.246 322.643 564.233 321.315 L 560.582 319.519 C 554.983 323.273 543.441 321.713 536.288 321.391 C 586.128 277.4 642.99 234.82 692.698 190.004 z" fill="rgb(239,239,237)" transform="translate(0,0)"></path>
<path d="M 692.698 190.004 L 763.686 189.921 C 744.911 203.36 723.957 215.307 704.647 228.555 L 704.367 233.025 L 609.362 293.358 C 601.9 298.013 569.018 317.474 564.233 321.315 L 560.582 319.519 C 554.983 323.273 543.441 321.713 536.288 321.391 C 586.128 277.4 642.99 234.82 692.698 190.004 z" fill="rgb(245,109,46)" transform="translate(0,0)"></path>
<path d="M 704.647 228.555 L 704.367 233.025 L 609.362 293.358 C 601.9 298.013 569.018 317.474 564.233 321.315 L 560.582 319.519 C 572.754 310.919 590.999 300.576 604.067 292.294 L 704.647 228.555 z" fill="rgb(26,27,31)" transform="translate(0,0)"></path>
<path d="M 740.148 379.007 L 817.283 379.039 L 841.727 402.265 C 841.999 428.223 841.842 454.183 841.255 480.135 L 822.486 500.173 C 830.113 520.518 842.648 567.617 852.097 582.962 C 841.545 583.021 819.948 583.582 808.445 582.413 C 806.809 582.247 810.25 578.177 810.258 575.455 C 810.268 571.698 808.309 566.643 807.08 562.999 C 802.688 550.041 799.149 536.786 795.074 523.744 C 793.059 517.297 791.696 505.429 784.19 504.629 C 780.636 507.075 779.482 514.09 779.756 518.004 C 781.023 536.113 776.386 567.311 783.817 583.059 L 740.277 582.995 C 741.333 581.043 742.421 579.025 743.192 576.941 C 745.527 570.624 746.001 403.704 744.521 389.98 C 744.135 386.397 741.7 382.26 740.148 379.007 z" fill="rgb(250,169,57)" transform="translate(0,0)"></path>
<path d="M 779.803 412.926 C 804.98 412.898 807.059 409.279 806.65 439.007 C 806.516 448.672 807.261 458.794 805.964 468.519 C 800.322 472.685 787.614 471.345 779.902 471.279 L 779.803 412.926 z" fill="rgb(26,27,31)" transform="translate(0,0)"></path>
<path d="M 1356.9 379.151 C 1370.28 378.565 1386.67 379.024 1400.27 379.053 C 1393.59 393.242 1396.57 442.027 1396.54 461.136 L 1420.96 461.082 C 1420.9 441.102 1424.62 395.575 1417.21 378.98 L 1460.63 379.022 C 1456.9 386.312 1456.28 389.496 1456.22 397.721 C 1455.99 434.444 1456.28 471.171 1456.18 507.896 L 1456.05 552.696 C 1456.03 564.338 1454.24 570.597 1459.57 581.304 L 1458.99 582.79 L 1455.25 583.031 L 1416.89 582.959 C 1422.86 570.05 1421.22 557.981 1421.15 544.023 L 1420.9 495.329 L 1396.38 495.157 C 1396.41 512.102 1396.36 529.048 1396.21 545.992 C 1396.16 559.112 1394.47 571.196 1400.77 582.99 L 1357.07 583.011 C 1358.12 581.089 1360.25 577.108 1360.35 575.014 C 1361.82 546.218 1361.12 513.375 1361.12 484.895 L 1361.09 423.919 C 1361.08 410.637 1362.97 390.473 1356.9 379.151 z" fill="rgb(250,169,57)" transform="translate(0,0)"></path>
<path d="M 1125.99 453.933 C 1134.47 432.849 1143.87 411.64 1152.7 390.671 C 1155.83 383.23 1151.02 383.184 1153.05 379.394 C 1160.06 378.262 1185.99 379.085 1194.49 379.2 C 1180.66 404.258 1165.37 446.873 1152.2 475.015 C 1162.36 497.533 1170.55 523.141 1179.93 546.189 C 1185.23 559.199 1188.53 570.986 1196.08 582.992 L 1151.39 583.019 L 1154.91 575.017 C 1144.19 549.952 1133.72 517.745 1123.01 494.382 C 1122.87 497.319 1122.66 502.967 1122.9 505.63 C 1124.69 525.389 1118.77 566.202 1126.38 583.046 L 1082.93 583.073 C 1086.06 576.469 1086.91 572.825 1086.93 565.439 C 1087.09 506.672 1087.1 447.892 1087.02 389.126 C 1087.01 386.909 1083.74 381.244 1082.57 379.108 L 1126.48 379.1 C 1119.73 393.042 1122.98 435.562 1122.92 452.811 L 1125.99 453.933 z" fill="rgb(250,169,57)" transform="translate(0,0)"></path>
<path d="M 1122.92 452.811 L 1125.99 453.933 C 1125.47 455.327 1124.57 458.35 1123.57 459.154 L 1123.45 459.092 C 1122.87 458.23 1122.95 454.101 1122.92 452.811 z" fill="rgb(43,32,25)" transform="translate(0,0)"></path>
<path d="M 1587.71 378.952 L 1661.99 379.006 C 1670.18 386.005 1678.56 394.34 1686.4 401.843 C 1686.58 428.366 1686.52 454.891 1686.22 481.414 C 1677.97 489.69 1669.57 497.808 1661.01 505.763 L 1626.84 505.938 L 1626.86 529.591 C 1626.91 545.952 1624.37 568.694 1630.09 583.072 L 1587.87 583.011 C 1588.81 581.036 1589.77 579.013 1590.46 576.931 C 1593.27 568.356 1592.83 408.439 1591.42 389.933 C 1591.1 385.87 1589.53 382.547 1587.71 378.952 z" fill="rgb(250,169,57)" transform="translate(0,0)"></path>
<path d="M 1626.88 413.352 C 1633.87 413.189 1651.94 410.71 1651.64 420.599 C 1651.34 430.628 1654.27 463.69 1648.97 470.539 C 1644.93 471.558 1631.34 471.147 1626.44 471.117 L 1626.88 413.352 z" fill="rgb(26,27,31)" transform="translate(0,0)"></path>
<path d="M 1272.46 379.177 C 1287.94 378.853 1304.17 379.048 1319.71 378.994 C 1327.79 385.806 1336.39 394.739 1343.99 402.269 C 1343.85 415.164 1342.16 429.745 1347.62 440.944 L 1306.2 440.97 C 1317.9 417.828 1299.98 403.33 1285.92 415.858 C 1283.06 422.431 1281.12 457.227 1286.51 462.319 C 1288.49 464.188 1314.57 463.613 1320 463.617 C 1327.96 471.649 1335.63 479.4 1343.93 487.101 L 1343.93 558.875 L 1319.32 583.026 L 1272.55 583.061 C 1265.75 575.788 1255.92 566.698 1248.62 559.589 C 1248.25 544.889 1251.38 530.213 1244.35 517.782 L 1287.74 517.873 C 1283.54 525.152 1280.76 538.569 1286.15 544.889 C 1293.67 553.707 1309.96 550.247 1309.07 537.137 C 1308.39 527.017 1311.62 506.152 1305.02 498.657 C 1300.33 497.124 1279.55 497.984 1273.26 498.083 C 1264.94 490.438 1256.94 482.2 1248.96 474.183 L 1248.91 402.569 C 1255.99 394.754 1264.81 386.585 1272.46 379.177 z" fill="rgb(250,169,57)" transform="translate(0,0)"></path>
<path d="M 1823.83 679.499 C 1844.32 690.908 1863.41 702.42 1884.42 713.77 C 1864.88 746.065 1841.04 785.724 1823.39 818.938 C 1802.76 820.804 1781.91 822.281 1761.25 823.887 C 1739.85 825.069 1719.21 824.879 1697.82 824.828 C 1706.29 813.957 1718.31 800.687 1727.4 790.144 C 1747.05 767.347 1766.87 744.703 1786.86 722.212 C 1798.91 708.676 1812.76 693.705 1823.83 679.499 z" fill="rgb(15,166,190)" transform="translate(0,0)"></path>
<path d="M 997.391 379.038 L 1049.35 379.058 C 1057.14 386.831 1065.02 394.521 1072.98 402.126 C 1072.87 415.158 1071.26 429.754 1076.3 441.324 L 1034.04 441.38 C 1050.32 409.269 1017.05 407.049 1009.94 417.629 C 1008.23 424.855 1007.98 541.502 1009.9 545.125 C 1010.8 546.819 1013.27 548.133 1015.07 548.69 C 1020.41 550.338 1027.52 550.167 1032.49 547.437 C 1035.46 545.802 1037.44 543.183 1038.31 539.913 C 1039.78 534.47 1038.06 524.942 1035.15 520.202 C 1034.99 519.94 1034.82 519.683 1034.65 519.423 C 1034.45 518.832 1034.6 518.97 1034.96 518.086 C 1048.61 517.607 1063.37 517.897 1077.12 517.945 L 1072.86 525.131 L 1072.7 559.912 C 1064.29 567.239 1056.18 575.502 1047.58 583.078 L 997.672 583.063 C 991.432 576.136 980.913 566.559 973.931 559.833 L 973.964 402.671 C 980.76 394.943 989.941 386.361 997.391 379.038 z" fill="rgb(250,169,57)" transform="translate(0,0)"></path>
<path d="M 1952.56 570.298 C 1952.89 569.089 1953.8 565.432 1955.19 565.497 C 1956.13 566.644 1954.52 577.278 1954.12 579.304 C 1953.78 590.392 1949.77 618.33 1948.46 630.304 L 1936.08 739.186 C 1933.91 758.3 1930.77 781.169 1929.69 800.094 C 1896.54 806.149 1859.73 818.476 1826.03 824.919 C 1843.08 789.491 1871 752.824 1887.07 718.302 C 1909.07 671.009 1932.63 618.369 1952.56 570.298 z" fill="rgb(250,169,57)" transform="translate(0,0)"></path>
<path d="M 1952.56 570.298 C 1952.89 569.089 1953.8 565.432 1955.19 565.497 C 1956.13 566.644 1954.52 577.278 1954.12 579.304 C 1953.69 575.986 1953.85 573.215 1952.56 570.298 z" fill="rgb(247,154,52)" transform="translate(0,0)"></path>
<path d="M 492.424 618.413 C 555.914 649.486 619.138 684.266 682.325 716.118 C 665.64 719.299 643.718 722.496 627.862 726.211 C 683.578 759.372 739.575 792.059 795.846 824.269 L 721.894 824.142 C 667.971 784.561 615.74 742.017 562.343 701.692 C 557.454 698 552.18 694.202 547.451 690.348 C 564.063 692.461 580.749 694.772 597.414 696.301 C 564.804 670.832 525.817 644.26 491.629 620.253 L 492.424 618.413 z" fill="rgb(239,239,237)" transform="translate(0,0)"></path>
<path d="M 1918.78 193.193 C 1920.26 193.668 1921.16 194.34 1922.47 195.161 C 1924.9 206.13 1927.45 230.898 1929.07 243.164 L 1941.75 338.643 L 1950.61 404.228 C 1951.29 409.226 1955.16 435.716 1954.38 438.661 C 1948.78 459.566 1939.14 486.086 1932.28 506.624 L 1928.49 494.747 C 1915.73 458.57 1904.19 420.276 1892.85 383.51 L 1893.4 383.09 C 1920.31 362.419 1929.74 338.638 1906.78 309.735 C 1910.47 270.857 1914.47 232.008 1918.78 193.193 z" fill="rgb(245,109,46)" transform="translate(0,0)"></path>
<path d="M 302.938 213.577 C 296.912 209.78 285.994 203.545 282.028 197.917 L 282.32 196.327 C 288.55 193.965 333.862 192.131 336.987 194.982 L 333.734 198.884 L 333.652 203.766 L 344.611 194.035 C 360.439 194.058 376.539 193.917 392.34 194.115 C 384.033 225.917 376.695 257.78 368.558 289.58 C 366.056 299.358 362.19 317.649 358.97 326.386 L 355.223 328.122 C 356.068 328.838 356.787 329.796 357.514 330.658 C 357.438 334.489 353.514 349.524 352.46 354.155 L 341.318 342.843 L 345.661 328.52 L 332.543 319.953 L 337.488 302.47 C 331.387 299.417 326.561 295.886 320.975 292.008 L 326.03 274.052 C 320.909 271.257 314.457 267.062 309.358 263.953 C 312.632 257.947 314.683 252.074 317.09 245.691 C 309.891 241.438 302.796 237.013 295.81 232.418 L 302.938 213.577 z" fill="rgb(250,169,57)" transform="translate(0,0)"></path>
<path d="M 302.938 213.577 C 296.912 209.78 285.994 203.545 282.028 197.917 L 282.32 196.327 C 288.55 193.965 333.862 192.131 336.987 194.982 L 333.734 198.884 L 333.652 203.766 C 328.099 208.36 324.376 211.265 318.382 215.237 C 329.713 219.642 340.888 224.438 351.886 229.618 C 343.87 236.943 337.224 244.628 330.017 252.707 C 338.499 257.225 347.012 261.686 355.554 266.09 C 349.829 272.732 344.857 277.951 338.669 284.182 L 360.863 297.172 L 345.31 318.259 L 358.97 326.386 L 355.223 328.122 C 356.068 328.838 356.787 329.796 357.514 330.658 C 357.438 334.489 353.514 349.524 352.46 354.155 L 341.318 342.843 L 345.661 328.52 L 332.543 319.953 L 337.488 302.47 C 331.387 299.417 326.561 295.886 320.975 292.008 L 326.03 274.052 C 320.909 271.257 314.457 267.062 309.358 263.953 C 312.632 257.947 314.683 252.074 317.09 245.691 C 309.891 241.438 302.796 237.013 295.81 232.418 L 302.938 213.577 z" fill="rgb(15,166,190)" transform="translate(0,0)"></path>
<path d="M 311.109 216.439 L 333.734 198.884 L 333.652 203.766 C 328.099 208.36 324.376 211.265 318.382 215.237 C 329.713 219.642 340.888 224.438 351.886 229.618 C 343.87 236.943 337.224 244.628 330.017 252.707 C 338.499 257.225 347.012 261.686 355.554 266.09 C 349.829 272.732 344.857 277.951 338.669 284.182 L 360.863 297.172 L 345.31 318.259 L 358.97 326.386 L 355.223 328.122 C 349.556 326.148 345.033 322.686 340.065 319.321 C 344.815 312.412 350.032 305.398 354.958 298.578 C 347.031 293.607 341.008 289.346 332.285 285.837 C 336.999 280.044 344.322 272.737 349.608 267.167 C 339.934 262.607 332.57 258.921 323.184 253.651 C 330.415 245.87 337.809 238.242 345.361 230.772 C 334.023 225.622 322.65 221.098 311.109 216.439 z" fill="rgb(10,8,9)" transform="translate(0,0)"></path>
<path d="M 346.956 684.209 C 350.628 686.453 353.646 687.197 355.532 690.825 L 358.499 692.618 C 363.288 694.989 367.797 698.039 372.3 700.933 C 369.916 705.825 367.395 711.286 364.891 716.059 C 371.501 720.657 378.148 725.203 384.83 729.696 C 381.844 735.152 378.872 740.747 375.675 746.074 C 384.597 752.009 393.74 757.424 402.917 762.947 C 397.274 770.79 391.792 778.171 386.95 786.565 C 399.45 792.554 409.639 799.106 421.094 806.898 C 418.533 812.13 415.841 817.901 413.134 823.005 L 352.199 823.15 C 358.983 817.507 365.663 811.737 372.233 805.845 C 371.744 805.468 370.393 803.314 369.951 802.656 C 361.516 810.035 354.242 816.48 345.164 823.103 L 316.576 822.816 C 323.312 798.005 328.034 768.918 334.213 743.668 C 336.026 736.259 339.392 716.19 342.081 710.259 L 342.229 706.496 C 342.782 699.868 345.401 690.883 346.956 684.209 z" fill="rgb(15,166,190)" transform="translate(0,0)"></path>
<path d="M 316.576 822.816 C 323.312 798.005 328.034 768.918 334.213 743.668 C 336.026 736.259 339.392 716.19 342.081 710.259 L 359.169 722.802 C 354.111 728.306 346.271 737.499 341.093 742.297 C 348.728 747.534 358.848 754.928 366.59 759.555 L 344.225 783.451 C 349.406 786.801 368.37 798.128 369.951 802.656 C 361.516 810.035 354.242 816.48 345.164 823.103 L 316.576 822.816 z" fill="rgb(250,169,57)" transform="translate(0,0)"></path>
<path d="M 346.956 684.209 C 350.628 686.453 353.646 687.197 355.532 690.825 L 358.499 692.618 C 354.147 697.878 349.575 703.248 345.322 708.557 C 350.483 712.142 359.531 718.033 364.099 721.841 C 358.609 728.765 353.277 735.526 347.474 742.208 C 355.713 747.635 364.306 753.51 372.81 758.427 C 365.816 766.088 357.439 775.723 350.253 782.922 C 356.174 786.596 374.868 796.796 376.133 802.726 C 374.72 804.637 374.384 804.681 372.233 805.845 C 371.744 805.468 370.393 803.314 369.951 802.656 C 368.37 798.128 349.406 786.801 344.225 783.451 L 366.59 759.555 C 358.848 754.928 348.728 747.534 341.093 742.297 C 346.271 737.499 354.111 728.306 359.169 722.802 L 342.081 710.259 L 342.229 706.496 C 342.782 699.868 345.401 690.883 346.956 684.209 z" fill="rgb(10,8,9)" transform="translate(0,0)"></path>
<path d="M 346.956 684.209 C 350.628 686.453 353.646 687.197 355.532 690.825 C 351.045 695.779 346.551 702.067 342.229 706.496 C 342.782 699.868 345.401 690.883 346.956 684.209 z" fill="rgb(247,154,52)" transform="translate(0,0)"></path>
<path d="M 1960.8 570.163 C 1968.41 627.281 1975.69 684.441 1982.64 741.642 C 1985.87 766.868 1991.46 800.221 1993.33 824.935 C 1972.64 825.161 1951.85 809.397 1933.68 800.314 L 1951.62 644.706 C 1953.04 632.087 1959.35 582.215 1959 571.852 C 1959.62 571.339 1960.36 570.807 1960.8 570.163 z" fill="rgb(245,109,46)" transform="translate(0,0)"></path>
<path d="M 1852.09 193.998 L 1907.09 194.024 C 1902.94 204.424 1868 282.366 1864.31 285.209 C 1862.47 284.286 1863.21 284.945 1862.13 283.024 L 1861.8 282.292 L 1861.86 282.068 L 1860.95 281.395 L 1861.06 280.795 L 1860.9 280.705 L 1860.74 280.778 C 1860.07 282.258 1860.19 282.592 1858.66 281.973 L 1857.94 283.09 C 1853.62 284.929 1815.91 275.98 1809.07 274.432 C 1806.94 266.423 1804.59 256.507 1801.51 248.981 C 1810.85 231.019 1819.29 212.235 1828.77 194.017 L 1847.14 194.043 L 1851.97 203.044 L 1853.54 202.739 C 1855.26 205.914 1857.96 212.45 1860.03 214.366 L 1861.48 213.964 C 1858.42 207.19 1855.48 200.615 1852.09 193.998 z" fill="rgb(250,169,57)" transform="translate(0,0)"></path>
<path d="M 1852.09 193.998 L 1907.09 194.024 C 1902.94 204.424 1868 282.366 1864.31 285.209 C 1862.47 284.286 1863.21 284.945 1862.13 283.024 C 1862.69 281.404 1863.24 279.779 1863.77 278.151 C 1864.49 271.628 1871.64 244.172 1873.52 236.273 C 1869.43 228.878 1865.42 221.441 1861.48 213.964 C 1858.42 207.19 1855.48 200.615 1852.09 193.998 z" fill="rgb(15,166,190)" transform="translate(0,0)"></path>
<path d="M 1851.97 203.044 L 1853.54 202.739 C 1855.26 205.914 1857.96 212.45 1860.03 214.366 L 1861.48 213.964 C 1865.42 221.441 1869.43 228.878 1873.52 236.273 C 1871.64 244.172 1864.49 271.628 1863.77 278.151 L 1860.33 273.742 C 1862.8 261.886 1866.13 248.973 1868.93 237.099 C 1863.11 226.293 1856.77 214.281 1851.97 203.044 z" fill="rgb(10,8,9)" transform="translate(0,0)"></path>
<path d="M 1860.33 273.742 L 1863.77 278.151 C 1863.24 279.779 1862.69 281.404 1862.13 283.024 L 1861.8 282.292 L 1861.86 282.068 L 1860.95 281.395 L 1861.06 280.795 L 1860.9 280.705 L 1860.74 280.778 C 1860.07 282.258 1860.19 282.592 1858.66 281.973 C 1859.17 278.694 1859.49 276.953 1860.33 273.742 z" fill="rgb(10,8,9)" transform="translate(0,0)"></path>
<path d="M 1816.63 644.366 C 1819.17 643.807 1819.58 643.669 1822.04 644.441 C 1824.62 649.243 1822.15 667.973 1821.89 674.966 C 1793.13 709.325 1759.78 745.164 1729.89 779.299 C 1729.43 779.87 1727.6 781.533 1726.96 782.133 L 1726.18 781.021 C 1728.28 759.824 1729.73 738.505 1733.05 717.473 C 1735.21 703.803 1734.56 686.036 1743.48 674.845 C 1760.72 653.19 1790.83 647.642 1816.63 644.366 z" fill="rgb(15,166,190)" transform="translate(0,0)"></path>
<path d="M 1999.39 273.359 L 2000.53 273.524 C 2002.81 278.958 1992.16 364.257 1991.8 377.01 C 1991.55 385.9 1965.36 419.186 1958.61 431.006 C 1958.17 426.008 1957.48 420.773 1956.91 415.766 L 1939.17 283.078 C 1959.2 279.621 1979.28 276.381 1999.39 273.359 z" fill="rgb(15,166,190)" transform="translate(0,0)"></path>
<path d="M 518.298 687.796 C 525.446 688.303 532.598 688.746 539.754 689.123 C 597.645 734.057 658.133 778.967 715.466 824.151 C 695.968 824.812 672.673 824.343 652.91 824.4 C 640.61 813.62 628.824 799.702 616.979 788.326 C 583.461 756.133 551.809 719.628 518.298 687.796 z" fill="rgb(15,166,190)" transform="translate(0,0)"></path>
<path d="M 1966.65 426.791 C 1968.55 428.482 1975.7 446.244 1975.75 449.178 C 1976.32 487.234 1974.65 525.908 1973.73 564.002 C 1973.31 581.404 1972.88 600.622 1971.14 617.72 C 1969.06 600.315 1967.14 582.891 1965.38 565.451 C 1964.58 558.137 1963.05 542.325 1961.13 535.623 C 1955.02 552.91 1947.4 571.196 1940.49 588.259 C 1935.74 577.023 1928.46 565.876 1922.5 554.964 C 1926.26 545.498 1930.21 531.623 1933.38 521.692 C 1939.3 503.235 1945.31 484.81 1951.43 466.42 C 1956.05 452.508 1959.91 439.914 1966.65 426.791 z" fill="rgb(15,166,190)" transform="translate(0,0)"></path>
<path d="M 1952.74 203.169 C 1954.78 198.317 1954.25 197.541 1958.05 194.513 C 1961.84 193.638 1965.34 193.994 1969.21 194.171 C 1978.18 215.119 1993.62 248.405 2001.06 268.934 C 1994.9 269.839 1948.78 275.973 1945.97 277.906 L 1946.21 278.379 C 1942.93 281.212 1939.26 280.986 1936.66 277.629 C 1936.21 268.44 1932.18 258.183 1934.57 249.4 C 1936.02 244.079 1938.17 241.505 1937.34 235.611 C 1936.63 237.057 1935.23 240.347 1934.5 241.528 C 1932.66 241.006 1928.09 199.439 1927.48 194.114 C 1932.11 194.12 1949.06 193.744 1952.43 194.906 C 1952.72 197.898 1953.07 200.153 1952.74 203.169 z" fill="rgb(239,239,237)" transform="translate(0,0)"></path>
<path d="M 1927.48 194.114 C 1932.11 194.12 1949.06 193.744 1952.43 194.906 C 1949.86 199.885 1937.58 231.643 1937.34 235.611 C 1936.63 237.057 1935.23 240.347 1934.5 241.528 C 1932.66 241.006 1928.09 199.439 1927.48 194.114 z" fill="rgb(15,166,190)" transform="translate(0,0)"></path>
<path d="M 1952.43 194.906 C 1952.72 197.898 1953.07 200.153 1952.74 203.169 C 1947.55 219.658 1941.27 236.001 1935.14 252.164 C 1935.89 258.512 1936.29 274.506 1940.42 277.978 C 1942.25 277.972 1944.15 277.997 1945.97 277.906 L 1946.21 278.379 C 1942.93 281.212 1939.26 280.986 1936.66 277.629 C 1936.21 268.44 1932.18 258.183 1934.57 249.4 C 1936.02 244.079 1938.17 241.505 1937.34 235.611 C 1937.58 231.643 1949.86 199.885 1952.43 194.906 z" fill="rgb(10,8,9)" transform="translate(0,0)"></path>
<path d="M 1815.18 416.764 C 1827.15 410.945 1845.61 404.99 1858.76 399.977 C 1855.61 415.831 1851.46 434.896 1849.47 450.814 C 1851.2 455.447 1848.7 468.962 1847.04 473.865 L 1847.54 475.73 L 1847.77 475.651 C 1848.75 468.485 1849.86 462.793 1851.39 455.713 L 1852.39 456.736 C 1854.85 448.786 1856.57 433.245 1858.52 424.158 C 1859.06 430.484 1859.3 436.71 1859.26 443.057 C 1859.06 471.943 1859.87 500.907 1859.71 529.779 C 1854.34 526.594 1845.91 522.237 1841.87 518.068 C 1841.57 516.032 1841.47 516.03 1841.95 514.084 L 1840.79 508.867 L 1839.46 510.469 C 1838.4 511.919 1838.47 511.984 1836.78 512.799 L 1835.44 509.765 L 1834.9 509.423 C 1833.41 508.462 1834.2 508.502 1833.37 507.594 C 1832.98 507.812 1832.23 511.098 1832.05 511.672 C 1826.47 508.583 1817.59 501.834 1811.89 497.846 C 1814.2 493.289 1822.43 477.48 1824.93 473.79 C 1825.15 473.434 1825.37 473.078 1825.58 472.721 C 1826.67 473.299 1826.9 473.734 1827.87 472.524 L 1828.53 471.745 C 1824.74 453.892 1819.42 434.827 1815.18 416.764 z" fill="rgb(15,166,190)" transform="translate(0,0)"></path>
<path d="M 1858.52 424.158 C 1859.06 430.484 1859.3 436.71 1859.26 443.057 C 1859.06 471.943 1859.87 500.907 1859.71 529.779 C 1854.34 526.594 1845.91 522.237 1841.87 518.068 C 1841.57 516.032 1841.47 516.03 1841.95 514.084 C 1843.19 509.657 1844.34 502.158 1845.2 497.394 C 1847.54 485.784 1851.08 468.077 1852.39 456.736 C 1854.85 448.786 1856.57 433.245 1858.52 424.158 z" fill="rgb(245,109,46)" transform="translate(0,0)"></path>
<path d="M 1811.89 497.846 C 1814.2 493.289 1822.43 477.48 1824.93 473.79 C 1826.25 482.765 1829.91 503.119 1832.05 511.672 C 1826.47 508.583 1817.59 501.834 1811.89 497.846 z" fill="rgb(245,109,46)" transform="translate(0,0)"></path>
<path d="M 1849.47 450.814 C 1851.2 455.447 1848.7 468.962 1847.04 473.865 L 1847.54 475.73 L 1847.77 475.651 C 1848.75 468.485 1849.86 462.793 1851.39 455.713 L 1852.39 456.736 C 1851.08 468.077 1847.54 485.784 1845.2 497.394 C 1844.34 502.158 1843.19 509.657 1841.95 514.084 L 1840.79 508.867 L 1839.46 510.469 C 1838.87 506.16 1840.39 500.496 1841.29 496.099 C 1843.83 480.971 1846.56 465.875 1849.47 450.814 z" fill="rgb(10,8,9)" transform="translate(0,0)"></path>
<path d="M 1828.53 471.745 C 1830.57 484.147 1833.87 497.512 1835.44 509.765 L 1834.9 509.423 C 1833.41 508.462 1834.2 508.502 1833.37 507.594 C 1832.98 507.812 1832.23 511.098 1832.05 511.672 C 1829.91 503.119 1826.25 482.765 1824.93 473.79 C 1825.15 473.434 1825.37 473.078 1825.58 472.721 C 1826.67 473.299 1826.9 473.734 1827.87 472.524 L 1828.53 471.745 z" fill="rgb(10,8,9)" transform="translate(0,0)"></path>
<path d="M 1980.95 451.337 C 1990.82 458.317 2003.69 465.064 2014.39 471.042 C 2009.11 503.001 2006.96 544.353 2000.91 576.444 C 1999.66 583.066 1982.6 610.334 1978.3 618.65 C 1977.9 619.78 1977.65 620.919 1976.63 621.542 C 1974.92 621.038 1976.6 607.783 1976.91 605.875 C 1976.81 555.439 1981.21 501.559 1980.95 451.337 z" fill="rgb(15,166,190)" transform="translate(0,0)"></path>
<path d="M 1976.91 605.875 C 1977.44 609.878 1977.23 615.859 1978.3 618.65 C 1977.9 619.78 1977.65 620.919 1976.63 621.542 C 1974.92 621.038 1976.6 607.783 1976.91 605.875 z" fill="rgb(15,166,190)" transform="translate(0,0)"></path>
<path d="M 1864.18 425.792 C 1867.85 429.445 1915.24 553.345 1924.83 572.142 C 1909.07 567.105 1898.18 556.194 1885.22 546.769 C 1878.57 541.937 1870.96 537.197 1863.99 532.762 C 1864.07 497.332 1863.68 461.157 1864.18 425.792 z" fill="rgb(239,239,237)" transform="translate(0,0)"></path>
<path d="M 1678.36 194.272 C 1683.86 194.113 1703.26 192.815 1706.49 195.512 C 1708.05 195.554 1709.23 195.085 1710.78 194.681 C 1718.63 193.436 1746.63 194.107 1755.99 194.167 C 1753.11 203.47 1738.64 242.249 1734.47 250.521 L 1733.09 250.467 L 1731.16 247.983 C 1729.8 247.996 1730.29 248.265 1729.48 247.569 L 1727.98 250.423 C 1728.76 251.771 1728.82 252.846 1729.09 254.373 C 1725.28 255.802 1703.29 248.793 1697.85 247.369 C 1693.47 232.441 1684.09 209.249 1678.36 194.272 z" fill="rgb(245,109,46)" transform="translate(0,0)"></path>
<path d="M 1710.78 194.681 C 1718.63 193.436 1746.63 194.107 1755.99 194.167 C 1753.11 203.47 1738.64 242.249 1734.47 250.521 L 1733.09 250.467 L 1731.16 247.983 C 1727.77 235.898 1715.75 208.131 1710.78 194.681 z" fill="rgb(15,166,190)" transform="translate(0,0)"></path>
<path d="M 1710.78 194.681 C 1715.75 208.131 1727.77 235.898 1731.16 247.983 C 1729.8 247.996 1730.29 248.265 1729.48 247.569 L 1727.98 250.423 L 1706.49 195.512 C 1708.05 195.554 1709.23 195.085 1710.78 194.681 z" fill="rgb(10,8,9)" transform="translate(0,0)"></path>
<path d="M 1911.74 570.9 C 1918.3 574.271 1924.96 577.454 1931.71 580.447 C 1933.23 582.301 1937 590.2 1938.29 592.762 L 1892.02 696.62 L 1888.86 703.503 L 1887.92 703.525 C 1885.57 697.403 1883.85 685.093 1882.65 678.236 C 1880.22 663.461 1877.52 648.731 1874.56 634.052 C 1906.55 623.802 1923.14 605.335 1911.74 570.9 z" fill="rgb(15,166,190)" transform="translate(0,0)"></path>
<path d="M 1887.52 386.952 L 1888.79 387.257 C 1893.09 393.864 1912.4 459.982 1915.78 471.33 C 1912.22 482.029 1907.06 493.412 1901.85 503.375 L 1901.06 503.519 L 1899.03 499.08 C 1886.51 470.193 1870.98 429.557 1861.01 399.868 C 1870.92 395.493 1877.95 392.248 1887.52 386.952 z" fill="rgb(15,166,190)" transform="translate(0,0)"></path>
<path d="M 1666.48 759.338 C 1670.03 762.325 1675.2 766.917 1678.78 769.585 C 1681.6 787.946 1683.75 806.405 1685.21 824.925 L 1620.55 825.022 L 1627.35 805.869 C 1628.11 804.302 1628.29 803.77 1628.68 802.112 C 1637.68 779.768 1647.75 774.686 1666.48 759.338 z" fill="rgb(245,109,46)" transform="translate(0,0)"></path>
<path d="M 1972.97 193.947 L 2020.66 194.113 C 2022.19 219.671 2028.86 248.021 2030.4 274.393 C 2023.68 272.298 2012.78 270.11 2005.65 268.451 C 1995.5 243.83 1983.81 218.387 1972.97 193.947 z" fill="rgb(239,239,237)" transform="translate(0,0)"></path>
<path d="M 1866.68 636.202 C 1869.13 635.666 1867.94 635.616 1870.36 636.421 C 1875.62 660.035 1878.47 684.881 1883.85 708.786 L 1857.48 693.755 C 1849.05 689.571 1834.49 680.438 1825.86 675.412 L 1828.07 642.565 C 1841.05 641.176 1853.94 639.051 1866.68 636.202 z" fill="rgb(239,239,237)" transform="translate(0,0)"></path>
<path d="M 2005.6 272.548 L 2030.9 278.673 C 2032.17 292.325 2033.33 308.805 2035.62 322.062 C 2026.99 332.979 2017.15 347.59 2008.91 359.128 L 1996.02 376.863 C 2000.23 344.981 2002.89 305.04 2005.6 272.548 z" fill="rgb(15,166,190)" transform="translate(0,0)"></path>
<path d="M 1605.77 770.355 C 1625.31 767.285 1639.96 764.865 1659.08 759.792 C 1650.55 768.238 1640.52 775.561 1632.19 784.146 C 1633.11 790.198 1628.16 793.637 1628.68 802.112 C 1628.29 803.77 1628.11 804.302 1627.35 805.869 C 1622.4 803.372 1625.73 813.086 1621.1 812.369 C 1619.31 815.221 1617.35 821.12 1616.11 824.471 C 1603.7 824.094 1591.28 823.965 1578.87 824.084 C 1587.86 807.968 1597.48 787.202 1605.77 770.355 z" fill="rgb(239,239,237)" transform="translate(0,0)"></path>
<path d="M 1632.19 784.146 C 1633.11 790.198 1628.16 793.637 1628.68 802.112 C 1628.29 803.77 1628.11 804.302 1627.35 805.869 C 1622.4 803.372 1625.73 813.086 1621.1 812.369 C 1621.75 808.878 1630.21 787.155 1632.19 784.146 z" fill="rgb(10,8,9)" transform="translate(0,0)"></path>
<path d="M 1913.53 193.708 C 1914.89 199.446 1904.46 291.872 1903.28 306.157 C 1897.01 300.877 1890.12 296.363 1882.78 292.712 L 1869.13 287.397 C 1878.29 266.426 1887.74 245.581 1897.48 224.866 C 1901.34 216.637 1908.57 200.398 1913.53 193.708 z" fill="rgb(250,169,57)" transform="translate(0,0)"></path>
<path d="M 570.255 190.506 C 579.991 190.325 590.085 190.453 599.853 190.443 C 584.412 206.63 559.752 228.261 542.735 244.545 C 537.485 249.168 533.006 254.055 528.211 259.138 C 530.737 240.611 538.324 209.667 542.618 190.603 L 570.255 190.506 z" fill="rgb(245,109,46)" transform="translate(0,0)"></path>
<path d="M 1761.68 196.098 L 1761.59 194.413 C 1771.18 193.168 1812.55 193.958 1823.8 193.976 L 1798.26 246.233 L 1784.98 243.083 C 1783.49 234.211 1783.18 225.931 1777.74 218.979 C 1777.24 220.714 1777.51 221.27 1775.65 221.687 L 1774.48 221.9 C 1770.72 217.389 1761.89 205.107 1758.78 200.057 C 1762.96 200.903 1761.39 200.308 1761.68 196.098 z" fill="rgb(245,109,46)" transform="translate(0,0)"></path>
<path d="M 1761.68 196.098 C 1767.07 203.965 1772.42 211.279 1777.74 218.979 C 1777.24 220.714 1777.51 221.27 1775.65 221.687 L 1774.48 221.9 C 1770.72 217.389 1761.89 205.107 1758.78 200.057 C 1762.96 200.903 1761.39 200.308 1761.68 196.098 z" fill="rgb(10,8,9)" transform="translate(0,0)"></path>
<path d="M 1591.4 771.402 C 1594.88 770.909 1595.46 770.962 1598.9 771.359 L 1599.59 772.512 C 1591.87 789.041 1583.8 805.403 1575.39 821.586 C 1567.73 815.343 1559.41 809.207 1551.52 803.203 C 1541.27 795.835 1533.63 790.114 1523.97 781.997 C 1547.62 776.316 1567.27 773.809 1591.4 771.402 z" fill="rgb(15,166,190)" transform="translate(0,0)"></path>
<path d="M 1758.78 200.057 C 1761.89 205.107 1770.72 217.389 1774.48 221.9 C 1779.83 230.892 1784.02 257.385 1786.53 269.328 C 1769.79 265.89 1753.14 262.034 1736.59 257.761 C 1741.6 242.606 1752.25 214.748 1758.78 200.057 z" fill="rgb(15,166,190)" transform="translate(0,0)"></path>
<path d="M 1810.82 419.047 C 1812.42 421.068 1821.62 461.984 1823.01 467.95 C 1818.42 477.351 1813.48 486.242 1808.45 495.397 L 1802.72 490.256 C 1774.07 462.872 1779.49 440.393 1810.82 419.047 z" fill="rgb(15,166,190)" transform="translate(0,0)"></path>
<path d="M 178.965 760.802 C 179.081 760.915 179.232 761 179.312 761.141 C 181.486 764.957 171.375 816.35 169.619 823.695 L 118.445 824.046 L 117.689 823.509 C 118.377 821.706 172.535 767.235 178.965 760.802 z" fill="rgb(245,109,46)" transform="translate(0,0)"></path>
<path d="M 1727.61 715.769 C 1728.97 723.146 1721.58 777.281 1720.83 789.52 C 1717.86 793.481 1712.51 800.808 1708.51 803.171 L 1707.07 802.663 L 1706.33 799.014 C 1704.05 780.867 1701.33 762.778 1698.16 744.765 C 1711.47 736.998 1719.45 728.539 1727.61 715.769 z" fill="rgb(239,239,237)" transform="translate(0,0)"></path>
<path d="M 1655.19 195.743 C 1658.67 192.884 1668.13 193.915 1673.22 194.078 C 1679.84 210.864 1687.45 229.05 1693.01 246.064 C 1678.22 241.495 1663.03 235.644 1649.7 227.704 L 1650.7 219.489 C 1651.88 213.903 1654.61 200.982 1655.19 195.743 z" fill="rgb(245,109,46)" transform="translate(0,0)"></path>
<path d="M 1858.37 822.363 C 1876.18 818.439 1913.45 809.852 1929.88 804.174 C 1942.24 810.332 1959.09 818.095 1970.78 824.711 C 1947.31 824.936 1923.83 824.98 1900.36 824.842 C 1895.62 825.099 1854.4 825.521 1853 824.412 C 1852.99 824.289 1852.98 824.166 1852.96 824.043 C 1853.54 823.248 1854.54 823.016 1855.48 822.847 C 1856.44 822.668 1857.41 822.506 1858.37 822.363 z" fill="rgb(15,166,190)" transform="translate(0,0)"></path>
<path d="M 1900.36 824.842 C 1895.62 825.099 1854.4 825.521 1853 824.412 C 1852.99 824.289 1852.98 824.166 1852.96 824.043 C 1853.54 823.248 1854.54 823.016 1855.48 822.847 C 1856.44 822.668 1857.41 822.506 1858.37 822.363 C 1858.39 822.543 1858.41 823.326 1858.68 823.366 C 1869.62 824.983 1889.85 823.749 1900.36 824.842 z" fill="rgb(31,110,142)" transform="translate(0,0)"></path>
<path d="M 621.329 487.394 C 623.304 486.914 623.624 487.088 625.676 487.457 C 627.631 492.036 623.165 514.958 622.343 520.916 C 609.348 516.554 596.548 511.563 583.736 506.686 C 575.297 503.442 566.898 500.095 558.541 496.647 C 579.517 493.764 600.153 489.972 621.329 487.394 z" fill="rgb(250,169,57)" transform="translate(0,0)"></path>
<path d="M 1917.38 479.497 C 1920.91 482.163 1928.43 506.892 1930.33 512.588 C 1928.63 518.411 1921.57 544.403 1918.42 547.393 C 1913.52 536.199 1908.65 523.263 1904.12 511.82 C 1907.41 501.848 1913.16 489.356 1917.38 479.497 z" fill="rgb(15,166,190)" transform="translate(0,0)"></path>
<path d="M 1712.44 293.875 C 1715.9 294.192 1726.66 308.267 1729.69 311.861 C 1737.09 308.679 1745.88 304.07 1753.23 300.458 C 1758.09 305.949 1764.67 314.973 1769.35 320.975 C 1777.42 316.936 1783.81 313.62 1791.52 308.959 C 1795.85 315.421 1801.87 323.113 1806.58 329.485 C 1813.77 325.972 1821 322.528 1828.25 319.151 C 1833.36 327.262 1839.29 331.896 1843.71 339.23 L 1843.32 340.555 L 1841.33 341.458 C 1837.25 339.638 1829.97 329.481 1826.77 325.468 C 1822.45 326.669 1810.06 333.067 1805.39 335.358 L 1790.18 315.369 C 1783.29 318.571 1774.8 323.398 1767.96 327.05 C 1762.74 319.928 1757.36 312.923 1751.83 306.04 C 1745.11 308.922 1735.07 314.383 1728.26 317.799 C 1723.27 311.474 1717.92 305.118 1712.8 298.878 C 1706.45 301.731 1697.82 307.296 1690.68 307.149 C 1692.79 302.355 1707.07 296.392 1712.44 293.875 z" fill="rgb(239,239,237)" transform="translate(0,0)"></path>
<path d="M 1537.37 808.587 L 1550.37 807.484 C 1557.97 813.042 1565.01 818.675 1572.34 824.552 C 1560.32 824.906 1547.15 824.672 1535.04 824.683 L 1502.02 824.207 C 1503.43 819.448 1504.98 814.73 1506.66 810.058 C 1516.5 810.142 1527.46 809.214 1537.37 808.587 z" fill="rgb(245,109,46)" transform="translate(0,0)"></path>
<path d="M 1637.16 706.99 C 1642.77 709.802 1654.48 714.861 1657 720.256 L 1655.39 720.874 C 1649.59 719.91 1643.52 715.922 1638.27 712.972 C 1633.55 718.513 1628.71 724.812 1624.13 730.531 C 1617.15 727.167 1608.59 722.139 1601.68 718.326 C 1596.9 723.556 1591.17 731.167 1586.66 736.852 C 1579.5 733.019 1572.27 728.753 1565.21 724.707 C 1560.21 730.448 1554.74 737.627 1549.91 743.647 C 1546.18 741.586 1531.28 732.919 1528.23 732.497 C 1523.96 738.101 1521.08 742.83 1515.17 746.638 L 1513.82 746.266 C 1515.07 739.094 1522.77 731.778 1527.68 726.358 C 1535.08 730.524 1541.21 733.818 1548.88 737.438 L 1563.55 718.839 C 1570.92 723.161 1578.41 727.259 1586.03 731.129 C 1589.42 725.592 1596.17 717.298 1600.32 711.906 C 1606.96 715.296 1616.34 721.208 1623.01 725.11 L 1637.16 706.99 z" fill="rgb(239,239,237)" transform="translate(0,0)"></path>
<path d="M 502.163 724.187 C 504.658 725.219 503.805 724.56 505.438 726.669 C 505.178 731.799 500.054 743.956 498.043 749.18 C 506.033 753.818 514.503 758.042 522.733 762.276 L 512.302 789.126 L 538.776 801.743 C 534.953 810.313 532.096 820.236 529.261 829.255 C 526.459 828.679 527.285 829.264 525.65 827.331 C 525.642 822.125 530.507 810.172 532.465 804.828 C 524.202 800.118 514.883 795.988 506.219 791.943 C 509.838 782.863 513.19 773.679 516.271 764.402 C 508.27 760.29 500.139 755.672 492.232 751.325 C 495.62 742.307 498.93 733.261 502.163 724.187 z" fill="rgb(239,239,237)" transform="translate(0,0)"></path>
<path d="M 1518.72 783.898 C 1522.43 785.998 1540.6 800.444 1544.11 803.789 C 1535.8 804.547 1528.5 804.944 1520.25 805.541 C 1515.71 806.003 1510.1 805.992 1505.39 806.224 C 1501.6 803.012 1499.13 800.742 1495.77 797.084 C 1504.53 790.388 1508.61 788.58 1518.72 783.898 z" fill="rgb(245,109,46)" transform="translate(0,0)"></path>
<path d="M 1622.93 194.484 C 1627.72 194.125 1649.47 192.729 1651.91 196.025 C 1653.28 196.328 1653.73 196.054 1655.19 195.743 C 1654.61 200.982 1651.88 213.903 1650.7 219.489 C 1650.55 218.673 1649.72 212.641 1649.64 212.563 L 1649.53 212.613 C 1649.13 214.239 1648.35 220.955 1647.48 221.836 C 1646.9 221.769 1646.68 220.706 1646.49 220.263 C 1646.18 221.042 1645.37 224.633 1643.8 223.37 C 1633.04 214.726 1627.51 207.397 1622.93 194.484 z" fill="rgb(15,166,190)" transform="translate(0,0)"></path>
<path d="M 1651.91 196.025 C 1653.28 196.328 1653.73 196.054 1655.19 195.743 C 1654.61 200.982 1651.88 213.903 1650.7 219.489 C 1650.55 218.673 1649.72 212.641 1649.64 212.563 L 1649.53 212.613 C 1649.13 214.239 1648.35 220.955 1647.48 221.836 C 1646.9 221.769 1646.68 220.706 1646.49 220.263 C 1647.3 213.91 1649.61 201.929 1651.91 196.025 z" fill="rgb(10,8,9)" transform="translate(0,0)"></path>
<path d="M 1688.57 750.774 C 1689.98 749.367 1692.24 746.272 1694.48 747.184 C 1694.77 747.591 1698.46 773.043 1698.92 775.921 C 1696.33 778.764 1688.26 789.606 1684.9 787.469 C 1684.82 787.933 1684.76 788.789 1684.45 789.089 L 1684.33 789.049 C 1683.06 785.412 1681.68 771.04 1682.84 767.54 C 1682.69 767.235 1681.94 766.983 1681.56 766.807 C 1677.01 763.507 1674.1 760.654 1670 756.83 C 1673.34 755.182 1684.62 748.197 1685.92 752.575 C 1686.41 752.995 1686.51 753.208 1686.81 753.189 C 1687.33 752.568 1687.58 751.857 1688.13 751.25 L 1688.57 750.774 z" fill="rgb(239,239,237)" transform="translate(0,0)"></path>
<path d="M 1670 756.83 C 1673.34 755.182 1684.62 748.197 1685.92 752.575 C 1683.29 756.875 1681.79 761.77 1681.56 766.807 C 1677.01 763.507 1674.1 760.654 1670 756.83 z" fill="rgb(245,109,46)" transform="translate(0,0)"></path>
<path d="M 1685.92 752.575 C 1686.41 752.995 1686.51 753.208 1686.81 753.189 C 1687.33 752.568 1687.58 751.857 1688.13 751.25 L 1688.57 750.774 C 1688.47 757.181 1684.15 764.557 1683.98 769.498 C 1683.8 774.952 1685.02 780.747 1684.9 787.469 C 1684.82 787.933 1684.76 788.789 1684.45 789.089 L 1684.33 789.049 C 1683.06 785.412 1681.68 771.04 1682.84 767.54 C 1682.69 767.235 1681.94 766.983 1681.56 766.807 C 1681.79 761.77 1683.29 756.875 1685.92 752.575 z" fill="rgb(10,8,9)" transform="translate(0,0)"></path>
<path d="M 1056.34 615.475 C 1059.55 615.337 1063.14 615.26 1066.34 615.443 C 1067.82 620.303 1069.06 624.527 1070.82 629.302 C 1072.31 624.61 1073.74 620.252 1075.19 615.523 C 1078.73 615.447 1082.28 615.452 1085.83 615.54 C 1085.81 618.733 1086.17 635.785 1085.39 639.584 C 1085.22 640.406 1080.21 640.607 1078.55 640.791 C 1077.63 634.888 1078.6 632.619 1077.21 626.851 C 1074.86 633.338 1072.95 638.848 1069.91 645.05 C 1066.56 637.875 1066.5 636.7 1064.46 629.132 C 1062.16 632.987 1063.37 635.526 1062.23 641.005 C 1061 640.763 1056.84 640.165 1056.72 639.425 C 1055.87 634.209 1056.35 620.375 1056.34 615.475 z" fill="rgb(250,169,57)" transform="translate(0,0)"></path>
<path d="M 1062.23 641.005 C 1062.13 639.054 1061.46 625.289 1062.72 624.613 C 1064.05 625.04 1064.21 627.986 1064.46 629.132 C 1062.16 632.987 1063.37 635.526 1062.23 641.005 z" fill="rgb(101,66,29)" transform="translate(0,0)"></path>
<path d="M 1077.21 626.851 C 1077.62 624.114 1078.82 623.647 1078.99 626.811 C 1079.2 631.475 1079.06 636.149 1078.55 640.791 C 1077.63 634.888 1078.6 632.619 1077.21 626.851 z" fill="rgb(101,66,29)" transform="translate(0,0)"></path>
<path d="M 1698.88 781.893 C 1700.91 784.121 1702.74 804.914 1703.37 809.957 C 1699.28 814.784 1695.33 819.503 1691.12 824.246 C 1688.22 821.366 1687.1 799.815 1686.68 794.311 C 1690.88 790.179 1694.57 786.033 1698.88 781.893 z" fill="rgb(245,109,46)" transform="translate(0,0)"></path>
<path d="M 163.783 189.232 C 165.316 189.634 165.45 189.871 166.698 190.801 C 166.767 194.403 163.873 199.524 162.247 202.984 C 167.299 206.039 176.019 210.15 181.513 212.952 C 177.162 220.798 172.307 228.683 167.688 236.399 C 172.326 239.597 184.03 246.078 186.45 250.448 L 185.195 253.67 C 177.282 248.815 169.547 243.676 162.004 238.263 C 165.942 230.51 170.886 222.104 175.168 214.449 L 155.901 205.45 L 163.783 189.232 z" fill="rgb(239,239,237)" transform="translate(0,0)"></path>
<path d="M 1492.11 799.831 C 1496.18 802.796 1499.12 805.725 1502.78 809.159 C 1501.4 814.182 1500.11 819.047 1498.62 824.063 L 1487.79 823.993 C 1483.55 824.033 1479.3 824.016 1475.06 823.94 C 1480.94 812.839 1483.54 809.339 1492.11 799.831 z" fill="rgb(245,109,46)" transform="translate(0,0)"></path>
<path d="M 1410.97 615.013 C 1429.33 615.703 1420.15 623.521 1417.13 622.704 C 1415.06 622.145 1411.81 619.622 1409.27 623.091 C 1404.63 629.419 1411.05 639.239 1417.93 633.955 C 1420.45 632.077 1411.9 629.834 1414.38 627.077 C 1415.56 625.775 1420.35 625.446 1421.86 625.187 C 1425.48 627.632 1424.46 635.055 1424.67 639.603 C 1416.67 640.624 1405.96 643.105 1402 633.996 C 1397.93 624.642 1403.29 618.532 1410.97 615.013 z" fill="rgb(250,169,57)" transform="translate(0,0)"></path>
<path d="M 1484.77 613.643 C 1485.92 613.787 1490.77 613.824 1491.05 614.998 C 1491.7 617.281 1491.84 626.047 1491.61 628.055 C 1490.85 634.953 1494.95 643.392 1484.58 639.311 C 1484.5 639.283 1480.41 640.891 1479.43 641.245 C 1474.01 638.847 1471.19 636.737 1471.63 630.008 C 1471.99 624.506 1477.55 621.841 1482.44 623.17 C 1482.61 623.215 1484.01 623.941 1484.36 623.397 C 1485.21 620.746 1484.77 616.571 1484.77 613.643 z" fill="rgb(250,169,57)" transform="translate(0,0)"></path>
<path d="M 1479.72 628.516 C 1480.84 627.795 1482.26 627.741 1483.42 628.375 C 1484.59 629.009 1485.32 630.229 1485.32 631.558 C 1485.33 632.886 1484.61 634.111 1483.44 634.751 C 1481.73 635.692 1479.58 635.108 1478.57 633.429 C 1477.57 631.749 1478.08 629.578 1479.72 628.516 z" fill="rgb(10,8,9)" transform="translate(0,0)"></path>
<path d="M 887.358 614.027 C 889.254 614.279 891.137 614.618 893.002 615.042 C 898.91 616.447 895.631 620.647 893.078 622.312 C 892.922 622.414 886.603 617.685 883.728 623.989 C 880.86 630.278 884.957 638.514 892.077 633.151 C 892.947 632.496 896.601 635.184 897.673 635.768 C 895.322 641.575 886.216 642.408 882.533 639.869 C 869.015 630.55 875.148 618.171 887.358 614.027 z" fill="rgb(250,169,57)" transform="translate(0,0)"></path>
<path d="M 1457.7 621.895 C 1462.96 621.203 1467.8 624.854 1468.58 630.1 C 1469.36 635.346 1465.79 640.249 1460.56 641.118 C 1457.09 641.693 1453.59 640.355 1451.39 637.618 C 1449.19 634.881 1448.64 631.171 1449.95 627.912 C 1451.25 624.654 1454.22 622.353 1457.7 621.895 z" fill="rgb(250,169,57)" transform="translate(0,0)"></path>
<path d="M 1456.96 628.587 C 1458.08 627.72 1459.58 627.532 1460.87 628.099 C 1462.17 628.665 1463.05 629.894 1463.17 631.302 C 1463.29 632.71 1462.64 634.072 1461.46 634.852 C 1459.73 635.996 1457.4 635.568 1456.19 633.883 C 1454.98 632.198 1455.32 629.859 1456.96 628.587 z" fill="rgb(26,27,31)" transform="translate(0,0)"></path>
<path d="M 1271.57 623.047 C 1275.95 622.921 1282.04 622.103 1284.68 626.26 C 1288.7 632.58 1284.81 637.125 1280.23 640.784 L 1278.93 640.819 C 1266.23 641.153 1261.71 631.751 1271.57 623.047 z" fill="rgb(250,169,57)" transform="translate(0,0)"></path>
<path d="M 1274.12 628.591 C 1275.85 627.5 1278.13 627.96 1279.31 629.636 C 1280.48 631.311 1280.14 633.614 1278.52 634.87 C 1277.4 635.739 1275.9 635.922 1274.6 635.345 C 1273.31 634.768 1272.44 633.526 1272.33 632.113 C 1272.23 630.699 1272.92 629.345 1274.12 628.591 z" fill="rgb(10,8,9)" transform="translate(0,0)"></path>
<path d="M 1140.03 635.551 C 1138.83 642.193 1129.64 641.6 1126.67 639.409 C 1112.27 628.785 1137.5 609.196 1141.79 633.558 L 1140.92 633.817 C 1140.21 634.027 1138.29 634.217 1137.86 634.587 C 1138.47 635.079 1139.31 635.256 1140.03 635.551 z" fill="rgb(250,169,57)" transform="translate(0,0)"></path>
<path d="M 1140.03 635.551 C 1123.58 636.635 1127.25 632.121 1141.79 633.558 L 1140.92 633.817 C 1140.21 634.027 1138.29 634.217 1137.86 634.587 C 1138.47 635.079 1139.31 635.256 1140.03 635.551 z" fill="rgb(54,40,23)" transform="translate(0,0)"></path>
<path d="M 1130.48 627.757 C 1131.2 627.537 1132.02 627.092 1132.76 627.217 C 1132.95 627.701 1132.7 628.072 1132.52 628.66 C 1131.37 628.797 1131.28 628.906 1130.21 628.805 C 1130.08 628.4 1130.26 628.276 1130.48 627.757 z" fill="rgb(43,32,25)" transform="translate(0,0)"></path>
<path d="M 796.899 743.569 C 807.568 745.753 842.63 760.002 853.985 764.756 C 854.887 765.134 854.944 766.885 855.242 768.222 C 847.722 767.281 806.774 752.087 797.55 748.093 C 796.652 747.704 796.926 745.038 796.899 743.569 z" fill="rgb(239,239,237)" transform="translate(0,0)"></path>
<path d="M 970.127 627.882 C 963.266 620.911 986.871 618.099 985.049 631.879 C 984.627 635.073 986.703 644.001 978.578 639.291 C 969.325 643.154 962.952 636.964 970.639 629.583 L 970.127 627.882 z" fill="rgb(250,169,57)" transform="translate(0,0)"></path>
<path d="M 970.639 629.583 C 973.147 629.239 975.379 629.031 977.901 628.821 C 978.051 631.742 977.769 631.839 975.802 634.058 C 979.89 633.175 978.832 634.384 976.903 636.889 L 978.578 639.291 C 969.325 643.154 962.952 636.964 970.639 629.583 z" fill="rgb(250,169,57)" transform="translate(0,0)"></path>
<path d="M 975.802 634.058 C 979.89 633.175 978.832 634.384 976.903 636.889 C 974.709 636.278 971.388 634.825 975.802 634.058 z" fill="rgb(10,8,9)" transform="translate(0,0)"></path>
<path d="M 970.127 627.882 C 972.994 627.303 977.179 625.347 977.901 628.821 C 975.379 629.031 973.147 629.239 970.639 629.583 L 970.127 627.882 z" fill="rgb(54,40,23)" transform="translate(0,0)"></path>
<path d="M 1736.1 549.905 C 1748.03 553.483 1780.83 564.261 1792.63 570.753 C 1793.11 571.017 1792.73 573.329 1792.66 574.266 C 1784.85 571.6 1739.24 556.773 1735.67 553.652 L 1736.1 549.905 z" fill="rgb(239,239,237)" transform="translate(0,0)"></path>
<path d="M 1247.18 615.602 C 1249.05 615.572 1263.46 615.067 1263.98 616.564 C 1267.32 626.201 1251.22 616.323 1254.32 624.934 C 1254.7 625.989 1258.23 625.698 1259.02 625.704 C 1262.46 625.415 1263.04 626.986 1264.49 629.678 C 1254.66 633.529 1253.76 626.586 1253.99 639.042 C 1254.11 641.166 1248.13 640.377 1248 639.827 C 1246.7 634.355 1247.24 621.089 1247.18 615.602 z" fill="rgb(250,169,57)" transform="translate(0,0)"></path>
<path d="M 1161.51 628.396 C 1160.4 626.918 1159.46 625.61 1161.52 624.14 C 1177.21 612.915 1181.67 644.402 1170.89 639.393 C 1162.15 641.026 1153.17 639.522 1162.2 629.98 L 1161.51 628.396 z" fill="rgb(250,169,57)" transform="translate(0,0)"></path>
<path d="M 1162.2 629.98 L 1163.92 629.976 C 1169.18 630.574 1173.58 629.137 1167.41 633.924 C 1170.38 634.586 1170.02 634.749 1167.89 636.849 C 1168.88 637.707 1169.88 638.556 1170.89 639.393 C 1162.15 641.026 1153.17 639.522 1162.2 629.98 z" fill="rgb(250,169,57)" transform="translate(0,0)"></path>
<path d="M 1167.41 633.924 C 1170.38 634.586 1170.02 634.749 1167.89 636.849 C 1165.76 635.833 1162.97 633.858 1167.41 633.924 z" fill="rgb(10,8,9)" transform="translate(0,0)"></path>
<path d="M 1161.51 628.396 C 1170.15 625.646 1173.29 627.778 1163.92 629.976 L 1162.2 629.98 L 1161.51 628.396 z" fill="rgb(43,32,25)" transform="translate(0,0)"></path>
<path d="M 888.929 254.135 L 891.04 254.205 L 892.418 255.805 L 891.892 257.403 C 879.525 262.497 850.328 270.633 836.401 274.98 L 833.963 275.027 L 832.993 273.383 L 833.747 271.791 C 837.439 269.588 881.655 256.317 888.929 254.135 z" fill="rgb(239,239,237)" transform="translate(0,0)"></path>
<path d="M 1786.24 247.313 C 1790.15 248.482 1793.67 249.515 1797.61 250.611 C 1799.76 257.901 1802.02 265.59 1803.99 272.895 C 1799.61 272.182 1794.89 271.183 1790.46 270.368 C 1789.2 262.738 1787.54 254.953 1786.24 247.313 z" fill="rgb(245,109,46)" transform="translate(0,0)"></path>
<path d="M 912.835 622.196 C 927.788 623.091 919.404 629.22 924.355 631.14 C 925.717 630.202 926.532 623.524 927.887 622.825 C 938.33 617.437 927.98 637.98 927 640.751 C 925.211 644.141 922.843 651.489 915.981 648.23 C 912.08 646.377 919.538 641.368 921.39 639.699 C 918.489 633.608 916.243 628.079 912.835 622.196 z" fill="rgb(250,169,57)" transform="translate(0,0)"></path>
<path d="M 1511.01 634.353 C 1512.06 643.381 1501.27 641.484 1498.36 638.627 C 1484.81 625.297 1514.32 612.518 1513.23 632.526 C 1512.32 633.069 1511.79 633.639 1511.01 634.353 z" fill="rgb(250,169,57)" transform="translate(0,0)"></path>
<path d="M 1511.01 634.353 C 1509.69 634.703 1505.19 636.075 1504.49 635.823 C 1495.83 632.699 1511.3 632.732 1513.23 632.526 C 1512.32 633.069 1511.79 633.639 1511.01 634.353 z" fill="rgb(54,40,23)" transform="translate(0,0)"></path>
<path d="M 1503.38 627.745 C 1504.03 627.404 1504.07 627.244 1504.61 627.349 C 1504.98 627.724 1504.77 627.465 1505.26 628.222 L 1504.64 628.423 C 1503.82 628.629 1503.76 628.568 1503.38 627.745 z" fill="rgb(54,40,23)" transform="translate(0,0)"></path>
<path d="M 1443.91 636.001 C 1443.05 642.917 1433.98 641.352 1431.42 638.577 C 1418.85 624.98 1447.17 613.816 1445.86 632.631 C 1444.53 633.785 1444.58 634.24 1443.91 636.001 z" fill="rgb(250,169,57)" transform="translate(0,0)"></path>
<path d="M 1434.26 633.988 C 1438.72 632.834 1441.32 633.251 1445.86 632.631 C 1444.53 633.785 1444.58 634.24 1443.91 636.001 C 1442.3 635.463 1440.69 635.183 1439.03 634.837 C 1437.23 634.034 1436.19 634.039 1434.26 633.988 z" fill="rgb(133,89,41)" transform="translate(0,0)"></path>
<path d="M 1434.26 633.988 C 1436.19 634.039 1437.23 634.034 1439.03 634.837 C 1436.74 637.046 1436.55 636.055 1434.26 633.988 z" fill="rgb(43,32,25)" transform="translate(0,0)"></path>
<path d="M 1101.07 621.443 C 1102.08 621.655 1108.52 623.518 1108.37 623.591 C 1119.37 619.247 1118.29 625.845 1119.08 632.525 C 1120.46 644.093 1112.17 641.343 1113.22 636.684 L 1113.33 636.199 C 1113.28 635.596 1113.07 628.98 1112.38 628.529 C 1102.75 622.299 1113.21 646.087 1101.42 639.619 C 1100.47 639.099 1100.93 623.977 1101.07 621.443 z" fill="rgb(250,169,57)" transform="translate(0,0)"></path>
<path d="M 1000.53 632.693 C 994.201 620.027 1014.05 619.653 1012.54 626.675 C 1012.52 628.072 1012.56 629.48 1012.59 630.878 C 1018.89 644.017 994.855 643.916 999.716 635.171 C 999.97 634.496 1000.45 633.337 1000.53 632.693 z" fill="rgb(250,169,57)" transform="translate(0,0)"></path>
<path d="M 1012.59 630.878 C 1002.52 627.895 1003.24 627.409 1012.54 626.675 C 1012.52 628.072 1012.56 629.48 1012.59 630.878 z" fill="rgb(43,32,25)" transform="translate(0,0)"></path>
<path d="M 1000.53 632.693 C 1002.12 633.032 1005.47 633.476 1006.69 634.808 C 1007.35 635.522 1005.71 636.099 1005.19 636.118 C 1003.33 636.184 1001.5 635.663 999.716 635.171 C 999.97 634.496 1000.45 633.337 1000.53 632.693 z" fill="rgb(43,32,25)" transform="translate(0,0)"></path>
<path d="M 1191.54 632.479 C 1190.63 630.576 1189.56 628.752 1190.24 626.577 C 1190.75 624.928 1191.88 623.546 1193.4 622.734 C 1196.29 621.167 1205.67 620.571 1203.14 627.085 C 1202.94 627.945 1202.82 628.724 1202.67 629.59 C 1215.89 644.145 1179.5 641.576 1191.97 635.218 C 1191.88 634.422 1191.81 633.194 1191.54 632.479 z" fill="rgb(250,169,57)" transform="translate(0,0)"></path>
<path d="M 1202.67 629.59 C 1193.76 628.171 1194.11 626.162 1203.14 627.085 C 1202.94 627.945 1202.82 628.724 1202.67 629.59 z" fill="rgb(54,40,23)" transform="translate(0,0)"></path>
<path d="M 1191.54 632.479 C 1193.23 632.914 1194.93 633.33 1196.64 633.727 C 1202.62 635.175 1195.97 636.054 1191.97 635.218 C 1191.88 634.422 1191.81 633.194 1191.54 632.479 z" fill="rgb(54,40,23)" transform="translate(0,0)"></path>
<path d="M 940.866 633.744 C 923.621 623.357 953.491 616.682 949.163 627.262 C 948.161 627.914 947.581 628.442 946.691 629.21 C 964.871 639.986 930.546 644.802 936.727 636.385 C 938.12 635.431 939.356 634.509 940.866 633.744 z" fill="rgb(250,169,57)" transform="translate(0,0)"></path>
<path d="M 946.691 629.21 C 945.058 629.229 943.991 629.32 942.438 628.862 L 942.135 627.893 L 941.591 628.21 C 941.497 626.134 947.647 627.188 949.163 627.262 C 948.161 627.914 947.581 628.442 946.691 629.21 z" fill="rgb(54,40,23)" transform="translate(0,0)"></path>
<path d="M 940.866 633.744 C 941.941 633.849 943.065 633.818 943.854 634.593 C 944.341 636.387 937.805 636.295 936.727 636.385 C 938.12 635.431 939.356 634.509 940.866 633.744 z" fill="rgb(54,40,23)" transform="translate(0,0)"></path>
<path d="M 1346.48 631.974 C 1341.51 619.251 1360.88 620.294 1359.15 626.255 C 1357.99 627.349 1357.51 627.978 1356.55 629.191 C 1372.8 643.434 1336.39 643.396 1347.71 635.042 C 1347.39 634.102 1347.01 632.769 1346.48 631.974 z" fill="rgb(250,169,57)" transform="translate(0,0)"></path>
<path d="M 1346.48 631.974 C 1348.48 632.674 1353.29 633.529 1353.95 635.53 C 1353.83 635.712 1353.23 636.233 1353.04 636.407 C 1351.06 636.553 1349.54 635.767 1347.71 635.042 C 1347.39 634.102 1347.01 632.769 1346.48 631.974 z" fill="rgb(43,32,25)" transform="translate(0,0)"></path>
<path d="M 1356.55 629.191 C 1354.31 629.131 1353.9 629.082 1351.84 628.331 C 1351.71 627.993 1351.75 628.191 1351.77 627.718 C 1352.72 626.893 1357.2 626.649 1359.15 626.255 C 1357.99 627.349 1357.51 627.978 1356.55 629.191 z" fill="rgb(54,40,23)" transform="translate(0,0)"></path>
<path d="M 1289.24 631.659 C 1285.57 619.516 1305.41 620.489 1302.09 627.967 L 1301.43 630.891 C 1311.89 643.112 1282.99 644.014 1289.73 635.611 L 1290.66 634.432 C 1290.22 633.472 1289.85 632.51 1289.24 631.659 z" fill="rgb(250,169,57)" transform="translate(0,0)"></path>
<path d="M 1289.24 631.659 C 1289.8 631.891 1301.31 635.361 1295.96 636.586 C 1294.99 636.809 1291.72 635.025 1290.66 634.432 C 1290.22 633.472 1289.85 632.51 1289.24 631.659 z" fill="rgb(43,32,25)" transform="translate(0,0)"></path>
<path d="M 1301.43 630.891 C 1292.98 628.52 1293.65 626.845 1302.09 627.967 L 1301.43 630.891 z" fill="rgb(43,32,25)" transform="translate(0,0)"></path>
<path d="M 1520.79 633.759 C 1512.1 627.688 1516.3 622.055 1525.5 622.143 C 1529.04 622.177 1533.01 625.647 1527.58 627.467 L 1527.15 629.897 C 1541.6 638.142 1516.67 646.864 1516.67 636.226 C 1518.04 635.319 1519.28 634.412 1520.79 633.759 z" fill="rgb(250,169,57)" transform="translate(0,0)"></path>
<path d="M 1520.79 633.759 C 1522.05 633.814 1523 633.706 1524 634.502 C 1524.47 636.633 1518.04 636.161 1516.67 636.226 C 1518.04 635.319 1519.28 634.412 1520.79 633.759 z" fill="rgb(54,40,23)" transform="translate(0,0)"></path>
<path d="M 1527.15 629.897 C 1526.52 629.691 1525.88 629.496 1525.24 629.313 C 1524.48 629.098 1522.7 628.717 1522.68 627.644 C 1523.72 626.43 1526.22 627.255 1527.58 627.467 L 1527.15 629.897 z" fill="rgb(101,66,29)" transform="translate(0,0)"></path>
<path d="M 1318.38 630.092 C 1322.47 632.529 1323.15 635.252 1319.91 638.869 C 1317.27 641.813 1305.09 642.203 1306.42 636.74 C 1307.16 633.744 1314.55 638.325 1314.99 635.396 C 1313.73 632.918 1309.2 634.429 1307.22 630.856 C 1301.77 621.008 1323.84 620.04 1319.21 625.869 C 1318.9 627.265 1318.64 628.686 1318.38 630.092 z" fill="rgb(250,169,57)" transform="translate(0,0)"></path>
<path d="M 1318.38 630.092 C 1317 629.688 1314.44 629.268 1313.59 628.267 C 1313.55 626.917 1317.82 626.306 1319.21 625.869 C 1318.9 627.265 1318.64 628.686 1318.38 630.092 z" fill="rgb(43,32,25)" transform="translate(0,0)"></path>
<path d="M 956.656 618.279 C 961.272 616.73 960.241 618.72 961.377 621.738 C 961.776 622.62 964.282 622.033 964.635 622.427 C 969.111 627.401 960.828 625.835 960.874 629.346 C 960.899 631.222 960.729 634.374 961.565 634.619 C 965.075 635.646 964.953 635.304 967.317 638.359 C 964.496 640.207 962.4 642.212 958.375 640.149 C 951.799 636.778 958.13 628.361 951.744 626.06 C 949.074 625.098 954.475 622.111 955.532 620.273 L 956.656 618.279 z" fill="rgb(250,169,57)" transform="translate(0,0)"></path>
<path d="M 1335.09 613.54 C 1341.73 614.444 1342.02 612.859 1341.95 620.107 C 1341.88 627.057 1341.94 634.116 1341.92 641.076 C 1334.57 639.703 1335.04 641.271 1335.06 633.203 C 1335.08 626.695 1335.06 620.055 1335.09 613.54 z" fill="rgb(247,154,52)" transform="translate(0,0)"></path>
<path d="M 988.834 613.602 C 995.257 614.295 995.248 612.759 995.197 619.72 C 995.144 626.748 995.216 633.847 995.232 640.881 C 987.15 639.623 989.101 640.704 988.899 631.921 C 988.759 625.842 988.839 619.685 988.834 613.602 z" fill="rgb(250,169,57)" transform="translate(0,0)"></path>
<path d="M 2025 194.176 C 2026.65 194.194 2035.56 193.929 2035.68 195.124 C 2036.1 199.22 2031.36 210.815 2030 214.403 C 2025.9 226.751 2025.01 195.317 2025 194.176 z" fill="rgb(247,154,52)" transform="translate(0,0)"></path>
<path d="M 1179.97 613.448 C 1186.88 614.328 1186.12 613.107 1186.12 620.34 C 1186.11 627.038 1186.11 633.805 1186.09 640.507 C 1185.11 640.376 1180.55 640.085 1180.44 639.436 C 1179.45 633.468 1179.94 619.113 1179.97 613.448 z" fill="rgb(250,169,57)" transform="translate(0,0)"></path>
<path d="M 350.002 668.006 C 354.06 670.483 358.102 673.662 362.23 676.334 C 361.03 680.064 360.047 681.925 359.116 685.986 C 356.169 685.686 350.717 682.198 347.414 680.608 C 348.235 676.501 349.121 672.08 350.002 668.006 z" fill="rgb(15,166,190)" transform="translate(0,0)"></path>
<path d="M 900.324 621.384 C 901.53 621.637 905.537 621.958 905.911 623.01 C 906.848 625.644 907.586 623.329 908.79 622.703 C 913.261 620.379 914.094 626.246 909.965 627.849 C 908.027 628.602 907.381 628.845 906.736 630.852 C 906.728 631.407 909.003 644.045 900.276 639.769 C 899.443 639.361 900.142 624.345 900.324 621.384 z" fill="rgb(250,169,57)" transform="translate(0,0)"></path>
<path d="M 1145.24 621.523 C 1147.96 622.096 1149.16 622.233 1151.62 623.704 C 1152.71 624.147 1156.41 620.623 1157.07 623.402 C 1158.63 630.048 1151.59 625.337 1151.35 630.977 C 1151.33 631.549 1152.83 644.783 1145.45 639.297 C 1144.31 638.448 1144.97 624.164 1145.24 621.523 z" fill="rgb(250,169,57)" transform="translate(0,0)"></path>
<path d="M 239.666 595.579 C 235.567 600.9 231.267 606.161 227.097 611.459 C 222.129 612.118 218.968 612.561 213.985 613.497 L 213.024 610.655 C 222.18 605.653 229.976 600.684 239.666 595.579 z" fill="rgb(15,166,190)" transform="translate(0,0)"></path>
<path d="M 1091.87 620.193 C 1092.87 620.673 1094.04 620.638 1095 620.098 C 1095.71 621.377 1095.72 621.515 1096.63 622.666 C 1096.7 624.618 1097.36 638.798 1096.23 639.556 C 1087.49 645.44 1089.88 627.848 1090.3 622.38 C 1090.93 621.396 1091.09 621.029 1091.87 620.193 z" fill="rgb(250,169,57)" transform="translate(0,0)"></path>
<path d="M 1091.87 620.193 C 1092.87 620.673 1094.04 620.638 1095 620.098 C 1095.71 621.377 1095.72 621.515 1096.63 622.666 L 1090.3 622.38 C 1090.93 621.396 1091.09 621.029 1091.87 620.193 z" fill="rgb(54,40,23)" transform="translate(0,0)"></path>
<path d="M 1326.01 619.863 C 1327.17 620.815 1328.82 620.843 1330.01 619.929 C 1330.7 621.157 1330.84 621.677 1331.3 622.988 C 1331.2 625.209 1331.44 639.225 1330.7 639.706 C 1322.36 645.145 1324.68 628.368 1324.77 622.917 L 1326.01 619.863 z" fill="rgb(250,169,57)" transform="translate(0,0)"></path>
<path d="M 1326.01 619.863 C 1327.17 620.815 1328.82 620.843 1330.01 619.929 C 1330.7 621.157 1330.84 621.677 1331.3 622.988 C 1329.12 622.976 1326.94 622.952 1324.77 622.917 L 1326.01 619.863 z" fill="rgb(43,32,25)" transform="translate(0,0)"></path>
<path d="M 204.978 376.589 C 202.648 375.295 187.174 365.921 186.744 364.606 C 195.214 357.023 201.062 368.041 205.86 373.772 C 206.01 375.279 205.885 375.223 204.978 376.589 z" fill="rgb(15,166,190)" transform="translate(0,0)"></path>
<path d="M 1032.28 624.559 C 1034.67 623.983 1037.12 625.32 1037.92 627.648 C 1038.73 629.976 1037.64 632.535 1035.4 633.565 C 1033.74 634.326 1031.8 634.082 1030.38 632.934 C 1028.97 631.786 1028.32 629.934 1028.73 628.157 C 1029.13 626.379 1030.51 624.984 1032.28 624.559 z" fill="rgb(250,169,57)" transform="translate(0,0)"></path>
<path d="M 1223.73 624.359 C 1225.45 623.847 1227.3 624.342 1228.54 625.639 C 1229.77 626.936 1230.17 628.816 1229.57 630.502 C 1228.97 632.189 1227.48 633.397 1225.71 633.629 C 1223.25 633.949 1220.96 632.328 1220.44 629.904 C 1219.92 627.481 1221.36 625.067 1223.73 624.359 z" fill="rgb(250,169,57)" transform="translate(0,0)"></path>
<path d="M 1378.19 625.544 C 1379.59 624.676 1381.34 624.626 1382.79 625.415 C 1384.23 626.203 1385.14 627.707 1385.16 629.352 C 1385.19 630.997 1384.33 632.528 1382.91 633.36 C 1380.75 634.624 1377.98 633.921 1376.69 631.782 C 1375.4 629.643 1376.07 626.863 1378.19 625.544 z" fill="rgb(250,169,57)" transform="translate(0,0)"></path>
<path d="M 182.975 345.889 C 185.698 348.453 192.13 356.876 193.374 360.441 C 185.491 360.701 184.368 353.222 182.975 345.889 z" fill="rgb(239,239,237)" transform="translate(0,0)"></path>
<path d="M 1091.87 620.193 C 1090.45 619.514 1089.69 617.956 1090.01 616.422 C 1090.34 614.887 1091.67 613.774 1093.24 613.726 C 1094.81 613.679 1096.2 614.708 1096.62 616.22 C 1097.04 617.731 1096.37 619.333 1095 620.098 C 1094.04 620.638 1092.87 620.673 1091.87 620.193 z" fill="rgb(250,169,57)" transform="translate(0,0)"></path>
<path d="M 1326.01 619.863 C 1324.96 618.997 1324.58 617.562 1325.05 616.286 C 1325.52 615.01 1326.74 614.17 1328.1 614.192 C 1329.46 614.215 1330.66 615.094 1331.09 616.385 C 1331.52 617.676 1331.09 619.097 1330.01 619.929 C 1328.82 620.843 1327.17 620.815 1326.01 619.863 z" fill="rgb(250,169,57)" transform="translate(0,0)"></path>
<path d="M 504.796 387.607 C 503.853 388.014 497.846 390.637 497.5 389.324 C 497.985 388.171 502.056 386.323 503.393 385.603 L 504.796 387.607 z" fill="rgb(202,202,203)" transform="translate(0,0)"></path>
<path d="M 205.86 373.772 C 206.714 374.516 210.3 377.895 209.492 379.209 C 208.053 379.62 205.915 377.495 204.978 376.589 C 205.885 375.223 206.01 375.279 205.86 373.772 z" fill="rgb(38,151,172)" transform="translate(0,0)"></path>
<path d="M 491.629 620.253 C 490.749 619.739 486.678 617.499 486.836 616.274 C 487.675 615.185 491.656 617.873 492.424 618.413 L 491.629 620.253 z" fill="rgb(156,154,155)" transform="translate(0,0)"></path>
<path d="M 458.683 760.941 C 458.94 762.013 460.056 765.511 459.408 766.422 C 458.524 766.45 457.114 763.182 456.681 762.441 L 458.683 760.941 z" fill="rgb(223,136,46)" transform="translate(0,0)"></path>
<path d="M 213.985 613.497 C 213.196 613.623 208.991 614.568 208.667 613.449 C 209.296 612.335 211.858 611.192 213.024 610.655 L 213.985 613.497 z" fill="rgb(38,151,172)" transform="translate(0,0)"></path>
<path d="M 57.4416 577.563 C 56.7312 577.667 51.5894 578.599 51.3745 577.491 C 51.8894 576.443 54.1867 575.752 55.2855 575.376 L 57.4416 577.563 z" fill="rgb(202,202,203)" transform="translate(0,0)"></path>
<path d="M 1959 571.852 C 1959.04 570.53 1958.91 567.772 1959.8 566.785 C 1959.9 566.777 1960 566.769 1960.1 566.761 C 1960.92 567.501 1960.73 569.178 1960.8 570.163 C 1960.36 570.807 1959.62 571.339 1959 571.852 z" fill="rgb(135,71,38)" transform="translate(0,0)"></path>
<metadata><recraft-signature>{"signed_by": "recraft", "signature_b64": "oGL3CA2nwhl75RZUfJtKG4y3wrFtZXPqEEFsD9WF8f2ucZiJNRaPBYvAqmATnIv9RW74kp94XMnyDl+h6W+EBQ==", "signing_algo": "Ed25519", "generation_timestamp": 1780247676, "identifier": "9d4430bf-51e5-4620-a82f-a98b439ae695"}</recraft-signature></metadata></svg>