<svg xmlns="http://www.w3.org/2000/svg" height="768" preserveAspectRatio="none" style="display: block;" version="1.1" viewBox="0 0 2048 1024" width="1536">
<defs>
	<linearGradient gradientUnits="userSpaceOnUse" id="Gradient1" x1="729.274" x2="865.109" y1="480.022" y2="507.054">
		<stop class="stop0" offset="0" stop-color="rgb(224,183,113)" stop-opacity="1"></stop>
		<stop class="stop1" offset="1" stop-color="rgb(242,214,161)" stop-opacity="1"></stop>
	</linearGradient>
	<linearGradient gradientUnits="userSpaceOnUse" id="Gradient2" x1="1031.59" x2="1196.64" y1="432.183" y2="554.506">
		<stop class="stop0" offset="0" stop-color="rgb(222,178,106)" stop-opacity="1"></stop>
		<stop class="stop1" offset="1" stop-color="rgb(242,213,157)" stop-opacity="1"></stop>
	</linearGradient>
	<linearGradient gradientUnits="userSpaceOnUse" id="Gradient3" x1="1146.14" x2="1340.26" y1="415.009" y2="570.503">
		<stop class="stop0" offset="0" stop-color="rgb(221,176,100)" stop-opacity="1"></stop>
		<stop class="stop1" offset="1" stop-color="rgb(243,216,163)" stop-opacity="1"></stop>
	</linearGradient>
	<linearGradient gradientUnits="userSpaceOnUse" id="Gradient4" x1="98.5392" x2="280.052" y1="450.014" y2="537.508">
		<stop class="stop0" offset="0" stop-color="rgb(189,141,72)" stop-opacity="1"></stop>
		<stop class="stop1" offset="1" stop-color="rgb(233,191,115)" stop-opacity="1"></stop>
	</linearGradient>
</defs>
<path d="M 0 0 L 2048 0 L 2048 1024 L 0 1024 L 0 0 z" fill="rgb(8,12,15)" transform="translate(0,0)"></path>
<path d="M 24.881 202.103 L 2023.35 201.987 L 2023.38 821.931 C 1939.8 820.973 1854.29 821.856 1770.57 821.882 L 1276.59 822.031 L 24.9246 821.998 L 24.881 202.103 z" fill="rgb(217,175,105)" transform="translate(0,0)"></path>
<path d="M 27.224 204.162 L 2020.97 204.21 L 2021.13 666.013 C 2021.13 679.54 2022.21 814.63 2020.28 819.246 L 2018.22 819.73 L 27.4701 819.164 L 27.224 204.162 z" fill="rgb(8,12,15)" transform="translate(0,0)"></path>
<path d="M 138.239 370.998 C 138.196 367.517 137.744 366.323 140.417 363.513 C 151.442 351.92 162.237 340.037 173.287 328.478 C 195.313 305.598 217.126 282.513 238.723 259.227 L 248.017 267.674 C 277.731 299.81 314.121 334.653 341.828 366.839 C 345.283 440.005 349.99 515.614 354.651 588.825 C 356.475 617.291 358.154 645.767 359.689 674.251 C 360.39 686.805 361.767 702.492 361.976 714.756 C 352.383 722.146 312.173 755.39 304.825 758.616 C 303.788 759.393 299.604 762.735 298.913 762.728 C 283.727 762.576 185.587 765.818 178.778 761.558 C 176.913 759.397 174.563 757.738 172.338 755.971 C 154.503 741.807 135.841 728.707 118.275 714.203 C 120.626 686.442 121.982 657.023 123.695 629.081 L 138.239 370.998 z" fill="rgb(8,12,15)" transform="translate(0,0)"></path>
<path d="M 248.017 267.674 C 277.731 299.81 314.121 334.653 341.828 366.839 C 345.283 440.005 349.99 515.614 354.651 588.825 C 356.475 617.291 358.154 645.767 359.689 674.251 C 360.39 686.805 361.767 702.492 361.976 714.756 C 352.383 722.146 312.173 755.39 304.825 758.616 L 300.461 755.707 L 298.306 755.958 L 296.807 758.608 C 297.623 751.005 297.07 730.72 297.068 722.061 L 297.046 647.341 L 297.05 408.965 C 284.771 408.941 187.58 407.883 183.145 409.793 C 183.041 406.947 182.486 406.546 183.998 404.888 C 192.348 387.096 233.601 276.786 239.687 270.539 L 242.131 272.508 C 244.268 269.497 244.657 269.249 248.017 267.674 z" fill="rgb(8,12,15)" transform="translate(0,0)"></path>
<path d="M 248.017 267.674 C 277.731 299.81 314.121 334.653 341.828 366.839 C 345.283 440.005 349.99 515.614 354.651 588.825 C 356.475 617.291 358.154 645.767 359.689 674.251 C 360.39 686.805 361.767 702.492 361.976 714.756 C 352.383 722.146 312.173 755.39 304.825 758.616 L 300.461 755.707 C 306.456 753.883 348.924 719.285 358.067 712.905 C 355.56 680.574 354.424 648.768 352.558 616.462 L 339.328 391.564 C 339.216 384.601 338.831 377.953 338.42 371.003 C 326.543 381.954 312.951 397.082 300.826 408.857 L 301 643.878 L 301.092 715.51 C 301.106 726.44 301.695 745.589 300.461 755.707 L 298.306 755.958 L 296.807 758.608 C 297.623 751.005 297.07 730.72 297.068 722.061 L 297.046 647.341 L 297.05 408.965 C 284.771 408.941 187.58 407.883 183.145 409.793 C 183.041 406.947 182.486 406.546 183.998 404.888 C 192.348 387.096 233.601 276.786 239.687 270.539 L 242.131 272.508 C 244.268 269.497 244.657 269.249 248.017 267.674 z" fill="rgb(217,175,105)" transform="translate(0,0)"></path>
<path d="M 183.998 404.888 C 192.348 387.096 233.601 276.786 239.687 270.539 L 242.131 272.508 C 244.721 283.38 256.91 310.886 261.83 322.658 C 273.458 350.303 284.893 378.03 296.132 405.836 C 270.993 405.067 246.121 405.809 221.035 405.789 C 213.652 405.784 190.12 406.191 183.998 404.888 z" fill="rgb(8,12,15)" transform="translate(0,0)"></path>
<path d="M 251.172 276.542 C 277.465 307.059 311.297 337.162 336.909 367.022 C 324.739 379.389 312.143 392.588 299.362 404.206 C 287.631 374.609 275.591 345.135 263.243 315.79 C 259.456 306.536 250.753 287.2 248.262 279.166 L 251.172 276.542 z" fill="rgb(8,12,15)" transform="translate(0,0)"></path>
<path d="M 248.262 279.166 C 244.936 271.465 245.408 270.65 251.172 276.542 L 248.262 279.166 z" fill="rgb(8,12,15)" transform="translate(0,0)"></path>
<path d="M 138.239 370.998 C 138.196 367.517 137.744 366.323 140.417 363.513 C 151.442 351.92 162.237 340.037 173.287 328.478 C 195.313 305.598 217.126 282.513 238.723 259.227 L 248.017 267.674 C 244.657 269.249 244.268 269.497 242.131 272.508 L 239.687 270.539 C 233.601 276.786 192.348 387.096 183.998 404.888 C 182.486 406.546 183.041 406.947 183.145 409.793 C 183.944 481.049 183.188 553.319 183.208 624.678 L 183.224 691.627 C 183.218 697.582 183.574 717.024 182.919 721.557 C 180.634 731.137 183.473 738.988 179.995 748.866 C 180.436 754.537 180.046 755.94 178.778 761.558 C 176.913 759.397 174.563 757.738 172.338 755.971 C 154.503 741.807 135.841 728.707 118.275 714.203 C 120.626 686.442 121.982 657.023 123.695 629.081 L 138.239 370.998 z" fill="rgb(8,12,15)" transform="translate(0,0)"></path>
<path d="M 138.239 370.998 C 138.196 367.517 137.744 366.323 140.417 363.513 C 151.442 351.92 162.237 340.037 173.287 328.478 C 195.313 305.598 217.126 282.513 238.723 259.227 L 248.017 267.674 C 244.657 269.249 244.268 269.497 242.131 272.508 L 239.687 270.539 C 233.601 276.786 192.348 387.096 183.998 404.888 C 182.486 406.546 183.041 406.947 183.145 409.793 C 183.944 481.049 183.188 553.319 183.208 624.678 L 183.224 691.627 C 183.218 697.582 183.574 717.024 182.919 721.557 C 180.634 731.137 183.473 738.988 179.995 748.866 L 179.462 749.009 L 179.564 409 C 168.31 396.825 153.031 382.636 140.971 370.32 C 140.924 377.406 141.075 385.45 140.086 392.383 C 139.201 386.469 140.445 374.795 138.239 370.998 z" fill="url(#Gradient4)" transform="translate(0,0)"></path>
<path d="M 233.613 271.054 C 233.542 274.689 185.958 390.655 180.518 404.226 C 174.822 398.354 168.682 392.634 162.75 386.975 C 156.052 380.339 149.313 373.232 142.707 366.46 C 171.605 335.844 203.935 300.516 233.613 271.054 z" fill="rgb(8,12,15)" transform="translate(0,0)"></path>
<path d="M 138.239 370.998 C 140.445 374.795 139.201 386.469 140.086 392.383 C 139.804 421.603 136.539 452.54 135.416 481.845 C 132.479 558.512 125.305 636.162 122.833 712.662 C 130.241 718.404 173.482 753.249 178.524 755.249 C 179.265 752.489 179.41 751.858 179.462 749.009 L 179.995 748.866 C 180.436 754.537 180.046 755.94 178.778 761.558 C 176.913 759.397 174.563 757.738 172.338 755.971 C 154.503 741.807 135.841 728.707 118.275 714.203 C 120.626 686.442 121.982 657.023 123.695 629.081 L 138.239 370.998 z" fill="rgb(217,175,105)" transform="translate(0,0)"></path>
<path d="M 179.995 748.866 C 183.473 738.988 180.634 731.137 182.919 721.557 C 183.108 734.237 183.218 746.919 183.251 759.601 L 260.321 759.528 C 266.55 759.519 292.31 759.859 296.807 758.608 L 298.306 755.958 L 300.461 755.707 L 304.825 758.616 C 303.788 759.393 299.604 762.735 298.913 762.728 C 283.727 762.576 185.587 765.818 178.778 761.558 C 180.046 755.94 180.436 754.537 179.995 748.866 z" fill="rgb(236,202,142)" transform="translate(0,0)"></path>
<path d="M 1808.59 258.644 C 1831.08 281.829 1853.25 305.003 1875.13 328.793 C 1886.42 341.07 1898.48 352.595 1909.7 365.027 C 1910.81 393.805 1913.62 424.781 1915.21 454.013 C 1919.88 540.82 1925.02 627.6 1930.64 714.35 C 1911.91 727.326 1886.26 748.692 1867.71 763.19 C 1848.59 763.55 1828.68 763.304 1809.5 763.345 C 1789.61 763.459 1769.72 763.359 1749.83 763.046 C 1730.66 746.664 1706.58 731.726 1687.17 714.212 C 1688.96 695.006 1689.63 671.124 1690.72 651.547 L 1697.16 540.55 L 1702.8 439.182 C 1704.26 415.812 1706.57 389.463 1707.15 366.349 C 1740.62 330.127 1774.43 294.224 1808.59 258.644 z" fill="rgb(217,175,105)" transform="translate(0,0)"></path>
<path d="M 1751.9 408.944 C 1789.59 408.708 1827.28 408.852 1864.96 409.377 C 1865.54 496.319 1865.62 583.263 1865.19 670.206 C 1865.18 684.836 1867.06 749.451 1864.47 759.5 C 1827 759.676 1789.53 759.521 1752.06 759.035 C 1750.08 643.488 1752.14 524.694 1751.9 408.944 z" fill="rgb(234,234,233)" transform="translate(0,0)"></path>
<path d="M 1905.66 371.87 C 1908.82 375.483 1919.58 590.331 1920.87 611.994 C 1922.03 631.561 1927.18 692.213 1927.17 712.209 C 1917.55 720.647 1893.88 737.526 1882.29 746.547 C 1877.93 749.74 1873.35 753.436 1869.05 756.779 L 1869.16 408.706 C 1879.97 396.465 1893.83 383.062 1905.66 371.87 z" fill="rgb(234,234,233)" transform="translate(0,0)"></path>
<path d="M 1710.33 372.601 C 1717.69 376.802 1739.24 400.535 1747.99 408.364 C 1747.21 471.726 1748.26 536.751 1748.51 600.213 L 1748.01 755.774 C 1744.85 753.756 1741.46 751.286 1738.35 749.12 C 1725.32 739.736 1702.37 722.673 1690.62 712.395 L 1710.33 372.601 z" fill="rgb(234,234,233)" transform="translate(0,0)"></path>
<path d="M 1809.1 267.638 C 1813.05 275.647 1821.18 298.568 1824.97 308.137 C 1837.63 340.548 1850.57 372.853 1863.77 405.047 C 1845.82 405.137 1827.62 405.594 1809.65 405.89 C 1791.09 406.163 1771.54 405.451 1752.9 405.044 C 1761.89 387.402 1769.55 365.966 1777.09 347.432 C 1787.83 321.051 1799.19 294.301 1809.1 267.638 z" fill="rgb(234,234,233)" transform="translate(0,0)"></path>
<path d="M 1803.66 270.04 C 1802.54 275.29 1790.69 302.859 1788 309.508 C 1775.46 341.131 1762.64 372.645 1749.55 404.044 L 1731.06 385.5 C 1724.23 378.614 1719.13 373.587 1711.62 367.319 C 1730.73 347.82 1749.53 328.015 1768 307.912 C 1778.43 296.53 1792.36 280.247 1803.66 270.04 z" fill="rgb(234,234,233)" transform="translate(0,0)"></path>
<path d="M 1816 272.675 C 1820.15 275.106 1848.71 306.728 1854.66 313.11 L 1904.85 366.18 C 1899.21 372.433 1891.76 379.579 1885.74 385.669 C 1879.7 392.142 1873.56 398.518 1867.32 404.792 C 1857.19 374.514 1841.73 341.488 1830.56 311.148 C 1826.55 300.26 1818.6 283.362 1816 272.675 z" fill="rgb(234,234,233)" transform="translate(0,0)"></path>
<path d="M 661.383 356.137 C 686.931 353.794 714.532 366.248 722.129 392.077 C 723.736 397.731 724.742 403.538 725.133 409.402 C 726.749 434.427 724.951 467.131 725.526 493.355 C 725.292 523.074 726.374 552.963 724.767 582.637 C 723.393 608.025 705.684 624.191 682.895 630.865 C 668.697 634.033 653.498 631.874 640.974 624.088 C 611.986 606.065 615.937 576.15 615.866 546.097 L 615.783 486.197 C 615.763 461.827 615.809 437.398 615.896 413.036 C 616.004 382.712 631.436 362.549 661.383 356.137 z" fill="rgb(217,175,105)" transform="translate(0,0)"></path>
<path d="M 666.346 390.034 C 670.704 389.83 674.544 389.916 678.613 391.661 C 683.775 393.875 687.82 397.804 689.694 403.178 C 692.681 411.744 691.779 556.016 690.89 575.17 C 690.732 578.573 690.585 582.363 689.131 585.491 C 686.167 591.87 680.932 594.524 674.623 596.884 C 670.97 597.043 667.535 597.068 664.043 595.84 C 658.92 594.037 654.536 590.778 652.262 585.737 C 649.011 578.532 649.162 427.562 650.014 410.21 C 650.145 407.529 650.596 404.957 651.581 402.45 C 654.332 395.447 659.808 392.784 666.346 390.034 z" fill="rgb(8,12,15)" transform="translate(0,0)"></path>
<path d="M 1363.15 356.196 C 1377.64 354.797 1388.67 356.609 1401.34 364.316 C 1430.06 381.792 1425.9 414.746 1425.88 444.073 L 1425.92 499.472 C 1425.95 524.221 1425.94 549.088 1425.88 573.828 C 1425.81 604.894 1411.11 624.786 1380.34 631.641 C 1365.52 632.762 1354.53 631.536 1341.39 623.555 C 1314.15 607.016 1317.51 576.567 1317.37 548.735 L 1317.16 488.285 C 1317.1 463.36 1317.05 438.382 1317.16 413.463 C 1317.3 382.582 1332.78 362.662 1363.15 356.196 z" fill="rgb(236,202,142)" transform="translate(0,0)"></path>
<path d="M 1368.59 390.035 C 1372.19 389.922 1375.44 390.164 1378.86 391.391 C 1384.33 393.347 1388.22 397.313 1390.4 402.652 C 1393.64 410.576 1392.93 578.71 1390.07 585.304 C 1387.22 591.881 1381.26 594.699 1374.92 597.023 C 1370.79 597.177 1367.14 597.173 1363.27 595.573 C 1358.92 593.776 1354.73 590.588 1353.03 586.037 C 1349.51 576.586 1350.15 427.36 1351.5 408.374 C 1351.69 405.748 1352.13 403.403 1353.34 401.042 C 1356.59 394.716 1362.09 392.067 1368.59 390.035 z" fill="rgb(8,12,15)" transform="translate(0,0)"></path>
<path d="M 489.895 356.681 C 526.79 357.025 585.399 346.269 596.674 395.338 C 599.467 407.49 598.656 423.476 598.615 436.249 C 598.528 463.053 603.035 485.891 579.818 505.082 C 597.005 518.482 599.294 533.375 598.856 553.954 C 598.277 581.158 598.197 604.413 604.998 630.948 L 571.457 630.788 C 565.33 613.883 564.945 595.25 564.921 577.5 C 564.787 563.44 568.652 534.718 558.399 524.545 C 550.391 516.6 534.78 518.117 524.044 518.482 L 524.094 630.801 L 490.068 630.357 L 489.895 356.681 z" fill="rgb(217,175,105)" transform="translate(0,0)"></path>
<path d="M 524.127 390.565 C 567.199 389.823 564.947 395.089 565.091 437.597 C 565.136 450.927 567.22 468.068 559.749 479.186 C 550.675 487.303 536.469 484.909 524.228 484.639 L 524.127 390.565 z" fill="rgb(8,12,15)" transform="translate(0,0)"></path>
<path d="M 1445.25 356.91 L 1480.15 356.81 C 1501.62 356.785 1521.2 355.346 1537.96 372.087 C 1555.53 389.644 1552.93 413.048 1552.78 435.783 L 1552.84 470.916 C 1552.76 488.954 1551.53 505.215 1537.54 518.827 C 1520.6 535.319 1500.56 533.356 1479.12 533.021 L 1479.1 556.137 L 1479.3 630.931 L 1445.55 630.732 C 1445.95 539.458 1445.85 448.182 1445.25 356.91 z" fill="rgb(217,175,105)" transform="translate(0,0)"></path>
<path d="M 1479.12 390.406 C 1506.03 389.641 1520.93 386.825 1519.88 420.27 C 1519.19 442.159 1520.92 465.267 1518.51 487.172 C 1518.27 489.334 1515.91 492.587 1514.66 494.315 C 1505.72 501.147 1490.69 499.314 1479.25 499.108 C 1479.01 462.874 1478.97 426.64 1479.12 390.406 z" fill="rgb(8,12,15)" transform="translate(0,0)"></path>
<path d="M 1189.99 356.782 L 1223.99 356.87 L 1224.18 471.394 L 1263.18 471.594 L 1263.2 356.822 L 1297.21 356.931 L 1297.18 552.912 L 1297.27 604.453 C 1297.28 609.657 1297.67 625.029 1296.68 629.44 C 1294.22 631.329 1292.92 630.637 1289.18 630.663 L 1263.13 630.685 L 1263.12 506.03 L 1224.07 505.996 L 1224.12 630.869 L 1190.06 630.936 L 1189.99 356.782 z" fill="url(#Gradient3)" transform="translate(0,0)"></path>
<path d="M 942.884 356.841 L 976.997 356.915 L 977.187 416.266 C 977.35 448.538 982.161 474.739 950.232 493.954 C 955.296 496.61 958.947 498.374 963.063 502.533 C 969.168 508.64 973.487 516.3 975.553 524.685 C 978.395 535.952 977.241 592.483 977.231 608.071 L 977.227 630.858 L 942.989 630.891 L 943.194 541.914 C 943.043 512.087 927.239 509.818 902.533 510.096 L 902.785 630.936 L 868.471 630.878 C 867.851 600.967 868.407 569.085 868.392 539.025 L 868.323 356.915 L 902.332 356.932 L 902.709 475.62 C 905.418 475.679 908.128 475.72 910.837 475.743 C 948.082 475.935 943.134 447.431 943.059 420.596 L 942.884 356.841 z" fill="rgb(236,202,142)" transform="translate(0,0)"></path>
<path d="M 1104.07 356.218 C 1122.1 354.413 1138.96 357.119 1152.53 370.564 C 1171.5 389.368 1169.19 412.561 1169.05 437.011 L 1135.11 436.949 C 1134.68 414.13 1141.93 396.422 1114.91 389.484 C 1113.8 389.753 1112.69 390.035 1111.59 390.328 C 1106.78 391.604 1099.19 394.686 1097.33 399.405 C 1093.57 408.179 1091.93 455.859 1096.02 462.762 C 1109.47 485.436 1156.34 467.253 1165.95 511.041 C 1169.92 523.554 1168.77 535.826 1169.06 548.754 C 1169.9 587.116 1170.09 617.925 1126.38 631.149 C 1107.65 633.915 1090.35 631.074 1076.26 617.033 C 1057.53 598.371 1060.32 575.121 1060.41 550.989 L 1094.91 550.962 C 1094.9 564.179 1090.95 585.787 1103.4 593.991 C 1107.93 596.934 1113.46 597.938 1118.73 596.777 C 1143.82 591.432 1133.84 543.183 1133.62 523.93 C 1133.41 506.172 1096.47 511.574 1084.46 501.892 C 1074.98 494.253 1064.69 486.197 1062.13 471.067 C 1059.82 426.681 1048.39 369.647 1104.07 356.218 z" fill="url(#Gradient2)" transform="translate(0,0)"></path>
<path d="M 789.594 356.187 C 791.726 356.015 793.863 355.921 796.002 355.907 C 811.474 355.928 824.879 360.641 836.191 371.686 C 856.016 391.042 852.154 419.84 851.87 445.928 L 818.101 445.59 C 817.974 427.735 824.587 392.087 798.935 390.195 C 793.517 389.785 788.168 391.611 784.132 395.247 C 778.724 400.158 777.344 406.417 777.334 413.394 C 777.287 446.499 777.532 479.295 777.548 512.448 C 777.826 535.141 776.693 558.26 777.808 580.904 C 778.991 595.217 801.663 603.126 811.256 592.664 C 820.213 582.896 818.233 565.025 818.085 552.5 L 818.08 534.545 C 829.573 534.198 840.796 534.386 852.283 534.535 C 852.163 558.009 856.077 588.933 842.857 608.893 C 826.456 633.657 790.414 638.996 766.205 622.618 C 739.049 604.247 742.989 576.403 742.967 548.005 L 742.958 490.279 L 743.007 437.391 C 743.063 398.653 742.303 365.078 789.594 356.187 z" fill="url(#Gradient1)" transform="translate(0,0)"></path>
<path d="M 818.838 655.856 C 820.863 667.296 823.237 679.179 824.562 690.555 C 824.69 691.647 820.379 691.557 820.044 690.042 C 818.858 684.68 817.884 677.807 816.864 672.459 C 813.303 679.607 810.312 685.778 807.199 693.11 C 803.256 684.069 802.437 681.045 797.612 672.303 C 796.421 677.344 795.588 691.722 790.878 692.063 C 790.209 691.497 789.094 690.408 789.221 689.522 C 790.581 680.105 793.731 665.937 796.008 657.178 C 798.558 662.488 800.708 667.795 803.163 672.931 C 806.666 671.363 807.991 671.806 811.864 671.984 C 814.258 666.645 816.409 661.27 818.838 655.856 z" fill="rgb(236,202,142)" transform="translate(0,0)"></path>
<path d="M 803.163 672.931 C 806.666 671.363 807.991 671.806 811.864 671.984 C 807.23 682.62 808.035 683.134 803.163 672.931 z" fill="rgb(8,12,15)" transform="translate(0,0)"></path>
<path d="M 1477.04 654.521 C 1477.77 654.779 1480.36 655.629 1480.43 656.15 C 1481.5 666.855 1480.75 677.563 1480.92 688.57 C 1481.03 695.809 1475.3 687.731 1473.62 690.608 C 1472.62 692.331 1467.33 691.951 1465.42 691.833 C 1459.27 686.671 1456.32 681.935 1460.99 674.009 C 1465.4 666.513 1474.57 671.735 1475.39 671.578 C 1475.3 671.674 1475.98 657.599 1477.04 654.521 z" fill="rgb(236,202,142)" transform="translate(0,0)"></path>
<path d="M 1467.53 674.794 C 1470.82 673.53 1474.52 675.13 1475.85 678.394 C 1477.18 681.657 1475.66 685.386 1472.42 686.783 C 1470.27 687.712 1467.78 687.405 1465.92 685.98 C 1464.06 684.555 1463.11 682.234 1463.44 679.914 C 1463.78 677.593 1465.34 675.634 1467.53 674.794 z" fill="rgb(8,12,15)" transform="translate(0,0)"></path>
<path d="M 651.089 669.826 C 654.583 669.956 656.406 669.899 659.594 671.559 C 659.948 671.349 665.814 669.588 665.469 671.636 C 664.314 678.491 671.297 695.51 659.469 689.687 C 645.904 697.304 636.456 680.379 651.089 669.826 z" fill="rgb(217,175,105)" transform="translate(0,0)"></path>
<path d="M 653 674.77 C 656.193 673.865 659.544 675.57 660.694 678.683 C 661.843 681.796 660.404 685.269 657.39 686.657 C 655.22 687.656 652.674 687.354 650.798 685.875 C 648.922 684.397 648.033 681.991 648.498 679.648 C 648.963 677.305 650.702 675.42 653 674.77 z" fill="rgb(8,12,15)" transform="translate(0,0)"></path>
<path d="M 1359.03 659.12 C 1362.75 659.088 1373.88 659.317 1374.52 663.279 C 1375.69 670.424 1366.1 661.989 1359.77 664.457 C 1344.36 670.459 1355.52 692.629 1367.54 686.17 C 1378.1 680.496 1371.59 679.401 1365.2 678.362 C 1367.13 673.967 1371.89 674.04 1376.04 675.047 C 1382.23 676.55 1376.17 687.72 1370.51 690.037 C 1349.57 698.611 1335.43 669.517 1359.03 659.12 z" fill="rgb(236,202,142)" transform="translate(0,0)"></path>
<path d="M 956.107 669.792 C 959.572 670.121 961.253 670.55 964.429 671.887 C 964.517 671.924 969.508 669.371 969.783 671.638 C 970.471 677.638 970.308 684.405 969.928 690.434 C 969.811 692.29 965.288 690.582 964.337 690.592 C 961.727 691.465 959.797 692.311 957.01 691.822 C 954.06 691.274 951.47 689.527 949.856 686.998 C 945.086 679.415 949.812 673.786 956.107 669.792 z" fill="rgb(236,202,142)" transform="translate(0,0)"></path>
<path d="M 957.541 674.675 C 960.875 673.708 964.373 675.575 965.426 678.883 C 966.48 682.192 964.705 685.737 961.425 686.876 C 959.226 687.64 956.785 687.151 955.051 685.598 C 953.317 684.045 952.562 681.673 953.079 679.403 C 953.596 677.133 955.305 675.323 957.541 674.675 z" fill="rgb(8,12,15)" transform="translate(0,0)"></path>
<path d="M 1137.2 670.487 C 1142.98 669.02 1148.87 672.487 1150.39 678.257 C 1151.92 684.027 1148.51 689.948 1142.76 691.529 C 1136.92 693.133 1130.9 689.666 1129.35 683.814 C 1127.81 677.962 1131.33 671.974 1137.2 670.487 z" fill="rgb(236,202,142)" transform="translate(0,0)"></path>
<path d="M 1138.59 674.781 C 1141.89 674.12 1145.11 676.192 1145.88 679.466 C 1146.66 682.739 1144.69 686.035 1141.45 686.916 C 1139.25 687.513 1136.9 686.863 1135.32 685.222 C 1133.74 683.58 1133.18 681.208 1133.86 679.034 C 1134.54 676.859 1136.35 675.229 1138.59 674.781 z" fill="rgb(8,12,15)" transform="translate(0,0)"></path>
<path d="M 1432.54 670.506 C 1436.32 669.261 1440.48 670.183 1443.38 672.909 C 1446.28 675.634 1447.45 679.728 1446.44 683.577 C 1445.43 687.426 1442.4 690.414 1438.54 691.366 C 1432.87 692.761 1427.11 689.428 1425.5 683.82 C 1423.89 678.211 1427 672.331 1432.54 670.506 z" fill="rgb(236,202,142)" transform="translate(0,0)"></path>
<path d="M 1434.96 674.756 C 1438.25 674.197 1441.4 676.346 1442.07 679.618 C 1442.74 682.889 1440.7 686.105 1437.46 686.89 C 1435.25 687.423 1432.94 686.712 1431.41 685.036 C 1429.89 683.36 1429.4 680.987 1430.14 678.845 C 1430.88 676.704 1432.73 675.136 1434.96 674.756 z" fill="rgb(8,12,15)" transform="translate(0,0)"></path>
<path d="M 508.02 659.128 C 509.241 659.023 526.093 657.564 522.84 664.661 C 521.746 667.046 516.058 662.375 509.547 664.226 C 506.765 665.02 504.469 666.989 503.26 669.617 C 499.055 678.716 506.091 690.017 515.433 686.528 C 516.733 686.086 518.765 685.054 520.059 685.063 C 522.882 685.241 523.623 688.309 521.01 689.719 C 513.016 694.034 502.825 691.423 498.411 683.369 C 496.362 679.631 496.052 673.702 497.301 669.583 C 499.041 663.843 503.031 661.657 508.02 659.128 z" fill="rgb(217,175,105)" transform="translate(0,0)"></path>
<path d="M 1400.15 669.963 C 1410.27 670.817 1419.71 679.939 1407.26 681.5 C 1393.17 683.267 1395.27 689.98 1407.68 686.429 C 1408.42 687.253 1410.67 689.499 1408.57 690.401 C 1393.35 696.966 1382.4 678.478 1400.15 669.963 z" fill="rgb(236,202,142)" transform="translate(0,0)"></path>
<path d="M 1398.26 674.566 C 1399.72 674.592 1409.63 674.626 1405.53 678.381 C 1398.58 679.67 1395.42 682.462 1398.26 674.566 z" fill="rgb(8,12,15)" transform="translate(0,0)"></path>
<path d="M 898.096 669.889 C 903.689 670.032 911.657 671.208 911.429 679.846 C 911.334 683.449 898.862 681.055 897.716 685.273 C 898.553 688.236 903.423 687.578 905.691 687.516 C 915.272 687.15 899.247 697.123 893.42 688.197 C 887.896 679.735 890.872 675.388 898.096 669.889 z" fill="rgb(236,202,142)" transform="translate(0,0)"></path>
<path d="M 899.063 673.617 C 904.755 674.532 910.183 678.88 902.739 678.751 C 895.504 680.919 893.289 681.729 899.063 673.617 z" fill="rgb(8,12,15)" transform="translate(0,0)"></path>
<path d="M 1095.67 659.003 C 1099.15 658.996 1119.39 656.74 1116.98 662.591 C 1114.05 664.955 1102.32 661.507 1101.28 664.567 C 1097.04 676.949 1110.57 671.766 1116.24 674.459 C 1112.49 679.06 1107.07 677.31 1100.98 677.48 C 1100.97 681.542 1101.39 686.461 1100.6 690.376 C 1100.39 691.402 1096.38 691.171 1096.32 690.562 C 1095.27 680.62 1095.69 669.07 1095.67 659.003 z" fill="rgb(236,202,142)" transform="translate(0,0)"></path>
<path d="M 1500.14 684.57 C 1504.21 688.27 1504.31 687.93 1509.43 686.528 C 1512.54 685.675 1516.17 691.385 1507.01 691.748 C 1495.43 692.207 1491.58 680.566 1498.97 672.917 C 1502.88 668.865 1511.38 669.427 1514.43 674.247 C 1516.44 677.266 1517.14 678.923 1513.97 680.975 C 1509.12 682.551 1505.56 682.582 1500.14 684.57 z" fill="rgb(236,202,142)" transform="translate(0,0)"></path>
<path d="M 1510.87 676.033 C 1513.8 678.833 1511.12 678.203 1513.97 680.975 C 1509.12 682.551 1505.56 682.582 1500.14 684.57 C 1500.44 683.155 1500.75 681.783 1501.01 680.357 C 1504.47 679.776 1510.02 679.791 1510.87 676.033 z" fill="rgb(236,202,142)" transform="translate(0,0)"></path>
<path d="M 1501.01 680.357 C 1499.48 673.138 1506.24 673.789 1510.87 676.033 C 1510.02 679.791 1504.47 679.776 1501.01 680.357 z" fill="rgb(8,12,15)" transform="translate(0,0)"></path>
<path d="M 570.629 685.091 C 571.258 683.416 576.36 664.242 580.697 671.016 C 581.058 671.58 575.601 683.84 574.418 686.751 C 573.417 688.972 569.052 700.238 568.397 700.478 C 560.22 703.481 567.173 692.074 567.911 690.401 C 566.121 686.342 559.743 672.987 559.158 669.82 C 566.778 670.616 567.416 677.995 570.629 685.091 z" fill="rgb(217,175,105)" transform="translate(0,0)"></path>
<path d="M 870.544 669.765 C 879.095 672.092 876.872 676.344 877.342 683.734 C 877.295 684.602 877.623 690.337 876.734 690.673 C 867.977 693.981 875.396 678.576 870.996 675.854 C 869.107 674.686 866.41 675.607 864.435 675.964 C 862.436 680.988 862.83 683.776 863.05 689.109 C 863.155 691.636 858.483 691.974 858.341 690.309 C 857.927 684.614 857.456 677.432 858.449 671.827 C 858.977 668.844 863.572 672.89 863.664 672.935 C 864.398 672.869 869.418 670.276 870.544 669.765 z" fill="rgb(236,202,142)" transform="translate(0,0)"></path>
<path d="M 702.547 669.887 C 704.499 669.975 715.9 669.7 712.694 674.826 C 711.239 677.153 705.172 671.788 704.167 675.73 C 704.134 679.433 712.527 678.944 713.815 682.593 C 716.026 688.859 712.83 690.13 707.359 692.225 C 704.069 691.586 698.621 691.394 698.285 687.402 C 698.734 686.903 698.532 686.961 699.592 686.174 C 701.392 684.838 709.445 690.24 709.602 685.364 C 709.677 683.008 703.348 682.411 701.282 680.642 C 696.646 676.669 699.212 673.518 702.547 669.887 z" fill="rgb(217,175,105)" transform="translate(0,0)"></path>
<path d="M 1167.03 669.939 C 1168.68 669.953 1182.39 670.158 1176.42 675.325 C 1174.63 676.87 1172.63 672.19 1167.73 675.081 L 1167.58 675.901 C 1169.76 679.965 1186.72 680.037 1174.69 691.884 C 1172.59 691.871 1170.55 691.864 1168.49 691.783 C 1167.15 691.73 1161.26 689.777 1162.99 687.809 C 1166.26 684.079 1167.34 689.684 1173.98 687.018 L 1174.35 685.731 C 1171.64 680.683 1155.43 682.808 1167.03 669.939 z" fill="rgb(236,202,142)" transform="translate(0,0)"></path>
<path d="M 1533.56 669.746 C 1535.34 669.908 1543.33 670.051 1542.76 673.477 C 1541.88 678.711 1535.11 671.258 1533.82 675.886 C 1534.68 678.657 1554.4 683.666 1538.52 692.069 C 1535.96 691.873 1530.54 691.956 1528.82 689.503 C 1528.18 688.589 1528.48 687.379 1529.57 686.925 C 1532.3 685.793 1534.81 688.85 1537.85 687.402 C 1539.06 686.821 1538.84 687.231 1539.33 686.19 C 1537.78 681.636 1520.43 681.01 1533.56 669.746 z" fill="rgb(236,202,142)" transform="translate(0,0)"></path>
<path d="M 1007.57 669.846 C 1008.6 669.898 1022.19 670.125 1016.82 675.047 C 1014.95 676.751 1012.66 672.481 1008.45 675.387 C 1009.09 679.825 1027.89 681.849 1013.68 692.386 C 1011.21 692.154 1006.17 692.087 1004.46 690.091 C 1003.92 689.463 1003.71 688.613 1003.91 687.806 C 1004.89 683.564 1010.86 690.393 1013.88 686.563 C 1012.69 680.931 996.426 683.021 1007.57 669.846 z" fill="rgb(236,202,142)" transform="translate(0,0)"></path>
<path d="M 1194.77 669.835 C 1196.2 669.917 1208.1 670.35 1203.98 674.683 C 1202.07 676.7 1198.69 672.27 1195.56 675.123 C 1195.72 679.084 1215.85 682.571 1200.53 692.234 C 1197.99 692.068 1189.24 692.187 1190.02 687.861 C 1193.9 685.019 1199.27 690.225 1200.82 686.927 C 1203.55 681.119 1182.07 683.069 1194.77 669.835 z" fill="rgb(236,202,142)" transform="translate(0,0)"></path>
<path d="M 1261.59 669.691 C 1262.87 669.806 1272.48 669.877 1271.06 674.509 C 1270.33 676.897 1266.24 674.733 1264.96 674.089 C 1263.99 673.605 1262.48 674.414 1262.21 675.74 C 1262.58 679.234 1269.04 678.609 1270.88 681.611 C 1273.75 686.309 1271.16 689.287 1267.66 692.221 C 1264.47 692.029 1258.62 692.423 1257.03 688.854 C 1257.73 686.138 1262.28 687.658 1264 687.837 C 1265.1 687.951 1267.75 686.995 1267.2 685.493 C 1266.03 682.287 1261.52 682.733 1259.28 680.678 C 1258.3 679.772 1257.43 678.444 1257.33 677.053 C 1257.3 673.665 1259.57 671.781 1261.59 669.691 z" fill="rgb(236,202,142)" transform="translate(0,0)"></path>
<path d="M 984.608 654.062 C 985.672 654.379 989.265 655.184 989.349 655.798 C 990.251 662.358 989.799 686.274 989.437 691.748 C 988.48 691.535 984.926 690.941 984.876 690.34 C 984.205 682.307 984.497 661.088 984.608 654.062 z" fill="rgb(236,202,142)" transform="translate(0,0)"></path>
<path d="M 595.878 669.946 C 598.197 669.872 609.436 669.297 605.375 674.648 C 604.348 676.003 597.707 671.46 597.178 676.069 C 596.964 677.938 604.3 679.473 605.679 681.349 C 609.255 686.217 606.084 689.093 602.39 692.145 C 599.745 691.967 589.176 691.598 593.652 686.344 C 594.884 684.898 598.033 689.702 602.029 687.125 C 604.955 679.814 585.043 684.501 595.878 669.946 z" fill="rgb(217,175,105)" transform="translate(0,0)"></path>
<path d="M 680.02 655.015 C 680.62 655.123 684.766 655.62 684.799 656.218 C 685.425 667.86 685.042 680.414 685.224 692.095 C 685.206 692.09 683.41 691.567 683.39 691.569 C 683.182 691.59 680.461 690.838 680.431 690.519 C 679.681 682.502 679.958 661.895 680.02 655.015 z" fill="rgb(217,175,105)" transform="translate(0,0)"></path>
<path d="M 1238.84 654.43 C 1242.03 655.539 1243.33 655.154 1243.2 658.962 C 1242.84 669.997 1243.78 681.504 1242.75 692.475 C 1241.91 692.105 1238.48 690.837 1238.47 690.347 C 1238.23 682.48 1237.51 660.673 1238.84 654.43 z" fill="rgb(236,202,142)" transform="translate(0,0)"></path>
<path d="M 622.513 662.236 C 631.063 664.229 625.423 665.125 627.512 670.006 C 627.822 670.731 636.479 673.167 627.958 676.092 C 627.238 676.339 627.151 690.041 626.81 692.907 C 617.059 687.608 625.617 678.254 622.007 675.969 C 619.487 674.374 614.115 673.64 621.273 670.526 C 622.44 670.019 622.416 663.326 622.513 662.236 z" fill="rgb(217,175,105)" transform="translate(0,0)"></path>
<path d="M 539.758 671.46 L 541.319 672.61 C 541.861 673.008 541.936 673.082 542.555 673.27 C 544.497 672.724 546.275 669.157 548.434 670.015 C 552.283 674.715 545.134 676.434 543.16 677.428 C 542.088 681.696 542.512 685.34 541.916 689.504 C 541.833 690.085 541.543 690.581 541.014 690.856 C 540.15 691.304 538.678 691.262 537.802 690.851 C 537.193 690.565 537.028 688.626 537.007 688.03 C 536.898 684.894 535.975 672.623 537.906 670.758 C 538.092 670.579 538.375 670.518 538.622 670.539 C 538.971 670.568 539.613 671.317 539.758 671.46 z" fill="rgb(217,175,105)" transform="translate(0,0)"></path>
<path d="M 539.758 671.46 L 541.319 672.61 C 541.861 673.008 541.936 673.082 542.555 673.27 C 544.497 672.724 546.275 669.157 548.434 670.015 C 552.283 674.715 545.134 676.434 543.16 677.428 C 540.663 675.267 540.628 674.663 539.758 671.46 z" fill="rgb(205,152,84)" transform="translate(0,0)"></path>
<path d="M 925.597 669.205 C 931.722 671.607 929.259 673.378 930.49 673.842 C 932.033 672.898 934.784 669.545 936.741 670.285 C 939.475 673.769 931.829 677.527 929.897 679.592 C 929.907 686.288 930.846 694.593 925.425 690.365 C 924.283 689.474 925.127 671.994 925.597 669.205 z" fill="rgb(236,202,142)" transform="translate(0,0)"></path>
<path d="M 838.356 670.238 C 839.375 670.484 842.784 670.923 842.871 671.964 C 843.382 678.028 843.207 686.707 842.729 692.579 C 836.668 690.117 838.185 690.969 838.024 684.011 C 837.917 679.387 837.943 674.857 838.356 670.238 z" fill="rgb(236,202,142)" transform="translate(0,0)"></path>
<path d="M 1218.89 670.16 C 1220.56 670.618 1223.55 670.755 1223.58 672.908 C 1223.69 679.094 1223.65 685.422 1223.63 691.599 C 1222.06 691.375 1219 691.552 1218.92 689.578 C 1218.65 683.223 1218.76 676.503 1218.89 670.16 z" fill="rgb(236,202,142)" transform="translate(0,0)"></path>
<path d="M 1306.25 672.634 C 1307.72 671.678 1309.59 671.586 1311.14 672.395 C 1312.69 673.204 1313.69 674.787 1313.74 676.536 C 1313.8 678.285 1312.91 679.929 1311.41 680.835 C 1309.15 682.205 1306.21 681.508 1304.8 679.27 C 1303.39 677.032 1304.04 674.079 1306.25 672.634 z" fill="rgb(236,202,142)" transform="translate(0,0)"></path>
<path d="M 749.117 672.546 C 751.295 671.399 753.988 672.109 755.317 674.18 C 756.647 676.251 756.171 678.995 754.222 680.498 C 752.803 681.592 750.888 681.793 749.273 681.017 C 747.658 680.242 746.617 678.621 746.584 676.829 C 746.551 675.038 747.531 673.38 749.117 672.546 z" fill="rgb(217,175,105)" transform="translate(0,0)"></path>
<path d="M 1053.78 672.552 C 1055.4 671.879 1057.26 672.183 1058.58 673.336 C 1059.91 674.489 1060.46 676.293 1060.02 677.991 C 1059.57 679.689 1058.21 680.988 1056.49 681.344 C 1054.15 681.827 1051.84 680.457 1051.13 678.18 C 1050.43 675.903 1051.58 673.466 1053.78 672.552 z" fill="rgb(236,202,142)" transform="translate(0,0)"></path>
<path d="M 838.802 662.514 C 839.918 661.48 841.644 661.486 842.752 662.529 C 843.86 663.572 843.971 665.294 843.007 666.471 C 842.322 667.307 841.227 667.691 840.17 667.467 C 839.112 667.244 838.267 666.449 837.98 665.407 C 837.692 664.364 838.009 663.249 838.802 662.514 z" fill="rgb(236,202,142)" transform="translate(0,0)"></path>
<path d="M 1220.14 662.445 C 1221.53 661.829 1223.15 662.443 1223.78 663.823 C 1224.42 665.203 1223.82 666.836 1222.45 667.487 C 1221.55 667.915 1220.48 667.824 1219.67 667.25 C 1218.85 666.675 1218.4 665.705 1218.5 664.71 C 1218.6 663.715 1219.22 662.85 1220.14 662.445 z" fill="rgb(236,202,142)" transform="translate(0,0)"></path>
<metadata><recraft-signature>{"signed_by": "recraft", "signature_b64": "RAXx7qj0O8NFJVZUf1omotxCmxjHFuDo31JLwFM9Nro6iYV0tKVeeikATmgyOzPOhnUERM/oe8D34O/GAcYqCw==", "signing_algo": "Ed25519", "generation_timestamp": 1780247786, "identifier": "35cdcc95-084d-4437-9297-64cccfa6db15"}</recraft-signature></metadata></svg>