<svg xmlns="http://www.w3.org/2000/svg" height="768" preserveAspectRatio="none" style="display: block;" version="1.1" viewBox="0 0 2048 1024" width="1536">
<defs>
	<linearGradient gradientUnits="userSpaceOnUse" id="Gradient1" x1="7.41969" x2="8.58031" y1="200.712" y2="199.288">
		<stop class="stop0" offset="0" stop-color="rgb(0,0,0)" stop-opacity="1"></stop>
		<stop class="stop1" offset="1" stop-color="rgb(32,9,7)" stop-opacity="1"></stop>
	</linearGradient>
	<linearGradient gradientUnits="userSpaceOnUse" id="Gradient2" x1="2035.97" x2="2033.15" y1="565.805" y2="570.601">
		<stop class="stop0" offset="0" stop-color="rgb(17,4,4)" stop-opacity="1"></stop>
		<stop class="stop1" offset="1" stop-color="rgb(70,17,15)" stop-opacity="1"></stop>
	</linearGradient>
</defs>
<path d="M 0 0 L 2048 0 L 2048 136.49 L 2048 139.044 L 2048 191.999 L 2048 194.391 L 2048 253.162 L 2048 255.982 L 2048 307.091 L 2048 309.206 L 2048 360.23 L 2048 364.99 L 2048 421.093 L 2048 423.672 L 2048 444.16 L 2048 447.028 L 2048 487.753 L 2048 489.516 L 2048 542.934 L 2048 578.077 L 2048 590.071 L 2048 596.995 L 2048 620.57 L 2048 622.979 L 2048 633.018 L 2048 635.867 L 2048 651.431 L 2048 668.127 L 2048 722.216 L 2048 725.161 L 2048 755.614 L 2048 760.882 L 2048 825.353 L 2048 1024 L 0 1024 L 0 833.055 L 0 829.372 L 0 762.343 L 0 758.454 L 0 756.357 L 0 753.964 L 0 722.785 L 0 720.364 L 0 668.668 L 0 650.785 L 0 637.147 L 0 634.21 L 0 623.487 L 0 620.914 L 0 599.996 L 0 591.128 L 0 576.789 L 0 572.789 L 0 541.785 L 0 488.298 L 0 446.649 L 0 444.09 L 0 423.263 L 0 420.827 L 0 364.951 L 0 360.117 L 0 309.029 L 0 306.963 L 0 255.976 L 0 254.83 L 0 253.104 L 0 196.211 L 0 192.894 L 0 139.11 L 0 0 z" fill="rgb(0,0,0)" transform="translate(0,0)"></path>
<path d="M 1625.07 154.714 C 1621.29 141.414 1622.25 128.988 1623.98 115.287 C 1628.28 83.0299 1645.02 53.7324 1670.63 33.6548 C 1732.06 -13.7284 1816.51 -2.98909 1863.18 60.8581 C 1869.73 69.8254 1878.81 84.5637 1877.19 96.0241 C 1880.34 107.993 1881.69 115.009 1883.08 127.275 C 1885.12 120.729 1884.07 85.8739 1885.18 75.4897 C 1885.6 73.1923 1885.43 59.6549 1885.43 56.7397 L 1885.19 8.56274 C 1911.25 9.90184 1933.07 19.0418 1955.09 32.4894 C 1962.05 31.0952 1965.36 37.3035 1970.31 41.2706 C 2000.58 65.5268 2013.83 98.1962 2018.55 135.49 C 2028.96 135.479 2038.48 136.519 2048 136.49 L 2048 139.044 L 2048 191.999 L 2048 194.391 L 2048 253.162 L 2048 255.982 L 2048 307.091 L 2048 309.206 L 2048 360.23 L 2048 364.99 L 2048 421.093 L 2048 423.672 L 2048 444.16 L 2048 447.028 L 2048 487.753 L 2048 489.516 L 2048 542.934 L 2048 578.077 L 2048 590.071 L 2048 596.995 L 2048 620.57 L 2048 622.979 L 2048 633.018 L 2048 635.867 L 2048 651.431 L 2048 668.127 C 2040.75 668.534 2032.99 669.128 2025.78 668.219 C 2022.48 667.206 2023.78 667.206 2020.66 667.86 L 2019.58 670.537 C 2015.32 671.364 2012.86 671.017 2008.52 670.713 L 2016.27 668.463 L 2016.45 667.691 C 2011.59 666.641 1998.84 671.696 1994.62 674.671 C 1981.31 684.041 1982.44 699.976 1990.23 711.903 C 1980.62 708.616 1966.17 697.974 1960.87 699.561 C 1944.14 688.186 1931.71 664.754 1928.3 645.279 C 1927.23 639.157 1927.25 633.184 1926.06 627.331 L 1925.9 626.589 C 1916.28 627.524 1895.96 626.956 1885.71 626.796 L 1884.72 624.358 L 1883.28 621.208 C 1879.01 621.51 1874.74 621.711 1870.46 621.81 C 1873.51 620.542 1878.42 620.572 1881.87 620.395 C 1882.1 600.401 1882.11 580.406 1881.9 560.412 C 1874.94 560.336 1851.75 561.134 1847.1 559.207 L 1845.77 558.902 L 1843.21 558.023 C 1842.81 536.035 1843.34 513.451 1843.07 491.284 L 1833.02 493.809 L 1832.9 491.067 C 1818.82 491.268 1804.73 491.196 1790.64 490.849 C 1782.99 490.865 1758.14 489.288 1752.7 491.671 C 1751.74 493.642 1751.61 493.877 1751.19 496.012 C 1749.6 492.552 1749.4 491.848 1745.49 491.832 C 1722.18 491.735 1698.76 491.571 1675.45 492.029 C 1672.49 490.349 1631.18 491.215 1625.63 491.258 L 1625.09 489.778 C 1625.86 485.589 1625.76 479.497 1625.84 475.1 C 1622.48 470.459 1623.63 412.883 1623.82 403.39 C 1624.27 380.632 1617.32 271.015 1624.75 257.773 L 1625.38 256.463 L 1625.23 255.424 C 1624.47 249.683 1624.89 231.36 1624.89 224.514 L 1624.99 161.902 L 1627.46 160.972 C 1626.51 157.351 1627.1 158.007 1625.07 154.714 z" fill="rgb(16,10,10)" transform="translate(0,0)"></path>
<path d="M 1625.23 137.115 C 1626.85 11.1051 1778.12 -37.1482 1856.96 57.3127 C 1866.78 69.076 1871.94 81.7577 1877.19 96.0241 C 1880.34 107.993 1881.69 115.009 1883.08 127.275 C 1882.97 130.59 1883.35 134.525 1881.31 136.689 C 1861.59 138.405 1818.08 137.085 1796.21 137.087 L 1625.23 137.115 z" fill="rgb(218,57,55)" transform="translate(0,0)"></path>
<path d="M 2048 489.516 L 2048 542.934 L 2048 578.077 L 2048 590.071 L 2048 596.995 L 2048 620.57 L 2048 622.979 L 2048 633.018 L 2048 635.867 L 2048 651.431 L 2048 668.127 C 2040.75 668.534 2032.99 669.128 2025.78 668.219 C 2022.48 667.206 2023.78 667.206 2020.66 667.86 L 2019.58 670.537 C 2015.32 671.364 2012.86 671.017 2008.52 670.713 L 2016.27 668.463 L 2016.45 667.691 C 2011.59 666.641 1998.84 671.696 1994.62 674.671 C 1981.31 684.041 1982.44 699.976 1990.23 711.903 C 1980.62 708.616 1966.17 697.974 1960.87 699.561 C 1944.14 688.186 1931.71 664.754 1928.3 645.279 C 1927.23 639.157 1927.25 633.184 1926.06 627.331 L 1925.9 626.589 C 1925.8 625.85 1925.61 625.317 1925.86 624.683 C 1926.58 622.868 1927.15 618.987 1927.5 616.915 C 1934.99 572.595 1972.86 540.909 2018.59 537.825 C 2018.45 531.872 2019.4 497.915 2018.07 495.447 L 2013.56 494.354 C 1999.84 490.978 1972.17 499.643 1959.61 506.154 C 1932.06 520.438 1908.64 542.016 1895.62 570.517 C 1891.38 579.79 1888.96 588.16 1885.77 597.679 C 1884.16 568.535 1884.79 521.636 1885.29 492.15 C 1914.63 491.264 1945.82 492.717 1975.5 491.924 C 1990.31 491.528 2026.65 488.873 2040.78 490.681 C 2035.21 491.19 2026.41 491.026 2021.62 492.696 L 2021.74 493.934 C 2027.47 494.458 2042.53 491.698 2048 489.516 z" fill="rgb(0,0,0)" transform="translate(0,0)"></path>
<path d="M 2009.01 590.358 C 1994.16 575.232 2005.18 568.716 2019.1 560.425 C 2019.1 560.425 2020.4 556.991 2020.51 556.698 L 2021.24 562.695 C 2035.75 563.237 2039.66 566.487 2048 578.077 L 2048 590.071 L 2048 596.995 L 2048 620.57 L 2048 622.979 L 2048 633.018 L 2048 635.867 L 2048 651.431 C 2042.85 658.809 2043.7 657.678 2037.38 663.835 C 2035.45 665.838 2036.43 665.279 2033.08 665.483 L 2032 664.854 C 2030.52 664.963 2028.96 664.971 2027.58 665.43 C 2005.76 672.24 1986.15 646.093 1987.53 625.992 C 1988.78 607.852 1997.11 601.817 2009.01 590.358 z" fill="rgb(16,10,10)" transform="translate(0,0)"></path>
<path d="M 1991.03 617.628 L 2006.22 617.892 L 2006.11 618.556 C 2003.88 631.239 2005.34 640.272 2019.02 644.906 C 2023.48 646.416 2028.93 643.874 2033.37 643.466 C 2033.6 646.608 2033.74 659.207 2033.12 662.99 C 2033.01 663.638 2032.16 664.64 2032 664.854 C 2030.52 664.963 2028.96 664.971 2027.58 665.43 C 2009.22 663.597 1993.38 652.157 1991.09 632.501 C 1990.55 627.864 1990.94 622.32 1991.03 617.628 z" fill="rgb(244,244,243)" transform="translate(0,0)"></path>
<path d="M 2021.24 562.695 C 2035.75 563.237 2039.66 566.487 2048 578.077 L 2048 590.071 L 2047.01 590.262 C 2038.36 590.088 2030.02 589.924 2021.45 591.068 C 2020.5 586.941 2020.8 569.517 2021.07 564.762 L 2021.24 562.695 z" fill="rgb(218,57,55)" transform="translate(0,0)"></path>
<path d="M 2021.24 562.695 C 2035.75 563.237 2039.66 566.487 2048 578.077 L 2048 590.071 L 2047.01 590.262 C 2046.39 573.7 2037.77 565.481 2021.07 564.762 L 2021.24 562.695 z" fill="url(#Gradient2)" transform="translate(0,0)"></path>
<path d="M 2038.45 635.544 C 2041.68 635.758 2044.77 635.771 2048 635.867 L 2048 651.431 C 2042.85 658.809 2043.7 657.678 2037.38 663.835 C 2034.58 658.992 2035.98 641.09 2038.45 635.544 z" fill="rgb(218,57,55)" transform="translate(0,0)"></path>
<path d="M 2048 596.995 L 2048 620.57 L 2048 622.979 C 2044.33 622.992 2040.56 622.953 2036.91 623.094 L 2036.15 621.313 C 2035.99 612.353 2034.86 611.151 2038.69 602.862 C 2042.61 599.145 2042.86 598.893 2048 596.995 z" fill="rgb(244,244,243)" transform="translate(0,0)"></path>
<path d="M 2036.15 621.313 C 2041.16 620.517 2042.89 620.61 2048 620.57 L 2048 622.979 C 2044.33 622.992 2040.56 622.953 2036.91 623.094 L 2036.15 621.313 z" fill="rgb(33,10,9)" transform="translate(0,0)"></path>
<path d="M 2036.91 623.094 C 2040.56 622.953 2044.33 622.992 2048 622.979 L 2048 633.018 L 2048 635.867 C 2044.77 635.771 2041.68 635.758 2038.45 635.544 C 2038.41 634.869 2038.43 634.486 2038.26 633.808 C 2036.92 629.259 2037.2 627.686 2036.91 623.094 z" fill="rgb(200,52,49)" transform="translate(0,0)"></path>
<path d="M 2038.26 633.808 C 2042.38 632.847 2043.89 633.04 2048 633.018 L 2048 635.867 C 2044.77 635.771 2041.68 635.758 2038.45 635.544 C 2038.41 634.869 2038.43 634.486 2038.26 633.808 z" fill="rgb(59,15,13)" transform="translate(0,0)"></path>
<path d="M 2013.97 593.73 C 2021.37 594.009 2018.56 600.152 2018.55 607.279 C 2005.61 614.573 2013.74 615.516 1997.75 615.303 C 1996.59 615.312 1992.44 615.513 1993.63 613.065 C 1998.4 603.192 2004.56 598.536 2013.97 593.73 z" fill="rgb(218,57,55)" transform="translate(0,0)"></path>
<path d="M 2015.59 564.671 C 2016.66 564.942 2018.72 565.411 2018.67 566.968 C 2018.53 571.396 2019.64 587.888 2018 590.736 C 2016.34 591.193 2013.52 589.766 2011.81 589.118 C 2002.85 582.058 2003.15 573.088 2012.73 566.599 L 2015.59 564.671 z" fill="rgb(222,183,49)" transform="translate(0,0)"></path>
<path d="M 2020.7 593.759 C 2027.13 594.156 2037.98 593.426 2037.75 601.968 C 2032.27 609.129 2036.28 612.839 2030.37 610.438 C 2016.94 604.991 2021.71 608.277 2020.7 593.759 z" fill="rgb(200,52,49)" transform="translate(0,0)"></path>
<path d="M 2021.49 622.374 C 2033.98 622.881 2034.93 620.279 2033.77 633.476 C 2022.12 634.183 2019.13 636.461 2021.49 622.374 z" fill="rgb(4,90,157)" transform="translate(0,0)"></path>
<path d="M 2021.09 610.348 C 2028.44 612.001 2031.6 613.301 2034.73 620.471 C 2020.6 621.225 2021.05 623.428 2021.09 610.348 z" fill="rgb(218,57,55)" transform="translate(0,0)"></path>
<path d="M 2011.42 622.42 C 2012.4 622.53 2017.46 622.833 2017.57 623.426 C 2019.19 632.25 2018.94 633.294 2012.06 632.899 C 2006.78 631.744 2007.81 624.19 2011.42 622.42 z" fill="rgb(4,90,157)" transform="translate(0,0)"></path>
<path d="M 2020.96 635.206 C 2028.16 635.304 2036.06 632.676 2030.9 641.059 C 2021.38 644.074 2020.97 644.631 2020.96 635.206 z" fill="rgb(200,52,49)" transform="translate(0,0)"></path>
<path d="M 2017.44 610.696 C 2020.44 621.271 2017.41 620.579 2009.49 620.711 C 2008.71 616.306 2014.26 612.928 2017.44 610.696 z" fill="rgb(218,57,55)" transform="translate(0,0)"></path>
<path d="M 2009.58 635.057 C 2017.75 635.38 2017.29 633.407 2018.54 641.342 C 2013.73 639.718 2013.11 638.586 2009.58 635.057 z" fill="rgb(200,52,49)" transform="translate(0,0)"></path>
<path d="M 2020.93 539.937 C 2029.59 539.919 2040.52 538.59 2048 542.934 L 2048 578.077 C 2039.66 566.487 2035.75 563.237 2021.24 562.695 L 2020.51 556.698 C 2021.25 551.443 2020.95 545.318 2020.93 539.937 z" fill="rgb(218,57,55)" transform="translate(0,0)"></path>
<path d="M 1885.19 8.56274 C 1911.25 9.90184 1933.07 19.0418 1955.09 32.4894 C 1985.65 55.8711 2009.2 85.7428 2014.48 125.018 C 2015.01 128.824 2015.37 132.65 2015.57 136.487 L 1885.63 136.45 C 1885.71 124.476 1886.58 85.1987 1885.18 75.4897 C 1885.6 73.1923 1885.43 59.6549 1885.43 56.7397 L 1885.19 8.56274 z" fill="rgb(222,183,49)" transform="translate(0,0)"></path>
<path d="M 1888.36 364.761 L 1938.63 364.843 C 1938.78 369.331 1938.93 374.078 1939.7 378.495 C 1943.63 400.136 1956.02 419.317 1974.14 431.79 C 1996.22 447.312 2021.73 451.611 2048 447.028 L 2048 487.753 C 2011.67 492.348 1974.95 483.021 1945.22 461.647 C 1910.92 437.15 1895.11 405.209 1888.36 364.761 z" fill="rgb(222,183,49)" transform="translate(0,0)"></path>
<path d="M 2013.56 494.354 L 2018.07 495.447 C 2019.4 497.915 2018.45 531.872 2018.59 537.825 C 1972.86 540.909 1934.99 572.595 1927.5 616.915 C 1927.15 618.987 1926.58 622.868 1925.86 624.683 C 1925.61 625.317 1925.8 625.85 1925.9 626.589 C 1916.28 627.524 1895.96 626.956 1885.71 626.796 L 1884.72 624.358 C 1886.06 620.752 1887.25 610.147 1888.04 605.975 C 1901.39 535.452 1949.25 506.442 2013.56 494.354 z" fill="rgb(244,244,243)" transform="translate(0,0)"></path>
<path d="M 1884.72 624.358 C 1891.24 623.968 1920.32 623.657 1925.86 624.683 C 1925.61 625.317 1925.8 625.85 1925.9 626.589 C 1916.28 627.524 1895.96 626.956 1885.71 626.796 L 1884.72 624.358 z" fill="rgb(52,52,52)" transform="translate(0,0)"></path>
<path d="M 1625.84 475.1 C 1631.24 440.121 1646.28 412.04 1675.24 390.765 C 1696.95 374.584 1723.13 365.484 1750.2 364.702 L 1750.12 406.28 C 1705.1 412.476 1674.8 442.488 1674.94 488.984 C 1666.29 488.946 1631.32 488.366 1625.09 489.778 C 1625.86 485.589 1625.76 479.497 1625.84 475.1 z" fill="rgb(222,183,49)" transform="translate(0,0)"></path>
<path d="M 1625.38 256.463 C 1632.84 256.554 1691.08 256.025 1693.74 257.758 C 1713.05 257.998 1732.36 258.1 1751.67 258.067 C 1751.4 292.333 1752.01 328.132 1751.17 362.12 C 1735.6 362.192 1718.48 361.745 1703.14 362.253 C 1727.52 348.233 1740.54 324.131 1725.01 297.653 C 1719.01 287.462 1709.15 280.124 1697.67 277.303 C 1685.36 274.131 1672.29 276.127 1661.48 282.829 C 1651.67 288.732 1644.64 298.318 1641.95 309.447 C 1637.24 329.239 1647.37 354.227 1667.78 360.471 L 1666.99 361.751 C 1658.76 362.587 1651.18 361.728 1643.6 362.202 L 1624.95 362.109 C 1624.78 327.506 1625.45 292.307 1624.75 257.773 L 1625.38 256.463 z" fill="rgb(218,57,55)" transform="translate(0,0)"></path>
<path d="M 1625.38 256.463 C 1632.84 256.554 1691.08 256.025 1693.74 257.758 C 1690.07 258.238 1676.33 257.931 1672.08 257.927 L 1624.75 257.773 L 1625.38 256.463 z" fill="rgb(59,15,13)" transform="translate(0,0)"></path>
<path d="M 1752.85 364.49 C 1823.84 365.873 1879.27 416.734 1882.87 488.36 C 1871.54 488.328 1854.97 488.81 1844.07 488.149 L 1843.66 487.347 C 1835.66 439.441 1802.61 406.216 1752.71 405.797 L 1752.85 364.49 z" fill="rgb(218,57,55)" transform="translate(0,0)"></path>
<path d="M 1667.78 360.471 C 1665.89 355.867 1660.62 353.369 1657.05 349.948 C 1623.14 317.422 1658.73 266.057 1701.8 281.869 C 1711.66 285.425 1719.64 292.828 1723.93 302.382 C 1736.44 329.984 1721.75 346.138 1702.39 359.592 C 1701.96 359.891 1703.03 361.902 1703.29 362.853 L 1702.63 364.851 C 1679.54 365.4 1648.18 365.178 1625.48 363.761 C 1631.96 363.048 1636.68 364.174 1643.6 362.202 C 1651.18 361.728 1658.76 362.587 1666.99 361.751 L 1667.78 360.471 z" fill="rgb(0,0,0)" transform="translate(0,0)"></path>
<path d="M 1753.87 408.993 C 1768.42 408.86 1782.77 412.434 1795.56 419.379 C 1820.2 432.833 1834.63 456.61 1840.21 482.991 C 1840.78 485.668 1841.52 486.208 1843.66 487.347 L 1844.07 488.149 L 1843.07 491.284 L 1833.02 493.809 L 1832.9 491.067 C 1818.82 491.268 1804.73 491.196 1790.64 490.849 C 1779.06 487.202 1765.69 487.813 1753.46 487.656 C 1753.43 461.412 1754.12 435.277 1753.87 408.993 z" fill="rgb(0,0,0)" transform="translate(0,0)"></path>
<path d="M 1940.75 364.821 C 1961.35 364.695 1981.95 364.712 2002.54 364.872 C 2003.46 369.05 2003 371.642 2002.61 375.812 C 2007.52 401.227 2022.71 417.941 2048 423.672 L 2048 444.16 C 2003.63 453.985 1955.15 428.572 1943.36 383.489 C 1941.71 377.198 1941.24 371.291 1940.75 364.821 z" fill="rgb(4,90,157)" transform="translate(0,0)"></path>
<path d="M 2002.54 364.872 C 2003.46 369.05 2003 371.642 2002.61 375.812 C 2001.77 371.001 2001.83 369.551 2002.54 364.872 z" fill="rgb(25,61,99)" transform="translate(0,0)"></path>
<path d="M 1624.99 161.902 L 1627.46 160.972 C 1639.17 197.212 1659.79 224.148 1694.18 241.802 C 1703.95 246.797 1714.25 250.671 1724.89 253.349 L 1724.01 254.651 C 1710.6 255.769 1692.25 253.853 1679.96 255.157 C 1661.71 255.11 1643.47 255.199 1625.23 255.424 C 1624.47 249.683 1624.89 231.36 1624.89 224.514 L 1624.99 161.902 z" fill="rgb(244,244,243)" transform="translate(0,0)"></path>
<path d="M 1625.48 363.761 C 1648.18 365.178 1679.54 365.4 1702.63 364.851 C 1709.41 364.69 1716.84 364.347 1723.53 364.818 C 1679.77 379.539 1643.63 404.121 1628.48 450.157 L 1625.82 450.898 C 1626.58 423.659 1626 391.195 1625.48 363.761 z" fill="rgb(4,90,157)" transform="translate(0,0)"></path>
<path d="M 1845.74 490.99 L 1881.35 490.764 C 1881.07 513.514 1881.11 536.266 1881.48 559.015 C 1871.76 559.039 1856.38 558.609 1847.1 559.207 L 1845.77 558.902 C 1845.45 536.224 1845.91 513.613 1845.74 490.99 z" fill="rgb(218,57,55)" transform="translate(0,0)"></path>
<path d="M 2048 139.044 L 2048 191.999 C 2037.21 197.559 2026.46 207.998 2022.37 219.478 L 2018.67 220.264 C 2019.06 193.547 2018.68 165.857 2018.67 139.061 L 2048 139.044 z" fill="rgb(218,57,55)" transform="translate(0,0)"></path>
<path d="M 2004.82 364.946 L 2048 364.99 L 2048 421.093 C 2018.96 413.424 2005.32 394.536 2004.82 364.946 z" fill="rgb(244,244,243)" transform="translate(0,0)"></path>
<path d="M 2018.75 255.714 L 2048 255.982 L 2048 307.091 L 2018.83 307.126 C 2018.59 290.124 2018.76 272.747 2018.75 255.714 z" fill="rgb(4,90,157)" transform="translate(0,0)"></path>
<path d="M 2018.73 253.269 C 2018.75 226.451 2025.25 210.083 2048 194.391 L 2048 253.162 L 2018.73 253.269 z" fill="rgb(244,244,243)" transform="translate(0,0)"></path>
<path d="M 2048 309.206 L 2048 360.23 C 2027.07 349.479 2019.42 331.78 2019.05 309.2 C 2028.7 309.406 2038.35 309.408 2048 309.206 z" fill="rgb(218,57,55)" transform="translate(0,0)"></path>
<path d="M 1724.89 253.349 L 1731.21 254.649 L 1730.84 255.392 L 1729.46 255.577 L 1728.84 254.943 C 1726.81 256.561 1684.64 255.749 1679.96 255.157 C 1692.25 253.853 1710.6 255.769 1724.01 254.651 L 1724.89 253.349 z" fill="rgb(132,130,135)" transform="translate(0,0)"></path>
<path d="M 2018.67 220.264 L 2022.37 219.478 C 2021.86 220.644 2020.18 225.596 2019.47 226.156 C 2018.42 225.203 2018.67 221.658 2018.67 220.264 z" fill="rgb(200,52,49)" transform="translate(0,0)"></path>
<path d="M 1625.82 450.898 L 1628.48 450.157 C 1628.12 451.423 1626.93 456.618 1625.63 457.098 C 1624.58 456.092 1625.56 452.165 1625.82 450.898 z" fill="rgb(25,61,99)" transform="translate(0,0)"></path>
<path d="M 1625.58 139.537 C 1682.95 139.964 1740.33 140.06 1797.7 139.827 C 1807.9 139.801 1876.63 138.701 1881.33 140.216 L 1882.2 143.163 L 1882.03 146.948 C 1881.49 148.493 1881.07 151.28 1880.65 153.037 C 1877.07 168.314 1871.56 181.866 1862.79 194.98 C 1843.67 224.189 1813.63 244.512 1779.41 251.403 C 1727.14 261.604 1679.13 241.137 1647.87 197.969 C 1633.86 178.634 1629.93 162.382 1625.58 139.537 z" fill="rgb(4,90,157)" transform="translate(0,0)"></path>
<path d="M 1885.7 138.979 L 2016.03 138.889 L 2016 253.066 C 1976.4 253.082 1924.86 251.648 1886.24 253.541 C 1885.26 247.998 1885.57 229.153 1885.59 222.558 C 1885.71 203.242 1885.73 183.926 1885.66 164.61 L 1885.7 138.979 z" fill="rgb(222,183,49)" transform="translate(0,0)"></path>
<path d="M 1886.47 255.784 L 2004.53 255.869 C 2009.48 255.869 2013.95 254.313 2009.42 258.787 C 2005.37 260.098 1999.13 265.786 1997.54 269.696 C 1990.71 286.506 1999.66 298.479 2012.51 306.784 C 2003.76 306.961 1995.02 307.009 1986.27 306.927 C 1986.28 331.361 1987.38 345.402 2008.16 361.96 L 1886.92 362.158 C 1886.84 353.179 1887.13 333.553 1886.19 325.49 C 1887.87 311.161 1885.76 273.401 1886.47 255.784 z" fill="rgb(218,57,55)" transform="translate(0,0)"></path>
<path d="M 2004.53 255.869 C 2009.48 255.869 2013.95 254.313 2009.42 258.787 C 2007.44 257.752 2006.29 257.291 2004.53 255.869 z" fill="rgb(218,57,55)" transform="translate(0,0)"></path>
<path d="M 1882.2 143.163 C 1885.3 146.498 1882.71 157.026 1885.66 164.61 C 1885.73 183.926 1885.71 203.242 1885.59 222.558 C 1885.57 229.153 1885.26 247.998 1886.24 253.541 L 1886.47 255.784 C 1885.76 273.401 1887.87 311.161 1886.19 325.49 C 1885.06 340.407 1883.09 343.451 1883.03 361.674 C 1862.89 347.428 1832.99 321.675 1813.1 305.56 L 1775.97 274.942 C 1768.59 268.905 1761.87 264.447 1754.99 257.616 C 1796.4 253.349 1831.22 240.878 1857.75 206.576 C 1863.48 199.168 1881.98 170.439 1882.48 162.236 L 1881.01 162.16 C 1878.68 159.21 1884.67 153.653 1882.03 146.948 L 1882.2 143.163 z" fill="rgb(0,0,0)" transform="translate(0,0)"></path>
<path d="M 1754 262.378 C 1759.8 265.669 1784.92 286.508 1791.34 291.617 C 1820.25 314.587 1848.67 339.189 1877.8 361.903 C 1838.02 362.837 1794.12 361.963 1753.96 362.039 C 1754.31 329.027 1753.99 295.437 1754 262.378 z" fill="rgb(222,183,49)" transform="translate(0,0)"></path>
<path d="M 1746.54 409.221 L 1749.45 409.163 C 1751.37 411.559 1750.57 478.73 1750.72 488.313 L 1682.75 488.345 C 1680.47 488.4 1680.38 488.401 1678.24 487.581 C 1675.63 482.536 1678.17 475.507 1679.28 470.224 C 1683.28 451.194 1694.29 434.568 1710.12 423.32 C 1721.75 415.062 1732.83 412.058 1746.54 409.221 z" fill="rgb(4,90,157)" transform="translate(0,0)"></path>
<path d="M 1887.01 376.984 C 1888.91 382.258 1888.46 380.235 1889.55 385.793 C 1906.45 442.23 1944.15 473.567 2000.25 488.438 C 1962.66 488.448 1924.51 488.812 1886.96 488.409 C 1887 467.922 1886.32 441.813 1887.19 421.768 C 1886.38 410.397 1887.03 388.854 1887.01 376.984 z" fill="rgb(4,90,157)" transform="translate(0,0)"></path>
<path d="M 1887.01 376.984 C 1888.91 382.258 1888.46 380.235 1889.55 385.793 C 1885.25 392.979 1890.07 417.402 1887.19 421.768 C 1886.38 410.397 1887.03 388.854 1887.01 376.984 z" fill="rgb(4,90,157)" transform="translate(0,0)"></path>
<path d="M 1787.15 366.347 C 1785.53 365.995 1784.97 365.525 1783.5 364.732 C 1787.2 363.199 1873.45 364.276 1881.02 364.857 L 1883.38 365.51 C 1884.91 370.206 1884.21 411.268 1884.18 419.489 C 1884.69 424.166 1885.67 465.859 1884.42 468.58 C 1883.32 468.826 1882.65 463.648 1882.51 463.025 C 1868.6 410.886 1837.04 383.25 1787.15 366.347 z" fill="rgb(4,90,157)" transform="translate(0,0)"></path>
<path d="M 1787.15 366.347 C 1785.53 365.995 1784.97 365.525 1783.5 364.732 C 1787.2 363.199 1873.45 364.276 1881.02 364.857 C 1867.69 365.705 1792.6 363.459 1787.15 366.347 z" fill="rgb(25,61,99)" transform="translate(0,0)"></path>
<path d="M 1884.18 419.489 C 1884.69 424.166 1885.67 465.859 1884.42 468.58 C 1883.32 468.826 1882.65 463.648 1882.51 463.025 C 1885.28 458.04 1883.61 428.514 1884.18 419.489 z" fill="rgb(25,61,99)" transform="translate(0,0)"></path>
<path d="M 1988.88 309.727 L 2015.97 309.865 L 2015.9 362.432 C 1992.95 355.407 1988.75 330.121 1988.88 309.727 z" fill="rgb(4,90,157)" transform="translate(0,0)"></path>
<path d="M 2014.18 257.82 C 2016.93 259.181 2015.86 300.048 2015.83 306.044 C 2012 303.577 2009.58 301.985 2005.95 299.223 C 1990.84 283.948 1997.35 267.722 2014.18 257.82 z" fill="rgb(244,244,243)" transform="translate(0,0)"></path>
<path d="M 2018.51 362.487 C 2017.99 359.428 2017.56 329.642 2018.62 328.867 L 2018.72 328.929 L 2018.74 329.161 C 2019.43 329.709 2019.29 329.492 2019.6 330.293 L 2018.98 330.277 L 2019.72 330.744 C 2019.72 331.026 2019.72 331.309 2019.71 331.591 C 2025.88 347.696 2031.38 353.203 2045.63 362.025 C 2036.99 362.212 2027.11 362.56 2018.51 362.487 z" fill="rgb(218,57,55)" transform="translate(0,0)"></path>
<path d="M 2018.51 362.487 C 2017.99 359.428 2017.56 329.642 2018.62 328.867 L 2018.72 328.929 L 2018.74 329.161 C 2019.43 329.709 2019.29 329.492 2019.6 330.293 L 2018.98 330.277 L 2019.72 330.744 C 2019.72 331.026 2019.72 331.309 2019.71 331.591 C 2018.36 339.238 2019.05 353.519 2018.51 362.487 z" fill="rgb(200,52,49)" transform="translate(0,0)"></path>
<path d="M 27.0474 493.653 C 89.0145 496.417 136.866 529.678 156.332 589.068 C 159.07 590.751 159.127 593.526 159.485 596.674 C 159.768 593.839 160.471 584.03 161.459 582.036 C 161.768 588.655 161.608 618.013 164.004 621.546 C 166.954 622.084 169.587 622.44 172.159 624.114 C 173.875 624.364 177.427 624.769 178.924 625.229 L 180.982 625.01 C 188.07 624.527 193.86 624.636 200.97 624.781 C 200.918 636.387 200.44 648.759 200.821 660.281 C 201.43 678.705 196.543 701.788 211.722 715.373 L 212.996 713.958 C 208.172 708.667 203.144 700.202 203.465 692.922 C 204.298 674.093 200.334 641.594 203.942 624.207 L 203.914 622.588 C 213.288 621.642 285.57 621.015 291.724 622.846 L 291.685 624.881 L 294.67 624.111 C 305.841 623.926 412.001 622.959 415.54 624.517 C 415.929 627.351 416.106 628.821 416.1 631.766 C 420.935 639.379 418.674 667.826 416.985 677.444 L 416.831 676.927 C 415.879 681.327 415.868 684.339 414.249 688.629 L 414.158 690.635 C 415.209 691.78 417.177 694.285 417.363 695.695 C 418.532 704.597 420.401 748.253 416.914 754.251 C 404.548 758.496 399.931 765.616 390.614 774.688 C 377.393 787.541 364.273 800.498 351.256 813.557 L 223.035 941.016 L 185.371 977.793 C 180.058 982.997 169.72 993.727 164.365 998.149 C 109.922 942.775 55.1326 887.742 0 833.055 L 0 829.372 L 0 762.343 L 0 758.454 L 0 756.357 L 0 753.964 L 0 722.785 L 0 720.364 L 0 668.668 L 0 650.785 L 0 637.147 L 0 634.21 L 0 623.487 L 0 620.914 L 0 599.996 L 0 591.128 L 0 576.789 L 0 572.789 L 0 541.785 L 4.10954 540.434 L 4.74439 538.786 C 10.7696 537.881 16.7346 538.542 22.9266 538.27 C 26.0888 534.265 25.3494 520.771 26.6564 514.287 L 26.8347 513.43 C 26.9572 506.838 27.0281 500.246 27.0474 493.653 z" fill="rgb(16,10,10)" transform="translate(0,0)"></path>
<path d="M 27.0474 493.653 C 89.0145 496.417 136.866 529.678 156.332 589.068 C 159.07 590.751 159.127 593.526 159.485 596.674 C 159.768 593.839 160.471 584.03 161.459 582.036 C 161.768 588.655 161.608 618.013 164.004 621.546 C 166.954 622.084 169.587 622.44 172.159 624.114 C 168.184 624.318 165.73 623.813 162.658 625.731 C 163.802 640.133 163.166 660.986 163.079 675.95 C 162.953 701.625 162.955 727.301 163.086 752.977 C 166.695 753.344 176.566 754.049 180.23 753.824 L 180.549 752.677 L 182.941 753.037 C 182.966 753.125 182.991 753.213 183.016 753.302 L 180.635 752.987 L 180.323 754.177 L 179.589 753.05 C 176.473 753.284 169.264 753.637 166.519 754.258 L 164.562 755.797 L 163.224 755.422 C 150.264 756.737 126.863 756.34 113.378 756.443 L 0 756.357 L 0 753.964 L 0 722.785 L 0 720.364 L 0 668.668 L 0 650.785 L 0 637.147 L 0 634.21 L 0 623.487 L 0 620.914 L 0 599.996 L 0 591.128 L 0 576.789 L 0 572.789 L 0 541.785 L 4.10954 540.434 L 4.74439 538.786 C 10.7696 537.881 16.7346 538.542 22.9266 538.27 C 26.0888 534.265 25.3494 520.771 26.6564 514.287 L 26.8347 513.43 C 26.9572 506.838 27.0281 500.246 27.0474 493.653 z" fill="rgb(0,0,0)" transform="translate(0,0)"></path>
<path d="M 119.867 625.875 C 129.522 626.042 149.299 624.515 158.938 627.034 C 160.115 627.342 160.242 630.067 160.568 631.759 C 161.222 629.763 161.966 627.721 162.658 625.731 C 163.802 640.133 163.166 660.986 163.079 675.95 C 162.953 701.625 162.955 727.301 163.086 752.977 C 166.695 753.344 176.566 754.049 180.23 753.824 L 180.549 752.677 L 182.941 753.037 C 182.966 753.125 182.991 753.213 183.016 753.302 L 180.635 752.987 L 180.323 754.177 L 179.589 753.05 C 176.473 753.284 169.264 753.637 166.519 754.258 L 164.562 755.797 L 163.224 755.422 C 150.264 756.737 126.863 756.34 113.378 756.443 L 0 756.357 L 0 753.964 L 0 722.785 L 0 720.364 L 0 668.668 L 10.8945 668.286 L 12.6269 665.507 C 17.1513 664.923 20.9853 665.022 25.5375 664.631 C 25.8446 666.288 26.283 667.065 25.4886 668.643 C 24.9841 674.97 24.6677 692.909 25.2161 699.388 C 25.9242 701.547 26.1337 704.079 26.4301 706.361 C 26.4798 703.427 26.9255 699.5 27.1836 696.489 C 27.8996 703.191 27.6503 710.12 27.6745 716.886 C 34.4679 715.935 36.6095 716.04 43.4071 714.319 L 41.1545 717.285 C 45.0034 717.218 48.954 716.092 52.7202 715.184 C 64.372 712.111 78.6756 703.534 87.5709 695.5 C 109.918 675.318 117.702 654.906 119.867 625.875 z" fill="rgb(244,244,243)" transform="translate(0,0)"></path>
<path d="M 160.568 631.759 C 161.222 629.763 161.966 627.721 162.658 625.731 C 163.802 640.133 163.166 660.986 163.079 675.95 C 162.953 701.625 162.955 727.301 163.086 752.977 C 166.695 753.344 176.566 754.049 180.23 753.824 L 180.549 752.677 L 182.941 753.037 C 182.966 753.125 182.991 753.213 183.016 753.302 L 180.635 752.987 L 180.323 754.177 L 179.589 753.05 C 176.473 753.284 169.264 753.637 166.519 754.258 L 164.562 755.797 L 163.224 755.422 C 150.264 756.737 126.863 756.34 113.378 756.443 L 0 756.357 L 0 753.964 L 0 722.785 L 0 720.364 L 0 668.668 L 10.8945 668.286 L 12.6269 665.507 C 17.1513 664.923 20.9853 665.022 25.5375 664.631 C 25.8446 666.288 26.283 667.065 25.4886 668.643 C 24.9841 674.97 24.6677 692.909 25.2161 699.388 C 25.9242 701.547 26.1337 704.079 26.4301 706.361 C 26.4798 703.427 26.9255 699.5 27.1836 696.489 C 27.8996 703.191 27.6503 710.12 27.6745 716.886 C 34.4679 715.935 36.6095 716.04 43.4071 714.319 L 41.1545 717.285 C 39.5449 717.986 30.0973 718.666 27.7365 718.885 L 27.6911 753.961 C 58.0374 754.063 78.4372 750.074 104.201 732.826 C 141.066 708.147 156.665 674.643 160.568 631.759 z" fill="rgb(16,10,10)" transform="translate(0,0)"></path>
<path d="M 72.433 752.473 C 110.59 737.641 149.718 706.124 158.652 664.184 L 159.698 664.004 C 159.929 670.534 159.467 670.994 163.079 675.95 C 162.953 701.625 162.955 727.301 163.086 752.977 C 166.695 753.344 176.566 754.049 180.23 753.824 L 180.549 752.677 L 182.941 753.037 C 182.966 753.125 182.991 753.213 183.016 753.302 L 180.635 752.987 L 180.323 754.177 L 179.589 753.05 C 176.473 753.284 169.264 753.637 166.519 754.258 L 164.562 755.797 L 163.224 755.422 C 151.085 751.963 90.0043 753.107 72.433 752.473 z" fill="rgb(0,0,0)" transform="translate(0,0)"></path>
<path d="M 12.6269 665.507 C 17.1513 664.923 20.9853 665.022 25.5375 664.631 C 25.8446 666.288 26.283 667.065 25.4886 668.643 C 24.9841 674.97 24.6677 692.909 25.2161 699.388 L 25.0508 716.82 C 18.8704 716.838 12.1381 716.453 6.30195 718.348 C 4.19674 719.006 2.09604 719.678 0 720.364 L 0 668.668 L 10.8945 668.286 L 12.6269 665.507 z" fill="rgb(218,57,55)" transform="translate(0,0)"></path>
<path d="M 12.6269 665.507 C 17.1513 664.923 20.9853 665.022 25.5375 664.631 C 25.8446 666.288 26.283 667.065 25.4886 668.643 C 22.3985 667.586 14.8451 668.296 10.8945 668.286 L 12.6269 665.507 z" fill="rgb(33,10,9)" transform="translate(0,0)"></path>
<path d="M 6.30195 718.348 L 8.4494 719.785 C 13.6163 718.752 19.6174 719 24.9788 718.914 L 24.955 753.971 L 0 753.964 L 0 722.785 L 0 720.364 C 2.09604 719.678 4.19674 719.006 6.30195 718.348 z" fill="rgb(222,183,49)" transform="translate(0,0)"></path>
<path d="M 6.30195 718.348 L 8.4494 719.785 C 5.68448 720.924 2.86452 721.926 0 722.785 L 0 720.364 C 2.09604 719.678 4.19674 719.006 6.30195 718.348 z" fill="rgb(33,10,9)" transform="translate(0,0)"></path>
<path d="M 27.0474 493.653 C 89.0145 496.417 136.866 529.678 156.332 589.068 C 158.972 602.66 159.328 609.185 159.256 623.096 L 119.903 623.144 C 113.111 572.053 77.2223 542.549 26.9918 537.239 L 26.8347 513.43 C 26.9572 506.838 27.0281 500.246 27.0474 493.653 z" fill="rgb(244,244,243)" transform="translate(0,0)"></path>
<path d="M 4.10954 540.434 L 4.74439 538.786 C 10.7696 537.881 16.7346 538.542 22.9266 538.27 C 26.0888 534.265 25.3494 520.771 26.6564 514.287 L 26.8347 513.43 L 26.9918 537.239 C 77.2223 542.549 113.111 572.053 119.903 623.144 L 159.256 623.096 C 159.328 609.185 158.972 602.66 156.332 589.068 C 159.07 590.751 159.127 593.526 159.485 596.674 C 159.768 593.839 160.471 584.03 161.459 582.036 C 161.768 588.655 161.608 618.013 164.004 621.546 C 166.954 622.084 169.587 622.44 172.159 624.114 C 168.184 624.318 165.73 623.813 162.658 625.731 C 161.966 627.721 161.222 629.763 160.568 631.759 C 160.242 630.067 160.115 627.342 158.938 627.034 C 149.299 624.515 129.522 626.042 119.867 625.875 C 117.702 654.906 109.918 675.318 87.5709 695.5 C 78.6756 703.534 64.372 712.111 52.7202 715.184 C 55.6043 710.195 59.1736 709.389 64.1281 706.94 C 137.671 670.582 133.135 574.903 55.7541 546.245 C 48.655 543.616 35.6334 538.712 28.7067 541.874 C 27.974 545.566 28.5548 557.175 28.6759 561.548 C 43.2687 568.924 48.042 577.411 35.7595 590.82 C 44.0933 596.691 53.8216 602.906 53.4292 614.201 C 53.5297 615.464 53.8049 616.598 54.0595 617.841 L 55.2855 620.507 C 54.8354 626.14 55.674 631.436 54.4011 637.036 C 50.7933 652.911 40.0205 660.02 25.5375 664.631 C 20.9853 665.022 17.1513 664.923 12.6269 665.507 L 10.8945 668.286 L 0 668.668 L 0 650.785 L 0 637.147 L 0 634.21 L 0 623.487 L 0 620.914 L 0 599.996 L 0 591.128 L 0 576.789 L 0 572.789 L 0 541.785 L 4.10954 540.434 z" fill="rgb(16,10,10)" transform="translate(0,0)"></path>
<path d="M 39.9636 620.706 C 45.1757 620.704 50.0685 620.724 55.2855 620.507 C 54.8354 626.14 55.674 631.436 54.4011 637.036 C 50.7933 652.911 40.0205 660.02 25.5375 664.631 C 20.9853 665.022 17.1513 664.923 12.6269 665.507 C 11.645 660.24 12.0138 647.943 11.989 642.082 C 16.2728 644.015 18.7505 646.123 23.9966 645.883 C 28.6734 645.702 33.089 643.679 36.2811 640.257 C 41.3003 634.86 40.2975 627.517 39.9636 620.706 z" fill="rgb(244,244,243)" transform="translate(0,0)"></path>
<path d="M 4.10954 540.434 C 10.9836 539.969 17.6048 540.019 24.49 540.109 L 24.4759 561.519 C 12.9279 562.861 8.31638 563.76 0 572.789 L 0 541.785 L 4.10954 540.434 z" fill="rgb(218,57,55)" transform="translate(0,0)"></path>
<path d="M 0 576.789 C 8.64878 566.561 11.2985 566.045 24.3303 563.596 C 24.7012 572.565 24.5177 581.699 24.5058 590.693 C 16.0129 590.612 8.49159 590.88 0 591.128 L 0 576.789 z" fill="rgb(218,57,55)" transform="translate(0,0)"></path>
<path d="M 39.6171 617.918 C 35.3988 612.052 34.1399 609.561 27.1268 606.322 C 26.11 604.888 25.9678 594.588 27.5834 594.304 C 40.6093 592.017 49.187 605.41 53.4292 614.201 C 53.5297 615.464 53.8049 616.598 54.0595 617.841 C 49.3045 617.958 44.3882 617.91 39.6171 617.918 z" fill="rgb(218,57,55)" transform="translate(0,0)"></path>
<path d="M 6.21777 636.353 C 11.3897 638.179 9.56126 642.446 9.79952 647.579 C 10.7628 668.334 8.84372 666.891 0 650.785 L 0 637.147 C 2.10104 636.951 4.13156 636.648 6.21777 636.353 z" fill="rgb(218,57,55)" transform="translate(0,0)"></path>
<path d="M 0 599.996 C 10.9766 605.356 8.05297 611.051 8.86776 621.192 C 8.57781 621.931 8.27365 622.547 7.93602 623.263 C 4.75715 623.135 3.1581 623.235 0 623.487 L 0 620.914 L 0 599.996 z" fill="rgb(244,244,243)" transform="translate(0,0)"></path>
<path d="M 0 620.914 C 3.22772 620.908 5.61334 620.954 8.86776 621.192 C 8.57781 621.931 8.27365 622.547 7.93602 623.263 C 4.75715 623.135 3.1581 623.235 0 623.487 L 0 620.914 z" fill="rgb(0,0,0)" transform="translate(0,0)"></path>
<path d="M 0 623.487 C 3.1581 623.235 4.75715 623.135 7.93602 623.263 L 9.16761 624.911 C 6.87611 633.294 10.1092 633.033 0 634.21 L 0 623.487 z" fill="rgb(200,52,49)" transform="translate(0,0)"></path>
<path d="M 20.8367 623.841 C 21.4746 624.037 22.9943 624.346 23.1832 624.981 C 26.595 636.456 19.626 633.943 14.2349 633.874 C 13.9163 630.422 17.2317 624.736 20.8367 623.841 z" fill="rgb(4,90,157)" transform="translate(0,0)"></path>
<path d="M 12.8971 635.993 C 15.2319 635.937 21.274 635.483 22.938 636.523 C 24.0889 637.242 24.6042 642.908 21.0441 642.534 C 16.4176 642.047 14.7835 639.724 11.9638 636.539 L 12.8971 635.993 z" fill="rgb(218,57,55)" transform="translate(0,0)"></path>
<path d="M 9.16761 624.911 C 10.3899 628.64 9.54389 629.197 11.3165 632.849 L 12.4793 634.014 L 12.8971 635.993 L 11.9638 636.539 C 9.43385 635.929 8.44805 635.201 6.21777 636.353 C 4.13156 636.648 2.10104 636.951 0 637.147 L 0 634.21 C 10.1092 633.033 6.87611 633.294 9.16761 624.911 z" fill="rgb(0,0,0)" transform="translate(0,0)"></path>
<path d="M 11.3165 632.849 C 12.5509 623.57 9.69033 622.134 20.8367 623.841 C 17.2317 624.736 13.9163 630.422 14.2349 633.874 L 12.4793 634.014 L 11.3165 632.849 z" fill="rgb(25,61,99)" transform="translate(0,0)"></path>
<path d="M 27.4787 565.095 C 39.2592 569.063 43.0386 577.259 34.8492 587.404 C 25.755 593.544 26.9284 591.274 27.0308 581.865 C 27.0905 576.374 26.6127 570.515 27.4787 565.095 z" fill="rgb(222,183,49)" transform="translate(0,0)"></path>
<path d="M 8.04379 603.084 C 6.55694 597.743 16.9034 594.321 21.0243 593.879 C 25.9878 593.346 23.7119 603.154 23.4427 606.019 C 23.3977 606.552 14.9491 608.068 14.2407 610.283 C 13.7289 610.897 12.3883 612.084 11.4605 611.642 C 10.6282 608.93 10.5481 607.853 9.44093 604.841 C 8.51708 604.085 8.52179 604.164 8.04379 603.084 z" fill="rgb(136,28,32)" transform="translate(0,0)"></path>
<path d="M 8.04379 603.084 C 8.81668 603.829 8.81669 603.91 9.44093 604.841 C 8.51708 604.085 8.52179 604.164 8.04379 603.084 z" fill="rgb(59,15,13)" transform="translate(0,0)"></path>
<path d="M 20.0064 609.545 C 23.2239 609.755 24.0036 609.936 24.0511 613.345 C 24.1752 622.243 24.2203 620.381 16.542 621.37 C 5.99247 619.104 15.2851 613.07 20.0064 609.545 z" fill="rgb(218,57,55)" transform="translate(0,0)"></path>
<path d="M 26.8405 624 L 33.6956 624.04 C 38.6623 624.111 37.0529 630.165 36.9493 633.931 C 25.4789 633.986 26.9433 635.496 26.8405 624 z" fill="rgb(4,90,157)" transform="translate(0,0)"></path>
<path d="M 26.4915 609.578 C 32.8096 612.791 34.3533 614.293 36.953 620.899 C 24.6804 620.847 25.854 622.499 26.4915 609.578 z" fill="rgb(218,57,55)" transform="translate(0,0)"></path>
<path d="M 25.9191 636.024 C 30.8863 636.379 34.8436 634.721 32.7177 640.304 C 25.6709 642.435 26.4992 643.203 25.9191 636.024 z" fill="rgb(218,57,55)" transform="translate(0,0)"></path>
<path d="M 27.4398 668.786 C 42.7097 669.092 58.497 672.481 58.9851 692.505 C 59.2412 703.011 52.1738 709.572 43.4071 714.319 C 36.6095 716.04 34.4679 715.935 27.6745 716.886 C 27.6503 710.12 27.8996 703.191 27.1836 696.489 C 27.8063 691.933 27.3518 674.617 27.4398 668.786 z" fill="rgb(4,90,157)" transform="translate(0,0)"></path>
<path d="M 342.021 755.678 L 405.635 755.613 C 325.684 835.538 245.314 915.042 164.528 994.122 L 0 829.372 L 0 762.343 L 164.688 928.866 C 199.992 893.825 235.564 859.055 271.401 824.558 C 294.293 802.241 318.682 777.113 342.021 755.678 z" fill="rgb(244,244,243)" transform="translate(0,0)"></path>
<path d="M 203.914 622.588 C 213.288 621.642 285.57 621.015 291.724 622.846 L 291.685 624.881 C 292.77 636.237 292.095 656.016 292.073 668.181 C 291.949 696.228 291.965 724.275 292.121 752.321 L 204.147 752.31 C 195.631 752.336 170.801 751.901 163.086 752.977 C 162.955 727.301 162.953 701.625 163.079 675.95 C 163.166 660.986 163.802 640.133 162.658 625.731 C 165.73 623.813 168.184 624.318 172.159 624.114 C 173.875 624.364 177.427 624.769 178.924 625.229 L 180.982 625.01 C 188.07 624.527 193.86 624.636 200.97 624.781 C 200.918 636.387 200.44 648.759 200.821 660.281 C 201.43 678.705 196.543 701.788 211.722 715.373 L 212.996 713.958 C 208.172 708.667 203.144 700.202 203.465 692.922 C 204.298 674.093 200.334 641.594 203.942 624.207 L 203.914 622.588 z" fill="rgb(222,183,49)" transform="translate(0,0)"></path>
<path d="M 172.159 624.114 C 173.875 624.364 177.427 624.769 178.924 625.229 C 178.657 642.35 178.705 659.471 178.56 676.589 C 178.109 695.918 178.561 714.419 193.079 729.382 C 212.017 748.901 246.699 748.487 266.366 729.506 C 288.697 707.952 280.23 669.54 281.577 641.587 C 281.804 636.874 280.286 629.329 283.18 625.405 C 286.776 624.802 288.041 624.814 291.685 624.881 C 292.77 636.237 292.095 656.016 292.073 668.181 C 291.949 696.228 291.965 724.275 292.121 752.321 L 204.147 752.31 C 195.631 752.336 170.801 751.901 163.086 752.977 C 162.955 727.301 162.953 701.625 163.079 675.95 C 163.166 660.986 163.802 640.133 162.658 625.731 C 165.73 623.813 168.184 624.318 172.159 624.114 z" fill="rgb(244,244,243)" transform="translate(0,0)"></path>
<path d="M 203.942 624.207 C 219.361 625.201 241.007 624.432 257.052 624.435 C 257.035 638.458 257.19 652.581 257.105 666.57 C 257.013 681.651 259.866 701.275 248.406 712.787 C 239.379 721.855 222.746 722.157 212.996 713.958 C 208.172 708.667 203.144 700.202 203.465 692.922 C 204.298 674.093 200.334 641.594 203.942 624.207 z" fill="rgb(4,90,157)" transform="translate(0,0)"></path>
<path d="M 203.914 622.588 C 213.288 621.642 285.57 621.015 291.724 622.846 L 291.685 624.881 C 288.041 624.814 286.776 624.802 283.18 625.405 C 280.286 629.329 281.804 636.874 281.577 641.587 C 280.23 669.54 288.697 707.952 266.366 729.506 C 246.699 748.487 212.017 748.901 193.079 729.382 C 178.561 714.419 178.109 695.918 178.56 676.589 C 178.705 659.471 178.657 642.35 178.924 625.229 L 180.982 625.01 C 180.958 642.387 179.613 693.404 183.005 706.382 C 185 714.317 189.103 721.565 194.878 727.361 C 204.26 736.69 217.835 741.521 230.957 741.42 C 243.918 741.251 256.27 735.893 265.248 726.545 C 273.5 718.093 277.854 707.79 279.061 696.117 C 279.009 678.952 278.52 655.445 279.884 638.676 L 279.85 624.7 L 259.464 624.689 C 259.526 639.43 259.163 654.808 259.607 669.496 C 260.27 691.478 261.02 722.039 230.045 722.094 C 223.323 722.157 216.809 719.767 211.722 715.373 L 212.996 713.958 C 222.746 722.157 239.379 721.855 248.406 712.787 C 259.866 701.275 257.013 681.651 257.105 666.57 C 257.19 652.581 257.035 638.458 257.052 624.435 C 241.007 624.432 219.361 625.201 203.942 624.207 L 203.914 622.588 z" fill="rgb(16,10,10)" transform="translate(0,0)"></path>
<path d="M 279.061 696.117 C 279.009 678.952 278.52 655.445 279.884 638.676 C 280.48 648.184 281.57 688.833 279.061 696.117 z" fill="rgb(101,80,27)" transform="translate(0,0)"></path>
<path d="M 166.519 754.258 C 180.183 756.24 211.785 754.397 227.409 754.573 C 264.232 754.988 301.253 754.921 338.096 755.344 L 223.424 867.622 C 207.313 883.289 179.245 908.942 165.053 924.889 C 164.807 869.007 165.647 811.434 164.562 755.797 L 166.519 754.258 z" fill="rgb(218,57,55)" transform="translate(0,0)"></path>
<path d="M 163.224 755.422 C 161.705 763.122 162.277 791.16 162.289 800.544 L 162.264 880.136 C 162.24 892.781 162.68 910.189 161.925 922.572 L 51.284 810.516 C 36.8772 795.924 14.2688 771.009 0 758.454 L 0 756.357 L 113.378 756.443 C 126.863 756.34 150.264 756.737 163.224 755.422 z" fill="rgb(4,90,157)" transform="translate(0,0)"></path>
<path d="M 295.036 633.09 C 307.983 633.122 320.93 633.082 333.877 632.969 C 357.567 632.849 379.945 631.027 398.628 649.094 C 409.914 660.007 414.152 673.378 414.249 688.629 L 414.158 690.635 C 411.994 702.579 407.73 712.789 399.012 721.421 C 379.911 740.331 358.724 738.359 334.28 738.333 L 294.912 738.256 L 294.918 717.973 C 307.155 718.051 348.214 719.156 358.046 716.736 C 364.33 715.214 370.122 712.114 374.873 707.729 C 391.748 691.976 382.584 658.478 361.897 655.3 C 342.346 652.297 315.18 653.701 295.002 653.764 L 295.036 633.09 z" fill="rgb(244,244,243)" transform="translate(0,0)"></path>
<path d="M 294.67 624.111 C 305.841 623.926 412.001 622.959 415.54 624.517 C 415.929 627.351 416.106 628.821 416.1 631.766 C 416.057 640.924 415.806 650.873 416.001 659.961 C 415.315 663.893 415.682 664.539 413.645 667.918 C 396.624 622.483 349.343 630.694 311.04 630.993 C 301.79 631.065 295.882 633.588 294.67 624.111 z" fill="rgb(218,57,55)" transform="translate(0,0)"></path>
<path d="M 416.001 659.961 C 416.032 661.899 416.438 671.34 415.366 672.345 C 414.205 672.264 413.807 668.73 413.645 667.918 C 415.682 664.539 415.315 663.893 416.001 659.961 z" fill="rgb(200,52,49)" transform="translate(0,0)"></path>
<path d="M 294.822 656.084 C 306.184 656.145 318.247 656.084 329.483 655.905 C 350.913 655.563 379.429 653.625 381.037 682.719 C 381.654 693.886 379.112 699.54 371.659 707.811 C 356.627 719.289 340.657 715.534 322.867 715.858 C 313.488 716.028 304.08 715.756 294.673 715.863 C 293.441 698.361 294.407 673.741 294.822 656.084 z" fill="rgb(4,90,157)" transform="translate(0,0)"></path>
<path d="M 413.523 702.861 L 416.142 706.35 C 415.749 721.172 416.291 738.027 416.439 752.996 L 339.817 752.877 C 329.487 752.873 305.878 753.467 296.487 752.222 L 295.299 750.489 C 295.063 747.234 294.78 745.238 295.396 742.01 C 300.015 740.414 308.986 740.849 314.064 740.775 C 355.268 740.182 393.251 749.307 413.523 702.861 z" fill="rgb(4,90,157)" transform="translate(0,0)"></path>
<path d="M 413.523 702.861 C 413.709 702.293 414.263 699.805 415.097 699.376 C 415.203 699.369 415.31 699.361 415.416 699.354 C 416.35 700.408 416.119 705.226 416.142 706.35 L 413.523 702.861 z" fill="rgb(4,90,157)" transform="translate(0,0)"></path>
<path d="M 1751.19 496.012 C 1751.61 493.877 1751.74 493.642 1752.7 491.671 C 1758.14 489.288 1782.99 490.865 1790.64 490.849 C 1804.73 491.196 1818.82 491.268 1832.9 491.067 L 1833.02 493.809 L 1843.07 491.284 C 1843.34 513.451 1842.81 536.035 1843.21 558.023 L 1845.77 558.902 L 1847.1 559.207 C 1851.75 561.134 1874.94 560.336 1881.9 560.412 C 1882.11 580.406 1882.1 600.401 1881.87 620.395 C 1878.42 620.572 1873.51 620.542 1870.46 621.81 C 1874.74 621.711 1879.01 621.51 1883.28 621.208 L 1884.72 624.358 L 1885.71 626.796 C 1895.96 626.956 1916.28 627.524 1925.9 626.589 L 1926.06 627.331 C 1927.25 633.184 1927.23 639.157 1928.3 645.279 C 1931.71 664.754 1944.14 688.186 1960.87 699.561 C 1966.17 697.974 1980.62 708.616 1990.23 711.903 C 1982.44 699.976 1981.31 684.041 1994.62 674.671 C 1998.84 671.696 2011.59 666.641 2016.45 667.691 L 2016.27 668.463 L 2008.52 670.713 C 2012.86 671.017 2015.32 671.364 2019.58 670.537 L 2020.66 667.86 C 2023.78 667.206 2022.48 667.206 2025.78 668.219 C 2032.99 669.128 2040.75 668.534 2048 668.127 L 2048 722.216 L 2048 725.161 L 2048 755.614 L 2048 760.882 L 2048 825.353 C 2018.99 851.568 1981.72 891.796 1953.31 920.37 C 1936.13 937.449 1919.07 954.648 1902.12 971.966 C 1896.74 977.508 1884.87 989.133 1880.31 994.798 C 1878.65 996.312 1879.58 995.881 1877.53 996.308 C 1869.52 989.057 1862.43 979.095 1855.09 972.727 C 1839.08 958.833 1824.97 943.834 1809.93 928.987 L 1678.64 799.6 C 1665.05 786.039 1651.39 772.115 1637.19 759.131 C 1636.45 756.453 1626.63 755.312 1626.53 754.467 C 1623.79 730.523 1625.81 703.284 1628.29 679.096 C 1628.29 679.096 1630.64 676.879 1630.85 676.677 L 1632.04 670.137 L 1629.84 670.795 L 1631.07 665.804 C 1652.67 605.004 1741.72 641.769 1750.28 626.319 C 1748.9 623.765 1749.68 624.641 1746.23 623.251 C 1749.2 621.519 1747.73 624.552 1751.12 620.435 C 1749.31 618.07 1742.9 620.077 1736.88 617.156 L 1736.47 615.177 C 1738.1 615.086 1747.06 617.168 1749.23 617.633 C 1749.13 606.976 1748.36 577.02 1749.95 567.209 C 1750.54 565.74 1750.77 551.751 1751.18 548.486 C 1752.71 544.06 1752.23 500.665 1751.19 496.012 z" fill="rgb(16,10,10)" transform="translate(0,0)"></path>
<path d="M 1636.99 755.2 L 1702.61 755.1 C 1718.59 768.573 1743.4 795.001 1759.17 810.487 L 1880.71 930.042 C 1934.95 873.01 1993.58 817.541 2048 760.882 L 2048 825.353 C 2018.99 851.568 1981.72 891.796 1953.31 920.37 C 1936.13 937.449 1919.07 954.648 1902.12 971.966 C 1896.74 977.508 1884.87 989.133 1880.31 994.798 L 1636.99 755.2 z" fill="rgb(244,244,243)" transform="translate(0,0)"></path>
<path d="M 1885.71 626.796 C 1895.96 626.956 1916.28 627.524 1925.9 626.589 L 1926.06 627.331 C 1927.25 633.184 1927.23 639.157 1928.3 645.279 C 1931.71 664.754 1944.14 688.186 1960.87 699.561 C 1978.81 714.345 1996.37 719.058 2018.92 720.817 L 2018.91 755.129 C 1975.58 755.463 1954.29 747.726 1921.11 719.162 C 1920.35 717.809 1908.81 705.481 1906.18 701.603 C 1889.77 677.385 1885.21 655.102 1885.71 626.796 z" fill="rgb(244,244,243)" transform="translate(0,0)"></path>
<path d="M 1632.04 670.137 C 1649.72 619.628 1706.51 632.27 1749.62 632.11 L 1749.62 652.3 C 1729.05 652.246 1704.36 650.737 1684.36 653.96 C 1658.58 658.117 1652.84 691.914 1670.69 708.666 C 1674.36 712.132 1678.85 714.602 1683.74 715.841 C 1694.02 718.49 1736.95 717.76 1749.83 717.792 L 1749.78 737.957 L 1710.6 738.023 C 1693.8 738.039 1676.84 739.317 1661.08 732.374 C 1640.63 723.369 1630.49 705.318 1630.51 683.386 C 1630.49 681.145 1630.6 678.905 1630.85 676.677 L 1632.04 670.137 z" fill="rgb(244,244,243)" transform="translate(0,0)"></path>
<path d="M 1843.21 558.023 L 1845.77 558.902 L 1847.1 559.207 C 1851.75 561.134 1874.94 560.336 1881.9 560.412 C 1882.11 580.406 1882.1 600.401 1881.87 620.395 C 1878.42 620.572 1873.51 620.542 1870.46 621.81 C 1874.74 621.711 1879.01 621.51 1883.28 621.208 L 1884.72 624.358 L 1885.71 626.796 C 1885.21 655.102 1889.77 677.385 1906.18 701.603 C 1908.81 705.481 1920.35 717.809 1921.11 719.162 C 1921.42 720.121 1921.78 721.217 1922.45 721.987 C 1941.05 743.482 1965.86 752.119 1992.1 756.282 C 1990.24 756.605 1967.63 754.365 1962.97 754.271 C 1938.93 753.786 1905.75 756.478 1882.48 754.417 C 1882.41 743.993 1883.39 671.69 1881.36 668.284 C 1881.17 653.485 1881.28 638.683 1881.71 623.889 C 1877.99 621.266 1859.82 621.007 1854.92 623.9 C 1851.72 623.909 1848.61 623.441 1846.22 625.225 C 1844.98 627.833 1845.32 630.138 1845.44 633 L 1843.46 632.998 C 1843.33 628.753 1843.99 627.633 1842.05 624.521 C 1830.49 622.442 1807.19 625.093 1793.71 623.585 L 1792.71 623.467 L 1793 621.865 L 1843.21 621.907 C 1843.15 612.463 1844.1 566.921 1842.56 561.234 L 1842.72 559.014 L 1843.21 558.023 z" fill="rgb(0,0,0)" transform="translate(0,0)"></path>
<path d="M 1842.56 561.234 C 1844.1 566.921 1843.15 612.463 1843.21 621.907 L 1793 621.865 L 1752.05 621.962 C 1751.97 597.471 1750.82 584.395 1758.95 561.337 C 1786.58 560.822 1814.76 561.705 1842.56 561.234 z" fill="rgb(222,183,49)" transform="translate(0,0)"></path>
<path d="M 1867.98 624.083 L 1881.71 623.889 C 1881.28 638.683 1881.17 653.485 1881.36 668.284 C 1880.71 696.093 1881.33 726.247 1881.37 754.236 C 1838.33 754.026 1795.28 754.152 1752.24 754.615 L 1752.12 624.148 C 1755.88 624.206 1759.64 624.31 1763.4 624.46 C 1763.63 643.308 1761.54 692.056 1765.74 707.408 C 1767.77 715.067 1771.73 722.074 1777.26 727.748 C 1797.03 748.053 1832.99 748.826 1853.26 728.804 C 1859.18 722.958 1863.42 715.619 1865.52 707.564 C 1869.27 693.453 1868 641.782 1867.98 624.083 z" fill="rgb(244,244,243)" transform="translate(0,0)"></path>
<path d="M 1854.92 623.9 C 1858.27 623.921 1862.64 623.513 1865.31 625.194 C 1866.83 631.7 1865.81 692.503 1864.54 700.15 C 1863.46 706.896 1861.08 713.368 1857.53 719.206 C 1850.96 729.897 1841.51 736.678 1829.3 739.517 C 1815.28 742.91 1800.49 740.531 1788.25 732.914 C 1759.31 714.577 1767.01 682.167 1765.93 653.202 C 1765.58 643.697 1765.93 633.756 1765.93 624.208 L 1785.2 624.235 C 1785.13 648.519 1783.86 675.681 1786.28 699.11 C 1788.55 721.012 1822.79 729.894 1836.86 713.287 C 1840.67 708.797 1843.59 703.893 1844.61 697.813 C 1846.4 677.642 1845.53 653.236 1845.44 633 C 1845.32 630.138 1844.98 627.833 1846.22 625.225 C 1848.61 623.441 1851.72 623.909 1854.92 623.9 z" fill="rgb(222,183,49)" transform="translate(0,0)"></path>
<path d="M 1792.71 623.467 L 1793.71 623.585 C 1807.19 625.093 1830.49 622.442 1842.05 624.521 C 1843.99 627.633 1843.33 628.753 1843.46 632.998 C 1843.06 647.627 1845.04 694.122 1840.34 704.371 C 1837.45 710.574 1832.17 715.34 1825.7 717.577 C 1806.24 724.206 1787.22 711.58 1787.77 690.454 C 1788.34 668.669 1786.83 646.52 1788.21 624.944 C 1788.27 624.082 1791.85 623.647 1792.71 623.467 z" fill="rgb(4,90,157)" transform="translate(0,0)"></path>
<path d="M 1843.07 491.284 C 1843.34 513.451 1842.81 536.035 1843.21 558.023 L 1842.72 559.014 C 1815.1 558.794 1787.49 558.755 1759.87 558.896 C 1776.37 525.659 1797.26 505.927 1833.02 493.809 L 1843.07 491.284 z" fill="rgb(244,244,243)" transform="translate(0,0)"></path>
<path d="M 1751.19 496.012 C 1751.61 493.877 1751.74 493.642 1752.7 491.671 C 1758.14 489.288 1782.99 490.865 1790.64 490.849 C 1804.73 491.196 1818.82 491.268 1832.9 491.067 C 1827.6 493.404 1822.53 494.785 1817.26 497.395 C 1782.97 514.362 1769.83 531.762 1754.63 565.281 C 1750.99 559.252 1754.9 558.62 1752.15 555.351 L 1751.18 548.486 C 1752.71 544.06 1752.23 500.665 1751.19 496.012 z" fill="rgb(218,57,55)" transform="translate(0,0)"></path>
<path d="M 2048 668.127 L 2048 722.216 C 2037.56 718.111 2032.73 718.377 2021.6 718.232 C 2021.58 710.297 2020.89 674.05 2022.87 669.281 L 2025.78 668.219 C 2032.99 669.128 2040.75 668.534 2048 668.127 z" fill="rgb(218,57,55)" transform="translate(0,0)"></path>
<path d="M 2021.32 720.629 C 2033.75 720.788 2036.33 720.08 2048 725.161 L 2048 755.614 L 2021.27 755.562 C 2021.36 743.918 2021.37 732.274 2021.32 720.629 z" fill="rgb(222,183,49)" transform="translate(0,0)"></path>
<path d="M 1752.15 555.351 C 1754.9 558.62 1750.99 559.252 1754.63 565.281 C 1754.5 566.563 1754.18 567.827 1753.8 569.058 L 1752.71 569.558 L 1753.57 569.697 L 1752.62 569.523 C 1752.75 570.245 1752.74 569.974 1752.71 570.397 C 1751.29 569.331 1751.79 557.321 1752.15 555.351 z" fill="rgb(218,57,55)" transform="translate(0,0)"></path>
<path d="M 1706.58 755.097 C 1717.2 755.07 1729.11 754.65 1739.6 755.298 C 1786.06 758.168 1832.94 756.914 1879.56 756.882 C 1879.65 772.249 1880.84 921.364 1879.09 924.454 L 1878.6 924.42 C 1878.11 924.002 1877.14 923.209 1876.8 922.765 L 1766.3 813.913 C 1747.17 795.022 1726.15 773.092 1706.58 755.097 z" fill="rgb(218,57,55)" transform="translate(0,0)"></path>
<path d="M 1876.8 922.765 C 1877.48 923.304 1877.98 923.82 1878.6 924.42 C 1878.11 924.002 1877.14 923.209 1876.8 922.765 z" fill="rgb(136,28,32)" transform="translate(0,0)"></path>
<path d="M 1882.07 757.949 L 2046.82 757.913 C 2020.75 785.799 1991.43 814.224 1964.33 841.335 C 1936.55 868.981 1910.93 896.71 1882.41 924.161 C 1883.43 905.414 1882.75 878.926 1882.61 859.933 L 1882.07 757.949 z" fill="rgb(4,90,157)" transform="translate(0,0)"></path>
<path d="M 1686.14 655.32 C 1705.85 654.382 1729.94 654.984 1749.98 654.951 L 1750 715.539 L 1727.5 715.31 C 1715.46 715.303 1688.1 716.858 1678.65 711.46 C 1655.14 698.024 1657.7 663.426 1686.14 655.32 z" fill="rgb(4,90,157)" transform="translate(0,0)"></path>
<path d="M 1627.72 702.75 L 1631.48 703.866 C 1647.15 740.786 1675.53 740.249 1709.42 740.218 L 1749.94 740.123 L 1750 752.821 C 1710.01 751.872 1668.21 753.269 1627.76 752.823 C 1627.49 736.325 1627.68 719.279 1627.72 702.75 z" fill="rgb(4,90,157)" transform="translate(0,0)"></path>
<path d="M 2010.77 672.342 L 2012.17 672.186 C 2013.72 672.022 2018.98 671.716 2019.08 672.62 C 2020.09 681.8 2019.41 710.611 2019.24 718.187 C 2011.69 717.748 2007.9 717.456 2000.57 715.439 C 1998.71 714.177 1995.11 712.22 1993.9 710.53 C 1979.39 690.166 1990.2 675.302 2010.77 672.342 z" fill="rgb(4,90,157)" transform="translate(0,0)"></path>
<path d="M 1627.72 702.75 C 1628.17 690.996 1629.71 698.577 1631.48 703.866 L 1627.72 702.75 z" fill="rgb(4,90,157)" transform="translate(0,0)"></path>
<path d="M 293.209 408.421 C 333.641 412.451 361.771 439.99 368.271 479.842 L 370.389 479.024 L 371.142 489.047 C 386.449 489.016 404.164 488.552 419.28 489.141 L 418.47 491.087 C 420.577 514.467 403.271 549.52 388.333 567.366 C 370.911 587.937 348.208 603.366 322.668 611.994 C 314.483 614.736 306.26 616.154 298.921 618.506 C 296.441 621.703 296.787 618.012 291.724 622.846 C 285.57 621.015 213.288 621.642 203.914 622.588 C 202.009 617.502 202.997 568.172 203.487 559.796 L 202.895 557.774 C 204.937 545.91 201.138 498.034 203.985 490.79 C 204.084 490.692 204.178 490.589 204.281 490.495 C 212.051 483.437 277.429 487.77 290.786 487.846 C 290.992 465.925 289.377 428.301 293.209 408.421 z" fill="rgb(16,10,10)" transform="translate(0,0)"></path>
<path d="M 418.47 491.087 C 420.577 514.467 403.271 549.52 388.333 567.366 C 370.911 587.937 348.208 603.366 322.668 611.994 C 314.483 614.736 306.26 616.154 298.921 618.506 C 296.766 618.567 297.708 618.861 295.982 617.675 C 294.55 612.669 295.171 576.712 295.209 568.72 C 333.666 562.03 359.963 537.919 369.169 499.684 C 369.713 498.139 370.187 493.356 370.424 491.462 C 386.44 491.519 402.456 491.394 418.47 491.087 z" fill="rgb(244,244,243)" transform="translate(0,0)"></path>
<path d="M 203.487 559.796 C 230.571 560.122 258.661 559.505 285.519 560.247 C 292.15 577.829 294.497 604.646 291.724 622.846 C 285.57 621.015 213.288 621.642 203.914 622.588 C 202.009 617.502 202.997 568.172 203.487 559.796 z" fill="rgb(222,183,49)" transform="translate(0,0)"></path>
<path d="M 293.209 408.421 C 333.641 412.451 361.771 439.99 368.271 479.842 C 368.565 484.763 369.361 484.51 367.17 487.904 C 363.065 489.847 357.897 488.35 352.617 488.947 C 349.87 488.465 349.056 488.515 346.357 488.938 C 331.435 488.06 308.464 488.478 293.496 488.688 C 293.929 469.397 293.686 449.966 293.918 430.661 C 294.002 423.689 294.216 415.233 293.209 408.421 z" fill="rgb(4,90,157)" transform="translate(0,0)"></path>
<path d="M 295.289 492.154 C 319.901 491.994 346.004 492.597 370.424 491.462 C 370.187 493.356 369.713 498.139 369.169 499.684 C 363.248 503.135 357.947 521.006 352.84 529.188 C 347.379 538 340.27 545.677 331.903 551.798 C 323.373 558.126 307.44 565.675 296.888 564.092 C 294.297 560.65 295.085 500.916 295.289 492.154 z" fill="rgb(0,0,0)" transform="translate(0,0)"></path>
<path d="M 203.985 490.79 C 240.254 502.208 263.213 515.719 281.554 550.804 C 282.737 553.046 283.836 555.332 284.847 557.656 C 262.504 557.397 224.362 556.039 202.895 557.774 C 204.937 545.91 201.138 498.034 203.985 490.79 z" fill="rgb(244,244,243)" transform="translate(0,0)"></path>
<path d="M 346.357 488.938 C 349.056 488.515 349.87 488.465 352.617 488.947 C 350.848 491.461 338.711 492.374 337.509 490.813 C 337.524 490.702 337.539 490.591 337.553 490.48 C 338.001 490.24 343.808 489.661 346.357 488.938 z" fill="rgb(16,10,10)" transform="translate(0,0)"></path>
<path d="M 211.308 490.48 C 238.216 490.805 265.126 490.948 292.036 490.91 L 292.05 559.27 C 292.061 561.586 292.402 565.278 291.501 567.436 C 291.267 567.994 290.612 567.099 290.487 566.847 C 290.019 565.902 289.863 564.916 289.619 563.891 C 287.868 558.708 285.756 553.653 283.298 548.765 C 267.291 517.566 243.982 500.984 211.308 490.48 z" fill="rgb(218,57,55)" transform="translate(0,0)"></path>
<path d="M 292.05 559.27 C 292.061 561.586 292.402 565.278 291.501 567.436 C 291.267 567.994 290.612 567.099 290.487 566.847 C 290.019 565.902 289.863 564.916 289.619 563.891 C 290.548 562.259 291.232 560.982 292.05 559.27 z" fill="rgb(200,52,49)" transform="translate(0,0)"></path>
<path d="M 32.5771 255.696 L 158.234 255.146 L 158.305 326.163 C 158.312 333.604 158.678 356.536 157.586 362.494 L 157.491 364.763 C 147.986 364.622 113.729 365.721 106.178 363.941 C 101.536 361.066 42.7476 364.757 36.3723 362.698 L 37.096 361.948 C 57.6252 344.676 59.2909 332.276 59.1275 306.861 C 53.1939 306.912 40.2264 307.338 34.9104 306.587 L 35.2078 305.729 C 55.9974 290.634 55.4648 268.059 32.5771 255.696 z" fill="rgb(218,57,55)" transform="translate(0,0)"></path>
<path d="M 106.178 363.941 C 101.536 361.066 42.7476 364.757 36.3723 362.698 L 37.096 361.948 C 76.6118 362.08 118.241 361.487 157.586 362.494 L 157.491 364.763 C 147.986 364.622 113.729 365.721 106.178 363.941 z" fill="rgb(59,15,13)" transform="translate(0,0)"></path>
<path d="M 1625.63 491.258 C 1631.18 491.215 1672.49 490.349 1675.45 492.029 C 1698.76 491.571 1722.18 491.735 1745.49 491.832 C 1749.4 491.848 1749.6 492.552 1751.19 496.012 C 1752.23 500.665 1752.71 544.06 1751.18 548.486 C 1750.77 551.751 1750.54 565.74 1749.95 567.209 C 1748.36 577.02 1749.13 606.976 1749.23 617.633 C 1747.06 617.168 1738.1 615.086 1736.47 615.177 C 1674.79 596.117 1634.59 556.72 1625.63 491.258 z" fill="rgb(244,244,243)" transform="translate(0,0)"></path>
<path d="M 1675.45 492.029 C 1698.76 491.571 1722.18 491.735 1745.49 491.832 C 1749.4 491.848 1749.6 492.552 1751.19 496.012 C 1752.23 500.665 1752.71 544.06 1751.18 548.486 C 1750.77 551.751 1750.54 565.74 1749.95 567.209 C 1734.9 564.32 1720.73 557.978 1708.55 548.682 C 1689.21 534.055 1678.76 515.798 1675.45 492.029 z" fill="rgb(0,0,0)" transform="translate(0,0)"></path>
<path d="M 27.9825 297.849 L 30.0632 297.847 C 30.1777 301.194 28.8592 305.866 33.3281 304.101 L 35.2078 305.729 L 34.9104 306.587 C 40.2264 307.338 53.1939 306.912 59.1275 306.861 C 59.2909 332.276 57.6252 344.676 37.096 361.948 L 36.3723 362.698 C 42.7476 364.757 101.536 361.066 106.178 363.941 C 104.869 389.72 97.4165 408.252 77.8149 425.942 C 60.197 441.694 37.067 449.844 13.4658 448.615 C 8.60474 448.364 4.75033 447.64 0 446.649 L 0 444.09 L 0 423.263 L 0 420.827 L 0 364.951 L 0 360.117 L 0 309.029 L 0 306.963 C 4.22025 306.936 22.2938 307.311 26.8937 306.436 C 27.9209 306.241 27.868 299.84 27.9825 297.849 z" fill="rgb(4,90,157)" transform="translate(0,0)"></path>
<path d="M 27.9825 297.849 L 30.0632 297.847 C 30.1777 301.194 28.8592 305.866 33.3281 304.101 L 35.2078 305.729 L 34.9104 306.587 C 40.2264 307.338 53.1939 306.912 59.1275 306.861 C 59.2909 332.276 57.6252 344.676 37.096 361.948 L 36.3723 362.698 C 42.7476 364.757 101.536 361.066 106.178 363.941 C 104.869 389.72 97.4165 408.252 77.8149 425.942 C 60.197 441.694 37.067 449.844 13.4658 448.615 C 8.60474 448.364 4.75033 447.64 0 446.649 L 0 444.09 C 4.89782 445.08 10.108 445.834 15.1167 446.001 C 38.2852 446.857 60.8293 438.386 77.7011 422.485 C 95.2955 406.016 102.591 388.463 103.449 364.743 C 95.5284 364.766 46.9323 363.522 43.2965 366.024 L 41.1194 371.82 C 40.973 369.909 40.7935 368.002 40.5808 366.097 L 38.5315 364.462 C 27.2782 365.437 11.8072 364.751 0 364.951 L 0 360.117 L 0 309.029 L 0 306.963 C 4.22025 306.936 22.2938 307.311 26.8937 306.436 C 27.9209 306.241 27.868 299.84 27.9825 297.849 z" fill="rgb(16,10,10)" transform="translate(0,0)"></path>
<path d="M 0 309.029 L 27.1423 308.966 C 27.0371 313.81 26.2858 319.775 26.2416 323.433 C 20.1821 342.619 15.5844 347.886 0 360.117 L 0 309.029 z" fill="rgb(218,57,55)" transform="translate(0,0)"></path>
<path d="M 26.2416 323.433 C 30.5737 326.419 29.8777 330.128 28.7147 335.189 C 27.7034 341.634 28.2057 355.708 28.0825 362.966 C 30.0709 364.254 34.9966 363.944 38.5315 364.462 C 27.2782 365.437 11.8072 364.751 0 364.951 L 0 360.117 C 15.5844 347.886 20.1821 342.619 26.2416 323.433 z" fill="rgb(218,57,55)" transform="translate(0,0)"></path>
<path d="M 26.2416 323.433 C 30.5737 326.419 29.8777 330.128 28.7147 335.189 C 28.4829 333.786 28.0705 329.774 27.4891 328.852 C 26.2888 330.052 25.1201 334.198 24.4587 336.028 C 16.4047 351.582 12.9279 352.389 0 362.993 C 7.64647 362.54 20.8331 361.528 28.0825 362.966 C 30.0709 364.254 34.9966 363.944 38.5315 364.462 C 27.2782 365.437 11.8072 364.751 0 364.951 L 0 360.117 C 15.5844 347.886 20.1821 342.619 26.2416 323.433 z" fill="rgb(33,10,9)" transform="translate(0,0)"></path>
<path d="M 38.5315 364.462 L 40.5808 366.097 C 40.7935 368.002 40.973 369.909 41.1194 371.82 C 38.841 376.197 38.4101 382.751 36.5062 387.609 C 29.3763 405.804 16.8654 413.565 0 420.827 L 0 364.951 C 11.8072 364.751 27.2782 365.437 38.5315 364.462 z" fill="rgb(244,244,243)" transform="translate(0,0)"></path>
<path d="M 43.2965 366.024 C 41.2223 396.991 28.2626 412.162 0 423.263 L 0 420.827 C 16.8654 413.565 29.3763 405.804 36.5062 387.609 C 38.4101 382.751 38.841 376.197 41.1194 371.82 L 43.2965 366.024 z" fill="rgb(0,0,0)" transform="translate(0,0)"></path>
<path d="M 106.178 363.941 C 113.729 365.721 147.986 364.622 157.491 364.763 C 154.095 400.656 136.588 431.881 108.882 454.779 C 78.4558 479.923 39.3002 491.978 0 488.298 L 0 446.649 C 4.75033 447.64 8.60474 448.364 13.4658 448.615 C 37.067 449.844 60.197 441.694 77.8149 425.942 C 97.4165 408.252 104.869 389.72 106.178 363.941 z" fill="rgb(222,183,49)" transform="translate(0,0)"></path>
<path d="M 293.913 364.562 C 364.826 367.102 418.02 417.34 419.28 489.141 C 404.164 488.552 386.449 489.016 371.142 489.047 L 370.389 479.024 C 364.444 436.831 335.198 411.807 293.875 406.219 L 293.913 364.562 z" fill="rgb(222,183,49)" transform="translate(0,0)"></path>
<path d="M 0 139.11 L 28.0711 139.205 L 27.7787 229.571 C 23.5189 218.517 22.2005 214.172 14.6775 205.024 L 13.9001 207.835 C 8.85072 202.436 5.98186 200.394 0 196.211 L 0 192.894 L 0 139.11 z" fill="rgb(218,57,55)" transform="translate(0,0)"></path>
<path d="M 0 192.894 C 6.59276 196.951 9.31597 199.597 14.6775 205.024 L 13.9001 207.835 C 8.85072 202.436 5.98186 200.394 0 196.211 L 0 192.894 z" fill="url(#Gradient1)" transform="translate(0,0)"></path>
<path d="M 27.9672 255.512 C 27.9662 268.034 27.3006 285.756 27.9825 297.849 C 27.868 299.84 27.9209 306.241 26.8937 306.436 C 22.2938 307.311 4.22025 306.936 0 306.963 L 0 255.976 C 8.27917 256.022 20.0219 256.435 27.9672 255.512 z" fill="rgb(4,90,157)" transform="translate(0,0)"></path>
<path d="M 1627.7 623.405 C 1651.31 623.808 1674.93 623.946 1698.54 623.821 C 1712.53 623.832 1732.76 624.351 1746.23 623.251 C 1749.68 624.641 1748.9 623.765 1750.28 626.319 C 1741.72 641.769 1652.67 605.004 1631.07 665.804 L 1629.84 670.795 L 1628.7 673.11 C 1627.59 671.703 1627.86 667.382 1627.77 665.145 L 1627.7 623.405 z" fill="rgb(218,57,55)" transform="translate(0,0)"></path>
<path d="M 0 196.211 C 5.98186 200.394 8.85072 202.436 13.9001 207.835 C 24.6661 222.643 27.6344 234.624 27.9289 253.08 L 0 253.104 L 0 196.211 z" fill="rgb(244,244,243)" transform="translate(0,0)"></path>
<path d="M 30.2261 257.021 C 37.935 261.561 45.1082 266.319 47.1662 275.483 C 50.6108 290.822 43.1042 296.323 33.3281 304.101 C 28.8592 305.866 30.1777 301.194 30.0632 297.847 C 30.5924 284.963 30.2257 270.044 30.2261 257.021 z" fill="rgb(244,244,243)" transform="translate(0,0)"></path>
<path d="M 0 254.83 C 6.5898 254.848 22.3269 254.494 27.9672 255.512 C 20.0219 256.435 8.27917 256.022 0 255.976 L 0 254.83 z" fill="rgb(25,61,99)" transform="translate(0,0)"></path>
<path d="M 1625.07 154.714 C 1627.1 158.007 1626.51 157.351 1627.46 160.972 L 1624.99 161.902 L 1625.07 154.714 z" fill="rgb(216,216,217)" transform="translate(0,0)"></path>
<path d="M 278.768 8.38747 C 281.339 8.15814 283.917 8.00748 286.497 7.93573 C 335.574 6.79838 382.096 34.1498 403.966 78.2285 C 413.904 98.2587 416.638 115.019 416.986 137.008 L 300.5 136.832 L 161.014 137.017 C 161.008 118.791 162.31 103.238 169.806 86.3713 C 189.934 41.0846 230.059 13.2942 278.768 8.38747 z" fill="rgb(218,57,55)" transform="translate(0,0)"></path>
<path d="M 1353.44 340.395 C 1420.16 337.8 1418.1 382.245 1417.86 433.754 C 1417.77 453.159 1418.08 473.744 1417.85 493.246 C 1417.43 529.344 1413.64 562.245 1370.96 568.924 C 1331.2 570.378 1306.84 557.6 1304.16 514.694 C 1302.73 491.7 1302.8 467.69 1303.22 444.665 C 1304.02 400.969 1293.65 345.447 1353.44 340.395 z" fill="rgb(244,244,243)" transform="translate(0,0)"></path>
<path d="M 1355.37 382.011 C 1357.49 381.86 1359.64 381.716 1361.76 381.884 C 1364.32 382.086 1366.85 382.79 1368.43 384.996 C 1372.71 390.976 1372.09 501.615 1370.66 515.867 C 1370.05 521.864 1368.38 524.787 1363.76 528.566 C 1360.1 528.981 1354.78 528.902 1352.75 525.438 C 1348.79 518.667 1349.05 506.225 1349.1 498.602 C 1349.35 464.652 1348.9 430.782 1349.51 396.846 C 1349.64 389.508 1349.93 386.982 1355.37 382.011 z" fill="rgb(0,0,0)" transform="translate(0,0)"></path>
<path d="M 664.561 340.399 C 728.334 336.561 728.929 381.127 727.467 428.948 C 727.305 434.243 727.892 440.452 727.515 445.63 C 724.261 490.257 742.992 559.316 680.878 568.875 C 656.598 570.02 631.879 566.883 621.359 541.5 C 608.832 511.279 615.23 464.949 613.845 432.155 C 612.84 408.372 611.707 376.638 625.85 357.616 C 634.888 345.459 650.304 341.721 664.561 340.399 z" fill="rgb(244,244,243)" transform="translate(0,0)"></path>
<path d="M 667.832 380.932 C 678.897 382.028 680.813 385.452 680.84 396.791 C 680.936 437.458 681.807 478.363 680.519 518.985 C 680.376 523.477 676.635 526.834 673.291 529.165 C 671.694 529.031 670.11 528.771 668.554 528.389 C 665.587 527.682 663.634 526.495 662.073 523.77 C 658.733 517.943 657.93 397.242 660.762 388.034 C 662.01 383.976 664.302 382.725 667.832 380.932 z" fill="rgb(0,0,0)" transform="translate(0,0)"></path>
<path d="M 489.898 341.058 C 511.272 341.15 559.406 338.41 577.518 344.051 C 606.956 353.22 613.759 431.993 580.315 447.239 C 589.082 451.939 595.376 456.609 596.982 466.987 C 598.917 479.49 598.324 493.378 598.335 506.018 L 598.338 568.647 L 552.724 568.726 L 552.763 529.5 C 552.813 517.041 554.318 474.157 550.732 465.741 C 548.248 462.641 540.816 460.827 537.427 463.301 C 536.241 471.796 536.852 492.301 536.885 501.613 L 536.805 568.67 L 490.022 568.673 L 489.898 341.058 z" fill="rgb(244,244,243)" transform="translate(0,0)"></path>
<path d="M 536.756 382.756 C 541.32 382.7 552.812 381.355 554.719 386.594 C 558.478 396.926 557.082 409.734 553.248 419.815 C 551.911 420.98 549.161 423.403 547.445 423.467 C 540.059 423.742 536.802 426.226 536.912 418.013 C 537.07 406.117 536.775 394.465 536.756 382.756 z" fill="rgb(0,0,0)" transform="translate(0,0)"></path>
<path d="M 161.142 139.318 L 416.699 139.149 C 414.215 170.667 401.329 194.926 379.54 217.177 C 357.76 238.442 329.176 251.341 298.821 253.606 C 230.368 258.041 165.468 209.637 161.142 139.318 z" fill="rgb(4,90,157)" transform="translate(0,0)"></path>
<path d="M 1174 341.051 L 1220.67 341.045 L 1220.66 422.009 L 1240.51 421.985 L 1240.67 341.094 L 1287.05 341.06 L 1287.19 568.675 L 1262.15 568.446 L 1240.31 568.314 L 1240.28 464.496 L 1220.69 464.446 L 1220.48 568.686 L 1173.88 568.759 L 1174 341.051 z" fill="rgb(244,244,243)" transform="translate(0,0)"></path>
<path d="M 870.831 341.142 L 916.122 341.128 C 915.989 368.138 914.687 407.71 916.476 433.551 C 922.558 403.189 931.149 372.135 937.625 341.182 C 952.808 340.942 968.555 341.179 983.783 341.205 C 976.44 374.682 964.827 411.09 958.905 445.009 C 959.131 456.544 964.928 472.026 967.203 482.974 C 973.019 510.971 983.361 540.884 987.682 568.818 L 940.569 568.833 C 932.873 535.85 926.322 502.288 918.537 469.039 L 915.914 470.929 L 916.167 568.376 L 870.978 568.36 L 870.831 341.142 z" fill="rgb(244,244,243)" transform="translate(0,0)"></path>
<path d="M 915.914 470.929 C 915.926 470.09 915.755 462.864 916.706 462.808 C 917.906 463.715 918.065 466.774 918.389 468.345 L 918.537 469.039 L 915.914 470.929 z" fill="rgb(16,10,10)" transform="translate(0,0)"></path>
<path d="M 792.353 340.343 C 794.068 340.184 795.789 340.1 797.511 340.092 C 863.793 339.493 856.556 387.882 856.378 435.244 L 809.479 435.263 C 809.09 423.437 816.383 369.759 793.325 382.658 C 788.104 385.578 788.183 400.699 788.226 406.177 C 788.517 443.339 787.566 480.641 788.988 517.763 C 788.29 525.206 799.851 533.886 804.699 527.136 C 812.258 516.613 809.669 482.444 809.67 470.364 L 823.515 470.142 L 856.238 470.127 C 855.915 495.004 861.205 531.208 845.521 552.054 C 829.525 573.316 784.342 574.727 764.118 558.883 C 749.577 547.858 742.71 525.775 743.13 507.554 C 744.043 467.981 740.683 425.243 744.316 385.978 C 746.817 358.947 765.841 343.662 792.353 340.343 z" fill="rgb(244,244,243)" transform="translate(0,0)"></path>
<path d="M 1434.48 341.012 C 1454.53 340.958 1498.37 339.214 1515.53 343.98 C 1554.29 354.742 1555.66 441.323 1530.83 465.917 C 1517.98 478.645 1497.27 477.316 1480.43 477.232 L 1480.36 501.5 L 1480.48 568.348 L 1434.83 568.624 C 1435.19 492.754 1435.07 416.881 1434.48 341.012 z" fill="rgb(244,244,243)" transform="translate(0,0)"></path>
<path d="M 1480.48 381.71 C 1483.86 381.608 1489.43 381.271 1492.37 383.006 C 1506.06 391.091 1502.87 420.159 1496.92 431.447 C 1492.86 434.595 1486.18 437.485 1481.36 434.812 C 1479.83 426.537 1480.45 392.313 1480.48 381.71 z" fill="rgb(0,0,0)" transform="translate(0,0)"></path>
<path d="M 1094.73 340.396 C 1142.51 338.13 1156.69 361.488 1158.05 405.346 C 1142.79 405.745 1126.36 405.448 1111.01 405.446 C 1111.07 397.969 1112.31 389.744 1107.13 383.682 C 1100.11 375.467 1091.33 383.63 1091.42 391.965 C 1091.59 407.032 1108.18 416.688 1117.63 426.559 C 1123.92 433.135 1132.07 439.136 1138.13 446.108 C 1154.67 463.123 1161.03 483.664 1159.63 507.185 C 1156.79 555.191 1142.55 571.887 1094.44 569.32 C 1043.32 563.668 1048.23 522.473 1048.39 483.191 L 1093.39 483.113 C 1093.3 494.823 1089.07 528.927 1104.47 529.971 C 1113.82 526.435 1116.18 515.914 1115.07 506.972 C 1109.79 463.016 1050.57 450.961 1047.92 404.398 C 1045.97 370.083 1056.51 343.903 1094.73 340.396 z" fill="rgb(244,244,243)" transform="translate(0,0)"></path>
<path d="M 30.3844 139.204 L 158.132 139.391 L 158.187 253.293 C 116.612 252.443 72.037 253.149 30.2401 253.158 L 30.3844 139.204 z" fill="rgb(222,183,49)" transform="translate(0,0)"></path>
<path d="M 149.553 9.34808 C 152.529 8.98505 155.005 8.41839 157.807 9.53136 C 158.735 13.5834 158.221 42.2611 158.198 47.9119 L 158.005 136.979 L 40.4579 136.993 C 37.3551 137.083 35.008 136.937 31.9264 136.741 L 30.9822 135.598 C 28.7454 114.182 43.4537 81.1278 56.9307 64.3286 C 80.9499 34.3883 111.197 14.2417 149.553 9.34808 z" fill="rgb(222,183,49)" transform="translate(0,0)"></path>
<path d="M 414.819 162.718 C 415.07 161.393 415.591 158.603 416.574 157.822 L 416.483 157.72 C 417.48 159.093 417.087 187.487 416.947 191.266 C 417.209 212.476 417.267 233.689 417.12 254.9 L 407.38 255.156 C 410.413 256.804 413.442 255.979 417.027 256.565 L 417.266 362.157 L 373.322 362.102 C 397.645 347.708 411.925 324.195 395.318 297.129 C 389.248 287.036 379.38 279.803 367.928 277.053 C 355.503 274.133 342.427 276.275 331.583 283.008 C 321.776 289.055 314.789 298.766 312.171 309.986 C 308.094 328.274 318.451 353.482 336.982 359.393 L 339.276 361.582 C 336.677 362.381 335.397 362.259 332.723 362.3 C 320.53 361.709 306.311 362.176 293.919 362.322 C 293.912 350.108 293.054 261.077 294.698 257.068 C 301.141 256.463 316.539 256.517 323.14 256.642 L 314.028 256.308 L 312.995 254.852 C 362.024 241.186 400.492 213.756 414.819 162.718 z" fill="rgb(218,57,55)" transform="translate(0,0)"></path>
<path d="M 414.819 162.718 C 415.07 161.393 415.591 158.603 416.574 157.822 L 416.483 157.72 C 417.48 159.093 417.087 187.487 416.947 191.266 C 417.209 212.476 417.267 233.689 417.12 254.9 L 407.38 255.156 C 387.974 254.104 357.4 254.909 337.567 255.215 C 329.375 255.266 321.182 255.145 312.995 254.852 C 362.024 241.186 400.492 213.756 414.819 162.718 z" fill="rgb(244,244,243)" transform="translate(0,0)"></path>
<path d="M 414.819 162.718 C 415.07 161.393 415.591 158.603 416.574 157.822 L 416.483 157.72 C 417.48 159.093 417.087 187.487 416.947 191.266 C 415.733 181.463 417.945 169.606 414.819 162.718 z" fill="rgb(216,216,217)" transform="translate(0,0)"></path>
<path d="M 337.567 255.215 C 357.4 254.909 387.974 254.104 407.38 255.156 C 410.413 256.804 413.442 255.979 417.027 256.565 C 408.781 257.867 374.696 257.206 364.403 257.153 C 357.829 256.322 335.454 256.68 327.43 256.549 C 331.175 256.313 333.868 255.853 337.567 255.215 z" fill="rgb(16,10,10)" transform="translate(0,0)"></path>
<path d="M 294.698 257.068 C 301.141 256.463 316.539 256.517 323.14 256.642 L 314.028 256.308 L 312.995 254.852 C 321.182 255.145 329.375 255.266 337.567 255.215 C 333.868 255.853 331.175 256.313 327.43 256.549 C 335.454 256.68 357.829 256.322 364.403 257.153 C 355.037 258.325 303.208 258.576 294.698 257.068 z" fill="rgb(59,15,13)" transform="translate(0,0)"></path>
<path d="M 287.766 364.436 L 289.722 364.399 L 290.954 365.628 C 292.215 371.812 291.504 398.142 291.399 405.882 C 241.692 408.054 205.983 438.034 201.108 488.244 L 164.75 488.16 L 162.785 487.456 C 162.491 486.708 162.06 485.437 162.074 484.631 C 163.249 416.269 222.562 367.672 287.766 364.436 z" fill="rgb(222,183,49)" transform="translate(0,0)"></path>
<path d="M 290.808 260.964 C 291.596 264.789 291.29 286.545 291.294 291.783 L 291.325 362.205 C 250.121 361.947 208.916 361.951 167.712 362.219 C 167.906 361.592 168.101 360.964 168.296 360.337 C 202.679 332.49 259.074 286.8 290.808 260.964 z" fill="rgb(244,244,243)" transform="translate(0,0)"></path>
<path d="M 158.669 375.839 C 160.659 378.568 160.03 478.245 160.065 488.428 C 123.219 488.419 86.0503 488.737 49.2357 488.331 L 48.5202 487.559 C 110.035 472.023 142.794 435.613 158.669 375.839 z" fill="rgb(4,90,157)" transform="translate(0,0)"></path>
<path d="M 162.188 364.757 C 194.066 364.458 229.539 364.162 261.281 365.02 C 234.938 372.741 222.215 379.527 200.932 396.69 C 177.204 418.161 174.469 429.135 162.563 456.474 C 162.693 426.481 163.073 394.618 162.188 364.757 z" fill="rgb(4,90,157)" transform="translate(0,0)"></path>
<path d="M 331.058 364.914 C 359.698 364.801 389.45 364.046 417.924 364.393 C 418.003 394.073 418.563 425.343 417.888 454.896 C 402.205 407.382 376.492 384.673 330.139 367.843 C 328.558 367.412 326.727 366.679 325.157 366.098 L 325.668 365.262 L 331.058 364.914 z" fill="rgb(4,90,157)" transform="translate(0,0)"></path>
<path d="M 161.946 490.478 L 200.827 490.859 L 200.896 557.87 C 194.482 557.86 175.765 557.415 170.315 558.187 C 164.819 560.091 165.16 558.008 161.547 561.958 C 155.935 559.855 159.496 545.727 161.998 541.348 L 161.946 490.478 z" fill="rgb(218,57,55)" transform="translate(0,0)"></path>
<path d="M 170.315 558.187 C 164.819 560.091 165.16 558.008 161.547 561.958 C 155.935 559.855 159.496 545.727 161.998 541.348 C 162.157 554.447 158.022 557.034 170.315 558.187 z" fill="rgb(16,10,10)" transform="translate(0,0)"></path>
<path d="M 809.746 616.148 C 812.634 609.288 816.621 598.425 820.558 592.324 C 821.857 592.191 828.681 591.501 828.733 593.493 C 828.999 603.591 829.498 614.175 828.559 624.158 C 828.521 624.567 820.826 626.621 821.343 623.008 C 822.148 617.38 821.862 611.03 821.833 605.296 C 820.164 609.05 818.047 612.835 816.468 616.591 C 809.539 633.07 805.418 624.053 801.072 613.073 L 797.711 614.123 C 798.059 617.136 799.335 625.334 795.544 624.953 C 795.153 625.043 791.083 625.027 790.99 624.49 C 789.3 614.816 790.575 603.425 790.375 593.523 C 790.329 591.279 798.712 592.425 798.718 592.432 C 801.245 595.746 808.391 613.257 809.746 616.148 z" fill="rgb(244,244,243)" transform="translate(0,0)"></path>
<path d="M 797.711 614.123 C 797.813 612.901 797.869 609.319 798.439 608.604 L 798.578 608.546 C 799.576 609.079 800.569 611.909 801.072 613.073 L 797.711 614.123 z" fill="rgb(16,10,10)" transform="translate(0,0)"></path>
<path d="M 1468.78 589.95 C 1483.2 590.456 1474.23 595.919 1476.59 608.5 C 1476.88 610.059 1477.29 625.394 1475.14 624.881 C 1466.71 622.861 1463.5 625.524 1454.7 624.93 C 1447.63 619.467 1444.51 613.969 1448.75 604.912 C 1454.03 593.63 1467.85 600.872 1468.4 600.721 C 1469.08 600.033 1468.78 591.621 1468.78 589.95 z" fill="rgb(244,244,243)" transform="translate(0,0)"></path>
<path d="M 1459.87 605.445 C 1462.23 604.67 1464.83 605.254 1466.64 606.966 C 1468.45 608.678 1469.17 611.243 1468.52 613.646 C 1467.87 616.05 1465.96 617.904 1463.53 618.476 C 1460 619.31 1456.44 617.212 1455.46 613.718 C 1454.47 610.224 1456.42 606.575 1459.87 605.445 z" fill="rgb(0,0,0)" transform="translate(0,0)"></path>
<path d="M 960.288 598.233 C 962.291 598.542 968.869 600.816 969.914 600.074 C 983.237 590.624 977.039 619.784 977.25 624.274 C 977.266 624.612 972.101 626.691 969.551 622.812 C 947.529 632.694 938.495 603.231 960.288 598.233 z" fill="rgb(244,244,243)" transform="translate(0,0)"></path>
<path d="M 961.635 605.226 C 965.318 604.459 968.932 606.797 969.741 610.471 C 970.55 614.144 968.253 617.785 964.589 618.636 C 962.181 619.195 959.659 618.417 957.985 616.599 C 956.31 614.78 955.743 612.203 956.498 609.849 C 957.253 607.496 959.215 605.73 961.635 605.226 z" fill="rgb(0,0,0)" transform="translate(0,0)"></path>
<path d="M 657.725 599.091 C 662.892 598.751 666.241 598.066 670.643 600.677 C 670.966 600.921 672.04 600.555 672.181 600.243 C 672.905 598.642 679.135 598.328 679.306 599.765 C 680.19 607.442 680.075 616.411 679.491 624.121 C 679.338 626.143 672.571 624.262 671.288 623.67 C 671.126 623.209 671.153 623.066 670.84 622.84 C 669.155 623.309 665.868 626.593 662.518 625.834 C 647.189 622.358 646.841 607.723 657.725 599.091 z" fill="rgb(244,244,243)" transform="translate(0,0)"></path>
<path d="M 662.712 605.6 C 666.274 604.323 670.199 606.163 671.495 609.719 C 672.792 613.274 670.973 617.209 667.424 618.524 C 663.849 619.85 659.877 618.014 658.571 614.431 C 657.264 610.848 659.122 606.887 662.712 605.6 z" fill="rgb(0,0,0)" transform="translate(0,0)"></path>
<path d="M 1349.08 592.096 C 1356.54 591.807 1366.81 592.966 1369.4 600.782 C 1370.89 605.255 1361.69 602.592 1358.73 600.353 C 1351.26 594.694 1341.8 603.174 1344.33 611.93 C 1347.5 622.914 1363.65 618.396 1362.05 613.524 C 1359.3 611.241 1354.17 614.53 1350.73 610.215 C 1354.44 604.774 1355.05 607.844 1360.94 606.978 C 1383.31 603.69 1365.42 631.554 1345.92 624.348 C 1342 622.866 1338.85 619.848 1337.21 615.992 C 1332.31 604.696 1338.78 596.041 1349.08 592.096 z" fill="rgb(244,244,243)" transform="translate(0,0)"></path>
<path d="M 1130.68 597.849 C 1138.55 596.704 1145.85 602.194 1146.93 610.074 C 1148 617.954 1142.45 625.201 1134.56 626.211 C 1126.77 627.209 1119.63 621.738 1118.56 613.953 C 1117.5 606.168 1122.91 598.98 1130.68 597.849 z" fill="rgb(244,244,243)" transform="translate(0,0)"></path>
<path d="M 1130.22 605.522 C 1133.78 604.068 1137.85 605.779 1139.3 609.344 C 1140.76 612.908 1139.05 616.977 1135.48 618.431 C 1131.92 619.885 1127.85 618.174 1126.39 614.609 C 1124.94 611.044 1126.65 606.976 1130.22 605.522 z" fill="rgb(0,0,0)" transform="translate(0,0)"></path>
<path d="M 1423.46 597.863 C 1428.57 596.947 1433.77 598.876 1437.05 602.902 C 1440.33 606.928 1441.16 612.416 1439.22 617.232 C 1437.29 622.049 1432.89 625.436 1427.74 626.077 C 1420.07 627.032 1413.03 621.701 1411.87 614.054 C 1410.71 606.408 1415.85 599.228 1423.46 597.863 z" fill="rgb(244,244,243)" transform="translate(0,0)"></path>
<path d="M 1423.47 605.548 C 1427.01 604.156 1431 605.889 1432.39 609.421 C 1433.79 612.954 1432.06 616.949 1428.53 618.349 C 1425 619.75 1420.99 618.018 1419.59 614.481 C 1418.2 610.943 1419.93 606.943 1423.47 605.548 z" fill="rgb(0,0,0)" transform="translate(0,0)"></path>
<path d="M 917.714 617.062 C 911.42 637.536 876.398 618.362 894.823 601.767 C 902.946 594.452 919.834 598.722 917.714 614.492 C 917.592 615.517 917.659 616.059 917.714 617.062 z" fill="rgb(244,244,243)" transform="translate(0,0)"></path>
<path d="M 910.61 616.773 C 905.979 619.861 900.537 621.089 898.152 614.751 C 900.856 614.885 910.378 614.027 910.61 616.773 z" fill="rgb(0,0,0)" transform="translate(0,0)"></path>
<path d="M 898.152 614.751 C 903.039 613.631 912.697 613.778 917.714 614.492 C 917.592 615.517 917.659 616.059 917.714 617.062 C 915.34 616.94 912.986 616.9 910.61 616.773 C 910.378 614.027 900.856 614.885 898.152 614.751 z" fill="rgb(52,52,52)" transform="translate(0,0)"></path>
<path d="M 902.405 603.808 C 905.421 604.573 915.673 608.011 906.548 609.72 C 900.361 609.302 894.685 610.35 902.405 603.808 z" fill="rgb(0,0,0)" transform="translate(0,0)"></path>
<path d="M 509.039 592.169 C 516.596 591.649 522.816 591.197 528.533 597.449 C 536.36 604.756 523.406 603.563 522.626 602.705 C 513.441 592.607 499.646 603.483 506.076 614.011 C 507.288 615.98 509.248 617.371 511.507 617.863 C 516.153 618.914 519.01 617.163 522.616 614.757 C 539.078 608.842 527.485 629.456 509.006 624.865 C 504.661 623.816 500.977 620.95 498.892 616.996 C 493.173 605.914 498.717 596.971 509.039 592.169 z" fill="rgb(244,244,243)" transform="translate(0,0)"></path>
<path d="M 1492.86 599.155 C 1498 598.721 1501.42 597.952 1507.03 600.785 C 1510.6 602.256 1514.52 609.917 1512.54 613.318 C 1508.68 615.519 1498.55 613.267 1494.46 614.153 C 1490.35 615.404 1494.15 618.496 1496.49 618.985 C 1500.68 619.858 1501.9 618.027 1505.27 616.208 L 1506.01 615.815 C 1507.14 616.159 1512.18 616.947 1511.66 618.381 C 1508.55 627.071 1490.88 627.779 1486.73 620.205 C 1481.53 610.692 1484.73 604.487 1492.86 599.155 z" fill="rgb(244,244,243)" transform="translate(0,0)"></path>
<path d="M 1494.05 604.829 C 1497.83 604.697 1505.14 603.618 1503.66 609.787 C 1496.77 609.639 1492.48 611.975 1494.05 604.829 z" fill="rgb(0,0,0)" transform="translate(0,0)"></path>
<path d="M 1384.96 599.169 C 1394.47 598.444 1405.16 598.564 1404.4 612.725 C 1403.91 616.246 1383.68 612.238 1384.64 615.335 C 1386.97 622.839 1395.3 617.547 1397.6 615.968 C 1401.55 617.16 1406.93 617.808 1399.71 622.674 C 1383.65 633.494 1364.73 612.59 1384.96 599.169 z" fill="rgb(244,244,243)" transform="translate(0,0)"></path>
<path d="M 1386.08 604.655 C 1389.8 604.558 1397.1 603.63 1395.66 609.775 C 1388.34 609.711 1383.84 612.2 1386.08 604.655 z" fill="rgb(0,0,0)" transform="translate(0,0)"></path>
<path d="M 561.017 598.816 C 573.982 598.386 570.896 603.157 576.049 615.532 C 576.874 613.75 582.605 599.968 583.29 599.659 C 597.224 593.371 586.076 611.044 583 617.37 C 582.318 618.797 574.311 636.398 573.673 636.58 C 562.063 639.893 569.939 628.606 572.117 623.6 C 568.599 615.387 564.284 606.916 561.017 598.816 z" fill="rgb(244,244,243)" transform="translate(0,0)"></path>
<path d="M 870.461 598.174 C 883.329 599.96 882.613 604.134 882.781 616.448 C 884.908 621.279 880.801 628.209 875.967 624.489 C 871.154 620.785 881.845 609.564 868.266 603.443 C 859.639 611.888 865.626 613.607 863.09 623.963 C 862.742 625.381 856.426 624.8 856.373 624.397 C 855.345 616.594 855.461 607.265 856.291 599.446 C 856.415 598.282 863.645 598.935 864.601 600.038 C 864.598 600.033 869.797 598.356 870.461 598.174 z" fill="rgb(244,244,243)" transform="translate(0,0)"></path>
<path d="M 1089.99 592.005 C 1095.8 592.016 1115.77 589.288 1112.17 597.268 C 1110.19 601.673 1094.01 593.624 1098.23 604.995 C 1099.81 609.23 1105.43 600.555 1109.26 610.903 C 1106.41 612.056 1099.32 612.508 1099.48 612.335 C 1094.55 617.764 1103.21 628.545 1090.76 624.533 C 1089.39 624.094 1089.98 597.682 1089.99 592.005 z" fill="rgb(244,244,243)" transform="translate(0,0)"></path>
<path d="M 710.447 599.157 C 712.741 598.939 730.73 597.047 727.004 606.921 C 723.906 608.811 717.373 603.158 715.532 604.555 C 708.05 610.236 730.953 608.169 728.878 617.574 C 727.772 622.587 725.373 623.524 722.255 625.658 C 720.354 625.738 704.088 626.327 705.72 617.454 C 706.756 616.616 712.802 617.247 713.393 618.246 C 714.822 620.661 722.582 619.938 721.276 616.974 C 719.88 613.805 710.872 614.71 707.788 611.243 C 703.207 606.092 706.42 602.727 710.447 599.157 z" fill="rgb(244,244,243)" transform="translate(0,0)"></path>
<path d="M 1164.07 598.26 C 1167.15 598.734 1180.33 601.405 1175.53 607.306 C 1175.26 607.643 1169.55 607.124 1168.72 605.28 C 1167.92 603.477 1161.86 603.486 1162.74 606.999 C 1163.72 609.075 1171.11 609.722 1173.38 611.312 C 1174.98 612.426 1177.38 613.785 1177.87 616.32 C 1178.13 623.688 1171.04 624.855 1166.72 625.644 C 1162.05 624.905 1156.82 624.628 1154.76 619.416 C 1153.23 615.564 1161.74 615.798 1162.49 617.531 C 1164.06 621.143 1171.81 619.903 1169.79 617.062 C 1167.32 613.604 1156.34 614.754 1154.44 609.05 C 1152.35 602.329 1159.07 599.666 1164.07 598.26 z" fill="rgb(244,244,243)" transform="translate(0,0)"></path>
<path d="M 1524.8 599.207 C 1529.46 598.674 1533.47 597.842 1537.86 600.266 C 1539.82 601.344 1543.34 604.899 1541.76 607.164 C 1534.97 609.211 1534.69 604.576 1531.47 604.363 C 1525.78 603.985 1524.82 608.229 1533.07 609.332 C 1541.85 610.507 1546.33 616.357 1538.95 624.496 C 1532.41 625.489 1522.88 626.43 1519.68 619.001 C 1519.2 617.888 1519.85 617.111 1520.97 616.963 C 1523.51 616.625 1525.94 616.611 1528 618.337 C 1529.14 619.271 1532.62 619.773 1533.96 619.099 C 1537.7 617.216 1533.15 615.329 1531.51 615.03 C 1528.22 614.428 1523.79 613.858 1521.5 611.506 C 1516.68 606.531 1520.83 602.524 1524.8 599.207 z" fill="rgb(244,244,243)" transform="translate(0,0)"></path>
<path d="M 1194.14 598.079 C 1197.07 598.29 1211.73 600.586 1205.58 607.446 C 1205.03 608.055 1200.37 606.694 1199.41 605.159 C 1198.24 603.299 1192.12 603.229 1193.28 606.929 C 1195.39 610.45 1206.72 609.306 1207.68 614.995 C 1208.97 622.648 1203.57 624.316 1197.71 625.642 C 1183.56 624.062 1179.81 614.503 1191.66 617.506 C 1192.15 617.631 1198.55 622.316 1200.14 618.471 C 1202.32 613.159 1186.14 615.088 1185.46 609.025 C 1183.84 602.129 1189.08 599.989 1194.14 598.079 z" fill="rgb(244,244,243)" transform="translate(0,0)"></path>
<path d="M 1254.84 599.246 C 1260.29 598.591 1267.86 597.259 1271.08 602.978 C 1271.71 604.087 1273.24 606.807 1271.01 607.066 C 1267.83 607.435 1265.94 606.951 1263.53 604.894 C 1262.54 604.047 1258.54 603.993 1258.1 605.513 C 1257.36 608.737 1262.01 608.683 1263.98 609.298 C 1266.86 610.197 1270.17 611.372 1271.92 613.978 C 1274.59 617.474 1271.85 621.963 1268.51 624.04 L 1266.15 625.483 C 1261.34 625.804 1250.81 625.856 1250.24 617.904 C 1250.15 616.606 1256.97 616.517 1258.33 618.593 C 1259.51 620.393 1263.79 619.367 1265.42 618.94 L 1265.86 617.561 C 1262.98 612.784 1239.31 612.835 1254.84 599.246 z" fill="rgb(244,244,243)" transform="translate(0,0)"></path>
<path d="M 1009.67 599.103 C 1010.96 599.042 1027.2 597.589 1025.85 606.53 C 1022.64 609.423 1017.03 603.434 1014.54 604.691 C 1004.42 609.816 1025.67 608.535 1026.37 614.959 C 1027.19 622.4 1024.72 623.808 1017.99 625.672 C 997.617 623.393 1001.85 612.405 1011.97 618.066 C 1014.87 619.692 1019.86 621.035 1020.16 617.403 C 1018.23 614.364 992.168 612.585 1009.67 599.103 z" fill="rgb(244,244,243)" transform="translate(0,0)"></path>
<path d="M 607.317 598.151 C 610.759 598.66 621.617 600.934 619.008 606.483 C 613.739 610.063 608.917 599.254 604.846 605.726 C 606.567 610.024 625.652 610.23 618.537 621.578 C 616.456 624.896 611.99 625.164 608.431 625.759 C 603.882 624.743 599.899 624.119 597.39 619.479 C 595.794 615.473 601.413 616.717 603.82 617.687 C 616.656 622.86 615.064 615.244 602.015 612.75 C 595.113 611.431 594.473 601.631 607.317 598.151 z" fill="rgb(244,244,243)" transform="translate(0,0)"></path>
<path d="M 631.977 591.481 C 644.672 593.883 631.55 597.48 642.991 598.738 C 644.002 598.849 645.266 603.459 643.881 603.696 C 634.142 605.359 638.61 609.587 638.263 617.803 C 638.239 621.089 642.568 614.403 645.098 624.861 C 643.042 624.93 640.162 625.321 637.468 624.925 C 624.399 623.006 634.387 608.665 627.401 603.901 C 626.676 603.407 626.533 599.371 628.275 598.556 C 631.515 597.041 628.506 595.282 631.977 591.481 z" fill="rgb(244,244,243)" transform="translate(0,0)"></path>
<path d="M 689.059 589.906 C 690.538 589.985 696.273 589.888 696.382 590.767 C 697.342 598.503 696.869 618.067 696.825 625.189 C 695.313 625.091 689.688 625.114 689.578 624.282 C 688.614 616.975 688.925 596.558 689.059 589.906 z" fill="rgb(244,244,243)" transform="translate(0,0)"></path>
<path d="M 540.035 598.878 C 544.631 598.995 546.22 597.638 548.498 601.754 C 549.514 602.173 552.941 598.495 555.011 599.016 C 556.885 598.974 556.718 604.643 556.263 605.584 C 554.439 609.351 548.901 604.713 547.851 611.152 L 547.757 611.75 C 547.781 614.854 548.512 621.563 547.327 624.329 C 546.881 625.369 540.6 625.213 540.49 624.254 C 539.57 616.241 540.057 607.08 540.035 598.878 z" fill="rgb(244,244,243)" transform="translate(0,0)"></path>
<path d="M 987.527 589.746 C 989.021 589.845 994.308 589.813 994.434 590.715 C 995.202 596.198 995.238 621.393 994.374 625.668 C 985.864 624.11 987.469 625.48 987.466 615.986 C 987.463 607.253 987.445 598.479 987.527 589.746 z" fill="rgb(244,244,243)" transform="translate(0,0)"></path>
<path d="M 926.472 598.73 C 928.484 598.821 930.506 598.733 932.497 599.058 C 933.529 598.955 934.467 601.587 934.735 601.551 C 935.96 601.339 941.99 596.285 942.794 599.947 C 944.379 607.16 941.492 605.762 936.613 607.174 C 935.06 607.623 934.311 609.584 934.057 610.916 C 934.047 614.909 934.299 619.084 933.842 623.002 C 933.851 625.291 927.125 624.401 926.997 623.832 C 925.84 618.699 926.442 603.226 926.472 598.73 z" fill="rgb(244,244,243)" transform="translate(0,0)"></path>
<path d="M 1233.92 589.592 C 1235.43 589.676 1240.56 589.594 1240.68 590.447 C 1241.64 597.374 1241.19 618.753 1241.13 624.835 C 1239.67 624.767 1234.65 624.931 1234.5 624.007 C 1233.49 617.583 1233.93 595.289 1233.92 589.592 z" fill="rgb(244,244,243)" transform="translate(0,0)"></path>
<path d="M 838.644 598.577 C 847.047 599.048 846.244 597.482 846.17 606.599 C 846.121 612.7 846.215 618.877 846.017 624.999 C 836.455 624.295 838.648 626.248 838.678 615.455 C 838.694 609.895 838.681 604.154 838.644 598.577 z" fill="rgb(244,244,243)" transform="translate(0,0)"></path>
<path d="M 1216.65 598.687 C 1226.62 599.09 1223.83 598.315 1224.19 608.678 C 1224.37 613.961 1224.17 619.457 1224.14 624.757 C 1215.25 624.593 1216.73 625.815 1216.63 615.759 C 1216.57 610.111 1216.65 604.344 1216.65 598.687 z" fill="rgb(244,244,243)" transform="translate(0,0)"></path>
<path d="M 1301.78 600.545 C 1304.1 599.549 1306.78 599.912 1308.75 601.491 C 1310.72 603.069 1311.66 605.606 1311.2 608.088 C 1310.74 610.571 1308.94 612.595 1306.53 613.354 C 1303.06 614.449 1299.33 612.627 1298.06 609.21 C 1296.8 605.794 1298.43 601.983 1301.78 600.545 z" fill="rgb(244,244,243)" transform="translate(0,0)"></path>
<path d="M 1054.36 600.533 C 1057.86 599.081 1061.86 600.746 1063.3 604.245 C 1064.73 607.744 1063.05 611.741 1059.54 613.158 C 1056.06 614.566 1052.09 612.895 1050.67 609.421 C 1049.25 605.946 1050.9 601.974 1054.36 600.533 z" fill="rgb(244,244,243)" transform="translate(0,0)"></path>
<path d="M 754.702 600.573 C 758.073 598.994 762.086 600.445 763.666 603.815 C 765.247 607.185 763.798 611.198 760.428 612.781 C 757.057 614.364 753.041 612.913 751.459 609.541 C 749.877 606.169 751.329 602.153 754.702 600.573 z" fill="rgb(244,244,243)" transform="translate(0,0)"></path>
<path d="M 1219.08 587.347 C 1221.08 586.458 1223.44 587.199 1224.58 589.077 C 1225.71 590.955 1225.28 593.385 1223.56 594.752 C 1222.24 595.806 1220.42 595.999 1218.9 595.247 C 1217.39 594.496 1216.44 592.935 1216.48 591.242 C 1216.52 589.55 1217.53 588.032 1219.08 587.347 z" fill="rgb(244,244,243)" transform="translate(0,0)"></path>
<path d="M 840.874 587.437 C 842.366 586.782 844.1 587.024 845.355 588.063 C 846.61 589.102 847.172 590.76 846.806 592.348 C 846.441 593.936 845.212 595.182 843.629 595.569 C 841.458 596.099 839.243 594.881 838.526 592.765 C 837.809 590.649 838.828 588.336 840.874 587.437 z" fill="rgb(244,244,243)" transform="translate(0,0)"></path>
<metadata><recraft-signature>{"signed_by": "recraft", "signature_b64": "Yoe6PvT3ZzT8ViPslUyrsa47oPUMbgGsNw0jIdJ0DH27uERVsjOej3c6q+stOpcdluMTWA8gE8IwFq33nDhMAw==", "signing_algo": "Ed25519", "generation_timestamp": 1780247695, "identifier": "fa4542a1-0c34-4d14-bdb5-496ff51784a0"}</recraft-signature></metadata></svg>