<svg xmlns="http://www.w3.org/2000/svg" height="768" preserveAspectRatio="none" style="display: block;" version="1.1" viewBox="0 0 2048 1024" width="1536">
<defs>
	<linearGradient gradientUnits="userSpaceOnUse" id="Gradient1" x1="2041.47" x2="2043.04" y1="731.221" y2="732.049">
		<stop class="stop0" offset="0" stop-color="rgb(14,12,8)" stop-opacity="1"></stop>
		<stop class="stop1" offset="1" stop-color="rgb(68,38,22)" stop-opacity="1"></stop>
	</linearGradient>
	<linearGradient gradientUnits="userSpaceOnUse" id="Gradient2" x1="5.64382" x2="1.76454" y1="290.408" y2="287.948">
		<stop class="stop0" offset="0" stop-color="rgb(44,28,18)" stop-opacity="1"></stop>
		<stop class="stop1" offset="1" stop-color="rgb(175,94,54)" stop-opacity="1"></stop>
	</linearGradient>
</defs>
<path d="M 0 0 L 2048 0 L 2048 283.031 L 2048 324.834 L 2048 364.221 L 2048 370.198 L 2048 656.195 L 2048 661.997 L 2048 701.993 L 2048 718.135 L 2048 723.848 L 2048 739.046 L 2048 741.022 L 2048 1024 L 0 1024 L 0 738.569 L 0 702.225 L 0 689.077 L 0 685.923 L 0 639.564 L 0 637.125 L 0 635.085 L 0 630.873 L 0 594.631 L 0 581.107 L 0 578.941 L 0 526.717 L 0 524.266 L 0 485.448 L 0 483.615 L 0 450.427 L 0 448.283 L 0 406.686 L 0 404.742 L 0 360.629 L 0 358.402 L 0 354.407 L 0 324.73 L 0 302.383 L 0 285.934 L 0 0 z" fill="rgb(9,15,19)" transform="translate(0,0)"></path>
<path d="M 240.59 701.393 C 246.3 699.96 268.277 700.011 274.285 702.364 C 282.3 701.508 289.915 702.211 298.082 701.63 C 300.829 704.159 300.976 705.601 300.948 710.054 C 300.894 718.847 301.728 732.503 300.905 741.119 L 1456.04 741.021 L 1652.56 741.134 C 1666.2 741.152 1740.1 742.482 1747.21 740.021 C 1761.66 739.044 1784.1 739.465 1798.88 739.637 C 1805.68 741.675 1876.87 741.782 1880.76 739.449 C 1884.71 739.497 1898.35 739.439 1901.49 740.318 C 1908.31 741.891 1937.62 741.27 1946.56 741.225 C 1976.4 740.943 2006.24 740.888 2036.07 741.062 L 2036.82 739.097 C 2037.34 738.537 2037.49 738.321 2038.11 737.861 C 2038.75 738.186 2039.4 738.503 2040.05 738.813 C 2042.7 738.933 2045.35 739.01 2048 739.046 L 2048 741.022 L 2048 1024 L 0 1024 L 0 738.569 L 0 702.225 C 3.59822 702.214 14.5918 701.326 16.6589 703.44 L 18.2571 703.949 C 21.4808 700.862 35.1194 701.874 39.423 702.606 C 40.0657 702.485 40.7844 702.407 41.3632 702.126 C 46.7472 702.181 51.6476 702.216 57.0351 701.961 C 63.7315 701.571 82.5259 700.97 89.0977 701.872 C 92.2642 702.037 95.146 702.05 98.3079 702.065 L 99.7939 702.424 C 104.963 701.516 120.278 701.661 125.524 702.685 L 127.14 702.791 C 130.857 701.401 136.755 701.901 140.93 701.924 C 146.171 701.113 157.39 700.682 162.48 701.775 C 166.902 701.983 171.087 701.968 175.507 701.975 L 176.572 702.403 C 181.909 701.715 189.883 701.96 195.349 702.157 L 197.081 702.656 C 201.593 701.057 230.403 701.857 236.684 701.935 L 238.055 702.858 L 240.59 701.393 z" fill="rgb(35,36,36)" transform="translate(0,0)"></path>
<path d="M 240.59 701.393 C 246.3 699.96 268.277 700.011 274.285 702.364 C 282.3 701.508 289.915 702.211 298.082 701.63 C 300.829 704.159 300.976 705.601 300.948 710.054 C 300.894 718.847 301.728 732.503 300.905 741.119 C 277.586 740.7 254.076 741.771 230.735 741.183 C 225.719 741.056 220.083 741.366 215.207 740.288 C 211.187 739.242 185.21 739.686 179.692 739.718 L 179.114 738.429 C 186.25 721.815 182.492 715.474 197.081 702.656 C 201.593 701.057 230.403 701.857 236.684 701.935 L 238.055 702.858 L 240.59 701.393 z" fill="rgb(26,20,18)" transform="translate(0,0)"></path>
<path d="M 236.684 701.935 L 238.055 702.858 C 231.55 712.676 230.96 727.023 225.775 731.431 L 225.248 731.642 C 223.142 734.193 221.964 735.447 219.532 737.736 L 215.207 740.288 C 211.187 739.242 185.21 739.686 179.692 739.718 L 179.114 738.429 C 186.25 721.815 182.492 715.474 197.081 702.656 C 201.593 701.057 230.403 701.857 236.684 701.935 z" fill="rgb(230,157,84)" transform="translate(0,0)"></path>
<path d="M 236.684 701.935 L 238.055 702.858 C 231.55 712.676 230.96 727.023 225.775 731.431 C 230.778 717.337 228.134 714.375 236.684 701.935 z" fill="rgb(44,27,16)" transform="translate(0,0)"></path>
<path d="M 240.59 701.393 C 245.428 702.331 264.347 701.942 270.316 701.957 C 265.208 708.056 258.883 714.22 256.102 721.821 C 253.767 728.201 251.352 733.773 248.295 739.838 C 238.866 739.683 229.436 739.675 220.007 739.815 L 219.532 737.736 C 221.964 735.447 223.142 734.193 225.248 731.642 L 225.775 731.431 C 230.96 727.023 231.55 712.676 238.055 702.858 L 240.59 701.393 z" fill="rgb(133,75,46)" transform="translate(0,0)"></path>
<path d="M 225.248 731.642 C 225.278 735.509 222.383 736.812 220.007 739.815 L 219.532 737.736 C 221.964 735.447 223.142 734.193 225.248 731.642 z" fill="rgb(44,27,16)" transform="translate(0,0)"></path>
<path d="M 274.285 702.364 C 282.3 701.508 289.915 702.211 298.082 701.63 C 289.068 717.158 289.64 723.257 295.236 739.559 C 287.812 739.447 281.134 739.509 273.694 739.619 C 267.956 716.05 267.861 725.316 274.285 702.364 z" fill="rgb(133,75,46)" transform="translate(0,0)"></path>
<path d="M 57.0351 701.961 C 63.7315 701.571 82.5259 700.97 89.0977 701.872 C 92.2642 702.037 95.146 702.05 98.3079 702.065 L 99.7939 702.424 C 104.963 701.516 120.278 701.661 125.524 702.685 C 121.425 707.444 110.433 729.968 110.545 735.444 L 109.619 736.286 C 107.654 737.028 105.779 738.698 105.4 738.729 C 96.3418 739.485 85.5415 738.65 76.497 739.334 C 76.2729 740.064 76.391 739.811 76.1693 740.18 L 76.0331 740.204 C 75.7062 740.038 75.9246 740.177 75.3168 739.649 C 71.6482 739.329 70.8717 739.375 67.1768 739.734 C 65.5989 742.623 34.1396 741.189 29.2523 740.552 L 30.1001 740.084 C 25.7411 739.166 22.8041 739.413 18.1577 738.52 L 16.9049 738.409 C 13.205 739.57 8.60923 739.272 4.77728 738.715 C 4.0447 738.522 3.48382 738.373 2.75921 738.136 L 0 738.569 L 0 702.225 C 3.59822 702.214 14.5918 701.326 16.6589 703.44 L 18.2571 703.949 C 21.4808 700.862 35.1194 701.874 39.423 702.606 C 40.0657 702.485 40.7844 702.407 41.3632 702.126 C 46.7472 702.181 51.6476 702.216 57.0351 701.961 z" fill="rgb(26,20,18)" transform="translate(0,0)"></path>
<path d="M 99.7939 702.424 C 104.963 701.516 120.278 701.661 125.524 702.685 C 121.425 707.444 110.433 729.968 110.545 735.444 L 109.619 736.286 C 107.654 737.028 105.779 738.698 105.4 738.729 C 96.3418 739.485 85.5415 738.65 76.497 739.334 C 77.5546 737.022 79.1023 732.057 80.5429 730.309 C 91.3009 717.252 93.6836 719.168 99.7939 702.424 z" fill="rgb(133,75,46)" transform="translate(0,0)"></path>
<path d="M 18.2571 703.949 C 21.4808 700.862 35.1194 701.874 39.423 702.606 C 31.8322 721.812 22.4888 710.15 16.9049 738.409 C 13.205 739.57 8.60923 739.272 4.77728 738.715 C 4.0447 738.522 3.48382 738.373 2.75921 738.136 L 0 738.569 L 0 702.225 C 3.59822 702.214 14.5918 701.326 16.6589 703.44 L 18.2571 703.949 z" fill="rgb(230,157,84)" transform="translate(0,0)"></path>
<path d="M 0 702.225 C 3.59822 702.214 14.5918 701.326 16.6589 703.44 L 18.2571 703.949 C 16.1847 708.473 12.8224 712.506 9.94645 716.743 C 9.19433 731.654 10.2233 725.575 4.77728 738.715 C 4.0447 738.522 3.48382 738.373 2.75921 738.136 L 0 738.569 L 0 702.225 z" fill="rgb(123,71,43)" transform="translate(0,0)"></path>
<path d="M 2.75921 738.136 C 7.05063 728.94 6.98784 728.299 7.57507 718.099 C 7.69459 716.023 14.9317 706 16.6589 703.44 L 18.2571 703.949 C 16.1847 708.473 12.8224 712.506 9.94645 716.743 C 9.19433 731.654 10.2233 725.575 4.77728 738.715 C 4.0447 738.522 3.48382 738.373 2.75921 738.136 z" fill="rgb(26,20,18)" transform="translate(0,0)"></path>
<path d="M 39.423 702.606 C 40.0657 702.485 40.7844 702.407 41.3632 702.126 C 46.7472 702.181 51.6476 702.216 57.0351 701.961 C 55.0031 705.57 50.2765 714.804 47.4699 717.472 C 35.6971 728.663 36.9167 726.556 30.1001 740.084 C 25.7411 739.166 22.8041 739.413 18.1577 738.52 L 16.9049 738.409 C 22.4888 710.15 31.8322 721.812 39.423 702.606 z" fill="rgb(230,157,84)" transform="translate(0,0)"></path>
<path d="M 39.423 702.606 C 40.0657 702.485 40.7844 702.407 41.3632 702.126 C 40.4198 707.027 38.8828 711.948 34.3646 714.548 C 21.456 721.975 22.9063 726.737 18.1577 738.52 L 16.9049 738.409 C 22.4888 710.15 31.8322 721.812 39.423 702.606 z" fill="rgb(80,56,30)" transform="translate(0,0)"></path>
<path d="M 98.3079 702.065 L 99.7939 702.424 C 93.6836 719.168 91.3009 717.252 80.5429 730.309 C 79.1023 732.057 77.5546 737.022 76.497 739.334 C 76.2729 740.064 76.391 739.811 76.1693 740.18 L 76.0331 740.204 C 75.7062 740.038 75.9246 740.177 75.3168 739.649 C 71.6482 739.329 70.8717 739.375 67.1768 739.734 C 72.9392 721.121 83.3588 722.705 89.0977 701.872 C 92.2642 702.037 95.146 702.05 98.3079 702.065 z" fill="rgb(230,157,84)" transform="translate(0,0)"></path>
<path d="M 98.3079 702.065 L 99.7939 702.424 C 93.6836 719.168 91.3009 717.252 80.5429 730.309 C 79.1023 732.057 77.5546 737.022 76.497 739.334 C 76.2729 740.064 76.391 739.811 76.1693 740.18 L 76.0331 740.204 C 75.7062 740.038 75.9246 740.177 75.3168 739.649 C 77.6738 725.998 83.7595 725.514 91.635 715.343 C 94.8639 711.174 96.2128 706.715 98.3079 702.065 z" fill="rgb(44,27,16)" transform="translate(0,0)"></path>
<path d="M 140.93 701.924 C 146.171 701.113 157.39 700.682 162.48 701.775 C 166.902 701.983 171.087 701.968 175.507 701.975 L 176.572 702.403 C 181.909 701.715 189.883 701.96 195.349 702.157 L 197.081 702.656 C 182.492 715.474 186.25 721.815 179.114 738.429 L 179.692 739.718 C 173.26 741.74 153.698 741.053 146.335 740.934 C 140.285 741.538 119.276 742.29 114.028 740.683 C 114.399 740.066 115.771 739.871 116.743 739.386 C 113.137 739.491 106.781 741.099 109.619 736.286 L 110.545 735.444 C 110.433 729.968 121.425 707.444 125.524 702.685 L 127.14 702.791 C 130.857 701.401 136.755 701.901 140.93 701.924 z" fill="rgb(26,20,18)" transform="translate(0,0)"></path>
<path d="M 195.349 702.157 L 197.081 702.656 C 182.492 715.474 186.25 721.815 179.114 738.429 L 179.692 739.718 C 173.26 741.74 153.698 741.053 146.335 740.934 C 148.343 739.29 151.615 740.002 154.377 740.187 C 158.176 734.723 165.232 726.108 167.963 720.624 C 171.723 713.07 168.637 710.498 175.13 702.447 L 175.507 701.975 L 176.572 702.403 C 181.909 701.715 189.883 701.96 195.349 702.157 z" fill="rgb(133,75,46)" transform="translate(0,0)"></path>
<path d="M 195.349 702.157 L 197.081 702.656 C 182.492 715.474 186.25 721.815 179.114 738.429 L 179.692 739.718 C 173.26 741.74 153.698 741.053 146.335 740.934 C 148.343 739.29 151.615 740.002 154.377 740.187 C 158.176 734.723 165.232 726.108 167.963 720.624 C 171.723 713.07 168.637 710.498 175.13 702.447 L 175.507 701.975 L 176.572 702.403 C 175.798 703.97 173.224 708.259 173.094 709.508 C 171.686 723.001 164.692 728.554 157.427 738.99 L 176.102 739.135 C 187.445 717.933 177.749 716.678 195.349 702.157 z" fill="rgb(44,27,16)" transform="translate(0,0)"></path>
<path d="M 125.524 702.685 L 127.14 702.791 C 130.857 701.401 136.755 701.901 140.93 701.924 C 136.553 705.689 133.849 706.961 129.192 711.344 C 126.382 719.463 125.652 725.788 119.861 732.666 C 118.432 734.364 117.66 737.239 116.743 739.386 C 113.137 739.491 106.781 741.099 109.619 736.286 L 110.545 735.444 C 110.433 729.968 121.425 707.444 125.524 702.685 z" fill="rgb(230,157,84)" transform="translate(0,0)"></path>
<path d="M 125.524 702.685 L 127.14 702.791 C 119.696 714.664 116.346 727.764 110.545 735.444 C 110.433 729.968 121.425 707.444 125.524 702.685 z" fill="rgb(44,27,16)" transform="translate(0,0)"></path>
<path d="M 162.48 701.775 C 166.902 701.983 171.087 701.968 175.507 701.975 L 175.13 702.447 C 168.637 710.498 171.723 713.07 167.963 720.624 C 165.232 726.108 158.176 734.723 154.377 740.187 C 149.966 739.272 146.152 740.068 149.244 734.612 C 157.846 719.435 160.544 719.47 162.48 701.775 z" fill="rgb(133,75,46)" transform="translate(0,0)"></path>
<path d="M 2038.11 737.861 C 2038.75 738.186 2039.4 738.503 2040.05 738.813 C 2042.7 738.933 2045.35 739.01 2048 739.046 L 2048 741.022 L 2036.07 741.062 L 2036.82 739.097 C 2037.34 738.537 2037.49 738.321 2038.11 737.861 z" fill="rgb(9,15,19)" transform="translate(0,0)"></path>
<path d="M 0 0 L 2048 0 L 2048 283.031 C 2045.19 285.972 2044.54 286.796 2042.41 290.301 L 2041.91 288.723 C 2044.39 282.238 2035.89 284.589 2030.88 284.908 L 2029.13 284.663 C 2024.75 284.658 2020.75 284.848 2016.42 284.224 C 2012.6 282.051 1981.73 281.543 1979.67 284.883 C 1976.86 285.005 1975.31 284.73 1972.6 285.66 L 1970.49 285.264 C 1962.89 284.644 1950.49 285.009 1942.48 285.014 L 1939.53 284.878 C 1935.84 284.847 1933.31 284.942 1929.6 284.344 C 1924.57 283.186 1906.11 282.701 1901.81 284.424 C 1897.63 284.715 1894.63 284.037 1891.31 285.786 L 1889.93 285.462 C 1885.45 284.49 1874.1 283.406 1870.49 285.97 C 1870.03 286.296 1869.26 286 1868.79 285.895 C 1865.14 283.049 1836.83 284.365 1830.41 284.438 C 1829.39 285.346 1824.74 289.622 1823.9 290.055 C 1824.03 287.158 1826.42 286.817 1826.61 285.164 C 1825.67 284.415 1803.31 285.056 1799.2 284.42 C 1794.46 283.308 1777.71 282.88 1773.26 284.839 C 1766.45 285.134 1757.71 284.423 1751.33 285.172 C 1747.05 281.826 1688.53 283.126 1679.5 283.735 L 655.182 283.664 L 398.993 283.743 L 332.11 283.673 C 326.023 283.669 303.697 283.384 298.976 284.353 C 286.958 284.925 252.654 282.228 245.421 287.196 C 242.135 289.935 238.667 292.446 235.039 294.711 C 234.089 296.738 226.491 301.874 224.272 303.478 C 221.766 305.917 220.175 307.598 217.233 309.529 C 216.364 310.33 216.112 310.533 215.096 311.209 C 214.576 311.716 212.222 314.069 211.796 314.355 C 210.688 315.682 209.641 316.946 208.468 318.221 L 204.686 323.434 C 200.592 325.733 175.725 324.912 169.113 324.891 C 164.486 325.189 160.783 325.201 156.187 324.864 C 150.133 324.551 127.458 325.871 123.975 323.732 L 123.018 323.292 C 120.555 325.257 109.877 324.78 106.074 324.825 C 90.4394 325.164 74.7997 325.192 59.164 324.909 C 48.3789 324.942 30.5543 325.444 20.4248 324.494 L 18.9658 322.94 C 14.399 325.84 5.8483 324.9 0 324.73 L 0 302.383 L 0 285.934 L 0 0 z" fill="rgb(35,36,36)" transform="translate(0,0)"></path>
<path d="M 90.0522 284.324 C 96.2547 282.583 142.045 281.712 145.909 284.234 C 152.806 284.778 159.49 284.626 166.401 284.568 C 167.288 284.699 168.091 284.764 168.982 284.848 C 172.226 284.501 175.477 284.213 178.732 283.983 C 171.751 296.867 162.453 309.986 156.187 324.864 C 150.133 324.551 127.458 325.871 123.975 323.732 L 123.018 323.292 C 120.555 325.257 109.877 324.78 106.074 324.825 C 90.4394 325.164 74.7997 325.192 59.164 324.909 C 67.1956 310.473 78.6366 296.216 90.0522 284.324 z" fill="rgb(26,20,18)" transform="translate(0,0)"></path>
<path d="M 168.982 284.848 C 172.226 284.501 175.477 284.213 178.732 283.983 C 171.751 296.867 162.453 309.986 156.187 324.864 C 150.133 324.551 127.458 325.871 123.975 323.732 L 123.018 323.292 C 120.555 325.257 109.877 324.78 106.074 324.825 C 107.774 318.56 138.328 293.663 145.909 284.234 C 152.806 284.778 159.49 284.626 166.401 284.568 C 167.288 284.699 168.091 284.764 168.982 284.848 z" fill="rgb(133,75,46)" transform="translate(0,0)"></path>
<path d="M 145.909 284.234 C 152.806 284.778 159.49 284.626 166.401 284.568 C 156.983 292.253 128.693 314.278 123.018 323.292 C 120.555 325.257 109.877 324.78 106.074 324.825 C 107.774 318.56 138.328 293.663 145.909 284.234 z" fill="rgb(230,157,84)" transform="translate(0,0)"></path>
<path d="M 166.401 284.568 C 167.288 284.699 168.091 284.764 168.982 284.848 C 164.626 288.948 157.373 292.297 154.315 295.659 C 144.945 305.964 133.225 313.74 123.975 323.732 L 123.018 323.292 C 128.693 314.278 156.983 292.253 166.401 284.568 z" fill="rgb(26,20,18)" transform="translate(0,0)"></path>
<path d="M 178.732 283.983 C 182.768 282.676 196.645 283.674 201.137 284.413 C 209.6 284.891 239.597 284.201 244.727 285.484 L 245.421 287.196 C 242.135 289.935 238.667 292.446 235.039 294.711 C 234.089 296.738 226.491 301.874 224.272 303.478 C 221.766 305.917 220.175 307.598 217.233 309.529 C 216.364 310.33 216.112 310.533 215.096 311.209 C 214.576 311.716 212.222 314.069 211.796 314.355 C 210.688 315.682 209.641 316.946 208.468 318.221 L 204.686 323.434 C 200.592 325.733 175.725 324.912 169.113 324.891 C 164.486 325.189 160.783 325.201 156.187 324.864 C 162.453 309.986 171.751 296.867 178.732 283.983 z" fill="rgb(133,75,46)" transform="translate(0,0)"></path>
<path d="M 178.732 283.983 C 182.768 282.676 196.645 283.674 201.137 284.413 C 195.581 289.877 187.534 296.158 182.581 301.229 C 180.535 303.325 169.591 322.8 169.113 324.891 C 164.486 325.189 160.783 325.201 156.187 324.864 C 162.453 309.986 171.751 296.867 178.732 283.983 z" fill="rgb(26,20,18)" transform="translate(0,0)"></path>
<path d="M 224.272 303.478 C 224.669 300.494 232.362 294.343 235.039 294.711 C 234.089 296.738 226.491 301.874 224.272 303.478 z" fill="rgb(26,20,18)" transform="translate(0,0)"></path>
<path d="M 244.727 285.484 L 245.421 287.196 C 242.135 289.935 238.667 292.446 235.039 294.711 C 237.847 289.932 240.073 288.929 244.727 285.484 z" fill="rgb(26,20,18)" transform="translate(0,0)"></path>
<path d="M 215.096 311.209 C 214.945 309.142 215.298 307.786 217.233 309.529 C 216.364 310.33 216.112 310.533 215.096 311.209 z" fill="rgb(26,20,18)" transform="translate(0,0)"></path>
<path d="M 208.468 318.221 C 206.495 315.916 209.753 315.371 211.796 314.355 C 210.688 315.682 209.641 316.946 208.468 318.221 z" fill="rgb(44,27,16)" transform="translate(0,0)"></path>
<path d="M 59.1336 284.678 L 90.0522 284.324 C 78.6366 296.216 67.1956 310.473 59.164 324.909 C 48.3789 324.942 30.5543 325.444 20.4248 324.494 L 18.9658 322.94 C 26.4846 302.374 41.403 300.181 57.0464 285.39 C 58.015 284.754 57.9783 284.783 59.1336 284.678 z" fill="rgb(133,75,46)" transform="translate(0,0)"></path>
<path d="M 57.0464 285.39 C 58.015 284.754 57.9783 284.783 59.1336 284.678 C 53.2448 293.346 45.3498 296.814 37.5411 302.193 C 34.1744 304.426 33.9112 304.667 31.189 307.7 C 30.5358 308.315 29.9574 308.957 29.3443 309.612 C 28.7723 310.17 28.6081 310.37 28.108 310.974 L 26.2788 313.709 C 25.7232 314.344 25.8083 314.269 25.3864 315.061 C 22.3053 319.747 22.6402 319.457 20.4248 324.494 L 18.9658 322.94 C 26.4846 302.374 41.403 300.181 57.0464 285.39 z" fill="rgb(26,20,18)" transform="translate(0,0)"></path>
<path d="M 31.189 307.7 C 33.9112 304.667 34.1744 304.426 37.5411 302.193 C 34.6948 305.438 34.7496 305.439 31.189 307.7 z" fill="rgb(101,58,36)" transform="translate(0,0)"></path>
<path d="M 29.3443 309.612 C 28.9897 310.51 28.9573 310.424 28.108 310.974 C 28.6081 310.37 28.7723 310.17 29.3443 309.612 z" fill="rgb(123,71,43)" transform="translate(0,0)"></path>
<path d="M 25.3864 315.061 C 25.8083 314.269 25.7232 314.344 26.2788 313.709 C 25.9249 314.545 26.015 314.4 25.3864 315.061 z" fill="rgb(101,58,36)" transform="translate(0,0)"></path>
<path d="M 9.58975 285.99 C 13.9368 283.54 51.1037 284.348 57.0464 285.39 C 41.403 300.181 26.4846 302.374 18.9658 322.94 C 14.399 325.84 5.8483 324.9 0 324.73 L 0 302.383 L 0 285.934 C 3.39537 284.901 6.48812 284.163 9.58975 285.99 z" fill="rgb(230,157,84)" transform="translate(0,0)"></path>
<path d="M 0 285.934 C 3.39537 284.901 6.48812 284.163 9.58975 285.99 C 5.63031 291.761 3.49955 296.769 0 302.383 L 0 285.934 z" fill="url(#Gradient2)" transform="translate(0,0)"></path>
<path d="M 1974.23 680.109 C 1956.66 683.114 1934.07 679.208 1917.13 673.971 C 1827.56 646.272 1767.3 547.658 1798.45 455.572 C 1812.62 412.629 1843.65 377.301 1884.41 357.719 C 1919.12 340.633 1961.8 334.843 1998.84 347.466 C 2016.27 352.539 2032.84 360.202 2048 370.198 L 2048 656.195 C 2026.63 668.07 1999.2 680.291 1974.23 680.109 z" fill="rgb(44,27,16)" transform="translate(0,0)"></path>
<path d="M 1998.84 347.466 C 2016.27 352.539 2032.84 360.202 2048 370.198 L 2048 656.195 C 2026.63 668.07 1999.2 680.291 1974.23 680.109 C 1969.22 679.583 1957.49 680.63 1954.27 678.545 C 1949.68 659.869 1940.89 651.234 1932.67 634.673 C 1921.71 612.613 1948.22 587.383 1954.39 565.927 C 1959.85 546.934 1961.2 531.243 1963.59 511.9 C 1964.79 502.201 1973.67 487.317 1976.96 477.781 C 1984.63 460.802 2003.69 441.413 2010.36 423.64 L 2010.52 423.214 C 2007.66 407.26 2000.66 399.637 1995.94 384.789 C 1992.73 374.687 1999.66 357.51 1998.57 349.298 L 1998.84 347.466 z" fill="rgb(9,15,19)" transform="translate(0,0)"></path>
<path d="M 1986.38 380.011 C 1983.45 371.756 1976.48 353.265 1985.11 346.867 C 1988.37 346.092 1994.96 348.344 1998.57 349.298 C 1999.66 357.51 1992.73 374.687 1995.94 384.789 C 2000.66 399.637 2007.66 407.26 2010.52 423.214 L 2010.36 423.64 C 2003.69 441.413 1984.63 460.802 1976.96 477.781 C 1973.67 487.317 1964.79 502.201 1963.59 511.9 C 1961.2 531.243 1959.85 546.934 1954.39 565.927 C 1948.22 587.383 1921.71 612.613 1932.67 634.673 C 1940.89 651.234 1949.68 659.869 1954.27 678.545 C 1952.15 678.443 1940.36 678.091 1939.3 676.616 C 1933.75 668.875 1926.27 661.383 1919.86 654.577 C 1909.05 643.101 1915.19 636.386 1916.65 622.695 C 1917.11 612.892 1912.55 602.277 1914.54 590.472 C 1917.66 571.937 1931.66 562.492 1936.14 544.265 C 1938.91 533.01 1935.26 523.184 1936.27 512.62 L 1936.34 511.95 C 1937.2 502.967 1962.03 459.111 1966.99 449.384 C 1975.6 432.523 1999.71 420.656 1983.73 399.636 C 1979.96 394.679 1984.05 385.66 1986.38 380.011 z" fill="rgb(133,75,46)" transform="translate(0,0)"></path>
<path d="M 1936.25 344.569 C 1959.25 355.879 1952.4 360.131 1938.95 376.526 C 1945.92 416.808 1915.67 407.644 1901.16 440.672 C 1904.71 451.269 1904.6 455.941 1896.91 464.203 C 1880.02 482.335 1895.95 495.306 1893.74 514.585 C 1893.45 517.07 1890.74 526.751 1891.07 528.57 C 1895.85 554.707 1896.15 561.621 1874.1 578.032 C 1857.82 590.375 1879.13 605.858 1877.1 617.741 C 1875.08 629.5 1871.46 634.003 1870.95 648.929 C 1868.1 648.816 1850.71 633.299 1847.83 630.757 C 1838.71 622.906 1830.48 612.416 1823.64 602.581 C 1829.64 580.494 1830.77 575.356 1847.76 559.587 C 1859.68 545.977 1844.08 530.705 1840.1 517.636 C 1834.23 498.338 1818.56 464.154 1829.99 445.263 C 1832.65 440.852 1843.99 443.899 1848.02 442.874 C 1863.04 439.052 1867.6 417.326 1878.61 407.48 C 1889.44 396.818 1898.82 388.422 1908.79 377.636 C 1915.21 370.651 1909.75 362.498 1908.6 354.858 C 1907.27 345.959 1929.94 345.182 1936.25 344.569 z" fill="rgb(230,157,84)" transform="translate(0,0)"></path>
<path d="M 1938.71 343.604 C 1945.92 343.27 1954.02 343.352 1961.31 343.269 C 1975.27 368.551 1971.05 364.328 1956.34 385.335 C 1956.68 386.909 1956.63 387.019 1956.5 388.658 C 1958.86 392.9 1962.16 397.985 1962.83 402.657 C 1962.99 403.939 1963.05 403.855 1962.48 405.03 C 1960.24 430.441 1953.55 438.552 1936.52 456.386 C 1928.27 466.442 1918.75 478.171 1913.2 489.998 C 1908.72 499.573 1920.62 515.86 1918.04 526.671 C 1913.73 544.699 1899.93 550.867 1901.66 570.491 C 1901.71 570.966 1893.56 594.228 1892.58 599.389 C 1892.67 600.378 1892.66 600.295 1892.25 601.204 C 1892.12 611.308 1899.15 617.698 1901.51 626.241 C 1904.4 636.736 1898.9 653.378 1895.83 663.488 C 1891.17 660.705 1884.73 658.313 1879.63 655.236 C 1863.71 645.609 1880.77 628.965 1879.22 615.136 C 1878.83 607.704 1872.13 600.981 1870.72 593.924 C 1867.61 578.345 1886.62 573.755 1892.67 563.707 C 1898.98 553.225 1894.92 539.228 1892.12 528.288 C 1899.55 509.077 1895.55 507.103 1892.02 487.361 C 1890.5 478.863 1891.55 474.66 1896.47 467.853 C 1897.2 466.588 1897.04 466.642 1898.25 465.928 C 1902.55 460.385 1903.83 458.649 1906.9 452.293 L 1903.55 440.661 C 1911.07 421.392 1928.59 417.563 1939.58 401.97 C 1944.28 395.166 1940.47 384.661 1942.2 377.938 C 1943.65 372.344 1954.75 363.488 1952.99 356.621 C 1951.5 350.842 1943.51 346.631 1938.71 343.604 z" fill="rgb(133,75,46)" transform="translate(0,0)"></path>
<path d="M 1898.25 465.928 C 1897.81 467.087 1897.6 467.37 1896.47 467.853 C 1897.2 466.588 1897.04 466.642 1898.25 465.928 z" fill="rgb(123,71,43)" transform="translate(0,0)"></path>
<path d="M 1956.34 385.335 C 1956.68 386.909 1956.63 387.019 1956.5 388.658 C 1955.79 387.151 1956.01 387.046 1956.34 385.335 z" fill="rgb(123,71,43)" transform="translate(0,0)"></path>
<path d="M 1962.83 402.657 C 1962.99 403.939 1963.05 403.855 1962.48 405.03 C 1962.59 404.188 1962.67 403.495 1962.83 402.657 z" fill="rgb(123,71,43)" transform="translate(0,0)"></path>
<path d="M 1892.58 599.389 C 1892.67 600.378 1892.66 600.295 1892.25 601.204 C 1892.31 600.346 1892.22 600.134 1892.58 599.389 z" fill="rgb(101,58,36)" transform="translate(0,0)"></path>
<path d="M 1962.65 342.996 C 1969.58 343.541 1975.25 344.284 1982.13 345.32 C 1977.55 361.565 1978.78 363.77 1984.09 380.028 C 1983.13 384.199 1980.45 390.94 1978.92 395.156 C 1980.84 399.35 1986.38 406.373 1987.04 410.068 C 1988.68 422.729 1974.84 434.102 1968.45 443.971 C 1956.89 461.59 1948.48 481.961 1938.3 500.432 C 1929.44 512.575 1938.43 532.294 1933.7 544.236 C 1922 573.8 1904.5 584.855 1914.88 620.132 C 1915.21 621.236 1911.59 639.679 1912.48 645.888 C 1914.3 658.536 1933.4 667.057 1934.63 675.22 C 1932.01 676.259 1927.91 675.004 1924.92 674.401 C 1914.95 671.334 1907.24 668.205 1897.7 664.018 C 1901.05 653.817 1905.72 637.967 1903.57 627.396 C 1901.78 618.616 1893.08 610.319 1894.97 599.775 C 1896.62 590.597 1899.96 581.733 1902.39 572.733 C 1903.37 569.109 1904.81 558.449 1905.91 555.849 C 1910.18 545.811 1919.8 534.838 1920.43 523.518 C 1920.98 513.521 1915.31 504.343 1913.02 493.515 C 1920.71 476.416 1936.83 458.791 1949.54 445.057 C 1961.88 431.725 1962.7 418.581 1965.11 401.684 C 1944.98 363.792 1990.19 389.48 1962.65 342.996 z" fill="rgb(230,157,84)" transform="translate(0,0)"></path>
<path d="M 1856.44 377.151 C 1863.3 372.041 1898.45 350.09 1905.89 351.572 C 1916.51 382.884 1901.62 379.048 1883.12 400.023 C 1874.34 409.984 1865.96 421.117 1858.91 432.409 C 1856.15 436.505 1855.69 437.06 1851.7 439.667 C 1842.51 442.676 1831.94 437.043 1826.06 447.296 C 1818.03 461.277 1833.63 487.401 1821.89 499.389 C 1820.41 501.563 1819.13 503.688 1816.86 505.117 L 1809.85 513.49 C 1806.83 529.927 1808.71 534.382 1797.15 546.954 C 1795.73 538.83 1792.8 524.412 1792.72 516.677 C 1791.49 514.56 1791.79 513.111 1792.32 510.738 C 1803.08 489.165 1811.56 480.096 1800.54 456.434 C 1804.31 446.726 1806.79 440.323 1811.81 431.082 C 1822.11 427.625 1829.44 424.785 1838.9 419.505 C 1839.54 418.706 1839.38 418.808 1840.25 418.333 L 1842.02 417.043 C 1843.69 415.144 1843.82 414.647 1846.16 413.663 C 1856.54 397.061 1848.48 394.653 1850.45 382.898 C 1852.9 379.797 1853.37 379.515 1856.44 377.151 z" fill="rgb(133,75,46)" transform="translate(0,0)"></path>
<path d="M 1851.7 439.667 C 1854.24 436.609 1855.93 434.998 1858.91 432.409 C 1856.15 436.505 1855.69 437.06 1851.7 439.667 z" fill="rgb(123,71,43)" transform="translate(0,0)"></path>
<path d="M 1792.32 510.738 C 1792.78 513.413 1792.93 513.945 1792.72 516.677 C 1791.49 514.56 1791.79 513.111 1792.32 510.738 z" fill="rgb(101,58,36)" transform="translate(0,0)"></path>
<path d="M 1816.86 505.117 C 1817.62 502.623 1819.86 501.17 1821.89 499.389 C 1820.41 501.563 1819.13 503.688 1816.86 505.117 z" fill="rgb(123,71,43)" transform="translate(0,0)"></path>
<path d="M 1842.02 417.043 C 1843.69 415.144 1843.82 414.647 1846.16 413.663 C 1845.05 415.923 1844.47 415.967 1842.02 417.043 z" fill="rgb(101,58,36)" transform="translate(0,0)"></path>
<path d="M 1850.45 382.898 C 1852.9 379.797 1853.37 379.515 1856.44 377.151 C 1853.85 380.301 1853.8 380.613 1850.45 382.898 z" fill="rgb(101,58,36)" transform="translate(0,0)"></path>
<path d="M 1838.9 419.505 C 1839.54 418.706 1839.38 418.808 1840.25 418.333 C 1839.75 419.052 1839.68 419.006 1838.9 419.505 z" fill="rgb(101,58,36)" transform="translate(0,0)"></path>
<path d="M 1828.69 489.851 C 1829.81 491.437 1832.54 501.435 1833.18 503.718 C 1837.17 517.802 1842.25 528.728 1849.88 541.149 L 1849.93 553.876 C 1845.51 560.697 1835.44 567.919 1829.85 576.884 C 1825.36 584.094 1824.59 595.813 1821.42 599.324 C 1811.02 585.229 1802.52 565.683 1798.28 548.743 C 1810.12 534.476 1808.45 532.287 1811.48 514.229 C 1820.09 504.318 1823.99 502.378 1828.69 489.851 z" fill="rgb(230,157,84)" transform="translate(0,0)"></path>
<path d="M 1846.92 384.876 C 1849.66 387.789 1848.56 390.476 1849.18 393.995 C 1852.82 414.793 1829.58 421.871 1815.41 427.916 C 1815.15 427.905 1813.15 427.907 1813.55 427.021 C 1820.48 411.674 1835.01 396.472 1846.92 384.876 z" fill="rgb(230,157,84)" transform="translate(0,0)"></path>
<path d="M 1799.29 459.736 C 1810.57 472.321 1799.63 490.367 1794.29 502.622 C 1793.78 503.423 1793.74 503.731 1792.93 503.943 C 1792.69 503.875 1792.43 503.72 1792.43 503.494 C 1792.28 491.049 1795.38 470.445 1799.29 459.736 z" fill="rgb(230,157,84)" transform="translate(0,0)"></path>
<path d="M 0 360.629 C 4.8987 361.814 4.9573 361.986 9.95058 362.338 L 11.4227 361.274 C 35.6138 367.868 73.4237 376.497 96.5021 386.698 C 100.147 388.309 108.915 399.764 113.408 403.601 C 143.859 432.131 159.625 434.261 197.554 447.418 L 197.083 449.515 C 190.462 460.491 180.994 465.227 172.092 474.024 C 159.748 486.223 146.563 498.163 134.372 510.54 C 133.307 511.622 123.459 514.22 121.311 514.801 C 109.04 534.069 107.196 528.844 87.3751 534.149 L 78.5723 544.399 C 73.8039 545.941 66.3584 548.187 62.2011 550.486 C 51.2296 556.553 45.0548 563.876 33.4082 569.307 L 32.1136 568.055 C 23.3767 580.141 13.9473 589.245 0 594.631 L 0 581.107 L 0 578.941 L 0 526.717 L 0 524.266 L 0 485.448 L 0 483.615 L 0 450.427 L 0 448.283 L 0 406.686 L 0 404.742 L 0 360.629 z" fill="rgb(230,157,84)" transform="translate(0,0)"></path>
<path d="M 0 360.629 C 4.8987 361.814 4.9573 361.986 9.95058 362.338 L 11.4227 361.274 C 35.6138 367.868 73.4237 376.497 96.5021 386.698 C 100.147 388.309 108.915 399.764 113.408 403.601 L 111.608 404.178 L 108.326 402.288 C 93.2976 406.506 118.85 432.911 116.964 440.582 C 109.306 448.095 93.7438 440.848 92.4852 451.875 C 91.8713 457.254 99.6295 461.196 96.3334 468.583 C 92.4231 472.265 88.1349 472.158 85.1468 474.39 C 74.907 482.039 73.0815 489.473 58.431 488.445 C 53.6885 488.611 45.7944 486.764 42.1614 490.433 C 39.1461 493.479 37.1297 504.754 34.3108 507.253 C 24.1738 516.243 11.424 518.619 0 526.717 L 0 524.266 L 0 485.448 L 0 483.615 L 0 450.427 L 0 448.283 L 0 406.686 L 0 404.742 L 0 360.629 z" fill="rgb(133,75,46)" transform="translate(0,0)"></path>
<path d="M 35.194 421.401 C 39.1562 417.677 40.3331 416.582 43.2852 412.01 C 49.1815 402.877 51.7025 381.76 62.1338 377.753 L 66.4258 378.508 C 72.521 388.182 56.5078 409.451 53.4449 417.169 C 54.6579 426.897 58.0924 445.843 52.7575 454.122 C 48.1091 458.479 38.6243 456.044 29.4898 461.197 C 13.895 469.995 18.1625 480.306 0 483.615 L 0 450.427 L 0 448.283 C 8.48926 441.885 8.62034 438.969 15.3237 431.171 C 21.5094 424.66 25.9321 423.958 33.6511 419.94 L 35.194 421.401 z" fill="rgb(230,157,84)" transform="translate(0,0)"></path>
<path d="M 33.6511 419.94 L 35.194 421.401 C 25.367 427.448 27.4072 423.347 16.2548 433.084 L 15.3237 431.171 C 21.5094 424.66 25.9321 423.958 33.6511 419.94 z" fill="rgb(80,56,30)" transform="translate(0,0)"></path>
<path d="M 15.3237 431.171 L 16.2548 433.084 C 10.1112 440.061 8.63012 445.18 0 450.427 L 0 448.283 C 8.48926 441.885 8.62034 438.969 15.3237 431.171 z" fill="rgb(44,27,16)" transform="translate(0,0)"></path>
<path d="M 0 406.686 L 0.881673 406.473 C 21.6336 401.29 5.59275 373.051 12.751 364.476 C 16.8979 364.587 56.9813 375.286 58.6599 376.771 C 40.9233 396.016 52.8905 404.022 33.6511 419.94 C 25.9321 423.958 21.5094 424.66 15.3237 431.171 C 8.62034 438.969 8.48926 441.885 0 448.283 L 0 406.686 z" fill="rgb(230,157,84)" transform="translate(0,0)"></path>
<path d="M 0 360.629 C 4.8987 361.814 4.9573 361.986 9.95058 362.338 L 11.4227 361.274 C 35.6138 367.868 73.4237 376.497 96.5021 386.698 C 100.147 388.309 108.915 399.764 113.408 403.601 L 111.608 404.178 L 108.326 402.288 C 93.2976 406.506 118.85 432.911 116.964 440.582 C 109.306 448.095 93.7438 440.848 92.4852 451.875 C 91.8713 457.254 99.6295 461.196 96.3334 468.583 C 92.4231 472.265 88.1349 472.158 85.1468 474.39 C 74.907 482.039 73.0815 489.473 58.431 488.445 C 53.6885 488.611 45.7944 486.764 42.1614 490.433 C 39.1461 493.479 37.1297 504.754 34.3108 507.253 C 24.1738 516.243 11.424 518.619 0 526.717 L 0 524.266 C 0.484483 523.934 1.52289 523.26 1.95707 522.896 C 8.04629 516.951 25.4156 513.196 30.8563 507.179 C 42.8765 493.886 32.087 484.594 56.3765 486.228 C 58.944 486.219 61.6299 486.517 64.208 486.703 C 71.3624 484.337 74.1038 481.642 79.1522 476.391 C 80.3746 475.826 80.231 475.945 80.9361 474.752 C 86.0746 471.612 91.1319 469.122 96.4915 466.408 C 93.4224 459.54 89.9391 454.143 92.3308 446.697 C 98.8495 439.514 104.863 445.176 112.865 441.523 C 119.183 433.343 102.51 421.581 102.153 413.323 C 101.588 400.222 109.872 402.914 99.2811 391.871 C 98.3852 390.014 97.7452 389.882 96.019 388.704 C 89.8667 385.675 71.9564 375.989 68.2559 386.06 C 67.2573 388.777 68.0151 394.174 68.1306 397.377 C 64.1166 403.287 58.357 411.441 55.4809 417.861 C 56.1737 422.257 58.2662 433.497 58.3956 437.29 C 58.2481 438.442 58.3187 438.547 58.5001 439.703 C 55.9568 464.394 44.4243 457.64 26.7555 464.022 C 18.5165 473.776 14.1157 484.416 0 485.448 L 0 483.615 C 18.1625 480.306 13.895 469.995 29.4898 461.197 C 38.6243 456.044 48.1091 458.479 52.7575 454.122 C 58.0924 445.843 54.6579 426.897 53.4449 417.169 C 56.5078 409.451 72.521 388.182 66.4258 378.508 L 62.1338 377.753 C 51.7025 381.76 49.1815 402.877 43.2852 412.01 C 40.3331 416.582 39.1562 417.677 35.194 421.401 L 33.6511 419.94 C 52.8905 404.022 40.9233 396.016 58.6599 376.771 C 56.9813 375.286 16.8979 364.587 12.751 364.476 C 5.59275 373.051 21.6336 401.29 0.881673 406.473 L 0 406.686 L 0 404.742 L 0 360.629 z" fill="rgb(44,27,16)" transform="translate(0,0)"></path>
<path d="M 0 360.629 C 4.8987 361.814 4.9573 361.986 9.95058 362.338 C 10.163 365.949 8.69819 368.29 8.76529 371.99 C 8.98786 384.26 15.3707 399.77 0 404.742 L 0 360.629 z" fill="rgb(230,157,84)" transform="translate(0,0)"></path>
<path d="M 56.3765 486.228 C 58.944 486.219 61.6299 486.517 64.208 486.703 C 61.57 486.989 58.6637 487.569 56.3765 486.228 z" fill="rgb(101,58,36)" transform="translate(0,0)"></path>
<path d="M 96.019 388.704 C 97.7452 389.882 98.3852 390.014 99.2811 391.871 C 97.4031 391.347 97.1173 390.232 96.019 388.704 z" fill="rgb(101,58,36)" transform="translate(0,0)"></path>
<path d="M 58.3956 437.29 C 59.1062 438.527 59.0363 438.438 58.5001 439.703 C 58.3187 438.547 58.2481 438.442 58.3956 437.29 z" fill="rgb(123,71,43)" transform="translate(0,0)"></path>
<path d="M 79.1522 476.391 C 79.5796 475.316 79.8404 475.151 80.9361 474.752 C 80.231 475.945 80.3746 475.826 79.1522 476.391 z" fill="rgb(123,71,43)" transform="translate(0,0)"></path>
<path d="M 113.408 403.601 C 143.859 432.131 159.625 434.261 197.554 447.418 L 197.083 449.515 C 190.462 460.491 180.994 465.227 172.092 474.024 C 159.748 486.223 146.563 498.163 134.372 510.54 C 133.307 511.622 123.459 514.22 121.311 514.801 C 109.04 534.069 107.196 528.844 87.3751 534.149 L 78.5723 544.399 C 73.8039 545.941 66.3584 548.187 62.2011 550.486 C 51.2296 556.553 45.0548 563.876 33.4082 569.307 L 32.1136 568.055 C 23.3767 580.141 13.9473 589.245 0 594.631 L 0 581.107 L 0 578.941 C 3.96062 575.776 6.37013 573.894 10.8074 571.43 C 12.0183 570.413 13.3556 570.032 14.8651 569.396 C 34.7906 557.686 31.4942 550.182 47.0777 536.492 C 52.9279 531.353 72.4335 516.868 79.6176 513.177 C 83.4699 511.198 95.4115 511.888 102.558 507.168 C 113.291 500.077 111.487 494.298 118.897 484.722 C 123.17 479.201 134.839 476.077 138.195 471.992 C 147.492 460.673 152.011 449.888 161.761 437.794 C 145.444 431.221 122.963 417.674 111.608 404.178 L 113.408 403.601 z" fill="rgb(123,71,43)" transform="translate(0,0)"></path>
<path d="M 145.299 487.618 C 151.919 484.54 159.444 473.426 165.382 468.381 C 173.154 461.779 181.877 455.49 188.285 447.58 C 191.594 446.997 193.518 448.295 197.083 449.515 C 190.462 460.491 180.994 465.227 172.092 474.024 C 159.748 486.223 146.563 498.163 134.372 510.54 C 133.307 511.622 123.459 514.22 121.311 514.801 C 109.04 534.069 107.196 528.844 87.3751 534.149 L 78.5723 544.399 C 73.8039 545.941 66.3584 548.187 62.2011 550.486 C 51.2296 556.553 45.0548 563.876 33.4082 569.307 C 41.7386 554.103 44.2105 549.75 57.8816 540.474 C 61.2338 539.682 68.9656 536.419 71.272 533.804 C 76.8803 530.295 78.5628 527.679 83.3536 523.182 C 95.1873 520.398 98.7579 520.654 108.389 511.726 L 108.56 511.144 C 111.837 509.615 114.992 507.837 117.996 505.824 L 119.167 505.085 C 119.976 504.738 120.721 504.549 121.237 503.873 L 124.245 502.002 C 125.177 501.384 125.941 500.882 126.839 500.203 L 127.592 499.251 C 130.28 497.431 132.401 495.819 134.762 493.592 L 136.305 492.631 C 140.013 490.974 141.568 490.773 144.635 487.934 L 145.299 487.618 z" fill="rgb(230,157,84)" transform="translate(0,0)"></path>
<path d="M 113.408 403.601 C 143.859 432.131 159.625 434.261 197.554 447.418 L 197.083 449.515 C 193.518 448.295 191.594 446.997 188.285 447.58 C 181.877 455.49 173.154 461.779 165.382 468.381 C 159.444 473.426 151.919 484.54 145.299 487.618 C 146.07 484.593 156.636 473.29 159.333 470.546 C 161.24 468.934 163.677 466.908 164.99 464.818 C 170.658 461.117 183.103 454.337 184.468 448.234 C 182.662 443.146 168.156 438.706 163.805 439.227 C 162.889 440.069 162.479 440.522 161.716 441.504 C 152.053 452.572 149.225 460.795 140.618 472.061 C 137.082 476.689 124.605 480.791 121.433 484.924 C 113.266 495.565 108.86 511.489 92.0572 513.283 C 90.4077 513.266 89.9296 513.159 88.3636 513.668 C 72.7204 514.782 60.7734 529.227 48.4014 538.116 C 39.1488 544.764 26.8315 570.923 14.8651 569.396 C 34.7906 557.686 31.4942 550.182 47.0777 536.492 C 52.9279 531.353 72.4335 516.868 79.6176 513.177 C 83.4699 511.198 95.4115 511.888 102.558 507.168 C 113.291 500.077 111.487 494.298 118.897 484.722 C 123.17 479.201 134.839 476.077 138.195 471.992 C 147.492 460.673 152.011 449.888 161.761 437.794 C 145.444 431.221 122.963 417.674 111.608 404.178 L 113.408 403.601 z" fill="rgb(44,27,16)" transform="translate(0,0)"></path>
<path d="M 80.9619 521.856 C 84.0896 520.974 90.7269 519.129 93.8837 518.573 C 97.7465 517.893 106.607 510.767 107.23 510.718 C 107.635 511.009 108.014 511.385 108.389 511.726 C 98.7579 520.654 95.1873 520.398 83.3536 523.182 C 78.5628 527.679 76.8803 530.295 71.272 533.804 C 73.147 530.23 77.9593 525.311 80.9619 521.856 z" fill="rgb(44,27,16)" transform="translate(0,0)"></path>
<path d="M 32.1136 568.055 C 36.601 559.817 47.3603 540.507 57.8816 540.474 C 44.2105 549.75 41.7386 554.103 33.4082 569.307 L 32.1136 568.055 z" fill="rgb(26,20,18)" transform="translate(0,0)"></path>
<path d="M 10.8074 571.43 C 10.041 575 3.34744 578.86 0 581.107 L 0 578.941 C 3.96062 575.776 6.37013 573.894 10.8074 571.43 z" fill="rgb(26,20,18)" transform="translate(0,0)"></path>
<path d="M 136.305 492.631 C 139.236 488.238 139.395 488.561 144.635 487.934 C 141.568 490.773 140.013 490.974 136.305 492.631 z" fill="rgb(44,27,16)" transform="translate(0,0)"></path>
<path d="M 108.56 511.144 C 110.306 508.138 111.864 506.628 115.538 506.139 L 117.996 505.824 C 114.992 507.837 111.837 509.615 108.56 511.144 z" fill="rgb(44,27,16)" transform="translate(0,0)"></path>
<path d="M 127.592 499.251 C 128.73 496.627 129.651 494.895 132.638 494.121 L 134.762 493.592 C 132.401 495.819 130.28 497.431 127.592 499.251 z" fill="rgb(26,20,18)" transform="translate(0,0)"></path>
<path d="M 164.99 464.818 C 163.677 466.908 161.24 468.934 159.333 470.546 C 160.918 468.215 162.304 465.835 164.99 464.818 z" fill="rgb(101,58,36)" transform="translate(0,0)"></path>
<path d="M 124.245 502.002 C 124.968 499.834 124.593 499.31 126.839 500.203 C 125.941 500.882 125.177 501.384 124.245 502.002 z" fill="rgb(26,20,18)" transform="translate(0,0)"></path>
<path d="M 119.167 505.085 L 119.332 504.907 C 120.052 504.118 120.214 503.843 121.237 503.873 C 120.721 504.549 119.976 504.738 119.167 505.085 z" fill="rgb(44,27,16)" transform="translate(0,0)"></path>
<path d="M 88.3636 513.668 C 89.9296 513.159 90.4077 513.266 92.0572 513.283 C 90.3092 513.746 90.2649 513.767 88.3636 513.668 z" fill="rgb(101,58,36)" transform="translate(0,0)"></path>
<path d="M 163.805 439.227 C 162.975 440.475 162.895 440.562 161.716 441.504 C 162.479 440.522 162.889 440.069 163.805 439.227 z" fill="rgb(123,71,43)" transform="translate(0,0)"></path>
<path d="M 197.554 447.418 L 254.837 466.369 L 252.826 468.851 C 247.449 483.609 242.263 496.99 226.835 504.349 C 215.391 509.807 192.47 507.246 187.654 521.606 C 180.978 541.507 172.336 563.097 151.179 571.343 C 137.181 577.389 119.962 580.743 106.601 587.103 C 93.5042 611.341 75.9882 603.266 57.2687 612.553 C 33.1108 624.538 27.2589 630.108 0 635.085 L 0 630.873 L 0 594.631 C 13.9473 589.245 23.3767 580.141 32.1136 568.055 L 33.4082 569.307 C 45.0548 563.876 51.2296 556.553 62.2011 550.486 C 66.3584 548.187 73.8039 545.941 78.5723 544.399 L 87.3751 534.149 C 107.196 528.844 109.04 534.069 121.311 514.801 C 123.459 514.22 133.307 511.622 134.372 510.54 C 146.563 498.163 159.748 486.223 172.092 474.024 C 180.994 465.227 190.462 460.491 197.083 449.515 L 197.554 447.418 z" fill="rgb(230,157,84)" transform="translate(0,0)"></path>
<path d="M 197.554 447.418 L 254.837 466.369 L 252.826 468.851 C 248.493 464.833 226.503 458.825 219.429 456.745 C 209.987 462.815 201.9 467.246 195.085 476.571 C 191 482.16 189.154 491.859 184.801 495.025 C 178.621 499.52 170.588 500.865 162.951 505.273 C 153.779 510.567 145.13 525.266 139.27 529.723 C 123.498 541.72 122.93 534.808 110.065 552.121 C 102.441 554.72 93.0306 556.174 84.9901 557.649 C 81.8282 560.939 76.6485 566.554 72.777 567.866 C 46.8723 576.638 30.5316 596.521 15.7597 618.544 C 10.8154 625.916 9.10849 628.091 0 630.873 L 0 594.631 C 13.9473 589.245 23.3767 580.141 32.1136 568.055 L 33.4082 569.307 C 45.0548 563.876 51.2296 556.553 62.2011 550.486 C 66.3584 548.187 73.8039 545.941 78.5723 544.399 L 87.3751 534.149 C 107.196 528.844 109.04 534.069 121.311 514.801 C 123.459 514.22 133.307 511.622 134.372 510.54 C 146.563 498.163 159.748 486.223 172.092 474.024 C 180.994 465.227 190.462 460.491 197.083 449.515 L 197.554 447.418 z" fill="rgb(26,20,18)" transform="translate(0,0)"></path>
<path d="M 115.949 589.86 L 120.228 589.263 C 121.26 606.268 120.679 623.484 120.945 640.51 C 121.062 647.927 120.632 658.979 121.71 666.054 C 122.267 666.508 123.158 667.305 123.749 667.612 C 119.385 668.522 115.323 669.38 110.997 670.522 C 99.486 675.564 88.5938 680.487 76.6985 684.603 C 59.8225 687.494 19.2813 685.602 0 685.923 L 0 639.564 L 13.4351 638.891 C 17.9221 637.872 19.0646 637.812 23.4803 636.309 L 25.1558 635.294 C 29.2318 634.868 30.7456 634.213 34.4705 632.43 C 35.8357 631.364 42.5982 628.089 44.515 627.117 C 48.5983 624.671 53.2618 621.336 57.581 619.636 C 70.7372 614.456 84.1873 613.877 97.0385 607.683 C 106.358 603.191 108.95 593.472 115.949 589.86 z" fill="rgb(9,15,19)" transform="translate(0,0)"></path>
<path d="M 34.4705 632.43 C 35.8357 631.364 42.5982 628.089 44.515 627.117 C 44.5305 646.431 44.6758 665.745 44.951 685.057 L 61.6096 684.944 L 73.4326 628.808 C 74.1953 635.959 74.5495 682.792 76.6985 684.603 C 59.8225 687.494 19.2813 685.602 0 685.923 L 0 639.564 L 13.4351 638.891 C 17.9221 637.872 19.0646 637.812 23.4803 636.309 L 25.1558 635.294 C 29.2318 634.868 30.7456 634.213 34.4705 632.43 z" fill="rgb(133,75,46)" transform="translate(0,0)"></path>
<path d="M 13.4351 638.891 C 17.9221 637.872 19.0646 637.812 23.4803 636.309 C 22.1228 645.832 19.2459 658.824 16.7252 668.31 L 13.9006 665.999 C 13.9254 656.787 13.6041 648.044 13.4351 638.891 z" fill="rgb(9,15,19)" transform="translate(0,0)"></path>
<path d="M 34.4705 632.43 C 34.2579 643.041 31.871 658.953 32.0847 666.982 C 31.4352 667.695 30.5226 669.094 29.9416 669.935 C 30.0991 663.464 26.948 641.544 25.1558 635.294 C 29.2318 634.868 30.7456 634.213 34.4705 632.43 z" fill="rgb(9,15,19)" transform="translate(0,0)"></path>
<path d="M 13.9006 665.999 L 16.7252 668.31 C 15.5821 673.923 14.417 678.491 12.7429 683.945 C 13.0367 677.706 13.3697 672.232 13.9006 665.999 z" fill="rgb(26,20,18)" transform="translate(0,0)"></path>
<path d="M 29.9416 669.935 C 30.5226 669.094 31.4352 667.695 32.0847 666.982 C 31.943 668.885 31.9711 670.464 31.0535 672.201 L 30.7272 672.409 C 30.0111 671.968 30.0858 670.71 29.9416 669.935 z" fill="rgb(101,58,36)" transform="translate(0,0)"></path>
<path d="M 115.949 589.86 L 120.228 589.263 C 121.26 606.268 120.679 623.484 120.945 640.51 C 121.062 647.927 120.632 658.979 121.71 666.054 C 122.267 666.508 123.158 667.305 123.749 667.612 C 119.385 668.522 115.323 669.38 110.997 670.522 L 111.159 669.34 C 113.655 650.612 116.426 612.549 117.643 592.085 C 116.987 591.223 116.423 590.482 115.949 589.86 z" fill="rgb(133,75,46)" transform="translate(0,0)"></path>
<path d="M 194.605 520.073 C 225.22 510.752 237.649 513.156 255.354 483.065 L 254.794 570.221 C 242.655 574.87 228.246 580.324 216.862 586.435 C 214.405 588.163 212.537 589.32 209.942 590.837 C 204.621 595.518 202.576 597.375 198.138 602.945 C 196.616 605.38 192.908 610.979 191.969 613.369 C 188.863 622.791 183.949 630.839 180.39 639.798 C 179.133 637.502 180.201 564.656 180.224 555.934 C 187.514 543.108 190.917 534.525 194.605 520.073 z" fill="rgb(9,15,19)" transform="translate(0,0)"></path>
<path d="M 191.969 613.369 C 191.029 599.629 192.835 557.671 195.508 544.997 C 198.034 561.143 196.664 585.048 198.138 602.945 C 196.616 605.38 192.908 610.979 191.969 613.369 z" fill="rgb(123,71,43)" transform="translate(0,0)"></path>
<path d="M 214.063 540.587 C 214.731 544.228 215.198 547.784 215.921 551.412 C 216.175 563.09 216.676 574.814 216.862 586.435 C 214.405 588.163 212.537 589.32 209.942 590.837 C 210.202 577.606 211.771 553.17 214.063 540.587 z" fill="rgb(133,75,46)" transform="translate(0,0)"></path>
<path d="M 214.063 540.587 C 213.998 539.153 213.917 538.132 214.955 536.941 L 215.287 536.827 C 216.308 538.251 215.992 548.861 215.921 551.412 C 215.198 547.784 214.731 544.228 214.063 540.587 z" fill="rgb(44,27,16)" transform="translate(0,0)"></path>
<path d="M 1936.92 701.588 C 1940.4 699.954 1982.98 700.478 1988.1 701.75 C 1999.99 702.012 2016.86 701.455 2027.95 702.23 C 2034.63 702.006 2041.32 701.927 2048 701.993 L 2048 718.135 L 2048 723.848 L 2048 739.046 C 2045.35 739.01 2042.7 738.933 2040.05 738.813 C 2039.4 738.503 2038.75 738.186 2038.11 737.861 C 2037.49 738.321 2037.34 738.537 2036.82 739.097 L 2036.07 741.062 C 2006.24 740.888 1976.4 740.943 1946.56 741.225 C 1937.62 741.27 1908.31 741.891 1901.49 740.318 C 1898.35 739.439 1884.71 739.497 1880.76 739.449 L 1881.58 737.377 C 1883.71 736.44 1886.07 735.733 1887.19 733.731 C 1889.84 730.07 1891.15 729.495 1894.35 726.462 C 1895.5 725.899 1895.36 726.008 1896.08 724.88 C 1900.92 720.835 1916.52 706.602 1920.81 702.076 L 1922.32 702.732 C 1925.28 701.676 1933.41 701.672 1936.92 701.588 z" fill="rgb(26,20,18)" transform="translate(0,0)"></path>
<path d="M 1988.1 701.75 C 1999.99 702.012 2016.86 701.455 2027.95 702.23 C 2034.63 702.006 2041.32 701.927 2048 701.993 L 2048 718.135 L 2048 723.848 L 2048 739.046 C 2045.35 739.01 2042.7 738.933 2040.05 738.813 C 2039.4 738.503 2038.75 738.186 2038.11 737.861 C 2037.49 738.321 2037.34 738.537 2036.82 739.097 C 2021.88 739.663 2006.21 739.363 1991.19 739.276 L 1989.37 737.43 L 1988.74 738.549 C 1985.38 740.415 1963.76 739.884 1957.96 739.901 C 1969.28 726.44 1977.78 715.912 1988.1 701.75 z" fill="rgb(133,75,46)" transform="translate(0,0)"></path>
<path d="M 2027.95 702.23 C 2034.63 702.006 2041.32 701.927 2048 701.993 L 2048 718.135 L 2048 723.848 L 2048 739.046 C 2045.35 739.01 2042.7 738.933 2040.05 738.813 C 2039.4 738.503 2038.75 738.186 2038.11 737.861 C 2037.49 738.321 2037.34 738.537 2036.82 739.097 C 2021.88 739.663 2006.21 739.363 1991.19 739.276 C 1992.25 738.091 1993.31 736.916 1994.39 735.749 L 1994.66 735.275 C 1998.28 733.37 1999.82 732.135 2002.85 729.356 C 2005.33 728.731 2009.55 725.693 2012.19 724.169 C 2013.12 723.422 2013.62 723.028 2014.44 722.163 L 2015.76 721.11 C 2021.07 716.903 2024.1 710.32 2026.41 704.178 L 2027.95 702.23 z" fill="rgb(230,157,84)" transform="translate(0,0)"></path>
<path d="M 2040.05 738.813 C 2040.18 738.35 2047.4 724.791 2048 723.848 L 2048 739.046 C 2045.35 739.01 2042.7 738.933 2040.05 738.813 z" fill="rgb(123,71,43)" transform="translate(0,0)"></path>
<path d="M 2048 718.135 L 2048 723.848 C 2047.4 724.791 2040.18 738.35 2040.05 738.813 C 2039.4 738.503 2038.75 738.186 2038.11 737.861 C 2042.82 730.137 2044.36 726.025 2048 718.135 z" fill="url(#Gradient1)" transform="translate(0,0)"></path>
<path d="M 2017.46 716.155 C 2020.61 712.402 2023.97 705.815 2026.41 704.178 C 2024.1 710.32 2021.07 716.903 2015.76 721.11 L 2014.44 722.163 L 2015.25 718.443 L 2016.49 717.498 C 2017.08 716.84 2017.06 716.937 2017.46 716.155 z" fill="rgb(26,20,18)" transform="translate(0,0)"></path>
<path d="M 2011.47 722.104 L 2012.19 724.169 C 2009.55 725.693 2005.33 728.731 2002.85 729.356 C 2003.26 726.465 2008.62 724.422 2011.47 722.104 z" fill="rgb(26,20,18)" transform="translate(0,0)"></path>
<path d="M 1994.66 735.275 C 1996.25 732.015 1998.49 727.963 2002.3 729.207 L 2002.85 729.356 C 1999.82 732.135 1998.28 733.37 1994.66 735.275 z" fill="rgb(44,27,16)" transform="translate(0,0)"></path>
<path d="M 2015.25 718.443 L 2014.44 722.163 C 2013.62 723.028 2013.12 723.422 2012.19 724.169 L 2011.47 722.104 C 2011.94 720.773 2012.11 720.315 2013.39 719.546 L 2015.25 718.443 z" fill="rgb(101,58,36)" transform="translate(0,0)"></path>
<path d="M 1989.37 737.43 C 1991.69 736.021 1991.78 735.368 1994.39 735.749 C 1993.31 736.916 1992.25 738.091 1991.19 739.276 L 1989.37 737.43 z" fill="rgb(44,27,16)" transform="translate(0,0)"></path>
<path d="M 2016.49 717.498 C 2016.84 716.745 2016.8 716.516 2017.46 716.155 C 2017.06 716.937 2017.08 716.84 2016.49 717.498 z" fill="rgb(123,71,43)" transform="translate(0,0)"></path>
<path d="M 1920.81 702.076 L 1922.32 702.732 C 1925.28 701.676 1933.41 701.672 1936.92 701.588 C 1937.24 703.784 1937.58 703.229 1936.02 705.167 C 1926 717.603 1909.93 726.849 1901.49 740.318 C 1898.35 739.439 1884.71 739.497 1880.76 739.449 L 1881.58 737.377 C 1883.71 736.44 1886.07 735.733 1887.19 733.731 C 1889.84 730.07 1891.15 729.495 1894.35 726.462 C 1895.5 725.899 1895.36 726.008 1896.08 724.88 C 1900.92 720.835 1916.52 706.602 1920.81 702.076 z" fill="rgb(230,157,84)" transform="translate(0,0)"></path>
<path d="M 1920.81 702.076 L 1922.32 702.732 C 1917.57 708.991 1894.3 729.979 1887.19 733.731 C 1889.84 730.07 1891.15 729.495 1894.35 726.462 C 1895.5 725.899 1895.36 726.008 1896.08 724.88 C 1900.92 720.835 1916.52 706.602 1920.81 702.076 z" fill="rgb(44,27,16)" transform="translate(0,0)"></path>
<path d="M 180.224 555.934 C 180.201 564.656 179.133 637.502 180.39 639.798 C 178.251 644.472 176.487 647.519 173.906 651.897 C 168.109 662.195 134.879 665.578 123.749 667.612 C 123.158 667.305 122.267 666.508 121.71 666.054 C 120.632 658.979 121.062 647.927 120.945 640.51 C 120.679 623.484 121.26 606.268 120.228 589.263 L 128.035 586.341 C 130.39 585.754 132.552 584.921 134.856 584.151 C 149.035 582.353 164.598 573.491 174.625 563.254 L 180.224 555.934 z" fill="rgb(9,15,19)" transform="translate(0,0)"></path>
<path d="M 180.224 555.934 C 180.201 564.656 179.133 637.502 180.39 639.798 C 178.251 644.472 176.487 647.519 173.906 651.897 C 173.932 631.954 174.075 612.012 174.337 592.072 C 174.438 584.727 175.349 569.837 174.625 563.254 L 180.224 555.934 z" fill="rgb(133,75,46)" transform="translate(0,0)"></path>
<path d="M 128.035 586.341 C 130.39 585.754 132.552 584.921 134.856 584.151 C 133.007 592.189 130.913 600.168 128.577 608.079 C 127.995 600.828 128.049 593.632 128.035 586.341 z" fill="rgb(123,71,43)" transform="translate(0,0)"></path>
<path d="M 1979.67 284.883 C 1981.73 281.543 2012.6 282.051 2016.42 284.224 C 2020.75 284.848 2024.75 284.658 2029.13 284.663 L 2030.88 284.908 C 2035.89 284.589 2044.39 282.238 2041.91 288.723 L 2042.41 290.301 C 2044.54 286.796 2045.19 285.972 2048 283.031 L 2048 324.834 C 2042.29 324.842 2034.5 325.236 2029.11 324.346 L 2028.14 324.095 C 2025.36 325.136 2009.8 324.75 2005.91 324.562 L 2004.55 325.03 C 1999.8 324.325 1994.66 324.652 1989.82 324.802 C 1979.48 325.93 1966.09 324.851 1955.13 325.237 C 1951.52 325.314 1949.8 325.929 1946.73 324.158 C 1943.88 325.106 1922.62 324.747 1918.43 324.448 L 1917.51 322.865 C 1919.06 321.207 1923.49 317.132 1924.31 315.557 C 1931.65 301.488 1928.96 298.468 1939.53 284.878 L 1942.48 285.014 C 1950.49 285.009 1962.89 284.644 1970.49 285.264 L 1972.6 285.66 C 1975.31 284.73 1976.86 285.005 1979.67 284.883 z" fill="rgb(26,20,18)" transform="translate(0,0)"></path>
<path d="M 1939.53 284.878 L 1942.48 285.014 C 1950.49 285.009 1962.89 284.644 1970.49 285.264 C 1967.12 299.873 1962.5 296.169 1954.56 307.589 C 1952.92 309.949 1948.76 320.153 1946.73 324.158 C 1943.88 325.106 1922.62 324.747 1918.43 324.448 L 1917.51 322.865 C 1919.06 321.207 1923.49 317.132 1924.31 315.557 C 1931.65 301.488 1928.96 298.468 1939.53 284.878 z" fill="rgb(133,75,46)" transform="translate(0,0)"></path>
<path d="M 1939.53 284.878 L 1942.48 285.014 C 1941.31 286.278 1940.18 287.651 1939.06 288.974 C 1938 289.807 1938.1 289.681 1937.46 290.837 C 1931.08 299.559 1931.98 307.059 1926.13 316.069 C 1923.81 319.646 1921.13 321.257 1918.43 324.448 L 1917.51 322.865 C 1919.06 321.207 1923.49 317.132 1924.31 315.557 C 1931.65 301.488 1928.96 298.468 1939.53 284.878 z" fill="rgb(44,27,16)" transform="translate(0,0)"></path>
<path d="M 1939.06 288.974 C 1938.64 290.218 1938.7 290.425 1937.46 290.837 C 1938.1 289.681 1938 289.807 1939.06 288.974 z" fill="rgb(123,71,43)" transform="translate(0,0)"></path>
<path d="M 2048 283.031 L 2048 324.834 C 2042.29 324.842 2034.5 325.236 2029.11 324.346 L 2028.14 324.095 C 2025.36 325.136 2009.8 324.75 2005.91 324.562 C 2011.75 310.261 2012.95 315.161 2022.09 306.082 C 2022.81 305.051 2023.41 304.155 2024.21 303.18 C 2027.76 297.111 2028.79 291.5 2030.88 284.908 C 2035.89 284.589 2044.39 282.238 2041.91 288.723 L 2042.41 290.301 C 2044.54 286.796 2045.19 285.972 2048 283.031 z" fill="rgb(230,157,84)" transform="translate(0,0)"></path>
<path d="M 2048 283.031 L 2048 324.834 C 2042.29 324.842 2034.5 325.236 2029.11 324.346 C 2031.85 316.337 2033.25 316.074 2038.71 309.613 C 2039.61 301.888 2039.47 297.236 2042.41 290.301 C 2044.54 286.796 2045.19 285.972 2048 283.031 z" fill="rgb(123,71,43)" transform="translate(0,0)"></path>
<path d="M 2041.91 288.723 L 2042.41 290.301 C 2039.47 297.236 2039.61 301.888 2038.71 309.613 C 2033.25 316.074 2031.85 316.337 2029.11 324.346 L 2028.14 324.095 C 2030.11 313.267 2034.1 314.736 2036.64 308.177 C 2039.47 300.848 2035.65 298.667 2041.91 288.723 z" fill="rgb(44,27,16)" transform="translate(0,0)"></path>
<path d="M 2016.42 284.224 C 2020.75 284.848 2024.75 284.658 2029.13 284.663 L 2030.88 284.908 C 2028.79 291.5 2027.76 297.111 2024.21 303.18 C 2023.41 304.155 2022.81 305.051 2022.09 306.082 C 2012.95 315.161 2011.75 310.261 2005.91 324.562 L 2004.55 325.03 C 1999.8 324.325 1994.66 324.652 1989.82 324.802 C 1993.24 308.191 2001.38 306.306 2011.23 295.155 C 2013.29 292.821 2015.19 287.223 2016.42 284.224 z" fill="rgb(230,157,84)" transform="translate(0,0)"></path>
<path d="M 2020.29 305.383 L 2022.09 306.082 C 2012.95 315.161 2011.75 310.261 2005.91 324.562 L 2004.55 325.03 L 2004.77 323.144 C 2005.82 314.458 2014.49 309.904 2020.29 305.383 z" fill="rgb(80,56,30)" transform="translate(0,0)"></path>
<path d="M 2029.13 284.663 L 2030.88 284.908 C 2028.79 291.5 2027.76 297.111 2024.21 303.18 L 2023.09 301.676 C 2026.03 295.056 2026.76 291.447 2029.13 284.663 z" fill="rgb(80,56,30)" transform="translate(0,0)"></path>
<path d="M 2023.09 301.676 L 2024.21 303.18 C 2023.41 304.155 2022.81 305.051 2022.09 306.082 L 2020.29 305.383 C 2021.25 304.168 2022.19 302.932 2023.09 301.676 z" fill="rgb(26,20,18)" transform="translate(0,0)"></path>
<path d="M 1972.6 285.66 C 1975.31 284.73 1976.86 285.005 1979.67 284.883 C 1973.49 298.388 1967.54 302.706 1959.81 314.348 C 1957.16 318.347 1960.74 322.553 1955.32 324.411 L 1955.13 325.237 C 1951.52 325.314 1949.8 325.929 1946.73 324.158 C 1948.76 320.153 1952.92 309.949 1954.56 307.589 C 1962.5 296.169 1967.12 299.873 1970.49 285.264 L 1972.6 285.66 z" fill="rgb(230,157,84)" transform="translate(0,0)"></path>
<path d="M 1970.49 285.264 L 1972.6 285.66 C 1967.99 301.989 1956.32 302.267 1951.62 318.385 C 1951.25 319.67 1948.96 322.36 1949.35 323.716 C 1950.2 324.405 1954.09 324.339 1955.32 324.411 L 1955.13 325.237 C 1951.52 325.314 1949.8 325.929 1946.73 324.158 C 1948.76 320.153 1952.92 309.949 1954.56 307.589 C 1962.5 296.169 1967.12 299.873 1970.49 285.264 z" fill="rgb(44,27,16)" transform="translate(0,0)"></path>
<path d="M 0 354.407 C 14.7813 358.044 89.3515 375.843 98.4711 383.357 C 120.967 401.892 133.941 424.762 174.846 435.989 C 197.145 442.109 237.265 455.022 257.972 465.922 C 260.268 485.742 259.134 552.219 258.783 572.248 C 224.508 588.03 202.121 589.493 188.937 630.428 C 187.364 635.313 180.285 651.556 176.757 655.09 C 162.343 669.528 135.314 667.72 116.833 672.84 C 102.283 676.871 90.0306 686.368 74.9476 688.441 C 50.6905 689.982 24.4382 688.89 0 689.077 L 0 685.923 C 19.2813 685.602 59.8225 687.494 76.6985 684.603 C 88.5938 680.487 99.486 675.564 110.997 670.522 C 115.323 669.38 119.385 668.522 123.749 667.612 C 134.879 665.578 168.109 662.195 173.906 651.897 C 176.487 647.519 178.251 644.472 180.39 639.798 C 183.949 630.839 188.863 622.791 191.969 613.369 C 192.908 610.979 196.616 605.38 198.138 602.945 C 202.576 597.375 204.621 595.518 209.942 590.837 C 212.537 589.32 214.405 588.163 216.862 586.435 C 228.246 580.324 242.655 574.87 254.794 570.221 L 255.354 483.065 C 237.649 513.156 225.22 510.752 194.605 520.073 C 190.917 534.525 187.514 543.108 180.224 555.934 L 174.625 563.254 C 164.598 573.491 149.035 582.353 134.856 584.151 C 132.552 584.921 130.39 585.754 128.035 586.341 L 120.228 589.263 L 115.949 589.86 C 108.95 593.472 106.358 603.191 97.0385 607.683 C 84.1873 613.877 70.7372 614.456 57.581 619.636 C 53.2618 621.336 48.5983 624.671 44.515 627.117 C 42.5982 628.089 35.8357 631.364 34.4705 632.43 C 30.7456 634.213 29.2318 634.868 25.1558 635.294 L 23.4803 636.309 C 19.0646 637.812 17.9221 637.872 13.4351 638.891 L 0 639.564 L 0 637.125 L 0 635.085 C 27.2589 630.108 33.1108 624.538 57.2687 612.553 C 75.9882 603.266 93.5042 611.341 106.601 587.103 C 119.962 580.743 137.181 577.389 151.179 571.343 C 172.336 563.097 180.978 541.507 187.654 521.606 C 192.47 507.246 215.391 509.807 226.835 504.349 C 242.263 496.99 247.449 483.609 252.826 468.851 L 254.837 466.369 L 197.554 447.418 C 159.625 434.261 143.859 432.131 113.408 403.601 C 108.915 399.764 100.147 388.309 96.5021 386.698 C 73.4237 376.497 35.6138 367.868 11.4227 361.274 L 9.95058 362.338 C 4.9573 361.986 4.8987 361.814 0 360.629 L 0 358.402 L 0 354.407 z" fill="rgb(230,157,84)" transform="translate(0,0)"></path>
<path d="M 254.837 466.369 C 255.622 474.945 250.456 486.461 245.109 493.106 C 230.228 511.594 209.433 509.933 191.446 517.762 C 187.244 536.202 177.38 560.285 160.595 570.323 C 146.229 578.913 125.225 582.839 109.194 589.312 C 96.4049 613.899 78.8612 606.208 60.1922 614.79 C 35.5912 626.098 28.2303 634.613 0 637.125 L 0 635.085 C 27.2589 630.108 33.1108 624.538 57.2687 612.553 C 75.9882 603.266 93.5042 611.341 106.601 587.103 C 119.962 580.743 137.181 577.389 151.179 571.343 C 172.336 563.097 180.978 541.507 187.654 521.606 C 192.47 507.246 215.391 509.807 226.835 504.349 C 242.263 496.99 247.449 483.609 252.826 468.851 L 254.837 466.369 z" fill="rgb(9,15,19)" transform="translate(0,0)"></path>
<path d="M 0 358.402 C 3.66027 359.173 8.06462 360.695 11.4227 361.274 L 9.95058 362.338 C 4.9573 361.986 4.8987 361.814 0 360.629 L 0 358.402 z" fill="rgb(80,56,30)" transform="translate(0,0)"></path>
<path d="M 2048 661.997 C 1992.29 691.557 1935.9 694.559 1880.02 662.861 C 1836.72 638.257 1804.94 597.488 1791.64 549.489 C 1780.26 507.557 1785.74 462.833 1806.91 424.889 C 1830.05 383.761 1868.76 353.663 1914.32 341.366 C 1961.15 328.672 2007.03 340.603 2048 364.221 L 2048 370.198 C 2032.84 360.202 2016.27 352.539 1998.84 347.466 C 1961.8 334.843 1919.12 340.633 1884.41 357.719 C 1843.65 377.301 1812.62 412.629 1798.45 455.572 C 1767.3 547.658 1827.56 646.272 1917.13 673.971 C 1934.07 679.208 1956.66 683.114 1974.23 680.109 C 1999.2 680.291 2026.63 668.07 2048 656.195 L 2048 661.997 z" fill="rgb(230,157,84)" transform="translate(0,0)"></path>
<path d="M 1878.3 701.915 L 1879 703.44 C 1873.95 711.88 1869.07 719.846 1862.57 727.349 C 1859.57 730.806 1852.62 734.663 1851.53 738.167 C 1853.37 739.416 1862.95 739.82 1864.76 739.185 C 1872.47 736.483 1883.63 704.513 1888.97 701.8 C 1899.59 702.032 1910.2 701.887 1920.81 702.076 C 1916.52 706.602 1900.92 720.835 1896.08 724.88 C 1895.36 726.008 1895.5 725.899 1894.35 726.462 C 1891.15 729.495 1889.84 730.07 1887.19 733.731 C 1886.07 735.733 1883.71 736.44 1881.58 737.377 L 1880.76 739.449 C 1876.87 741.782 1805.68 741.675 1798.88 739.637 C 1811.64 730.347 1831.2 715.601 1840.98 703.742 L 1841.74 704.94 L 1843.73 702.591 C 1848.99 700.971 1871.21 701.779 1878.3 701.915 z" fill="rgb(133,75,46)" transform="translate(0,0)"></path>
<path d="M 1888.97 701.8 C 1899.59 702.032 1910.2 701.887 1920.81 702.076 C 1916.52 706.602 1900.92 720.835 1896.08 724.88 C 1895.36 726.008 1895.5 725.899 1894.35 726.462 C 1891.15 729.495 1889.84 730.07 1887.19 733.731 C 1886.07 735.733 1883.71 736.44 1881.58 737.377 C 1880.05 737.809 1867.54 742.428 1870.72 736.43 C 1875.13 728.094 1887.3 710.861 1888.97 701.8 z" fill="rgb(133,75,46)" transform="translate(0,0)"></path>
<path d="M 1894.35 726.462 C 1894.87 724.742 1894.75 725.541 1896.08 724.88 C 1895.36 726.008 1895.5 725.899 1894.35 726.462 z" fill="rgb(123,71,43)" transform="translate(0,0)"></path>
<path d="M 1878.3 701.915 L 1879 703.44 C 1873.95 711.88 1869.07 719.846 1862.57 727.349 C 1859.57 730.806 1852.62 734.663 1851.53 738.167 C 1853.37 739.416 1862.95 739.82 1864.76 739.185 C 1872.47 736.483 1883.63 704.513 1888.97 701.8 C 1887.3 710.861 1875.13 728.094 1870.72 736.43 C 1867.54 742.428 1880.05 737.809 1881.58 737.377 L 1880.76 739.449 C 1876.87 741.782 1805.68 741.675 1798.88 739.637 C 1811.64 730.347 1831.2 715.601 1840.98 703.742 L 1841.74 704.94 C 1836.44 713.78 1812.18 731.54 1803.05 739.091 C 1817.63 738.957 1832.46 739.135 1847.07 739.169 C 1854.43 732.323 1861.37 726.008 1867.3 717.827 C 1871 712.731 1873.83 707.535 1877.74 702.617 L 1878.3 701.915 z" fill="rgb(26,20,18)" transform="translate(0,0)"></path>
<path d="M 245.421 287.196 C 252.654 282.228 286.958 284.925 298.976 284.353 C 299.133 292.46 300.926 298.818 294.767 304.588 L 296.605 305.215 C 282.072 316.746 276.944 304.718 263.143 324.774 L 261.461 324.666 C 255.37 325.481 207.179 325.606 204.686 323.434 L 208.468 318.221 C 209.641 316.946 210.688 315.682 211.796 314.355 C 212.222 314.069 214.576 311.716 215.096 311.209 C 216.112 310.533 216.364 310.33 217.233 309.529 C 220.175 307.598 221.766 305.917 224.272 303.478 C 226.491 301.874 234.089 296.738 235.039 294.711 C 238.667 292.446 242.135 289.935 245.421 287.196 z" fill="rgb(230,157,84)" transform="translate(0,0)"></path>
<path d="M 294.767 304.588 L 296.605 305.215 C 282.072 316.746 276.944 304.718 263.143 324.774 L 261.461 324.666 C 270.83 306.701 279.698 312.885 294.767 304.588 z" fill="rgb(80,56,30)" transform="translate(0,0)"></path>
<path d="M 1782.87 702.094 L 1784.32 702.527 C 1789.01 701.187 1836.98 701.021 1840.14 702.58 L 1840.98 703.742 C 1831.2 715.601 1811.64 730.347 1798.88 739.637 C 1784.1 739.465 1761.66 739.044 1747.21 740.021 C 1747.15 738.752 1747.1 737.483 1747.06 736.214 C 1746.86 730.166 1746.08 726.636 1750.21 722.224 L 1749.48 721.004 C 1760.39 711.294 1770.63 717.279 1782.87 702.094 z" fill="rgb(230,157,84)" transform="translate(0,0)"></path>
<path d="M 1782.87 702.094 L 1784.32 702.527 C 1775.64 716.184 1764.86 713.726 1750.21 722.224 L 1749.48 721.004 C 1760.39 711.294 1770.63 717.279 1782.87 702.094 z" fill="rgb(80,56,30)" transform="translate(0,0)"></path>
<path d="M 1830.41 284.438 C 1836.83 284.365 1865.14 283.049 1868.79 285.895 C 1869.26 286 1870.03 286.296 1870.49 285.97 C 1874.1 283.406 1885.45 284.49 1889.93 285.462 C 1877.69 299.61 1876.38 305.03 1870.22 321.634 C 1865.91 325.592 1852.58 325.987 1848.94 323.75 L 1847.8 323.195 C 1844.36 325.869 1815.89 324.616 1809.92 324.199 L 1809.86 322.724 C 1815.41 316.439 1817.98 305.953 1818.62 297.691 C 1820.59 295.08 1822.03 292.678 1823.9 290.055 C 1824.74 289.622 1829.39 285.346 1830.41 284.438 z" fill="rgb(230,157,84)" transform="translate(0,0)"></path>
<path d="M 1868.79 285.895 C 1869.26 286 1870.03 286.296 1870.49 285.97 C 1874.1 283.406 1885.45 284.49 1889.93 285.462 C 1877.69 299.61 1876.38 305.03 1870.22 321.634 C 1865.91 325.592 1852.58 325.987 1848.94 323.75 L 1847.8 323.195 C 1850.03 321.023 1856.39 316.252 1857.65 314.391 C 1863.6 305.626 1861.96 298.568 1868.16 287.843 C 1868.38 287.063 1868.49 286.656 1868.79 285.895 z" fill="rgb(133,75,46)" transform="translate(0,0)"></path>
<path d="M 1847.8 323.195 C 1850.03 321.023 1856.39 316.252 1857.65 314.391 C 1863.6 305.626 1861.96 298.568 1868.16 287.843 C 1867.21 294.372 1864.15 300.142 1862.99 306.992 C 1861.72 314.454 1854.86 319.533 1848.94 323.75 L 1847.8 323.195 z" fill="rgb(44,27,16)" transform="translate(0,0)"></path>
<path d="M 1901.81 284.424 C 1906.11 282.701 1924.57 283.186 1929.6 284.344 C 1933.31 284.942 1935.84 284.847 1939.53 284.878 C 1928.96 298.468 1931.65 301.488 1924.31 315.557 C 1923.49 317.132 1919.06 321.207 1917.51 322.865 C 1913.9 325.751 1910.8 324.735 1906.21 324.849 C 1899.9 325.21 1890.17 325.417 1883.97 324.842 C 1879.79 324.678 1869.76 326.599 1870.99 322.254 L 1870.22 321.634 C 1876.38 305.03 1877.69 299.61 1889.93 285.462 L 1891.31 285.786 C 1894.63 284.037 1897.63 284.715 1901.81 284.424 z" fill="rgb(26,20,18)" transform="translate(0,0)"></path>
<path d="M 1889.93 285.462 L 1891.31 285.786 C 1894.63 284.037 1897.63 284.715 1901.81 284.424 C 1891 302.943 1884.76 304.648 1883.97 324.842 C 1879.79 324.678 1869.76 326.599 1870.99 322.254 L 1870.22 321.634 C 1876.38 305.03 1877.69 299.61 1889.93 285.462 z" fill="rgb(133,75,46)" transform="translate(0,0)"></path>
<path d="M 1889.93 285.462 L 1891.31 285.786 C 1888.67 291.644 1881.84 298.154 1878.3 305.137 C 1874.13 313.334 1876.67 315.648 1870.99 322.254 L 1870.22 321.634 C 1876.38 305.03 1877.69 299.61 1889.93 285.462 z" fill="rgb(44,27,16)" transform="translate(0,0)"></path>
<path d="M 1929.6 284.344 C 1933.31 284.942 1935.84 284.847 1939.53 284.878 C 1928.96 298.468 1931.65 301.488 1924.31 315.557 C 1923.49 317.132 1919.06 321.207 1917.51 322.865 C 1913.9 325.751 1910.8 324.735 1906.21 324.849 C 1906.95 320.366 1916.8 316.343 1917.53 313.137 C 1920.04 302.226 1925.94 294.265 1929.6 284.344 z" fill="rgb(230,157,84)" transform="translate(0,0)"></path>
<path d="M 1773.26 284.839 C 1777.71 282.88 1794.46 283.308 1799.2 284.42 C 1803.31 285.056 1825.67 284.415 1826.61 285.164 C 1826.42 286.817 1824.03 287.158 1823.9 290.055 C 1822.03 292.678 1820.59 295.08 1818.62 297.691 C 1817.98 305.953 1815.41 316.439 1809.86 322.724 L 1808.55 322.242 C 1804.85 325.201 1800.98 324.245 1795.74 324.376 C 1792.42 327.05 1776.51 324.894 1771.9 323.902 C 1780.11 299.078 1777.04 309.132 1773.26 284.839 z" fill="rgb(133,75,46)" transform="translate(0,0)"></path>
<path d="M 1773.26 284.839 C 1777.71 282.88 1794.46 283.308 1799.2 284.42 C 1794.81 293.159 1791.85 301.221 1787.52 309.534 C 1785.88 312.673 1778.27 320.861 1775.43 324.377 C 1781.73 324.389 1789.62 324.062 1795.74 324.376 C 1792.42 327.05 1776.51 324.894 1771.9 323.902 C 1780.11 299.078 1777.04 309.132 1773.26 284.839 z" fill="rgb(26,20,18)" transform="translate(0,0)"></path>
<path d="M 1808.55 322.242 C 1810.26 318.777 1812.12 317.471 1813.49 313.493 C 1814.39 310.894 1816.08 298.781 1817.55 297.561 C 1817.99 297.506 1817.68 297.506 1818.62 297.691 C 1817.98 305.953 1815.41 316.439 1809.86 322.724 L 1808.55 322.242 z" fill="rgb(44,27,16)" transform="translate(0,0)"></path>
<path d="M 1751.33 285.172 C 1757.71 284.423 1766.45 285.134 1773.26 284.839 C 1777.04 309.132 1780.11 299.078 1771.9 323.902 C 1768.15 325.019 1755.42 324.506 1749.74 325.008 C 1747.28 323.221 1748.98 321.086 1750.47 318.927 C 1758.64 307.038 1757.36 298.062 1751.33 285.172 z" fill="rgb(133,75,46)" transform="translate(0,0)"></path>
<path d="M 296.605 305.215 C 297.175 304.901 297.82 304.456 298.451 304.376 L 298.567 304.431 C 299.04 306.029 298.818 321.883 298.792 324.601 C 286.91 324.779 275.027 324.836 263.143 324.774 C 276.944 304.718 282.072 316.746 296.605 305.215 z" fill="rgb(230,157,84)" transform="translate(0,0)"></path>
<path d="M 1679.5 283.735 C 1688.53 283.126 1747.05 281.826 1751.33 285.172 C 1757.36 298.062 1758.64 307.038 1750.47 318.927 C 1748.98 321.086 1747.28 323.221 1749.74 325.008 C 1747.84 325.225 1748.42 325.154 1746.44 324.271 C 1743.27 318.619 1743.9 291.673 1743.85 284.036 C 1722.6 283.748 1700.69 284.591 1679.5 283.735 z" fill="rgb(26,20,18)" transform="translate(0,0)"></path>
<path d="M 1747.36 701.911 C 1757.89 701.813 1772.66 701.348 1782.87 702.094 C 1770.63 717.279 1760.39 711.294 1749.48 721.004 C 1748.99 721.253 1748.03 721.803 1747.54 721.869 L 1747.38 721.742 C 1746.7 720.097 1747.28 704.87 1747.36 701.911 z" fill="rgb(230,157,84)" transform="translate(0,0)"></path>
<path d="M 594.57 364.348 C 613.726 363.161 631.188 366.058 647.53 376.778 C 674.735 394.626 669.746 429.232 670.265 457.18 C 670.421 465.621 670.052 474.175 670.221 482.624 C 668.453 535.5 683.131 589.024 613.697 600.013 C 519.192 603.531 535.891 535.242 534.713 467.498 C 533.819 416.101 532.439 371.802 594.57 364.348 z" fill="rgb(254,254,254)" transform="translate(0,0)"></path>
<path d="M 599.516 400.759 C 603.359 400.919 605.898 400.879 608.861 403.259 C 615.319 412.267 610.43 506.285 611.886 522.742 C 612.675 531.652 612.435 556.646 606.059 563.663 C 602.236 564.105 599.333 564.132 596.434 561.384 C 594.151 557.097 593.709 543.836 593.762 538.57 C 594.196 495.46 592.615 452.003 594.65 408.975 C 594.804 405.731 597.35 402.979 599.516 400.759 z" fill="rgb(9,15,19)" transform="translate(0,0)"></path>
<path d="M 1436.59 364.322 C 1454.61 361.669 1477.38 367.062 1492.13 377.958 C 1520.48 398.893 1512.01 444.847 1512.92 476.276 C 1513.61 500.273 1513.89 528.457 1511.21 551.987 C 1507.81 581.934 1484.02 596.161 1456.24 599.713 C 1420.87 603.017 1383.75 589.948 1380.05 549.765 C 1378.13 529.002 1377.92 506.153 1378.68 485.224 C 1380.69 430.319 1364.54 373.757 1436.59 364.322 z" fill="rgb(254,254,254)" transform="translate(0,0)"></path>
<path d="M 1441.8 400.617 C 1447.41 400.718 1452.51 400.767 1453.59 408.184 C 1454.54 414.702 1454.93 421.386 1454.83 428.015 C 1454.17 470.24 1456.03 512.839 1453.36 554.959 C 1453.14 558.319 1451.36 561.222 1449.49 563.861 C 1445.74 564.311 1443.48 564.042 1440.37 562.091 C 1437.35 558.931 1436.95 550.051 1436.98 545.646 C 1437.36 500.516 1435.68 455.02 1438.04 409.983 C 1438.23 406.278 1439.73 403.57 1441.8 400.617 z" fill="rgb(9,15,19)" transform="translate(0,0)"></path>
<path d="M 1229.78 368.493 C 1245.85 368.401 1261.91 368.417 1277.98 368.541 L 1277.91 448.589 L 1294.14 448.58 L 1294.16 368.559 L 1353 368.591 L 1353.21 596.061 L 1328.5 596.089 L 1294.24 596.09 L 1294.03 499.814 L 1277.89 499.849 L 1277.97 595.994 L 1219.32 596.026 L 1219.27 441.3 L 1219.24 395.891 C 1219.23 388.703 1218.88 376.513 1219.78 369.726 C 1222.57 367.954 1226.33 368.449 1229.78 368.493 z" fill="rgb(254,254,254)" transform="translate(0,0)"></path>
<path d="M 383.766 368.685 C 407.607 368.154 431.975 368.468 455.85 369.212 C 480.858 369.992 505.768 374.822 511.475 403.613 C 515.229 422.55 517.166 446.733 508.153 464.383 C 504.03 472.458 492.883 474.5 484.936 476.228 C 491.28 478.877 499.775 482.223 504.577 487.116 C 517.345 500.126 514.121 525.77 514.03 542.854 L 513.995 596.016 L 459.676 596.037 L 459.669 576.291 C 459.702 551.795 460.631 525.062 458.087 500.69 C 457.463 494.715 448.843 491.665 443.595 493.478 C 441.409 499.452 442.358 583.635 442.322 596.023 L 383.94 595.975 L 383.766 368.685 z" fill="rgb(254,254,254)" transform="translate(0,0)"></path>
<path d="M 442.36 407.108 C 454.226 407.99 459.958 409.304 459.979 422.995 C 459.991 430.711 460.914 445.263 457.927 451.979 L 456.773 454.559 C 455.216 455.306 453.177 456.344 451.567 456.516 C 441.878 457.556 442.544 458.061 442.61 448.981 C 442.71 435.037 442.206 421.043 442.36 407.108 z" fill="rgb(9,15,19)" transform="translate(0,0)"></path>
<path d="M 854.723 368.429 C 874.295 368.213 893.869 368.261 913.439 368.571 C 914.607 379.953 912.781 444.519 915.392 448.82 C 919.993 432.337 924.734 415.892 929.614 399.489 C 932.23 390.781 936.821 377.108 938.684 368.628 C 956.973 368.295 975.267 368.279 993.556 368.581 C 984.924 398.016 971.85 443.466 961.284 471.996 C 974.277 512.079 984.173 555.494 995.901 596.015 L 936.507 596.161 C 929.331 567.509 922.334 538.813 915.517 510.073 C 911.225 516.35 916.338 581.89 913.536 596.016 L 854.208 596.024 L 854.723 368.429 z" fill="rgb(254,254,254)" transform="translate(0,0)"></path>
<path d="M 913.536 596.016 C 912.503 588.713 912.32 510.949 913.64 504.893 C 915.064 505.932 915.04 507.912 915.517 510.073 C 911.225 516.35 916.338 581.89 913.536 596.016 z" fill="rgb(84,83,86)" transform="translate(0,0)"></path>
<path d="M 913.439 368.571 C 914.607 379.953 912.781 444.519 915.392 448.82 C 915.133 450.133 914.283 452.226 913.791 453.568 C 912.403 451.142 912.736 376.036 913.439 368.571 z" fill="rgb(84,83,86)" transform="translate(0,0)"></path>
<path d="M 753.793 364.413 C 773.305 362.964 800.277 367.665 814.439 381.965 C 834.05 401.768 829.992 444.785 829.933 471.332 L 772.026 471.599 L 772.156 420.027 C 772.132 413.883 770.507 398.433 761.943 400.484 C 748.711 403.652 750.778 421.254 750.717 429.914 C 750.615 443.121 750.593 456.329 750.652 469.536 L 750.825 521.531 C 750.862 529.718 748.107 567.101 761.855 563.932 C 779.47 559.872 767.058 516.557 773.278 506.562 L 776.75 506.149 L 829.987 506.06 C 830.093 529.317 831.966 557.703 816.919 576.549 C 785.053 616.46 695.094 606.487 692.91 546.813 C 691.228 521.786 692.148 496.513 692.043 471.434 C 691.818 418.132 685.891 370.472 753.793 364.413 z" fill="rgb(254,254,254)" transform="translate(0,0)"></path>
<path d="M 1117.59 364.377 C 1119.37 364.184 1121.16 364.058 1122.95 364.001 C 1142.35 363.375 1164.13 367.241 1179.08 380.858 C 1193.31 393.828 1191.31 419.284 1191.7 437.85 L 1136.92 437.922 C 1137.05 428.281 1139.69 401.911 1127.59 400.038 C 1119.41 403.109 1116.41 416.188 1117.14 423.847 C 1119.7 451.015 1159.84 459.709 1176.67 478.514 C 1191.92 492.844 1195.84 513.169 1195.8 533.555 C 1195.77 548.71 1195.63 570.604 1183.36 582.245 C 1167.58 597.208 1147.76 599.943 1126.91 600.099 C 1102.9 599.793 1074.43 589.812 1067.54 564.259 C 1063.14 547.932 1063.87 530.655 1063.9 513.881 C 1082.17 513.269 1100.45 513.069 1118.73 513.28 C 1118.55 525.101 1114.68 559.881 1127.55 564.586 C 1140.82 562.577 1141.17 543.082 1139.95 532.864 C 1138.59 516.929 1125.42 509.026 1113.45 500.806 C 1089.3 484.235 1066.81 474.722 1063.56 442.045 C 1058.87 394.983 1066.88 369.615 1117.59 364.377 z" fill="rgb(254,254,254)" transform="translate(0,0)"></path>
<path d="M 1537.82 368.728 C 1562.75 368.67 1587.91 368.282 1612.73 369.232 C 1653.75 370.802 1662.35 387.366 1663.01 425.317 C 1664.12 489.293 1661.6 503.203 1595.93 503.095 L 1595.96 528.5 L 1595.96 595.966 L 1537.94 596.022 L 1537.82 368.728 z" fill="rgb(254,254,254)" transform="translate(0,0)"></path>
<path d="M 1595.82 407.719 C 1598.47 407.755 1606.53 407.868 1608.26 408.825 C 1618.31 414.382 1614.38 454.277 1611.48 461.931 C 1607.46 464.352 1600.31 467.089 1596.53 463.307 C 1595.08 452.756 1595.82 419.917 1595.82 407.719 z" fill="rgb(9,15,19)" transform="translate(0,0)"></path>
<path d="M 778.413 624.624 C 782.143 627.966 790.727 648.068 793.873 653.991 C 799.073 644.882 804.33 633.001 808.718 623.383 C 810.404 629.725 815.934 656.622 817.101 665.042 C 817.201 665.767 813.526 666.581 812.845 665.148 C 810.748 660.738 808.98 650.804 807.787 646.224 C 807.46 645.164 807.116 642.943 805.905 642.776 C 804.048 643.84 795.386 663.478 793.697 666.905 C 789.485 658.375 785.588 648.965 781.588 640.225 C 780.453 644.186 777.643 655.608 777.133 659.519 C 775.823 669.561 770.491 665.089 770.532 664.888 C 773.265 651.588 775.726 637.987 778.413 624.624 z" fill="rgb(254,254,254)" transform="translate(0,0)"></path>
<path d="M 1529.71 622.891 C 1530.24 623.013 1534.74 623.755 1534.78 624.278 C 1535.82 637.208 1535.15 650.924 1535.01 664.024 C 1535.38 665.528 1532.31 666.729 1531.66 666.025 C 1527.1 661.084 1530.5 663.198 1523.88 665.646 C 1520.9 666.746 1515.98 665.767 1512.46 664.903 C 1496.77 651.619 1512.54 635.979 1527.09 643.773 C 1531.77 646.281 1529.07 637.416 1529.66 633.608 C 1530.04 631.102 1529.67 625.697 1529.71 622.891 z" fill="rgb(254,254,254)" transform="translate(0,0)"></path>
<path d="M 1516.54 645.959 C 1520.65 645.883 1524.57 645.244 1527.7 648.292 C 1529.24 649.781 1530.04 651.864 1529.91 653.996 C 1529.67 657.641 1527.27 659.36 1524.76 661.48 C 1523.85 661.514 1522.94 661.552 1522.03 661.595 C 1513.28 661.954 1508.42 653.728 1514.82 647.613 C 1515.4 647.069 1515.98 646.517 1516.54 645.959 z" fill="rgb(9,15,19)" transform="translate(0,0)"></path>
<path d="M 1404.49 625.069 C 1409.33 624.862 1422.09 625.116 1424.89 631.99 C 1425.18 632.712 1422.22 635.291 1422.07 635.286 C 1419.53 635.196 1416.23 630.596 1412.58 630.633 C 1398.72 627.194 1387.61 641.462 1395.82 653.994 C 1398.24 657.709 1402.13 660.216 1406.51 660.886 C 1410.17 661.468 1416.01 661.073 1418.61 658.357 C 1426.83 649.772 1418.15 650.945 1412.81 650.522 C 1405.86 650.791 1410.25 643.51 1417.3 645.955 C 1418.08 646.225 1428.6 645.268 1428.63 647.165 C 1428.95 674.553 1385.85 671.107 1386.81 645.255 C 1387.21 633.422 1393.74 628.245 1404.49 625.069 z" fill="rgb(254,254,254)" transform="translate(0,0)"></path>
<path d="M 603.898 642.025 C 610.186 641.628 612.497 641.444 618.216 644.365 C 618.554 642.141 624.917 641.042 624.405 643.435 C 622.851 650.695 630.204 669.817 618.266 664.673 C 617.344 662.348 612.146 667.695 606.494 666.072 C 592.929 662.178 591.447 650.218 603.898 642.025 z" fill="rgb(254,254,254)" transform="translate(0,0)"></path>
<path d="M 606.157 646.453 C 610.241 644.141 615.424 645.56 617.761 649.629 C 620.098 653.698 618.71 658.89 614.656 661.251 C 610.566 663.633 605.319 662.231 602.962 658.127 C 600.606 654.023 602.039 648.785 606.157 646.453 z" fill="rgb(9,15,19)" transform="translate(0,0)"></path>
<path d="M 944.858 641.971 C 950.986 641.536 953.132 641.44 958.486 644.573 C 958.749 644.727 960.126 642.806 960.197 642.687 C 960.952 641.426 964.069 641.833 964.5 642.85 C 965.527 645.27 964.595 648.87 964.897 651.502 C 964.633 655.468 965.343 660.191 964.797 664.081 C 964.36 667.189 959.823 665.329 958.463 664.717 C 958.126 664.13 958.22 664.082 957.779 663.897 C 955.582 664.288 954.43 667.072 949.012 666.27 C 933.666 663.997 932.279 650.032 944.858 641.971 z" fill="rgb(254,254,254)" transform="translate(0,0)"></path>
<path d="M 947.231 646.351 C 951.477 644.431 956.475 646.337 958.364 650.598 C 960.252 654.858 958.309 659.841 954.035 661.699 C 949.805 663.536 944.885 661.618 943.016 657.402 C 941.147 653.186 943.029 648.252 947.231 646.351 z" fill="rgb(9,15,19)" transform="translate(0,0)"></path>
<path d="M 1158.18 641.303 C 1178 643.867 1178.14 662.502 1159.72 666.643 C 1138.66 664.005 1138.93 644.977 1158.18 641.303 z" fill="rgb(254,254,254)" transform="translate(0,0)"></path>
<path d="M 1154.82 646.283 C 1157.62 644.855 1160.98 645.092 1163.55 646.898 C 1166.12 648.704 1167.48 651.783 1167.09 654.9 C 1166.69 658.017 1164.61 660.66 1161.67 661.769 C 1157.46 663.357 1152.74 661.38 1150.92 657.264 C 1149.1 653.149 1150.81 648.328 1154.82 646.283 z" fill="rgb(9,15,19)" transform="translate(0,0)"></path>
<path d="M 1478.81 642.014 C 1498.71 641.116 1507.99 655.028 1490.08 665.857 C 1483.45 666.307 1476.41 666.848 1472.44 660.352 C 1467.32 651.978 1471.88 646.326 1478.81 642.014 z" fill="rgb(254,254,254)" transform="translate(0,0)"></path>
<path d="M 1481.27 646.239 C 1485.56 644.408 1490.53 646.418 1492.35 650.723 C 1494.17 655.029 1492.14 659.99 1487.83 661.792 C 1483.54 663.585 1478.6 661.57 1476.8 657.285 C 1474.99 653.001 1476.99 648.062 1481.27 646.239 z" fill="rgb(9,15,19)" transform="translate(0,0)"></path>
<path d="M 904.577 657.625 C 900.763 670.283 882.417 667.924 878.466 658.329 C 871.684 641.861 900.645 634.268 904.703 649.995 C 906.433 656.701 901.334 655.063 896.368 655.375 C 899.728 656.307 901.933 656.153 904.577 657.625 z" fill="rgb(254,254,254)" transform="translate(0,0)"></path>
<path d="M 904.577 657.625 C 897.502 658.209 893.548 665.87 886.193 659.835 C 878.247 653.316 893.584 654.899 896.368 655.375 C 899.728 656.307 901.933 656.153 904.577 657.625 z" fill="rgb(9,15,19)" transform="translate(0,0)"></path>
<path d="M 887.55 645.951 C 889.627 645.91 899.119 644.824 898.792 650.398 C 898.774 650.713 897.361 650.986 897.101 651.051 C 889.622 651.055 880.222 653.824 887.55 645.951 z" fill="rgb(9,15,19)" transform="translate(0,0)"></path>
<path d="M 1566.15 658.847 C 1572.68 658.483 1569.55 662.958 1566.37 664.599 C 1555.75 670.084 1539.58 662.907 1544.68 649.401 C 1549.31 637.115 1573.54 639.82 1571.07 654.439 C 1570.89 655.489 1559.72 654.974 1558.37 654.974 C 1563.09 656.72 1562.1 655.763 1566.15 658.847 z" fill="rgb(254,254,254)" transform="translate(0,0)"></path>
<path d="M 1566.15 658.847 C 1561.97 662.022 1551.88 665.121 1549.95 655.831 C 1549.71 654.654 1556.45 654.99 1558.37 654.974 C 1563.09 656.72 1562.1 655.763 1566.15 658.847 z" fill="rgb(9,15,19)" transform="translate(0,0)"></path>
<path d="M 1553.54 645.885 C 1560.82 645.731 1559.36 645.122 1565.01 648.754 L 1565.05 650.154 C 1564.02 650.807 1564.28 650.697 1563.06 651.081 C 1555.43 651.038 1546.49 653.842 1553.54 645.885 z" fill="rgb(9,15,19)" transform="translate(0,0)"></path>
<path d="M 466.088 625.192 C 471.527 624.84 483.753 624.762 487.758 632.554 C 488.151 633.319 484.854 638.316 482.814 635.29 C 478.128 628.339 467.346 628.888 461.392 633.755 C 458.16 636.421 456.195 640.321 455.976 644.504 C 455.285 657.746 464.63 660.848 475.487 661.09 C 476.664 660.622 485.434 655.965 484.34 655.798 C 489.649 656.608 488.506 661.625 481.625 664.374 C 476.973 666.628 467.524 667.032 462.616 664.444 C 441.98 653.559 446.781 632.954 466.088 625.192 z" fill="rgb(254,254,254)" transform="translate(0,0)"></path>
<path d="M 1116.28 625.48 C 1118.6 625.486 1137.91 625.244 1138.27 625.642 C 1144.43 632.452 1122.67 630.288 1119.06 630.282 L 1119.04 642.061 C 1122.02 642.078 1144.16 639.838 1136.81 647.077 L 1119.06 647.055 C 1119.03 652.536 1119.08 658.032 1119.06 663.514 C 1119.04 666.566 1113.26 666.182 1113.16 664.377 C 1112.61 654.169 1113.03 643.801 1112.81 633.557 C 1112.76 631.407 1112.58 628.317 1113.3 626.337 C 1113.56 625.602 1115.85 625.518 1116.28 625.48 z" fill="rgb(254,254,254)" transform="translate(0,0)"></path>
<path d="M 1458.09 658.836 C 1468.86 658.546 1455.09 670.574 1442.6 664.722 C 1439.55 663.302 1437.26 660.641 1436.31 657.416 C 1430.58 637.375 1466.78 637.154 1462.64 654.449 C 1462.41 655.416 1452.72 654.991 1450.4 654.981 C 1448.56 654.97 1441.95 654.673 1442.07 655.555 C 1443.39 665.325 1454.56 660.963 1458.09 658.836 z" fill="rgb(254,254,254)" transform="translate(0,0)"></path>
<path d="M 1445.55 645.855 C 1447.77 645.858 1463.29 648.09 1454.99 650.943 C 1447.39 650.946 1437.93 653.74 1445.55 645.855 z" fill="rgb(9,15,19)" transform="translate(0,0)"></path>
<path d="M 856.909 641.202 C 870.692 642.651 869.169 646.911 869.405 659.477 C 869.474 663.157 870.295 667.314 864.61 665.594 C 861.839 664.755 864.46 652.601 863.203 649.91 C 861.423 644.883 857.394 645.918 853.435 645.788 C 849.748 649.266 848.712 650.601 849.054 655.832 C 849.012 658.392 849.291 662.092 848.94 664.539 C 848.606 666.868 843.434 666.057 843.43 664.7 C 843.477 657.774 842.45 649.245 843.893 642.577 C 844.519 639.686 849.587 643.977 849.718 644.056 C 850.332 643.92 854.872 641.827 856.909 641.202 z" fill="rgb(254,254,254)" transform="translate(0,0)"></path>
<path d="M 555.968 655.01 L 555.481 654.862 C 542.048 650.68 552.981 637.032 564.012 642.744 C 565.594 643.563 567.329 645.028 567.31 646.838 C 563.189 650.307 562.146 643.75 554.985 646.724 L 554.878 648.351 C 558.888 652.885 569.334 651.974 568.75 659.497 C 568.609 661.479 567.611 663.301 566.017 664.487 C 560.788 668.415 545.346 664.77 550.818 658.593 C 551.73 657.565 553.145 658.93 553.88 659.975 C 554.578 658.167 555.124 656.772 555.968 655.01 z" fill="rgb(254,254,254)" transform="translate(0,0)"></path>
<path d="M 555.968 655.01 C 569.171 659.661 561.536 664.529 553.88 659.975 C 554.578 658.167 555.124 656.772 555.968 655.01 z" fill="rgb(9,15,19)" transform="translate(0,0)"></path>
<path d="M 517.534 641.437 C 528.377 642.772 526.44 646.894 531.376 657.306 C 532.088 655.707 537.409 642.904 538.053 642.578 C 549.441 636.79 536.551 657.509 534.472 661.723 C 533.435 663.989 527.953 675.898 527.202 676.261 C 516.567 681.402 527.058 665.255 528.004 663.032 C 525.185 655.802 521.339 648.214 517.534 641.437 z" fill="rgb(254,254,254)" transform="translate(0,0)"></path>
<path d="M 1188.02 654.958 C 1181.6 654.614 1177.97 647.056 1183.97 643.158 C 1187.71 640.801 1195.35 640.924 1197.68 645.23 C 1199.29 648.201 1195.26 649.021 1194.09 647.805 C 1192.1 645.624 1185.27 644.011 1186.29 648.899 C 1186.73 650.98 1192.47 651.582 1193.99 652.272 C 1208.13 658.687 1195 670.317 1184.01 664.804 C 1181.52 663.556 1177.31 660.526 1182 658.389 C 1183.19 657.916 1184.13 659.008 1184.81 659.976 C 1185.98 657.89 1186.56 656.9 1188.02 654.958 z" fill="rgb(254,254,254)" transform="translate(0,0)"></path>
<path d="M 1188.02 654.958 C 1200.66 659.467 1192.29 664.614 1184.81 659.976 C 1185.98 657.89 1186.56 656.9 1188.02 654.958 z" fill="rgb(9,15,19)" transform="translate(0,0)"></path>
<path d="M 1582.93 642.067 C 1584.47 641.959 1598.85 640.354 1596.41 648.163 C 1595.75 650.271 1590.26 646.366 1589.46 645.994 C 1588.88 645.719 1585.09 645.588 1585.11 647.59 C 1584.98 652.49 1595.56 651.506 1597.2 654.841 C 1600.35 661.272 1596.52 663.99 1592.26 666.752 C 1589.17 666.461 1583.12 666.1 1581.7 664.573 C 1573.71 655.937 1583.61 659.038 1587.96 662.04 C 1590.16 663.559 1593.98 659.997 1592.97 658.979 C 1587.15 653.071 1572.43 654.478 1582.93 642.067 z" fill="rgb(254,254,254)" transform="translate(0,0)"></path>
<path d="M 654.451 641.961 C 674.032 641.857 670.166 653.069 660.922 646.246 C 658.677 644.589 655.335 646.756 656.308 648.063 C 660.056 653.097 679.41 655.544 664.823 666.118 C 661.555 666.197 659.378 666.292 655.997 665.896 C 654.013 665.663 648.276 661.415 650.262 659.79 C 654.44 656.304 656.477 662.957 660.016 662.097 C 672.095 659.16 655.169 654.566 653.753 653.262 C 648.752 648.653 650.802 645.894 654.451 641.961 z" fill="rgb(254,254,254)" transform="translate(0,0)"></path>
<path d="M 995.614 641.998 C 1008.38 641.95 1013.3 648.762 1003.69 647.405 C 1002.49 647.235 1000.32 645.067 997.576 646.577 C 997.415 646.599 997.253 646.621 997.092 646.643 L 996.382 648.604 C 1000.81 653.26 1006.88 651.424 1009.31 655.821 C 1012.48 661.571 1007.25 664.83 1003.45 666.606 C 1002.17 666.449 987.2 665.041 991.587 659.229 C 994.75 656.708 996.921 662.153 999.456 661.934 C 1013.21 660.746 994.146 653.878 992.852 652.155 C 989.952 648.292 990.699 646.351 993.83 643.585 C 994.429 643.062 995.024 642.533 995.614 641.998 z" fill="rgb(254,254,254)" transform="translate(0,0)"></path>
<path d="M 1211.68 641.989 C 1214.02 641.881 1226.87 641.669 1224.66 647.09 C 1221.42 649.68 1215.81 642.609 1212.86 647.617 C 1214.15 651.051 1238.68 656.936 1221.04 666.169 C 1200.5 665.736 1207.1 654.987 1212.59 659.761 C 1219.14 665.45 1222.1 660.095 1221.28 658.982 C 1217.34 653.598 1200.08 655.19 1211.68 641.989 z" fill="rgb(254,254,254)" transform="translate(0,0)"></path>
<path d="M 1272.6 641.895 C 1275.54 641.953 1288.66 642.362 1284.26 648.052 L 1284.27 648.174 C 1279.68 649.089 1280.46 644.691 1274.2 646.495 L 1273.53 647.74 C 1276.4 652.763 1285.37 651.51 1286.75 657.001 C 1288.23 662.895 1284.25 665.177 1279.2 666.619 C 1275.91 666.157 1263.89 664.633 1268.56 658.876 C 1270.44 656.551 1280.05 667.418 1281.1 659.443 C 1281.64 655.387 1260.88 652.97 1270.82 643.595 C 1271.42 643.037 1272.02 642.47 1272.6 641.895 z" fill="rgb(254,254,254)" transform="translate(0,0)"></path>
<path d="M 975.478 623.25 C 976.349 623.366 980.986 623.662 981.002 624.661 C 981.211 637.139 981.877 654.773 981.006 666.892 C 980.283 666.688 975.87 665.766 975.833 665.017 C 975.163 651.654 975.072 636.771 975.478 623.25 z" fill="rgb(254,254,254)" transform="translate(0,0)"></path>
<path d="M 635.224 623.374 C 636.722 623.556 640.759 623.448 640.802 624.959 C 641.168 637.801 640.983 653.8 640.975 666.392 C 635.009 665.469 635.182 666.459 635.21 660.137 C 635.264 647.885 635.188 635.627 635.224 623.374 z" fill="rgb(254,254,254)" transform="translate(0,0)"></path>
<path d="M 1253.28 622.499 C 1253.88 622.658 1257.99 623.466 1258.02 624.027 C 1258.86 637.766 1258.42 652.771 1258.35 666.726 C 1257.82 666.585 1253.5 665.634 1253.49 665.34 C 1252.96 653.881 1251.62 633.437 1253.28 622.499 z" fill="rgb(254,254,254)" transform="translate(0,0)"></path>
<path d="M 579.451 630.336 C 580.629 630.573 581.851 630.766 583.096 631.035 C 587.984 632.634 581.97 641.06 587 642.231 C 594.858 644.061 585.355 647.027 585.493 646.763 C 584.762 648.158 585.055 652.425 585.054 654.134 C 585.053 658.24 585.099 662.316 585.083 666.388 C 582.539 666.039 579.206 666.497 579.088 663.154 C 578.942 661.299 579.696 647.317 578.838 646.975 C 576.469 646.03 571.805 643.441 578.426 641.804 C 579.443 641.552 579.233 632.947 579.451 630.336 z" fill="rgb(254,254,254)" transform="translate(0,0)"></path>
<path d="M 914.359 641.369 C 918.329 642.272 918.274 641.307 920.464 644.422 C 919.361 644.191 930.046 639.472 930.831 642.73 C 932.47 649.529 925.202 643.464 920.021 650.032 C 919.979 654.62 920.35 659.961 919.654 664.398 C 919.355 666.302 914.649 665.604 914.563 664.898 C 913.726 658.017 913.858 648.27 914.359 641.369 z" fill="rgb(254,254,254)" transform="translate(0,0)"></path>
<path d="M 498.224 641.259 C 503.776 642.755 502.197 644.65 507.054 642.285 C 509.497 641.095 513.49 641.204 514.467 644.747 C 511.988 649.386 505.226 642.479 503.162 651.028 C 503.157 654.099 503.582 664.754 502.424 665.685 C 495.251 671.452 498.023 643.739 498.224 641.259 z" fill="rgb(254,254,254)" transform="translate(0,0)"></path>
<path d="M 826.867 641.6 C 834.695 642.822 832.424 642.122 832.696 650.851 C 832.852 655.839 832.658 660.971 832.67 665.979 C 831.472 665.882 827.646 665.882 827.488 665.217 C 826.384 660.565 826.864 646.177 826.867 641.6 z" fill="rgb(254,254,254)" transform="translate(0,0)"></path>
<path d="M 1236.26 641.257 C 1237.48 641.494 1241.4 641.829 1241.49 643.239 C 1241.93 650.469 1241.92 659.378 1241.58 666.533 C 1234.21 664.608 1236.24 665.008 1236.03 656.953 C 1235.89 651.773 1235.94 646.429 1236.26 641.257 z" fill="rgb(254,254,254)" transform="translate(0,0)"></path>
<path d="M 716.378 645.653 C 719.201 643.927 722.88 644.701 724.767 647.419 C 726.654 650.137 726.094 653.855 723.49 655.896 C 721.666 657.326 719.2 657.628 717.085 656.681 C 714.97 655.734 713.553 653.694 713.404 651.381 C 713.256 649.068 714.401 646.863 716.378 645.653 z" fill="rgb(254,254,254)" transform="translate(0,0)"></path>
<path d="M 1333.95 645.517 C 1335.92 644.436 1338.33 644.515 1340.22 645.723 C 1342.12 646.932 1343.2 649.077 1343.05 651.319 C 1342.9 653.561 1341.54 655.542 1339.5 656.487 C 1336.49 657.88 1332.92 656.639 1331.43 653.681 C 1329.93 650.723 1331.05 647.112 1333.95 645.517 z" fill="rgb(254,254,254)" transform="translate(0,0)"></path>
<path d="M 1057.16 645.575 C 1059.12 644.519 1061.51 644.62 1063.37 645.839 C 1065.23 647.058 1066.28 649.199 1066.1 651.419 C 1065.92 653.639 1064.54 655.582 1062.5 656.483 C 1059.52 657.804 1056.02 656.529 1054.59 653.597 C 1053.15 650.665 1054.29 647.122 1057.16 645.575 z" fill="rgb(254,254,254)" transform="translate(0,0)"></path>
<path d="M 1236.19 628.507 C 1237.56 627.521 1239.47 627.793 1240.52 629.125 C 1241.57 630.457 1241.38 632.377 1240.09 633.48 C 1239.21 634.239 1237.98 634.451 1236.9 634.034 C 1235.81 633.616 1235.04 632.636 1234.89 631.481 C 1234.74 630.327 1235.24 629.184 1236.19 628.507 z" fill="rgb(254,254,254)" transform="translate(0,0)"></path>
<path d="M 828.045 628.391 C 829.48 627.482 831.377 627.88 832.326 629.288 C 833.275 630.697 832.931 632.605 831.55 633.593 C 830.621 634.258 829.404 634.366 828.373 633.874 C 827.342 633.382 826.66 632.369 826.592 631.229 C 826.523 630.089 827.08 629.002 828.045 628.391 z" fill="rgb(254,254,254)" transform="translate(0,0)"></path>
<metadata><recraft-signature>{"signed_by": "recraft", "signature_b64": "+2kiP7VExdkDc5DDZ7Fw5lRmz3u14xeF3RmsJh3HG/+2fbtn6xOcGSdW26n5emaMlh13PfFo0Uge12tEoKt4DA==", "signing_algo": "Ed25519", "generation_timestamp": 1780247996, "identifier": "e85ca090-f2a0-46fa-ace6-07ece5ba6550"}</recraft-signature></metadata></svg>