<svg xmlns="http://www.w3.org/2000/svg" height="768" preserveAspectRatio="none" style="display: block;" version="1.1" viewBox="0 0 2048 1024" width="1536">
<path d="M 0 0 L 2048 0 L 2048 1024 L 0 1024 L 0 0 z" fill="rgb(254,254,253)" transform="translate(0,0)"></path>
<path d="M 1725.2 229.891 C 1742.01 199.387 1756.38 174.921 1792.14 166.292 C 1818.22 159.999 1832.89 154.877 1839.73 186.941 C 1841.81 196.71 1845.75 208.194 1845.5 218.672 C 1843.7 236.171 1831.85 263.065 1825.32 280.268 C 1812.35 273.928 1798.79 267.039 1785.71 261.106 C 1776.19 278.092 1766.85 295.487 1757.18 312.335 C 1752 321.346 1745.91 324.822 1740.76 335.68 L 1750.07 345.535 C 1759.62 344.486 1766.99 342.869 1776.32 340.852 C 1789.68 325.945 1804.88 305.75 1819.75 293.269 C 1826.28 287.785 1909.56 242.995 1915.37 242.33 C 1917.37 242.1 1920.67 243.275 1922.26 244.542 C 1927.03 248.343 1959.15 341.172 1962.92 354.563 C 1957.12 368.708 1952.21 382.884 1947.11 397.292 C 1950.66 413.934 1953.98 430.623 1957.08 447.355 C 1951.17 459.075 1944.23 470.629 1937.62 481.998 C 1987.14 501.164 1979.27 532.78 1956.11 569.486 C 1972.97 582.454 1977.87 602.489 1980.44 622.149 L 1981.34 629.195 C 2006.58 643.357 2011.34 672.909 2009.67 699.526 C 2003.22 703.113 1968.67 724.359 1964.59 717.076 C 1965.17 713.629 1966.86 711.841 1968.94 709.029 C 1953.98 710.161 1942.6 708.265 1927.87 711.137 C 1919.38 712.791 1897.56 720.011 1890.6 718.298 C 1888.48 716.384 1887.96 715.763 1886.28 713.454 C 1873.57 710.039 1845.81 718.372 1832.94 719.224 C 1827.11 719.61 1821 712.012 1805.2 714.954 C 1787.32 718.28 1766.57 726.078 1748.62 727.943 C 1747.92 727.407 1747.33 726.949 1746.83 726.567 C 1746.03 721.835 1749.77 716.877 1752.27 712.764 C 1740.38 712.588 1735.71 713.672 1724.46 717.1 C 1713.39 719.477 1705.15 716.558 1693.65 716.383 C 1688.8 716.309 1681.56 720.533 1675.82 720.268 C 1662.78 719.667 1640.79 716.998 1627.48 717.007 C 1629.39 717.006 1619 711.024 1615.94 710.15 C 1605.21 713.048 1578.11 721.856 1569.08 721.538 C 1565.78 719.17 1566.46 716.233 1566.57 712.336 C 1556.65 712.354 1529.89 723.316 1521.05 717.548 C 1520.55 717.218 1516.69 712.195 1516 711.297 C 1507.19 713.095 1493.1 722.725 1488.27 722.659 C 1484.89 718.205 1490.41 710.44 1492.88 706.086 C 1485.5 707.863 1464.98 713.657 1458.54 712.195 C 1453.3 707.622 1456.5 704.086 1452.41 704.522 C 1440.99 705.742 1415.51 716.477 1405.64 714.499 C 1403.56 711.55 1405.26 708.003 1406.31 704.705 C 1396.09 708.132 1385.94 711.776 1375.88 715.637 L 1380.08 705.071 C 1374.84 706.819 1361.19 712.904 1357.89 713.144 L 1356.69 712.06 L 1357.76 707.935 C 1353.53 706.447 1334.07 716.129 1327.65 718.179 C 1330.61 714.43 1334.86 709.371 1337.38 705.47 C 1302.64 707.385 1275.59 715.135 1241.89 720.984 C 1237.51 721.744 1231.13 716.902 1227.09 716.163 C 1224.3 715.778 1219.93 719.258 1215.31 717.742 C 1208.82 710.649 1218.33 710.597 1206.51 708.807 C 1185.29 705.595 1167.12 715.302 1146.91 714.469 C 1145.17 714.398 1142.61 708.933 1141.85 707.414 C 1132.94 708.782 1107.16 719.475 1102.09 717.162 C 1099.77 712.638 1102.25 709.306 1104.3 704.879 C 1096.07 707.602 1067.11 718.743 1061.5 717.204 C 1057.26 712.429 1060.4 708.59 1057.05 709.29 C 1046.99 711.395 1030.3 721.971 1020.71 720.341 C 1016.15 716.366 1018.44 712.465 1020.51 707.329 C 999.771 707.011 976.36 705.105 956.131 709.024 C 935.68 712.985 914.32 721.588 893.517 721.787 C 888.9 721.847 887.503 714.644 887.183 711.248 C 877.229 711.981 862.695 720.224 856.727 716.984 C 855.651 714.305 856.489 712.41 857.233 709.643 C 837.726 705.463 784.237 723.256 774.845 720.171 C 772.747 715.017 778.407 709.943 781.842 706.007 C 774.122 705.882 764.866 705.482 757.345 706.859 C 737.551 710.485 718.296 716.997 698.542 720.847 C 686.146 723.264 679.506 724.78 672.52 712.673 C 664.838 712.799 660.293 716.902 655.752 715.691 C 654.486 712.642 655.297 710.749 656.527 707.764 C 657.077 706.444 657.65 705.134 658.247 703.834 C 650.403 706.509 621.431 717.538 612.206 717.189 C 610.78 717.135 608.966 713.243 608.146 711.58 C 600.807 707.738 554.404 725.581 542.68 722.867 C 540.462 722.354 538.723 720.535 537.126 718.991 C 526.191 716.335 502.726 728.272 494.787 724.308 C 492.674 719.395 496.245 716.013 499.111 711.924 C 489.902 711.862 472.447 711.286 464.037 713.064 C 447.454 716.57 431.952 722.929 414.943 725.962 C 419.801 719.542 422.616 716.709 428.428 711.064 C 417.711 712.443 384.718 722.827 380.32 721.524 C 378.782 716.636 383.283 714.895 380.508 712.713 C 371.119 714.267 354.024 722.138 347.273 720.432 C 345.554 716.012 349.229 715.619 347.023 712.208 C 337.829 710 314.463 722.105 306.185 718.073 C 296.938 713.569 271.312 730.973 266.223 722.981 L 265.997 718.722 C 260.29 716.58 250.218 721.004 244.032 720.981 C 235.052 720.979 241.856 714.923 232.343 714.989 C 219.27 714.879 208.209 719.216 194.892 719.281 C 180.439 719.351 183.216 723.301 174.163 712.651 C 170.533 708.38 126.763 717.792 121.845 715.318 L 124.631 711.789 C 118.44 708.561 96.5087 721.026 91.2634 716.645 C 91.5997 714.33 91.9088 713.266 91.5259 710.989 C 78.5977 712.488 58.8611 727.182 46.3971 718.986 C 44.1864 717.533 38.3191 700.228 38.5601 698.499 C 39.9141 688.79 49.5139 676.819 52.8482 667.582 C 59.0754 650.33 62.6728 626.21 70.8028 610.257 C 73.748 604.478 91.5046 587.121 96.7771 581.761 C 101.12 561.238 104.599 540.635 109.107 520.154 C 110.652 512.73 118.543 506.245 121.033 499.585 C 129.346 477.35 134.989 453.207 145.728 432.026 C 150.479 422.656 161.146 422.323 170.281 422.932 C 174.605 403.239 190.98 318.433 203.398 310.108 C 207.884 307.1 213.913 307.162 218.998 308.268 C 221.144 308.752 223.275 309.3 225.388 309.91 C 229.681 291.961 230.004 267.763 251.022 264.557 C 253.942 246.669 253.767 228.128 268.276 217.599 C 268.91 217.141 269.548 216.69 270.191 216.245 C 273.021 204.861 287.843 138.235 318.161 171.356 C 322.769 176.389 323.215 201.973 324.44 211.247 C 329.191 214.963 330.549 216.24 333.784 221.197 C 334.166 228.484 334.735 236.377 334.887 243.62 C 347.771 254.572 345.274 268.695 348.632 285.513 C 366.347 296.312 379.622 324.966 381.725 345.19 C 395.076 342.391 434.682 331.603 443.757 337.492 C 446.176 343.828 441.82 342.6 445.549 345.681 C 468.474 349.166 514.168 322.157 529.119 339.474 C 530.048 340.55 531.745 344.391 532.388 345.943 C 543.224 343.107 559.861 337.998 570.623 338.354 L 572.612 339.566 C 573.014 341.234 573.337 342.774 573.937 344.387 C 586.666 342.845 611.249 332.082 621.206 336.65 C 624.16 340.163 623.78 341.406 624.092 346.374 C 634.684 347.208 654.363 339.695 664.733 339.26 C 693.102 338.071 722.063 340.198 750.517 339.398 C 759.962 339.132 778.283 332.344 785.354 334.793 C 786.997 337.673 786.351 337.363 785.773 341.431 C 791.229 342.313 813.722 331.674 820.748 336.879 C 821.803 341.898 817.982 344.232 814.448 347.453 C 819.551 347.792 825.011 348.428 830.101 347.858 C 846.735 345.995 852.715 340.961 870.257 346.068 C 885.671 350.555 949.92 322.793 957.729 336.802 C 958.792 338.708 958.817 341.774 959.031 343.935 C 969.987 346.4 1011.7 332.297 1021.23 338.056 C 1022.83 343.64 1020.39 342.817 1020.92 346.829 C 1027.67 346.417 1035.17 342.505 1039.76 343.866 C 1040.6 345.8 1040.52 345.917 1040.13 348.069 C 1050.76 349.701 1105.61 332.411 1119.78 332.916 C 1122.71 333.021 1123.42 334.176 1125.01 336.037 C 1125.59 339.527 1125.09 341.093 1124.4 344.54 C 1133.28 345.605 1160.39 336.21 1169.82 338.084 L 1170.92 339.501 C 1169.95 341.399 1169.21 342.561 1168.85 344.665 C 1181.87 344.48 1211.31 332.828 1221.59 338.913 C 1231.34 344.687 1256.34 333.014 1263.51 341.804 C 1263.72 344.249 1263.53 344.81 1263.08 347.258 C 1274.28 349.615 1309.91 338.717 1322.59 335.818 C 1333.91 333.228 1338.32 328.717 1347.29 339.28 C 1358.26 337.513 1377.75 328.488 1384.99 333.37 C 1389.29 338.427 1386.57 345.383 1390.46 346.007 C 1405.21 348.372 1454.27 328.438 1464.06 334.606 C 1466.41 337.645 1465.92 339.981 1465.94 343.679 C 1485.45 343.305 1506.54 335.511 1525.38 345.825 C 1524.96 345.598 1538.37 342.071 1541.4 341.903 C 1559.76 340.887 1578.02 339.677 1596.38 338.212 C 1598.5 338.043 1601.63 329.927 1615.46 328.575 C 1625.85 332.989 1635.93 339.173 1645.49 343.122 C 1653.94 340.706 1674.19 333.879 1681.56 335.984 L 1683.25 337.74 C 1682.64 340.48 1682.21 341.192 1680.91 343.699 C 1686.99 349.156 1708.89 342.36 1716.8 341.452 C 1706.15 329.371 1633.6 261.637 1631.97 257.724 C 1630.91 255.215 1629.67 254.487 1627.35 253.449 C 1617.15 256.813 1570.43 315.049 1561.52 326.59 C 1573.41 292.598 1590.07 270.957 1610.85 242.637 C 1612.76 240.037 1614.71 224.687 1622.84 221.989 C 1636.38 219.518 1642.19 207.59 1653.2 199.232 C 1661.63 192.83 1709.17 160.351 1716.43 162.588 C 1715.2 164.401 1704.8 171.97 1701.71 174.601 C 1691.38 183.402 1647.24 223.701 1643.92 234.727 C 1645.62 238.251 1652.34 243.54 1655.25 246.666 C 1679.35 272.539 1703.37 298.499 1728.43 323.473 C 1729.09 321.698 1729.69 319.966 1730.32 318.18 C 1730.52 316.378 1731.08 311.702 1732.08 310.314 C 1745.13 292.189 1758.55 273.366 1769.24 253.687 C 1755.34 245.34 1739.66 237.464 1725.2 229.891 z" fill="rgb(41,42,45)" transform="translate(0,0)"></path>
<path d="M 1731.12 326.747 C 1733.46 328.644 1735.43 330.444 1737.68 332.451 L 1735.91 335.385 C 1748.43 348.682 1760.66 361.45 1772.65 375.25 C 1771.21 378.622 1769.77 383.609 1768.62 387.21 C 1763.92 382.068 1754.76 374.156 1749.4 369.074 C 1738.78 359.074 1728.52 348.704 1718.64 337.983 C 1721.78 334.541 1725 331.166 1728.29 327.858 L 1731.12 326.747 z" fill="rgb(195,194,194)" transform="translate(0,0)"></path>
<path d="M 1731.12 326.747 C 1733.46 328.644 1735.43 330.444 1737.68 332.451 L 1735.91 335.385 C 1733.33 332.817 1730.99 330.328 1728.29 327.858 L 1731.12 326.747 z" fill="rgb(57,56,58)" transform="translate(0,0)"></path>
<path d="M 1732.52 321.005 C 1739.87 325.066 1743.85 323.055 1737.68 332.451 C 1735.43 330.444 1733.46 328.644 1731.12 326.747 L 1731.06 326.243 C 1731.58 324.506 1732.06 322.76 1732.52 321.005 z" fill="rgb(195,194,194)" transform="translate(0,0)"></path>
<path d="M 1728.43 323.473 C 1729.09 321.698 1729.69 319.966 1730.32 318.18 C 1731.07 319.103 1731.81 320.045 1732.52 321.005 C 1732.06 322.76 1731.58 324.506 1731.06 326.243 C 1730.18 325.326 1729.3 324.402 1728.43 323.473 z" fill="rgb(57,56,58)" transform="translate(0,0)"></path>
<path d="M 303.357 185.462 C 305.416 205.383 308.528 232.353 309.353 252.246 L 324.568 263.368 C 329.213 292.736 330.655 295.936 328.173 325.076 C 332.802 318.951 337.31 312.734 341.695 306.431 C 367.41 344.712 359.042 349.506 364.175 394.117 C 367.957 426.98 363.832 454.317 367.996 486.546 C 376.109 469.588 383.103 450.558 391.056 434.449 C 396.485 453.008 405.033 485.037 407.27 504.015 C 407.999 510.204 402.07 543.426 400.462 551.205 C 403.889 556.629 421.926 582.51 423.049 585.285 C 429.851 602.092 428.031 635.451 431.182 655.114 C 439.37 666.194 451.505 681.549 458.829 692.656 C 440.49 692.752 400.662 690.935 385.954 695.875 C 379.795 691.925 375.748 691.331 368.504 690.308 C 358.51 662.835 348.459 634.966 345.389 605.744 C 342.422 607.568 339.213 609.639 336.226 611.364 L 327.84 598.071 C 329.47 576.145 333.144 551.742 334.305 530.68 C 330.136 526.077 324.946 520.634 321.07 515.923 L 321.045 475.942 L 308.556 464.294 C 311.565 441.587 314.454 408.446 318.457 387.145 L 254.869 384.028 C 258.222 396.765 262.849 408.802 266.666 421.342 C 262.563 428.904 258.171 437.462 253.886 444.823 C 254.051 458.443 255.051 473.174 255.039 486.321 L 229.286 491.568 C 220.896 505.103 212.295 519.342 203.574 532.644 C 203.386 537.854 203.062 543.541 203.161 548.715 C 194.782 559.933 185.702 572.623 176.996 583.434 C 180.646 593.887 187.326 611.487 190.002 621.768 C 185.099 630.145 178.55 640.711 174.117 649.109 C 174.396 658.394 174.417 667.684 174.178 676.97 L 161.851 692.726 C 147.357 692.84 132.152 692.728 117.72 693.173 C 113.549 689.697 112.16 689.505 106.73 690.07 C 91.3609 691.668 76.9629 692.831 61.7475 695.706 C 75.5472 669.39 80.7731 650.591 87.6695 621.689 L 116.567 591.564 C 120.378 570.255 124.397 548.928 129.082 527.797 C 130.367 522.004 135.672 519.787 137.778 514.446 C 146.972 491.119 153.335 464.137 163.199 441.34 C 167.578 449.263 177.897 472.379 179.662 481.38 C 180.473 480.636 181.293 479.902 182.122 479.177 C 183.363 468.639 186.261 454.783 188.088 444.157 C 193.181 414.532 198.871 384.768 207.335 355.907 C 209.819 347.436 212.448 335.956 215.729 327.938 C 221.819 338.445 227.674 349.086 233.289 359.855 C 232.793 367.939 230.809 379.246 229.605 387.486 L 231.512 388.204 C 234.431 376.019 246.947 344.337 251.845 330.871 C 246.599 333.595 243.565 335.016 238.907 338.818 C 243.301 320.98 248.797 302.734 252.577 284.952 L 267.57 285.118 C 271.419 268.822 273.53 252.697 276.734 236.365 C 279.663 234.025 283.702 231.003 286.201 228.352 C 289.144 217.969 291.416 208.482 293.832 197.998 C 298.605 192.964 299.73 191.32 303.357 185.462 z" fill="rgb(195,194,194)" transform="translate(0,0)"></path>
<path d="M 229.605 387.486 L 231.512 388.204 C 231.078 389.296 230.069 392.504 229.386 393.182 C 228.233 392.299 229.254 388.72 229.605 387.486 z" fill="rgb(57,56,58)" transform="translate(0,0)"></path>
<path d="M 182.122 479.177 C 181.917 481.453 181.841 486.743 179.662 481.38 C 180.473 480.636 181.293 479.902 182.122 479.177 z" fill="rgb(57,56,58)" transform="translate(0,0)"></path>
<path d="M 106.245 618.825 L 119.148 607.455 C 109.45 628.35 100.331 649.508 91.8001 670.906 L 90.3464 670.358 C 96.039 654.449 101.485 635.243 106.245 618.825 z" fill="rgb(41,42,45)" transform="translate(0,0)"></path>
<path d="M 342.613 334.055 L 343.187 334.097 C 346.832 346.602 350.51 370.577 355.621 381.689 C 352.492 392.227 349.287 409.696 347.169 420.767 L 346.631 422.539 C 345.571 418.485 349.692 394.021 349.535 387.464 C 349.122 370.261 345.471 351.097 342.613 334.055 z" fill="rgb(57,56,58)" transform="translate(0,0)"></path>
<path d="M 410.462 617.164 L 412.455 620.701 C 411.422 633.15 412.45 639.925 412.081 650.966 C 413.224 657.759 412.93 665.163 413.253 672.171 L 411.764 673.404 C 411.402 669.825 410.667 666.318 410.347 662.891 C 408.724 655.128 407.136 644.258 405.787 636.505 C 405.699 636 409.906 619.49 410.462 617.164 z" fill="rgb(41,42,45)" transform="translate(0,0)"></path>
<path d="M 412.081 650.966 C 413.224 657.759 412.93 665.163 413.253 672.171 L 411.764 673.404 C 411.402 669.825 410.667 666.318 410.347 662.891 C 412.275 659.53 411.576 655.118 412.081 650.966 z" fill="rgb(57,56,58)" transform="translate(0,0)"></path>
<path d="M 208.937 381.982 C 213.702 375.063 216.029 368.832 220.529 361.353 C 216.115 377.61 213.74 386.664 210.698 403.359 C 210.569 404.748 210.104 408.41 209.417 409.469 C 209.341 409.462 209.265 409.456 209.189 409.449 C 207.497 407.232 208.425 385.889 208.937 381.982 z" fill="rgb(41,42,45)" transform="translate(0,0)"></path>
<path d="M 208.937 381.982 C 209.5 389.065 208.229 397.802 210.698 403.359 C 210.569 404.748 210.104 408.41 209.417 409.469 C 209.341 409.462 209.265 409.456 209.189 409.449 C 207.497 407.232 208.425 385.889 208.937 381.982 z" fill="rgb(57,56,58)" transform="translate(0,0)"></path>
<path d="M 162.945 475.87 C 163.425 482.562 150.344 503.899 146.52 510.218 C 146.028 506.402 152.398 488.091 153.894 482.248 C 156.799 479.967 159.82 477.838 162.945 475.87 z" fill="rgb(41,42,45)" transform="translate(0,0)"></path>
<path d="M 392.146 466.23 C 393.89 473.37 396.707 482.548 399.541 489.262 C 397.69 497.018 396.674 502.791 395.614 510.78 C 393.839 507.52 394.251 505.603 393.764 501.727 C 393.687 490.254 393.139 480.925 390.492 469.527 L 392.146 466.23 z" fill="rgb(41,42,45)" transform="translate(0,0)"></path>
<path d="M 137.325 555.439 L 138.579 557.73 C 135.289 567.266 133.411 577.882 130.369 587.648 C 131.003 572.331 130.852 568.303 137.325 555.439 z" fill="rgb(57,56,58)" transform="translate(0,0)"></path>
<path d="M 289.989 265.144 C 288.756 260.066 283.478 248.44 288.615 244.925 C 289.05 244.921 289.307 244.88 289.336 245.167 C 289.744 249.244 290.963 261.151 291.289 264.681 L 289.989 265.144 z" fill="rgb(57,56,58)" transform="translate(0,0)"></path>
<path d="M 310.391 266.832 C 317.175 273.698 313.737 275.634 310.053 282.424 C 309.433 283.08 309.12 283.804 308.431 284.108 L 308.232 283.915 C 308.111 282.987 310.188 269.439 310.391 266.832 z" fill="rgb(41,42,45)" transform="translate(0,0)"></path>
<path d="M 393.764 501.727 C 394.251 505.603 393.839 507.52 395.614 510.78 C 395.113 514.083 394.937 516.738 394.274 520.093 L 392.89 520.436 C 393.025 514.016 393.02 508.146 393.764 501.727 z" fill="rgb(57,56,58)" transform="translate(0,0)"></path>
<path d="M 412.005 610.586 L 413.256 610.986 C 413.069 613.701 413.034 618.264 412.455 620.701 L 410.462 617.164 C 410.942 614.596 411.273 613.076 412.005 610.586 z" fill="rgb(57,56,58)" transform="translate(0,0)"></path>
<path d="M 90.3464 670.358 L 91.8001 670.906 C 91.4061 672.245 88.8061 680.168 87.6088 680.211 C 86.5069 679.16 89.7314 671.817 90.3464 670.358 z" fill="rgb(131,132,133)" transform="translate(0,0)"></path>
<path d="M 413.253 672.171 C 415.615 677.113 412.358 685.439 411.764 673.404 L 413.253 672.171 z" fill="rgb(131,132,133)" transform="translate(0,0)"></path>
<path d="M 392.89 520.436 L 394.274 520.093 C 394.225 521.685 393.847 528.519 392.556 529.237 L 392.45 529.198 C 391.537 526.861 391.95 522.855 392.89 520.436 z" fill="rgb(131,132,133)" transform="translate(0,0)"></path>
<path d="M 137.325 555.439 C 137.691 554.148 138.95 550.298 139.913 549.6 L 140.123 549.812 L 140.157 549.621 L 140.255 549.568 C 141.018 550.459 138.878 556.493 138.579 557.73 L 137.325 555.439 z" fill="rgb(131,132,133)" transform="translate(0,0)"></path>
<path d="M 291.289 264.681 C 292.081 266.311 293.138 270.351 292.354 272.002 C 290.988 271.7 290.255 266.349 289.989 265.144 L 291.289 264.681 z" fill="rgb(131,132,133)" transform="translate(0,0)"></path>
<path d="M 390.492 469.527 C 390.379 468.832 389.366 463.595 390.731 463.616 C 391.618 464.445 391.735 465.082 392.146 466.23 L 390.492 469.527 z" fill="rgb(131,132,133)" transform="translate(0,0)"></path>
<path d="M 412.005 610.586 C 412.126 609.355 412.035 607.18 413.417 606.624 C 414.645 607.13 413.514 610.193 413.256 610.986 L 412.005 610.586 z" fill="rgb(131,132,133)" transform="translate(0,0)"></path>
<path d="M 1643.66 607.336 C 1629.59 604.555 1615.73 600.751 1602.21 595.957 C 1530.64 570.569 1563.2 532.009 1614.52 511.1 C 1706.38 473.679 1823.51 465.185 1918.74 494.408 C 1929.02 497.565 1947.65 508.153 1951.85 518.846 C 1961.52 547.338 1909.42 572.834 1889.69 581.036 L 1890.39 582.319 C 1911.95 574.42 1918.83 571.044 1938.51 557.788 C 1927.5 581.435 1920.82 594.194 1902.08 613.651 L 1900.77 611.668 C 1912.77 596.516 1917.14 589 1926.33 572.116 C 1866.26 605.374 1797.68 617.87 1729.61 620.137 C 1687.46 621.54 1638.29 619.428 1598.76 603.709 C 1611.85 621.201 1623.76 633.062 1642.3 645.006 C 1644.3 646.289 1649.47 649.952 1651.26 650.443 L 1652.68 653.299 C 1618.3 637.742 1598.67 620.196 1577.7 589.59 C 1601.84 600.988 1617 604.334 1643.03 609.337 L 1643.66 607.336 z" fill="rgb(251,195,43)" transform="translate(0,0)"></path>
<path d="M 1643.66 607.336 C 1651.43 608.145 1661 610.453 1668.63 611.124 L 1668.83 611.98 C 1660.31 611.574 1651.44 610.946 1643.03 609.337 L 1643.66 607.336 z" fill="rgb(60,50,24)" transform="translate(0,0)"></path>
<path d="M 1890.39 582.319 C 1888.97 582.988 1874.1 589.558 1874.62 587.045 C 1876.55 586.042 1887.55 581.731 1889.69 581.036 L 1890.39 582.319 z" fill="rgb(137,108,32)" transform="translate(0,0)"></path>
<path d="M 1668.63 611.124 C 1671.32 610.903 1674.86 610.498 1677.19 612.372 L 1677.24 612.536 C 1675.78 614.078 1670.58 612.59 1668.83 611.98 L 1668.63 611.124 z" fill="rgb(200,154,40)" transform="translate(0,0)"></path>
<path d="M 1766.05 482.575 L 1766.63 482.511 C 1810.79 478.022 1890.81 483.214 1928.66 509.415 C 1940.72 517.758 1942.49 537.046 1931.63 546.84 C 1887.65 586.486 1800.58 600.328 1744.25 604.526 C 1702.24 608.71 1620.39 604.115 1584.08 578.031 C 1571.56 569.029 1571.21 550.722 1582.33 540.362 C 1625.91 499.748 1708.89 486.98 1766.05 482.575 z" fill="rgb(41,42,45)" transform="translate(0,0)"></path>
<path d="M 1803.8 508.713 L 1805.58 509.602 C 1810.37 511.486 1815.23 521.48 1817.88 526.208 C 1815.29 528.592 1810.41 533.687 1807.57 535.05 L 1806.44 537.007 C 1808.83 540.951 1808.06 549.795 1808.28 555.375 C 1793.85 558.145 1790.91 558.103 1785 571.484 L 1773.4 567.697 L 1772.46 567.28 C 1765.31 564.917 1758.42 563.51 1751.22 561.435 C 1751.38 555.987 1750.03 543.289 1755.14 541.766 L 1755.98 540.137 C 1761.48 537.306 1775.12 532.596 1778.41 530.279 L 1782.27 526.031 C 1781.67 521.813 1780.91 517.618 1780 513.454 C 1787.76 512.086 1796.3 509.658 1803.8 508.713 z" fill="rgb(60,50,24)" transform="translate(0,0)"></path>
<path d="M 1776.52 545.274 C 1782.99 540.242 1789.37 535.064 1795.9 530.168 C 1799.4 532.525 1802.82 535.304 1806.44 537.007 C 1808.83 540.951 1808.06 549.795 1808.28 555.375 C 1793.85 558.145 1790.91 558.103 1785 571.484 L 1773.4 567.697 C 1774 561.476 1774.88 551.06 1776.52 545.274 z" fill="rgb(251,195,43)" transform="translate(0,0)"></path>
<path d="M 1803.8 508.713 L 1805.58 509.602 C 1810.37 511.486 1815.23 521.48 1817.88 526.208 C 1815.29 528.592 1810.41 533.687 1807.57 535.05 C 1805.69 533.269 1794.91 524.582 1794.79 524.386 L 1793.95 524.389 C 1790.25 527.536 1787.88 526.149 1782.27 526.031 C 1781.67 521.813 1780.91 517.618 1780 513.454 C 1787.76 512.086 1796.3 509.658 1803.8 508.713 z" fill="rgb(251,195,43)" transform="translate(0,0)"></path>
<path d="M 1803.8 508.713 L 1805.58 509.602 C 1800.67 515.176 1798.31 517.866 1794.79 524.386 L 1793.95 524.389 C 1790.25 527.536 1787.88 526.149 1782.27 526.031 C 1781.67 521.813 1780.91 517.618 1780 513.454 C 1787.76 512.086 1796.3 509.658 1803.8 508.713 z" fill="rgb(251,195,43)" transform="translate(0,0)"></path>
<path d="M 1803.8 508.713 L 1805.58 509.602 C 1800.67 515.176 1798.31 517.866 1794.79 524.386 L 1793.95 524.389 C 1794.55 517.704 1799.87 514.22 1803.8 508.713 z" fill="rgb(60,50,24)" transform="translate(0,0)"></path>
<path d="M 1755.14 541.766 C 1758.01 542.692 1761.1 543.159 1764.02 543.854 C 1774.77 546.411 1773.94 542.869 1774.07 553.354 C 1773.83 554.323 1773.9 554.14 1773.31 554.963 C 1773.07 559.595 1773.12 562.645 1772.46 567.28 C 1765.31 564.917 1758.42 563.51 1751.22 561.435 C 1751.38 555.987 1750.03 543.289 1755.14 541.766 z" fill="rgb(251,195,43)" transform="translate(0,0)"></path>
<path d="M 1774.07 553.354 C 1773.83 554.323 1773.9 554.14 1773.31 554.963 C 1773.54 554.088 1773.47 553.994 1774.07 553.354 z" fill="rgb(137,108,32)" transform="translate(0,0)"></path>
<path d="M 1778.41 530.279 C 1781.15 530.015 1787.01 529.349 1789.5 530.525 L 1789.49 530.508 C 1788.8 532.471 1776.76 541.812 1774.49 543.628 C 1768.19 542.698 1762.18 541.701 1755.98 540.137 C 1761.48 537.306 1775.12 532.596 1778.41 530.279 z" fill="rgb(251,195,43)" transform="translate(0,0)"></path>
<path d="M 1798.89 562.803 C 1800.7 557.846 1826.5 555.261 1832.02 561.479 L 1833.27 564.239 C 1839.35 562.609 1838.87 564.025 1843.32 568.667 C 1844.49 573.378 1845.62 578.251 1846.81 582.898 C 1842.11 584.247 1837.38 585.479 1832.62 586.593 C 1823.64 588.775 1814.3 590.374 1805.22 592.466 C 1803.92 592.324 1803.06 592.389 1801.76 592.43 C 1793.86 596.432 1781.78 594.794 1786.14 583.013 C 1789.94 572.771 1785.68 562.585 1799.88 566.111 L 1798.89 562.803 z" fill="rgb(251,195,43)" transform="translate(0,0)"></path>
<path d="M 1801.76 592.43 C 1793.86 596.432 1781.78 594.794 1786.14 583.013 C 1789.94 572.771 1785.68 562.585 1799.88 566.111 C 1803.68 567.416 1805.98 568.667 1809.55 570.358 C 1805.08 579.662 1804.65 582.377 1801.76 592.43 z" fill="rgb(251,195,43)" transform="translate(0,0)"></path>
<path d="M 1798.89 562.803 C 1800.7 557.846 1826.5 555.261 1832.02 561.479 C 1827.65 564.169 1818 567.189 1812.87 568.77 C 1808.53 566.745 1803.37 564.336 1798.89 562.803 z" fill="rgb(251,195,43)" transform="translate(0,0)"></path>
<path d="M 1832.02 561.479 L 1833.27 564.239 C 1826.28 567.364 1818.93 569.363 1811.79 571.814 C 1809.87 576.236 1805.77 587.782 1805.22 592.466 C 1803.92 592.324 1803.06 592.389 1801.76 592.43 C 1804.65 582.377 1805.08 579.662 1809.55 570.358 C 1805.98 568.667 1803.68 567.416 1799.88 566.111 L 1798.89 562.803 C 1803.37 564.336 1808.53 566.745 1812.87 568.77 C 1818 567.189 1827.65 564.169 1832.02 561.479 z" fill="rgb(40,38,29)" transform="translate(0,0)"></path>
<path d="M 1663.53 563.789 C 1670.62 565.155 1680.34 564.259 1687.76 563.874 C 1695.17 571.01 1697.46 575.816 1700.28 585.197 C 1699.26 589.71 1696.76 595.594 1695.05 600.035 L 1673.07 598.821 C 1671.89 598.508 1670.45 598.123 1668.74 597.667 C 1665.8 594.037 1660.93 586.85 1658.49 583.27 L 1661.62 597.428 L 1647.97 594.597 C 1656.1 583.338 1656.85 575.074 1663.53 563.789 z" fill="rgb(251,195,43)" transform="translate(0,0)"></path>
<path d="M 1755.46 497.38 C 1757.74 499.569 1761.28 501.94 1761.87 504.236 L 1762.86 506.906 C 1765.98 506.892 1767.44 506.149 1770.13 508.167 C 1773.49 510.694 1781.17 522.242 1775.94 525.775 C 1771.76 528.598 1752.37 538.186 1747.76 538.067 C 1738.02 530.575 1749.12 518.868 1720.69 513.35 C 1724.2 505.816 1724.68 500.641 1733.79 502.001 L 1734.1 500.137 C 1739.49 498.943 1749.79 497.997 1755.46 497.38 z" fill="rgb(251,195,43)" transform="translate(0,0)"></path>
<path d="M 1755.46 497.38 C 1757.74 499.569 1761.28 501.94 1761.87 504.236 C 1752.42 508.547 1742.68 504.113 1734.1 500.137 C 1739.49 498.943 1749.79 497.997 1755.46 497.38 z" fill="rgb(251,195,43)" transform="translate(0,0)"></path>
<path d="M 1734.1 500.137 C 1742.68 504.113 1752.42 508.547 1761.87 504.236 L 1762.86 506.906 C 1747.35 510.287 1746.69 506.434 1733.79 502.001 L 1734.1 500.137 z" fill="rgb(60,50,24)" transform="translate(0,0)"></path>
<path d="M 1814.21 534.538 C 1821.44 527.117 1832.45 522.732 1842.62 522.338 L 1843.74 525.06 C 1844.69 524.424 1847.85 522.027 1848.48 522.416 C 1852.18 524.683 1859.05 535.873 1861.05 539.113 C 1851.41 548.778 1850.42 551.542 1844.66 564.054 C 1839.82 559.829 1836.62 557.311 1830.51 554.844 L 1829.13 553.924 C 1825.1 554.439 1816.56 554.117 1812.02 554.169 C 1811.99 549.748 1811.12 538.838 1813.34 535.994 L 1814.21 534.538 z" fill="rgb(251,195,43)" transform="translate(0,0)"></path>
<path d="M 1814.21 534.538 C 1819.75 535.307 1822.47 534.497 1827.76 534.546 L 1828.01 536.065 C 1829.09 542.264 1828.83 547.713 1829.13 553.924 C 1825.1 554.439 1816.56 554.117 1812.02 554.169 C 1811.99 549.748 1811.12 538.838 1813.34 535.994 L 1814.21 534.538 z" fill="rgb(251,195,43)" transform="translate(0,0)"></path>
<path d="M 1814.21 534.538 C 1819.75 535.307 1822.47 534.497 1827.76 534.546 L 1828.01 536.065 C 1823.12 535.991 1818.23 535.967 1813.34 535.994 L 1814.21 534.538 z" fill="rgb(137,108,32)" transform="translate(0,0)"></path>
<path d="M 1814.21 534.538 C 1821.44 527.117 1832.45 522.732 1842.62 522.338 C 1838.25 526.215 1832.58 531.564 1827.76 534.546 C 1822.47 534.497 1819.75 535.307 1814.21 534.538 z" fill="rgb(251,195,43)" transform="translate(0,0)"></path>
<path d="M 1842.62 522.338 L 1843.74 525.06 C 1839.39 528.751 1835.11 531.986 1830.77 535.809 C 1831.3 544.497 1831.7 546.056 1830.51 554.844 L 1829.13 553.924 C 1828.83 547.713 1829.09 542.264 1828.01 536.065 L 1827.76 534.546 C 1832.58 531.564 1838.25 526.215 1842.62 522.338 z" fill="rgb(40,38,29)" transform="translate(0,0)"></path>
<path d="M 1862.11 542.584 C 1870.19 537.455 1873.39 540.047 1882.51 541.034 C 1885.16 541.32 1886.81 541.781 1887.18 544.375 C 1887.52 545.15 1888.16 546.129 1888.61 546.864 C 1890.62 549.221 1893.51 559.883 1895.33 564.369 C 1888.85 567.818 1882.21 570.601 1876 573.898 C 1874.52 573.728 1874.06 573.818 1872.6 573.933 C 1866.87 576.872 1858.02 579.292 1851.69 580.752 C 1851.28 580.846 1849.09 577.786 1848.77 577.395 C 1848.77 574.939 1849.06 574.911 1847.79 572.803 C 1848.27 563.996 1854.36 550.78 1860.27 544.696 C 1861.06 543.885 1861.46 543.541 1862.11 542.584 z" fill="rgb(40,38,29)" transform="translate(0,0)"></path>
<path d="M 1888.61 546.864 C 1890.62 549.221 1893.51 559.883 1895.33 564.369 C 1888.85 567.818 1882.21 570.601 1876 573.898 C 1874.33 571.264 1872.37 568.579 1870.79 566.056 C 1873.72 559.588 1874.28 556.949 1876.5 551.347 C 1880.62 549.935 1884.52 548.342 1888.61 546.864 z" fill="rgb(251,195,43)" transform="translate(0,0)"></path>
<path d="M 1860.27 544.696 C 1864.37 547.055 1868.36 548.484 1872.67 550.369 C 1870.66 556.437 1869.32 560.045 1866.75 565.976 C 1859.87 568.599 1855.03 571.138 1847.79 572.803 C 1848.27 563.996 1854.36 550.78 1860.27 544.696 z" fill="rgb(251,195,43)" transform="translate(0,0)"></path>
<path d="M 1862.11 542.584 C 1870.19 537.455 1873.39 540.047 1882.51 541.034 C 1885.16 541.32 1886.81 541.781 1887.18 544.375 C 1884.5 545.393 1878.24 547.495 1876.07 548.722 L 1876.3 548.602 C 1871.84 546.789 1865.85 544.907 1862.11 542.584 z" fill="rgb(251,195,43)" transform="translate(0,0)"></path>
<path d="M 1848.77 577.395 C 1852.8 574.998 1856.31 574.018 1860.6 572.381 C 1868.26 569.451 1867.13 567.991 1872.6 573.933 C 1866.87 576.872 1858.02 579.292 1851.69 580.752 C 1851.28 580.846 1849.09 577.786 1848.77 577.395 z" fill="rgb(251,195,43)" transform="translate(0,0)"></path>
<path d="M 1708.22 516.978 C 1716.39 516.893 1726.8 516.371 1733.97 521.511 C 1742.43 527.24 1738.56 531.498 1739.96 540.014 C 1741.26 547.95 1734.83 550.709 1728.81 551.301 C 1718.71 550.694 1710.07 549.207 1699.59 548.682 C 1697.56 542.043 1697.68 542.501 1693.89 536.451 C 1698.55 529.86 1703.13 523.261 1708.22 516.978 z" fill="rgb(251,195,43)" transform="translate(0,0)"></path>
<path d="M 1700.12 553.026 C 1709.87 552.423 1720.67 554.694 1731.37 555.136 C 1732.52 556.84 1745.82 574.442 1737.08 576.643 C 1736.77 576.722 1729.12 575.955 1728.09 575.886 C 1715.03 575.827 1714.62 575.449 1704.07 582.222 C 1701.13 575.063 1697.5 567.907 1692.04 562.348 C 1694.79 559.115 1697.22 556.153 1700.12 553.026 z" fill="rgb(251,195,43)" transform="translate(0,0)"></path>
<path d="M 1749.31 564.536 C 1762.05 568.807 1770.23 569.914 1783.78 575.626 C 1782.94 581.079 1781.85 586.58 1781.2 592.036 C 1780.86 594.931 1786.01 594.362 1781.8 596.492 C 1776.81 597.108 1772.59 597.727 1767.54 598.138 C 1760.96 594.201 1754.23 590.704 1746.59 587.702 C 1746.32 586.69 1747.25 582.684 1746.77 582.01 C 1742.24 575.652 1745.45 572.859 1749.31 564.536 z" fill="rgb(251,195,43)" transform="translate(0,0)"></path>
<path d="M 1636.63 563.182 C 1642.55 562.364 1650.22 569.432 1654.04 573.364 C 1651.23 584.207 1650.15 585.702 1642.75 594.306 L 1631.05 592.393 C 1623.71 590.842 1616.45 588.916 1609.31 586.623 C 1614.59 579.747 1619.4 572.748 1624.6 566.019 C 1628.59 564.988 1632.6 564.042 1636.63 563.182 z" fill="rgb(251,195,43)" transform="translate(0,0)"></path>
<path d="M 1665.91 537.08 C 1670.43 538.07 1685.72 538.936 1691.09 539.356 C 1706.61 569.762 1671.3 556.391 1662.13 560.662 L 1656.19 568.203 C 1652.12 565.262 1647.39 562.348 1643.14 559.599 C 1646.14 557.206 1649.97 554.586 1653.13 552.301 C 1654.77 557.198 1656.4 561.156 1658.38 565.881 C 1659 560.32 1658.93 553.318 1659.04 547.624 C 1661.09 544.048 1663.58 540.507 1665.91 537.08 z" fill="rgb(251,195,43)" transform="translate(0,0)"></path>
<path d="M 1716.71 579.329 C 1722.78 579.309 1736.07 579.501 1741.27 581.674 C 1747.38 584.226 1731.31 599.807 1727.25 600.238 C 1717.36 600.594 1709.33 600.612 1699.45 600.297 C 1701.73 594.264 1702.54 591.447 1704.3 585.288 C 1709.53 582.093 1710.79 580.859 1716.71 579.329 z" fill="rgb(251,195,43)" transform="translate(0,0)"></path>
<path d="M 1742.12 550.252 C 1743.54 550.995 1744.85 551.936 1746.02 553.046 C 1750.35 557.209 1747.36 562.97 1743.68 566.348 C 1740.6 561.695 1738.47 558.92 1735.03 554.586 C 1737.32 552.817 1739.59 551.702 1742.12 550.252 z" fill="rgb(251,195,43)" transform="translate(0,0)"></path>
<path d="M 1743.91 592.011 C 1746.75 592.617 1768.5 598.193 1753.25 598.839 C 1747.41 599.067 1741.58 599.421 1735.75 599.9 C 1738.46 597.253 1741.18 594.623 1743.91 592.011 z" fill="rgb(251,195,43)" transform="translate(0,0)"></path>
<path d="M 1357.07 381.991 L 1397.5 383.101 C 1406.03 390.373 1415.41 400.548 1423.34 408.714 C 1410.62 457.969 1399.07 510.851 1386.66 560.883 C 1373.66 568.69 1348 580.987 1333.14 588.903 L 1311.75 588.093 C 1311.19 588.119 1310.63 588.141 1310.07 588.146 C 1302.97 588.209 1279.62 561.622 1273.32 555.161 L 1279.86 550.284 C 1288.54 515.391 1296.66 478.914 1305.66 444.355 L 1315.77 436.251 C 1311.61 435.472 1306.39 434.89 1302.12 434.29 C 1307.63 430.13 1317.66 424.608 1323.9 420.944 C 1317.01 419.822 1309.55 418.927 1302.59 417.956 C 1316.07 407.516 1340.7 393.707 1357.07 381.991 z" fill="rgb(254,254,253)" transform="translate(0,0)"></path>
<path d="M 1357.48 424.679 L 1380.89 425.024 C 1376.11 449.929 1359 515.867 1351.61 544.33 C 1351.4 545.157 1348.62 544.986 1347.25 545.043 L 1320.26 545.067 L 1335.99 478.749 C 1339.37 464.087 1342.87 446.983 1347.03 432.719 C 1350.51 430.137 1354.04 427.334 1357.48 424.679 z" fill="rgb(41,42,45)" transform="translate(0,0)"></path>
<path d="M 666.823 382.219 C 679.71 383.165 694.39 383.42 707.427 383.936 C 716.306 392.26 725.067 400.708 733.709 409.278 C 719.067 456.857 710.593 513.391 695.428 561.886 C 679.157 570.346 658.429 582.284 641.243 587.775 C 639.152 588.444 628.08 588.334 625.25 588.315 C 621.908 588.338 617.81 589.084 615.162 586.976 C 603.86 577.983 593.361 565.926 583.222 555.596 L 590.091 550.747 C 597.851 516.368 609.112 477.737 615.611 444.309 C 618.846 441.507 622.831 438.458 626.211 435.728 L 612.669 434.115 C 619.528 428.72 625.886 425.356 633.512 421.127 C 626.223 419.83 620.571 419.309 613.177 418.692 C 625.083 408.517 652.874 391.107 666.823 382.219 z" fill="rgb(254,254,253)" transform="translate(0,0)"></path>
<path d="M 668.899 423.992 C 676.176 423.993 683.509 424.355 690.785 424.649 C 685.17 449.023 679.387 473.359 673.438 497.654 C 670.182 510.987 665.712 530.718 661.201 543.05 C 657.771 545.003 657.01 544.318 652.51 544.402 C 645.301 544.857 637.304 544.88 630.023 545.046 L 656.873 433.349 C 660.776 430.204 664.926 427.075 668.899 423.992 z" fill="rgb(41,42,45)" transform="translate(0,0)"></path>
<path d="M 519.269 383.517 C 540.617 383.039 559.433 383.357 580.712 383.974 C 587.531 389.706 600.103 402.762 607.228 409.542 C 600.036 431.283 593.011 453.079 586.154 474.928 C 577.402 480.354 568.699 485.859 560.045 491.441 L 572.929 581.337 C 559.291 583.182 545.013 585.34 531.362 586.422 C 529.884 574.45 523.547 514.097 517.184 508.356 L 513.999 509.004 C 510.626 513.33 509.963 517.603 509.064 522.79 L 496.024 576.036 C 481.852 579.898 468.41 584.336 454.445 588.898 C 460.962 562.198 467.246 535.441 473.295 508.631 C 477.134 506.843 482.061 505.234 480.408 500.594 C 477.005 497.775 470.685 496.389 466.259 495.085 C 470.561 491.264 477.541 487.676 477.419 481.676 L 474.349 479.98 L 474.243 478.349 C 476.351 474.753 482.355 471.1 485.976 468.546 C 490.484 456.455 496.445 433.104 500.804 419.544 C 495.374 418.85 489.571 417.862 484.124 417.033 C 491.941 410.828 500.018 404.957 508.331 399.435 C 500.325 399.144 491.696 398.304 483.659 397.668 C 489.793 392.949 496.268 388.343 502.538 383.776 C 507.973 383.58 513.797 383.597 519.269 383.517 z" fill="rgb(254,254,253)" transform="translate(0,0)"></path>
<path d="M 529.92 423.931 C 541.453 424.17 552.99 424.098 564.519 423.714 C 560.828 435.068 557.695 446.679 553.847 457.994 C 552.646 461.525 552.734 465.406 548.741 466.518 L 517.846 472.758 C 522.194 457.042 526.117 439.832 529.92 423.931 z" fill="rgb(41,42,45)" transform="translate(0,0)"></path>
<path d="M 1301.59 373.946 L 1303.24 374.295 C 1304.81 382.173 1279.17 456.432 1279.55 472.35 L 1282.45 474.496 C 1280.08 477.449 1273.98 480.493 1270.48 482.506 L 1277.22 487.179 C 1276.81 491.991 1269.05 496.121 1268.28 499.221 C 1261.79 525.483 1256.57 552.19 1250.49 578.607 C 1236.74 581.766 1222.97 584.844 1209.18 587.841 C 1214.36 562.269 1222.18 533.427 1228.78 507.942 L 1196.01 508.251 C 1190.37 531.795 1185.09 555.42 1180.14 579.117 C 1167.22 581.403 1151.7 585.351 1138.92 588.547 C 1141.14 578.36 1143.6 568.226 1146.3 558.155 C 1150.4 541.08 1154.37 523.973 1158.2 506.837 C 1163.13 504.805 1165.54 503.368 1170.05 500.685 L 1155.6 494.988 C 1160.14 491.696 1166.58 487.754 1171.39 484.604 C 1168.43 483.244 1166.27 482.046 1163.45 480.449 C 1164.62 479.352 1168.37 475.999 1168.69 474.796 C 1173.35 457.476 1175.68 438.787 1183.31 422.457 C 1183.95 421.09 1184.17 421.042 1183.8 419.435 L 1177.78 417.821 C 1178.06 412.397 1196.2 404.647 1196.02 399.413 C 1193.69 399 1192.06 398.816 1189.7 398.628 C 1192.57 393.518 1211.2 382.816 1216.89 379.858 L 1217.97 380.315 C 1217.4 382.899 1216.77 383.791 1217.48 386.074 C 1220.81 385.918 1226.57 381.332 1229.62 379.241 C 1222.85 408.458 1216.74 437.797 1209.78 467.145 L 1240.28 467.092 C 1247.55 441.047 1254.47 414.903 1261.02 388.667 C 1271.66 383.945 1289.78 378.317 1301.59 373.946 z" fill="rgb(254,254,253)" transform="translate(0,0)"></path>
<path d="M 919.143 381.871 L 920.494 382.822 C 913.819 408.198 906.655 434.526 900.698 460.009 C 917.06 436.511 940.495 406.836 958.054 384.078 C 972.68 383.968 987.824 384.548 1002.49 384.938 C 982.109 411.858 955.088 443.549 933.428 470.119 C 934.911 482.612 939.297 501.349 941.981 514.079 L 957.196 585.882 L 936.5 586.102 L 914.723 586.403 C 908.817 560.513 903.333 534.529 898.274 508.461 C 896.189 511.023 890.21 518.505 889.187 521.095 C 881.401 540.813 875.932 566.156 870.5 587.015 C 857.981 586.872 845.247 586.437 832.712 586.119 C 846.94 530.635 863.299 474.785 875.711 418.768 C 876.382 415.737 874.846 414.908 874.391 411.652 C 876.75 408.885 890.702 399.444 895.145 395.974 L 881.095 394.649 C 888.128 390.956 897.467 385.704 904.708 383.057 L 905.928 383.716 C 905.482 385.717 904.84 387.385 904.159 389.3 L 904.946 390.217 C 908.595 389.511 915.703 384.183 919.143 381.871 z" fill="rgb(254,254,253)" transform="translate(0,0)"></path>
<path d="M 1101.98 382.062 L 1142.06 382.332 L 1167.21 406.675 C 1165.4 416.829 1162.79 428.576 1152.8 433.773 L 1150.85 431.572 C 1148.11 431.452 1120.05 445.582 1115.37 447.789 L 1123.98 424.238 C 1113.15 425.257 1104.88 425.878 1093.93 426.074 L 1085.2 458.467 C 1102.49 467.384 1122.2 475.199 1138.6 485.206 C 1140.12 486.136 1144.64 492.077 1145.98 493.85 L 1129.39 557.261 C 1113.23 566.66 1094.68 577.341 1077.6 584.923 C 1069.96 588.315 1053.87 587.381 1044.96 587.254 C 1041.09 583.48 1034.82 578.413 1030.58 574.777 L 1014.91 560.541 C 1018.45 557.262 1023.39 553.018 1026.16 549.238 L 1025.93 548.288 C 1022.99 547.89 1021.78 547.67 1018.9 546.863 L 1018.22 545.154 C 1021.61 540.059 1031.82 536.388 1034.8 531.611 C 1032.23 531.082 1030.37 530.916 1027.8 530.679 C 1029 527.071 1048.78 518.732 1053.74 516.216 L 1049.4 527.287 C 1056.89 521.969 1061.95 518.338 1070 514.07 C 1067.3 523.577 1064.83 533.515 1062.32 543.101 L 1090.25 543.27 C 1093.47 532.897 1096.63 522.508 1099.74 512.102 C 1075.51 501.867 1051.12 488.181 1027.24 478.804 C 1030.52 477.347 1037.84 474.86 1038.49 471.432 C 1036.3 470.684 1035.5 470.41 1033.46 469.321 C 1035.58 466.927 1040.06 465.53 1043.17 464.283 L 1051.86 434.945 C 1058.1 430.935 1063.33 427.471 1069.28 423.051 L 1051.32 417.104 C 1065.06 402.919 1085.01 394.396 1101.98 382.062 z" fill="rgb(254,254,253)" transform="translate(0,0)"></path>
<path d="M 1470.44 383.536 C 1490.03 382.774 1508.55 383.456 1528.08 384.136 C 1536.67 392.413 1545.38 400.564 1554.21 408.585 C 1546.21 431.922 1539.06 456.325 1531.24 479.905 C 1511.23 489.239 1491.68 499.517 1472.65 510.704 L 1458.75 510.61 C 1454.15 531.968 1448.65 553.12 1442.25 574.008 L 1417.41 583.03 C 1412.12 585.014 1406.63 586.6 1401.22 588.251 C 1408.16 564.329 1414.76 533.262 1420.72 508.577 C 1424.34 506.75 1429.17 505.398 1428.89 501.051 C 1425.89 498.381 1416.5 496.227 1412.15 494.984 L 1427.24 483.317 C 1424.21 482.346 1422.91 482.011 1420.11 480.312 L 1419.76 478.438 C 1421.4 475.46 1429.6 471.555 1433.02 469.66 C 1437.37 452.802 1442.28 436.097 1447.77 419.575 C 1441.94 418.529 1436.11 417.983 1430.23 417.35 C 1437.53 412.791 1448.12 404.429 1455.39 399.122 C 1447.19 398.921 1438.99 398.581 1430.8 398.104 C 1438.02 392.185 1444.02 388.521 1451.99 383.64 C 1457.91 383.773 1464.47 383.585 1470.44 383.536 z" fill="rgb(254,254,253)" transform="translate(0,0)"></path>
<path d="M 1477.41 424.483 C 1488.86 424.729 1500.39 424.574 1511.86 424.634 C 1509.11 433.847 1502.7 456.144 1499.03 466.122 C 1498.87 466.557 1497.51 466.606 1496.99 466.64 C 1485.78 468.637 1476.16 470.073 1465.04 472.701 C 1468.4 458.296 1473.36 438.652 1477.41 424.483 z" fill="rgb(41,42,45)" transform="translate(0,0)"></path>
<path d="M 803.067 382.841 C 813.052 382.296 829.983 383.037 840.465 383.17 L 863.301 405.82 C 860.914 414.281 858.436 422.716 855.869 431.124 C 842.933 439.141 826.549 448.76 814.618 457.67 C 818.03 448.31 821.324 436.777 824.348 427.139 L 787.739 427.118 C 777.316 465.787 767.209 504.541 757.418 543.375 C 766.922 542.94 777.438 543.014 787.024 542.878 C 789.428 536.608 795.558 509.078 806.402 515.195 C 805.687 517.411 804.85 519.11 805.275 521.333 C 809.567 520.914 822.659 511.768 826.9 509.052 L 834.795 504.78 C 829.948 523.134 824.367 542.84 820.258 561.263 C 806.618 568.225 793.417 575.858 779.957 583.166 C 767.367 590.002 756.406 588.62 742.713 588.17 C 731.338 578.036 720.15 567.695 709.152 557.152 L 716.761 551.964 C 724.957 520.962 733.353 490.013 741.946 459.119 C 743.56 453.236 751.461 426.508 751.645 421.85 C 749.671 420.654 747.737 419.393 745.847 418.069 C 747.496 414.741 795.4 387.823 803.067 382.841 z" fill="rgb(254,254,253)" transform="translate(0,0)"></path>
<path d="M 1849.49 430.128 C 1850.68 421.825 1863.79 388.63 1867.97 380.475 C 1881.36 354.396 1919.25 357.898 1944.69 358.065 C 1940.2 368.72 1935.99 381.127 1930.88 391.116 C 1926.75 399.187 1911.92 409.673 1907.06 416.779 C 1894.2 435.564 1880.94 457.588 1869.61 477.329 C 1865.27 476.687 1855.22 475.767 1852.44 473.4 L 1851.6 473.234 C 1848 475.461 1836.08 473.27 1831.41 472.771 C 1833.5 467.848 1844.06 436.73 1846.88 436.257 C 1846.72 435.184 1846.2 434.089 1846.72 433.297 C 1848.55 432.04 1848.41 432.058 1849.49 430.128 z" fill="rgb(251,195,43)" transform="translate(0,0)"></path>
<path d="M 1831.41 472.771 C 1833.5 467.848 1844.06 436.73 1846.88 436.257 C 1846.9 447.961 1849.53 461.591 1851.6 473.234 C 1848 475.461 1836.08 473.27 1831.41 472.771 z" fill="rgb(251,195,43)" transform="translate(0,0)"></path>
<path d="M 1849.49 430.128 C 1850.34 437.345 1853.25 467.963 1852.44 473.4 L 1851.6 473.234 C 1849.53 461.591 1846.9 447.961 1846.88 436.257 C 1846.72 435.184 1846.2 434.089 1846.72 433.297 C 1848.55 432.04 1848.41 432.058 1849.49 430.128 z" fill="rgb(40,38,29)" transform="translate(0,0)"></path>
<path d="M 1906.29 372.337 C 1907.37 373.039 1908.45 373.74 1909.53 374.442 C 1905.84 384.219 1900.68 394.333 1895.74 403.587 C 1889.38 412.385 1905.17 374.542 1906.29 372.337 z" fill="rgb(40,38,29)" transform="translate(0,0)"></path>
<path d="M 1864.91 327.02 L 1866.96 327.15 C 1869.18 329.747 1873.04 342.3 1874.79 346.76 C 1861.27 387.157 1842.15 433.142 1826.2 472.768 C 1815.3 472.506 1804.4 472.368 1793.5 472.355 L 1782.63 472.685 C 1786.43 464.8 1789.8 454.978 1793.34 446.742 C 1807.72 413.347 1820.39 379.266 1834.82 345.894 C 1839.99 333.94 1852.89 331.321 1864.91 327.02 z" fill="rgb(251,195,43)" transform="translate(0,0)"></path>
<path d="M 323.57 535.389 C 325.936 534.916 326.013 534.906 328.302 535.549 C 329.865 538.683 326.496 568.184 325.589 573.544 C 322.376 592.534 323.83 618.902 312.613 634.86 C 301.052 651.305 289.318 668.123 277.132 684.1 L 274.499 687.448 L 273.709 687.353 C 273.552 680.837 283.1 660.266 284.548 651.165 C 288.715 624.965 286.834 596.426 291.675 570.804 C 293.072 563.414 303.893 544.717 307.998 537.379 L 323.57 535.389 z" fill="rgb(251,195,43)" transform="translate(0,0)"></path>
<path d="M 301.774 633.807 C 306.222 638.437 299.498 640.959 296.006 641.717 C 295.865 641.625 295.723 641.534 295.581 641.442 C 295.627 640.404 300.782 634.845 301.774 633.807 z" fill="rgb(40,38,29)" transform="translate(0,0)"></path>
<path d="M 259.173 525.479 C 262.597 527.795 282.489 561.181 286.072 567.335 C 285.038 583.949 283.904 600.557 282.668 617.158 C 280.743 643.73 279.974 651.407 271.5 676.633 L 267.813 688.438 C 264.261 676.35 259.189 659.475 256.914 647.319 C 254.81 636.08 255.221 617.235 254.807 605.132 C 254.26 589.131 252.725 570.604 253.579 554.848 C 253.93 548.362 257.674 532.42 259.173 525.479 z" fill="rgb(251,195,43)" transform="translate(0,0)"></path>
<path d="M 273.647 559.584 C 278.025 562.383 273.608 567.134 271.503 571.356 C 266.628 572.436 272.998 560.824 273.647 559.584 z" fill="rgb(40,38,29)" transform="translate(0,0)"></path>
<path d="M 1912.22 262.629 C 1919.04 272.651 1939.39 337.774 1944.98 353.435 C 1934.53 354.374 1921.67 354.401 1911.03 354.692 L 1896.75 355.221 C 1889.96 349.764 1886.9 348.36 1879.04 344.163 L 1879 321.462 C 1886.38 315.292 1905.12 274.525 1912.22 262.629 z" fill="rgb(251,195,43)" transform="translate(0,0)"></path>
<path d="M 1897.31 328.431 C 1897.47 326.741 1898.63 315.047 1900.47 315.137 C 1900.67 315.775 1899.48 336.105 1899.08 338.203 C 1894.07 337.756 1896.81 333.737 1897.31 328.431 z" fill="rgb(60,50,24)" transform="translate(0,0)"></path>
<path d="M 1897.31 328.431 C 1899.84 328.569 1898.95 335.706 1899.08 338.203 C 1894.07 337.756 1896.81 333.737 1897.31 328.431 z" fill="rgb(40,38,29)" transform="translate(0,0)"></path>
<path d="M 1612.21 640.214 C 1613.18 640.004 1615.46 639.899 1616.28 640.461 C 1629.06 649.214 1642.06 656.762 1656.42 662.684 C 1654.75 665.567 1652.82 668.529 1651.03 671.363 L 1627.77 675.145 L 1636.04 660.287 C 1630.8 660.002 1625.04 659.425 1619.77 658.997 C 1604.28 674.015 1580.75 682.175 1572.95 691.251 L 1571.44 692.674 C 1558.36 693.704 1543.96 693.944 1530.77 694.097 C 1525.96 694.152 1520.69 693.142 1520.58 687.532 C 1523.74 680.648 1546.36 666.27 1553.89 660.86 C 1564.32 662.332 1571.07 663.68 1581.3 666.073 C 1578.62 664.202 1574.7 661.999 1573.74 659.046 C 1576.74 655.13 1585.35 654.724 1589.91 651.712 C 1592.8 649.8 1596.33 645.937 1598.75 643.376 C 1602.98 642.211 1607.89 641.207 1612.21 640.214 z" fill="rgb(195,194,194)" transform="translate(0,0)"></path>
<path d="M 1835.1 652.946 C 1847.93 653.06 1846.95 661.75 1870.07 660.197 C 1875.93 666.535 1878.03 672.299 1885.57 678.34 C 1891.62 683.189 1899.84 683.055 1902.3 687.453 L 1901.4 689.737 C 1898.01 692.339 1893.14 692.957 1888.88 693.868 C 1883.63 691.397 1878.4 688.872 1873.2 686.294 C 1872.94 681.653 1872.7 677.01 1872.49 672.367 C 1865.04 671.89 1856.34 672.424 1848.78 672.701 L 1839.72 681.267 C 1834.88 686.314 1830.16 691.476 1825.57 696.748 C 1819.03 695.419 1811.43 694.497 1805.19 693.203 C 1796.82 691.468 1766.51 696.153 1764.19 688.512 C 1766.72 680.819 1789.23 664.402 1796.46 659.445 C 1810.35 658.981 1823.32 660.084 1835.1 652.946 z" fill="rgb(195,194,194)" transform="translate(0,0)"></path>
<path d="M 1914.94 627.163 C 1918.59 626.589 1922.46 633.129 1924.94 635.912 C 1944.01 636.464 1956.88 642.112 1975.23 647.4 C 1986.2 664.981 1987.3 665.609 1988.3 686.217 L 1973.04 685.662 C 1970.96 681.17 1969.05 676.239 1967.17 671.631 C 1963.47 669.305 1957.12 666.801 1952.94 664.999 C 1953.74 660.401 1954.03 657.23 1954.35 652.56 C 1940.32 652.034 1929.81 662.91 1919.34 662.549 C 1915.01 660.016 1914.02 659.858 1909.02 658.978 C 1902.03 662.661 1894.8 666.81 1887.85 670.648 C 1883.96 663.036 1883.22 661.145 1877.7 654.908 C 1873.47 654.784 1867.93 655.076 1863.6 655.173 C 1881.78 641.377 1892.66 632.951 1914.94 627.163 z" fill="rgb(195,194,194)" transform="translate(0,0)"></path>
<path d="M 1654.53 370.839 C 1661.21 374.58 1667.72 378.912 1674.15 383.081 C 1675.48 390.781 1678.91 402.692 1680.89 410.585 L 1693.95 463.073 C 1694.95 467.188 1698.56 478.803 1696.89 481.556 L 1692.7 482.272 C 1687.33 483.115 1680.76 484.629 1675.34 485.737 C 1673.49 477.526 1672.71 479.885 1670.17 474.542 C 1662.45 458.327 1660.65 437.882 1655.44 420.798 C 1648.96 399.547 1650.88 392.349 1654.53 370.839 z" fill="rgb(251,195,43)" transform="translate(0,0)"></path>
<path d="M 1679.03 451.511 C 1679.22 450.847 1679.15 450.557 1679.59 450.242 C 1680.64 450.348 1680.69 453.857 1680.65 454.563 C 1680.82 456.85 1682.11 466.333 1679.7 467.107 C 1676.48 465.908 1678.82 454.94 1679.03 451.511 z" fill="rgb(40,38,29)" transform="translate(0,0)"></path>
<path d="M 1679.03 451.511 C 1679.22 450.847 1679.15 450.557 1679.59 450.242 C 1680.64 450.348 1680.69 453.857 1680.65 454.563 C 1679.47 453.176 1679.49 453.239 1679.03 451.511 z" fill="rgb(137,108,32)" transform="translate(0,0)"></path>
<path d="M 1789.03 350.851 C 1800.02 338.72 1813.91 324.074 1823.86 311.416 C 1827.07 321.626 1829.36 330.616 1831.92 340.967 L 1793.94 433.825 C 1793.03 436.101 1793.11 437.093 1791.34 438.196 L 1791.13 434.163 C 1790.43 409.174 1788.44 375.029 1789.03 350.851 z" fill="rgb(251,195,43)" transform="translate(0,0)"></path>
<path d="M 1807.92 346.951 L 1809.37 348.126 C 1807.78 355.074 1805.81 370.24 1804.4 377.844 C 1803.97 378.967 1800.6 377.814 1800.67 377.277 C 1801.73 368.797 1806.34 355.33 1807.92 346.951 z" fill="rgb(60,50,24)" transform="translate(0,0)"></path>
<path d="M 1807.92 346.951 C 1808.19 345.857 1808.85 342.367 1809.55 341.822 C 1810.74 342.645 1809.67 346.97 1809.37 348.126 L 1807.92 346.951 z" fill="rgb(200,154,40)" transform="translate(0,0)"></path>
<path d="M 1614.19 385.558 C 1622.58 388.399 1638.61 397.083 1646.53 401.414 C 1651.07 419.24 1654.83 437.409 1659.52 455.221 C 1661.21 461.606 1663.08 468.682 1663.74 475.2 C 1661.73 477.876 1660.81 477.628 1657.32 479.199 C 1654.99 480.082 1650.32 482.489 1647.88 483.651 C 1639.11 469.081 1621.75 428.312 1613.74 410.659 C 1615.07 403.603 1614.43 392.927 1614.19 385.558 z" fill="rgb(251,195,43)" transform="translate(0,0)"></path>
<path d="M 1592.92 396.016 C 1600.68 401.399 1616.94 418.448 1615.14 428.313 C 1615.87 429.489 1616.04 429.536 1617.1 430.461 C 1618.45 432.323 1619.5 433.53 1620.3 435.705 C 1627.2 451.596 1643.28 482.297 1646.89 497.033 C 1642.3 491.56 1638.59 487.061 1634.47 481.245 L 1632.22 482.941 L 1636.7 497.051 L 1618.55 504.098 C 1614.14 493.812 1598.46 457.722 1596.76 448.182 C 1595.08 438.694 1593.74 407.656 1592.92 396.016 z" fill="rgb(251,195,43)" transform="translate(0,0)"></path>
<path d="M 1615.14 428.313 C 1615.87 429.489 1616.04 429.536 1617.1 430.461 C 1617 431.82 1616.94 433.18 1616.9 434.542 C 1615.1 445.711 1614.52 457.844 1612.53 470.065 C 1612.04 461.339 1611.45 435.408 1615.14 428.313 z" fill="rgb(40,38,29)" transform="translate(0,0)"></path>
<path d="M 1632.22 482.941 C 1629.96 477.887 1630.87 477.086 1634.47 481.245 L 1632.22 482.941 z" fill="rgb(60,50,24)" transform="translate(0,0)"></path>
<path d="M 1905.87 264.049 C 1905.52 268.04 1883.49 308.069 1879.69 315.173 C 1868.96 320.664 1856.3 325.713 1845.11 330.472 L 1836.48 322.186 C 1833.09 317.451 1830.35 312.23 1827.51 307.14 L 1905.87 264.049 z" fill="rgb(251,195,43)" transform="translate(0,0)"></path>
<path d="M 1661.52 664.686 C 1683.68 672.17 1700.58 677.039 1723.33 682.533 L 1725.87 693.767 C 1706.52 698.842 1705.11 697.011 1686.23 689.804 C 1679.28 688.681 1667.72 694.559 1660.49 695.752 C 1652.7 697.037 1626.89 694.948 1622.82 687.693 C 1624.72 675.748 1648.96 679.538 1661.52 664.686 z" fill="rgb(195,194,194)" transform="translate(0,0)"></path>
<path d="M 1782.65 363.653 C 1786.33 373.547 1783.47 427.369 1786.43 442.092 C 1788.25 451.089 1781.5 464.14 1777.69 472.86 C 1768.89 472.911 1763.56 473.053 1754.88 474.16 L 1751.95 473.805 L 1751.3 472.601 C 1763.18 437.601 1770.16 396.858 1782.65 363.653 z" fill="rgb(251,195,43)" transform="translate(0,0)"></path>
<path d="M 1934.81 580.919 C 1958.7 596.105 1956.62 608.946 1960.34 634.327 C 1948.81 630.577 1942.52 629.395 1930.44 628.786 C 1927.2 628.623 1926.44 627.553 1924.79 625.516 C 1923.75 623.285 1923.57 622.182 1921.5 621.17 C 1913.93 621.19 1903.63 625.642 1896.24 628.402 C 1903.2 620.635 1911.09 613.791 1917.85 605.319 C 1924.26 597.283 1929.22 589.503 1934.81 580.919 z" fill="rgb(195,194,194)" transform="translate(0,0)"></path>
<path d="M 319.719 632.744 C 323.613 636.662 327.694 643.254 330.619 647.937 C 323.95 663.386 318.475 679.354 311.736 694.954 L 286.566 695.145 L 274.776 695.65 C 289.592 674.564 304.573 653.595 319.719 632.744 z" fill="rgb(251,195,43)" transform="translate(0,0)"></path>
<path d="M 1584.95 611.034 C 1592.41 619.484 1600.41 627.438 1608.91 634.845 C 1596.32 637.682 1590.29 643.59 1579.02 649.286 C 1571.8 652.935 1571.05 650.253 1564.65 656.933 C 1556.32 656.238 1551.43 655.477 1543.23 657.92 C 1546.67 649.791 1549.91 641.096 1553.14 632.842 C 1560.47 626.947 1576.59 616.701 1584.95 611.034 z" fill="rgb(195,194,194)" transform="translate(0,0)"></path>
<path d="M 345.449 643.879 C 350.049 645.502 361.213 685.375 363.008 691.648 C 353.008 692.62 343.845 693.808 333.751 694.227 C 326.821 694.643 323.33 694.882 316.199 694.85 C 322.019 682.898 328.796 662.585 334.762 648.703 C 338.362 647.121 341.911 645.604 345.449 643.879 z" fill="rgb(251,195,43)" transform="translate(0,0)"></path>
<path d="M 337.499 679.164 C 338.092 676.908 341.038 663.386 342.789 663.309 C 344.971 665.235 339.211 683.691 338.336 687.153 C 338.316 687.58 338.295 688.007 338.275 688.433 C 338.124 688.401 337.973 688.368 337.822 688.335 C 336.397 685.889 337.099 681.866 337.499 679.164 z" fill="rgb(40,38,29)" transform="translate(0,0)"></path>
<path d="M 338.336 687.153 C 338.316 687.58 338.295 688.007 338.275 688.433 C 338.124 688.401 337.973 688.368 337.822 688.335 C 336.397 685.889 337.099 681.866 337.499 679.164 C 337.849 681.819 338.128 684.483 338.336 687.153 z" fill="rgb(60,50,24)" transform="translate(0,0)"></path>
<path d="M 235.744 638.369 L 247.482 637.378 C 249.771 643.213 265.701 692.076 264.931 694.762 C 261.931 696.14 261.635 695.472 257.789 695.003 C 249.801 692.242 246.37 692.078 238.197 691.865 C 233.92 680.244 229.887 667.502 225.932 655.685 C 228.907 650.84 232.052 640.202 235.744 638.369 z" fill="rgb(251,195,43)" transform="translate(0,0)"></path>
<path d="M 290.914 490.776 C 293.517 493.327 292.97 535.513 292.217 541.368 C 291.661 545.689 289.015 555.786 287.717 560.375 C 284.921 555.946 281.206 550.794 278.206 546.396 C 273.228 539.7 265.35 526.628 260.596 519.164 C 270.91 509.926 281.019 500.461 290.914 490.776 z" fill="rgb(251,195,43)" transform="translate(0,0)"></path>
<path d="M 212.321 662.307 C 215.069 661.645 219.527 659.667 222.192 658.492 C 226.164 668.778 229.975 681.717 233.275 692.34 L 202.353 695.968 C 198.33 686.451 194.561 678.237 190.28 668.828 C 195.026 667.667 204.786 664.691 208.736 664.023 C 209.754 662.642 210.349 663.059 211.833 662.497 L 212.321 662.307 z" fill="rgb(251,195,43)" transform="translate(0,0)"></path>
<path d="M 208.736 664.023 C 209.754 662.642 210.349 663.059 211.833 662.497 L 212.321 662.307 C 210.186 671.541 207.75 676.928 204.107 685.34 C 205.382 677.72 207.192 671.401 208.736 664.023 z" fill="rgb(40,38,29)" transform="translate(0,0)"></path>
<path d="M 1905.93 444.163 C 1907.91 432.601 1913.22 449.415 1914.05 451.912 L 1899.44 482.692 L 1874.41 478.198 C 1881.41 465.813 1887.57 455.399 1895.14 443.294 C 1900.06 442.066 1901.99 440.068 1904.15 444.021 L 1905.93 444.163 z" fill="rgb(251,195,43)" transform="translate(0,0)"></path>
<path d="M 1904.15 444.021 L 1905.93 444.163 C 1905.96 447.253 1904.77 449.792 1904.33 445.749 L 1904.15 444.021 z" fill="rgb(111,98,57)" transform="translate(0,0)"></path>
<path d="M 774.928 631.933 C 774.335 635.755 773.98 663.38 764.551 655.029 C 764.27 654.78 768.063 622.858 770.472 621.034 C 770.908 620.704 776.497 620.431 777.432 620.98 C 779.431 624.461 784.335 638.548 785.741 642.242 C 786.561 639.884 787.371 637.258 788.66 633.966 C 791.732 626.122 791.402 615.737 802.588 622.518 C 802.506 622.469 806.497 654.436 806.384 654.666 C 797.216 660.782 797.925 645.299 797.925 640.512 L 793.698 638.869 C 792.945 641.578 789.221 653.627 786.952 655.649 C 785.414 657.019 781.68 654.93 782.018 652.775 C 779.968 645.74 777.461 638.758 774.928 631.933 z" fill="rgb(254,254,253)" transform="translate(0,0)"></path>
<path d="M 793.698 638.869 C 794.148 637.9 795.099 634.955 796.043 634.503 C 797.007 634.631 797.673 639.473 797.925 640.512 L 793.698 638.869 z" fill="rgb(57,56,58)" transform="translate(0,0)"></path>
<path d="M 1613.97 346.246 C 1620.5 349.377 1645.02 364.381 1651.33 368.492 C 1648.22 371.215 1645.22 373.636 1642.06 376.273 C 1639.46 378.56 1635.36 381.483 1632.51 383.52 C 1625.07 383.476 1622.7 383.372 1615.17 382.276 C 1614.37 370.282 1613.97 358.266 1613.97 346.246 z" fill="rgb(251,195,43)" transform="translate(0,0)"></path>
<path d="M 1320.91 620.323 C 1328.09 620.993 1328.89 620.809 1334.78 625.227 C 1340.65 629.631 1330.07 631.837 1329.54 631.238 C 1318.26 618.45 1304.77 635.035 1314.12 646.884 C 1317.88 651.643 1329.84 651.119 1330.62 644.189 C 1330.84 640.039 1322.42 649.126 1321.11 636.948 C 1332.64 636.994 1344.39 633.526 1336.24 649.077 C 1332.02 657.117 1316.23 658.551 1310.56 653.454 C 1296.18 640.524 1301.13 623.696 1320.91 620.323 z" fill="rgb(254,254,253)" transform="translate(0,0)"></path>
<path d="M 1719.22 343.498 C 1720.5 344.37 1726.18 350.507 1727.6 351.985 C 1722.91 362.576 1704.8 391.18 1698.17 401.508 L 1697.53 402.61 L 1696.12 402.45 C 1694.27 398.232 1693.65 390.594 1693.03 385.787 C 1699.05 379.487 1713.85 352.604 1719.22 343.498 z" fill="rgb(195,194,194)" transform="translate(0,0)"></path>
<path d="M 296.099 493.468 C 304 498.581 318.433 521.783 326.933 529.084 C 328.473 530.406 326.739 530.884 325.77 531.233 C 316.363 532.747 306.769 533.707 297.435 535.163 C 296.757 522.009 296.084 506.446 296.099 493.468 z" fill="rgb(251,195,43)" transform="translate(0,0)"></path>
<path d="M 1433.58 619.082 C 1434.61 619.116 1440.71 618.822 1440.67 620.089 C 1440.46 625.466 1442.72 654.76 1439.09 655.735 C 1437.53 656.144 1435.88 655.92 1434.5 655.113 C 1432.88 654.171 1428.39 656.465 1421.67 656.14 C 1415.2 650.643 1411.47 643.317 1418.03 635.492 C 1423.16 629.364 1428.68 633.33 1432.87 633.346 C 1433.91 632.186 1433.53 621.734 1433.58 619.082 z" fill="rgb(254,254,253)" transform="translate(0,0)"></path>
<path d="M 1425.34 638.589 C 1427.38 637.648 1429.76 637.873 1431.58 639.179 C 1433.41 640.485 1434.39 642.67 1434.15 644.9 C 1433.91 647.13 1432.49 649.06 1430.44 649.953 C 1427.31 651.312 1423.67 649.902 1422.27 646.789 C 1420.88 643.677 1422.25 640.021 1425.34 638.589 z" fill="rgb(41,42,45)" transform="translate(0,0)"></path>
<path d="M 222.447 621.526 C 225.974 624.662 227.702 633.87 228.928 638.62 C 226.584 644.7 224.551 648.649 221.619 654.375 C 213.358 657.342 205.958 660.058 197.497 662.709 C 196.379 662.991 192.685 664.534 192.128 663.296 C 193.012 661.526 200.769 652.422 202.823 649.493 C 209.346 640.188 215.362 630.366 222.447 621.526 z" fill="rgb(251,195,43)" transform="translate(0,0)"></path>
<path d="M 1908.12 662.806 C 1908.48 662.78 1908.84 662.759 1909.19 662.744 C 1916.16 662.479 1916.05 665.3 1921.07 669.13 C 1927.16 673.773 1932.75 678.747 1938.43 683.868 C 1931.25 690.178 1931.48 689.639 1922.1 689.369 C 1919.79 687.691 1913.8 682.223 1912.61 681.705 C 1904.76 678.281 1898.88 676.826 1890.82 672.898 C 1896.7 669.566 1902.34 666.347 1908.12 662.806 z" fill="rgb(195,194,194)" transform="translate(0,0)"></path>
<path d="M 1929.32 406.674 C 1931.61 409.452 1937.89 437.265 1939.24 442.695 C 1933.16 444.467 1927.57 445.972 1921.49 447.899 C 1915.75 450.281 1916.09 443.589 1913.9 438.082 C 1919.73 427.214 1923.81 417.427 1929.32 406.674 z" fill="rgb(251,195,43)" transform="translate(0,0)"></path>
<path d="M 930.087 631.953 C 935.011 632.511 937.158 633.994 942.02 632.94 C 943.265 632.67 945.793 632.472 946.858 633.374 C 948.169 634.484 947.589 650.571 947.391 653.02 C 947.349 653.534 947.046 655.22 946.545 655.433 C 944.24 656.411 940.728 655.387 938.469 654.641 C 921.777 660.412 912.919 642.338 930.087 631.953 z" fill="rgb(254,254,253)" transform="translate(0,0)"></path>
<path d="M 931.997 638.515 C 935.032 637.2 938.566 638.498 940.026 641.466 C 941.486 644.434 940.359 648.026 937.465 649.628 C 935.465 650.735 933.017 650.651 931.097 649.41 C 929.178 648.168 928.097 645.971 928.285 643.693 C 928.473 641.414 929.9 639.424 931.997 638.515 z" fill="rgb(41,42,45)" transform="translate(0,0)"></path>
<path d="M 631.856 632.796 C 636.51 632.728 638.879 632.095 642.019 635.155 C 642.919 636.033 644.127 632.82 645.911 633.028 C 646.125 632.577 650.859 632.877 650.726 633.673 C 649.733 639.586 655.433 656.451 646.598 655.469 C 640.805 653.029 641.404 656.937 636.519 656.259 C 621.79 654.217 622.459 640.843 631.856 632.796 z" fill="rgb(254,254,253)" transform="translate(0,0)"></path>
<path d="M 636.608 638.604 C 639.679 637.561 643.014 639.202 644.062 642.271 C 645.11 645.34 643.474 648.677 640.407 649.73 C 637.333 650.784 633.986 649.144 632.936 646.069 C 631.886 642.993 633.531 639.649 636.608 638.604 z" fill="rgb(41,42,45)" transform="translate(0,0)"></path>
<path d="M 1934.52 448.072 C 1934.91 448.071 1937.42 447.949 1936.89 449.113 C 1932.29 459.312 1926.14 468.809 1921.48 479.012 C 1920.98 480.103 1918.56 479.029 1917.62 479.433 C 1914.19 480.918 1915.13 485.045 1911.42 486.028 C 1910.08 485.589 1905.3 484.194 1904.41 483.387 C 1903.88 481.505 1916.41 457.118 1918.09 453.215 C 1923.44 451.093 1928.93 449.374 1934.52 448.072 z" fill="rgb(251,195,43)" transform="translate(0,0)"></path>
<path d="M 1390.84 632.148 C 1410.56 632.897 1411.87 650.131 1400.02 655.23 L 1396.97 656.565 C 1377.22 655.214 1374.22 639.093 1390.84 632.148 z" fill="rgb(254,254,253)" transform="translate(0,0)"></path>
<path d="M 1391.66 638.577 C 1394.7 637.393 1398.14 638.84 1399.42 641.847 C 1400.71 644.854 1399.37 648.335 1396.41 649.713 C 1394.4 650.645 1392.05 650.411 1390.27 649.103 C 1388.49 647.794 1387.56 645.619 1387.85 643.428 C 1388.14 641.237 1389.6 639.378 1391.66 638.577 z" fill="rgb(41,42,45)" transform="translate(0,0)"></path>
<path d="M 502.092 620.153 C 506.318 620.13 508.898 619.987 513.479 621.164 C 518.474 621.426 516.925 628.981 516.597 628.954 C 511.636 627.706 498.23 624.92 496.439 633.374 C 492.817 650.469 505.186 652.585 517.272 646.995 C 520.04 663.538 490.985 657.323 488.31 644.418 C 485.618 631.438 489.109 624.046 502.092 620.153 z" fill="rgb(254,254,253)" transform="translate(0,0)"></path>
<path d="M 1103.8 632.197 C 1104.41 632.226 1105.02 632.255 1105.63 632.284 C 1107.61 632.343 1109.58 632.598 1111.51 633.045 C 1122.02 635.477 1124.4 650.225 1109.87 656.243 C 1107.32 656.137 1103.85 656.283 1101.5 655.484 C 1098.29 654.417 1095.67 652.051 1094.29 648.963 C 1090.39 640.083 1096.13 635.156 1103.8 632.197 z" fill="rgb(254,254,253)" transform="translate(0,0)"></path>
<path d="M 1104.05 638.52 C 1106.11 637.674 1108.46 638.007 1110.21 639.39 C 1111.95 640.774 1112.8 642.992 1112.44 645.187 C 1112.09 647.383 1110.57 649.212 1108.47 649.968 C 1105.34 651.103 1101.86 649.522 1100.66 646.408 C 1099.46 643.294 1100.97 639.79 1104.05 638.52 z" fill="rgb(41,42,45)" transform="translate(0,0)"></path>
<path d="M 1063.22 620.78 C 1069.85 620.73 1076.91 620.472 1083.45 620.912 C 1084.78 621.319 1084.74 626.265 1083.85 626.981 C 1081.62 629.427 1067.69 624.42 1071.12 632.501 C 1073.82 638.854 1083.6 627.117 1083.58 641.013 C 1079.41 640.973 1075.24 640.966 1071.07 640.993 C 1071.07 641.643 1070.99 646.926 1071.09 648.078 C 1071.99 654.993 1070 657.382 1063.61 654.66 C 1062.95 654.378 1063.2 623.048 1063.22 620.78 z" fill="rgb(254,254,253)" transform="translate(0,0)"></path>
<path d="M 1356.84 632.13 C 1365.48 632.203 1370.68 633.017 1373.39 642.561 C 1374.75 647.33 1368.73 645.523 1366.43 645.951 C 1364.8 646.255 1354.74 644.472 1355.57 648.076 C 1358.3 653.226 1363.65 650.602 1366.74 649.026 C 1368.05 649.208 1369.47 649.333 1370.37 650.463 C 1370.7 650.874 1370.84 651.406 1370.76 651.927 C 1370 657.266 1352.08 659.043 1349.02 649.995 C 1345.66 640.069 1348.47 636.403 1356.84 632.13 z" fill="rgb(254,254,253)" transform="translate(0,0)"></path>
<path d="M 1357.35 636.907 C 1360.68 637.131 1366.31 636.874 1364.68 641.84 C 1359.27 641.478 1354.6 643.024 1357.35 636.907 z" fill="rgb(57,56,58)" transform="translate(0,0)"></path>
<path d="M 1459.95 632.037 C 1464.98 632.146 1470.86 631.905 1474.01 637.527 C 1482.14 652.041 1460.63 643.659 1458.62 646.261 C 1455.25 650.595 1462.81 653.193 1469.58 648.004 C 1471.95 649.461 1475.94 651.126 1471.67 653.632 C 1465.15 657.467 1455.11 657.56 1451.35 649.792 C 1449.79 646.562 1449.62 642.829 1450.9 639.476 C 1452.58 635.126 1456.06 633.677 1459.95 632.037 z" fill="rgb(254,254,253)" transform="translate(0,0)"></path>
<path d="M 1459.19 636.78 C 1462.9 637.02 1467.14 636.285 1466.71 641.221 C 1460.7 641.105 1456.8 643.192 1459.19 636.78 z" fill="rgb(57,56,58)" transform="translate(0,0)"></path>
<path d="M 872.633 633.009 C 879.085 632.331 885.621 631.381 889.563 637.674 C 898.932 652.63 875.501 641.608 873.884 647.471 C 875.966 651.315 878.859 651.423 882.558 650.27 C 883.437 649.992 884.319 649.722 885.202 649.458 C 888.199 648.995 891.548 651.324 889.392 652.792 C 873.718 663.47 856.308 647.429 872.633 633.009 z" fill="rgb(254,254,253)" transform="translate(0,0)"></path>
<path d="M 876.264 636.437 C 877.924 636.705 887.307 638.596 883.271 641.504 C 877.018 641.032 872.483 642.899 876.264 636.437 z" fill="rgb(57,56,58)" transform="translate(0,0)"></path>
<path d="M 1608.67 351.713 C 1611.34 354.245 1611 377.556 1611.08 382.513 C 1608.12 385.416 1600.46 394.341 1598.04 395.038 C 1597.03 394.195 1593.23 391.28 1593.42 390.66 C 1595.97 382.178 1605.65 358.484 1608.67 351.713 z" fill="rgb(251,195,43)" transform="translate(0,0)"></path>
<path d="M 848.006 631.856 C 853.392 632.812 858.547 634.743 857.783 641.493 C 856.636 646.451 861.709 659.049 851.596 655.66 C 846.462 653.939 857.107 639.323 844.148 637.601 C 840.81 644.517 842.388 646.587 841.813 654.041 C 841.775 656.297 834.312 656.548 834.587 654.522 C 835.015 651.368 831.922 632.406 836.974 632.782 C 846.45 633.489 838.758 636.946 848.006 631.856 z" fill="rgb(254,254,253)" transform="translate(0,0)"></path>
<path d="M 560.915 645.381 C 562.046 643.107 566.332 633.79 567.314 633.331 C 582.308 626.326 567.045 647.53 565.411 650.505 C 564.717 651.835 557.571 665.498 556.877 665.708 C 544.17 669.535 553.879 658.296 557.052 652.183 C 554.463 646.076 550.871 638.483 548.008 632.465 C 559.651 633.426 554.109 633.666 559.954 643.694 C 560.284 644.251 560.604 644.813 560.915 645.381 z" fill="rgb(254,254,253)" transform="translate(0,0)"></path>
<path d="M 1489.57 632.009 C 1493.17 632.074 1504.26 631.616 1499.67 637.359 C 1498.94 639.302 1490.46 636.068 1491.3 639.555 C 1491.89 641.978 1501 640.999 1501.86 646.476 C 1502.93 653.367 1498.06 655.192 1493.17 656.573 C 1491.4 656.325 1482.64 655.828 1483.32 653.016 C 1484.92 645.72 1488.22 651.936 1491.44 651.281 C 1503.4 648.849 1486.04 646.218 1484.77 643.1 C 1482.23 636.848 1485.12 634.81 1489.57 632.009 z" fill="rgb(254,254,253)" transform="translate(0,0)"></path>
<path d="M 979.62 633.171 C 982.999 632.821 994.92 630.585 991.76 637.511 C 990.387 640.518 983.239 635.267 982.395 639.224 C 982.014 641.008 991.255 641.991 992.424 645.002 C 994.845 651.239 991.74 654.18 986.545 656.737 C 983.46 656.35 968.347 655.922 976.582 649.938 C 978.476 648.562 985.204 653.31 986.385 649.792 C 985.196 644.834 965.509 644.906 979.62 633.171 z" fill="rgb(254,254,253)" transform="translate(0,0)"></path>
<path d="M 686.72 632.098 C 688.529 632.286 695.146 632.934 695.275 633.714 C 696.5 641.177 691.439 637.399 688.486 637.667 C 687.95 637.715 686.451 637.83 685.685 638.774 C 686.779 642.313 696.598 641.541 696.979 646.446 C 697.533 653.578 693.549 655.576 687.331 656.606 C 680.149 654.97 676.339 655.717 679.836 649.919 C 681.173 647.703 688.459 653.5 689.707 649.935 C 690.729 647.017 679.724 646.184 679.415 641.768 C 677.631 636.081 682.174 633.916 686.72 632.098 z" fill="rgb(254,254,253)" transform="translate(0,0)"></path>
<path d="M 586.798 631.95 C 589.917 632.003 593.022 631.857 596.01 632.953 C 596.774 633.234 597.667 633.704 597.918 634.548 C 598.116 635.218 597.946 635.874 597.593 636.453 C 595.832 639.347 592.482 636.74 589.977 637.27 C 589.495 637.372 588.328 637.797 588.146 638.315 C 587.554 640.004 597.17 642.882 598.654 646.015 C 599.28 647.338 599.362 648.79 598.796 650.133 C 597.132 654.082 594.488 654.926 590.882 656.447 C 588.725 656.092 581.246 654.973 580.692 653.574 C 579.481 650.516 583.94 648.638 586.505 650.798 C 587.245 651.422 592.149 650.994 591.795 649.536 C 591.103 646.683 583.984 645.847 582.483 643.164 C 578.34 637.935 582.184 634.914 586.798 631.95 z" fill="rgb(254,254,253)" transform="translate(0,0)"></path>
<path d="M 1222.72 632.021 C 1223.84 632.027 1238.31 630.891 1232.45 638.136 C 1231.41 639.408 1226.34 635.154 1223.84 638.34 C 1224.22 641.444 1246.39 645.471 1229.17 656.516 C 1225.41 656.324 1219.93 656.341 1216.74 654.124 C 1215.75 653.435 1217.36 650.909 1218.38 650.46 C 1220.12 649.618 1222.19 650.97 1224.01 651.22 C 1225.41 651.412 1228.34 651.622 1228.34 649.624 C 1225.65 645.453 1207.77 643.622 1222.72 632.021 z" fill="rgb(254,254,253)" transform="translate(0,0)"></path>
<path d="M 1161.65 632.099 C 1171.14 632.781 1177.13 636.231 1168.59 637.983 C 1167.94 638.116 1164.18 635.527 1161.67 638.292 C 1162.08 641.458 1165.44 640.964 1167.75 642.116 C 1178.05 647.273 1173.51 653.422 1165.03 656.353 C 1162.9 656.078 1151.34 655.354 1154.5 651.554 C 1157.75 647.661 1159.46 651.454 1165.96 650.749 L 1166.48 649.099 C 1163.42 645.881 1144 641.438 1161.65 632.099 z" fill="rgb(254,254,253)" transform="translate(0,0)"></path>
<path d="M 1134.8 632.023 C 1137.02 632.044 1145.01 631.575 1144.99 634.964 C 1144.99 635.893 1144.63 636.786 1143.98 637.447 C 1141.98 639.466 1137.75 635.757 1135.1 638.303 C 1134.73 641.471 1139.66 640.956 1141.86 642.351 C 1151.12 648.211 1145.52 653.486 1137.88 656.487 C 1135.68 656.077 1128.57 654.894 1128.25 653.76 C 1126.99 649.232 1130.7 648.401 1134.03 650.734 C 1134.77 651.256 1139.59 651.498 1139.17 649.436 C 1138.39 645.653 1131.2 646.375 1129.33 642.769 C 1125.94 637.657 1130.39 634.694 1134.8 632.023 z" fill="rgb(254,254,253)" transform="translate(0,0)"></path>
<path d="M 661.55 618.95 C 670.643 619.394 669.094 618.384 669.021 628.496 C 668.956 637.637 669.063 646.853 668.844 655.987 C 661.537 655.444 661.257 657.2 661.337 649.582 C 661.445 639.384 661.419 629.155 661.55 618.95 z" fill="rgb(254,254,253)" transform="translate(0,0)"></path>
<path d="M 958.125 618.923 C 959.933 619.052 963.803 618.656 965.24 619.847 C 966.115 620.573 965.404 651.79 965.438 655.904 C 958.731 655.427 957.996 656.917 958.054 649.888 C 958.14 639.58 957.889 629.236 958.125 618.923 z" fill="rgb(254,254,253)" transform="translate(0,0)"></path>
<path d="M 1200.02 618.97 C 1201.58 619.131 1206.78 619.301 1206.86 620.131 C 1207.62 627.828 1207.2 649.781 1207.13 656.197 C 1200.49 655.419 1199.71 657.035 1199.88 649.754 C 1200.1 639.539 1199.64 629.186 1200.02 618.97 z" fill="rgb(254,254,253)" transform="translate(0,0)"></path>
<path d="M 608.463 625.575 C 610.903 625.79 616.573 625.13 615.698 628.502 C 614.227 634.172 624.892 634.629 616.325 639.134 C 615.602 639.514 615.787 653.447 615.753 656.234 C 602.736 655.035 610.269 651.457 608.272 639.996 C 607.78 637.172 601.296 637.441 606.794 632.598 C 608.543 631.058 608.245 627.912 608.463 625.575 z" fill="rgb(254,254,253)" transform="translate(0,0)"></path>
<path d="M 540.493 631.66 C 543.096 633.464 545.023 636.125 543.537 639.814 C 543.146 640.786 539.461 639.422 538.028 639.921 C 531.202 642.303 535.727 650.201 533.757 654.946 C 533.213 656.142 529.282 656.578 527.815 656.904 C 526.778 653.15 526.525 638.13 527.574 633.536 C 527.684 633.054 528.452 632.923 528.847 632.856 C 534.645 631.871 533.317 634.98 534.66 635.905 C 535.651 635.841 539.24 632.616 540.493 631.66 z" fill="rgb(254,254,253)" transform="translate(0,0)"></path>
<path d="M 1921.74 408.943 C 1921.86 414.359 1913.91 429.269 1910.91 434.473 C 1909.89 436.248 1905.02 436.212 1902.46 437.136 L 1899.51 438.204 C 1898.74 430.643 1915.92 413.736 1921.74 408.943 z" fill="rgb(251,195,43)" transform="translate(0,0)"></path>
<path d="M 913.764 631.438 C 919.974 634.501 917.633 641.636 910.628 640.123 C 906.605 639.255 908.455 652.82 907.654 654.39 C 906.789 656.086 904.022 656.126 901.794 656.635 C 899.774 651.239 901.077 642.009 900.78 635.953 C 900.588 632.033 906.038 631.435 908.564 635.875 C 908.828 635.731 913.05 632.032 913.764 631.438 z" fill="rgb(254,254,253)" transform="translate(0,0)"></path>
<path d="M 1182.82 632.867 C 1192.08 633.344 1189.66 632.354 1189.93 642.145 C 1190.06 646.672 1189.91 651.34 1189.9 655.875 C 1188.63 655.82 1183.77 655.972 1183.48 655.114 C 1182.26 651.515 1182.83 636.506 1182.82 632.867 z" fill="rgb(254,254,253)" transform="translate(0,0)"></path>
<path d="M 1878.68 348.794 C 1884.23 351.215 1886.44 352.54 1891.62 355.513 C 1888.28 357.913 1883.91 361.064 1880.52 363.279 C 1877.42 365.483 1874.49 367.745 1871.41 369.962 C 1873.9 363.017 1876.65 355.858 1878.68 348.794 z" fill="rgb(251,195,43)" transform="translate(0,0)"></path>
<path d="M 822.593 631.833 C 825.203 634.707 823.855 650.447 823.662 654.729 C 823.633 655.387 820.181 656.446 819.428 656.712 C 814.866 652.444 817.388 640.264 817.266 634.156 C 817.25 633.371 821.874 632.084 822.593 631.833 z" fill="rgb(254,254,253)" transform="translate(0,0)"></path>
<path d="M 340.025 621.517 C 340.503 620.62 341.031 619.184 342.009 618.857 C 342.762 619.14 342.495 620.236 342.474 620.861 C 344.111 626.31 345.33 633.354 346.632 639.162 C 341.354 640.726 338.807 641.866 333.855 644.132 C 335.793 635.502 337.774 629.789 340.025 621.517 z" fill="rgb(251,195,43)" transform="translate(0,0)"></path>
<path d="M 336.721 615.836 C 337.845 616.935 337.855 618.205 336.845 619.425 C 332.482 624.698 335.668 635.079 327.324 632.426 C 321.617 627.017 321.662 628.417 327.963 622.968 C 330.854 620.469 333.649 618.136 336.721 615.836 z" fill="rgb(251,195,43)" transform="translate(0,0)"></path>
<path d="M 227.655 619.895 C 232.37 622.292 240.519 629.108 243.114 633.499 C 238.485 634.098 236.618 634.486 232.228 635.324 C 230.672 630.28 229 624.975 227.655 619.895 z" fill="rgb(251,195,43)" transform="translate(0,0)"></path>
<path d="M 727.266 637.545 C 728.969 636.545 731.081 636.548 732.781 637.553 C 734.481 638.558 735.503 640.406 735.448 642.38 C 735.394 644.354 734.273 646.144 732.52 647.054 C 729.906 648.411 726.686 647.438 725.261 644.859 C 723.836 642.281 724.726 639.036 727.266 637.545 z" fill="rgb(254,254,253)" transform="translate(0,0)"></path>
<path d="M 1024.15 637.589 C 1025.81 636.583 1027.89 636.559 1029.58 637.524 C 1031.27 638.49 1032.31 640.294 1032.29 642.24 C 1032.27 644.186 1031.19 645.968 1029.48 646.897 C 1026.92 648.29 1023.72 647.381 1022.27 644.851 C 1020.82 642.321 1021.65 639.096 1024.15 637.589 z" fill="rgb(254,254,253)" transform="translate(0,0)"></path>
<path d="M 1265.33 637.495 C 1267.69 635.87 1270.92 636.435 1272.59 638.766 C 1274.26 641.098 1273.76 644.338 1271.47 646.056 C 1269.94 647.198 1267.91 647.426 1266.17 646.651 C 1264.43 645.876 1263.24 644.219 1263.06 642.32 C 1262.89 640.421 1263.75 638.575 1265.33 637.495 z" fill="rgb(254,254,253)" transform="translate(0,0)"></path>
<path d="M 1647.97 376.872 C 1650.24 378.948 1647.96 392.944 1645.77 392.147 C 1639.26 382.113 1639.12 383.736 1647.97 376.872 z" fill="rgb(251,195,43)" transform="translate(0,0)"></path>
<path d="M 1609.59 389.693 C 1610.11 391.923 1612.07 404.971 1609.49 405.384 C 1608.92 405.146 1608.89 404.924 1608.4 404.312 C 1601.13 396.277 1601.62 397.751 1609.59 389.693 z" fill="rgb(251,195,43)" transform="translate(0,0)"></path>
<path d="M 1183.48 622.475 C 1184.57 621.343 1186.23 620.981 1187.68 621.56 C 1189.14 622.138 1190.1 623.541 1190.11 625.107 C 1190.12 626.673 1189.17 628.088 1187.73 628.685 C 1186.05 629.377 1184.11 628.799 1183.09 627.3 C 1182.06 625.8 1182.23 623.788 1183.48 622.475 z" fill="rgb(254,254,253)" transform="translate(0,0)"></path>
<path d="M 817.744 622.438 C 818.852 621.467 820.424 621.23 821.769 621.831 C 823.114 622.431 823.987 623.76 824.004 625.233 C 824.021 626.706 823.18 628.054 821.849 628.686 C 820.148 629.494 818.111 628.924 817.076 627.349 C 816.042 625.775 816.327 623.679 817.744 622.438 z" fill="rgb(254,254,253)" transform="translate(0,0)"></path>
<path d="M 294.534 550.155 C 294.862 549.009 297.551 534.032 301.55 539.153 C 301.764 540.802 297.353 547.477 296.272 551.165 L 294.534 550.155 z" fill="rgb(251,195,43)" transform="translate(0,0)"></path>
<path d="M 1636.78 242.427 C 1642.64 245.838 1642.46 246.156 1639.65 251.379 C 1633.98 249.273 1634.84 246.912 1636.78 242.427 z" fill="rgb(254,254,253)" transform="translate(0,0)"></path>
<path d="M 1892.35 622.138 C 1895.26 618.225 1897.31 615.22 1900.77 611.668 L 1902.08 613.651 C 1898.69 617.013 1896.01 619.16 1892.35 622.138 z" fill="rgb(200,154,40)" transform="translate(0,0)"></path>
<path d="M 1651.26 650.443 C 1652.59 651.099 1657.27 653.434 1657.72 654.69 C 1657.05 656.154 1653.63 653.835 1652.68 653.299 L 1651.26 650.443 z" fill="rgb(111,98,57)" transform="translate(0,0)"></path>
<path d="M 296.272 551.165 C 295.792 552.083 294.754 554.89 293.67 555.241 L 293.557 555.111 C 293.33 553.955 294.237 551.389 294.534 550.155 L 296.272 551.165 z" fill="rgb(137,108,32)" transform="translate(0,0)"></path>
<metadata><recraft-signature>{"signed_by": "recraft", "signature_b64": "CYGcf16ncD3a8wmxCC11cGjm9TiC6j0Y5oCW1obCPEKvsj5vVYT9MDHwKi9CKxYzT/k5c/YKQkTpSv6Iuc++CQ==", "signing_algo": "Ed25519", "generation_timestamp": 1780248322, "identifier": "7b5d96e3-67f1-439c-842f-be7859fec302"}</recraft-signature></metadata></svg>