<svg xmlns="http://www.w3.org/2000/svg" height="768" preserveAspectRatio="none" style="display: block;" version="1.1" viewBox="0 0 2048 1024" width="1536">
<defs>
	<linearGradient gradientUnits="userSpaceOnUse" id="Gradient1" x1="180.712" x2="144.582" y1="691.556" y2="723.775">
		<stop class="stop0" offset="0" stop-color="rgb(102,102,102)" stop-opacity="1"></stop>
		<stop class="stop1" offset="1" stop-color="rgb(136,135,135)" stop-opacity="1"></stop>
	</linearGradient>
	<linearGradient gradientUnits="userSpaceOnUse" id="Gradient2" x1="79.3052" x2="30.1222" y1="644.625" y2="679.776">
		<stop class="stop0" offset="0" stop-color="rgb(5,5,5)" stop-opacity="1"></stop>
		<stop class="stop1" offset="1" stop-color="rgb(60,59,60)" stop-opacity="1"></stop>
	</linearGradient>
	<linearGradient gradientUnits="userSpaceOnUse" id="Gradient3" x1="1936.88" x2="2013.01" y1="362.515" y2="457.61">
		<stop class="stop0" offset="0" stop-color="rgb(49,49,49)" stop-opacity="1"></stop>
		<stop class="stop1" offset="1" stop-color="rgb(198,197,197)" stop-opacity="1"></stop>
	</linearGradient>
	<linearGradient gradientUnits="userSpaceOnUse" id="Gradient4" x1="1904.46" x2="1905" y1="452.92" y2="636.073">
		<stop class="stop0" offset="0" stop-color="rgb(31,31,31)" stop-opacity="1"></stop>
		<stop class="stop1" offset="1" stop-color="rgb(203,203,202)" stop-opacity="1"></stop>
	</linearGradient>
	<linearGradient gradientUnits="userSpaceOnUse" id="Gradient5" x1="2027.86" x2="2021.24" y1="555.22" y2="591.247">
		<stop class="stop0" offset="0" stop-color="rgb(28,28,28)" stop-opacity="1"></stop>
		<stop class="stop1" offset="1" stop-color="rgb(61,60,60)" stop-opacity="1"></stop>
	</linearGradient>
	<linearGradient gradientUnits="userSpaceOnUse" id="Gradient6" x1="2041.55" x2="2038.73" y1="561.774" y2="592.345">
		<stop class="stop0" offset="0" stop-color="rgb(35,34,35)" stop-opacity="1"></stop>
		<stop class="stop1" offset="1" stop-color="rgb(77,77,77)" stop-opacity="1"></stop>
	</linearGradient>
	<linearGradient gradientUnits="userSpaceOnUse" id="Gradient7" x1="2023.39" x2="2034.7" y1="438.318" y2="505.219">
		<stop class="stop0" offset="0" stop-color="rgb(19,19,19)" stop-opacity="1"></stop>
		<stop class="stop1" offset="1" stop-color="rgb(52,52,52)" stop-opacity="1"></stop>
	</linearGradient>
	<linearGradient gradientUnits="userSpaceOnUse" id="Gradient8" x1="2033.29" x2="2029.1" y1="610.863" y2="693.612">
		<stop class="stop0" offset="0" stop-color="rgb(70,70,70)" stop-opacity="1"></stop>
		<stop class="stop1" offset="1" stop-color="rgb(120,120,120)" stop-opacity="1"></stop>
	</linearGradient>
	<linearGradient gradientUnits="userSpaceOnUse" id="Gradient9" x1="1969.46" x2="2037.2" y1="636.6" y2="684.705">
		<stop class="stop0" offset="0" stop-color="rgb(108,107,107)" stop-opacity="1"></stop>
		<stop class="stop1" offset="1" stop-color="rgb(215,214,214)" stop-opacity="1"></stop>
	</linearGradient>
	<linearGradient gradientUnits="userSpaceOnUse" id="Gradient10" x1="1939.11" x2="1951.5" y1="689.618" y2="691.015">
		<stop class="stop0" offset="0" stop-color="rgb(84,83,83)" stop-opacity="1"></stop>
		<stop class="stop1" offset="1" stop-color="rgb(112,112,112)" stop-opacity="1"></stop>
	</linearGradient>
	<linearGradient gradientUnits="userSpaceOnUse" id="Gradient11" x1="1960.9" x2="1962.09" y1="640.934" y2="657.213">
		<stop class="stop0" offset="0" stop-color="rgb(25,24,25)" stop-opacity="1"></stop>
		<stop class="stop1" offset="1" stop-color="rgb(55,55,55)" stop-opacity="1"></stop>
	</linearGradient>
	<linearGradient gradientUnits="userSpaceOnUse" id="Gradient12" x1="1983.15" x2="1958.19" y1="680.356" y2="718.166">
		<stop class="stop0" offset="0" stop-color="rgb(50,50,50)" stop-opacity="1"></stop>
		<stop class="stop1" offset="1" stop-color="rgb(112,111,112)" stop-opacity="1"></stop>
	</linearGradient>
	<linearGradient gradientUnits="userSpaceOnUse" id="Gradient13" x1="1882.83" x2="1895.99" y1="654.911" y2="655.281">
		<stop class="stop0" offset="0" stop-color="rgb(30,30,30)" stop-opacity="1"></stop>
		<stop class="stop1" offset="1" stop-color="rgb(60,59,59)" stop-opacity="1"></stop>
	</linearGradient>
	<linearGradient gradientUnits="userSpaceOnUse" id="Gradient14" x1="1894.83" x2="1885.79" y1="712.784" y2="728.166">
		<stop class="stop0" offset="0" stop-color="rgb(171,172,171)" stop-opacity="1"></stop>
		<stop class="stop1" offset="1" stop-color="rgb(202,201,203)" stop-opacity="1"></stop>
	</linearGradient>
	<linearGradient gradientUnits="userSpaceOnUse" id="Gradient15" x1="1890.28" x2="1894.03" y1="697.204" y2="710.411">
		<stop class="stop0" offset="0" stop-color="rgb(121,121,121)" stop-opacity="1"></stop>
		<stop class="stop1" offset="1" stop-color="rgb(147,146,146)" stop-opacity="1"></stop>
	</linearGradient>
	<linearGradient gradientUnits="userSpaceOnUse" id="Gradient16" x1="1910.77" x2="1918.72" y1="615.05" y2="642.64">
		<stop class="stop0" offset="0" stop-color="rgb(41,40,40)" stop-opacity="1"></stop>
		<stop class="stop1" offset="1" stop-color="rgb(75,75,75)" stop-opacity="1"></stop>
	</linearGradient>
	<linearGradient gradientUnits="userSpaceOnUse" id="Gradient17" x1="1899.79" x2="1951" y1="713.263" y2="678.852">
		<stop class="stop0" offset="0" stop-color="rgb(0,0,0)" stop-opacity="1"></stop>
		<stop class="stop1" offset="1" stop-color="rgb(229,229,229)" stop-opacity="1"></stop>
	</linearGradient>
	<linearGradient gradientUnits="userSpaceOnUse" id="Gradient18" x1="1965.38" x2="1995" y1="454.235" y2="667.191">
		<stop class="stop0" offset="0" stop-color="rgb(8,8,8)" stop-opacity="1"></stop>
		<stop class="stop1" offset="1" stop-color="rgb(194,193,193)" stop-opacity="1"></stop>
	</linearGradient>
</defs>
<path d="M 0 0 L 2048 0 L 2048 298.216 L 2048 430.588 L 2048 497.698 L 2048 552.172 L 2048 567.443 L 2048 610.485 L 2048 636.606 L 2048 680.535 L 2048 723.632 L 2048 724.798 L 2048 1024 L 0 1024 L 0 717.718 L 0 706 L 0 702.067 L 0 692.662 L 0 690.668 L 0 442.282 L 0 434.87 L 0 416.188 L 0 298.217 L 0 0 z" fill="rgb(0,0,0)" transform="translate(0,0)"></path>
<path d="M 130.49 710.63 C 137.321 701.758 144.02 695.098 152.638 687.942 L 154.116 688.906 C 142.999 700.69 130.858 713.689 119.286 724.868 C 123.905 724.919 136.215 725.306 140.152 724.731 C 144.071 725.234 150.028 726.064 153.201 723.642 C 157.669 726.235 445.227 725.297 474.754 725.292 L 1404.4 725.304 L 1714.94 725.301 L 1819.1 725.254 C 1835.26 725.237 1851.52 725.269 1867.69 725.261 C 1871.39 725.259 1872.77 725.397 1874.79 723.187 C 1876.68 726.227 1902.6 724.961 1908.02 725.107 C 1921.44 725.125 1934.87 725.039 1948.29 724.85 L 1958.07 724.959 L 1986.42 724.987 L 2010.79 724.961 C 2023.19 725.07 2035.6 725.016 2048 724.798 L 2048 1024 L 0 1024 L 0 717.718 C 2.00905 718.68 3.66093 719.33 5.62997 720.439 C 5.30971 723.395 4.95088 722.554 6.31878 724.531 C 42.1705 725.536 80.1163 725.176 116.044 724.224 C 116.436 724.214 127.933 713.414 129.58 711.988 C 129.964 711.202 129.911 711.135 130.49 710.63 z" fill="rgb(18,18,18)" transform="translate(0,0)"></path>
<path d="M 130.49 710.63 C 130.827 711.057 131.063 711.181 131.083 711.615 C 130.611 711.832 130.132 711.905 129.58 711.988 C 129.964 711.202 129.911 711.135 130.49 710.63 z" fill="rgb(18,18,18)" transform="translate(0,0)"></path>
<path d="M 0 0 L 2048 0 L 2048 298.216 L 0 298.217 L 0 0 z" fill="rgb(18,18,18)" transform="translate(0,0)"></path>
<path d="M 2047.24 431.049 L 2048 430.588 L 2048 497.698 L 2048 552.172 L 2048 567.443 L 2048 610.485 L 2048 636.606 L 2048 680.535 L 2048 723.632 L 2048 724.798 C 2035.6 725.016 2023.19 725.07 2010.79 724.961 L 1986.42 724.987 L 1958.07 724.959 L 1948.29 724.85 C 1934.87 725.039 1921.44 725.125 1908.02 725.107 C 1902.6 724.961 1876.68 726.227 1874.79 723.187 C 1873.19 719.248 1871.97 715.36 1870.32 711.443 C 1869.03 708.347 1867.96 705.037 1866.61 702.065 L 1858.46 680.817 C 1856.89 678.04 1855.9 675.201 1854.86 672.187 C 1856.92 669.133 1857.14 668.562 1859.59 665.665 C 1864.76 658.035 1874.82 641.891 1880.2 635.132 C 1885.36 630.681 1889.19 624.479 1893.73 619.167 C 1894.82 617.608 1895.93 616.067 1897.07 614.544 C 1898.92 612.039 1900.21 609.83 1902.98 612.305 C 1911.96 619.733 1922.1 629.887 1930.7 638.097 C 1931.61 630.208 1931.16 607.111 1931.21 598.103 L 1931.3 587.691 C 1933.34 556.901 1932.78 513.337 1933.26 481.63 L 1933.48 482.472 C 1934.11 484.89 1934.55 485.985 1933.77 488.425 L 1934.77 489.927 C 1950.39 487.384 2001.03 489.69 2008.04 486.881 C 2006.65 477.199 2002.68 457.591 2002.69 449.004 L 2003.81 448.808 C 2011.97 443.728 2040.63 437.119 2047.24 431.049 z" fill="url(#Gradient18)" transform="translate(0,0)"></path>
<path d="M 1893.73 619.167 C 1894.82 617.608 1895.93 616.067 1897.07 614.544 C 1898.92 612.039 1900.21 609.83 1902.98 612.305 C 1911.96 619.733 1922.1 629.887 1930.7 638.097 L 1933.24 640.526 C 1936.15 643.382 1935.57 642.108 1936.4 645.514 C 1932.63 654.667 1915.57 663.438 1922.18 673.966 C 1928.67 668.575 1932.45 660.944 1941.25 661.967 L 1943.47 657.426 C 1945.31 657.941 1945.59 658.297 1947.23 659.315 C 1958.89 655.213 1955.42 645.727 1957.42 643.829 L 1958.44 641.327 C 1959.6 641.483 1960.65 641.556 1961.68 642.102 L 1962.11 639.649 C 1967.83 646.103 1978.67 658.909 1981.78 666.557 L 1983.14 670.509 C 1983.74 675.641 1985.18 683.336 1986.47 688.395 C 1985.23 692.478 1985.55 693.18 1982.65 695.474 L 1980.38 695.279 L 1979.4 694.029 C 1981.39 704.425 1983.73 714.75 1986.42 724.987 L 1958.07 724.959 L 1948.29 724.85 C 1934.87 725.039 1921.44 725.125 1908.02 725.107 C 1902.6 724.961 1876.68 726.227 1874.79 723.187 C 1873.19 719.248 1871.97 715.36 1870.32 711.443 C 1869.03 708.347 1867.96 705.037 1866.61 702.065 L 1858.46 680.817 C 1856.89 678.04 1855.9 675.201 1854.86 672.187 C 1856.92 669.133 1857.14 668.562 1859.59 665.665 C 1864.76 658.035 1874.82 641.891 1880.2 635.132 C 1885.36 630.681 1889.19 624.479 1893.73 619.167 z" fill="url(#Gradient17)" transform="translate(0,0)"></path>
<path d="M 1893.73 619.167 C 1894.82 617.608 1895.93 616.067 1897.07 614.544 C 1898.92 612.039 1900.21 609.83 1902.98 612.305 C 1911.96 619.733 1922.1 629.887 1930.7 638.097 L 1933.24 640.526 C 1936.15 643.382 1935.57 642.108 1936.4 645.514 C 1932.63 654.667 1915.57 663.438 1922.18 673.966 C 1926.26 682.251 1932.04 692.762 1935.69 700.834 C 1923.06 692.622 1927.1 686.502 1919.96 674.538 C 1917.77 670.872 1919.68 668.805 1917.89 665.756 C 1912.77 666.322 1906.84 675.956 1899.85 675.426 L 1899.31 672.271 C 1891.23 682.653 1893.96 684.907 1898.65 696.5 C 1899.21 699.02 1900.66 702.739 1901.47 705.708 C 1903.69 711.319 1906.17 719.258 1908.02 725.107 C 1902.6 724.961 1876.68 726.227 1874.79 723.187 C 1873.19 719.248 1871.97 715.36 1870.32 711.443 C 1869.03 708.347 1867.96 705.037 1866.61 702.065 L 1858.46 680.817 C 1856.89 678.04 1855.9 675.201 1854.86 672.187 C 1856.92 669.133 1857.14 668.562 1859.59 665.665 C 1864.76 658.035 1874.82 641.891 1880.2 635.132 C 1885.36 630.681 1889.19 624.479 1893.73 619.167 z" fill="rgb(96,96,97)" transform="translate(0,0)"></path>
<path d="M 1893.73 619.167 C 1894.82 617.608 1895.93 616.067 1897.07 614.544 C 1898.92 612.039 1900.21 609.83 1902.98 612.305 C 1911.96 619.733 1922.1 629.887 1930.7 638.097 L 1933.24 640.526 C 1923.96 644.6 1921.98 651.295 1917.38 658.391 C 1915.01 650.319 1912.36 642.571 1909.69 634.598 C 1908.56 631.237 1907.96 626.487 1906.55 623.51 L 1906.43 624.458 C 1905.35 632.504 1893.21 640.536 1886.29 647.65 C 1884.11 647.49 1882.98 647.198 1880.68 647.176 C 1882.22 650.545 1882.3 652.025 1883.53 655.43 C 1879.63 656.816 1863.02 664.883 1861.92 667.813 C 1860.38 666.981 1860.46 667.093 1859.59 665.665 C 1864.76 658.035 1874.82 641.891 1880.2 635.132 C 1885.36 630.681 1889.19 624.479 1893.73 619.167 z" fill="url(#Gradient16)" transform="translate(0,0)"></path>
<path d="M 1893.73 619.167 C 1894.82 617.608 1895.93 616.067 1897.07 614.544 C 1898.92 612.039 1900.21 609.83 1902.98 612.305 C 1902.58 615.322 1903.86 620.006 1902.14 621.28 C 1900.19 622.731 1899.65 621.288 1897.86 625.221 C 1894.46 635.009 1892.66 632.133 1887.34 639.883 C 1885.81 643.282 1884.27 645.695 1880.66 645.189 C 1880.53 646.251 1880.53 646.124 1880.68 647.176 C 1882.22 650.545 1882.3 652.025 1883.53 655.43 C 1879.63 656.816 1863.02 664.883 1861.92 667.813 C 1860.38 666.981 1860.46 667.093 1859.59 665.665 C 1864.76 658.035 1874.82 641.891 1880.2 635.132 C 1885.36 630.681 1889.19 624.479 1893.73 619.167 z" fill="rgb(70,70,70)" transform="translate(0,0)"></path>
<path d="M 1893.73 619.167 C 1894.82 617.608 1895.93 616.067 1897.07 614.544 C 1898.92 612.039 1900.21 609.83 1902.98 612.305 C 1902.58 615.322 1903.86 620.006 1902.14 621.28 C 1900.19 622.731 1899.65 621.288 1897.86 625.221 C 1896.01 627.787 1892.62 633.442 1889.75 633.736 C 1887.74 628.595 1893.35 626.301 1893.73 619.167 z" fill="rgb(18,18,18)" transform="translate(0,0)"></path>
<path d="M 1880.66 645.189 C 1882.96 639.671 1882.54 637.573 1887.34 639.883 C 1885.81 643.282 1884.27 645.695 1880.66 645.189 z" fill="rgb(50,50,50)" transform="translate(0,0)"></path>
<path d="M 1866.61 702.065 C 1868.98 695.112 1874.21 696.214 1880.45 694.109 C 1881 691.741 1876.31 692.832 1875.13 690.533 C 1875.69 687.573 1895.61 695.688 1898.65 696.5 C 1899.21 699.02 1900.66 702.739 1901.47 705.708 C 1903.69 711.319 1906.17 719.258 1908.02 725.107 C 1902.6 724.961 1876.68 726.227 1874.79 723.187 C 1873.19 719.248 1871.97 715.36 1870.32 711.443 C 1869.03 708.347 1867.96 705.037 1866.61 702.065 z" fill="url(#Gradient15)" transform="translate(0,0)"></path>
<path d="M 1870.32 711.443 C 1879.14 705.596 1884.13 713.117 1893.02 714.728 C 1893.77 714.864 1901.06 715.874 1901.51 715.561 C 1901.9 714.519 1901.17 708.651 1901.47 705.708 C 1903.69 711.319 1906.17 719.258 1908.02 725.107 C 1902.6 724.961 1876.68 726.227 1874.79 723.187 C 1873.19 719.248 1871.97 715.36 1870.32 711.443 z" fill="url(#Gradient14)" transform="translate(0,0)"></path>
<path d="M 1861.92 667.813 C 1863.02 664.883 1879.63 656.816 1883.53 655.43 C 1884.22 659.447 1885.88 662.493 1887.34 666.348 C 1888.8 670.52 1891.8 677.354 1893.58 681.581 C 1889.18 679.236 1885.13 676.969 1880.28 675.484 C 1874.32 673.121 1867.7 669.82 1861.92 667.813 z" fill="rgb(209,208,208)" transform="translate(0,0)"></path>
<path d="M 1859.59 665.665 C 1860.46 667.093 1860.38 666.981 1861.92 667.813 C 1867.7 669.82 1874.32 673.121 1880.28 675.484 C 1873.83 680.303 1870.49 676.282 1862.37 677.604 C 1861.35 678.649 1862 678.903 1861.02 679.964 C 1859.37 680.363 1860.22 678.72 1858.46 680.817 C 1856.89 678.04 1855.9 675.201 1854.86 672.187 C 1856.92 669.133 1857.14 668.562 1859.59 665.665 z" fill="rgb(50,50,50)" transform="translate(0,0)"></path>
<path d="M 1880.68 647.176 C 1882.98 647.198 1884.11 647.49 1886.29 647.65 C 1890.28 649.335 1906.41 655.085 1895.59 659.117 C 1894.72 658.618 1895.12 657.803 1893.72 657.143 C 1892.48 657.509 1888.81 664.525 1887.34 666.348 C 1885.88 662.493 1884.22 659.447 1883.53 655.43 C 1882.3 652.025 1882.22 650.545 1880.68 647.176 z" fill="url(#Gradient13)" transform="translate(0,0)"></path>
<path d="M 1962.11 639.649 C 1967.83 646.103 1978.67 658.909 1981.78 666.557 L 1983.14 670.509 C 1983.74 675.641 1985.18 683.336 1986.47 688.395 C 1985.23 692.478 1985.55 693.18 1982.65 695.474 L 1980.38 695.279 L 1979.4 694.029 C 1981.39 704.425 1983.73 714.75 1986.42 724.987 L 1958.07 724.959 L 1958.07 724.307 L 1956.47 723.003 C 1954.53 718.029 1955.67 677.521 1955.78 669.43 C 1952.71 666.27 1949.35 663.151 1947.23 659.315 C 1958.89 655.213 1955.42 645.727 1957.42 643.829 L 1958.44 641.327 C 1959.6 641.483 1960.65 641.556 1961.68 642.102 L 1962.11 639.649 z" fill="url(#Gradient12)" transform="translate(0,0)"></path>
<path d="M 1962.11 639.649 C 1967.83 646.103 1978.67 658.909 1981.78 666.557 L 1983.14 670.509 C 1983.74 675.641 1985.18 683.336 1986.47 688.395 C 1985.23 692.478 1985.55 693.18 1982.65 695.474 L 1980.38 695.279 L 1979.4 694.029 C 1975.09 674.93 1979.73 670.816 1958.14 671.501 L 1958.23 710.854 C 1958.3 716.058 1958.67 719.102 1958.07 724.307 L 1956.47 723.003 C 1954.53 718.029 1955.67 677.521 1955.78 669.43 C 1952.71 666.27 1949.35 663.151 1947.23 659.315 C 1958.89 655.213 1955.42 645.727 1957.42 643.829 L 1958.44 641.327 C 1959.6 641.483 1960.65 641.556 1961.68 642.102 L 1962.11 639.649 z" fill="rgb(154,153,153)" transform="translate(0,0)"></path>
<path d="M 1962.11 639.649 C 1967.83 646.103 1978.67 658.909 1981.78 666.557 C 1980.11 666.61 1974.76 666.63 1973.53 666.078 C 1968.33 663.741 1963.59 665.133 1958.68 664.335 C 1957.64 663.292 1957.32 660.562 1956.96 659.1 C 1957.76 653.933 1957.6 649.055 1957.42 643.829 L 1958.44 641.327 C 1959.6 641.483 1960.65 641.556 1961.68 642.102 L 1962.11 639.649 z" fill="rgb(70,70,70)" transform="translate(0,0)"></path>
<path d="M 1958.44 641.327 C 1959.6 641.483 1960.65 641.556 1961.68 642.102 C 1963.9 647.411 1966.66 655.486 1968.42 660.955 C 1964.06 660.094 1961.44 659.609 1956.96 659.1 C 1957.76 653.933 1957.6 649.055 1957.42 643.829 L 1958.44 641.327 z" fill="url(#Gradient11)" transform="translate(0,0)"></path>
<path d="M 1958.23 710.854 C 1959.92 713.657 1964.19 720.359 1964.58 723.435 C 1962.42 723.77 1960.25 724.061 1958.07 724.307 C 1958.67 719.102 1958.3 716.058 1958.23 710.854 z" fill="rgb(124,123,124)" transform="translate(0,0)"></path>
<path d="M 1943.47 657.426 C 1945.31 657.941 1945.59 658.297 1947.23 659.315 C 1949.35 663.151 1952.71 666.27 1955.78 669.43 C 1955.67 677.521 1954.53 718.029 1956.47 723.003 L 1958.07 724.307 L 1958.07 724.959 L 1948.29 724.85 C 1945.48 724.643 1943.34 724.677 1940.75 723.474 C 1936.99 719.159 1940.28 712.205 1937.67 705.269 C 1939 699.512 1940.64 669.845 1941.25 661.967 L 1943.47 657.426 z" fill="url(#Gradient10)" transform="translate(0,0)"></path>
<path d="M 1999.65 594.936 C 2000.56 588.561 2000.15 590.62 2004.76 586.581 C 2006.76 588.84 2006.8 589.414 2008.35 591.741 C 2011.2 593.446 2011.99 593.851 2015.25 594.717 C 2014.35 595.671 2013.37 595.602 2012.84 596.425 C 2013.33 597.424 2013.12 597.041 2014.16 597.905 C 2018.63 601.297 2023.31 605.824 2028.1 609.518 L 2028.75 609.775 C 2035.1 610.185 2041.58 610.13 2048 610.485 L 2048 636.606 L 2048 680.535 L 2048 723.632 L 2048 724.798 C 2035.6 725.016 2023.19 725.07 2010.79 724.961 L 1986.42 724.987 C 1983.73 714.75 1981.39 704.425 1979.4 694.029 L 1980.38 695.279 L 1982.65 695.474 C 1985.55 693.18 1985.23 692.478 1986.47 688.395 C 1985.18 683.336 1983.74 675.641 1983.14 670.509 C 1983.22 669.552 1983.17 664.034 1983.73 663.816 C 1987.58 662.33 1988.73 659.292 1990.41 663.808 C 1992.66 656.1 1998.32 605.304 1999.14 595.123 L 1999.65 594.936 z" fill="url(#Gradient9)" transform="translate(0,0)"></path>
<path d="M 2028.75 609.775 C 2035.1 610.185 2041.58 610.13 2048 610.485 L 2048 636.606 L 2048 680.535 L 2048 723.632 L 2048 724.798 C 2035.6 725.016 2023.19 725.07 2010.79 724.961 C 2012.07 717.886 2013.51 699.913 2015.53 694.329 C 2016.49 682.223 2019.51 665.857 2021.06 653.094 C 2023.18 645.234 2025.37 613.976 2028.75 609.775 z" fill="url(#Gradient8)" transform="translate(0,0)"></path>
<path d="M 2033.38 693.1 C 2038.43 674.221 2042.36 655.471 2048 636.606 L 2048 680.535 L 2048 723.632 L 2048 724.798 C 2035.6 725.016 2023.19 725.07 2010.79 724.961 C 2012.07 717.886 2013.51 699.913 2015.53 694.329 C 2018.54 694.4 2032.09 692.657 2033.38 693.1 z" fill="rgb(154,153,153)" transform="translate(0,0)"></path>
<path d="M 2015.53 694.329 C 2018.54 694.4 2032.09 692.657 2033.38 693.1 C 2032.72 696.158 2032.02 698.984 2031.42 702.077 C 2029.7 706.022 2026.66 719.048 2025.09 724.302 C 2029.26 724.181 2033.43 724.017 2037.6 723.812 C 2041.07 723.709 2044.53 723.649 2048 723.632 L 2048 724.798 C 2035.6 725.016 2023.19 725.07 2010.79 724.961 C 2012.07 717.886 2013.51 699.913 2015.53 694.329 z" fill="rgb(124,123,124)" transform="translate(0,0)"></path>
<path d="M 2037.6 723.812 C 2041.3 710.35 2043.47 693.109 2048 680.535 L 2048 723.632 C 2044.53 723.649 2041.07 723.709 2037.6 723.812 z" fill="rgb(124,123,124)" transform="translate(0,0)"></path>
<path d="M 2033.38 693.1 C 2034.72 697.243 2037.11 700.977 2031.42 702.077 C 2032.02 698.984 2032.72 696.158 2033.38 693.1 z" fill="rgb(154,153,153)" transform="translate(0,0)"></path>
<path d="M 1983.14 670.509 C 1983.22 669.552 1983.17 664.034 1983.73 663.816 C 1987.58 662.33 1988.73 659.292 1990.41 663.808 C 1989.98 667.624 1989.75 669.198 1989.9 673.021 C 1988.76 678.063 1988.9 683.915 1986.47 688.395 C 1985.18 683.336 1983.74 675.641 1983.14 670.509 z" fill="rgb(186,185,186)" transform="translate(0,0)"></path>
<path d="M 1999.65 594.936 C 2000.56 588.561 2000.15 590.62 2004.76 586.581 C 2006.76 588.84 2006.8 589.414 2008.35 591.741 C 2008.76 593.5 2009.39 593.907 2010.16 595.445 C 2009.19 596.83 2001.49 595.174 1999.65 594.936 z" fill="rgb(70,70,70)" transform="translate(0,0)"></path>
<path d="M 2047.24 431.049 L 2048 430.588 L 2048 497.698 C 2046.83 499.514 2043.94 504.042 2042.2 504.314 C 2036.34 505.232 2022.39 506.141 2016.99 507.364 C 2013.95 510.37 2015.76 509.727 2014.47 515.198 C 2011.74 500.207 2008.43 461.017 2003.81 448.808 C 2011.97 443.728 2040.63 437.119 2047.24 431.049 z" fill="url(#Gradient7)" transform="translate(0,0)"></path>
<path d="M 2048 552.172 L 2048 567.443 L 2048 610.485 C 2041.58 610.13 2035.1 610.185 2028.75 609.775 L 2028.1 609.518 C 2023.31 605.824 2018.63 601.297 2014.16 597.905 C 2013.12 597.041 2013.33 597.424 2012.84 596.425 C 2013.37 595.602 2014.35 595.671 2015.25 594.717 C 2024.4 586.691 2032.92 577.975 2040.73 568.645 C 2041.88 565.477 2043.6 558.934 2044.06 555.603 L 2048 552.172 z" fill="url(#Gradient6)" transform="translate(0,0)"></path>
<path d="M 2040.73 568.645 C 2040.38 572.367 2036.39 584.675 2034.49 587.887 C 2032.58 592.67 2030.86 598.873 2029.4 603.864 C 2028.57 606.262 2028.46 606.998 2028.1 609.518 C 2023.31 605.824 2018.63 601.297 2014.16 597.905 C 2013.12 597.041 2013.33 597.424 2012.84 596.425 C 2013.37 595.602 2014.35 595.671 2015.25 594.717 C 2024.4 586.691 2032.92 577.975 2040.73 568.645 z" fill="rgb(124,123,124)" transform="translate(0,0)"></path>
<path d="M 2014.16 597.905 C 2025.35 595.677 2026.71 588.382 2034.49 587.887 C 2032.58 592.67 2030.86 598.873 2029.4 603.864 C 2028.57 606.262 2028.46 606.998 2028.1 609.518 C 2023.31 605.824 2018.63 601.297 2014.16 597.905 z" fill="rgb(186,185,186)" transform="translate(0,0)"></path>
<path d="M 2045.54 597.318 C 2045.83 585.775 2045.3 578.926 2048 567.443 L 2048 610.485 C 2041.58 610.13 2035.1 610.185 2028.75 609.775 L 2028.1 609.518 C 2028.46 606.998 2028.57 606.262 2029.4 603.864 C 2034.09 605.44 2041.5 599.777 2045.54 597.318 z" fill="rgb(124,123,124)" transform="translate(0,0)"></path>
<path d="M 2044.06 555.603 C 2043.6 558.934 2041.88 565.477 2040.73 568.645 C 2032.92 577.975 2024.4 586.691 2015.25 594.717 C 2011.99 593.851 2011.2 593.446 2008.35 591.741 C 2006.8 589.414 2006.76 588.84 2004.76 586.581 C 2008.82 583.156 2019.92 575.234 2022.62 572.284 C 2030.19 567.191 2036.73 560.891 2044.06 555.603 z" fill="url(#Gradient5)" transform="translate(0,0)"></path>
<path d="M 1943.47 657.426 C 1945.37 654.782 1956.61 635.744 1957.7 635.336 C 1958.08 635.445 1957.83 635.341 1958.52 635.768 C 1959.68 637.09 1960.88 638.384 1962.11 639.649 L 1961.68 642.102 C 1960.65 641.556 1959.6 641.483 1958.44 641.327 L 1957.42 643.829 C 1955.42 645.727 1958.89 655.213 1947.23 659.315 C 1945.59 658.297 1945.31 657.941 1943.47 657.426 z" fill="rgb(50,50,50)" transform="translate(0,0)"></path>
<path d="M 1958.52 635.768 C 1959.68 637.09 1960.88 638.384 1962.11 639.649 L 1961.68 642.102 C 1960.65 641.556 1959.6 641.483 1958.44 641.327 C 1958.38 639.245 1958.29 637.837 1958.52 635.768 z" fill="rgb(18,18,18)" transform="translate(0,0)"></path>
<path d="M 2020.5 567.063 C 2023.02 567.91 2022.48 569.809 2022.62 572.284 C 2020.71 570.25 2020.87 569.823 2020.5 567.063 z" fill="rgb(154,153,153)" transform="translate(0,0)"></path>
<path d="M 1877.31 454.086 C 1882.74 454.538 1913.22 458.23 1916.15 456.803 C 1921.28 458.272 1927.88 464.421 1931.05 468.496 L 1932.64 468.331 C 1932.8 472.766 1933 477.2 1933.26 481.63 C 1932.78 513.337 1933.34 556.901 1931.3 587.691 L 1931.21 598.103 C 1931.16 607.111 1931.61 630.208 1930.7 638.097 C 1922.1 629.887 1911.96 619.733 1902.98 612.305 C 1900.21 609.83 1898.92 612.039 1897.07 614.544 C 1895.93 616.067 1894.82 617.608 1893.73 619.167 C 1889.19 624.479 1885.36 630.681 1880.2 635.132 C 1879.97 625.288 1879.56 614.898 1879.87 605.101 C 1878.79 594.897 1878.87 579.307 1878.66 568.75 C 1878.2 545.195 1877.92 521.638 1877.82 498.079 L 1877.31 454.086 z" fill="url(#Gradient4)" transform="translate(0,0)"></path>
<path d="M 1952.86 390.84 C 1954.96 383.561 1955.92 370.405 1963.56 369.787 C 1966.88 369.518 1970.25 367.723 1973.37 368.507 C 1975.66 372.15 1976.71 380.264 1978.34 385.183 L 1978.56 385.831 C 1981 401.193 1991.11 432.743 1999.24 447.828 C 1999.48 448.274 2001.96 448.843 2002.69 449.004 C 2002.68 457.591 2006.65 477.199 2008.04 486.881 C 2001.03 489.69 1950.39 487.384 1934.77 489.927 L 1933.77 488.425 C 1934.55 485.985 1934.11 484.89 1933.48 482.472 L 1933.26 481.63 C 1933 477.2 1932.8 472.766 1932.64 468.331 L 1931.05 468.496 C 1927.88 464.421 1921.28 458.272 1916.15 456.803 C 1913.22 458.23 1882.74 454.538 1877.31 454.086 C 1880.16 450.573 1882.93 446.981 1886.17 443.827 C 1888.4 439.914 1903.34 420.177 1906.52 416.782 C 1907.22 415.148 1908.47 414.007 1909.68 412.616 C 1921.08 417.296 1935.87 405.583 1944.2 411.11 C 1946.16 405.757 1950.34 396.765 1952.86 390.84 z" fill="rgb(18,18,18)" transform="translate(0,0)"></path>
<path d="M 1909.68 412.616 C 1921.08 417.296 1935.87 405.583 1944.2 411.11 C 1939.24 422.044 1929.7 444.432 1923.79 454.05 C 1919.61 456.934 1919.24 455.636 1916.15 456.803 C 1913.22 458.23 1882.74 454.538 1877.31 454.086 C 1880.16 450.573 1882.93 446.981 1886.17 443.827 C 1888.4 439.914 1903.34 420.177 1906.52 416.782 C 1907.22 415.148 1908.47 414.007 1909.68 412.616 z" fill="rgb(70,70,70)" transform="translate(0,0)"></path>
<path d="M 1886.17 443.827 C 1888.4 439.914 1903.34 420.177 1906.52 416.782 C 1903.06 430.028 1907.83 426.095 1921.26 427.506 C 1925.4 427.941 1928.67 429.167 1932.62 427.751 C 1936.16 426.407 1929.16 439.837 1927.47 440.548 C 1927.02 440.341 1927.04 439.733 1926.86 439.678 C 1922.69 438.4 1918.22 441.698 1914.07 440.188 C 1913.5 439.98 1913.11 438.872 1912.36 438.684 C 1909.13 439.763 1901.68 438.413 1898.08 437.835 C 1890.62 436.635 1892.56 440.566 1886.17 443.827 z" fill="rgb(50,50,50)" transform="translate(0,0)"></path>
<path d="M 1923.79 454.05 C 1919.92 479.843 1983.28 446.936 1993.2 449.478 C 1983.06 455.106 1945.41 462.174 1932.64 468.331 L 1931.05 468.496 C 1927.88 464.421 1921.28 458.272 1916.15 456.803 C 1919.24 455.636 1919.61 456.934 1923.79 454.05 z" fill="rgb(96,96,97)" transform="translate(0,0)"></path>
<path d="M 1963.19 344.023 L 1965.21 340.626 C 1967.71 340.961 2001.43 378.9 2004.25 383.292 C 2018.83 398.932 2032.4 415.816 2047.24 431.049 C 2040.63 437.119 2011.97 443.728 2003.81 448.808 L 2002.69 449.004 C 2001.96 448.843 1999.48 448.274 1999.24 447.828 C 1991.11 432.743 1981 401.193 1978.56 385.831 L 1978.34 385.183 C 1976.71 380.264 1975.66 372.15 1973.37 368.507 C 1970.25 367.723 1966.88 369.518 1963.56 369.787 C 1955.92 370.405 1954.96 383.561 1952.86 390.84 C 1950.34 396.765 1946.16 405.757 1944.2 411.11 C 1935.87 405.583 1921.08 417.296 1909.68 412.616 C 1911.33 410.446 1912.88 408.193 1914.45 405.961 C 1921.11 396.717 1931.13 384.881 1938.42 375.506 C 1946.26 364.688 1954.52 354.186 1963.19 344.023 z" fill="url(#Gradient3)" transform="translate(0,0)"></path>
<path d="M 1914.45 405.961 C 1923.19 402.75 1943.44 398.392 1950.96 392.382 L 1952.86 390.84 C 1950.34 396.765 1946.16 405.757 1944.2 411.11 C 1935.87 405.583 1921.08 417.296 1909.68 412.616 C 1911.33 410.446 1912.88 408.193 1914.45 405.961 z" fill="rgb(124,123,124)" transform="translate(0,0)"></path>
<path d="M 1938.42 375.506 C 1946.26 364.688 1954.52 354.186 1963.19 344.023 C 1962.73 347.045 1955.31 375.126 1954.24 375.65 C 1954.08 375.452 1954.05 374.314 1953.87 373.703 C 1954.19 373.877 1945.09 374.852 1944.54 374.984 C 1940.86 375.868 1941.27 379.498 1938.42 375.506 z" fill="rgb(50,50,50)" transform="translate(0,0)"></path>
<path d="M 6.19982 410.399 C 15.4592 398.298 27.235 377.943 37.9409 363.398 L 38.6711 364.721 C 41.4471 365.173 50.5961 356.265 54.5913 355.049 C 70.0118 350.355 81.6539 334.387 96.5809 330.734 C 101.424 329.549 107.885 333.877 107.657 339.923 C 104.427 342.592 105.229 341.303 103.902 344.81 C 104.568 347.002 104.974 348.507 105.417 350.754 C 102.748 355.365 99.6322 352.342 99.2995 356.387 L 101.812 359.471 L 101.21 361.752 L 99.8159 362.225 C 97.6748 359.061 96.5135 355.292 94.0315 354.519 C 93.5641 355.11 92.6958 356.117 92.3855 356.737 C 91.9422 351.934 92.0251 348.541 92.1423 343.78 C 80.2398 348.524 49.2719 357.487 43.0786 367.819 C 42.4787 368.82 41.6017 373.296 41.3946 374.578 C 33.5565 389.236 33.8654 408.779 20.7957 421.683 C 18.6436 423.35 17.213 424.475 15.1467 426.283 L 13.5955 425.485 C 13.8431 422.682 13.9454 422.759 13.0163 420.163 C 11.3963 419.076 9.76094 418.012 8.11062 416.971 L 7.84982 418.079 C 5.79744 415.76 5.80239 415.033 4.34278 412.456 L 6.19982 410.399 z" fill="rgb(70,70,70)" transform="translate(0,0)"></path>
<path d="M 15.4723 413.07 C 16.2164 411.787 17.874 409.68 17.4613 408.269 C 15.4635 401.437 20.5227 402.487 23.8689 398.266 C 25.4359 396.288 23.6388 395.439 23.3699 393.515 C 23.1103 391.657 25.7192 391.413 25.5304 389.513 C 24.8055 386.174 27.9092 384.688 29.7096 382.381 C 30.7302 381.074 32.9182 377.064 34.5893 376.64 C 37.4177 375.924 34.7162 372.79 36.6038 372.051 C 37.0887 372.155 40.2265 374.04 41.3946 374.578 C 33.5565 389.236 33.8654 408.779 20.7957 421.683 C 18.6436 423.35 17.213 424.475 15.1467 426.283 L 13.5955 425.485 C 13.8431 422.682 13.9454 422.759 13.0163 420.163 C 12.6693 417.82 12.6672 417.731 11.6949 415.598 L 12.075 415.213 C 14.9885 415.498 15.5927 416.288 15.4723 413.07 z" fill="rgb(186,185,186)" transform="translate(0,0)"></path>
<path d="M 15.4723 413.07 L 16.0402 412.593 C 24.8065 405.133 21.1922 413.565 20.7957 421.683 C 18.6436 423.35 17.213 424.475 15.1467 426.283 L 13.5955 425.485 C 13.8431 422.682 13.9454 422.759 13.0163 420.163 C 12.6693 417.82 12.6672 417.731 11.6949 415.598 L 12.075 415.213 C 14.9885 415.498 15.5927 416.288 15.4723 413.07 z" fill="rgb(169,168,169)" transform="translate(0,0)"></path>
<path d="M 6.19982 410.399 C 9.55632 411.681 11.0799 411.87 8.91657 415.568 L 8.11062 416.971 L 7.84982 418.079 C 5.79744 415.76 5.80239 415.033 4.34278 412.456 L 6.19982 410.399 z" fill="rgb(154,153,153)" transform="translate(0,0)"></path>
<path d="M 97.9066 339.205 C 106.44 341.571 101.246 344.842 97.6677 349.495 C 91.9757 348.531 96.4531 343.469 97.9066 339.205 z" fill="rgb(18,18,18)" transform="translate(0,0)"></path>
<path d="M 78.7851 541.802 C 81.3449 539.123 85.5376 535.36 87.0775 540.929 L 87.8148 540.999 C 84.9601 550.923 84.1409 562.021 83.0573 572.14 C 82.2454 579.721 85.7446 615.574 83.5386 618.813 C 82.673 616.56 81.9227 614.78 80.8801 612.602 C 75.9736 618.16 74.1982 617.555 70.1868 623.802 C 69.336 622.808 68.4095 621.364 67.6508 620.265 C 65.4315 622.329 64.4917 623.482 62.0843 625.475 C 64.3177 606.247 63.5406 594.676 67.9618 575.048 C 73.3863 562.41 69.8752 567.553 77.7974 556.209 C 83.1702 549.839 74.6234 549.967 78.798 542.843 L 78.7851 541.802 z" fill="rgb(169,168,169)" transform="translate(0,0)"></path>
<path d="M 67.6508 620.265 C 67.8558 618.46 68.8253 615.984 68.7925 614.021 C 68.7619 612.186 78.2876 607.27 78.7581 607.338 L 79.4448 608.287 C 79.6663 610.287 80.0728 610.792 80.8801 612.602 C 75.9736 618.16 74.1982 617.555 70.1868 623.802 C 69.336 622.808 68.4095 621.364 67.6508 620.265 z" fill="rgb(209,208,208)" transform="translate(0,0)"></path>
<path d="M 72.626 582.601 C 73.3851 581.731 74.5879 581.394 75.6889 581.742 C 76.7898 582.091 77.5794 583.059 77.6995 584.207 C 77.8197 585.356 77.2475 586.466 76.2425 587.035 C 75.0116 587.732 73.4579 587.44 72.5639 586.344 C 71.6699 585.248 71.6962 583.667 72.626 582.601 z" fill="rgb(186,185,186)" transform="translate(0,0)"></path>
<path d="M 160.145 686.374 C 163.174 680.183 165.171 671.771 168.819 666.729 C 170.774 671.098 172.336 672.777 174.096 677.246 C 174.674 678.246 175.255 679.027 175.919 679.961 C 178.517 683.376 180.376 685.804 177.502 689.178 C 169.257 698.58 150.04 715.189 140.152 724.731 C 136.215 725.306 123.905 724.919 119.286 724.868 C 130.858 713.689 142.999 700.69 154.116 688.906 C 159.15 688.158 167.277 688.852 172.586 689.115 C 171.053 688.295 162.397 686.809 160.145 686.374 z" fill="rgb(0,0,0)" transform="translate(0,0)"></path>
<path d="M 53.8333 648.837 L 56.0748 647.204 C 59.0294 648.032 71.7714 642.015 76.5047 640.385 L 78.0447 641.796 C 77.4833 644.346 72.1332 662.504 72.1137 662.303 C 70.5236 663.856 70.0638 664.506 68.0801 665.418 L 67.487 665.915 C 66.7116 666.579 65.3725 667.851 64.5363 668.246 C 62.7804 669.704 62.1807 670.679 59.9183 671.176 C 56.4659 675.449 47.2336 683.944 42.6774 686.544 L 41.861 687.317 C 40.7998 688.734 40.882 688.973 39.2578 689.408 C 36.6373 691.804 34.2617 694.175 31.2179 696.006 C 34.1394 687.774 37.5364 678.99 38.2842 670.217 C 40.2843 666.152 45.1923 657.692 47.8261 653.862 C 49.0583 652.07 51.6587 652.334 53.8333 648.837 z" fill="url(#Gradient2)" transform="translate(0,0)"></path>
<path d="M 42.6774 686.544 C 45.2281 681.924 55.2483 673.646 59.9183 671.176 C 56.4659 675.449 47.2336 683.944 42.6774 686.544 z" fill="rgb(70,70,70)" transform="translate(0,0)"></path>
<path d="M 59.9183 671.176 C 60.7264 668.982 62.1439 667.244 64.5363 668.246 C 62.7804 669.704 62.1807 670.679 59.9183 671.176 z" fill="rgb(70,70,70)" transform="translate(0,0)"></path>
<path d="M 39.2578 689.408 C 38.9293 687.038 39.6663 687.662 41.861 687.317 C 40.7998 688.734 40.882 688.973 39.2578 689.408 z" fill="rgb(50,50,50)" transform="translate(0,0)"></path>
<path d="M 67.487 665.915 C 67.5352 665.118 67.3968 663.987 68.213 663.53 C 68.793 663.84 68.2086 665.004 68.0801 665.418 L 67.487 665.915 z" fill="rgb(50,50,50)" transform="translate(0,0)"></path>
<path d="M 36.5322 669.447 L 38.2842 670.217 C 37.5364 678.99 34.1394 687.774 31.2179 696.006 C 30.1311 697.711 21.4439 705.811 19.3496 707.677 C 14.9715 710.748 10.282 716.651 5.62997 720.439 C 3.66093 719.33 2.00905 718.68 0 717.718 L 0 706 L 0 702.067 C 3.58974 697.65 7.23752 691.51 11.4921 688.17 C 27.3094 675.754 23.0103 686.538 36.5322 669.447 z" fill="rgb(169,168,169)" transform="translate(0,0)"></path>
<path d="M 13.3681 707.591 C 15.2378 703.028 15.9813 705.581 19.3496 707.677 C 14.9715 710.748 10.282 716.651 5.62997 720.439 C 3.66093 719.33 2.00905 718.68 0 717.718 L 0 706 L 2.92401 708.677 C 6.68968 714.931 9.13215 712.21 13.3681 707.591 z" fill="rgb(154,153,153)" transform="translate(0,0)"></path>
<path d="M 99.6671 438.991 L 100.335 439.123 C 103.507 439.776 102.364 449.236 105.312 447.164 C 108.015 445.264 110.139 441.507 113.413 439.067 C 114.558 442.286 118.996 453.782 118.408 455.748 C 116.199 463.137 111.555 487.525 106.655 492.077 C 104.855 496.092 103.445 498.525 101.053 502.264 C 97.0653 507.819 96.6205 509 94.5289 515.46 C 90.7948 516.085 91.2618 516.81 87.8332 517.745 C 88.9418 512.268 91.439 512.181 86.8243 507.953 C 87.2621 507.342 87.9929 506.779 88.0841 506.04 C 87.7893 505.925 87.4945 505.81 87.1997 505.695 L 86.203 505.481 C 95.4638 492.978 98.6546 480.366 108.007 466.549 C 105.468 457.292 102.687 448.103 99.6671 438.991 z" fill="rgb(96,96,97)" transform="translate(0,0)"></path>
<path d="M 101.053 502.264 C 98.5325 493.038 96.9934 497.314 95.9336 495.553 C 97.1831 492.853 104.488 485.554 107.003 488.136 C 106.738 489.744 104.279 489.773 106.178 491.62 L 106.655 492.077 C 104.855 496.092 103.445 498.525 101.053 502.264 z" fill="rgb(124,123,124)" transform="translate(0,0)"></path>
<path d="M 172.525 585.034 C 172.815 590.982 169.032 595.283 171.971 601.628 C 171.362 603.682 170.056 610.569 169.579 613.128 C 171.564 616.484 174.061 620.681 175.704 624.129 C 179.797 631.596 177.857 636.321 174.064 643.728 L 174.23 644.259 L 177.037 643.02 C 180.803 645.719 179.497 662.652 179.846 668.331 L 180.102 669.013 C 175.066 671.142 175.362 672.331 174.096 677.246 C 172.336 672.777 170.774 671.098 168.819 666.729 C 165.171 671.771 163.174 680.183 160.145 686.374 C 162.397 686.809 171.053 688.295 172.586 689.115 C 167.277 688.852 159.15 688.158 154.116 688.906 L 152.638 687.942 C 164.185 685.204 173.604 650.154 172.016 639.651 C 170.204 637.916 163.967 632.072 162.703 629.972 C 162.375 629.428 163.929 626.405 162.368 623.175 C 159.271 622.574 156.321 623.448 153.156 624.055 C 156.338 622.703 160.496 621.538 163.863 620.496 C 163.402 607.472 166.839 598.672 166.412 589.299 L 172.525 585.034 z" fill="rgb(70,70,70)" transform="translate(0,0)"></path>
<path d="M 169.579 613.128 C 171.564 616.484 174.061 620.681 175.704 624.129 C 170.374 630.233 167.939 623.418 166.347 619.021 C 165.652 617.103 166.531 615.628 166.583 613.347 C 167.569 613.303 168.592 613.206 169.579 613.128 z" fill="rgb(96,96,97)" transform="translate(0,0)"></path>
<path d="M 166.583 613.347 C 166.214 611.843 165.325 601.701 167.974 600.751 C 168.756 600.471 170.444 601.516 171.971 601.628 C 171.362 603.682 170.056 610.569 169.579 613.128 C 168.592 613.206 167.569 613.303 166.583 613.347 z" fill="rgb(50,50,50)" transform="translate(0,0)"></path>
<path d="M 168.819 666.729 C 169.27 665.922 169.07 666.151 169.404 665.862 C 170.079 666.229 172.937 674.79 173.511 664.547 C 174.955 664.738 175.799 667.327 179.846 668.331 L 180.102 669.013 C 175.066 671.142 175.362 672.331 174.096 677.246 C 172.336 672.777 170.774 671.098 168.819 666.729 z" fill="rgb(154,153,153)" transform="translate(0,0)"></path>
<path d="M 173.37 629.526 L 173.995 629.697 C 177.231 630.599 174.706 635.02 173.507 636.865 L 173.475 636.73 C 166.495 633.927 167.41 632.456 173.37 629.526 z" fill="rgb(50,50,50)" transform="translate(0,0)"></path>
<path d="M 107.657 339.923 C 109.305 352.784 108.028 360.522 108.91 371.955 C 109.851 384.163 112.217 382.203 111.975 397.138 C 108.793 396.67 104.446 396.516 102.506 394.157 C 105.196 385.535 97.2492 378.158 94.4175 369.565 C 93.33 366.265 92.7657 360.318 92.3855 356.737 C 92.6958 356.117 93.5641 355.11 94.0315 354.519 C 96.5135 355.292 97.6748 359.061 99.8159 362.225 L 101.21 361.752 L 101.812 359.471 L 99.2995 356.387 C 99.6322 352.342 102.748 355.365 105.417 350.754 C 104.974 348.507 104.568 347.002 103.902 344.81 C 105.229 341.303 104.427 342.592 107.657 339.923 z" fill="rgb(124,123,124)" transform="translate(0,0)"></path>
<path d="M 177.502 689.178 C 182.626 691.849 180.17 691.376 186.189 692.988 C 175.543 702.671 163.761 713.72 153.201 723.642 C 150.028 726.064 144.071 725.234 140.152 724.731 C 150.04 715.189 169.257 698.58 177.502 689.178 z" fill="url(#Gradient1)" transform="translate(0,0)"></path>
<path d="M 86.203 505.481 L 87.1997 505.695 C 87.4945 505.81 87.7893 505.925 88.0841 506.04 C 87.9929 506.779 87.2621 507.342 86.8243 507.953 C 91.439 512.181 88.9418 512.268 87.8332 517.745 C 91.2618 516.81 90.7948 516.085 94.5289 515.46 C 93.5275 520.552 92.9277 524.292 92.0782 529.389 C 91.4943 529.844 91.0589 530.199 90.5038 530.671 C 87.1492 533.867 85.5564 535.883 81.8014 531.826 C 80.0798 532.534 80.16 532.891 78.9915 534.412 C 78.2724 528.28 77.1997 523.22 76.4976 517.038 L 76.4041 516.26 C 79.2297 513.099 83.2435 508.327 86.203 505.481 z" fill="rgb(169,168,169)" transform="translate(0,0)"></path>
<path d="M 86.8243 507.953 C 91.439 512.181 88.9418 512.268 87.8332 517.745 C 77.5701 515.869 79.9373 516.19 86.8243 507.953 z" fill="rgb(249,248,248)" transform="translate(0,0)"></path>
<path d="M 81.8014 531.826 C 85.057 526.923 85.556 524.469 90.5038 530.671 C 87.1492 533.867 85.5564 535.883 81.8014 531.826 z" fill="rgb(186,185,186)" transform="translate(0,0)"></path>
<path d="M 97.946 422.149 C 99.7966 413.249 100.711 402.096 102.506 394.157 C 104.446 396.516 108.793 396.67 111.975 397.138 C 112.294 402.723 113.427 416.241 112.046 421.283 C 110.077 421.317 108.781 421.442 106.837 420.949 L 108.443 419.363 C 109.239 415.787 105.087 407.205 103.46 403.243 C 102.066 410.254 100.511 417.231 98.7956 424.171 C 89.2352 428.979 83.2735 433.437 77.1293 442.64 C 75.1139 445.658 74.4047 449.13 71.501 451.287 L 70.7275 450.609 C 70.7212 441.62 90.4813 426.638 97.946 422.149 z" fill="rgb(50,50,50)" transform="translate(0,0)"></path>
<path d="M 112.046 421.283 C 112.065 423.045 113.148 437.834 113.413 439.067 C 110.139 441.507 108.015 445.264 105.312 447.164 C 102.364 449.236 103.507 439.776 100.335 439.123 L 99.6671 438.991 C 98.463 437.321 98.5035 437.374 98.2057 435.313 C 98.9373 426.465 99.7648 430.183 100.673 425.174 C 103.417 424.252 103.961 422.8 106.837 420.949 C 108.781 421.442 110.077 421.317 112.046 421.283 z" fill="rgb(18,18,18)" transform="translate(0,0)"></path>
<path d="M 0 690.668 L 0.338854 689.992 C 10.6859 669.114 20.2879 638.645 29.6739 616.712 C 32.0566 611.144 37.7297 593.525 40.4526 589.692 C 41.5419 593.691 4.39497 688.192 0 692.662 L 0 690.668 z" fill="rgb(50,50,50)" transform="translate(0,0)"></path>
<path d="M 1.73804 415.238 C 2.5998 414.305 3.46807 413.377 4.34278 412.456 C 5.80239 415.033 5.79744 415.76 7.84982 418.079 L 8.11062 416.971 C 9.76094 418.012 11.3963 419.076 13.0163 420.163 C 13.9454 422.759 13.8431 422.682 13.5955 425.485 C 11.0366 426.248 10.8288 426.368 8.56354 427.677 L 6.39666 429.572 C 2.29741 433.111 4.54712 429.186 0 434.87 L 0 416.188 L 1.73804 415.238 z" fill="rgb(18,18,18)" transform="translate(0,0)"></path>
<path d="M 1.73804 415.238 C 2.5998 414.305 3.46807 413.377 4.34278 412.456 C 5.80239 415.033 5.79744 415.76 7.84982 418.079 C 6.82744 421.971 6.21172 423.623 2.45871 426.333 C 2.37774 426.264 2.29678 426.195 2.21581 426.125 C 2.25882 421.66 8.38437 421.278 1.73804 415.238 z" fill="rgb(70,70,70)" transform="translate(0,0)"></path>
<path d="M 90.5038 530.671 C 91.0589 530.199 91.4943 529.844 92.0782 529.389 C 90.5877 534.445 90.1 536.108 87.8148 540.999 L 87.0775 540.929 C 85.5376 535.36 81.3449 539.123 78.7851 541.802 C 78.8251 539.29 78.779 536.923 78.9915 534.412 C 80.16 532.891 80.0798 532.534 81.8014 531.826 C 85.5564 535.883 87.1492 533.867 90.5038 530.671 z" fill="rgb(154,153,153)" transform="translate(0,0)"></path>
<path d="M 80.8801 612.602 C 81.9227 614.78 82.673 616.56 83.5386 618.813 C 79.2653 621.155 75.2069 623.84 70.9152 626.144 L 70.1868 623.802 C 74.1982 617.555 75.9736 618.16 80.8801 612.602 z" fill="rgb(186,185,186)" transform="translate(0,0)"></path>
<path d="M 78.0447 641.796 C 79.2626 637.139 76.6326 639.493 75.8234 637.494 C 76.1365 636.612 78.8325 632.751 80.4535 633.061 C 82.2914 634.843 76.3325 656.676 74.8141 660.259 C 74.7535 660.403 72.5299 661.99 72.1137 662.303 C 72.1332 662.504 77.4833 644.346 78.0447 641.796 z" fill="rgb(50,50,50)" transform="translate(0,0)"></path>
<path d="M 180.102 669.013 C 181.145 671.214 180.942 671.243 180.946 673.837 L 181.08 677.984 C 181.656 678.827 182.105 679.631 182.618 680.508 C 179.113 680.966 179.419 681.038 175.919 679.961 C 175.255 679.027 174.674 678.246 174.096 677.246 C 175.362 672.331 175.066 671.142 180.102 669.013 z" fill="rgb(18,18,18)" transform="translate(0,0)"></path>
<path d="M 181.08 677.984 C 175.808 675.735 177.369 672.876 180.946 673.837 L 181.08 677.984 z" fill="rgb(96,96,97)" transform="translate(0,0)"></path>
<path d="M 175.919 679.961 C 179.419 681.038 179.113 680.966 182.618 680.508 C 182.807 684.309 184.686 689.45 186.189 692.988 C 180.17 691.376 182.626 691.849 177.502 689.178 C 180.376 685.804 178.517 683.376 175.919 679.961 z" fill="rgb(96,96,97)" transform="translate(0,0)"></path>
<path d="M 67.9618 575.048 C 67.7629 574.323 66.8804 570.66 66.7397 570.391 C 65.7778 570.184 65.1985 571.118 63.9607 570.967 L 63.7909 570.45 C 65.1502 568.003 71.9129 563.199 72.8803 558.002 C 73.5126 554.606 75.7835 555.004 77.7974 556.209 C 69.8752 567.553 73.3863 562.41 67.9618 575.048 z" fill="rgb(18,18,18)" transform="translate(0,0)"></path>
<path d="M 0 434.87 C 4.54712 429.186 2.29741 433.111 6.39666 429.572 L 8.56354 427.677 C 8.0004 430.549 7.25714 432.975 6.61477 435.79 C 4.63825 438.223 2.35316 440.23 0 442.282 L 0 434.87 z" fill="rgb(50,50,50)" transform="translate(0,0)"></path>
<path d="M 36.5322 669.447 C 39.9891 663.248 44.0816 657.188 47.5109 650.95 C 51.3854 643.902 49.7151 648.326 53.1155 648.751 L 53.8333 648.837 C 51.6587 652.334 49.0583 652.07 47.8261 653.862 C 45.1923 657.692 40.2843 666.152 38.2842 670.217 L 36.5322 669.447 z" fill="rgb(96,96,97)" transform="translate(0,0)"></path>
<path d="M 62.0843 625.475 C 64.4917 623.482 65.4315 622.329 67.6508 620.265 C 68.4095 621.364 69.336 622.808 70.1868 623.802 L 70.9152 626.144 C 67.0141 627.813 65.9323 628.625 61.6567 629.899 L 60.5576 628.871 C 61.1358 627.681 61.6066 626.72 62.0843 625.475 z" fill="rgb(249,248,248)" transform="translate(0,0)"></path>
<path d="M 8.56354 427.677 C 10.8288 426.368 11.0366 426.248 13.5955 425.485 L 15.1467 426.283 C 11.871 430.329 10.3002 432.182 6.61477 435.79 C 7.25714 432.975 8.0004 430.549 8.56354 427.677 z" fill="rgb(96,96,97)" transform="translate(0,0)"></path>
<path d="M 61.6567 629.899 C 60.0758 631.984 54.9841 641.618 53.4783 641.914 C 53.3543 641.838 53.2303 641.763 53.1063 641.687 L 53.4044 641.459 L 53.1664 640.696 C 54.4314 637.486 58.1726 631.39 60.5576 628.871 L 61.6567 629.899 z" fill="rgb(96,96,97)" transform="translate(0,0)"></path>
<path d="M 100.673 425.174 C 99.7648 430.183 98.9373 426.465 98.2057 435.313 C 95.1402 427.066 92.7859 428.798 100.673 425.174 z" fill="rgb(70,70,70)" transform="translate(0,0)"></path>
<path d="M 1544.51 358.233 C 1604 348.299 1660.29 388.463 1670.25 447.954 C 1680.2 507.445 1640.06 563.748 1580.57 573.727 C 1521.05 583.712 1464.71 543.543 1454.75 484.02 C 1444.79 424.497 1484.98 368.173 1544.51 358.233 z" fill="rgb(143,108,64)" transform="translate(0,0)"></path>
<path d="M 1543.68 360.158 C 1600.2 351.99 1652.57 391.4 1660.38 447.977 C 1668.18 504.554 1628.43 556.669 1571.81 564.108 C 1515.69 571.48 1464.15 532.173 1456.42 476.108 C 1448.69 420.043 1487.66 368.251 1543.68 360.158 z" fill="rgb(249,248,248)" transform="translate(0,0)"></path>
<path d="M 1548.69 381.702 C 1593.16 376.296 1633.61 407.934 1639.08 452.4 C 1644.54 496.867 1612.95 537.355 1568.49 542.874 C 1523.95 548.403 1483.38 516.747 1477.9 472.201 C 1472.43 427.655 1504.14 387.118 1548.69 381.702 z" fill="rgb(157,120,73)" transform="translate(0,0)"></path>
<path d="M 1557.63 391.32 C 1596.4 387.123 1628.15 408.892 1635.36 447.694 C 1639.31 468.185 1634.81 489.403 1622.87 506.517 C 1609.79 525.484 1591.24 535.668 1568.97 539.802 C 1549.55 542.267 1528.93 538.081 1513.08 526.621 C 1482.54 504.539 1482.17 452.003 1503.83 423.661 C 1518.44 404.548 1534.41 395.018 1557.63 391.32 z" fill="rgb(0,0,0)" transform="translate(0,0)"></path>
<path d="M 1488.69 499.286 C 1477.1 473.364 1477.35 447.327 1491.39 422.072 C 1509.37 389.719 1559.5 371.242 1592.48 391.811 C 1522.03 376.799 1473.08 429.105 1490.56 498.599 L 1488.69 499.286 z" fill="rgb(0,0,0)" transform="translate(0,0)"></path>
<path d="M 1490.56 498.599 C 1491.18 499.786 1493.62 504.145 1492.73 505.247 C 1491.38 505.334 1489.26 500.43 1488.69 499.286 L 1490.56 498.599 z" fill="rgb(74,57,35)" transform="translate(0,0)"></path>
<path d="M 1657.13 420.33 C 1671.2 444.462 1675.53 466.649 1668.29 494.09 C 1661.1 521.37 1643.27 544.625 1618.79 558.646 C 1595.11 572.152 1567.1 575.869 1540.72 569.004 C 1535.06 567.477 1531.03 565.757 1525.71 563.364 L 1526.56 561.534 C 1583.56 579.831 1641.82 548.712 1661.12 491.886 C 1669.42 467.447 1665.18 444.161 1657.13 420.33 z" fill="rgb(0,0,0)" transform="translate(0,0)"></path>
<path d="M 1525.71 563.364 L 1519.47 560.434 L 1519.3 559.781 L 1519.17 560.259 C 1518.35 559.607 1518.5 559.967 1518.34 559.429 C 1518.4 559.341 1518.45 559.253 1518.51 559.165 C 1519.79 558.899 1524.79 561.048 1526.56 561.534 L 1525.71 563.364 z" fill="rgb(18,18,18)" transform="translate(0,0)"></path>
<path d="M 466.975 575.247 C 407.96 574.39 360.307 526.793 359.381 467.78 C 358.454 408.766 404.59 359.697 463.549 356.988 C 522.508 354.28 572.948 398.912 577.436 457.762 C 581.925 516.612 538.836 568.378 480.148 574.642 C 474.867 576.044 472.446 576.417 466.975 575.247 z" fill="rgb(143,108,64)" transform="translate(0,0)"></path>
<path d="M 466.975 575.247 C 471.374 575.311 475.774 575.109 480.148 574.642 C 474.867 576.044 472.446 576.417 466.975 575.247 z" fill="rgb(74,57,35)" transform="translate(0,0)"></path>
<path d="M 449.322 360.235 C 505.76 351.856 558.253 390.962 566.374 447.438 C 574.496 503.914 535.15 556.227 478.638 564.091 C 422.489 571.905 370.585 532.867 362.516 476.754 C 354.446 420.642 393.247 368.56 449.322 360.235 z" fill="rgb(249,248,248)" transform="translate(0,0)"></path>
<path d="M 456.282 381.557 C 500.559 377.022 540.232 408.982 545.227 453.209 C 550.223 497.436 518.678 537.44 474.505 542.895 C 445.518 546.475 416.843 534.21 399.412 510.775 C 381.981 487.341 378.48 456.349 390.245 429.617 C 402.01 402.885 427.227 384.532 456.282 381.557 z" fill="rgb(157,120,73)" transform="translate(0,0)"></path>
<path d="M 463.339 391.321 C 503.404 387.755 535.695 408.57 542.008 449.575 C 545.177 470.111 540.05 491.064 527.756 507.815 C 514.36 526.082 496.42 536.422 474.232 539.848 C 370.756 549.402 368.541 407.036 463.339 391.321 z" fill="rgb(0,0,0)" transform="translate(0,0)"></path>
<path d="M 455.554 384.341 C 467.196 383.586 488.602 384.917 497.834 391.689 C 494.134 391.546 489.207 389.935 484.988 389.39 C 436.637 383.151 393.932 417.235 392.599 468.75 C 392.812 485.803 394.188 490.747 400.081 506.888 C 393.627 500.26 388.026 481.865 386.799 472.587 C 380.903 427.997 412.359 390.509 455.554 384.341 z" fill="rgb(0,0,0)" transform="translate(0,0)"></path>
<path d="M 566.97 426.546 C 592.913 478.153 569.092 536.716 518.709 561.793 C 494.848 573.823 467.182 575.87 441.81 567.484 C 435.654 565.419 427.748 561.619 421.993 558.476 C 451.518 568.867 481.02 570.729 509.962 556.897 C 536.257 544.142 556.497 521.577 566.33 494.056 C 573.204 474.368 573.826 447.433 565.888 428.038 L 566.97 426.546 z" fill="rgb(0,0,0)" transform="translate(0,0)"></path>
<path d="M 565.888 428.038 C 565.47 427.018 562.879 421.789 563.574 421.02 C 564.914 422.048 566.219 424.973 566.97 426.546 L 565.888 428.038 z" fill="rgb(74,57,35)" transform="translate(0,0)"></path>
<path d="M 185.75 361.106 L 229.689 360.822 C 256.29 360.681 281.513 359.598 303.061 378.194 C 317.553 390.7 331.367 408.099 333.216 427.604 C 333.927 431.189 334.608 433.661 333.38 437.258 C 331.668 467.058 312.053 481.124 286.327 489.643 C 290.398 498.219 298.836 509.842 303.875 518.321 C 314.595 536.356 325.873 554.069 337.23 571.71 C 326.721 572.149 315.777 571.973 305.227 571.955 C 300.017 560.396 299.4 568.27 293.739 559.057 C 280.078 536.824 265.521 514.436 252.345 491.972 L 222.985 491.953 L 223.04 571.65 C 217.318 571.717 198.041 572.763 194.411 570.049 L 194.227 564.853 C 191.375 561.11 191.186 564.797 186.5 562.008 C 184.891 549.811 185.814 511.757 185.805 497.353 L 185.75 361.106 z" fill="rgb(157,120,73)" transform="translate(0,0)"></path>
<path d="M 333.216 427.604 C 333.927 431.189 334.608 433.661 333.38 437.258 C 332.774 433.184 332.976 431.746 333.216 427.604 z" fill="rgb(74,57,35)" transform="translate(0,0)"></path>
<path d="M 238.765 363.482 C 253.971 361.632 279.141 365.394 291.992 373.536 C 339.981 403.943 331.826 466.758 274.047 480.314 L 301.787 524.935 C 308.631 536.021 317.47 551.094 325.291 561.194 L 299.086 561.061 C 292.232 552.919 282.736 535.851 277.127 526.296 C 267.655 511.799 258.628 497.015 250.061 481.966 L 211.748 482.276 C 211.957 508.307 211.646 534.793 211.572 560.858 L 188.965 560.287 C 188.238 494.781 188.087 429.271 188.51 363.764 L 238.765 363.482 z" fill="rgb(249,248,248)" transform="translate(0,0)"></path>
<path d="M 211.782 384.129 C 230.105 384.484 254.221 382.254 271.366 386.764 C 303.463 395.207 309.25 429.16 287.519 452.035 C 265.973 467.768 237.749 463.416 211.318 462.797 L 211.782 384.129 z" fill="rgb(143,108,64)" transform="translate(0,0)"></path>
<path d="M 223.08 394.376 C 248.884 393.988 306.327 385.626 296.506 430.964 C 294.96 438.101 291.193 443.456 286.294 448.812 C 268.558 463.664 245.149 460.545 222.699 460.549 C 222.577 438.491 222.704 416.432 223.08 394.376 z" fill="rgb(0,0,0)" transform="translate(0,0)"></path>
<path d="M 214.236 386.391 C 230.906 387.116 249.84 385.944 266.405 388.153 C 268.278 388.403 276.313 392.086 278.489 393.091 C 273.142 391.848 223.367 390.99 220.531 393.288 L 220.485 397.249 C 220.61 404.92 221.415 455.721 220.062 459.343 C 217.462 460.576 218.584 460.297 215.261 459.875 C 213.051 455.667 214.178 395.483 214.236 386.391 z" fill="rgb(0,0,0)" transform="translate(0,0)"></path>
<path d="M 214.192 484.983 C 221.188 485.022 249.76 482.22 250.693 489.449 C 247.569 490.198 225.423 489.993 220.789 490.01 L 220.907 560.212 L 220.758 569.957 C 213.896 570.081 199.184 571.272 194.355 566.103 C 198.428 562.115 208.578 563.103 214.026 563.23 L 214.192 484.983 z" fill="rgb(0,0,0)" transform="translate(0,0)"></path>
<path d="M 321.648 402.655 C 339.511 418.966 331.382 460.71 312.815 473.731 C 301.317 481.794 298.072 484.005 284.265 487.751 L 282.906 488.193 C 281.161 486.837 281.038 486.648 279.717 484.854 C 280.992 479.342 293.149 477.88 298.239 474.239 C 323.433 456.218 330.06 431.982 321.648 402.655 z" fill="rgb(0,0,0)" transform="translate(0,0)"></path>
<path d="M 303.904 564.013 C 310.673 563.771 321.052 563.514 327.925 564.005 C 329.576 564.123 331.447 567.813 332.271 569.325 C 327.173 569.901 312.096 570.468 306.494 569.377 C 305.551 569.193 304.344 565.167 303.904 564.013 z" fill="rgb(0,0,0)" transform="translate(0,0)"></path>
<path d="M 1708.89 360.892 C 1724 361.239 1741.64 361.05 1756.72 360.975 C 1787.57 360.821 1809.41 361.06 1832.52 384.41 C 1846.16 398.2 1856.31 412.535 1856.16 432.999 C 1856.17 448.48 1850.06 463.338 1839.15 474.324 C 1821.88 491.508 1801.96 493.203 1779.25 493.1 L 1747.08 493.042 L 1747.04 571.489 C 1741.79 571.59 1722.67 572.503 1719.39 570.459 L 1719.35 564.911 C 1716.38 561.38 1714.34 564.955 1710.04 561.994 C 1708.59 549.949 1709.78 508.165 1709.78 494.18 C 1709.73 449.749 1709.43 405.319 1708.89 360.892 z" fill="rgb(157,120,73)" transform="translate(0,0)"></path>
<path d="M 1712.09 363.895 L 1752.73 363.645 C 1780.19 363.527 1805.89 362.598 1827.14 383.095 C 1838.45 394.009 1845.03 408.085 1845.16 424.01 C 1845.41 439.163 1839.5 453.769 1828.78 464.481 C 1810.81 482.559 1790.82 483.328 1767.15 483.435 L 1736.03 483.156 L 1736.04 561.06 L 1712.82 560.964 L 1712.09 363.895 z" fill="rgb(249,248,248)" transform="translate(0,0)"></path>
<path d="M 1736.05 384.03 C 1767.67 385.006 1820.1 376.168 1822.02 422.4 C 1822.55 435.201 1818.29 442.806 1809.9 451.848 C 1791.59 467.459 1760.03 463.253 1735.94 462.999 L 1736.05 384.03 z" fill="rgb(189,147,89)" transform="translate(0,0)"></path>
<path d="M 1758.43 394.808 C 1765.52 393.166 1780.66 392.932 1787.59 394.825 C 1806.36 395.111 1819.15 403.593 1818.9 423.717 C 1818.88 433.331 1814.98 442.528 1808.08 449.229 C 1793.03 463.69 1767.08 460.414 1747.06 460.244 L 1747.05 394.893 L 1758.43 394.808 z" fill="rgb(0,0,0)" transform="translate(0,0)"></path>
<path d="M 1758.43 394.808 C 1765.52 393.166 1780.66 392.932 1787.59 394.825 C 1779.01 395.104 1766.97 395.205 1758.43 394.808 z" fill="rgb(143,108,64)" transform="translate(0,0)"></path>
<path d="M 1738.29 387.059 C 1761.49 387.127 1784.65 383.713 1804.84 395.111 C 1790.49 392.25 1760.91 391.434 1746.22 393.16 C 1744.44 395.266 1745.05 396.381 1744.96 399.75 C 1744.97 407.349 1745.39 455.359 1744.51 459.831 C 1741.79 460.706 1742.95 460.717 1740.13 459.65 C 1736.41 454.882 1738.34 440.848 1738.39 434.465 L 1738.29 387.059 z" fill="rgb(0,0,0)" transform="translate(0,0)"></path>
<path d="M 1843.9 402.701 C 1844 402.785 1844.1 402.868 1844.2 402.951 C 1860.25 423.902 1855.43 455.187 1837.04 473.197 C 1813.43 496.321 1775.61 491.317 1744.92 491.044 L 1745.06 569.464 L 1724.75 569.49 L 1722.95 569.452 C 1720.6 567.291 1721.17 568.329 1720.4 565.549 L 1721.97 564 C 1726.8 562.64 1733.26 563.062 1738.4 563.117 L 1738.16 485.19 C 1756.97 485.511 1785.01 487.732 1802.58 482.793 C 1841.02 471.983 1853.79 438.264 1843.9 402.701 z" fill="rgb(0,0,0)" transform="translate(0,0)"></path>
<path d="M 1379.64 361.384 C 1385.26 361.216 1404.54 359.69 1408.05 362.68 L 1408.34 367.58 C 1411.7 370.917 1411.58 367.494 1416.62 369.718 C 1417.96 378.984 1417.11 421.224 1417.11 432.714 L 1417.1 571.205 C 1411.77 571.411 1391.96 573.069 1388.97 570.392 L 1388.96 564.76 C 1386.9 562.534 1385.43 563.09 1381.69 562.618 C 1378.98 559.657 1379.76 552.351 1379.8 548.257 C 1380.03 526.761 1379.87 505.29 1379.63 483.796 L 1292.2 483.855 C 1292.21 513.153 1292.43 542.451 1292.83 571.746 C 1287.25 571.872 1267.81 573.052 1264.26 570.456 L 1264.04 564.859 C 1262.4 562.997 1259.95 563.27 1256.88 562.803 C 1253.71 558.771 1255.07 381.008 1255.12 361.364 C 1262.73 361.503 1275.32 360.302 1282.18 361.706 C 1285.79 365.319 1281.86 364.093 1284.75 369.047 L 1291.12 369.389 C 1293.45 373.314 1292.76 440.671 1292.82 450.561 C 1321.74 450.727 1350.66 450.741 1379.59 450.602 C 1380.08 420.865 1380.1 391.122 1379.64 361.384 z" fill="rgb(143,108,64)" transform="translate(0,0)"></path>
<path d="M 1257.74 363.828 L 1281.5 363.775 C 1281.22 393.345 1281.67 423.616 1281.79 453.239 C 1315.17 452.931 1348.56 452.815 1381.94 452.891 C 1382.23 423.904 1383.04 392.672 1382.05 363.898 L 1405.96 363.783 C 1406.14 428.875 1405.93 493.967 1405.32 559.057 L 1403.99 560.575 C 1398.88 561.403 1388.41 560.995 1382.8 560.92 C 1382.94 531.599 1381.88 503.624 1382.57 473.829 C 1351.07 474.796 1312.81 474.296 1281.3 473.842 C 1281 502.934 1281.18 532.03 1281.82 561.117 L 1258.2 561.004 L 1257.74 363.828 z" fill="rgb(249,248,248)" transform="translate(0,0)"></path>
<path d="M 1409.09 370.286 C 1412.71 371.181 1412.24 370.522 1414.6 372.868 C 1416.07 389.994 1415.05 422.962 1415.04 441.009 L 1414.95 569.168 C 1408.49 569.573 1400.4 569.426 1393.8 569.472 L 1390.17 567.736 L 1389.97 565.959 L 1391.52 564.455 C 1397.68 562.819 1401.81 563.231 1408.12 563.4 C 1408.2 501.76 1406.68 431.231 1409.09 370.286 z" fill="rgb(0,0,0)" transform="translate(0,0)"></path>
<path d="M 1284.11 476.251 C 1304.15 476.542 1324.43 476.126 1344.47 476.364 C 1355.48 476.495 1368.85 475.935 1379.57 477.398 L 1380.08 479.54 C 1370.66 483.79 1304.27 482.016 1290.09 482.044 L 1290.08 500.406 L 1290.19 569.933 C 1280.45 570.136 1275.38 570.969 1266.35 567.492 L 1265.95 565.818 C 1270.71 563.105 1278.66 563.57 1284.09 563.66 L 1284.11 476.251 z" fill="rgb(0,0,0)" transform="translate(0,0)"></path>
<path d="M 1284.25 370.268 L 1288.82 371.383 C 1291.41 374.778 1290.48 441.785 1290.29 452.053 C 1287.5 451.189 1286.95 450.955 1284.46 449.43 C 1283.62 442.09 1284.03 428.318 1284.04 420.565 C 1284.02 403.799 1284.09 387.033 1284.25 370.268 z" fill="rgb(0,0,0)" transform="translate(0,0)"></path>
<path d="M 953.332 361.199 C 965.168 360.764 978.405 360.968 990.349 360.916 L 983.329 368.629 C 988.251 368.488 993.26 368.46 998.192 368.384 C 989.495 378.175 975.204 391.473 965.608 401.07 L 905.383 461.845 C 926.292 484.769 947.057 507.825 967.675 531.011 C 979.971 544.463 992.176 557.998 1004.29 571.614 C 993.051 571.285 981.808 571.123 970.564 571.129 C 967.689 566.831 960.696 561.386 956.71 557.796 C 947.176 549.209 893.206 483.378 885.292 480.396 L 883.747 481.53 C 880.57 489.89 881.964 558.13 882.016 571.944 C 877.021 572.012 856.583 572.912 853.687 570.685 C 853.878 568.317 853.921 567.038 853.807 564.666 C 849.714 560.938 849.87 564.792 845.331 561.939 C 843.869 542.456 844.976 512.102 844.99 491.398 L 844.775 361.112 C 851.985 361.431 859.687 360.678 866.944 361.087 C 877.06 361.658 870.523 364.457 874.361 368.986 L 880.287 369.238 C 883.806 372.212 881.673 423.762 882.551 433.012 C 905.718 408.657 929.315 384.716 953.332 361.199 z" fill="rgb(157,120,73)" transform="translate(0,0)"></path>
<path d="M 954.661 363.786 C 963.831 363.396 973.725 363.669 982.956 363.759 C 962.028 387.391 937.401 408.963 915.38 431.608 C 908.289 438.899 900.84 446.966 893.175 453.5 C 912.287 474.788 932.668 495.65 952.129 517.3 C 964.589 531.85 977.37 546.122 990.462 560.106 L 963.946 560.515 C 951.027 548.061 938.255 532.704 926.073 519.285 C 910.717 502.371 894.688 485.256 880.106 467.752 C 877.173 469.784 873.757 473.129 871.055 475.62 L 870.923 561.071 C 863.193 560.969 855.464 560.81 847.736 560.594 C 845.442 498.465 847.033 426.648 846.781 363.61 L 870.832 363.845 C 870.984 392.288 870.672 420.732 869.896 449.164 C 873.107 446.518 877.171 442.807 879.988 439.746 C 904.034 413.613 930.123 389.378 954.661 363.786 z" fill="rgb(249,248,248)" transform="translate(0,0)"></path>
<path d="M 980.65 370.301 L 992.67 370.531 C 965.013 399.415 934.042 429.742 905.621 457.952 L 903.959 459.432 C 900.898 458.793 900.106 456.808 897.605 453.983 C 924.18 428.136 954.611 397.052 980.65 370.301 z" fill="rgb(0,0,0)" transform="translate(0,0)"></path>
<path d="M 879.715 470.825 C 880.548 471.729 884.146 475.52 883.445 476.69 C 877.659 486.357 879.748 500.502 879.769 512.372 L 879.94 569.803 L 857.898 569.876 C 856.516 569.812 856.198 569.33 855.081 568.457 L 855.011 565.917 L 856.646 564.274 C 861.281 562.755 868.213 563.476 873.276 563.681 L 873.4 477.607 L 879.715 470.825 z" fill="rgb(0,0,0)" transform="translate(0,0)"></path>
<path d="M 873.359 370.492 C 875.819 370.785 877.407 370.714 879.391 372.155 C 882.214 389.332 878.689 417.342 879.359 435.432 C 879.399 436.503 877.718 438.703 876.998 439.493 C 875.874 440.136 874.755 440.788 873.641 441.447 C 872.238 437.977 873.308 378.876 873.359 370.492 z" fill="rgb(0,0,0)" transform="translate(0,0)"></path>
<path d="M 967.138 563.173 C 975.437 563.248 983.771 563.349 992.068 563.068 C 994.297 562.992 997.579 567.323 999.244 569.134 C 991.21 569.572 982.501 569.642 974.426 569.354 C 970.958 569.231 969.314 565.948 967.138 563.173 z" fill="rgb(0,0,0)" transform="translate(0,0)"></path>
<path d="M 699.768 358.338 C 703.799 357.64 714.591 357.365 718.768 357.604 C 761.942 360.077 780.733 377.607 808.079 406.089 C 801.78 410.657 795.192 415.182 788.816 419.677 C 784.474 413.722 782.246 414.159 776.931 409.743 C 731.751 372.199 660.94 391.758 646.382 451.234 C 629.672 519.504 697.844 564.719 756.407 528.533 C 765.761 522.28 769.606 518.342 777.039 509.921 C 787.644 518.328 796.726 526.526 806.592 535.741 C 764.177 581.167 704.219 587.742 655.198 549.821 C 630.931 531.731 611.93 506.382 607.888 475.496 C 600.142 416.305 642.027 366.539 699.768 358.338 z" fill="rgb(157,120,73)" transform="translate(0,0)"></path>
<path d="M 705.042 360.402 C 739.847 356.192 772.924 372.319 795.772 397.733 C 790.465 401.888 785.769 406.055 780.722 410.515 C 774.265 403.467 765.225 396.2 756.836 391.615 C 736.669 380.679 712.972 378.239 691 384.837 C 670.123 390.964 652.561 405.183 642.225 424.329 C 632.157 443.228 630.577 465.759 636.801 486.142 C 643.182 507.28 657.866 524.924 677.493 535.039 C 698.895 546.23 720.259 546.095 742.792 538.998 C 756.724 533.113 767.759 525.703 776.807 513.513 C 782.921 518.16 788.72 522.551 794.567 527.528 C 776.673 548.04 751.662 560.996 724.585 563.78 C 669.532 569.293 615.194 526.761 610.056 471.159 C 607.764 443.84 616.484 416.737 634.276 395.879 C 651.962 374.812 677.864 362.764 705.042 360.402 z" fill="rgb(249,248,248)" transform="translate(0,0)"></path>
<path d="M 703.633 384.264 C 721.426 382.656 732.951 384.14 749.497 391.382 C 693.15 380.672 649.03 406.248 641.901 465.2 C 641.508 482.509 644.929 491.657 649.418 507.963 C 619.289 455.237 642.594 394.9 703.633 384.264 z" fill="rgb(0,0,0)" transform="translate(0,0)"></path>
<path d="M 689.368 563.815 C 719.107 570.634 745.79 566.308 772.292 550.552 C 779.893 546.033 790.622 532.537 798.672 531.414 C 801.415 532.303 800.485 531.573 802.049 534.345 C 802.053 536.961 801.284 537.566 799.156 539.728 C 779.006 560.358 751.448 572.082 722.611 572.292 C 709.846 572.276 701.62 570.252 689.627 566.466 L 689.368 563.815 z" fill="rgb(0,0,0)" transform="translate(0,0)"></path>
<path d="M 797.936 399.877 C 800.116 401.491 802.609 404.126 804.547 406.102 C 799.705 409.523 794.829 412.897 789.921 416.223 C 778.617 409.973 790.817 405.189 797.936 399.877 z" fill="rgb(0,0,0)" transform="translate(0,0)"></path>
<path d="M 689.627 566.466 C 683.145 563.955 677.883 561.597 671.826 558.199 C 676.613 559.704 684.791 562.134 689.368 563.815 L 689.627 566.466 z" fill="rgb(18,18,18)" transform="translate(0,0)"></path>
<path d="M 1141.75 358.247 C 1178.13 352.794 1194.69 368.824 1217.46 392.938 C 1211.44 398.272 1206.23 402.169 1199.74 406.964 C 1193.25 400.433 1181.06 392.54 1172.06 390.23 C 1156.62 386.261 1135.24 392.938 1131.5 410.322 C 1127.33 429.675 1139.16 434.797 1154.08 441.646 C 1178.17 452.706 1201.62 463.972 1215.93 487.394 C 1233.23 514.396 1225.76 547.095 1198.88 564.622 C 1182.48 575.154 1164.05 576.639 1145.26 572.569 C 1114.76 565.097 1097.67 546.31 1086.11 518.142 C 1092.84 514.336 1103.02 510.233 1110.33 507.053 C 1112.88 514.185 1114.85 512.961 1116.49 516.184 C 1126.9 536.639 1134.84 543.72 1159.51 541.154 C 1185.41 539.537 1200.8 501.487 1177.7 486.37 C 1138.71 460.857 1066.75 444.447 1103.54 380.604 C 1110.8 368.001 1127.35 360.789 1141.75 358.247 z" fill="rgb(143,108,64)" transform="translate(0,0)"></path>
<path d="M 1150.76 360.417 C 1171.1 356.566 1192.69 370.099 1205.77 384.298 C 1199.96 389.916 1197.66 391.798 1190.92 396.186 C 1175.1 380.483 1150.97 374.027 1131.71 385.824 C 1114.59 396.305 1118.08 424.14 1133.69 434.06 C 1157.48 449.179 1189.35 455.83 1205.88 480.283 C 1222.79 505.294 1213.44 540.338 1187.75 555.45 C 1169.29 566.434 1149.86 565.429 1129.86 560.565 C 1106.53 551.707 1099.55 540.833 1089.48 519.521 C 1095.62 516.515 1102.36 513.562 1108.61 510.68 C 1117.48 531.456 1128.82 544.433 1153.17 544.471 C 1180.06 544.513 1201.94 518.031 1187.6 493.065 C 1166.99 457.15 1098.17 461.928 1096.9 411.468 C 1096.64 400.932 1102.63 385.023 1109.54 376.645 C 1120.15 365.526 1135.74 360.847 1150.76 360.417 z" fill="rgb(249,248,248)" transform="translate(0,0)"></path>
<path d="M 1214.04 489.829 C 1234.84 511.352 1218.52 553.66 1193.03 565.373 C 1171.72 575.168 1157.64 574.551 1135.71 567.915 C 1132.05 566.35 1127.86 564.19 1124.22 562.434 C 1177.95 577.619 1228.12 551.255 1214.04 489.829 z" fill="rgb(0,0,0)" transform="translate(0,0)"></path>
<path d="M 1152.7 382.476 C 1162.37 382.855 1165.32 383.056 1174.04 386.771 C 1166.69 392.336 1143.99 377.398 1129.33 406.901 C 1128.03 414.54 1128.33 418.948 1129.07 426.442 C 1114.96 403.676 1127.22 384.803 1152.7 382.476 z" fill="rgb(0,0,0)" transform="translate(0,0)"></path>
<path d="M 1207.24 387.835 C 1220.39 393.024 1208.11 397.539 1200.7 403.068 C 1186.62 399.337 1201.45 392.434 1207.24 387.835 z" fill="rgb(0,0,0)" transform="translate(0,0)"></path>
<path d="M 1659.24 595.315 C 1661.91 595.668 1662.87 595.564 1665.02 597.221 C 1665.63 607.186 1665.58 640.641 1664.55 650.247 L 1662.42 651.408 C 1658.12 649.714 1660.65 648.623 1657.8 647.525 C 1649.28 653.977 1643.76 654.018 1634.23 648.99 C 1630.93 645.677 1628.31 642.44 1627.59 637.7 C 1626.86 633.165 1628.08 628.536 1630.95 624.945 C 1638.74 615.026 1650.13 616.729 1659.02 623.94 C 1658.92 614.398 1658.99 604.855 1659.24 595.315 z" fill="rgb(249,248,248)" transform="translate(0,0)"></path>
<path d="M 1643.86 623.154 C 1650.42 621.749 1656.91 625.846 1658.46 632.38 C 1660.01 638.913 1656.06 645.49 1649.57 647.189 C 1645.23 648.323 1640.62 647.021 1637.52 643.787 C 1634.42 640.553 1633.32 635.894 1634.63 631.611 C 1635.94 627.328 1639.47 624.092 1643.86 623.154 z" fill="rgb(0,0,0)" transform="translate(0,0)"></path>
<path d="M 935.766 618.11 C 942.991 618.353 944.913 618.8 949.584 623.504 C 951.2 617.146 956.254 617.996 956.895 621.03 L 956.947 621.035 C 957.311 623.295 957.435 647.092 956.797 650.683 C 955.759 651.803 953.068 651.247 952.401 651.179 C 949.43 650.876 950.644 647.005 948.32 649.176 C 918.491 662.629 908.659 624.779 932.995 618.804 C 933.92 618.58 934.844 618.348 935.766 618.11 z" fill="rgb(249,248,248)" transform="translate(0,0)"></path>
<path d="M 937.216 623.058 C 943.798 622.387 949.729 627.047 950.636 633.6 C 951.543 640.153 947.099 646.248 940.583 647.389 C 936.155 648.165 931.656 646.46 928.854 642.945 C 926.051 639.43 925.392 634.664 927.135 630.52 C 928.877 626.376 932.744 623.514 937.216 623.058 z" fill="rgb(0,0,0)" transform="translate(0,0)"></path>
<path d="M 505.36 618.171 C 517.639 618.216 518.179 622.715 521.089 622.806 C 521.454 622.543 521.518 622.391 521.624 621.951 C 521.783 621.288 521.93 620.104 522.561 619.65 C 523.572 618.921 524.916 619.123 526.078 619.3 C 526.512 619.366 527.202 619.511 527.437 619.928 C 528.277 621.422 528.443 648.284 527.694 650.341 C 527.503 650.865 526.64 651.443 526.146 651.601 C 525.212 651.899 523.43 651.572 522.581 651.06 C 521.714 650.538 521.499 649.935 521.223 648.995 C 521.173 648.824 521.163 648.643 521.107 648.474 C 521.012 648.192 520.871 647.827 520.567 647.705 L 520.488 647.75 L 520.129 648.328 C 513.622 652.292 508.148 654.087 500.495 650.964 C 496.363 649.236 493.126 645.884 491.542 641.695 C 487.073 629.755 494.859 621.748 505.36 618.171 z" fill="rgb(249,248,248)" transform="translate(0,0)"></path>
<path d="M 507.312 623.235 C 513.723 622.12 519.876 626.248 521.276 632.603 C 522.675 638.958 518.825 645.288 512.538 646.969 C 508.216 648.124 503.608 646.813 500.541 643.555 C 497.474 640.297 496.444 635.618 497.858 631.373 C 499.273 627.128 502.904 624.003 507.312 623.235 z" fill="rgb(0,0,0)" transform="translate(0,0)"></path>
<path d="M 1592.34 618.154 C 1617.35 617.165 1626.24 640.659 1600.96 652.424 C 1574.41 654.112 1567.57 626.722 1592.34 618.154 z" fill="rgb(249,248,248)" transform="translate(0,0)"></path>
<path d="M 1591.73 624.293 C 1595.75 622.555 1600.39 623.114 1603.88 625.758 C 1607.37 628.402 1609.16 632.72 1608.58 637.058 C 1607.99 641.396 1605.11 645.081 1601.04 646.702 C 1594.88 649.158 1587.89 646.211 1585.35 640.086 C 1582.8 633.961 1585.64 626.927 1591.73 624.293 z" fill="rgb(0,0,0)" transform="translate(0,0)"></path>
<path d="M 1181.13 618.21 C 1207.75 617.016 1214.96 641.613 1190.89 652.32 C 1163.65 654.721 1158.96 626.419 1181.13 618.21 z" fill="rgb(249,248,248)" transform="translate(0,0)"></path>
<path d="M 1183.24 623.345 C 1189.55 621.74 1196.02 625.363 1197.95 631.586 C 1199.87 637.809 1196.59 644.451 1190.47 646.696 C 1186.23 648.254 1181.47 647.344 1178.1 644.329 C 1174.73 641.314 1173.29 636.686 1174.37 632.293 C 1175.45 627.9 1178.86 624.46 1183.24 623.345 z" fill="rgb(0,0,0)" transform="translate(0,0)"></path>
<path d="M 745.735 599.225 C 747.591 606.894 758.615 645.264 758.333 650.115 C 755.625 650.844 755.222 650.985 752.504 650.376 C 750.89 647.427 746.339 627.647 745.224 623.124 C 744.977 621.762 744.305 621.058 743.497 619.929 C 739.721 622.052 729.139 646.271 725.218 652.792 C 718.994 642.413 714.548 628.965 707.145 617.122 C 704.637 626.955 702.182 636.64 700.18 646.608 C 699.702 648.988 697.504 650.696 695.463 651.859 L 693.758 651.351 C 692.36 644.918 703.303 608.871 705.53 600.722 C 708.22 603.414 722.957 635.128 725.503 640.491 L 745.735 599.225 z" fill="rgb(249,248,248)" transform="translate(0,0)"></path>
<path d="M 1479.42 600.192 C 1488.68 599.198 1505.6 599.884 1509.32 610.742 C 1508.02 613.225 1508.74 612.402 1505.36 613.56 C 1502.87 611.592 1500.77 609.998 1497.89 608.615 C 1491.37 605.432 1483.84 605.036 1477.02 607.519 C 1447.71 618.013 1469.73 655.033 1493.93 645.252 C 1498.52 643.4 1509.08 637.358 1506.45 631.204 L 1503.25 630.669 C 1498.85 630.692 1489.66 631.45 1486.98 628.348 C 1491.11 624.127 1510.71 620.461 1514.84 629.478 C 1515.05 639.465 1506.48 647.479 1497.69 650.739 C 1489.52 653.817 1480.46 653.412 1472.6 649.619 C 1466.02 646.409 1460.45 640.778 1458.07 633.779 C 1455.93 627.427 1456.46 620.479 1459.53 614.523 C 1463.95 605.99 1470.97 602.993 1479.42 600.192 z" fill="rgb(249,248,248)" transform="translate(0,0)"></path>
<path d="M 851.149 618.199 C 861.402 617.597 877.337 620.518 874.545 636.304 C 871.367 637.68 850.731 636.596 848.919 636.864 C 838.47 638.408 850.922 650.986 864.425 645.263 C 866.384 643.634 868.279 641.16 871.054 641.479 C 872.17 641.302 874.318 643.111 873.632 644.337 C 868.767 653.032 856.473 653.714 848.522 650.858 C 844.227 649.345 840.733 646.147 838.849 642.002 C 833.803 630.81 841.498 622.412 851.149 618.199 z" fill="rgb(249,248,248)" transform="translate(0,0)"></path>
<path d="M 850.756 624.159 C 866.163 622.945 872.765 631.808 864.25 631.774 C 855.269 631.579 837.124 635.086 850.756 624.159 z" fill="rgb(0,0,0)" transform="translate(0,0)"></path>
<path d="M 1543.5 618.128 C 1551.63 618.033 1566.92 620.919 1565.54 635.742 C 1565.27 638.646 1534.53 634.706 1534.89 638.242 C 1535.73 646.507 1548.72 649.083 1555.38 644.559 C 1557.69 642.63 1558.84 640.91 1562.08 641.483 C 1563.02 641.458 1564.92 642.858 1564.13 644.021 C 1558.58 652.522 1544.76 654.281 1536.21 649.669 C 1522.43 642.247 1526.27 622.826 1540.95 618.825 C 1541.8 618.6 1542.65 618.367 1543.5 618.128 z" fill="rgb(249,248,248)" transform="translate(0,0)"></path>
<path d="M 1545.15 623.09 C 1554.16 624.058 1566.67 631.679 1549.27 631.724 C 1547.89 631.724 1537.35 631.923 1536.9 631.681 C 1531.19 628.606 1543.63 623.604 1545.15 623.09 z" fill="rgb(0,0,0)" transform="translate(0,0)"></path>
<path d="M 1695.44 618.126 C 1703.03 617.862 1711.87 618.729 1715.56 625.956 C 1718.82 632.34 1720.64 637.213 1712.1 636.808 C 1704.23 636.436 1695.36 636.555 1687.62 637.132 C 1685.55 637.286 1687.42 640.716 1688.15 641.618 L 1687.95 641.464 C 1692.52 647.366 1701.17 648.661 1707.39 644.7 C 1709.29 643.182 1711.82 640.581 1713.43 641.639 C 1723.42 648.613 1698.03 655.176 1690.57 650.452 C 1674.33 640.163 1677.32 623.963 1695.44 618.126 z" fill="rgb(249,248,248)" transform="translate(0,0)"></path>
<path d="M 1697.97 623.242 C 1703.24 623.815 1707.38 624.27 1710.29 629.466 C 1710.07 632.772 1700.68 631.566 1697.75 631.59 C 1696.36 631.596 1689.08 631.786 1688.6 631.429 C 1683.4 627.611 1696.34 623.66 1697.97 623.242 z" fill="rgb(0,0,0)" transform="translate(0,0)"></path>
<path d="M 311.217 600.242 C 316.637 599.392 322.167 599.545 327.533 600.693 C 330.709 601.385 335.65 602.501 337.45 605.27 C 338.402 608.664 338.793 608.076 337.836 610.947 C 331.458 610.653 326.513 605.533 318.715 605.39 C 312.765 605.263 307.014 607.54 302.764 611.706 C 298.759 615.666 296.556 621.096 296.669 626.727 C 297.003 642.9 311.428 646.386 324.649 645.971 C 328.808 645.19 333.231 642.683 337.085 640.76 L 338.038 641.223 L 338.992 645.617 C 334.368 653.182 313.641 653.736 305.604 650.205 C 298.835 647.224 293.573 641.611 291.034 634.664 C 288.741 628.336 289.093 621.352 292.009 615.286 C 296.228 606.477 302.717 603.332 311.217 600.242 z" fill="rgb(249,248,248)" transform="translate(0,0)"></path>
<path d="M 1127.21 600.024 C 1136.91 600.019 1147.17 599.574 1156.75 600.357 C 1157.68 600.433 1157.95 604.604 1156.89 604.897 C 1151.22 606.477 1139.97 605.727 1133.98 605.736 L 1133.92 621.756 C 1138.63 621.803 1152.27 621.356 1157.23 622.465 C 1158.08 622.654 1158.1 626.081 1158.16 627.078 C 1151.95 628.059 1140.49 627.684 1133.7 627.703 C 1133.66 633.269 1134.35 645.094 1132.88 650.692 C 1132.31 651.364 1127.63 651.149 1127.58 650.306 C 1126.82 637.641 1127.17 611.994 1127.21 600.024 z" fill="rgb(249,248,248)" transform="translate(0,0)"></path>
<path d="M 380.78 618.75 L 386.081 618.881 C 390.96 620.942 396.148 634.806 399.224 640.803 C 401.749 634.874 405.267 625.639 409.037 620.389 C 410.145 618.846 411.436 619.259 413.72 619.14 L 414.683 620.472 C 412.748 627.121 405.102 641.314 401.733 648.73 C 399.68 653.796 393.83 670.513 388.103 671.545 C 386.265 665.658 392.551 653.141 395.154 647.072 C 391.348 637.674 385.649 627.749 380.78 618.75 z" fill="rgb(249,248,248)" transform="translate(0,0)"></path>
<path d="M 809.019 618.162 C 818.844 618.085 825.102 621.407 824.061 631.367 C 823.424 637.463 827.014 653.548 819.948 651.286 C 816.636 650.67 818.297 646.132 817.969 643.28 C 816.675 632.009 822.722 625.349 808.529 623.351 C 797.575 630.174 803.461 637.827 801.907 649.046 C 801.403 652.685 795.709 651.128 795.701 649.911 C 795.632 640.027 795.023 629.457 796.151 619.695 C 797.12 614.868 802.68 624.848 805.026 620.071 C 805.161 619.794 808.409 618.421 809.019 618.162 z" fill="rgb(249,248,248)" transform="translate(0,0)"></path>
<path d="M 1259.99 617.913 C 1264 618.08 1273.07 619.913 1272.99 624.02 C 1271.6 631.479 1264.85 620.914 1261.7 623.303 C 1251.02 631.408 1275.22 631.836 1275.67 641.009 C 1276.13 650.415 1270.4 651.387 1263.53 652.751 C 1260.89 652.212 1246.34 648.302 1252.52 642.371 C 1255.73 639.291 1257.92 645.733 1261.25 646.641 C 1263.4 647.228 1268.21 647.783 1269.26 643.952 C 1269.82 636.532 1256.36 636.954 1253.55 630.914 C 1250.33 623.996 1254.51 620.967 1259.99 617.913 z" fill="rgb(249,248,248)" transform="translate(0,0)"></path>
<path d="M 573.93 617.906 C 575.924 618.014 589.848 619.421 585.843 626.02 C 583.644 629.643 578.797 622.336 575.613 623.464 C 573.616 624.172 572.733 624.754 573.091 628.007 C 575.92 633.321 587.757 633.959 589.091 641.006 C 590.87 650.407 583.265 651.575 576.18 652.599 C 572.953 651.659 557.813 646.424 567.28 642.529 C 569.809 641.489 575.305 649.711 580.456 646.081 C 589.212 639.608 570.267 636.895 568.072 631.989 C 564.858 624.806 567.516 621.777 573.93 617.906 z" fill="rgb(249,248,248)" transform="translate(0,0)"></path>
<path d="M 1004.37 617.844 C 1019.11 619.655 1017.87 629.142 1010.54 625.92 C 1009.08 625.278 1005.73 620.803 1003.03 624.555 C 997.182 632.688 1018.84 632.828 1018.27 641.983 C 1018.38 651.547 1011.44 652.434 1004.05 652.682 C 1002.25 652.053 989.489 647.065 994.852 642.757 C 997.034 641.005 998.801 642.195 1000.45 644.325 C 1007.34 652.948 1018.89 641.849 1006.26 637.699 C 996.833 634.601 989.245 624.109 1001.95 618.832 L 1004.37 617.844 z" fill="rgb(249,248,248)" transform="translate(0,0)"></path>
<path d="M 1340.9 617.909 C 1345.3 618.025 1361.86 621.526 1351.41 626.811 C 1349.64 627.706 1345.72 621.171 1342.62 623.26 C 1332.6 629.991 1355.87 632.985 1356.3 639.951 C 1358.28 648.792 1353.33 650.336 1347.07 652.655 C 1345.03 652.404 1327.82 650.033 1333.57 643.136 C 1337.15 640.339 1340.41 647.088 1343.5 646.848 C 1363.43 645.297 1337.1 633.684 1336.04 631.996 C 1331.62 624.982 1335.55 621.405 1340.9 617.909 z" fill="rgb(249,248,248)" transform="translate(0,0)"></path>
<path d="M 1225.01 618.013 C 1229.88 618.215 1245.98 622.689 1234.99 626.108 C 1234.6 626.227 1223.26 618.931 1224.32 627.429 C 1224.98 632.719 1240.04 634.049 1240.8 641.003 C 1241.8 650.07 1235.16 651.517 1228.36 652.707 C 1224.23 651.759 1218.32 650.096 1216.46 645.21 C 1215.7 643.205 1220.18 639.485 1221.85 642.565 C 1222.82 644.339 1225.66 646.729 1227.95 647.027 C 1241.35 645.805 1231.85 639.211 1226.26 636.633 C 1215.64 631.734 1214.65 624.291 1225.01 618.013 z" fill="rgb(249,248,248)" transform="translate(0,0)"></path>
<path d="M 432.962 617.912 C 437.619 618.074 444.757 619.138 446.544 623.255 C 448.054 626.731 439.799 627.593 438.414 623.598 C 438.025 622.477 432.73 622.853 432.265 625.217 C 430.963 633.576 446.058 632.427 448.301 640.399 C 450.386 647.811 445.491 650.19 439.191 652.497 C 436.447 652.197 418.328 649.228 426.183 642.359 C 428.172 640.619 431.163 645.486 433.975 646.319 C 436.357 647.024 440.371 648.041 442.009 644.319 C 443.335 637.25 428.852 636.923 426.474 630.189 C 424 623.182 427.238 621.008 432.962 617.912 z" fill="rgb(249,248,248)" transform="translate(0,0)"></path>
<path d="M 1737.93 617.906 C 1741.53 618.203 1753.93 620.293 1749.88 626.177 C 1747.77 629.252 1740.4 619.212 1737.56 625.318 C 1733.96 633.074 1752.71 632.071 1753.11 641.488 C 1753.52 651.36 1746.94 651.866 1738.94 652.612 C 1736.61 651.75 1724.35 647.096 1731.2 642.991 C 1734.79 640.677 1736.61 646.943 1739.04 646.992 C 1760.67 647.423 1734.04 633.41 1733.83 633.165 C 1727.75 626.135 1731.33 621.758 1737.93 617.906 z" fill="rgb(249,248,248)" transform="translate(0,0)"></path>
<path d="M 544.259 595.456 L 549.507 596.314 C 551.946 599.452 550.916 643.442 551.162 652.208 C 548.538 651.734 546.597 651.734 544.759 649.933 C 543.453 639.889 544.238 607.446 544.259 595.456 z" fill="rgb(249,248,248)" transform="translate(0,0)"></path>
<path d="M 1312.42 595.657 C 1315.98 596.149 1316.79 595.574 1318.71 597.738 C 1319.39 605.309 1319.53 646.22 1318.17 652.645 C 1315.49 651.941 1314.67 651.947 1312.73 650.015 C 1311.55 636.254 1312.38 610.575 1312.42 595.657 z" fill="rgb(249,248,248)" transform="translate(0,0)"></path>
<path d="M 974.159 595.314 L 979.025 596.417 C 981.692 599.547 980.31 645.496 980.183 652.574 C 978.994 652.242 974.426 651.103 974.365 649.81 C 973.551 632.583 973.836 612.317 974.159 595.314 z" fill="rgb(249,248,248)" transform="translate(0,0)"></path>
<path d="M 466.274 605.271 C 466.853 605.374 470.653 605.847 471.013 606.189 C 475.715 610.643 466.648 620.311 478.008 619.808 C 479.734 619.732 479.648 625.675 476.506 624.583 C 476.376 624.538 472.96 624.306 472.582 625.044 C 471.248 633.554 472.07 643.177 471.739 652.047 C 470.613 651.813 466.769 651.218 466.618 650.69 C 464.973 648.996 467.141 625.188 465.438 625.251 C 458.671 625.503 454.235 620.272 465.486 619.091 C 466.455 618.99 466.088 609.064 466.274 605.271 z" fill="rgb(249,248,248)" transform="translate(0,0)"></path>
<path d="M 365.14 618.217 C 368.031 618.228 373.497 617.386 374.284 620.783 C 372.589 626.144 368.675 621.121 363.059 626.09 C 358.094 630.483 359.658 643.4 359.618 650.631 C 348.64 653.863 355.07 640.896 353.467 633.853 C 353.207 632.711 353.402 620.61 353.864 619.974 C 355.864 617.224 358.573 621.927 365.14 618.217 z" fill="rgb(249,248,248)" transform="translate(0,0)"></path>
<path d="M 902.271 617.954 C 903.857 618.035 911.202 618.433 910.476 621.27 C 909.019 626.967 903.197 620.704 899.253 625.272 C 894.391 630.905 896.142 643.351 896.091 650.876 C 893.536 651.415 889.664 652.384 889.852 648.536 C 890.263 640.165 888.908 628.124 890.515 620.067 C 890.902 618.127 894.654 619.349 896.543 621.625 C 896.696 621.584 901.72 618.313 902.271 617.954 z" fill="rgb(249,248,248)" transform="translate(0,0)"></path>
<path d="M 1289.06 618.324 C 1290.49 618.577 1295.02 619.077 1295.12 619.69 C 1296.09 625.889 1295.6 646.488 1295.59 651.727 C 1293.96 651.481 1290.89 651.552 1289.58 650.595 C 1288.05 649.477 1289.03 621.78 1289.06 618.324 z" fill="rgb(249,248,248)" transform="translate(0,0)"></path>
<path d="M 772.638 618.718 C 779.309 619.516 779.09 618.414 779.06 625.514 C 779.024 634.149 779.031 642.818 779.01 651.454 C 778.38 651.381 773.257 651.101 773.201 650.606 C 772.065 640.694 772.65 628.875 772.638 618.718 z" fill="rgb(249,248,248)" transform="translate(0,0)"></path>
<path d="M 1067.27 621.484 C 1071.12 619.593 1075.78 621.205 1077.64 625.074 C 1079.5 628.943 1077.85 633.587 1073.97 635.417 C 1070.13 637.226 1065.54 635.599 1063.71 631.773 C 1061.87 627.947 1063.46 623.353 1067.27 621.484 z" fill="rgb(189,147,89)" transform="translate(0,0)"></path>
<path d="M 1405.88 621.646 C 1408.36 620.346 1411.35 620.5 1413.68 622.048 C 1416.01 623.596 1417.3 626.291 1417.06 629.077 C 1416.82 631.863 1415.08 634.296 1412.52 635.421 C 1408.75 637.08 1404.34 635.452 1402.55 631.739 C 1400.76 628.026 1402.24 623.563 1405.88 621.646 z" fill="rgb(157,120,73)" transform="translate(0,0)"></path>
<path d="M 639.346 621.488 C 643.195 619.818 647.671 621.561 649.376 625.396 C 651.08 629.23 649.375 633.721 645.555 635.459 C 641.689 637.217 637.13 635.487 635.405 631.605 C 633.679 627.723 635.45 623.18 639.346 621.488 z" fill="rgb(189,147,89)" transform="translate(0,0)"></path>
<path d="M 41.5501 501.468 C 43.8077 504.603 58.4784 544.859 58.6864 551.169 C 58.8063 554.808 57.5901 567.814 57.1432 572.441 C 57.9077 573.309 58.714 573.901 59.7015 574.501 C 55.6337 578.237 54.1961 579.77 50.8578 584.161 L 48.4139 584.197 L 47.6231 583.181 C 50.3877 580.39 53.0364 577.987 55.9588 575.36 C 55.6374 565.195 57.9461 554.781 55.8929 545.243 C 53.3205 533.293 41.7137 513.063 41.5501 501.468 z" fill="rgb(50,50,50)" transform="translate(0,0)"></path>
<path d="M 1290.46 603.484 C 1292.55 602.429 1295.11 603.236 1296.22 605.303 C 1297.33 607.37 1296.58 609.945 1294.55 611.105 C 1293.18 611.883 1291.5 611.859 1290.16 611.042 C 1288.81 610.225 1288.02 608.745 1288.08 607.174 C 1288.15 605.604 1289.06 604.191 1290.46 603.484 z" fill="rgb(249,248,248)" transform="translate(0,0)"></path>
<path d="M 773.313 604.578 C 774.514 603.617 776.141 603.38 777.566 603.958 C 778.991 604.536 779.992 605.84 780.184 607.366 C 780.375 608.892 779.727 610.402 778.488 611.315 C 776.626 612.687 774.009 612.317 772.6 610.482 C 771.191 608.648 771.508 606.024 773.313 604.578 z" fill="rgb(249,248,248)" transform="translate(0,0)"></path>
<path d="M 65.278 456.88 C 66.8764 461.048 55.9609 471.236 52.6178 473.913 C 52.3046 470.653 62.6242 459.071 65.278 456.88 z" fill="rgb(18,18,18)" transform="translate(0,0)"></path>
<path d="M 48.0164 478.942 C 48.9685 481.844 46.5374 482.973 44.6895 485.351 L 43.0364 487.503 C 43.195 490.44 43.6003 493.626 43.4266 496.505 C 39.9399 495.638 41.5298 489.829 41.6969 486.548 C 42.963 484.828 44.8477 482.207 46.2724 480.728 L 48.0164 478.942 z" fill="rgb(18,18,18)" transform="translate(0,0)"></path>
<metadata><recraft-signature>{"signed_by": "recraft", "signature_b64": "XBB7lN4Z/jE25BSaXv1UZsHMPzjq9cHms23uvW7fM0zgtvfiKZEMb6+xgKjuVxjlBvsao5U5OjD3fkGiY+PiAQ==", "signing_algo": "Ed25519", "generation_timestamp": 1780247343, "identifier": "8f2bd084-d720-440e-be40-2bf8d886bc95"}</recraft-signature></metadata></svg>