<svg xmlns="http://www.w3.org/2000/svg" height="768" preserveAspectRatio="none" style="display: block;" version="1.1" viewBox="0 0 2048 1024" width="1536">
<path d="M 0 0 L 2048 0 L 2048 2.44786 L 2048 18.5613 L 2048 1004.21 L 2048 1019.79 L 2048 1024 L 0 1024 L 0 1022.28 L 0 1006.47 L 0 16.9494 L 0 0.817307 L 0 0 z" fill="rgb(0,0,0)" transform="translate(0,0)"></path>
<path d="M 67.3062 940.071 L 1984.69 939.999 C 2005.44 961.742 2026.55 983.148 2048 1004.21 L 2048 1019.79 L 2048 1024 L 0 1024 L 0 1022.28 L 0 1006.47 C 22.6843 984.315 44.2706 961.931 67.3062 940.071 z" fill="rgb(0,0,0)" transform="translate(0,0)"></path>
<path d="M 67.3062 940.071 L 1984.69 939.999 C 2005.44 961.742 2026.55 983.148 2048 1004.21 L 2048 1019.79 C 2025.36 996.879 2002.48 974.207 1979.36 951.779 L 713.623 951.907 L 295.003 951.709 C 221.327 951.644 144.965 952.813 71.4992 951.195 C 48.3724 974.348 23.6465 1000.02 0 1022.28 L 0 1006.47 C 22.6843 984.315 44.2706 961.931 67.3062 940.071 z" fill="rgb(186,139,73)" transform="translate(0,0)"></path>
<path d="M 0 0 L 2048 0 L 2048 2.44786 L 2048 18.5613 C 2027.37 40.4609 2004.82 61.0771 1983.7 83.1337 L 66.8052 83.0536 C 50.4006 64.5352 18.5572 34.9747 0 16.9494 L 0 0.817307 L 0 0 z" fill="rgb(0,0,0)" transform="translate(0,0)"></path>
<path d="M 0 0.817307 C 22.1977 22.9181 49.1338 51.5238 71.8967 72.0097 L 1978.54 71.9997 C 2002.27 49.3911 2025.42 26.2001 2048 2.44786 L 2048 18.5613 C 2027.37 40.4609 2004.82 61.0771 1983.7 83.1337 L 66.8052 83.0536 C 50.4006 64.5352 18.5572 34.9747 0 16.9494 L 0 0.817307 z" fill="rgb(186,139,73)" transform="translate(0,0)"></path>
<path d="M 636.413 315.323 C 690.312 311.577 711.878 390.444 714.394 431.686 C 717.683 478.663 708.263 528.693 677.383 565.631 C 667.919 576.953 657.565 582.547 642.907 583.611 C 632.271 582.96 619.288 579.647 611.128 572.513 C 551.055 519.987 547.801 404.592 593.886 342.377 C 605.3 326.969 618.18 317.837 636.413 315.323 z" fill="rgb(230,211,185)" transform="translate(0,0)"></path>
<path d="M 636.348 324.34 C 680.312 322.31 698.693 381.254 703.178 416.34 C 710.093 470.44 701.93 517.337 668.988 561.504 L 668.548 561.993 C 651.164 580.966 630.827 577.423 613.224 560.846 C 612.294 486.474 612.94 410.826 613.039 336.353 C 621.15 329.649 626.078 326.412 636.348 324.34 z" fill="rgb(0,0,0)" transform="translate(0,0)"></path>
<path d="M 1410.82 315.28 C 1464.85 311.878 1484.27 386.623 1488.41 428.241 C 1492.97 473.971 1477.45 579.69 1417.52 584.017 C 1314.18 574.296 1312.35 332.09 1410.82 315.28 z" fill="rgb(230,211,185)" transform="translate(0,0)"></path>
<path d="M 1412.61 324.297 C 1459.56 324.271 1476.71 393.165 1479.23 429.921 C 1482.42 476.42 1474.2 526.026 1443.26 562.433 C 1424.88 581.231 1406.66 577.919 1387.99 561.352 L 1387.37 336.139 C 1396.3 328.738 1401.36 325.934 1412.61 324.297 z" fill="rgb(0,0,0)" transform="translate(0,0)"></path>
<path d="M 1905.36 86.7892 C 1915.18 86.422 1926.65 86.7418 1936.59 86.7755 C 1955.62 192.742 1969.34 302.138 1987.32 408.534 C 1993.17 443.165 1997.18 477.733 2004.06 512.292 C 1993.94 524.078 1983.5 535.585 1972.75 546.801 L 1968.91 534.562 C 1952.62 474.839 1933.75 414.62 1916.2 355.202 C 1896.5 286.696 1876.32 218.329 1855.66 150.108 C 1870.98 133.149 1890.24 105.371 1905.36 86.7892 z" fill="rgb(14,78,87)" transform="translate(0,0)"></path>
<path d="M 112.438 86.9061 L 142.747 87.1546 C 158.719 105.789 178.112 133.079 193.774 149.441 C 191.525 159.566 185.404 177.944 182.303 188.36 L 156.752 273.668 C 134.809 348.288 111.636 432.079 87.6382 505.374 C 83.8822 519.093 79.8283 532.728 75.4795 546.27 C 66.7923 535.499 54.6967 523.294 45.013 513.435 L 112.438 86.9061 z" fill="rgb(14,78,87)" transform="translate(0,0)"></path>
<path d="M 1941.51 87.0009 L 2043.84 86.9771 L 2043.69 466.948 C 2037.43 473.47 2030.9 481.411 2024.95 488.332 C 2019.17 494.811 2013.47 501.36 2007.85 507.975 L 1966.58 243.463 C 1958.85 191.212 1950.49 139.054 1941.51 87.0009 z" fill="rgb(186,139,73)" transform="translate(0,0)"></path>
<path d="M 5.61289 87.1442 L 107.378 87.0498 C 99.6091 126.665 93.3384 176.222 87.0518 216.694 L 50.1613 451.768 C 47.1588 470.618 43.9099 489.429 40.4155 508.194 C 29.8946 494.304 16.9748 481.104 5.83719 466.682 L 5.61289 87.1442 z" fill="rgb(186,139,73)" transform="translate(0,0)"></path>
<path d="M 196.787 156.454 C 201.83 161.838 212.298 176.248 217.155 182.533 L 257.464 234.393 C 244.28 268.429 224.304 310.344 209.246 344.813 L 115.973 560.114 L 106.039 583.83 C 97.3322 572.866 88.8078 561.879 79.4382 551.472 C 118.061 420.508 156.461 286.652 196.787 156.454 z" fill="rgb(230,211,185)" transform="translate(0,0)"></path>
<path d="M 1851.41 157.625 C 1854.26 159.425 1866.75 204.942 1868.83 211.977 L 1900.85 320.861 C 1923.06 396.411 1948.52 476.228 1969.05 551.76 C 1959.64 562.093 1951.64 572.343 1942.97 583.305 L 1933.02 560.5 C 1895.72 476.817 1860.91 391.397 1823.42 307.72 C 1812.69 283.774 1801.21 259.085 1791.58 234.748 C 1811.71 209.212 1830.87 182.893 1851.41 157.625 z" fill="rgb(230,211,185)" transform="translate(0,0)"></path>
<path d="M 427.684 315.256 C 443.82 315.167 475.215 313.168 489.994 316.126 C 559.273 329.995 571.125 412.886 517.147 452.974 C 529.472 479.957 547.985 545.884 561.396 576.29 C 562.249 578.226 560.352 581.429 558.81 583.253 L 556.065 583.144 C 549.497 578.956 535.259 532.282 531.98 522.741 C 524.467 501.318 515.951 480.385 509.113 458.712 C 497.243 463.586 489.1 465.316 476.443 466.103 C 476.069 504.664 476.554 543.968 476.646 582.586 L 427.833 582.4 L 427.684 315.256 z" fill="rgb(230,211,185)" transform="translate(0,0)"></path>
<path d="M 476.806 323.856 C 536.594 324.915 562.171 395.195 522.096 436.654 C 508.602 450.405 495.182 454.421 476.707 456.339 L 476.806 323.856 z" fill="rgb(0,0,0)" transform="translate(0,0)"></path>
<path d="M 1505.06 315.237 C 1539.11 315.286 1576.46 310.212 1603.22 333.174 C 1619.56 347.196 1628.73 364.325 1630.68 385.756 C 1632.76 406.835 1626.23 427.86 1612.57 444.049 C 1596.45 463.214 1577.48 469.79 1553.48 471.915 L 1553.35 505.5 L 1553.34 582.131 C 1537.31 582.108 1521.02 582.416 1504.97 582.57 L 1505.06 315.237 z" fill="rgb(230,211,185)" transform="translate(0,0)"></path>
<path d="M 1553.52 324.333 C 1616.21 326.023 1642.46 397.061 1600.59 443.125 C 1587.31 456.567 1571.57 460.863 1553.65 463.475 C 1553.36 417.095 1553.32 370.714 1553.52 324.333 z" fill="rgb(0,0,0)" transform="translate(0,0)"></path>
<path d="M 1788.09 243.51 C 1793.72 248.325 1928.22 560.467 1939.3 588.189 L 1917.15 616.435 L 1912.07 607.274 C 1891.34 570.809 1870.25 534.551 1848.8 498.505 C 1816.19 442.452 1783.23 386.607 1749.92 330.973 C 1752.52 323.241 1759.89 307.494 1763.44 299.329 C 1771.38 280.6 1779.6 261.992 1788.09 243.51 z" fill="rgb(14,78,87)" transform="translate(0,0)"></path>
<path d="M 259.374 243.51 C 264.213 247.355 294.619 322.424 298.213 331.627 C 281.754 361.467 262.576 391.884 245.311 421.398 L 139.11 602.83 L 131.383 615.995 C 124.022 606.793 116.793 597.486 109.7 588.077 C 136.242 523.887 165.036 460.446 192.083 396.457 C 213.752 345.191 237.821 294.801 259.374 243.51 z" fill="rgb(14,78,87)" transform="translate(0,0)"></path>
<path d="M 1749.4 339.718 C 1752.4 342.514 1774 381.175 1777.75 387.468 C 1805.71 434.295 1833.34 481.318 1860.64 528.536 C 1878.11 558.59 1896.12 590.827 1914.5 620.167 C 1909.06 627.391 1895.51 648.28 1890.53 653.604 L 1889.22 652.692 C 1874.79 630.471 1853.51 604.571 1837.75 582.548 C 1799.7 529.395 1758.47 476.856 1721.06 423.371 C 1729.11 396.678 1740.48 366.933 1749.4 339.718 z" fill="rgb(186,139,73)" transform="translate(0,0)"></path>
<path d="M 299.425 339.732 C 304.585 347.36 324.441 413.067 327.908 424.243 C 271.687 499.187 216.052 574.569 161.007 650.381 L 159.602 651.631 C 157.737 650.731 137.966 624.124 134.628 619.904 L 299.425 339.732 z" fill="rgb(186,139,73)" transform="translate(0,0)"></path>
<path d="M 1215.4 315.269 L 1263.99 315.274 L 1263.85 412.951 L 1314.59 412.829 C 1314.61 401.603 1313.89 318.829 1315.2 316.3 C 1317.78 315.321 1319.23 315.658 1321.93 315.921 C 1326.08 320.086 1324.07 324.36 1324.05 329.854 C 1324.02 343.392 1323.99 356.928 1323.98 370.466 L 1323.85 537.295 C 1323.84 544.897 1325.14 577.53 1322.41 581.859 C 1319.66 582.212 1318.28 582.624 1315.72 581.431 C 1313.42 575.47 1314.23 537.042 1314.25 528.25 C 1314.17 492.678 1314.3 457.105 1314.64 421.534 L 1263.91 421.294 L 1263.83 527.108 C 1263.83 542.459 1264.59 567.472 1263.43 582.22 L 1215.72 582.192 L 1215.4 315.269 z" fill="rgb(230,211,185)" transform="translate(0,0)"></path>
<path d="M 1960.06 648.428 C 1964.92 650.244 1982.75 661.974 1988.16 665.401 L 2043.7 700.549 C 2043.93 755.96 2043.87 811.371 2043.53 866.78 C 2043.48 891.73 2044.08 917.207 2043.63 942.046 L 2022.37 943.027 C 2003.74 861.89 1986.22 780.5 1969.82 698.882 C 1968.17 690.602 1959.63 654.465 1960.06 648.428 z" fill="rgb(14,78,87)" transform="translate(0,0)"></path>
<path d="M 86.4068 648.831 C 87.6007 649.028 88.0732 649.63 89.1313 650.429 C 90.9193 655.162 82.2188 690.042 80.5399 697.864 L 63.3838 778.283 C 51.9739 831.11 40.5204 890.942 26.4493 942.273 L 9.74981 942.405 L 7.13195 942.159 C 5.62826 940.184 5.45267 937.931 5.52593 935.433 C 6.19022 912.78 6.08792 889.931 6.09112 867.295 L 6.01752 701.844 C 13.5653 695.834 26.3118 688.139 34.7345 682.637 L 86.4068 648.831 z" fill="rgb(14,78,87)" transform="translate(0,0)"></path>
<path d="M 881.197 315.265 L 929.97 315.441 L 929.975 485.126 C 930.001 517.061 930.53 550.523 929.8 582.358 L 881.054 582.213 C 882.013 493.234 882.061 404.246 881.197 315.265 z" fill="rgb(230,211,185)" transform="translate(0,0)"></path>
<path d="M 804.373 316.189 C 807.229 315.858 810.106 315.749 812.979 315.864 C 836.948 316.63 852.251 333.095 867.429 349.068 L 861.052 354.214 C 837.459 327.126 814.854 312.519 780.945 335.5 C 780.545 375.244 780.507 414.99 780.832 454.734 C 780.846 489.9 780.216 526.732 781.103 561.77 C 804.188 584.301 828.09 575.733 849.34 557.156 C 854.344 552.101 857.174 548.174 861.422 542.461 C 863.786 544.06 866.103 546.013 868.342 547.807 C 808.637 626.807 743.135 558.37 730.617 487.646 C 723.33 450.614 725.934 414.593 740.063 379.446 C 752.178 349.309 770.429 322.928 804.373 316.189 z" fill="rgb(230,211,185)" transform="translate(0,0)"></path>
<path d="M 1814.85 669.388 C 1822.93 671.932 1844.25 683.548 1852.33 687.875 C 1868.69 696.749 1885.18 705.374 1901.79 713.746 L 1976.88 867.97 C 1985.95 886.658 1996.31 906.597 2004.76 925.377 C 1998.91 921.232 1975.83 892.653 1968.78 884.743 L 1893.31 800.719 C 1882.09 788.147 1866.7 771.548 1857.09 758.291 C 1852.68 752.197 1843.48 731.169 1839.79 723.175 L 1814.85 669.388 z" fill="rgb(186,139,73)" transform="translate(0,0)"></path>
<path d="M 1889.18 670.945 C 1909.76 665.384 1934.51 658.515 1954.62 651.834 C 1972.99 741.007 1991.91 830.065 2011.39 919.002 L 2008.56 920.053 C 1988.81 881.621 1969.64 842.895 1951.06 803.888 C 1928.77 758.102 1908.75 717.961 1889.18 670.945 z" fill="rgb(230,211,185)" transform="translate(0,0)"></path>
<path d="M 147.084 713.957 C 164.983 705.535 182.852 695.72 200.409 686.484 C 211.727 680.531 225.192 674.452 236.069 668.291 C 224.564 693.167 210.858 717.66 198.916 742.45 C 187.129 766.917 163.565 789.394 145.767 810.207 C 113.46 847.985 79.1064 884.29 47.3635 922.543 L 45.3656 921.536 L 115.267 778.899 C 125.303 758.458 138.004 734.384 147.084 713.957 z" fill="rgb(186,139,73)" transform="translate(0,0)"></path>
<path d="M 1152.77 315.404 C 1165.78 315.727 1173.66 318.722 1183.52 326.652 L 1177.35 332.942 C 1159.86 320.321 1130.41 318.663 1123.29 343.704 C 1116.9 366.189 1143.57 394.229 1156.77 411.313 C 1183.87 446.383 1210.15 484.704 1197.47 531.526 C 1189.17 563.06 1166.41 590.471 1130.05 581.205 C 1125.05 579.231 1120.29 576.706 1115.86 573.677 C 1111.3 570.622 1107.76 568.479 1106.72 563.203 C 1106.87 562.956 1107.85 561.466 1107.84 561.579 C 1107.91 561.047 1110.98 559.117 1111 559.129 C 1124.48 568.959 1129.71 575.479 1148.17 573.989 C 1155.75 573.378 1167.02 567.892 1171.5 561.2 C 1198.86 520.301 1136.43 470.871 1116.82 439.339 C 1107.21 424.019 1099.41 406.694 1097.78 388.409 C 1094.34 350.105 1112.28 319.057 1152.77 315.404 z" fill="rgb(230,211,185)" transform="translate(0,0)"></path>
<path d="M 94.6644 652.212 C 116.562 659.157 138.276 665.339 160.264 671.879 C 147.511 702.184 131.302 734.541 116.955 764.26 C 91.281 817.472 65.292 870.53 38.9893 923.433 L 37.3415 920.256 L 73.7607 753.25 C 78.937 730.05 83.8247 706.788 88.4227 683.467 C 90.3 674.146 93.4129 661.398 94.6644 652.212 z" fill="rgb(230,211,185)" transform="translate(0,0)"></path>
<path d="M 1657.02 784.305 C 1666.3 787.119 1687.71 796.521 1697.47 800.429 C 1727.11 812.25 1756.68 824.231 1786.18 836.372 C 1818.09 849.357 1849.92 862.53 1881.67 875.889 C 1894.94 881.461 1919.52 890.935 1930.87 897.346 C 1941.27 903.218 1961.34 918.409 1972.41 925.994 C 1958.57 925.134 1898.17 905.218 1880.16 900.136 C 1811.99 880.904 1743.24 858.033 1674.78 839.915 C 1669.61 821.486 1663.13 802.47 1657.02 784.305 z" fill="rgb(230,211,185)" transform="translate(0,0)"></path>
<path d="M 390.401 785.022 L 391.558 785.865 C 386.053 803.777 379.851 821.537 374.272 839.563 C 308.928 858.343 243.696 877.512 178.58 897.068 C 148.797 905.878 111.684 918.078 82.2157 925.037 L 80.8008 924.759 C 81.7638 922.671 88.8785 918.818 91.0352 917.045 C 115.633 896.82 139.411 887.485 168.656 875.303 L 231.572 848.904 L 390.401 785.022 z" fill="rgb(230,211,185)" transform="translate(0,0)"></path>
<path d="M 1699.59 491.646 C 1762.46 555.458 1822.62 622.741 1885.88 686.476 C 1881.86 688.808 1877.83 691.307 1873.55 693.07 C 1862.84 687.442 1832.85 673.096 1825.09 667.567 C 1813.02 658.952 1790.49 637.283 1778.35 626.422 C 1747.68 598.888 1716.81 571.568 1685.76 544.464 C 1690.71 526.949 1695.32 509.34 1699.59 491.646 z" fill="rgb(186,139,73)" transform="translate(0,0)"></path>
<path d="M 347.763 491.751 C 350.187 494.161 360.992 537.442 362.547 543.298 C 332.987 570.752 301.175 597.308 271.489 624.949 C 257.812 637.683 238.229 655.976 224.445 667.544 C 218.908 672.19 186.686 687.85 178.427 692.02 L 176.022 692.614 C 171.992 691.39 167.602 687.992 164.032 685.538 L 260.042 584.822 C 288.035 555.657 321.269 521.936 347.763 491.751 z" fill="rgb(186,139,73)" transform="translate(0,0)"></path>
<path d="M 1719.18 430.636 C 1723.7 435.009 1733.8 449.19 1737.86 454.709 L 1771.04 499.898 L 1887.96 659.152 L 1881.97 667.152 L 1887.25 681.591 L 1880.85 674.516 C 1821.5 614.307 1759.66 548.136 1701.66 486.314 L 1719.18 430.636 z" fill="rgb(14,78,87)" transform="translate(0,0)"></path>
<path d="M 329.788 430.038 C 331.254 431.842 345.441 480.92 346.927 486.315 C 330.374 504.21 312.918 521.701 296.142 539.454 L 172.917 669.5 C 170.633 671.977 169.956 672.713 167.177 674.733 C 166.314 672.613 167.578 668.977 168.137 666.301 L 162.444 657.194 C 183.039 627.283 205.824 597.788 227.326 568.426 C 261.02 521.958 295.176 475.827 329.788 430.038 z" fill="rgb(14,78,87)" transform="translate(0,0)"></path>
<path d="M 192.892 763.267 C 214.561 771.776 239.814 778.086 260.446 786.858 C 249.402 797.537 231.816 811.049 219.526 820.411 C 176.772 852.978 130.432 883.526 84.8533 911.917 C 69.9621 920.521 55.6312 930.084 40.8635 938.39 C 90.5754 879.016 143.099 822.316 192.892 763.267 z" fill="rgb(186,139,73)" transform="translate(0,0)"></path>
<path d="M 1851.41 764.945 L 1853.37 764.81 C 1859.01 767.608 1894.18 809.272 1900.42 816.287 L 1973.16 897.335 C 1984.9 910.51 1996.04 924.031 2007.99 937.069 C 1993.9 929.639 1981.88 922.288 1968.28 914.056 C 1951.23 904.465 1928.49 888.274 1911.81 877.463 C 1868.72 849.537 1826.92 820.09 1787.41 787.224 L 1851.41 764.945 z" fill="rgb(186,139,73)" transform="translate(0,0)"></path>
<path d="M 6.32495 488.135 C 7.41164 487.458 8.49277 486.771 9.56824 486.076 C 18.6291 503.231 25.985 520.985 34.677 538.216 C 52.275 573.103 67.8221 609.103 85.2758 643.998 C 59.0701 660.202 31.8091 678.329 5.98367 695.283 L 6.59933 555.83 C 6.66292 541.26 7.75871 500.837 6.32495 488.135 z" fill="rgb(186,139,73)" transform="translate(0,0)"></path>
<path d="M 2042.49 480.745 C 2043.83 500.783 2042.94 533.526 2042.96 554.318 L 2043.24 695.135 C 2029.72 687.157 2010.67 673.907 1996.9 665.044 C 1986.35 658.098 1975.64 651.407 1964.77 644.978 C 1991.2 591.557 2015.36 534.205 2042.49 480.745 z" fill="rgb(186,139,73)" transform="translate(0,0)"></path>
<path d="M 358.711 737.87 C 363.609 739.789 385.517 773.299 389.841 780 C 360.958 792.167 330.056 803.766 300.82 815.473 C 256.701 833.269 212.738 851.45 168.936 870.015 C 160.647 873.336 152.099 876.533 143.753 879.761 C 184.874 852.135 224.63 825.418 262.615 793.558 C 269.28 787.967 288.149 778.494 296.427 773.708 L 358.711 737.87 z" fill="rgb(14,78,87)" transform="translate(0,0)"></path>
<path d="M 1688.23 736.633 C 1718.2 755.856 1756.12 774.61 1785.72 793.915 C 1805.87 807.063 1829.66 829.234 1851.34 843.522 C 1864.55 852.232 1896.88 872.449 1907.29 881.398 C 1900.97 879.328 1891.63 875.034 1885.27 872.327 C 1872.42 865.505 1840.72 853.212 1826.6 847.413 L 1712.05 800.983 C 1697.01 794.975 1672.56 786.184 1659.02 779.135 C 1669.99 765.494 1678.75 751.288 1688.23 736.633 z" fill="rgb(14,78,87)" transform="translate(0,0)"></path>
<path d="M 2031.59 488.846 C 2031.77 489.898 2031.8 491.209 2031.31 492.199 C 2006.21 542.68 1983.77 595.138 1958.4 645.389 C 1937.36 652.639 1912.07 659.535 1890.51 665.722 C 1890.05 662.467 1901.85 646.722 1904.57 642.884 C 1943.04 588.462 1985.49 536.975 2031.59 488.846 z" fill="rgb(186,139,73)" transform="translate(0,0)"></path>
<path d="M 19.3844 494.265 L 23.6055 495.42 C 34.6536 510.5 51.7263 526.916 64.3464 541.284 C 80.4676 559.978 96.1924 579.011 111.51 598.37 C 129.381 620.559 146.591 641.559 161.441 665.913 C 150.232 664.349 103.481 650.134 92.0573 646 C 80.3544 624.623 69.0398 598.406 58.5658 576.074 L 19.3844 494.265 z" fill="rgb(186,139,73)" transform="translate(0,0)"></path>
<path d="M 338.055 691.01 C 341.698 694.672 354.252 726.617 356.747 732.738 C 329.356 749.56 299.452 766.39 271.514 782.7 L 263.538 787.342 C 261.63 769.291 257.262 746.524 254.553 728.079 C 282.401 716.729 310.195 702.907 338.055 691.01 z" fill="rgb(186,139,73)" transform="translate(0,0)"></path>
<path d="M 1709.21 690.672 C 1736.03 701.338 1767.21 716.604 1793.91 728.785 C 1792.83 734.981 1784.04 784.623 1782.51 785.913 L 1779.62 784.59 C 1749.96 767.622 1720.63 748.408 1690.34 732.529 C 1696.74 718.704 1703.37 704.719 1709.21 690.672 z" fill="rgb(186,139,73)" transform="translate(0,0)"></path>
<path d="M 117.602 920.239 C 138.157 914.512 158.114 907.683 178.468 901.731 L 369.779 845.782 C 361.626 856.844 351.085 872.107 342.606 882.435 C 293.714 893.116 242.906 899.538 193.732 909.439 C 169.658 914.286 142.14 916.287 118.615 922.534 L 117.602 920.239 z" fill="rgb(14,78,87)" transform="translate(0,0)"></path>
<path d="M 1678.78 845.379 C 1760.83 871.601 1846.2 894.509 1928.81 919.304 L 1924.74 921.567 C 1851.89 909.059 1778.13 894.483 1705.45 882.804 C 1697.71 870.421 1688.01 861.05 1678.78 845.379 z" fill="rgb(14,78,87)" transform="translate(0,0)"></path>
<path d="M 1691.86 593.297 C 1697.52 596.391 1721.82 615.61 1728.6 620.79 C 1753.6 640.209 1778.94 659.183 1804.61 677.702 C 1802.82 687.366 1800.75 696.974 1798.4 706.516 C 1762.07 677.927 1722.37 652.616 1685.36 625.487 C 1687.2 615.133 1689.76 603.721 1691.86 593.297 z" fill="rgb(186,139,73)" transform="translate(0,0)"></path>
<path d="M 357.501 592.75 C 359.454 603.75 361.506 614.733 363.656 625.696 C 327.833 648.574 286.522 679.961 251.571 705.322 C 249.393 702.933 246.283 682.281 245.424 677.545 C 280.161 649.132 321.83 621.206 357.501 592.75 z" fill="rgb(186,139,73)" transform="translate(0,0)"></path>
<path d="M 239.57 672.832 C 241.196 674.674 255.919 769.62 257.566 780.115 L 223.801 769.042 C 214.875 766.16 204.628 762.101 195.716 758.828 C 211.061 730.433 224.325 700.965 239.57 672.832 z" fill="rgb(230,211,185)" transform="translate(0,0)"></path>
<path d="M 1810.35 672.9 C 1813.36 677.256 1822.26 697.354 1824.81 702.861 C 1833.71 721.715 1842.5 740.621 1851.17 759.577 C 1842.52 763.227 1829.97 767.138 1820.85 770.28 C 1811.46 772.86 1799.83 778.133 1789.28 781.217 C 1790.33 771.015 1794.59 752.203 1796.67 741.602 C 1801.07 718.669 1805.63 695.768 1810.35 672.9 z" fill="rgb(230,211,185)" transform="translate(0,0)"></path>
<path d="M 985.307 315.836 C 989.101 315.654 990.436 315.779 994.215 316.277 C 996.568 325.923 952.44 385.384 943.919 397.147 C 958.453 434.063 972.764 471.067 986.851 508.156 C 995.692 531.086 1007.22 558.956 1014.89 581.767 C 1006.88 582.783 1005.1 583.128 1002.22 575.687 C 996.88 561.845 991.725 547.941 986.49 534.057 C 976.26 506.796 965.804 479.62 955.125 452.532 C 948.157 434.336 940.913 413.716 933.043 396.085 C 951.047 371.447 973.714 343.386 985.307 315.836 z" fill="rgb(230,211,185)" transform="translate(0,0)"></path>
<path d="M 340.408 569.153 C 346.591 574.535 351.741 580.716 356.506 587.362 C 351.71 591.618 346.716 595.398 341.512 599.14 C 310.578 621.383 280.902 645.615 250.009 667.872 L 245.313 671.444 L 244.118 671.112 C 243.728 668.101 243.411 665.956 242.755 662.964 L 239.636 661.311 C 244.3 655.803 263.076 639.434 269.198 633.842 L 340.408 569.153 z" fill="rgb(14,78,87)" transform="translate(0,0)"></path>
<path d="M 135.021 924.141 C 202.389 911.881 274.287 901.947 341.036 887.129 L 331.97 909.793 C 314.314 912.118 295.13 913.415 277.295 915.15 C 230.211 920.063 183.015 923.827 135.747 926.44 L 135.021 924.141 z" fill="rgb(186,139,73)" transform="translate(0,0)"></path>
<path d="M 1707.03 570.646 C 1718.87 575.802 1793.18 647.735 1808.36 660.348 C 1807.35 664.028 1806.84 669.023 1803.33 670.508 L 1800.48 668.612 C 1798.65 667.092 1796.61 665.702 1794.71 664.254 C 1760.78 638.413 1725.84 613.487 1692.37 587.081 C 1695.76 582.467 1702.93 575.099 1707.03 570.646 z" fill="rgb(14,78,87)" transform="translate(0,0)"></path>
<path d="M 1705.96 887.441 C 1726.61 892.017 1751.47 895.913 1772.48 899.682 L 1914.06 924.368 C 1911.34 925.924 1911.32 925.869 1908.15 926.53 L 1717.22 909.756 C 1713.51 902.297 1709.75 894.859 1705.96 887.441 z" fill="rgb(186,139,73)" transform="translate(0,0)"></path>
<path d="M 1745.48 676.022 C 1752.37 676.333 1790.84 706.308 1797.46 712.421 L 1794.97 723.758 L 1775.71 715.359 C 1755.07 705.622 1732.15 695.907 1712.18 686.072 C 1723.32 682.878 1734.43 679.528 1745.48 676.022 z" fill="rgb(14,78,87)" transform="translate(0,0)"></path>
<path d="M 299.07 676.753 C 304.211 676.824 328.882 684.739 335.023 686.625 C 315.5 695.729 295.909 704.688 276.251 713.499 C 268.71 716.755 261.019 719.901 253.433 723.073 L 251.237 711.563 L 299.07 676.753 z" fill="rgb(14,78,87)" transform="translate(0,0)"></path>
<path d="M 1527.48 651.43 C 1529.57 651.899 1530.12 652.165 1532.1 653.044 C 1533.38 656.507 1532.9 702.466 1531.56 704.698 L 1529.52 704.913 C 1528.51 703.973 1527.71 703.139 1527.03 701.924 C 1519.88 706.652 1516.95 706.654 1508.88 703.745 C 1502.58 698.033 1499.59 690.352 1504.02 682.406 C 1505.94 678.987 1509.17 676.501 1512.97 675.525 C 1518.71 674.022 1522.54 676.111 1527.26 678.97 C 1527.25 669.79 1527.32 660.609 1527.48 651.43 z" fill="rgb(230,211,185)" transform="translate(0,0)"></path>
<path d="M 1513.7 680.626 C 1517.27 679.22 1521.31 679.868 1524.26 682.316 C 1527.21 684.764 1528.58 688.624 1527.86 692.385 C 1527.13 696.146 1524.41 699.211 1520.76 700.381 C 1515.37 702.111 1509.57 699.251 1507.67 693.918 C 1505.77 688.586 1508.43 682.704 1513.7 680.626 z" fill="rgb(0,0,0)" transform="translate(0,0)"></path>
<path d="M 946.952 675.024 C 951.895 674.963 955.492 674.451 959.309 677.791 C 959.653 678.092 960.464 678.648 960.999 678.546 C 961.957 677.694 963.016 674.351 965.081 675.476 C 968.938 678.451 966.33 692.133 967.023 697.383 C 967.927 704.225 966.329 707.414 960.794 702.342 C 939.102 715.101 926.497 686.733 946.952 675.024 z" fill="rgb(230,211,185)" transform="translate(0,0)"></path>
<path d="M 948.135 680.762 C 951.647 679.318 955.665 679.897 958.627 682.272 C 961.589 684.647 963.027 688.444 962.381 692.185 C 961.735 695.927 959.108 699.022 955.521 700.267 C 950.185 702.118 944.345 699.387 942.345 694.105 C 940.344 688.823 942.911 682.909 948.135 680.762 z" fill="rgb(0,0,0)" transform="translate(0,0)"></path>
<path d="M 612.061 675.013 C 623.525 675.004 620.624 677.665 625.496 678.728 C 625.612 678.598 625.728 678.469 625.844 678.339 C 625.393 675.99 630.339 675.281 630.692 676.41 C 631.698 679.626 631.032 691.586 631.159 694.956 C 630.986 696.303 631.58 703.613 630.559 704.387 C 626.359 707.573 626.981 701.143 624.675 702.911 C 603.281 714.305 589.954 686.039 612.061 675.013 z" fill="rgb(230,211,185)" transform="translate(0,0)"></path>
<path d="M 612.669 680.775 C 618.069 678.863 623.992 681.72 625.857 687.137 C 627.722 692.553 624.813 698.452 619.381 700.269 C 614.015 702.065 608.205 699.199 606.363 693.849 C 604.52 688.499 607.335 682.664 612.669 680.775 z" fill="rgb(0,0,0)" transform="translate(0,0)"></path>
<path d="M 1144.65 675.296 C 1150.06 673.375 1156.08 674.533 1160.39 678.321 C 1164.7 682.11 1166.61 687.935 1165.4 693.542 C 1164.19 699.15 1160.03 703.66 1154.54 705.328 C 1146.32 707.824 1137.61 703.303 1134.93 695.144 C 1132.24 686.985 1136.56 678.172 1144.65 675.296 z" fill="rgb(230,211,185)" transform="translate(0,0)"></path>
<path d="M 1145.11 680.636 C 1148.66 678.86 1152.9 679.191 1156.13 681.498 C 1159.37 683.804 1161.06 687.708 1160.54 691.644 C 1160.01 695.581 1157.36 698.905 1153.63 700.285 C 1148.29 702.264 1142.33 699.723 1140.07 694.497 C 1137.8 689.271 1140.01 683.184 1145.11 680.636 z" fill="rgb(0,0,0)" transform="translate(0,0)"></path>
<path d="M 1475.91 674.468 C 1484.39 673.478 1492.11 679.404 1493.35 687.845 C 1494.6 696.287 1488.9 704.187 1480.5 705.68 C 1474.84 706.687 1469.08 704.534 1465.47 700.061 C 1461.85 695.588 1460.96 689.504 1463.13 684.18 C 1465.3 678.855 1470.2 675.135 1475.91 674.468 z" fill="rgb(230,211,185)" transform="translate(0,0)"></path>
<path d="M 1473.36 680.663 C 1476.87 679.076 1480.97 679.524 1484.05 681.833 C 1487.14 684.141 1488.73 687.945 1488.2 691.762 C 1487.66 695.579 1485.1 698.805 1481.5 700.184 C 1476.16 702.231 1470.15 699.659 1467.95 694.377 C 1465.75 689.096 1468.14 683.02 1473.36 680.663 z" fill="rgb(0,0,0)" transform="translate(0,0)"></path>
<path d="M 770.057 659.636 C 772.493 662.753 784.3 688.779 786.551 693.568 C 792.817 682.225 796.679 670.224 802.326 658.408 C 804.881 670.736 807.163 683.142 809.597 695.49 C 809.593 697.611 812.474 703.639 809.979 704.683 C 804.103 707.144 802.088 684.506 801.363 679.712 C 801.116 678.795 800.891 676.875 800.287 676.181 C 798.824 676.593 788.009 702.406 786.848 705.527 C 781.619 695.689 777.195 684.114 772.278 673.797 C 770.49 682.667 769.134 691.621 767.532 700.522 C 766.949 703.759 766.477 704.969 763.036 705.381 C 760.45 702.933 768.724 664.733 770.057 659.636 z" fill="rgb(230,211,185)" transform="translate(0,0)"></path>
<path d="M 206.054 115.553 C 214.354 113.656 222.613 118.873 224.466 127.182 C 226.319 135.492 221.059 143.723 212.74 145.533 C 204.483 147.329 196.325 142.117 194.486 133.868 C 192.646 125.62 197.816 117.436 206.054 115.553 z" fill="rgb(186,139,73)" transform="translate(0,0)"></path>
<path d="M 1385.19 659.233 C 1395.48 658.654 1404.75 659.878 1411.17 669.006 C 1412.33 670.66 1414.3 673.359 1410.95 673.901 C 1405.65 675.281 1404.91 668.914 1401.39 667.176 C 1368.04 650.744 1360.53 704.454 1395.52 700.197 C 1401.64 699.453 1405.48 693.175 1408.57 687.849 C 1405.51 687.79 1392.67 687.881 1392.2 687.49 C 1383.95 680.655 1410.65 683.011 1414.51 683.063 C 1412.17 692.686 1410.46 699.526 1400.44 703.818 C 1394.39 706.36 1387.59 706.411 1381.5 703.962 C 1361.01 695.858 1361.11 668.547 1385.19 659.233 z" fill="rgb(230,211,185)" transform="translate(0,0)"></path>
<path d="M 1835.67 115.601 C 1843.67 113.144 1852.15 117.651 1854.58 125.658 C 1857.02 133.665 1852.49 142.13 1844.48 144.549 C 1836.49 146.959 1828.06 142.451 1825.64 134.47 C 1823.21 126.49 1827.69 118.049 1835.67 115.601 z" fill="rgb(186,139,73)" transform="translate(0,0)"></path>
<path d="M 1740.41 276.634 C 1747.94 274.725 1755.65 279.037 1757.96 286.451 C 1760.27 293.866 1756.38 301.795 1749.1 304.504 C 1744.03 306.391 1738.33 305.323 1734.29 301.727 C 1730.25 298.131 1728.52 292.596 1729.8 287.339 C 1731.09 282.082 1735.17 277.964 1740.41 276.634 z" fill="rgb(186,139,73)" transform="translate(0,0)"></path>
<path d="M 303.361 276.594 C 310.964 275.105 318.404 279.82 320.304 287.33 C 322.205 294.841 317.902 302.526 310.507 304.833 C 305.351 306.441 299.728 305.069 295.893 301.266 C 292.058 297.463 290.638 291.852 292.203 286.682 C 293.768 281.513 298.061 277.631 303.361 276.594 z" fill="rgb(186,139,73)" transform="translate(0,0)"></path>
<path d="M 462.132 659.156 C 471.242 658.767 482.519 659.476 487.039 668.488 C 491.664 682.178 483.33 671.852 479.541 668.808 C 451.99 646.677 433.016 704.231 472.169 700.22 C 481.001 696.435 478.932 696.417 484.412 690.321 C 486.08 689.85 489.769 689.214 488.578 692.243 C 481.416 711.754 452.448 709.626 445.682 691.063 C 440.152 675.891 448.634 664.546 462.132 659.156 z" fill="rgb(230,211,185)" transform="translate(0,0)"></path>
<path d="M 1712.79 361.581 C 1720.01 358.909 1728.02 362.585 1730.7 369.795 C 1733.38 377.005 1729.71 385.023 1722.51 387.712 C 1715.29 390.405 1707.25 386.731 1704.57 379.509 C 1701.88 372.288 1705.57 364.257 1712.79 361.581 z" fill="rgb(230,211,185)" transform="translate(0,0)"></path>
<path d="M 325.806 361.669 C 330.489 359.843 335.793 360.688 339.677 363.879 C 343.561 367.069 345.42 372.108 344.539 377.057 C 343.658 382.005 340.173 386.093 335.426 387.746 C 328.27 390.238 320.437 386.54 317.814 379.431 C 315.191 372.322 318.746 364.422 325.806 361.669 z" fill="rgb(230,211,185)" transform="translate(0,0)"></path>
<path d="M 1432.75 675.175 C 1448.97 673.66 1450.03 677.207 1454.81 691.218 C 1446.62 691.446 1438.32 690.997 1430.21 691.532 C 1427.99 691.678 1430.12 696.306 1430.75 697.171 C 1432.24 699.197 1434.48 700.536 1436.97 700.884 C 1439.55 701.261 1442.61 700.758 1444.58 698.984 C 1453.5 689.956 1454.1 699.037 1448.34 702.576 C 1428.71 714.626 1411.99 689.943 1432.75 675.175 z" fill="rgb(230,211,185)" transform="translate(0,0)"></path>
<path d="M 1436.89 679.059 C 1443.57 680.026 1453.26 686.241 1442.25 686.335 C 1435.52 686.332 1419.54 686.304 1436.89 679.059 z" fill="rgb(0,0,0)" transform="translate(0,0)"></path>
<path d="M 1553.88 675.03 C 1559.11 674.78 1574.22 674.991 1572.8 689.983 C 1571.46 693.214 1548.47 689.017 1548.99 692.41 C 1550.89 704.952 1562.1 701.089 1567.57 697.32 C 1568.84 693.375 1572.92 696.099 1572.39 697.501 C 1568.82 708.05 1549.42 708.678 1545.24 698.401 C 1540.98 687.928 1544.06 679.816 1553.88 675.03 z" fill="rgb(230,211,185)" transform="translate(0,0)"></path>
<path d="M 1553.96 680.056 C 1559.8 679.41 1563.65 679.275 1567.65 684.317 L 1567.37 685.373 C 1566.42 686.022 1566.44 685.923 1565.25 686.183 C 1557.47 686.151 1544.42 689.278 1553.96 680.056 z" fill="rgb(0,0,0)" transform="translate(0,0)"></path>
<path d="M 884.97 675.144 C 895.531 674.876 902.955 677.179 904.042 689.553 C 904.422 693.873 882.397 690.124 880.536 691.672 C 876.151 695.318 889.813 706.526 895.561 698.862 C 903.776 690.721 905.562 698.446 897.816 703.461 C 894.398 705.708 890.213 706.473 886.22 705.58 C 871.359 702.376 869.496 683.291 884.97 675.144 z" fill="rgb(230,211,185)" transform="translate(0,0)"></path>
<path d="M 884.897 679.984 C 896.45 679.03 901.713 686.236 895.111 686.711 C 886.48 686.719 875.163 689.778 884.897 679.984 z" fill="rgb(0,0,0)" transform="translate(0,0)"></path>
<path d="M 1101.76 659.92 C 1104.08 659.936 1132.29 657.733 1125.64 664.317 C 1124.27 665.68 1111.13 665.197 1107.02 665.238 C 1106.95 669.514 1106.93 673.79 1106.94 678.067 C 1109.98 678.065 1131.59 675.735 1123.83 683.063 L 1106.97 683.093 C 1106.93 688.877 1106.86 694.382 1106.89 700.483 C 1106.89 702.049 1106.98 706.555 1102.42 704.296 C 1101.57 703.879 1101.79 699.508 1101.79 698.004 C 1101.79 685.321 1101.78 672.615 1101.76 659.92 z" fill="rgb(230,211,185)" transform="translate(0,0)"></path>
<path d="M 354.653 684.534 C 360.434 682.704 366.608 685.884 368.476 691.653 C 370.344 697.422 367.206 703.617 361.449 705.524 C 355.638 707.448 349.372 704.273 347.487 698.45 C 345.601 692.626 348.817 686.381 354.653 684.534 z" fill="rgb(186,139,73)" transform="translate(0,0)"></path>
<path d="M 1686.51 684.503 C 1690.29 682.983 1694.59 683.677 1697.69 686.307 C 1700.79 688.937 1702.19 693.069 1701.3 697.04 C 1700.42 701.01 1697.41 704.166 1693.49 705.235 C 1687.89 706.761 1682.07 703.658 1680.22 698.159 C 1678.37 692.66 1681.13 686.671 1686.51 684.503 z" fill="rgb(186,139,73)" transform="translate(0,0)"></path>
<path d="M 849.489 675.057 C 867.175 674.609 863.63 685.75 864.162 698.981 C 864.283 701.988 864.652 705.479 860.456 705.243 C 854.711 700.729 865.659 687.803 852.667 678.885 C 843.119 682.212 844.066 685.015 843.956 694.461 C 843.938 695.99 844.47 703.975 843.201 704.494 C 837.39 706.872 839.381 699.418 839.082 696.397 C 839.044 690.188 838.951 683.655 839.1 677.432 C 838.92 677.036 840.064 675.678 840.404 675.741 C 847.84 677.127 841.984 679.724 849.489 675.057 z" fill="rgb(230,211,185)" transform="translate(0,0)"></path>
<path d="M 518.814 675.43 C 520.389 675.595 521.964 675.761 523.538 675.926 C 527.23 680.056 530.658 691.308 532.925 696.51 C 534.498 693.165 541.158 676.787 542.053 676.2 C 551.659 669.911 536.801 698.938 536.071 700.565 C 534.543 704.051 528.435 718.487 526.893 719.366 C 517.292 724.839 529.18 703.88 529.832 702.384 C 526.546 693.246 522.87 684.253 518.814 675.43 z" fill="rgb(230,211,185)" transform="translate(0,0)"></path>
<path d="M 394.829 809.484 C 398.506 808.41 402.475 809.456 405.145 812.203 C 407.815 814.949 408.748 818.947 407.57 822.591 C 406.392 826.236 403.297 828.932 399.525 829.597 C 394.116 830.55 388.906 827.111 387.657 821.763 C 386.409 816.415 389.558 811.024 394.829 809.484 z" fill="rgb(186,139,73)" transform="translate(0,0)"></path>
<path d="M 1648.12 809.643 C 1653.54 808.491 1658.89 811.843 1660.23 817.221 C 1661.56 822.599 1658.39 828.067 1653.06 829.582 C 1649.45 830.609 1645.57 829.585 1642.93 826.91 C 1640.3 824.236 1639.33 820.338 1640.41 816.742 C 1641.49 813.146 1644.44 810.424 1648.12 809.643 z" fill="rgb(186,139,73)" transform="translate(0,0)"></path>
<path d="M 1266.68 674.868 C 1270.8 674.681 1276.99 674.294 1278.84 678.565 C 1281.18 683.991 1274.22 681.497 1272.58 679.672 C 1271.61 678.587 1267.67 679.328 1267.12 681.632 C 1265.41 688.305 1279.05 687.295 1280.55 693.38 C 1282.71 702.142 1278.89 703.939 1271.79 706.062 C 1269.79 705.56 1257.44 703.112 1262.41 697.079 C 1264.81 694.177 1266.87 700.529 1270.45 700.834 C 1273.33 701.08 1275.44 701.073 1276.11 696.999 C 1275.34 691.783 1266.39 691.972 1263.48 688.055 C 1259.38 682.518 1262.49 678.894 1266.68 674.868 z" fill="rgb(230,211,185)" transform="translate(0,0)"></path>
<path d="M 663.178 675.005 C 664.649 674.944 677.38 674.326 675.264 681.667 C 674.792 683.302 669.467 680.052 668.37 679.431 C 666.838 678.564 662.777 679.645 663.024 682.609 C 664.046 688.256 674.151 687.833 676.955 692.988 C 680.273 699.087 676.109 702.548 671.266 705.831 C 666.861 705.745 655.103 704.575 658.779 697.538 C 660.128 694.956 667.718 704.723 671.35 699.952 C 676.246 693.52 663.932 692.075 659.996 687.974 C 658.595 686.512 657.864 684.533 657.978 682.511 C 658.176 678.83 660.697 677.219 663.178 675.005 z" fill="rgb(230,211,185)" transform="translate(0,0)"></path>
<path d="M 999.883 674.942 C 1003.38 674.931 1011.38 675.102 1011.99 678.972 C 1013.03 685.522 1004.77 678.309 1002.49 679.608 C 1000.98 679.685 999.068 682.558 1000.31 683.889 C 1006.13 690.14 1018.04 688.761 1013.11 701.562 C 1012.03 704.383 1007.9 705.226 1005.04 706.073 C 1003.15 705.604 999.64 704.601 998.388 704.241 C 992.596 702.576 994.086 693.296 998.781 697.635 C 1000.43 699.161 999.924 699.989 1002.56 700.749 C 1005.51 701.596 1008.71 700.727 1009.42 697.452 C 1009.2 691.597 999.814 691.971 996.818 688.169 C 992.493 682.68 995.813 678.919 999.883 674.942 z" fill="rgb(230,211,185)" transform="translate(0,0)"></path>
<path d="M 1179.76 674.849 C 1182.56 674.958 1193.94 675.842 1191.63 681.077 C 1187.72 682.674 1179.65 677.296 1179.1 681.31 C 1178.23 687.791 1191.8 687.454 1193.59 694.572 C 1194.94 699.952 1192.05 703.621 1187.04 705.246 L 1184.1 706.185 C 1180.71 705.133 1171.67 702.39 1174.8 697.152 C 1177.02 693.436 1182.21 705.305 1187.42 699.875 C 1195.33 691.628 1161.96 688.812 1177.74 676.448 C 1178.42 675.921 1179.09 675.388 1179.76 674.849 z" fill="rgb(230,211,185)" transform="translate(0,0)"></path>
<path d="M 1205.66 674.919 C 1208.56 674.913 1223.87 675.938 1215.47 682.003 C 1213.67 681.872 1210.73 677.916 1208.55 679.209 C 1198.66 685.065 1218.43 687.429 1219.61 694.243 C 1221.05 702.599 1217.36 704.015 1210.79 706.056 C 1206.7 705.183 1201.68 704.376 1200.48 699.558 C 1200.07 697.912 1202.14 696.779 1203.54 697.094 C 1205.88 697.714 1206.19 700.657 1208.93 701.036 C 1211.87 701.443 1215.51 700.823 1215.12 696.991 C 1214.6 691.993 1205.74 691.342 1202.95 688.049 C 1198.27 682.533 1201.42 678.848 1205.66 674.919 z" fill="rgb(230,211,185)" transform="translate(0,0)"></path>
<path d="M 557.738 674.74 C 561.386 674.806 567.97 675.132 569.072 678.503 C 570.448 685.639 567.084 681.891 563.949 680.076 C 558.753 677.068 553.081 683.684 563.978 687.874 C 573.665 691.6 576.202 700.759 564.067 705.922 C 560.062 705.484 552.096 703.892 552.217 699.447 C 552.397 692.824 559.217 701.077 561.473 701.081 C 563.219 702.179 568.008 698.737 567.102 696.976 C 563.08 689.16 542.899 688.64 557.738 674.74 z" fill="rgb(230,211,185)" transform="translate(0,0)"></path>
<path d="M 1586.78 674.729 C 1590.47 674.559 1598.84 674.953 1599.1 679.645 C 1599.35 684.261 1590.74 676.902 1586.67 681.621 C 1586.06 688.242 1598.98 687.778 1600.63 694.265 C 1602.64 702.217 1597.58 704.275 1591.3 706.051 C 1590.09 705.688 1577.99 702.663 1582.34 696.923 C 1585.56 695.298 1587.34 701.703 1590.91 701.029 C 1605.88 698.202 1585.53 689.624 1583.95 688.059 C 1579 683.165 1582.96 678.507 1586.78 674.729 z" fill="rgb(230,211,185)" transform="translate(0,0)"></path>
<path d="M 979.28 652.289 C 981.347 652.476 981.988 652.706 983.992 653.306 C 985.521 657.381 984.822 697.771 984.781 705.322 C 981.46 704.91 981.645 705.489 979.556 703.44 C 978.372 691.23 979.251 665.383 979.28 652.289 z" fill="rgb(230,211,185)" transform="translate(0,0)"></path>
<path d="M 582.417 663.422 C 592.74 665.935 585.323 667.385 588.525 675.218 C 589.17 676.797 597.05 673.911 594.446 679.951 C 593.703 681.422 588.506 680.057 588.277 681.312 C 587.135 687.569 587.672 698.287 587.648 704.538 C 586.809 704.673 585.407 704.713 584.939 704.798 C 579.947 704.989 584.68 681.281 582.027 680.961 C 575.142 680.131 574.629 675.775 581.518 675.27 C 582.547 675.195 582.229 666.595 582.417 663.422 z" fill="rgb(230,211,185)" transform="translate(0,0)"></path>
<path d="M 643.105 652.178 L 646.798 653.313 C 649.481 658.706 648.201 697.219 648.112 705.797 C 644.912 704.999 645.883 705.639 643.778 703.631 C 642.092 696.397 642.994 661.948 643.105 652.178 z" fill="rgb(230,211,185)" transform="translate(0,0)"></path>
<path d="M 1246.99 652.171 C 1249.27 652.62 1249.44 652.741 1251.52 653.86 C 1252.72 664.961 1251.79 692.967 1251.71 705.294 L 1247.95 704.73 C 1245.66 701.544 1246.91 659.169 1246.99 652.171 z" fill="rgb(230,211,185)" transform="translate(0,0)"></path>
<path d="M 508.675 675.02 C 520.328 675.448 514.153 681.134 512.031 680.891 C 501.248 679.653 504.349 698.563 504.223 705.818 C 502.118 705.251 498.436 704.83 499.086 702.578 C 500.399 698.027 496.113 677.14 501.666 675.802 C 502.721 675.548 503.843 677.39 504.6 677.737 C 505.361 677.552 507.796 675.609 508.675 675.02 z" fill="rgb(230,211,185)" transform="translate(0,0)"></path>
<path d="M 924.729 675.306 C 932.105 673.461 932.669 681.149 925.497 680.752 C 916.819 680.272 919.375 698.326 919.372 704.924 C 917.447 705.1 914.735 705.806 914.668 703.064 C 914.513 696.811 914.608 690.521 914.624 684.263 C 914.912 682.543 914.046 677.844 915.196 676.396 C 917.287 673.761 919.254 677.731 919.664 678.07 C 920.484 677.908 923.66 675.878 924.729 675.306 z" fill="rgb(230,211,185)" transform="translate(0,0)"></path>
<path d="M 390.438 756.666 C 394.317 754.845 398.941 756.453 400.852 760.288 C 402.764 764.123 401.264 768.783 397.475 770.784 C 394.944 772.121 391.887 771.982 389.487 770.42 C 387.088 768.858 385.723 766.119 385.92 763.263 C 386.118 760.407 387.847 757.882 390.438 756.666 z" fill="rgb(230,211,185)" transform="translate(0,0)"></path>
<path d="M 1651.01 756.536 C 1654.8 754.471 1659.55 755.856 1661.63 759.635 C 1663.72 763.414 1662.36 768.168 1658.59 770.272 C 1654.79 772.391 1650 771.018 1647.9 767.212 C 1645.8 763.405 1647.2 758.616 1651.01 756.536 z" fill="rgb(230,211,185)" transform="translate(0,0)"></path>
<path d="M 361.579 568.497 C 365.254 566.591 369.777 568.007 371.709 571.668 C 373.641 575.329 372.257 579.863 368.61 581.82 C 364.926 583.798 360.337 582.397 358.386 578.699 C 356.434 575.002 357.868 570.422 361.579 568.497 z" fill="rgb(230,211,185)" transform="translate(0,0)"></path>
<path d="M 353.447 470.593 C 357.03 468.5 361.632 469.712 363.719 473.298 C 365.807 476.885 364.587 481.485 360.997 483.567 C 357.415 485.643 352.828 484.427 350.746 480.849 C 348.663 477.271 349.872 472.682 353.447 470.593 z" fill="rgb(230,211,185)" transform="translate(0,0)"></path>
<path d="M 1681.06 568.362 C 1684.64 566.549 1689.02 567.906 1690.95 571.429 C 1692.88 574.952 1691.66 579.37 1688.2 581.412 C 1685.86 582.794 1682.96 582.791 1680.62 581.404 C 1678.28 580.018 1676.89 577.469 1676.98 574.753 C 1677.07 572.038 1678.63 569.588 1681.06 568.362 z" fill="rgb(230,211,185)" transform="translate(0,0)"></path>
<path d="M 1689.06 470.582 C 1691.53 469.438 1694.43 469.754 1696.59 471.403 C 1698.75 473.052 1699.82 475.761 1699.36 478.441 C 1698.91 481.121 1697.01 483.33 1694.43 484.179 C 1690.75 485.39 1686.76 483.518 1685.33 479.912 C 1683.91 476.305 1685.55 472.213 1689.06 470.582 z" fill="rgb(230,211,185)" transform="translate(0,0)"></path>
<path d="M 1229.64 675.164 C 1230.45 675.409 1234.41 676.25 1234.45 677.187 C 1234.79 685.911 1234.93 697.12 1234.57 705.721 C 1233.69 705.522 1229.76 704.933 1229.69 704.028 C 1229.05 695.486 1229.45 683.564 1229.64 675.164 z" fill="rgb(230,211,185)" transform="translate(0,0)"></path>
<path d="M 1691.71 876.259 C 1695.44 875.76 1698.87 878.383 1699.36 882.114 C 1699.86 885.845 1697.23 889.269 1693.5 889.758 C 1689.77 890.247 1686.35 887.626 1685.86 883.901 C 1685.37 880.176 1687.99 876.756 1691.71 876.259 z" fill="rgb(186,139,73)" transform="translate(0,0)"></path>
<path d="M 822.454 675.208 C 824.113 675.837 826.978 676.352 826.935 678.42 C 826.753 687.128 827.611 697.232 826.502 705.773 C 822.58 704.53 821.625 705.051 821.836 700.397 C 822.208 692.221 821.073 683.235 822.454 675.208 z" fill="rgb(230,211,185)" transform="translate(0,0)"></path>
<path d="M 353.712 878.448 C 355.882 877.333 358.488 877.489 360.51 878.857 C 362.531 880.224 363.645 882.585 363.417 885.015 C 363.188 887.445 361.653 889.557 359.412 890.523 C 356.105 891.95 352.263 890.498 350.725 887.242 C 349.188 883.985 350.509 880.095 353.712 878.448 z" fill="rgb(186,139,73)" transform="translate(0,0)"></path>
<path d="M 160.65 688.691 C 164.474 691.293 167.989 693.337 171.873 695.71 C 167.332 698.045 162.982 700.484 158.372 702.713 C 155.459 704.292 154.116 704.866 151.152 706.211 C 154.307 699.931 157.086 694.736 160.65 688.691 z" fill="rgb(14,78,87)" transform="translate(0,0)"></path>
<path d="M 1889.76 688.922 C 1890.95 690.468 1898.05 704.133 1896.38 704.911 C 1895.32 704.79 1890.66 702.131 1889.29 701.445 C 1885.83 700.002 1881.04 697.478 1877.77 695.66 C 1883.17 692.941 1884.61 692.255 1889.76 688.922 z" fill="rgb(14,78,87)" transform="translate(0,0)"></path>
<path d="M 716.263 681.545 C 718.439 680.115 721.358 680.67 722.858 682.799 C 724.358 684.928 723.898 687.863 721.818 689.431 C 720.412 690.491 718.54 690.701 716.933 689.979 C 715.327 689.256 714.242 687.716 714.102 685.96 C 713.963 684.205 714.791 682.513 716.263 681.545 z" fill="rgb(230,211,185)" transform="translate(0,0)"></path>
<path d="M 1052.97 681.523 C 1055.16 680.162 1058.04 680.823 1059.41 683.002 C 1060.79 685.182 1060.15 688.064 1057.98 689.455 C 1055.79 690.86 1052.87 690.211 1051.48 688.01 C 1050.09 685.809 1050.76 682.897 1052.97 681.523 z" fill="rgb(230,211,185)" transform="translate(0,0)"></path>
<path d="M 1321.27 681.369 C 1323.48 680.564 1325.95 681.529 1327.02 683.623 C 1328.1 685.716 1327.45 688.284 1325.51 689.613 C 1324.01 690.635 1322.07 690.702 1320.51 689.787 C 1318.95 688.871 1318.05 687.137 1318.22 685.335 C 1318.38 683.534 1319.57 681.989 1321.27 681.369 z" fill="rgb(230,211,185)" transform="translate(0,0)"></path>
<path d="M 1914.06 924.368 C 1918.33 924.599 1928.35 926.37 1933.28 927.081 C 1931.06 928.243 1911.68 927.164 1908.15 926.53 C 1911.32 925.869 1911.34 925.924 1914.06 924.368 z" fill="rgb(125,88,44)" transform="translate(0,0)"></path>
<path d="M 1230.45 662.58 C 1232.05 661.758 1234.02 662.344 1234.92 663.911 C 1235.81 665.477 1235.31 667.47 1233.79 668.433 C 1232.74 669.096 1231.41 669.13 1230.33 668.52 C 1229.25 667.91 1228.59 666.755 1228.61 665.514 C 1228.64 664.273 1229.34 663.146 1230.45 662.58 z" fill="rgb(230,211,185)" transform="translate(0,0)"></path>
<path d="M 822.619 663.428 C 824.108 662.349 826.191 662.685 827.265 664.178 C 828.338 665.672 827.994 667.753 826.496 668.821 C 825.007 669.882 822.94 669.54 821.872 668.055 C 820.805 666.57 821.139 664.501 822.619 663.428 z" fill="rgb(230,211,185)" transform="translate(0,0)"></path>
<path d="M 1928.81 919.304 C 1933.26 919.906 1938.17 922.068 1942.45 923.679 C 1937.45 923.142 1929.58 922.399 1924.74 921.567 L 1928.81 919.304 z" fill="rgb(12,51,69)" transform="translate(0,0)"></path>
<path d="M 123.342 925.959 C 126.023 925.197 132.138 924.211 135.021 924.141 L 135.747 926.44 C 131.046 927.179 127.741 926.947 123.115 927.182 L 123.342 925.959 z" fill="rgb(151,118,70)" transform="translate(0,0)"></path>
<path d="M 118.615 922.534 C 108.36 924.35 106.368 922.881 117.602 920.239 L 118.615 922.534 z" fill="rgb(12,51,69)" transform="translate(0,0)"></path>
<path d="M 37.3415 920.256 L 38.9893 923.433 C 37.7493 926.061 36.0734 929.601 34.6716 932.135 C 35.4678 928.581 36.3089 923.472 37.3415 920.256 z" fill="rgb(197,184,158)" transform="translate(0,0)"></path>
<path d="M 2008.56 920.053 L 2011.39 919.002 C 2011.65 920.225 2013.03 926.38 2012.4 927.215 C 2012.29 927.145 2012.17 927.075 2012.05 927.004 L 2012.45 926.326 L 2011.4 926.178 C 2010.94 924.452 2009.22 921.958 2008.56 920.053 z" fill="rgb(197,184,158)" transform="translate(0,0)"></path>
<path d="M 19.3844 494.265 C 18.9687 493.461 17.8619 491.443 18.1794 490.768 C 18.9967 489.029 23.2403 494.986 23.6055 495.42 L 19.3844 494.265 z" fill="rgb(125,88,44)" transform="translate(0,0)"></path>
<path d="M 123.115 927.182 C 122.026 927.459 116.202 928.866 115.666 927.456 C 116.771 925.48 121.493 925.916 123.342 925.959 L 123.115 927.182 z" fill="rgb(66,56,46)" transform="translate(0,0)"></path>
<path d="M 47.3635 922.543 C 46.612 923.565 44.9764 926.325 43.5629 926.4 C 42.4438 925.569 44.823 922.304 45.3656 921.536 L 47.3635 922.543 z" fill="rgb(151,118,70)" transform="translate(0,0)"></path>
<path d="M 6.32495 488.135 C 6.41371 487.069 6.33041 483.23 7.38455 482.808 C 8.28552 483.256 9.09905 485.172 9.56824 486.076 C 8.49277 486.771 7.41164 487.458 6.32495 488.135 z" fill="rgb(186,139,73)" transform="translate(0,0)"></path>
<metadata><recraft-signature>{"signed_by": "recraft", "signature_b64": "/W0oExx9ux/SX1Ji/AtI+II+V8bza9WH8T1PLBYXAmE8M12t1xnokUoIMHP14ijLBhAYb3R7AVfPOoGNs0sQDw==", "signing_algo": "Ed25519", "generation_timestamp": 1780247482, "identifier": "d29e64ba-855f-4989-abdb-b4ced919640b"}</recraft-signature></metadata></svg>