<svg xmlns="http://www.w3.org/2000/svg" height="768" preserveAspectRatio="none" style="display: block;" version="1.1" viewBox="0 0 2048 1024" width="1536">
<path d="M 0 0 L 2048 0 L 2048 221.846 L 2048 413.544 L 2048 434.36 L 2048 437.588 L 2048 443.246 L 2048 453.605 L 2048 468.33 L 2048 535.38 L 2048 545.305 L 2048 666.509 L 2048 678.498 L 2048 782.966 L 2048 817.505 L 2048 1024 L 0 1024 L 0 817.838 L 0 613.076 L 0 604.377 L 0 587.168 L 0 567.181 L 0 221.369 L 0 0 z" fill="rgb(8,8,9)" transform="translate(0,0)"></path>
<path d="M 0 0 L 2048 0 L 2048 221.846 C 2043.8 220.02 1684.47 221.244 1649.04 221.236 L 0 221.369 L 0 0 z" fill="rgb(31,30,31)" transform="translate(0,0)"></path>
<path d="M 2048 817.505 L 2048 1024 L 0 1024 L 0 817.838 L 1305.28 818.721 L 1797.9 818.838 C 1878.63 818.729 1967.94 820.346 2048 817.505 z" fill="rgb(31,30,31)" transform="translate(0,0)"></path>
<path d="M 73.8653 322.247 C 102.125 302.527 130.662 283.208 159.467 264.295 C 172.696 255.446 187.773 244.634 200.94 236.277 C 217.034 265.994 231.332 297.568 246.571 327.766 C 253.599 341.693 261.907 361.064 269.812 373.966 L 196.14 610.719 C 186.045 642.154 175.649 678.66 163.969 709.257 C 159.149 711.143 135.092 723.648 133.193 723.32 L 131.262 720.491 C 125.61 719.564 104.867 733.153 99.12 736.995 C 96.5381 726.339 95.2309 718.28 93.6063 707.523 C 87.787 703.664 84.378 700.483 79.2037 695.826 C 71.9275 698.464 57.7247 702.289 54.6488 708.824 C 52.2122 705.986 42.4876 705.343 38.9182 706.696 L 38.2777 706.922 L 37.8621 703.616 C 24.6296 694.968 22.3603 663.56 18.3738 646.556 C 14.192 655.113 6.16126 666.278 0.505108 674.024 L 0.771671 662.146 C 8.49116 650.448 15.1317 640.335 18.0606 626.637 C 11.9707 622.21 5.94979 617.689 5.68434e-14 613.076 L 0 604.377 L 0 587.168 L 0 567.181 C 11.3275 528.028 22.9462 488.96 34.855 449.98 C 47.0241 408.931 60.0874 362.673 73.8653 322.247 z" fill="rgb(249,249,249)" transform="translate(0,0)"></path>
<path d="M 77.1642 331.998 C 86.2026 339.753 93.5918 344.126 101.851 350.828 C 99.4459 362.908 95.8902 374.858 92.8517 386.8 C 72.6647 466.137 46.8764 543.629 22.1556 621.6 C 15.3559 616.305 6.85242 609.256 0 604.377 L 0 587.168 C 4.03206 578.654 7.64187 564.664 10.4365 555.298 L 25.8292 503.846 C 42.8022 447.444 61.5462 388.652 77.1642 331.998 z" fill="rgb(8,8,9)" transform="translate(0,0)"></path>
<path d="M 108.977 354.948 C 139.799 366.297 174.676 377.771 204.629 389.541 L 157.274 540.125 C 146.937 573.53 136.233 612.134 124.909 644.754 C 124.654 645.616 124.514 646.355 124.33 647.23 L 122.773 646.592 C 122.949 643.992 123.065 641.717 123.111 639.114 C 122.911 635.109 122.687 632.582 122.213 628.609 C 118.679 646.551 109.376 689.49 103.364 706.096 C 100.813 687.166 99.9554 666.293 98.0594 647.098 C 96.7558 633.901 95.6252 618.624 95.1965 605.483 C 95.0568 601.202 99.7616 593.71 99.964 586.047 C 100.355 571.237 95.4277 546.766 96.3831 533.045 C 98.1118 508.219 103.288 480.581 106.37 455.461 L 107.48 448.178 L 105.399 446.352 L 104.649 449.225 C 89.5316 487.258 74.7486 525.423 60.3017 563.716 L 58.6966 560.135 C 68.624 516.248 79.0796 472.482 90.0612 428.847 C 95.8189 406.053 104.383 377.385 108.977 354.948 z" fill="rgb(8,8,9)" transform="translate(0,0)"></path>
<path d="M 122.213 628.609 C 122.134 626.665 122.348 625.509 123.203 623.687 L 123.46 623.502 C 124.48 625.538 123.761 636.214 123.797 639.302 L 123.111 639.114 C 122.911 635.109 122.687 632.582 122.213 628.609 z" fill="rgb(108,106,110)" transform="translate(0,0)"></path>
<path d="M 105.399 446.352 C 105.822 444.943 106.55 441.816 107.522 440.853 C 108.683 441.668 107.671 446.972 107.48 448.178 L 105.399 446.352 z" fill="rgb(159,157,159)" transform="translate(0,0)"></path>
<path d="M 123.111 639.114 L 123.797 639.302 C 124.209 641.165 124.598 642.871 124.909 644.754 C 124.654 645.616 124.514 646.355 124.33 647.23 L 122.773 646.592 C 122.949 643.992 123.065 641.717 123.111 639.114 z" fill="rgb(31,30,31)" transform="translate(0,0)"></path>
<path d="M 190.053 258.704 C 194.671 263.036 203.41 366.623 204.67 382.04 C 185.551 374.383 166.423 368.036 147.071 361.035 C 135.624 356.732 123.298 352.798 111.652 348.589 C 137.233 319.28 163.313 286.676 190.053 258.704 z" fill="rgb(8,8,9)" transform="translate(0,0)"></path>
<path d="M 215.296 390.032 C 230.63 386.712 245.945 383.31 261.243 379.828 C 254.044 396.506 247.202 416.392 240.882 433.591 C 228.948 465.81 217.535 498.219 206.646 530.805 L 204.929 530.128 C 205.222 524.507 207.296 511.976 208.1 505.994 L 214.503 457.268 L 215.488 453.144 C 214.923 451.503 214.372 449.858 213.836 448.208 L 212.539 453.224 C 210.96 457.137 202.109 478.416 201.505 481.19 L 199.436 478.412 C 204.273 450.695 211.576 417.101 215.296 390.032 z" fill="rgb(8,8,9)" transform="translate(0,0)"></path>
<path d="M 213.836 448.208 C 214.324 447.513 215.018 446.138 215.577 445.684 C 215.691 445.795 215.806 445.907 215.92 446.019 C 216.293 447.9 215.745 451.184 215.488 453.144 C 214.923 451.503 214.372 449.858 213.836 448.208 z" fill="rgb(108,106,110)" transform="translate(0,0)"></path>
<path d="M 171.131 265.439 L 171.993 267.039 C 150.191 293.33 127.234 317.273 105.581 344.603 C 97.8333 339.202 88.1271 331.411 80.3284 325.553 C 87.0995 322.2 102.248 311.002 109.29 306.297 L 171.131 265.439 z" fill="rgb(8,8,9)" transform="translate(0,0)"></path>
<path d="M 58.6966 560.135 L 60.3017 563.716 C 59.5346 567.318 56.6587 573.331 55.088 576.791 L 58.6966 560.135 z" fill="rgb(56,55,58)" transform="translate(0,0)"></path>
<path d="M 171.131 265.439 C 171.844 264.75 175.487 261.54 176.415 262.423 C 176.656 263.632 172.894 266.296 171.993 267.039 L 171.131 265.439 z" fill="rgb(159,157,159)" transform="translate(0,0)"></path>
<path d="M 204.929 530.128 L 206.646 530.805 C 206.093 533.074 205.635 534.989 205.207 537.28 L 203.556 536.493 C 203.98 534.264 204.369 532.328 204.929 530.128 z" fill="rgb(108,106,110)" transform="translate(0,0)"></path>
<path d="M 201.505 481.19 C 200.913 482.412 200.339 484.275 199.423 485.159 C 198.592 484.094 199.266 479.824 199.436 478.412 L 201.505 481.19 z" fill="rgb(56,55,58)" transform="translate(0,0)"></path>
<path d="M 122.773 646.592 L 124.33 647.23 C 123.916 648.619 123.416 650.978 122.455 652.068 C 121.409 650.505 122.135 648.207 122.773 646.592 z" fill="rgb(159,157,159)" transform="translate(0,0)"></path>
<path d="M 203.556 536.493 L 205.207 537.28 C 204.905 538.247 204.207 541.007 203.434 541.437 C 202.185 540.634 203.16 537.59 203.556 536.493 z" fill="rgb(159,157,159)" transform="translate(0,0)"></path>
<path d="M 1848.85 630.664 L 1849.71 632.18 C 1899.05 669.779 1987.18 674.611 2047.2 666.619 L 2048 666.509 L 2048 678.498 L 2048 782.966 C 2047.26 783.192 2046.52 783.412 2045.77 783.625 C 1982.18 801.984 1859.68 798.992 1801.5 765.409 C 1783.9 755.538 1763.51 738.925 1758.63 718.045 C 1747.44 670.239 1791.31 646.31 1828.77 636.055 C 1832.96 634.787 1846.72 631.785 1848.85 630.664 z" fill="rgb(249,249,249)" transform="translate(0,0)"></path>
<path d="M 1848.85 630.664 L 1849.71 632.18 C 1899.05 669.779 1987.18 674.611 2047.2 666.619 L 2048 666.509 L 2048 678.498 C 2027.92 684.718 2018.44 681.797 1998.32 681.501 C 1995.56 681.46 1984.31 684.076 1981.08 684.819 C 1966.57 678.154 1965.18 677.193 1949.23 679.328 C 1946.67 691.093 1945.88 694.998 1933.37 696.452 C 1917.19 723.504 1914.34 708.718 1889.82 706.717 C 1880.91 705.99 1880.97 702.063 1875.94 700.89 C 1862.44 697.744 1851.54 714.649 1840.92 720.183 C 1829.03 723.065 1823.36 706.588 1813.73 702.572 C 1799.92 696.812 1763.02 712.984 1772.24 682.429 C 1773.29 678.932 1783.2 671.896 1785.83 668.417 C 1800.81 648.623 1806.03 645.008 1828.84 638.01 L 1828.77 636.055 C 1832.96 634.787 1846.72 631.785 1848.85 630.664 z" fill="rgb(8,8,9)" transform="translate(0,0)"></path>
<path d="M 1848.85 630.664 L 1849.71 632.18 C 1843.14 634.898 1835.68 635.996 1828.84 638.01 L 1828.77 636.055 C 1832.96 634.787 1846.72 631.785 1848.85 630.664 z" fill="rgb(159,157,159)" transform="translate(0,0)"></path>
<path d="M 1972.94 292.51 C 1982.16 280.943 1997.62 267.596 2008.81 257.625 C 2013.34 268.168 2034.2 306.844 2034.39 314.036 C 2033.27 323.444 2030.96 353.108 2029.34 360.068 L 2027.88 367.524 C 2039.69 380.6 2037.68 388.273 2036.33 403.631 C 2040.16 406.689 2044.64 410.052 2048 413.544 L 2048 434.36 L 2048 437.588 L 2048 443.246 L 2048 453.605 L 2048 468.33 L 2048 535.38 C 2041.42 537.867 2034.74 540.061 2027.97 541.955 C 1993.41 551.527 1946.76 550.505 1914.47 533.066 C 1894.64 522.354 1876.78 499.095 1890.64 476.514 C 1902.25 457.6 1921.16 453.213 1941.13 448.23 C 1937.95 443.753 1935.07 439.09 1932.19 434.409 C 1913.27 403.569 1895.02 372.317 1875.91 341.592 C 1880.25 322.916 1884.48 304.215 1888.6 285.49 L 1929.55 296.527 C 1939.13 316.565 1958.5 349.392 1971.01 367.617 C 1970.95 342.746 1972.6 317.527 1972.94 292.51 z" fill="rgb(249,249,249)" transform="translate(0,0)"></path>
<path d="M 1932.86 480.436 C 1928.03 483.87 1914.61 497.653 1912.58 497.216 C 1892.11 492.804 1884.81 479.028 1903.21 467 C 1939.06 443.57 1993.9 445.423 2034.51 450.377 C 2038.85 451.338 2043.8 452.307 2048 453.605 L 2048 468.33 C 2032.21 455.151 2000.31 443.946 1980.95 456.453 C 1977.22 460.264 1981.73 465.18 1975.5 468.705 C 1963.12 475.71 1947.01 482.04 1932.86 480.436 z" fill="rgb(8,8,9)" transform="translate(0,0)"></path>
<path d="M 2032.12 313.239 L 2034.39 314.036 C 2033.27 323.444 2030.96 353.108 2029.34 360.068 L 2027.73 360.249 C 2019.64 363.151 2018.95 365.783 2019.48 356.509 C 2020.06 346.201 2020.07 335.601 2020.17 325.264 C 2024.54 319.969 2026.69 317.684 2032.12 313.239 z" fill="rgb(8,8,9)" transform="translate(0,0)"></path>
<path d="M 2032.12 313.239 L 2034.39 314.036 C 2033.27 323.444 2030.96 353.108 2029.34 360.068 L 2027.73 360.249 C 2028.52 344.732 2031.71 329.181 2032.12 313.239 z" fill="rgb(159,157,159)" transform="translate(0,0)"></path>
<path d="M 2039.66 433.715 C 2040.69 434.326 2041.15 434.768 2042.06 435.534 C 2044.26 435 2045.74 434.574 2048 434.36 L 2048 437.588 C 2044.29 439.815 2043.59 441.286 2039.02 443.678 C 2039.35 442.966 2041.12 440.13 2040.83 439.611 C 2040.39 439.494 2039.88 439.614 2039.42 439.661 C 2038.96 438.921 2038.23 437.864 2037.98 437.07 L 2038.22 436.366 C 2038.71 434.936 2038.62 434.829 2039.66 433.715 z" fill="rgb(201,202,204)" transform="translate(0,0)"></path>
<path d="M 2039.66 433.715 C 2040.69 434.326 2041.15 434.768 2042.06 435.534 C 2041.17 437.858 2040.56 437.116 2037.98 437.07 L 2038.22 436.366 C 2038.71 434.936 2038.62 434.829 2039.66 433.715 z" fill="rgb(56,55,58)" transform="translate(0,0)"></path>
<path d="M 2039.42 439.661 C 2039.88 439.614 2040.39 439.494 2040.83 439.611 C 2041.12 440.13 2039.35 442.966 2039.02 443.678 C 2038.73 445.267 2038.55 446.056 2038.08 447.597 L 2024.53 445.318 C 2027.73 443.79 2033.97 440.584 2037.17 440.028 L 2039.42 439.661 z" fill="rgb(8,8,9)" transform="translate(0,0)"></path>
<path d="M 2029.21 410.332 C 2029.77 410.37 2030.77 410.344 2031.22 410.647 C 2031.11 412.636 2028.61 415.367 2030.56 419.298 C 2031.01 420.202 2030.63 421.649 2030.45 422.62 C 2025.83 421.128 2026.31 418.449 2024.19 422.784 L 2023.02 422.346 C 2025.08 417.948 2027.3 414.455 2029.21 410.332 z" fill="rgb(8,8,9)" transform="translate(0,0)"></path>
<path d="M 2039.02 443.678 C 2043.59 441.286 2044.29 439.815 2048 437.588 L 2048 443.246 C 2042.35 445.768 2038.73 441.267 2040.3 448.632 C 2039.52 448.246 2038.89 447.904 2038.08 447.597 C 2038.55 446.056 2038.73 445.267 2039.02 443.678 z" fill="rgb(56,55,58)" transform="translate(0,0)"></path>
<path d="M 2031.24 422.954 C 2036.27 421.911 2040.2 421.259 2044.48 424.658 L 2042.8 424.688 C 2037.12 423.502 2037.67 424.119 2032.26 426.758 C 2031.63 425.079 2031.45 424.73 2031.24 422.954 z" fill="rgb(31,30,31)" transform="translate(0,0)"></path>
<path d="M 2024.19 422.784 C 2026.31 418.449 2025.83 421.128 2030.45 422.62 L 2031.24 422.954 C 2031.45 424.73 2031.63 425.079 2032.26 426.758 L 2030.76 427.234 C 2029.96 426.377 2029.79 425.514 2028.77 426.461 C 2027.22 423.509 2027.37 423.525 2024.19 422.784 z" fill="rgb(201,202,204)" transform="translate(0,0)"></path>
<path d="M 2018.83 430.093 L 2019.76 430.289 C 2020.41 431.726 2022.33 434.694 2022.23 435.38 C 2021.35 436.487 2018.75 437.369 2017.49 436.411 C 2018 434.218 2018.39 432.287 2018.83 430.093 z" fill="rgb(8,8,9)" transform="translate(0,0)"></path>
<path d="M 2042.8 424.688 L 2044.48 424.658 C 2043.73 430.769 2041.94 430.028 2042.06 435.534 C 2041.15 434.768 2040.69 434.326 2039.66 433.715 C 2041.68 430.018 2042.19 428.96 2042.8 424.688 z" fill="rgb(159,157,159)" transform="translate(0,0)"></path>
<path d="M 2018.83 430.093 C 2019.71 425.694 2020.21 425.925 2023.02 422.346 L 2024.19 422.784 C 2021.73 425.833 2021.5 426.884 2019.76 430.289 L 2018.83 430.093 z" fill="rgb(201,202,204)" transform="translate(0,0)"></path>
<path d="M 2028.77 426.461 C 2029.79 425.514 2029.96 426.377 2030.76 427.234 C 2030.41 427.841 2030.08 428.925 2029.26 428.851 C 2028.68 428.19 2028.8 427.358 2028.77 426.461 z" fill="rgb(159,157,159)" transform="translate(0,0)"></path>
<path d="M 1893.31 338.796 C 1899.62 332.041 1906.09 325.434 1912.72 318.982 C 1922.35 336.276 1932.3 354.575 1940.78 372.417 C 1948.81 389.304 1955.66 406.247 1964.19 423.002 L 1961.57 423.446 C 1951.31 407.003 1925.76 377.102 1912.64 360.288 C 1916.26 369.543 1919.78 378.836 1923.2 388.164 C 1916.22 377.819 1908.49 363.664 1902.1 352.606 C 1899.11 347.51 1896.72 343.632 1893.31 338.796 z" fill="rgb(8,8,9)" transform="translate(0,0)"></path>
<path d="M 1977.75 301.072 C 1983.26 303.179 1989.89 307.35 1994.85 310.493 C 1995.35 328.779 1996.34 355.123 1998.06 372.702 C 1993.69 375.008 1990.43 376.182 1987.91 380.309 L 1983.91 391.2 C 1974.64 374.52 1975.24 368.502 1976.16 349.624 C 1976.94 333.7 1977.77 317.003 1977.75 301.072 z" fill="rgb(8,8,9)" transform="translate(0,0)"></path>
<path d="M 2007.63 285.571 C 2010.72 285.905 2015.92 286.561 2018.4 288.146 C 2022.57 290.802 2025.52 309.134 2026.49 314.082 C 2023.68 316.864 2021.03 319.479 2018.29 322.341 C 2015.14 326.043 2003.04 314.178 2000.4 311.776 C 2004.7 301.896 2005.83 296.233 2007.63 285.571 z" fill="rgb(8,8,9)" transform="translate(0,0)"></path>
<path d="M 2001.43 320.337 C 2007.5 322.994 2009.94 324.483 2016.76 326.96 C 2016.51 339.29 2016.01 351.706 2015.91 363.997 C 2015.9 364.536 2014.78 364.705 2014.48 364.751 L 2013.67 364.896 C 2009.29 366.573 2006.89 367.81 2002.76 369.926 C 2001.62 354.531 2001.73 336.121 2001.43 320.337 z" fill="rgb(8,8,9)" transform="translate(0,0)"></path>
<path d="M 1926.32 302.401 C 1932.67 306.144 1939.91 327.873 1942.69 335.104 C 1938.72 330.164 1934.12 323.107 1930.43 317.75 C 1933.26 330.797 1938.9 347.648 1942.93 360.5 L 1947.63 376.883 C 1941.25 366.616 1921.82 329.835 1917.74 318.697 C 1920.01 313.788 1923.7 307.311 1926.32 302.401 z" fill="rgb(8,8,9)" transform="translate(0,0)"></path>
<path d="M 2005.38 266.009 C 2006.07 273.458 2000.1 300.543 1997.29 308.137 C 1994.08 306.106 1991.59 304.151 1988.49 302.164 C 1986.56 301.237 1984.39 300.223 1982.56 299.138 C 1981.98 298.783 1981.38 298.436 1980.79 298.096 C 1986.94 289.714 1998.79 272.301 2005.38 266.009 z" fill="rgb(8,8,9)" transform="translate(0,0)"></path>
<path d="M 1892.62 340.007 C 1892.86 339.472 1892.91 339.234 1893.31 338.796 C 1896.72 343.632 1899.11 347.51 1902.1 352.606 L 1900.84 355.127 C 1908.36 370.757 1916.31 388.453 1924.18 403.745 L 1923.45 406.685 C 1912.72 389.364 1897.05 363.608 1887.75 345.821 C 1888.3 342.992 1890.02 342.337 1892.62 340.007 z" fill="rgb(8,8,9)" transform="translate(0,0)"></path>
<path d="M 1892.62 340.007 C 1892.86 339.472 1892.91 339.234 1893.31 338.796 C 1896.72 343.632 1899.11 347.51 1902.1 352.606 L 1900.84 355.127 C 1898.37 350.681 1895.22 344.105 1892.62 340.007 z" fill="rgb(201,202,204)" transform="translate(0,0)"></path>
<path d="M 2010.77 384.168 C 2012.38 384.478 2013.97 384.816 2015.57 385.18 C 2015.42 386.063 2015.23 386.845 2015.04 387.718 C 2009.2 403.784 2005.81 414.523 1998.37 430.682 C 1998.12 417.449 2000.62 404.878 2002.38 391.855 C 2003.35 384.691 2002.83 384.695 2009.82 384.965 L 2010.77 384.168 z" fill="rgb(8,8,9)" transform="translate(0,0)"></path>
<path d="M 2010.77 384.168 C 2012.38 384.478 2013.97 384.816 2015.57 385.18 C 2015.42 386.063 2015.23 386.845 2015.04 387.718 C 2013.25 386.646 2011.65 385.9 2009.82 384.965 L 2010.77 384.168 z" fill="rgb(201,202,204)" transform="translate(0,0)"></path>
<path d="M 1892.22 293.783 C 1900.62 295.061 1912.04 298.815 1920.83 301.165 C 1919.22 304.114 1917.46 306.683 1915.63 309.5 C 1915.13 310.206 1912.03 315.595 1911.03 314.662 C 1904.4 308.507 1896.96 301.558 1892.22 293.783 z" fill="rgb(8,8,9)" transform="translate(0,0)"></path>
<path d="M 2021.98 371.745 C 2023.29 368.61 2023.06 366.662 2026.64 367.944 C 2031.89 379.123 2032.14 377.748 2034.83 390.094 C 2028.62 389.726 2024.45 389.012 2018.58 388.482 L 2018.38 386.334 C 2019.55 381.423 2020.85 376.719 2021.98 371.745 z" fill="rgb(8,8,9)" transform="translate(0,0)"></path>
<path d="M 1985.28 408.305 C 1985.57 407.372 1989.32 392.402 1989.33 392.194 C 1989.71 379.621 1999.53 382.617 1997.36 387.274 C 1994.16 394.132 1990.1 402.648 1986.93 409.972 L 1985.28 408.305 z" fill="rgb(8,8,9)" transform="translate(0,0)"></path>
<path d="M 2008.33 266.532 C 2012.06 269.383 2015.41 279.204 2017.51 283.976 C 2013.02 282.952 2011.37 282.548 2006.94 281.208 C 2007.32 276.289 2007.85 271.441 2008.33 266.532 z" fill="rgb(8,8,9)" transform="translate(0,0)"></path>
<path d="M 2010.77 384.168 C 2010.1 383.215 2008.93 381.988 2008.74 380.981 C 2009.47 379.031 2017.1 371.391 2019.31 371.626 C 2018.87 376.342 2017.73 379.619 2016.49 384.18 L 2015.57 385.18 C 2013.97 384.816 2012.38 384.478 2010.77 384.168 z" fill="rgb(8,8,9)" transform="translate(0,0)"></path>
<path d="M 1985.55 284.068 C 1986.01 288.224 1978.95 295.167 1975.88 297.758 C 1974.56 291.181 1980.6 287.857 1985.55 284.068 z" fill="rgb(8,8,9)" transform="translate(0,0)"></path>
<path d="M 1924.18 403.745 C 1927.04 408.59 1928.78 413.097 1931.02 418.234 C 1928.25 414.694 1925.41 410.747 1923.45 406.685 L 1924.18 403.745 z" fill="rgb(56,55,58)" transform="translate(0,0)"></path>
<path d="M 1961.57 423.446 L 1964.19 423.002 C 1965.95 426.825 1967.65 430.831 1969.36 434.7 C 1966.71 430.99 1964.16 427.212 1961.57 423.446 z" fill="rgb(31,30,31)" transform="translate(0,0)"></path>
<path d="M 2034.87 395.083 C 2034.77 400.25 2034.47 400.691 2030.59 404.433 C 2031.94 399.827 2032.4 399.017 2034.87 395.083 z" fill="rgb(31,30,31)" transform="translate(0,0)"></path>
<path d="M 2026.58 303.645 C 2029.25 305.97 2029.84 306.343 2029.31 309.823 C 2027.3 309.832 2027.08 305.563 2026.58 303.645 z" fill="rgb(56,55,58)" transform="translate(0,0)"></path>
<path d="M 1985.28 408.305 L 1986.93 409.972 C 1986.54 410.966 1984.6 415.607 1983.57 415.936 C 1982.99 414.675 1984.76 409.871 1985.28 408.305 z" fill="rgb(56,55,58)" transform="translate(0,0)"></path>
<path d="M 2010.74 442.315 C 2011.01 442.267 2011.28 442.22 2011.54 442.172 C 2011.32 442.419 2011.11 442.666 2010.89 442.913 C 2010.16 443.131 2010.42 443.098 2010.04 443.104 C 2010.27 442.726 2010.08 442.972 2010.74 442.315 z" fill="rgb(159,157,159)" transform="translate(0,0)"></path>
<path d="M 1988.79 571.643 C 2002.04 569.237 2012.82 570.798 2025.07 569.771 C 2032.87 569.117 2036.6 550.919 2040.62 543.975 C 2043.81 543.029 2044.13 543.917 2048 545.305 L 2048 666.509 L 2047.2 666.619 C 1987.18 674.611 1899.05 669.779 1849.71 632.18 L 1848.85 630.664 C 1827.13 609.084 1828.14 585.074 1843.89 560.905 L 1846.66 561.896 C 1844.42 576.679 1843.86 580.304 1835.86 592.646 C 1836.54 597.503 1837.75 601.635 1839.02 606.337 L 1852.58 605.299 C 1869.04 618.433 1856.44 630.939 1885.61 626.207 C 1893.6 624.91 1912.36 639.919 1921.27 639.336 C 1925.32 639.071 1928.42 631.934 1930.53 629.132 C 1944.13 611.956 1962.15 621.089 1955.31 593.273 C 1973.45 587.213 1975.33 585.383 1988.79 571.643 z" fill="rgb(249,249,249)" transform="translate(0,0)"></path>
<path d="M 0.699004 682.591 C 6.0632 681.998 13.4622 682.032 19.0306 681.906 C 23.0459 695.16 24.8101 698.019 36.0767 705.854 L 38.2777 706.922 L 38.9182 706.696 C 39.1642 712.167 39.9682 719.092 42.1738 724.076 C 41.5958 725.113 41.6888 725.05 40.8773 725.871 L 41.7396 729.049 C 45.5356 728.767 52.5606 722.339 56.6749 719.835 C 58.0025 716.271 59.543 711.744 61.1472 708.387 L 77.456 701.524 L 88.0882 710.386 C 89.6898 718.879 91.6438 728.089 92.3416 736.638 L 100.323 744.828 L 102.214 743.63 C 103.606 739.465 121.737 730.175 126.922 726.458 C 131.746 734.06 133.821 740.815 135.688 749.551 C 144.658 746.196 149.649 744.014 159.145 742.286 C 160.229 745.069 162.175 749.652 162.733 752.389 L 165.75 751.917 C 167.185 752.584 176.904 755.013 179.236 755.625 C 180.095 755.406 180.839 755.224 181.686 754.955 C 183.903 752.688 186.33 750.725 188.931 748.91 L 189.509 750.471 C 193.292 749.07 192.157 748.862 195.506 749.875 C 198.201 752.764 199.118 758.313 200.146 762.318 C 190.666 770.141 166.896 781.412 153.903 789.289 C 139.396 788.768 129.847 792.305 115.883 795.975 C 85.9006 785.414 61.9779 793.257 31.514 789.714 C 24.9218 788.947 7.45034 780.839 0.571635 777.944 L 0.699004 682.591 z" fill="rgb(249,249,249)" transform="translate(0,0)"></path>
<path d="M 36.0767 705.854 L 38.2777 706.922 L 38.9182 706.696 C 39.1642 712.167 39.9682 719.092 42.1738 724.076 C 41.5958 725.113 41.6888 725.05 40.8773 725.871 C 38.1057 718.655 37.6913 713.392 36.0767 705.854 z" fill="rgb(108,106,110)" transform="translate(0,0)"></path>
<path d="M 162.733 752.389 L 165.75 751.917 C 167.185 752.584 176.904 755.013 179.236 755.625 L 178.363 757.219 C 173.783 756.051 165.699 754.993 162.733 752.389 z" fill="rgb(108,106,110)" transform="translate(0,0)"></path>
<path d="M 100.323 744.828 L 102.214 743.63 C 102.203 745.96 101.083 758.349 99.6877 759.155 L 99.5625 759.119 C 98.6114 758.111 100.068 746.71 100.323 744.828 z" fill="rgb(159,157,159)" transform="translate(0,0)"></path>
<path d="M 181.686 754.955 C 183.903 752.688 186.33 750.725 188.931 748.91 L 189.509 750.471 C 188.325 752.317 185.354 754.441 183.384 755.379 L 181.686 754.955 z" fill="rgb(159,157,159)" transform="translate(0,0)"></path>
<path d="M 181.686 754.955 L 183.384 755.379 L 182.893 755.818 C 180.848 757.67 181.093 758.352 178.363 757.219 L 179.236 755.625 C 180.095 755.406 180.839 755.224 181.686 754.955 z" fill="rgb(56,55,58)" transform="translate(0,0)"></path>
<path d="M 170.113 727.105 C 173.37 725.71 181.057 718.281 184.825 715.701 C 195.232 708.573 205.262 709.764 216.944 710.645 L 210.496 733.361 L 188.931 748.91 C 186.33 750.725 183.903 752.688 181.686 754.955 C 180.839 755.224 180.095 755.406 179.236 755.625 C 176.904 755.013 167.185 752.584 165.75 751.917 C 164.644 745.789 161.102 740.885 162.715 735.386 L 162.385 733.808 C 165.077 729.946 166.129 729.29 170.113 727.105 z" fill="rgb(249,249,249)" transform="translate(0,0)"></path>
<path d="M 170.113 727.105 C 167.388 731.067 166.428 732.318 162.715 735.386 L 162.385 733.808 C 165.077 729.946 166.129 729.29 170.113 727.105 z" fill="rgb(56,55,58)" transform="translate(0,0)"></path>
<path d="M 160.5 716.581 C 163.814 720.529 166.964 723.364 170.113 727.105 C 166.129 729.29 165.077 729.946 162.385 733.808 C 156.881 737.491 147.416 739.753 139.624 743.436 C 138.478 739.18 137.248 735.52 136.026 731.335 C 144.231 724.08 150.577 721.278 160.5 716.581 z" fill="rgb(249,249,249)" transform="translate(0,0)"></path>
<path d="M 38.9182 706.696 C 42.4876 705.343 52.2122 705.986 54.6488 708.824 C 49.356 722.436 52.1336 715.145 42.1738 724.076 C 39.9682 719.092 39.1642 712.167 38.9182 706.696 z" fill="rgb(249,249,249)" transform="translate(0,0)"></path>
<path d="M 1843.89 560.905 C 1857.37 545.378 1880.8 533.091 1901.01 531.813 C 1902.17 531.738 1903.34 531.763 1904.5 531.886 C 1901.59 533.206 1900 532.971 1897.14 533.502 C 1883.83 535.979 1852.64 549.455 1846.66 561.896 L 1843.89 560.905 z" fill="rgb(159,157,159)" transform="translate(0,0)"></path>
<path d="M 1455.29 334.329 C 1473.72 331.759 1499.58 335.096 1514.99 346.64 C 1546.61 370.319 1540.35 413.318 1540.92 447.987 C 1541.24 467.822 1540.97 488.087 1540.9 507.988 C 1540.71 559.394 1547.26 620.182 1481.24 629.781 C 1381.19 639.392 1395.65 547.256 1395.23 479.233 C 1395.05 450.286 1394.16 419.22 1397.45 390.505 C 1401.52 355.141 1421.02 339.091 1455.29 334.329 z" fill="rgb(249,249,249)" transform="translate(0,0)"></path>
<path d="M 1463.71 386.123 C 1478.46 386.275 1480.62 391.358 1480.8 405.438 C 1481.34 454.105 1481.17 502.841 1480.88 551.515 C 1480.81 562.142 1481.02 571.883 1471.53 578.123 C 1468.97 578.144 1465.94 578.155 1463.47 577.432 C 1460.7 576.616 1458.34 574.876 1457.02 572.251 C 1454.64 567.513 1454.42 559.471 1454.16 554.163 C 1453.2 534.455 1452.17 404.617 1455.59 394.264 C 1457 390 1459.92 388.105 1463.71 386.123 z" fill="rgb(8,8,9)" transform="translate(0,0)"></path>
<path d="M 566.572 334.363 C 566.759 334.329 566.946 334.295 567.133 334.261 C 662.423 328.433 651.314 404.332 650.857 472.763 C 650.74 477.206 651.047 481.763 650.897 486.194 C 649.123 538.452 664.592 620.049 592.244 629.84 C 506.837 639.64 502.53 572.392 505.275 508.534 C 506.321 484.204 505.148 454.911 505.205 430.292 C 505.317 381.644 509.132 340.931 566.572 334.363 z" fill="rgb(249,249,249)" transform="translate(0,0)"></path>
<path d="M 572.883 386.098 C 574.905 386.057 578.275 385.99 580.196 386.304 C 583.519 386.814 586.46 388.73 588.268 391.564 C 594.937 402.015 589.08 533.176 590.897 554.297 C 591.654 563.093 589.726 572.186 581.721 577.538 C 579.775 577.854 577.135 577.924 575.176 577.761 C 572.592 577.562 570.211 576.286 568.614 574.245 C 561.04 564.431 564.645 487.19 564.008 470.106 C 563.231 449.305 564.08 420.845 564.725 399.478 C 564.918 393.096 568.125 389.75 572.883 386.098 z" fill="rgb(8,8,9)" transform="translate(0,0)"></path>
<path d="M 343.162 335.887 C 365.85 335.949 440.889 332.875 457.641 339.344 C 467.707 343.231 474.636 350.769 478.953 360.532 C 488.901 383.028 490.799 427.487 481.758 450.508 C 477.046 462.508 470.177 468.334 458.706 473.407 C 473.193 479.264 480.248 486.277 482.495 502.24 C 484.943 519.636 483.365 536.977 483.202 554.476 C 482.972 579.304 483.192 604.166 482.227 628.978 L 425.246 628.974 L 425.065 579.635 C 425.111 566.293 427.95 504.231 421.068 496.508 C 416.115 490.95 408.924 491.174 402.077 490.621 L 402.384 628.943 L 343.017 629.021 L 343.162 335.887 z" fill="rgb(249,249,249)" transform="translate(0,0)"></path>
<path d="M 404.758 388.499 C 409.299 388.345 420.37 387.343 423.427 390.69 C 433.103 401.279 431.416 428.99 422.681 439.575 C 416.753 442.228 408.896 441.779 402.416 441.779 C 402.379 431.572 401.712 397.276 403.128 389.604 L 404.758 388.499 z" fill="rgb(8,8,9)" transform="translate(0,0)"></path>
<path d="M 1311.09 335.929 L 1370.35 336.082 L 1370.09 628.9 L 1337.5 629.043 L 1310.95 629.117 L 1310.97 492.969 L 1285.05 492.927 L 1284.94 628.856 L 1226.05 629.037 L 1225.84 335.995 L 1284.78 336.069 L 1284.97 438.06 L 1310.81 438.223 L 1311.09 335.929 z" fill="rgb(249,249,249)" transform="translate(0,0)"></path>
<path d="M 840.67 335.801 L 898.627 335.936 C 901.23 351.187 896.53 437.776 900.517 443.856 C 908.735 410.08 918.814 369.652 925.64 335.792 C 944.816 335.833 964.503 335.667 983.641 335.925 L 964.484 417.274 C 962.856 423.984 952.901 462.372 953.344 466.791 C 954.877 482.104 964.112 515.652 967.938 531.408 L 991.318 628.956 L 930.575 629.007 C 920.107 582.835 910.506 535.674 899.811 489.791 C 897.985 500.76 898.578 522.481 898.651 534.132 C 898.856 556.362 898.918 578.593 898.837 600.824 C 898.813 607.13 899.121 623.353 898.291 629.022 L 840.242 629.161 C 839.613 531.375 839.756 433.585 840.67 335.801 z" fill="rgb(249,249,249)" transform="translate(0,0)"></path>
<path d="M 898.291 629.022 C 897.04 617.449 897.675 579.427 897.88 565.677 C 898.23 542.182 896.692 508.501 898.314 486.278 L 899.084 486.229 L 899.811 489.791 C 897.985 500.76 898.578 522.481 898.651 534.132 C 898.856 556.362 898.918 578.593 898.837 600.824 C 898.813 607.13 899.121 623.353 898.291 629.022 z" fill="rgb(108,106,110)" transform="translate(0,0)"></path>
<path d="M 898.627 335.936 C 901.23 351.187 896.53 437.776 900.517 443.856 L 900.127 448.162 L 897.896 447.686 C 899.416 417.736 897.095 386.006 898.055 355.904 C 898.273 349.077 897.85 342.819 898.627 335.936 z" fill="rgb(56,55,58)" transform="translate(0,0)"></path>
<path d="M 897.896 447.686 L 900.127 448.162 C 899.835 449.277 899.362 451.416 898.529 452.173 L 898.427 452.107 C 897.946 451.093 897.96 448.882 897.896 447.686 z" fill="rgb(159,157,159)" transform="translate(0,0)"></path>
<path d="M 731.617 334.316 C 735.779 333.938 739.954 333.723 744.132 333.67 C 764.554 333.455 786.553 337.729 801.547 352.687 C 807.739 358.776 812.305 366.32 814.826 374.631 C 819.097 389.11 817.647 438.419 817.537 455.664 L 759.318 456.034 C 759.574 438.023 760.472 419.003 759.518 401.316 C 757.29 378.417 732.924 380.425 732.549 404.521 C 731.731 457.189 731.08 510.304 733.008 562.945 C 733.288 570.599 736.377 577.253 744.929 577.747 C 748.522 577.948 752.037 576.651 754.638 574.164 C 762.254 566.742 759.443 515.377 759.331 502.098 L 770.5 502.002 L 820.281 502.067 C 819.803 532.872 822.458 581.347 804.807 606.361 C 795.5 619.296 780.774 627.37 765.225 629.662 C 721.431 636.12 681.316 620.762 675.248 572.034 C 672.801 552.377 674.324 533.107 674.031 513.272 C 673.924 506.073 674.195 498.521 674.096 491.29 C 678.257 435.94 653.764 345.569 731.617 334.316 z" fill="rgb(249,249,249)" transform="translate(0,0)"></path>
<path d="M 1113.92 334.322 C 1114.73 334.212 1115.54 334.125 1116.35 334.061 C 1182 329.431 1197.91 357.534 1202.36 417.681 C 1181.91 418.08 1161.45 418.19 1141 418.009 C 1141.07 409.117 1142.28 398.944 1137.21 391.172 C 1133.54 385.553 1126.67 382.997 1121.14 388.106 C 1112.71 395.882 1115.84 410.046 1122 418.2 C 1128.33 426.562 1136.93 433.465 1144.55 440.637 C 1157.92 452.812 1171.53 464.655 1183.35 478.397 C 1204.27 502.24 1205.37 530.466 1202.94 560.798 C 1201.3 581.19 1195.92 604.833 1179.39 618.759 C 1165.31 630.624 1137.41 631.74 1119.81 629.983 C 1114.47 629.733 1107.08 627.899 1101.96 626.284 C 1053.48 610.996 1059.69 555.086 1059.91 514.999 L 1117.98 514.993 C 1117.87 528.732 1115.13 570.243 1124.31 575.614 C 1143.12 586.62 1145.89 563.789 1145.95 553.825 C 1146.28 495.473 1067.92 479.82 1061.32 422.662 C 1056.63 382.007 1067.75 341.081 1113.92 334.322 z" fill="rgb(249,249,249)" transform="translate(0,0)"></path>
<path d="M 1565.96 335.886 C 1592.44 335.826 1642.21 334.278 1665.64 338.517 C 1720.61 348.467 1717.43 469.94 1687.25 501.572 C 1672.33 517.212 1643.15 514.265 1623.36 514.098 C 1623.13 523.655 1623.21 533.8 1623.15 543.401 C 1623.13 571.907 1623.3 600.412 1623.67 628.915 L 1565.99 629.094 L 1565.96 335.886 z" fill="rgb(249,249,249)" transform="translate(0,0)"></path>
<path d="M 1623.76 387.412 C 1637.07 386.912 1645.64 388.438 1648.87 403.411 C 1652.45 420.022 1652.52 441.208 1643.69 456.193 C 1636.83 461.963 1631.83 461.259 1623.04 461.582 C 1623.05 452.312 1621.91 392.18 1623.76 387.412 z" fill="rgb(8,8,9)" transform="translate(0,0)"></path>
<path d="M 1061.42 774.668 C 1053.82 775.515 1044.24 778.356 1036.87 778.426 C 991.718 778.859 946.747 781.476 901.906 774.256 C 896.516 773.388 885.517 775.327 879.201 775.074 C 868.905 774.663 858.072 774.86 847.723 774.558 C 833.588 774.152 772.31 780.938 762.021 778.593 C 761.586 777.179 761.261 776.018 760.903 774.583 C 744.36 773.646 722.474 774.199 705.723 774.682 C 691.813 774.485 671.873 778.908 658.547 778.137 C 627.513 776.342 599.488 772.904 568.541 779.997 C 563.243 781.211 520.173 781.328 517.085 779.07 L 519.231 776.755 C 516.286 774.186 437.1 779.699 424.782 773.722 C 416.709 769.804 352.048 776.443 347.498 769.515 L 349.004 767.969 C 355.566 766.029 372.29 767.701 380.418 767.552 L 486.196 766.425 C 514.239 766.244 546.096 763.127 573.868 763 L 952.957 763.685 C 958.491 763.649 964.025 761.323 970.98 761.207 C 1032.79 760.179 1094.15 758.265 1155.97 761.49 C 1162.64 761.838 1170.48 760.01 1177.01 761.346 C 1170 767.481 1139.6 764.171 1129.55 764.375 C 1125.61 764.455 1117.9 762.543 1113.92 762.098 C 1110.37 761.702 1108.02 765.04 1104.75 764.904 C 1083.38 764.013 1063 762.74 1041.55 764.006 C 1034.26 764.437 1030.73 765.763 1024.03 766.847 C 1019.77 767.537 1015.06 765.667 1009.6 767.815 L 1008.16 769.35 C 1008.8 778.623 1052.43 773.052 1061.42 774.668 z" fill="rgb(31,30,31)" transform="translate(0,0)"></path>
<path d="M 1535.9 760.655 C 1538.05 759.785 1550.32 756.669 1547.76 761.958 L 1547.85 764.188 C 1567.41 764.038 1593.96 761.987 1612.02 762.852 C 1613.94 762.981 1619.83 762.769 1620.97 763.763 C 1622.41 765.026 1620.51 764.821 1623.9 765.348 C 1634.71 765.149 1654.79 766.815 1666.53 767.177 C 1676.47 767.483 1709.25 765.997 1715.83 767.215 L 1712.73 768.438 C 1713.46 769.039 1713.85 769.732 1714.3 770.559 C 1702.58 773.337 1677.73 769.764 1664.57 771.567 C 1662.52 771.847 1646.04 774.29 1646.2 774.297 C 1594.01 772.139 1542.37 772.835 1490.25 776.67 C 1471.96 778.041 1445.57 771.6 1428.35 772.782 C 1404.32 774.432 1376.27 777.724 1352.07 775.492 C 1324.97 772.993 1303.43 776.923 1277.24 776.744 C 1230.73 776.427 1184.47 778.01 1138.11 775.046 C 1113.91 773.278 1084.78 777.278 1061.42 774.668 C 1052.43 773.052 1008.8 778.623 1008.16 769.35 L 1009.6 767.815 C 1015.06 765.667 1019.77 767.537 1024.03 766.847 C 1030.73 765.763 1034.26 764.437 1041.55 764.006 C 1063 762.74 1083.38 764.013 1104.75 764.904 C 1108.02 765.04 1110.37 761.702 1113.92 762.098 C 1117.9 762.543 1125.61 764.455 1129.55 764.375 C 1139.6 764.171 1170 767.481 1177.01 761.346 C 1181.13 762.293 1197.03 762.104 1202.02 762.108 C 1218.23 762.048 1234.45 762.102 1250.66 762.27 L 1310.25 763.921 C 1332.5 764.674 1353.1 765.579 1375.47 762.931 C 1381.96 762.163 1397.87 758.977 1402.81 764.182 C 1426.92 765.966 1458.35 764.891 1482.64 763.626 C 1490.2 763.233 1501.62 759.374 1509.43 759.312 C 1518.47 759.24 1526.59 760.916 1535.9 760.655 z" fill="rgb(203,52,57)" transform="translate(0,0)"></path>
<path d="M 1535.9 760.655 C 1538.05 759.785 1550.32 756.669 1547.76 761.958 L 1547.85 764.188 C 1544.14 764.15 1540.49 763.996 1536.79 763.868 C 1536.23 762.339 1536.55 762.203 1535.9 760.655 z" fill="rgb(179,50,59)" transform="translate(0,0)"></path>
<path d="M 1536.79 763.868 C 1540.85 763.025 1543.62 762.331 1547.76 761.958 L 1547.85 764.188 C 1544.14 764.15 1540.49 763.996 1536.79 763.868 z" fill="rgb(31,30,31)" transform="translate(0,0)"></path>
<path d="M 951.051 287.886 C 959.164 278.506 1050.5 286.397 1066.27 287.463 C 1068.97 286.89 1070.99 286.901 1073.7 286.698 C 1073.53 288.308 1073.35 288.638 1073.92 290.102 C 1075.91 291.029 1076.87 291.242 1078.17 292.924 C 1078.04 293.303 1077.56 294.186 1077.79 294.577 C 1078.04 294.998 1080.35 295.76 1081.24 297.088 C 1080.8 297.542 1078.12 300.241 1077.79 300.301 C 1070.49 301.619 1058.67 302.358 1051.67 302.173 C 1028.49 301.562 1005.32 302.908 982.337 302.706 C 964.823 302.552 950.828 300.57 932.774 302.627 C 931.896 303.739 930.993 304.803 930.269 306.019 C 920.756 305.55 833.635 304.184 832.429 303.716 C 824.544 305.191 811.282 305.98 803.566 303.881 C 786.013 304.381 768.222 305.096 750.678 305.192 C 738.759 304.598 726.606 302.277 714.646 302.971 C 707.253 303.399 706.547 302.336 700.293 300.678 C 703.462 295.816 707.023 289.008 713.361 290.202 L 714.251 292.181 L 715.84 292.184 C 716.289 292.649 717.402 293.251 718.009 293.619 C 723.491 292.099 731.609 292.285 737.44 292.083 C 744.58 291.836 746.007 288.927 752.623 286.338 C 763.422 284.025 772.745 288.082 784.441 288.103 C 791.613 282.762 846.586 286.751 858.688 286.729 C 870.542 286.707 882.378 282.485 893.255 286.887 C 900.398 289.411 945.824 291.009 951.051 287.886 z" fill="rgb(203,52,57)" transform="translate(0,0)"></path>
<path d="M 951.051 287.886 C 959.164 278.506 1050.5 286.397 1066.27 287.463 C 1068.97 286.89 1070.99 286.901 1073.7 286.698 C 1073.53 288.308 1073.35 288.638 1073.92 290.102 L 1072.26 290.68 C 1071.32 291.291 1070.37 291.844 1069.33 292.267 C 1061.82 295.316 980.999 293.4 968.505 292.142 C 962.266 291.514 956.907 290.182 951.051 287.886 z" fill="rgb(31,30,31)" transform="translate(0,0)"></path>
<path d="M 1066.27 287.463 C 1068.97 286.89 1070.99 286.901 1073.7 286.698 C 1073.53 288.308 1073.35 288.638 1073.92 290.102 L 1072.26 290.68 L 1071.49 290.131 C 1068.44 287.985 1067.22 290.032 1066 289.164 C 1065.79 288.707 1066.11 288.039 1066.27 287.463 z" fill="rgb(114,37,41)" transform="translate(0,0)"></path>
<path d="M 784.441 288.103 C 791.613 282.762 846.586 286.751 858.688 286.729 C 870.542 286.707 882.378 282.485 893.255 286.887 C 888.646 288.521 887.793 288.843 884.054 291.924 C 876.202 292.118 849.996 295.72 845.549 294.051 L 844.452 290.377 C 840.218 289.1 827.461 292.034 822.158 292.777 C 807.933 294.772 797.768 290.09 784.441 288.103 z" fill="rgb(31,30,31)" transform="translate(0,0)"></path>
<path d="M 803.566 303.881 C 816.382 301.137 819.662 301.341 832.429 303.716 C 824.544 305.191 811.282 305.98 803.566 303.881 z" fill="rgb(31,30,31)" transform="translate(0,0)"></path>
<path d="M 404.925 300.496 C 383.534 294.655 361.374 298.609 341.629 296.692 C 341.521 295.401 341.195 292.457 341.933 291.552 C 344.422 288.505 360.444 292.238 364.255 291.372 C 374.351 289.158 382.092 288.072 392.364 287.773 C 411.053 287.229 427.724 291.297 446.363 288.657 C 469.136 285.432 489.632 284.399 512.205 289.064 C 517.741 290.208 531.083 285.703 537.361 286.284 C 560.055 288.131 582.122 288.867 604.872 287.467 C 613.436 286.974 624.569 289.537 633.403 289.147 C 637.543 288.965 643.419 285.892 647.547 284.858 C 650.55 284.017 652.914 286.253 656.032 288.05 C 676.701 287.538 734.48 280.826 752.623 286.338 C 746.007 288.927 744.58 291.836 737.44 292.083 C 731.609 292.285 723.491 292.099 718.009 293.619 C 717.402 293.251 716.289 292.649 715.84 292.184 L 714.251 292.181 L 713.361 290.202 C 707.023 289.008 703.462 295.816 700.293 300.678 C 695.359 297.618 660.967 305.231 651.855 304.911 C 635.645 304.341 616.186 306.215 599.922 305.648 C 592.452 305.387 582.422 301.216 573.106 301.265 C 563.482 301.316 552.255 304.237 543.451 303.916 C 532.28 303.507 520.822 299.991 509.012 299.82 C 496.329 299.635 486.359 305.239 474.427 305.598 C 464.854 305.887 452.409 302.486 442.987 301.481 C 435.227 300.654 417.303 301.401 409.755 302.554 C 412.322 304.245 417.353 304.097 420.678 304.282 C 409.081 306.539 395.371 304.901 383.452 304.057 C 391.323 303.053 397.19 302.184 404.925 300.496 z" fill="rgb(31,30,31)" transform="translate(0,0)"></path>
<path d="M 715.84 292.184 C 715.877 290.32 715.468 289.903 717.117 289.374 C 717.78 291.252 717.518 291.075 715.84 292.184 z" fill="rgb(179,50,59)" transform="translate(0,0)"></path>
<path d="M 718.517 658.049 L 741.034 658.032 C 742.449 667.397 745.056 687.891 747.562 696.404 C 750.254 684.004 751.62 669.694 754.381 658.034 L 777.991 658.082 L 778.002 729.968 L 763.359 729.949 C 761.709 721.293 764.953 695.431 761.392 689.985 C 759.28 703.111 757.264 716.782 754.859 729.812 L 741.052 729.834 L 734.519 691.108 C 731.832 695.374 733.454 719.326 732.226 728.396 C 729.126 730.809 722.603 730.018 718.115 729.926 C 718.105 706.158 717.812 681.76 718.517 658.049 z" fill="rgb(159,157,159)" transform="translate(0,0)"></path>
<path d="M 763.493 675.987 C 764.051 684.59 764.495 722.441 763.359 729.949 C 761.709 721.293 764.953 695.431 761.392 689.985 C 761.858 684.952 762.592 680.91 763.493 675.987 z" fill="rgb(56,55,58)" transform="translate(0,0)"></path>
<path d="M 732.01 685.239 L 733.714 685.877 C 733.957 687.669 734.175 689.328 734.519 691.108 C 731.832 695.374 733.454 719.326 732.226 728.396 C 731.573 715.911 731.952 698.088 732.01 685.239 z" fill="rgb(31,30,31)" transform="translate(0,0)"></path>
<path d="M 732.01 685.239 C 730.662 675.486 732.989 677.221 733.714 685.877 L 732.01 685.239 z" fill="rgb(108,106,110)" transform="translate(0,0)"></path>
<path d="M 1595.28 657.974 L 1610.93 657.99 L 1611.01 729.925 C 1599.38 730.602 1603.13 729.709 1592.87 727.449 L 1588.01 730.862 C 1567.98 731.925 1572.94 707.445 1572.44 694.162 C 1572.13 685.867 1572.21 671.169 1581 667.429 C 1583.97 666.163 1589.36 669.349 1592.19 670.782 L 1594.14 670.052 C 1595.93 667.068 1595.34 661.674 1595.28 657.974 z" fill="rgb(159,157,159)" transform="translate(0,0)"></path>
<path d="M 1589.88 678.18 C 1591.38 678.66 1594.61 679.723 1594.69 681.212 C 1595.12 688.689 1596.14 714.443 1593.86 719.974 C 1592.88 719.704 1588.72 719.007 1588.72 717.559 C 1588.68 707.33 1586.43 687.256 1589.88 678.18 z" fill="rgb(8,8,9)" transform="translate(0,0)"></path>
<path d="M 1541.97 668.273 C 1563.22 667.126 1567.44 679.364 1566.95 698.394 C 1566.58 712.388 1567.48 724.257 1552.44 729.932 C 1528.66 732.288 1526.43 719.168 1526.87 698.414 C 1527.16 684.583 1526.93 672.791 1541.97 668.273 z" fill="rgb(159,157,159)" transform="translate(0,0)"></path>
<path d="M 1544.76 679.212 C 1546.17 679.719 1549.92 680.931 1549.79 683.02 C 1549.24 692.114 1552.13 713.05 1547.85 720.407 C 1546.96 720.034 1544.46 719.121 1544.32 718.342 C 1542.85 710.386 1542.82 685.929 1544.76 679.212 z" fill="rgb(8,8,9)" transform="translate(0,0)"></path>
<path d="M 1163.83 668.333 C 1185.98 668.08 1187.15 681.256 1186.82 700.43 C 1186.57 714.387 1186.67 725.849 1171.41 730.425 C 1166.94 730.443 1161.21 730.654 1157.08 728.276 C 1142.89 720.087 1145.72 687.802 1151.89 675.268 C 1153.98 671.038 1159.37 669.306 1163.83 668.333 z" fill="rgb(159,157,159)" transform="translate(0,0)"></path>
<path d="M 1165.45 678.45 C 1167.32 679.265 1170.45 680.413 1170.22 682.95 C 1169.36 692.45 1173.3 713.481 1167.57 720.577 C 1165.82 719.1 1163.64 717.882 1163.72 715.518 C 1164.01 706.857 1161.74 685.336 1165.45 678.45 z" fill="rgb(8,8,9)" transform="translate(0,0)"></path>
<path d="M 1454.14 658.094 C 1454.83 658.066 1455.51 658.049 1456.2 658.043 C 1474.75 657.895 1477.14 666.56 1477.04 682.524 L 1463.26 682.427 C 1462.81 676.574 1463.62 675.508 1460.53 670.574 L 1458.58 670.215 C 1453.26 675.471 1454.77 700.342 1454.75 707.969 C 1454.74 713.223 1455.2 716.91 1460.65 718.035 L 1462.29 716.936 C 1465.48 708.612 1458.32 696.539 1459.19 689.339 C 1462.05 687.733 1468.67 688.367 1472.25 688.45 C 1473.9 688.432 1474.2 688.619 1475.78 688.991 C 1478.03 693.013 1477.51 724.648 1476.16 728.958 C 1472.75 729.483 1473.47 726.39 1468.39 724.267 C 1466.1 726.299 1462.78 729.01 1459.96 730.179 C 1457.14 731.363 1453.95 731.34 1451.13 730.116 C 1437.25 723.936 1440.49 697.887 1440.27 685.454 C 1440.04 672.601 1441.12 662.586 1454.14 658.094 z" fill="rgb(159,157,159)" transform="translate(0,0)"></path>
<path d="M 937.917 669.27 C 978.188 664.879 966.895 698.755 966.856 730.004 C 959.67 730.247 955.534 731.717 950.33 726.324 C 943.453 731.893 942.363 731.243 933.88 729.593 C 929.965 725.582 927.472 717.433 927.583 712.141 C 927.915 696.38 944.942 692.963 950.647 686.895 C 950.504 683.246 950.556 680.798 946.898 679.379 C 943.079 683.423 946.844 683.062 943.125 687.345 C 938.039 689.201 932.902 687.525 929.567 683.351 C 927.896 676.117 932.067 672.868 937.917 669.27 z" fill="rgb(159,157,159)" transform="translate(0,0)"></path>
<path d="M 949.736 697.852 C 951.411 699.75 952.37 716.465 948.59 718.961 L 946.527 720.3 C 943.162 714.516 942.375 704.756 947.544 699.88 L 949.736 697.852 z" fill="rgb(8,8,9)" transform="translate(0,0)"></path>
<path d="M 548.277 668.151 C 550.022 668.03 551.771 667.969 553.52 667.97 C 581.305 668.185 572.895 709.495 572.743 729.878 C 568.698 729.949 560.907 730.448 557.364 729.307 L 556.702 725.867 C 549.303 726.43 551.423 735.436 537.858 728.046 C 527.47 703.168 537.95 698.981 555.887 687.747 C 558.074 686.377 556.846 680.54 552.473 678.761 C 548.873 683.038 551.556 684.05 549.115 686.915 C 543.636 687.448 541.576 687.695 536.069 687.078 L 534.448 684.951 C 532.802 676.603 541.322 670.568 548.277 668.151 z" fill="rgb(159,157,159)" transform="translate(0,0)"></path>
<path d="M 555.65 696.876 C 557.747 699.348 556.522 713.329 556.518 717.243 C 556.516 718.578 553.413 720.181 552.419 720.771 C 548.039 712.514 549.605 703.692 555.65 696.876 z" fill="rgb(8,8,9)" transform="translate(0,0)"></path>
<path d="M 359.1 658.173 C 360.329 658.095 361.559 658.039 362.79 658.005 C 384.969 657.299 385.025 669.038 384.891 687.257 L 370.026 687.4 C 370.2 682.031 371.849 673.966 367.099 671.023 L 364.822 671.745 C 361.577 675.54 362.099 713.665 364.621 717.079 C 367.293 717.605 366.176 717.743 368.859 716.123 C 371.135 712.815 370.146 703.768 370.021 699.239 L 385.081 699.219 C 385.175 706.654 386.38 724.166 378.045 727.798 C 354.694 737.944 345.315 720.172 347.197 699.066 C 348.542 683.974 343.162 667.237 359.1 658.173 z" fill="rgb(159,157,159)" transform="translate(0,0)"></path>
<path d="M 1498.05 668.29 C 1523.55 667.942 1522.27 679.669 1521.97 700.799 L 1498.97 700.807 C 1498.87 706.452 1497.67 714.809 1502.58 718.668 L 1504.29 717.589 C 1506.6 713.568 1506.17 710.482 1506.1 705.877 C 1510.09 705.855 1519.51 705.113 1522.24 707.236 C 1521.88 718.139 1520.01 725.835 1508.76 729.728 C 1499.06 733.984 1486.76 728.375 1484.38 717.509 C 1481.91 706.211 1481.18 686.212 1486.59 675.459 C 1488.91 670.844 1493.51 669.436 1498.05 668.29 z" fill="rgb(159,157,159)" transform="translate(0,0)"></path>
<path d="M 1499.54 679.247 C 1508.44 680.484 1505.83 685.086 1505.71 693.319 C 1496.27 692.13 1498.63 689.742 1499.54 679.247 z" fill="rgb(8,8,9)" transform="translate(0,0)"></path>
<path d="M 808.302 668.287 C 815.789 667.973 821.268 665.65 824.383 672.926 C 825.412 673.221 848.46 650.804 846.578 694.8 C 846.141 705.011 846.599 719.199 846.588 729.817 L 830.904 729.848 L 830.881 701.655 C 830.971 696.487 832.643 681.071 827.199 678.995 L 825.504 680.467 C 822.23 688.751 823.822 719.02 824.015 729.804 L 808.427 729.818 C 808.506 709.308 808.465 688.797 808.302 668.287 z" fill="rgb(159,157,159)" transform="translate(0,0)"></path>
<path d="M 863.799 669.231 C 890.781 665.579 891.369 677.686 891.242 700.244 C 883.949 700.648 875.636 700.641 868.256 700.806 C 868.109 706.025 866.878 716.535 872.114 719.53 L 873.705 718.114 C 875.748 714.083 875.294 710.357 875.199 705.865 L 889.844 705.894 C 893.061 711.292 890.288 724.626 884.221 727.514 C 866.247 736.327 851.545 725.714 852.517 705.959 C 853.192 692.221 849.317 676.865 863.799 669.231 z" fill="rgb(159,157,159)" transform="translate(0,0)"></path>
<path d="M 868.771 679.295 C 877.9 680.032 875.212 685.616 875.131 693.817 C 865.475 692.086 867.641 690.283 868.771 679.295 z" fill="rgb(8,8,9)" transform="translate(0,0)"></path>
<path d="M 1632.99 668.337 L 1633.56 668.337 C 1657.26 668.391 1655.81 681.063 1655.57 700.581 C 1648.12 700.381 1640.45 700.547 1632.98 700.62 C 1632.81 706.475 1631.54 715.769 1637.06 719.303 C 1641.03 716.697 1640.31 710.103 1640.27 705.818 C 1645.31 705.842 1650.34 705.94 1655.38 706.112 C 1655.39 718.027 1655.42 726.154 1641.95 729.993 C 1630.45 733.273 1620.84 727.97 1618.16 716.199 C 1616.84 710.401 1617.22 703.285 1617.18 697.312 C 1617.13 689.688 1617.37 681.415 1621.49 674.741 C 1624.24 670.306 1628.17 669.325 1632.99 668.337 z" fill="rgb(159,157,159)" transform="translate(0,0)"></path>
<path d="M 1633.46 678.321 C 1642.73 680.386 1640.5 684.58 1639.98 693.45 C 1630.14 692.319 1632.03 689.496 1633.46 678.321 z" fill="rgb(8,8,9)" transform="translate(0,0)"></path>
<path d="M 420.785 668.583 L 435.648 668.59 C 436.263 681.14 438.432 693.992 439.021 706.698 L 441.041 707.008 C 440.872 701.997 443.952 675.997 444.527 668.707 L 459.589 668.803 C 458.522 680.804 451.464 731.422 443.968 738.118 C 439.793 739.53 426.326 740.017 422.468 738.475 C 418.539 727.642 426.318 731.715 430.078 728.623 C 429.237 715.739 423.008 682.827 420.785 668.583 z" fill="rgb(159,157,159)" transform="translate(0,0)"></path>
<path d="M 439.021 706.698 L 441.041 707.008 C 441.042 707.91 441.402 713.035 440.151 713.23 C 438.622 712.242 438.985 708.38 439.021 706.698 z" fill="rgb(108,106,110)" transform="translate(0,0)"></path>
<path d="M 481.485 668.388 C 489.758 668.783 503.859 673.156 501.269 684.004 C 498.24 687.576 489.197 688.363 485.557 686.193 L 484.724 680.635 C 482.683 679.038 483.726 679.324 481.022 679.64 L 480.102 681.416 C 481.407 694.179 493.603 689.045 501.672 707.398 C 501.438 726.545 495.583 730.611 477.662 730.434 C 468.736 728.54 458.551 715.798 465.029 707.923 C 468.366 706.563 475.229 707.032 479.113 707.065 C 478.985 712.383 477.682 716.013 482.807 718.544 L 484.557 717.682 C 486.25 714.4 485.908 710.194 482.894 708.086 C 467.308 697.187 446.862 671.87 481.485 668.388 z" fill="rgb(159,157,159)" transform="translate(0,0)"></path>
<path d="M 1335.95 669.128 C 1344.8 668.584 1356.31 667.445 1360.92 676.964 C 1363.19 680.897 1362.53 685.921 1357.85 687.533 C 1353.64 688.985 1350.26 688.053 1346.39 686.21 C 1346.01 682.357 1346.45 680.677 1342.63 679.543 C 1340.63 681.195 1341.25 680.379 1340.61 683.31 C 1343.25 692.668 1358.97 695.779 1361.48 704.256 C 1366.06 719.758 1359.03 729.036 1344.4 730.724 C 1326.06 729.044 1324.79 723.26 1324.84 706.525 L 1339.87 706.416 C 1339.88 709.89 1339.93 712.375 1340.26 715.828 C 1342.22 718.676 1341.27 718.216 1343.94 718.861 L 1345.78 717.079 C 1348.4 708.108 1340.46 704.455 1334.21 699.245 C 1321.7 688.822 1318.25 677.146 1335.95 669.128 z" fill="rgb(159,157,159)" transform="translate(0,0)"></path>
<path d="M 1010.99 668.345 C 1019.27 668.399 1029.11 668.69 1031.91 678.627 C 1032.7 681.416 1033.54 684.442 1032.08 687.102 C 1023.02 690.834 1019.61 686.422 1014.13 679.957 L 1012.29 679.982 L 1010.99 681.831 C 1012.75 692.479 1033.74 695.3 1033.26 710.276 C 1032.78 725.444 1029.06 729.841 1013.95 730.347 C 997.05 729.351 995.658 721.781 995.525 707.064 L 1010.63 707.133 C 1010.53 709.67 1010.53 712.332 1010.49 714.881 C 1012.31 718.116 1011.26 717.256 1014.27 718.528 L 1016.42 717.613 C 1017.31 715.911 1018.62 712.867 1017.55 711.451 C 1010.12 701.78 997.894 697.095 994.847 684.001 C 992.635 674.494 1003.35 669.663 1010.99 668.345 z" fill="rgb(159,157,159)" transform="translate(0,0)"></path>
<path d="M 617.052 668.356 C 625.343 668.344 635.813 668.679 638.159 678.779 C 638.845 681.734 639.61 684.115 638.035 686.891 C 628.01 689.743 626.387 686.809 620.28 679.88 L 618.442 680.276 C 613.08 689.579 640.208 696.666 640.133 709.076 C 640.047 723.428 635.131 728.935 621.642 730.54 C 604.322 729.421 601.808 723.191 601.943 707.142 L 617.704 707.146 C 617.63 712.396 616.598 714.811 620.809 718.043 L 622.864 717.521 C 626.273 709.938 619.734 705.735 613.898 701.434 C 599.423 690.768 593.161 672.884 617.052 668.356 z" fill="rgb(159,157,159)" transform="translate(0,0)"></path>
<path d="M 1677.02 668.36 C 1679.47 668.325 1681.92 668.458 1684.35 668.758 C 1694.23 669.952 1699.11 676.085 1697.88 685.888 C 1695.63 687.851 1692.82 687.965 1689.96 687.993 C 1678.74 688.104 1685.02 683.844 1680.39 679.381 L 1678.28 679.648 L 1676.63 682.147 C 1676.59 682.942 1676.54 683.848 1676.48 684.865 C 1685.45 692.338 1696.93 698.845 1699.52 711.193 C 1701.11 718.785 1698.59 722.579 1692.65 726.902 C 1688.72 729.755 1686.05 730.214 1681.38 731.122 C 1663.01 729.221 1661.98 724.222 1661.57 707.077 C 1666.65 707.01 1671.88 706.31 1675.74 709.339 C 1675.69 711.541 1675.74 713.269 1675.86 715.468 C 1677.4 717.877 1677.62 718.158 1680.25 719.233 L 1682.1 718.253 C 1687.19 705.485 1670.99 702.249 1664.08 692.043 C 1655.49 679.362 1662.47 671.33 1677.02 668.36 z" fill="rgb(159,157,159)" transform="translate(0,0)"></path>
<path d="M 1245.91 669.074 C 1259.57 668.216 1270.1 667.49 1272.07 683.538 C 1269.72 688.546 1263.07 687.933 1258.41 686.974 C 1256.06 684.843 1256.83 684.869 1256.61 680.577 L 1254.93 679.367 C 1251.23 679.711 1252.22 679.14 1249.74 680.981 C 1250.06 688.309 1272.17 698.074 1272.85 710.188 C 1273.55 722.802 1269.91 728.348 1256.81 730.527 C 1237.57 729.878 1234.94 724.857 1235.04 706.981 L 1250.07 707.045 C 1249.96 710.305 1249.53 713.674 1250.75 716.636 C 1253.47 719.224 1252.22 718.762 1255.4 718.84 L 1256.85 717.099 C 1258.59 708.106 1250.51 704.009 1244.31 698.847 C 1232.11 688.689 1229.29 677.321 1245.91 669.074 z" fill="rgb(159,157,159)" transform="translate(0,0)"></path>
<path d="M 1203.89 669.104 C 1209.6 668.523 1216.72 668.119 1221.99 670.705 C 1227.02 673.174 1230.87 680.404 1227.94 685.589 C 1225.21 687.302 1222.54 688.142 1219.3 687.751 C 1210.94 686.744 1215.86 684.03 1212.5 679.699 C 1209.62 679.366 1209.19 679.279 1206.66 680.64 C 1207.41 689.029 1228.39 696.749 1229.5 709.788 C 1230.6 722.712 1227.18 728.601 1213.72 730.616 C 1195.35 730.689 1192.34 723.792 1192.4 707.121 L 1207.21 706.938 C 1207.18 710.263 1207.17 711.856 1207.65 715.184 C 1209.97 718.199 1208.77 717.391 1212.09 718.556 L 1213.64 717.221 C 1215.78 707.992 1206.51 703.503 1200.5 698.032 C 1187.85 686.52 1187.73 676.747 1203.89 669.104 z" fill="rgb(159,157,159)" transform="translate(0,0)"></path>
<path d="M 1112.04 658.04 L 1143.61 658.163 L 1143.71 672.224 C 1137.48 672.198 1127.2 670.404 1125.54 678.392 C 1128.96 684.158 1136.21 683.121 1142 683.055 L 1141.97 696.798 C 1137.95 696.818 1130.51 696.04 1127.65 698.06 L 1127.67 729.886 L 1111.94 729.884 L 1112.04 658.04 z" fill="rgb(159,157,159)" transform="translate(0,0)"></path>
<path d="M 510.197 658.022 L 525.797 658.015 C 525.258 669.486 529.677 670.828 529.427 680.052 L 526.479 682.199 C 524.97 690.602 525.871 703.63 526.186 712.441 C 526.519 721.758 530.05 718.371 529.622 730.417 C 513.11 731.845 510.038 730.255 509.83 712.847 C 509.711 702.972 510.298 692.518 509.621 682.678 C 509.526 681.309 504.282 678.029 506.262 671.565 L 509.237 670.547 C 510.812 667.564 510.248 661.691 510.197 658.022 z" fill="rgb(159,157,159)" transform="translate(0,0)"></path>
<path d="M 973.054 658.058 L 989.876 658.029 L 989.941 729.888 L 973.012 729.927 L 973.054 658.058 z" fill="rgb(159,157,159)" transform="translate(0,0)"></path>
<path d="M 579.338 658.144 L 595.888 658.129 L 595.748 729.774 L 579.21 729.878 L 579.338 658.144 z" fill="rgb(159,157,159)" transform="translate(0,0)"></path>
<path d="M 1302.02 658.017 L 1318.66 658.01 C 1318.34 681.922 1318.33 705.837 1318.65 729.75 L 1301.97 729.843 L 1302.02 658.017 z" fill="rgb(159,157,159)" transform="translate(0,0)"></path>
<path d="M 897.987 668.911 C 902.785 668.83 908.773 668.492 913.393 669.343 L 914.49 673.871 C 916.759 671.48 917.417 670.894 920.051 668.912 C 923.294 668.476 922.974 667.978 925.487 669.38 C 925.988 673.078 925.885 673.56 924.884 677.126 C 921.875 680.299 921.83 679.528 917.01 680.936 C 912.292 686.183 913.946 705.696 914.035 714.05 L 914.07 729.884 L 898.027 729.861 L 897.987 668.911 z" fill="rgb(159,157,159)" transform="translate(0,0)"></path>
<path d="M 391.047 669.061 C 397.067 668.866 404.393 670.577 408.471 670.33 C 414.155 669.985 420.159 666.067 417.786 679.492 C 415.884 681.275 412.11 680.884 408.417 681.659 C 404.67 686.571 406.173 709.288 406.228 717.25 L 406.197 729.794 L 391.028 729.792 L 391.047 669.061 z" fill="rgb(159,157,159)" transform="translate(0,0)"></path>
<path d="M 1279.1 668.716 L 1295.02 668.624 L 1295.01 729.869 L 1279.02 729.856 L 1279.1 668.716 z" fill="rgb(159,157,159)" transform="translate(0,0)"></path>
<path d="M 785.222 668.456 L 801.006 668.464 L 800.92 729.806 L 785.116 729.829 C 785.263 709.372 785.298 688.913 785.222 668.456 z" fill="rgb(159,157,159)" transform="translate(0,0)"></path>
<path d="M 1073.7 286.698 C 1076.4 286.061 1077.37 286.175 1079.91 287.265 C 1085.19 289.367 1091.98 289.595 1097.62 289.971 C 1115.92 291.192 1137.97 290.563 1156.22 288.028 C 1179.7 284.768 1199.08 286.72 1222.5 289.215 C 1229.85 289.997 1238.91 288.531 1246.38 288.985 C 1254.69 289.467 1264.07 289.759 1272 289.948 C 1283.41 290.219 1324.16 285.294 1332.31 287.578 C 1325.48 288.325 1318.3 287.488 1312 288.308 C 1283.28 292.05 1253.18 291.08 1224.34 290.392 C 1199.55 289.8 1177.01 283.851 1151.71 289.65 C 1135.67 292.179 1114.37 292.014 1098.16 291.316 C 1092.18 290.696 1085.88 292.621 1080.72 289.124 C 1078.33 287.504 1078.08 286.486 1076.61 288.219 C 1079.28 293.078 1088.14 289.787 1087.76 296.094 C 1085.28 298.419 1084.94 298.643 1081.56 299.389 C 1081.31 300.809 1080.97 301.679 1080.27 302.941 C 1052.94 304.52 1023.1 302.245 998.486 304.635 C 1001.71 305.291 1003.34 304.774 1007.58 305.448 C 1024.36 308.116 1057.88 304.153 1073.04 306.233 C 1043.18 309.494 996.129 305.372 965.161 305.155 C 954.566 305.08 938.986 306.265 930.269 306.019 C 930.993 304.803 931.896 303.739 932.774 302.627 C 950.828 300.57 964.823 302.552 982.337 302.706 C 1005.32 302.908 1028.49 301.562 1051.67 302.173 C 1058.67 302.358 1070.49 301.619 1077.79 300.301 C 1078.12 300.241 1080.8 297.542 1081.24 297.088 C 1080.35 295.76 1078.04 294.998 1077.79 294.577 C 1077.56 294.186 1078.04 293.303 1078.17 292.924 C 1076.87 291.242 1075.91 291.029 1073.92 290.102 C 1073.35 288.638 1073.53 288.308 1073.7 286.698 z" fill="rgb(31,30,31)" transform="translate(0,0)"></path>
<path d="M 1078.17 292.924 C 1080.08 293.712 1084.86 292.291 1085.54 293.869 C 1086.42 295.886 1082.38 296.84 1081.24 297.088 C 1080.35 295.76 1078.04 294.998 1077.79 294.577 C 1077.56 294.186 1078.04 293.303 1078.17 292.924 z" fill="rgb(179,50,59)" transform="translate(0,0)"></path>
<path d="M 1627.32 285.965 C 1632.59 285.41 1650.73 285.363 1655.53 287.114 L 1654.89 288.432 C 1649.41 288.722 1643.68 288.813 1638.35 290.006 C 1649.92 295.825 1720.68 291.376 1724.34 293.921 C 1701.88 295.758 1684.39 294.099 1662.5 294 C 1649.16 294.559 1636.12 290.074 1624.34 290.091 C 1603.1 290.121 1580.32 292.282 1559.01 290.412 C 1563.73 289.514 1629.23 288.545 1632.56 289.281 L 1633.37 289.468 C 1632.98 286.582 1628.76 290.084 1625.98 287.593 L 1627.32 285.965 z" fill="rgb(31,30,31)" transform="translate(0,0)"></path>
<path d="M 1398.86 685.498 C 1403.65 684.229 1408.56 687.074 1409.84 691.86 C 1411.13 696.646 1408.29 701.568 1403.51 702.865 C 1398.71 704.167 1393.76 701.322 1392.48 696.517 C 1391.19 691.711 1394.05 686.773 1398.86 685.498 z" fill="rgb(249,249,249)" transform="translate(0,0)"></path>
<path d="M 674.348 686.472 C 678.718 684.105 684.179 685.744 686.523 690.125 C 688.867 694.507 687.2 699.959 682.807 702.281 C 678.445 704.586 673.042 702.934 670.714 698.584 C 668.387 694.235 670.011 688.822 674.348 686.472 z" fill="rgb(249,249,249)" transform="translate(0,0)"></path>
<path d="M 1070.17 685.469 C 1074.79 684.633 1079.27 687.523 1080.41 692.079 C 1081.55 696.635 1078.96 701.293 1074.49 702.732 C 1071.32 703.75 1067.85 702.922 1065.49 700.582 C 1063.12 698.243 1062.26 694.782 1063.24 691.605 C 1064.23 688.427 1066.9 686.062 1070.17 685.469 z" fill="rgb(249,249,249)" transform="translate(0,0)"></path>
<path d="M 1279.18 654.129 C 1294.02 654.054 1295.51 650.099 1295 664.733 C 1279.54 664.682 1279.19 668.542 1279.18 654.129 z" fill="rgb(159,157,159)" transform="translate(0,0)"></path>
<path d="M 784.952 654.912 C 799.569 654.969 801.13 651.07 801.054 664.874 C 786.359 664.847 784.992 668.815 784.952 654.912 z" fill="rgb(159,157,159)" transform="translate(0,0)"></path>
<path d="M 1611.73 761.043 C 1610.62 761.056 1593.71 760.389 1593.87 760.534 L 1593.96 760.482 L 1594.1 760.52 C 1594.82 758.741 1623.71 758.538 1626.82 760 C 1626.49 763.426 1626.39 762.973 1623.9 765.348 C 1620.51 764.821 1622.41 765.026 1620.97 763.763 C 1619.83 762.769 1613.94 762.981 1612.02 762.852 L 1611.73 761.043 z" fill="rgb(179,50,59)" transform="translate(0,0)"></path>
<path d="M 1626.82 760 C 1626.49 763.426 1626.39 762.973 1623.9 765.348 C 1620.51 764.821 1622.41 765.026 1620.97 763.763 C 1619.83 762.769 1613.94 762.981 1612.02 762.852 L 1611.73 761.043 C 1618.28 760.28 1623.58 762.05 1626.82 760 z" fill="rgb(79,25,29)" transform="translate(0,0)"></path>
<path d="M 1629.86 759.641 C 1633.02 758.994 1641.23 759.738 1644.34 760.729 C 1641.28 761.424 1630.09 764.146 1629.86 759.641 z" fill="rgb(114,37,41)" transform="translate(0,0)"></path>
<path d="M 1722.89 768.973 C 1723.26 769.049 1723.04 768.97 1723.54 769.27 C 1723.32 769.171 1723.1 769.072 1722.89 768.973 z" fill="rgb(79,25,29)" transform="translate(0,0)"></path>
<metadata><recraft-signature>{"signed_by": "recraft", "signature_b64": "i+w1LkhtdYukipvueSXLS+68x4t74pTKQl6NnimlDr2EF8mYtPk44K366eUGiA3skcPIjhYkv2s+/blMLPqLAA==", "signing_algo": "Ed25519", "generation_timestamp": 1780247544, "identifier": "a47b02b7-fa34-44fa-9f1b-1bb677fa481d"}</recraft-signature></metadata></svg>