<svg xmlns="http://www.w3.org/2000/svg" height="768" preserveAspectRatio="none" style="display: block;" version="1.1" viewBox="0 0 2048 1024" width="1536">
<path d="M 0 0 L 2048 0 L 2048 357.538 L 2048 549.37 L 2048 553.341 L 2048 602.174 L 2048 607.446 L 2048 693.458 L 2048 702.552 L 2048 718.844 L 2048 722.999 L 2048 774.7 L 2048 778.656 L 2048 1024 L 0 1024 L 0 777.664 L 0 775.456 L 0 735.004 L 0 732.097 L 0 695.054 L 0 692.747 L 0 684.706 L 0 681.722 L 0 624.799 L 0 620.512 L 0 608.421 L 0 604.821 L 0 537.325 L 0 532.075 L 0 454.652 L 0 452.734 L 0 444.695 L 0 442.586 L 0 413.674 L 0 410.977 L 0 340.26 L 0 336.414 L 0 0 z" fill="rgb(4,32,35)" transform="translate(0,0)"></path>
<path d="M 48.0382 270.815 C 52.1631 261.883 60.5963 245.626 70.1124 242.698 C 80.2131 239.589 86.9303 239.672 96.4977 233.504 C 103.005 229.309 105.815 219.428 111.586 216.859 C 115.95 214.917 130.184 215.311 135.544 214.691 C 154.882 212.452 169.6 207.991 188.535 215.201 C 203.696 220.975 208.853 241.599 222.828 236.057 C 234.083 231.594 239.433 221.286 253.726 227.606 C 266.054 233.057 273.069 244.493 282.333 252.954 C 288.922 258.972 299.644 263.984 305.784 271.606 C 309.787 276.576 311.508 282.355 314.614 287.427 C 324.25 292.856 335.267 296.598 342.763 304.118 C 343.988 309.281 345.327 314.416 346.779 319.52 C 350.631 321.76 360.595 327.232 364.252 329.181 C 367.614 330.973 378.844 355.803 381.404 359.68 C 385.02 365.159 375.031 380.218 377.91 386.358 C 386.427 404.523 395.165 399.005 399.361 421.379 C 393.987 438.762 387.992 447.312 398.029 465.323 C 403.056 474.343 392.632 488.669 389.192 496.897 C 391.981 507.116 399.448 521.766 399.952 530.036 C 401.363 553.176 394.542 551.539 401.185 575.307 C 399.274 583.293 386.125 601.037 380.547 608.14 C 378.305 610.995 367.671 618.935 364.485 622.125 C 361.836 624.777 362.023 628.192 361.661 631.809 C 360.196 646.458 373.314 656.385 371.83 670.485 C 371.154 676.906 364.501 685.254 363.381 691.415 C 361.813 700.042 363.656 708.203 356.597 715.091 C 353.824 717.796 351.212 718.049 347.713 718.096 C 336.636 718.243 319.391 703.642 310.247 712.233 C 305.287 716.893 304.199 722.42 298.928 728.209 C 293.643 734.012 282.039 738.252 278.481 741.788 C 266.502 753.692 269.554 757.58 252.766 766.37 C 242.511 772.782 223.706 770.755 214.115 776.732 C 205.07 782.368 195.22 796.104 182.439 793.146 C 160.169 787.993 150.387 799.182 130.677 804.072 C 125.052 805.467 111.503 801.373 105.11 803.101 C 96.3856 804.649 88.2691 810.021 79.2174 808.508 C 69.6942 806.917 64.5902 799.077 55.366 796.512 C 48.2622 794.536 37.8042 798.145 31.6337 795.507 C 13.791 787.878 22.1446 777.887 0 777.664 L 0 775.456 L 0 735.004 L 0 732.097 L 0 695.054 L 0 692.747 L 0 684.706 L 0 681.722 L 0 624.799 L 0 620.512 L 0 608.421 L 0 604.821 L 0 537.325 L 0 532.075 L 0 454.652 L 0 452.734 L 0 444.695 L 0 442.586 L 0 413.674 L 0 410.977 L 0 340.26 L 0 336.414 C 12.9199 324.789 18.5653 321.276 25.0023 304.721 C 42.9827 296.545 58.434 295.215 48.0382 270.815 z" fill="rgb(48,189,188)" transform="translate(0,0)"></path>
<path d="M 4.17986 526.927 L 4.38108 526.038 C 6.46359 516.483 3.05962 505.325 6.05715 495.735 C 8.75891 487.091 18.4949 481.338 24.2386 474.086 C 30.0576 466.738 33.9256 456.323 39.3642 449.642 C 41.7651 446.706 44.6218 444.174 47.8252 442.143 C 65.1959 430.932 90.723 435.151 98.3669 404.783 C 103.123 385.888 91.6162 367.023 112.216 355.256 C 117.271 352.368 129 345.599 131.941 341.871 C 147.311 322.39 149.928 303.787 181.39 310.526 C 194.474 313.329 204.536 318.663 215.411 326.908 C 218.862 329.524 225.924 334.412 230.261 336.115 C 244.799 341.825 272.825 332.655 282.731 349.654 C 288.703 359.904 296.797 392.214 297.836 404.845 C 298.212 409.412 293.769 421.747 295.222 429.848 C 297.74 443.88 308.498 454.735 305.014 468.65 C 301.921 481.998 286.665 492.917 283.314 505.597 C 277.804 526.452 298.486 536.427 286.536 559.233 C 271.675 587.597 244.895 568.993 225.304 592.173 C 213.709 605.893 214.518 613.152 210.808 629.886 C 206.538 645.304 190.922 661.128 177.303 668.798 C 157.043 680.457 145.442 675.696 124.608 676.021 C 115.145 676.169 99.904 684.088 87.1401 679.58 C 80.3465 677.673 74.8604 673.001 71.5776 666.605 C 68.201 660.026 65.3721 652.446 62.1811 645.634 C 56.5254 633.561 35.8551 619.536 22.8238 617.332 L 22.3598 618.884 C 10.523 617.627 8.90287 615.005 0 608.421 L 0 604.821 L 0 537.325 L 0 532.075 C 1.79298 528.549 1.86476 527.537 3.25381 523.962 C 3.5316 524.967 3.85894 525.936 4.17986 526.927 z" fill="rgb(48,189,188)" transform="translate(0,0)"></path>
<path d="M 0 604.821 C 8.52777 613.089 11.1751 615.283 22.8238 617.332 L 22.3598 618.884 C 10.523 617.627 8.90287 615.005 0 608.421 L 0 604.821 z" fill="rgb(71,69,64)" transform="translate(0,0)"></path>
<path d="M 3.25381 523.962 C 3.5316 524.967 3.85894 525.936 4.17986 526.927 C 3.28634 531.081 2.12062 533.704 0 537.325 L 0 532.075 C 1.79298 528.549 1.86476 527.537 3.25381 523.962 z" fill="rgb(71,69,64)" transform="translate(0,0)"></path>
<path d="M 174.643 356.328 C 223.787 355.386 266.814 405.629 254.678 456.143 C 252.681 464.456 240.637 475.346 239.384 485.562 C 238.27 494.635 239.946 501.412 240.498 510.363 C 240.696 536.182 200.749 544.569 188.975 563.627 C 181.439 575.826 183.83 591.191 170.498 603.529 C 156.807 616.2 140.298 620.152 122.415 620.142 C 82.9092 619.22 92.3104 602.152 75.9437 576.352 C 64.8962 563.278 39.017 561.044 37.1819 540.934 C 34.1076 507.245 67.4017 491.124 85.7284 469.194 C 93.6792 459.679 93.4774 443.984 105.966 437.142 C 118.447 430.303 120.73 419.983 121.529 406.896 C 123.485 377.964 147.293 359.292 174.643 356.328 z" fill="rgb(61,74,70)" transform="translate(0,0)"></path>
<path d="M 172.934 358.379 C 173.608 358.312 174.283 358.263 174.96 358.235 C 194.123 357.446 213.004 365.558 227.507 378.585 C 245.971 395.169 260.92 431.321 252.729 455.767 C 248.079 466.431 240.157 473.884 237.292 485.501 C 234.871 495.322 241.233 510.084 236.861 518.878 C 227.076 538.561 201.521 543.436 189.03 561.137 C 179.67 574.402 180.242 591.47 168.448 603.23 C 157.805 613.801 139.703 617.895 125.25 618.036 C 83.033 618.26 95.2601 601.972 77.7745 575.348 C 73.6321 569.041 55.8355 561.126 49.1935 556.365 C 44.389 552.922 40.0077 548.005 39.3163 541.792 C 35.52 507.673 70.48 491.719 88.3139 469.075 C 93.8256 462.077 95.0286 450.331 100.958 443.617 C 105.206 438.806 115.889 433.149 118.781 427.546 C 126.711 412.181 119.392 398.002 132.406 381.645 C 143.754 367.382 155.047 360.849 172.934 358.379 z" fill="rgb(6,136,152)" transform="translate(0,0)"></path>
<path d="M 172.594 379.065 C 181.314 378.476 186.189 378.31 194.746 381.161 C 210.548 386.426 231.374 399.474 238.947 414.56 C 241.671 419.881 242.949 425.825 242.652 431.796 C 242.154 442.421 237.35 452.853 234.838 463.203 C 231.121 478.518 229.501 498.081 219.775 510.988 C 212.412 520.759 195.029 524.403 187 534.11 C 170.446 554.267 169.284 573.838 144.038 586.478 C 141.952 587.264 139.848 588.002 137.727 588.689 C 91.4241 603.506 69.1377 548.715 77.6306 512.038 C 82.158 487.629 110.306 478.655 121.062 458.603 C 136.608 429.623 134.342 390.368 172.594 379.065 z" fill="rgb(7,165,174)" transform="translate(0,0)"></path>
<path d="M 175.884 402.048 C 196.534 401.308 214.536 407.093 221.224 429.011 C 232.97 467.502 190.617 485.798 174.728 511.267 C 161.67 532.197 175.907 556.276 140.738 567.455 C 95.6413 578.192 72.2301 518.67 114.957 497.163 C 121.201 493.089 131.295 489.131 136.859 484.406 C 166.721 459.042 124.943 417.179 175.884 402.048 z" fill="rgb(61,74,70)" transform="translate(0,0)"></path>
<path d="M 176.204 404.149 C 194.795 403.313 211.849 408.224 218.433 427.547 C 234.741 475.405 170.108 488.031 166.839 529.304 C 165.321 548.48 157.875 559.207 140.496 565.761 C 121.06 570.57 100.954 560.453 96.0364 541.151 C 83.5177 500.502 136.816 497.503 147.759 474.939 C 158.798 452.175 134.345 415.209 176.204 404.149 z" fill="rgb(6,136,152)" transform="translate(0,0)"></path>
<path d="M 174.38 410.019 C 178.78 409.74 183.231 409.766 187.423 411.298 C 195.231 414.152 201.526 421.971 204.961 429.299 C 219.295 459.876 182.799 477.34 168.731 498.233 C 162.104 508.075 160.224 520.472 156.308 531.484 C 152.526 542.121 146.844 547.871 136.903 552.582 C 118.779 555.841 104.763 545.164 106.9 526.334 C 109.392 498.904 149.651 498.377 157.863 475.018 C 166.623 450.097 139.388 425.612 174.38 410.019 z" fill="rgb(55,77,77)" transform="translate(0,0)"></path>
<path d="M 173.248 412.157 C 178.063 411.975 182.536 411.794 187.146 413.482 C 194.046 416.008 198.357 420.38 201.396 427.003 C 217.067 461.156 182.064 474.74 166.362 498.393 C 159.623 508.543 158.263 520.829 154.084 532.06 C 150.611 541.393 145.442 546.654 136.489 550.715 C 132.244 551.119 127.524 551.418 123.357 550.405 C 118.601 549.248 114.835 546.476 112.347 542.259 C 92.0585 507.866 149.178 500.678 159.507 476.692 C 166.585 460.253 154.412 443.455 159.071 427.205 C 161.26 419.572 166.595 415.816 173.248 412.157 z" fill="rgb(7,165,174)" transform="translate(0,0)"></path>
<path d="M 177.684 425.399 C 185.976 424.053 193.831 429.555 195.4 437.808 C 196.968 446.06 191.679 454.06 183.471 455.85 C 177.963 457.051 172.236 455.166 168.517 450.929 C 164.798 446.692 163.672 440.769 165.578 435.463 C 167.483 430.156 172.119 426.303 177.684 425.399 z" fill="rgb(61,74,70)" transform="translate(0,0)"></path>
<path d="M 176.589 427.634 C 183.595 425.755 190.83 429.766 192.948 436.704 C 195.066 443.642 191.305 451.01 184.443 453.364 C 179.791 454.96 174.639 453.891 171.005 450.577 C 167.372 447.262 165.836 442.23 166.999 437.451 C 168.162 432.672 171.839 428.908 176.589 427.634 z" fill="rgb(6,136,152)" transform="translate(0,0)"></path>
<path d="M 129.87 513.319 C 136.382 512.195 142.598 516.481 143.862 522.968 C 145.125 529.454 140.973 535.76 134.515 537.162 C 130.213 538.096 125.743 536.63 122.829 533.33 C 119.916 530.029 119.017 525.411 120.478 521.258 C 121.939 517.106 125.532 514.068 129.87 513.319 z" fill="rgb(55,77,77)" transform="translate(0,0)"></path>
<path d="M 129.515 515.52 C 134.896 514.162 140.36 517.415 141.732 522.792 C 143.104 528.169 139.866 533.642 134.493 535.029 C 129.099 536.42 123.6 533.167 122.223 527.77 C 120.846 522.372 124.114 516.882 129.515 515.52 z" fill="rgb(7,165,174)" transform="translate(0,0)"></path>
<path d="M 0 454.652 C 21.1673 440.182 53.1839 423.707 56.3406 398.175 C 58.9378 377.169 52.9696 354.988 74.1127 339.327 C 80.0037 335.537 85.4964 332.126 90.9865 327.786 C 102.641 318.572 98.3866 302.628 106.129 292.613 C 112.736 284.066 131.002 280.403 141.069 276.504 C 151.158 273.112 161.672 268.76 172.523 271.033 C 176.812 271.932 181.56 273.348 185.146 275.719 C 194.486 281.892 201.671 291.729 213.48 293.28 C 218.77 293.975 222.115 294.803 226.68 291.973 C 233.194 287.934 238.475 279.854 246.99 281.259 C 254.906 282.898 262.215 292.111 266.452 298.516 C 275.815 312.667 284.625 329.891 295.576 342.831 C 304.106 352.911 321.048 358.539 326.925 372.395 C 332.728 386.077 323.109 397.068 329.094 410.003 C 336.178 425.314 348.772 430.872 345.126 449.682 C 342.229 464.63 328.394 480.164 327.157 494.412 C 325.113 517.955 362.385 544.509 329.395 566.4 C 312.564 577.569 296.552 581.834 291.065 605.561 C 287.458 621.158 292.179 633.378 276.696 643.828 C 264.258 652.223 241.238 650.373 230.621 658.997 C 205.882 679.094 212.617 709.714 174.49 721.446 C 154.619 727.56 133.708 716.157 118.265 719.453 C 105.419 722.195 87.6077 742.374 67.6578 736.988 C 60.9296 735.171 57.9944 734.047 52.1108 729.594 C 42.905 722.626 36.1591 711.375 27.7707 703.895 C 19.0554 696.122 8.48447 690.09 0 681.722 L 0 624.799 L 0 620.512 L 0 608.421 C 8.90287 615.005 10.523 617.627 22.3598 618.884 L 22.8238 617.332 C 35.8551 619.536 56.5254 633.561 62.1811 645.634 C 65.3721 652.446 68.201 660.026 71.5776 666.605 C 74.8604 673.001 80.3465 677.673 87.1401 679.58 C 99.904 684.088 115.145 676.169 124.608 676.021 C 145.442 675.696 157.043 680.457 177.303 668.798 C 190.922 661.128 206.538 645.304 210.808 629.886 C 214.518 613.152 213.709 605.893 225.304 592.173 C 244.895 568.993 271.675 587.597 286.536 559.233 C 298.486 536.427 277.804 526.452 283.314 505.597 C 286.665 492.917 301.921 481.998 305.014 468.65 C 308.498 454.735 297.74 443.88 295.222 429.848 C 293.769 421.747 298.212 409.412 297.836 404.845 C 296.797 392.214 288.703 359.904 282.731 349.654 C 272.825 332.655 244.799 341.825 230.261 336.115 C 225.924 334.412 218.862 329.524 215.411 326.908 C 204.536 318.663 194.474 313.329 181.39 310.526 C 149.928 303.787 147.311 322.39 131.941 341.871 C 129 345.599 117.271 352.368 112.216 355.256 C 91.6162 367.023 103.123 385.888 98.3669 404.783 C 90.723 435.151 65.1959 430.932 47.8252 442.143 C 44.6218 444.174 41.7651 446.706 39.3642 449.642 C 33.9256 456.323 30.0576 466.738 24.2386 474.086 C 18.4949 481.338 8.75891 487.091 6.05715 495.735 C 3.05962 505.325 6.46359 516.483 4.38108 526.038 L 4.17986 526.927 C 3.85894 525.936 3.5316 524.967 3.25381 523.962 C 1.86476 527.537 1.79298 528.549 0 532.075 L 0 454.652 z" fill="rgb(6,136,152)" transform="translate(0,0)"></path>
<path d="M 241.996 595.063 C 254.523 587.864 265.968 588.149 278.792 579.84 C 294.187 569.865 304.961 552.637 302.249 533.828 C 300.717 524.646 296.325 514.011 298.634 504.621 C 302.598 488.499 321.026 478.007 319.08 459.846 C 317.783 447.736 307.635 436.06 306.133 424.294 C 304.452 411.129 311.535 398.264 305.086 384.808 C 296.653 364.522 286.934 332.348 263.208 325.414 C 256.745 323.251 242.199 324.765 236.485 322.201 C 210.907 310.723 194.288 293.412 163.664 300.533 C 155.484 302.435 150.018 304.808 141.788 307.655 L 141.846 305.416 C 144.504 301.569 153.861 299.385 158.529 298.335 C 189.184 291.439 207.6 298.007 233.226 313.695 C 236.933 317.752 242.845 318.934 247.827 316.615 C 258.655 317.093 272.841 318.862 280.197 328.43 C 292.07 343.87 310.723 375.534 312.382 394.918 C 313.181 404.262 309.724 417.102 312.545 427.759 C 315.558 439.14 324.184 450.774 323.545 461.9 C 322.583 478.641 309.092 492.31 305.345 508.488 C 300.015 531.505 315.23 542.117 302.372 565.297 C 297.366 574.321 297.219 574.405 289.444 582.047 C 277.262 594.022 259.956 591.922 249.524 601.324 C 242.715 607.461 246.524 623.276 240.187 632.753 C 225.765 654.32 189.919 694.77 164.181 700.843 C 151.481 703.846 136.686 700.055 124.256 701.665 C 110.926 703.391 102.317 712.411 87.8627 710.875 C 63.9843 708.338 58.7176 694.53 53.2591 673.94 C 51.8598 668.661 48.9028 661.309 45.6594 656.812 C 34.6821 644.497 14.8557 630.923 0 624.799 L 0 620.512 C 28.3376 631.399 44.2309 640.876 58.1066 668.874 C 61.8374 676.402 66.7033 683.886 73.6452 688.917 C 91.1985 701.638 129.461 696.842 149.683 693.623 C 181.082 688.626 214.507 659.586 227.234 630.872 C 232.776 618.369 233.653 607.845 241.996 595.063 z" fill="rgb(7,165,174)" transform="translate(0,0)"></path>
<path d="M 3.25381 523.962 C 3.01569 517.598 1.79115 501.106 3.72656 495.662 C 6.02816 489.188 20.4683 475.417 24.915 468.886 C 30.6049 460.528 35.1996 452.269 41.4317 444.489 C 55.3003 431.034 75.7555 435.292 89.6196 418.788 C 104.31 401.301 93.1089 382.406 100.144 363.842 C 106.637 354.269 121.627 350.038 129.638 341.324 C 137.91 332.327 141.311 320.849 150.779 313.722 C 168.421 300.44 196.461 310.971 212.551 322.409 C 218.703 326.783 222.891 332.49 230.786 334.493 C 247.455 339.89 267.597 331.148 281.768 345.469 C 290.587 354.38 298.326 391.61 299.951 405.002 C 300.445 409.07 296.101 421.641 297.138 428.268 C 299.414 442.806 308.444 451.002 307.699 465.899 C 306.924 481.401 289.255 491.887 285.176 504.877 C 279.748 522.164 298.843 536.754 289.649 556.746 C 287.272 561.916 286.57 564.68 282.071 569.115 C 266.201 584.756 247.628 574.723 231.326 589.164 C 214.019 604.497 217.452 618.482 210.048 636.53 C 200.232 660.457 173.011 679.347 146.964 678.773 C 141.935 678.663 128.423 677.462 124.958 677.981 C 111.226 680.035 85.2543 688.412 74.7558 674.674 C 60.5976 656.147 64.7595 639.202 38.5885 626.281 C 33.6048 623.82 28.5911 620.286 22.3598 618.884 L 22.8238 617.332 C 35.8551 619.536 56.5254 633.561 62.1811 645.634 C 65.3721 652.446 68.201 660.026 71.5776 666.605 C 74.8604 673.001 80.3465 677.673 87.1401 679.58 C 99.904 684.088 115.145 676.169 124.608 676.021 C 145.442 675.696 157.043 680.457 177.303 668.798 C 190.922 661.128 206.538 645.304 210.808 629.886 C 214.518 613.152 213.709 605.893 225.304 592.173 C 244.895 568.993 271.675 587.597 286.536 559.233 C 298.486 536.427 277.804 526.452 283.314 505.597 C 286.665 492.917 301.921 481.998 305.014 468.65 C 308.498 454.735 297.74 443.88 295.222 429.848 C 293.769 421.747 298.212 409.412 297.836 404.845 C 296.797 392.214 288.703 359.904 282.731 349.654 C 272.825 332.655 244.799 341.825 230.261 336.115 C 225.924 334.412 218.862 329.524 215.411 326.908 C 204.536 318.663 194.474 313.329 181.39 310.526 C 149.928 303.787 147.311 322.39 131.941 341.871 C 129 345.599 117.271 352.368 112.216 355.256 C 91.6162 367.023 103.123 385.888 98.3669 404.783 C 90.723 435.151 65.1959 430.932 47.8252 442.143 C 44.6218 444.174 41.7651 446.706 39.3642 449.642 C 33.9256 456.323 30.0576 466.738 24.2386 474.086 C 18.4949 481.338 8.75891 487.091 6.05715 495.735 C 3.05962 505.325 6.46359 516.483 4.38108 526.038 L 4.17986 526.927 C 3.85894 525.936 3.5316 524.967 3.25381 523.962 z" fill="rgb(61,74,70)" transform="translate(0,0)"></path>
<path d="M 233.226 313.695 C 229.555 309.679 228.882 303.758 231.556 299.02 C 234.231 294.281 239.648 291.799 244.983 292.865 C 250.319 293.932 254.364 298.307 255.011 303.709 C 255.658 309.112 252.76 314.318 247.827 316.615 C 242.845 318.934 236.933 317.752 233.226 313.695 z" fill="rgb(61,74,70)" transform="translate(0,0)"></path>
<path d="M 238.106 295.542 C 243.354 293.065 249.618 295.27 252.157 300.488 C 254.697 305.706 252.567 311.995 247.38 314.597 C 243.969 316.308 239.901 316.053 236.731 313.929 C 233.561 311.805 231.777 308.14 232.062 304.335 C 232.346 300.529 234.655 297.171 238.106 295.542 z" fill="rgb(6,136,152)" transform="translate(0,0)"></path>
<path d="M 257.938 600.629 C 265.836 598.805 273.716 603.731 275.535 611.63 C 277.355 619.528 272.425 627.405 264.526 629.221 C 256.632 631.035 248.762 626.109 246.944 618.217 C 245.125 610.325 250.047 602.452 257.938 600.629 z" fill="rgb(61,74,70)" transform="translate(0,0)"></path>
<path d="M 257.724 602.874 C 264.396 601.007 271.319 604.902 273.188 611.574 C 275.057 618.247 271.163 625.171 264.492 627.041 C 257.817 628.912 250.89 625.017 249.021 618.342 C 247.152 611.668 251.048 604.742 257.724 602.874 z" fill="rgb(6,136,152)" transform="translate(0,0)"></path>
<path d="M 27.203 653.245 C 31.42 651.554 36.2237 652.302 39.7272 655.194 C 43.2307 658.087 44.8743 662.662 44.0125 667.123 C 43.1507 671.584 39.921 675.217 35.5922 676.597 C 29.227 678.625 22.398 675.252 20.1393 668.965 C 17.8807 662.678 21.0023 655.731 27.203 653.245 z" fill="rgb(55,77,77)" transform="translate(0,0)"></path>
<path d="M 26.8929 655.172 C 29.1168 654.971 31.2745 654.596 33.5131 654.844 C 36.5478 655.18 38.9166 656.788 40.7307 659.231 C 42.3685 661.437 42.4972 664.38 42.1485 667.013 C 41.6577 670.719 38.6819 672.752 35.9154 674.807 C 31.5635 674.916 27.6546 674.996 24.3339 671.686 C 22.2083 669.567 20.8502 666.495 20.9622 663.475 C 21.1 659.761 24.4303 657.523 26.8929 655.172 z" fill="rgb(6,136,152)" transform="translate(0,0)"></path>
<path d="M 122.719 292.582 C 126.61 291.238 130.924 292.113 133.983 294.867 C 137.043 297.621 138.365 301.819 137.437 305.829 C 136.509 309.839 133.476 313.029 129.518 314.158 C 123.624 315.839 117.464 312.523 115.622 306.678 C 113.78 300.832 116.927 294.583 122.719 292.582 z" fill="rgb(61,74,70)" transform="translate(0,0)"></path>
<path d="M 122.766 294.656 C 125.915 293.35 129.525 293.856 132.195 295.975 C 134.865 298.095 136.176 301.495 135.619 304.859 C 135.063 308.222 132.726 311.019 129.516 312.165 C 124.72 313.878 119.433 311.454 117.602 306.702 C 115.77 301.951 118.062 296.605 122.766 294.656 z" fill="rgb(6,136,152)" transform="translate(0,0)"></path>
<path d="M 320.539 526.748 C 326.505 525.559 332.327 529.356 333.643 535.295 C 334.96 541.233 331.288 547.135 325.379 548.578 C 321.442 549.539 317.294 548.296 314.535 545.328 C 311.777 542.36 310.839 538.132 312.085 534.276 C 313.331 530.42 316.566 527.54 320.539 526.748 z" fill="rgb(55,77,77)" transform="translate(0,0)"></path>
<path d="M 319.923 528.888 C 323.064 527.859 326.516 528.603 328.954 530.835 C 331.392 533.067 332.438 536.44 331.689 539.66 C 330.94 542.879 328.514 545.445 325.341 546.372 C 320.544 547.773 315.51 545.069 314.031 540.295 C 312.552 535.522 315.174 530.445 319.923 528.888 z" fill="rgb(6,136,152)" transform="translate(0,0)"></path>
<path d="M 330.616 440.325 C 332.963 439.762 335.433 440.507 337.077 442.275 C 338.721 444.043 339.285 446.56 338.552 448.861 C 337.819 451.161 335.903 452.888 333.539 453.379 C 329.961 454.123 326.449 451.857 325.65 448.292 C 324.852 444.726 327.062 441.179 330.616 440.325 z" fill="rgb(55,77,77)" transform="translate(0,0)"></path>
<path d="M 330.618 442.5 C 332.295 441.871 334.184 442.267 335.468 443.515 C 336.752 444.762 337.201 446.639 336.621 448.333 C 336.041 450.027 334.536 451.235 332.757 451.434 C 330.436 451.694 328.284 450.183 327.741 447.912 C 327.197 445.64 328.431 443.319 330.618 442.5 z" fill="rgb(6,136,152)" transform="translate(0,0)"></path>
<path d="M 48.0382 270.815 C 52.1631 261.883 60.5963 245.626 70.1124 242.698 C 80.2131 239.589 86.9303 239.672 96.4977 233.504 C 103.005 229.309 105.815 219.428 111.586 216.859 C 115.95 214.917 130.184 215.311 135.544 214.691 C 154.882 212.452 169.6 207.991 188.535 215.201 C 203.696 220.975 208.853 241.599 222.828 236.057 C 234.083 231.594 239.433 221.286 253.726 227.606 C 266.054 233.057 273.069 244.493 282.333 252.954 C 288.922 258.972 299.644 263.984 305.784 271.606 C 309.787 276.576 311.508 282.355 314.614 287.427 C 324.25 292.856 335.267 296.598 342.763 304.118 C 343.988 309.281 345.327 314.416 346.779 319.52 C 350.631 321.76 360.595 327.232 364.252 329.181 C 367.614 330.973 378.844 355.803 381.404 359.68 C 385.02 365.159 375.031 380.218 377.91 386.358 C 386.427 404.523 395.165 399.005 399.361 421.379 C 393.987 438.762 387.992 447.312 398.029 465.323 C 403.056 474.343 392.632 488.669 389.192 496.897 C 391.981 507.116 399.448 521.766 399.952 530.036 C 401.363 553.176 394.542 551.539 401.185 575.307 C 399.274 583.293 386.125 601.037 380.547 608.14 C 378.305 610.995 367.671 618.935 364.485 622.125 C 361.836 624.777 362.023 628.192 361.661 631.809 C 360.196 646.458 373.314 656.385 371.83 670.485 C 371.154 676.906 364.501 685.254 363.381 691.415 C 361.813 700.042 363.656 708.203 356.597 715.091 C 353.824 717.796 351.212 718.049 347.713 718.096 C 336.636 718.243 319.391 703.642 310.247 712.233 C 305.287 716.893 304.199 722.42 298.928 728.209 C 293.643 734.012 282.039 738.252 278.481 741.788 C 266.502 753.692 269.554 757.58 252.766 766.37 C 242.511 772.782 223.706 770.755 214.115 776.732 C 205.07 782.368 195.22 796.104 182.439 793.146 C 160.169 787.993 150.387 799.182 130.677 804.072 C 125.052 805.467 111.503 801.373 105.11 803.101 C 96.3856 804.649 88.2691 810.021 79.2174 808.508 C 69.6942 806.917 64.5902 799.077 55.366 796.512 C 48.2622 794.536 37.8042 798.145 31.6337 795.507 C 13.791 787.878 22.1446 777.887 0 777.664 L 0 775.456 L 0 735.004 L 0 732.097 C 13.4743 746.004 35.5595 772.724 54.7938 775.124 C 60.9265 775.889 73.1873 772.458 78.5149 773.561 C 90.1811 775.975 99.5068 781.943 112.05 781.497 C 119.28 783.084 130.133 772.356 134.335 771.789 C 153.565 769.193 163.329 764.553 180.337 755.105 C 200.337 743.994 220.815 744.324 242.833 748.919 C 240.94 742.075 239.94 738.049 239.738 730.932 C 239.197 714.468 245.331 698.484 256.746 686.608 C 267.353 675.555 284.338 667.23 299.783 667.167 C 315.835 667.103 326.42 675.879 337.014 686.41 C 352.973 649.594 329.254 647.113 340.61 614.803 C 344.085 601.528 368.639 591.286 372.218 580.004 C 377.457 563.493 384.018 532.248 371.953 517.441 C 368.764 513.526 365.821 507.207 364.39 502.785 L 364.249 502.336 C 368.34 487.061 370.796 483.064 368.842 467.281 C 369.658 465.763 370.466 464.242 371.265 462.715 C 379.432 447.09 387.407 423.174 375.228 407.357 C 367.107 396.81 360.645 394.259 356.497 381.015 C 361.933 354.263 357.828 342.806 332.532 335.089 C 320.419 331.393 319.133 320.37 315.663 310.309 C 312.966 302.491 305.09 301.758 298.354 299.272 C 288.012 295.22 290.177 286.285 286.893 277.391 C 284.179 270.698 275.862 272.141 270.661 269.291 C 265.254 266.329 261.404 259.734 257.825 254.649 C 254.433 249.826 251.013 249.06 245.556 247.119 C 238.744 249.508 226.745 256.828 220.181 257.75 C 199.353 260.676 195.927 233.227 169.505 230.78 C 144.403 228.455 145.508 247.175 129.525 253.143 C 116.394 258.045 93.6895 254.073 80.68 266.481 C 66.1485 280.34 74.7078 297.814 61.0971 312.589 C 51.7973 322.685 40.1664 322.755 30.1902 330.279 C 21.5793 336.774 17.212 361.016 16.085 371.495 C 15.5568 376.406 17.4877 387.68 16.5631 393.823 C 15.4635 401.129 13.8716 402.156 8.11812 406.909 L 6.94073 405.402 C 4.65474 407.338 2.31757 409.088 0 410.977 L 0 340.26 L 0 336.414 C 12.9199 324.789 18.5653 321.276 25.0023 304.721 C 42.9827 296.545 58.434 295.215 48.0382 270.815 z" fill="rgb(6,136,152)" transform="translate(0,0)"></path>
<path d="M 48.0382 270.815 C 52.1631 261.883 60.5963 245.626 70.1124 242.698 C 80.2131 239.589 86.9303 239.672 96.4977 233.504 C 103.005 229.309 105.815 219.428 111.586 216.859 C 115.95 214.917 130.184 215.311 135.544 214.691 C 154.882 212.452 169.6 207.991 188.535 215.201 C 203.696 220.975 208.853 241.599 222.828 236.057 C 234.083 231.594 239.433 221.286 253.726 227.606 C 266.054 233.057 273.069 244.493 282.333 252.954 C 288.922 258.972 299.644 263.984 305.784 271.606 C 309.787 276.576 311.508 282.355 314.614 287.427 C 324.25 292.856 335.267 296.598 342.763 304.118 C 343.988 309.281 345.327 314.416 346.779 319.52 C 350.631 321.76 360.595 327.232 364.252 329.181 C 367.614 330.973 378.844 355.803 381.404 359.68 C 385.02 365.159 375.031 380.218 377.91 386.358 C 386.427 404.523 395.165 399.005 399.361 421.379 C 393.987 438.762 387.992 447.312 398.029 465.323 C 403.056 474.343 392.632 488.669 389.192 496.897 C 391.981 507.116 399.448 521.766 399.952 530.036 C 401.363 553.176 394.542 551.539 401.185 575.307 C 399.274 583.293 386.125 601.037 380.547 608.14 C 378.305 610.995 367.671 618.935 364.485 622.125 C 361.836 624.777 362.023 628.192 361.661 631.809 C 360.196 646.458 373.314 656.385 371.83 670.485 C 371.154 676.906 364.501 685.254 363.381 691.415 C 361.813 700.042 363.656 708.203 356.597 715.091 C 353.824 717.796 351.212 718.049 347.713 718.096 C 336.636 718.243 319.391 703.642 310.247 712.233 C 305.287 716.893 304.199 722.42 298.928 728.209 C 293.643 734.012 282.039 738.252 278.481 741.788 C 266.502 753.692 269.554 757.58 252.766 766.37 C 242.511 772.782 223.706 770.755 214.115 776.732 C 205.07 782.368 195.22 796.104 182.439 793.146 C 160.169 787.993 150.387 799.182 130.677 804.072 C 125.052 805.467 111.503 801.373 105.11 803.101 C 96.3856 804.649 88.2691 810.021 79.2174 808.508 C 69.6942 806.917 64.5902 799.077 55.366 796.512 C 48.2622 794.536 37.8042 798.145 31.6337 795.507 C 13.791 787.878 22.1446 777.887 0 777.664 L 0 775.456 C 4.68532 775.747 10.2583 776.699 14.974 777.378 C 21.0078 785.294 23.3633 788.743 32.3082 793.742 C 50.3844 795.021 55.8339 790.945 71.4144 803.547 C 80.7578 811.104 96.745 802.045 106.731 800.772 C 115.166 799.698 125.571 803.737 134.097 801.365 C 142.733 798.962 150.947 792.858 159.746 790.901 L 160.468 790.746 C 165.49 789.635 176.377 790.355 181.619 790.855 C 201.31 792.733 204.888 777.213 216.463 773.373 C 237.349 766.445 245.501 772.346 263.983 755.488 C 251.318 699.813 297.19 667.772 335.738 712.975 C 365.889 723.489 356.195 701.634 362.882 686.267 C 371.487 666.491 373.391 666.57 361.734 644.811 C 358.373 638.536 359.221 622.701 364.606 617.434 C 367.16 614.936 375.307 612.39 377.965 609.056 C 383.926 600.382 395.979 584.189 399.506 575.257 C 391.871 553.944 399.959 552.487 398.66 531.971 C 398.169 524.211 389.982 506.552 386.987 496.787 C 389.862 490.63 394.366 484.365 396.23 478.766 C 400.36 466.366 390.649 458.247 390.93 445.88 C 391.13 437.044 394.353 429.72 397.346 421.402 C 392.958 401.496 384 403.85 376.132 386.692 C 373.43 380.8 382.196 365.116 379.57 360.992 C 373.326 351.188 370.978 336.767 361.391 330.163 C 354.248 326.125 349.231 324.73 344.475 318.251 C 340.874 313.346 343.008 305.994 337.46 302.069 C 329.836 296.278 321.121 294.38 313.055 288.935 C 310.688 284.889 308.281 277.617 305.606 274.406 C 299.523 267.102 289.11 260.683 282.152 254.483 C 274.464 247.632 268.828 240.865 260.69 235.028 C 238.205 218.899 239.93 233.346 220.512 238.743 C 206.919 241.409 204.21 227.742 196.251 221.847 C 187.558 215.408 174.694 212.766 164.141 213.083 C 154.577 213.369 144.174 217.014 134.492 217.831 C 127.864 218.391 120.408 215.605 114.111 218.246 C 110.701 219.676 108.809 222.935 106.547 225.691 C 96.7722 239.545 85.8469 241.241 70.119 243.765 C 60.8738 251.132 55.7278 260.702 50.2024 270.936 C 52.4448 276.519 53.3107 278.338 53.7231 284.22 C 54.8847 300.785 35.7866 298.02 26.659 307.342 C 23.4344 310.635 21.2695 319.237 18.866 321.747 C 12.7922 328.09 6.23202 333.685 0 340.26 L 0 336.414 C 12.9199 324.789 18.5653 321.276 25.0023 304.721 C 42.9827 296.545 58.434 295.215 48.0382 270.815 z" fill="rgb(61,74,70)" transform="translate(0,0)"></path>
<path d="M 295.709 694.219 C 296.75 694.149 297.794 694.125 298.837 694.149 C 313.869 694.47 322.308 701.088 332.149 711.516 C 329.92 710.541 327.67 709.612 325.402 708.73 C 307.408 701.836 303.551 721.531 293.259 730.748 C 290.477 733.241 286.689 734.753 283.302 736.259 C 275.267 739.256 270.615 747.109 265.673 753.704 C 263.814 739.116 262.059 720.803 270.843 708.033 C 276.8 699.373 285.767 695.943 295.709 694.219 z" fill="rgb(6,136,152)" transform="translate(0,0)"></path>
<path d="M 15.662 395.746 C 15.1199 390.38 13.696 378.377 13.724 374.811 C 13.7849 367.058 20.4809 335.409 26.1954 331.421 C 50.0464 314.776 65.873 319.248 69.8155 283.16 C 73.1916 252.256 110.433 257.459 131.013 250.265 C 142.438 243.377 146.906 229.785 161.8 228.937 C 171.694 228.374 186.692 232.45 193.617 240.182 C 217.425 266.763 217.243 254.843 245.913 245.252 C 259.487 250.136 260.093 252.734 267.291 265.407 C 281.197 272.355 289.274 267.44 290.98 287.602 C 291.861 298.006 306.383 299.102 314.431 303.404 C 318.594 310.775 321.188 324.155 325.535 327.584 C 347.665 345.038 368.516 337.804 358.419 380.398 C 366.681 402.193 386.391 404.865 383.525 432.096 C 382.644 440.032 380.53 447.782 377.26 455.067 C 375.544 458.843 372.884 463.282 370.758 466.905 C 373.666 486.731 367.986 484.928 367.522 503.616 C 367.912 510.043 377.488 520.733 378.946 525.678 C 382.434 537.511 379.887 577.608 371.373 586.021 C 361.087 596.186 334.469 613.205 339.063 633.022 C 344.691 657.298 347.975 662.829 338.787 688.142 C 342.947 692.668 348.951 698.842 350.719 704.626 L 349.841 705.953 C 341.84 706.446 327.389 688.227 319.032 684.211 C 299.363 674.758 279.954 678.258 265.468 694.787 C 250.517 711.846 250.694 732.726 253.931 753.663 C 229.48 747.751 205.944 743.25 182.897 755.666 C 165.301 765.146 154.05 770.776 134.256 773.935 C 129.554 774.686 119.13 785.173 111.473 783.518 C 98.8689 783.563 88.5241 777.773 76.7509 774.457 C 39.5581 784.728 23.3631 758.466 0 735.004 L 0 732.097 C 13.4743 746.004 35.5595 772.724 54.7938 775.124 C 60.9265 775.889 73.1873 772.458 78.5149 773.561 C 90.1811 775.975 99.5068 781.943 112.05 781.497 C 119.28 783.084 130.133 772.356 134.335 771.789 C 153.565 769.193 163.329 764.553 180.337 755.105 C 200.337 743.994 220.815 744.324 242.833 748.919 C 240.94 742.075 239.94 738.049 239.738 730.932 C 239.197 714.468 245.331 698.484 256.746 686.608 C 267.353 675.555 284.338 667.23 299.783 667.167 C 315.835 667.103 326.42 675.879 337.014 686.41 C 352.973 649.594 329.254 647.113 340.61 614.803 C 344.085 601.528 368.639 591.286 372.218 580.004 C 377.457 563.493 384.018 532.248 371.953 517.441 C 368.764 513.526 365.821 507.207 364.39 502.785 L 364.249 502.336 C 368.34 487.061 370.796 483.064 368.842 467.281 C 369.658 465.763 370.466 464.242 371.265 462.715 C 379.432 447.09 387.407 423.174 375.228 407.357 C 367.107 396.81 360.645 394.259 356.497 381.015 C 361.933 354.263 357.828 342.806 332.532 335.089 C 320.419 331.393 319.133 320.37 315.663 310.309 C 312.966 302.491 305.09 301.758 298.354 299.272 C 288.012 295.22 290.177 286.285 286.893 277.391 C 284.179 270.698 275.862 272.141 270.661 269.291 C 265.254 266.329 261.404 259.734 257.825 254.649 C 254.433 249.826 251.013 249.06 245.556 247.119 C 238.744 249.508 226.745 256.828 220.181 257.75 C 199.353 260.676 195.927 233.227 169.505 230.78 C 144.403 228.455 145.508 247.175 129.525 253.143 C 116.394 258.045 93.6895 254.073 80.68 266.481 C 66.1485 280.34 74.7078 297.814 61.0971 312.589 C 51.7973 322.685 40.1664 322.755 30.1902 330.279 C 21.5793 336.774 17.212 361.016 16.085 371.495 C 15.5568 376.406 17.4877 387.68 16.5631 393.823 C 15.4635 401.129 13.8716 402.156 8.11812 406.909 L 6.94073 405.402 C 11.1049 402.246 12.9965 400.141 15.662 395.746 z" fill="rgb(61,74,70)" transform="translate(0,0)"></path>
<path d="M 295.706 669.318 C 301.262 668.786 306.823 669.167 312.109 671.047 C 327.644 676.572 343.584 693.019 350.443 707.807 C 334.336 695.461 322.527 678.536 300.32 677.107 C 286.946 676.247 275.189 682.89 265.536 691.572 C 243.085 717.244 253.997 744.38 248.799 751.129 C 248.641 751.033 248.471 750.954 248.324 750.841 C 244.762 748.092 242.931 740.631 242.254 736.454 C 239.927 722.095 243.85 706.782 252.334 695.054 C 262.809 680.572 278.244 672.143 295.706 669.318 z" fill="rgb(7,165,174)" transform="translate(0,0)"></path>
<path d="M 0 444.695 C 18.5154 433.854 41.5178 423.43 46.4301 401.365 C 51.7179 377.173 44.8216 347.443 71.0901 333.131 C 79.5195 328.528 91.841 321.975 93.3116 311.306 C 97.5922 280.25 109.614 279.031 135.973 271.655 C 149.271 267.935 157.906 257.62 175.214 262.763 C 193.367 268.158 201.19 282.877 219.758 287.907 C 231.675 281.118 237.548 270.696 253.268 274.848 C 258.319 276.182 262.613 279.518 265.797 283.666 C 277.5 298.917 284.546 315.684 296.679 330.861 C 307.22 344.046 319.701 351.431 329.18 365.363 C 336.731 376.463 330.369 396.201 332.604 403.056 C 339.756 424.995 359.347 420.266 351.034 453.129 C 345.31 475.759 324.482 489.403 337.876 512.39 C 345.557 525.573 356.265 538.22 351.36 554.033 C 343.974 577.852 310.014 581.089 299.515 602.706 C 290.314 621.65 301.336 637.499 278.416 650.063 C 266.928 656.36 245.213 657.063 236.675 665.442 C 211.882 689.773 215.469 716.667 175.917 729.832 C 152.766 737.537 134.363 724.36 117.259 729.155 C 99.4735 734.142 84.9879 752.547 59.4068 743.013 C 39.0394 735.422 26.556 710.947 7.25702 698.661 L 6.3914 699.953 C 4.03717 698.3 2.22237 696.852 0 695.054 L 0 692.747 L 0 684.706 L 0 681.722 C 8.48447 690.09 19.0554 696.122 27.7707 703.895 C 36.1591 711.375 42.905 722.626 52.1108 729.594 C 57.9944 734.047 60.9296 735.171 67.6578 736.988 C 87.6077 742.374 105.419 722.195 118.265 719.453 C 133.708 716.157 154.619 727.56 174.49 721.446 C 212.617 709.714 205.882 679.094 230.621 658.997 C 241.238 650.373 264.258 652.223 276.696 643.828 C 292.179 633.378 287.458 621.158 291.065 605.561 C 296.552 581.834 312.564 577.569 329.395 566.4 C 362.385 544.509 325.113 517.955 327.157 494.412 C 328.394 480.164 342.229 464.63 345.126 449.682 C 348.772 430.872 336.178 425.314 329.094 410.003 C 323.109 397.068 332.728 386.077 326.925 372.395 C 321.048 358.539 304.106 352.911 295.576 342.831 C 284.625 329.891 275.815 312.667 266.452 298.516 C 262.215 292.111 254.906 282.898 246.99 281.259 C 238.475 279.854 233.194 287.934 226.68 291.973 C 222.115 294.803 218.77 293.975 213.48 293.28 C 201.671 291.729 194.486 281.892 185.146 275.719 C 181.56 273.348 176.812 271.932 172.523 271.033 C 161.672 268.76 151.158 273.112 141.069 276.504 C 131.002 280.403 112.736 284.066 106.129 292.613 C 98.3866 302.628 102.641 318.572 90.9865 327.786 C 85.4964 332.126 80.0037 335.537 74.1127 339.327 C 52.9696 354.988 58.9378 377.169 56.3406 398.175 C 53.1839 423.707 21.1673 440.182 0 454.652 L 0 452.734 L 0 444.695 z" fill="rgb(7,165,174)" transform="translate(0,0)"></path>
<path d="M 0 452.734 C 20.1095 436.099 54.9376 422.421 54.4576 394.424 C 53.7068 350.626 61.5233 346.99 92.9244 322.695 C 98.5398 318.351 98.4792 299.745 102.377 293.81 C 109.28 282.469 156.419 267.977 169.157 268.717 C 190.836 268.82 208.999 305.235 229.883 287.102 C 233.925 283.592 241.204 277.947 246.6 279.45 C 270.537 286.119 278.828 322.682 295.145 339.468 C 306.927 351.589 316.98 355.093 326.53 368.261 C 334.914 381.455 327.462 393.446 329.571 404.402 C 332.748 420.91 350.127 427.069 347.532 447.541 C 345.33 464.901 327.235 484.028 329.288 499.505 C 332.005 519.995 361.036 545.376 333.44 566.059 C 316.706 576.803 295.13 585.655 292.523 608.171 C 291.245 619.2 290.562 639.927 279.652 644.434 C 242.107 659.946 227.057 649.838 208.973 695.441 C 201.269 714.869 169.821 730.878 148.975 724.266 C 141.941 723.391 128.042 718.961 121.338 720.811 C 101.579 726.261 75.7125 753.032 54.036 733.07 C 35.8128 716.287 20.9453 700.92 0 684.706 L 0 681.722 C 8.48447 690.09 19.0554 696.122 27.7707 703.895 C 36.1591 711.375 42.905 722.626 52.1108 729.594 C 57.9944 734.047 60.9296 735.171 67.6578 736.988 C 87.6077 742.374 105.419 722.195 118.265 719.453 C 133.708 716.157 154.619 727.56 174.49 721.446 C 212.617 709.714 205.882 679.094 230.621 658.997 C 241.238 650.373 264.258 652.223 276.696 643.828 C 292.179 633.378 287.458 621.158 291.065 605.561 C 296.552 581.834 312.564 577.569 329.395 566.4 C 362.385 544.509 325.113 517.955 327.157 494.412 C 328.394 480.164 342.229 464.63 345.126 449.682 C 348.772 430.872 336.178 425.314 329.094 410.003 C 323.109 397.068 332.728 386.077 326.925 372.395 C 321.048 358.539 304.106 352.911 295.576 342.831 C 284.625 329.891 275.815 312.667 266.452 298.516 C 262.215 292.111 254.906 282.898 246.99 281.259 C 238.475 279.854 233.194 287.934 226.68 291.973 C 222.115 294.803 218.77 293.975 213.48 293.28 C 201.671 291.729 194.486 281.892 185.146 275.719 C 181.56 273.348 176.812 271.932 172.523 271.033 C 161.672 268.76 151.158 273.112 141.069 276.504 C 131.002 280.403 112.736 284.066 106.129 292.613 C 98.3866 302.628 102.641 318.572 90.9865 327.786 C 85.4964 332.126 80.0037 335.537 74.1127 339.327 C 52.9696 354.988 58.9378 377.169 56.3406 398.175 C 53.1839 423.707 21.1673 440.182 0 454.652 L 0 452.734 z" fill="rgb(55,77,77)" transform="translate(0,0)"></path>
<path d="M 0 692.747 C 2.97473 694.955 4.55449 696.104 7.25702 698.661 L 6.3914 699.953 C 4.03717 698.3 2.22237 696.852 0 695.054 L 0 692.747 z" fill="rgb(55,77,77)" transform="translate(0,0)"></path>
<path d="M 0 442.586 C 30.8924 424.077 48.1517 416.656 46.4372 378.181 C 45.7672 363.147 55.0179 339.502 68.084 332.661 C 79.2316 325.587 89.0993 323.079 91.6817 308.54 C 93.395 298.895 96.9148 284.242 106.667 279.597 C 122.154 272.219 141.256 269.192 156.938 260.522 C 159.965 258.849 171.289 259.519 174.633 260.544 C 188.071 260.67 212.599 293.681 225.297 281.931 C 244.559 264.105 265.721 271.953 276.112 294.774 C 289.998 325.27 313.495 341.969 332.53 367.505 C 338.256 375.187 331.651 397.93 336.068 406.846 C 348.283 424.876 359.445 426.658 353.602 451.937 C 348.492 474.047 325.321 492.2 341.186 514.305 C 381.076 569.884 325.077 570.018 301.251 603.716 C 293.935 614.062 300.737 643.187 281.673 650.612 C 254.336 662.811 236.06 656.531 221.749 689.028 C 213.025 708.836 195.667 727.587 173.942 732.317 C 152.077 738.801 133.551 726.403 117.187 731.087 C 100.928 735.741 85.8688 753.111 63.5661 746.402 C 41.8778 739.877 25.7449 716.041 6.3914 699.953 L 7.25702 698.661 C 26.556 710.947 39.0394 735.422 59.4068 743.013 C 84.9879 752.547 99.4735 734.142 117.259 729.155 C 134.363 724.36 152.766 737.537 175.917 729.832 C 215.469 716.667 211.882 689.773 236.675 665.442 C 245.213 657.063 266.928 656.36 278.416 650.063 C 301.336 637.499 290.314 621.65 299.515 602.706 C 310.014 581.089 343.974 577.852 351.36 554.033 C 356.265 538.22 345.557 525.573 337.876 512.39 C 324.482 489.403 345.31 475.759 351.034 453.129 C 359.347 420.266 339.756 424.995 332.604 403.056 C 330.369 396.201 336.731 376.463 329.18 365.363 C 319.701 351.431 307.22 344.046 296.679 330.861 C 284.546 315.684 277.5 298.917 265.797 283.666 C 262.613 279.518 258.319 276.182 253.268 274.848 C 237.548 270.696 231.675 281.118 219.758 287.907 C 201.19 282.877 193.367 268.158 175.214 262.763 C 157.906 257.62 149.271 267.935 135.973 271.655 C 109.614 279.031 97.5922 280.25 93.3116 311.306 C 91.841 321.975 79.5195 328.528 71.0901 333.131 C 44.8216 347.443 51.7179 377.173 46.4301 401.365 C 41.5178 423.43 18.5154 433.854 0 444.695 L 0 442.586 z" fill="rgb(61,74,70)" transform="translate(0,0)"></path>
<path d="M 6.94073 405.402 L 8.11812 406.909 C 5.23796 409.186 2.99921 411.423 0 413.674 L 0 410.977 C 2.31757 409.088 4.65474 407.338 6.94073 405.402 z" fill="rgb(55,77,77)" transform="translate(0,0)"></path>
<path d="M 1923.13 217.71 L 1936.74 231.831 C 1945.21 238.371 1960.83 255.688 1970.56 264.058 C 1971.91 265.296 1974.41 267.617 1974.75 269.404 C 1979.37 293.558 1981.86 318.321 1985.58 342.663 L 1982.36 346.213 C 1983.15 351.332 1984.15 356.498 1984.81 361.616 L 1988.81 361.014 C 1989.78 366.608 1990.55 369.313 1990.63 375.037 L 1992.01 376.21 C 1994.69 374.745 1991.65 372.991 1996.16 368.945 C 1999.38 366.819 2000.23 366.677 2003.88 365.306 C 2010.89 360.878 2038.11 349.955 2046.35 346.608 C 2046.69 350.129 2046.82 354.262 2047.03 357.844 L 2048 357.538 L 2048 549.37 L 2048 553.341 L 2048 602.174 L 2048 607.446 L 2048 693.458 L 2048 702.552 L 2048 718.844 L 2048 722.999 L 2048 774.7 L 2048 778.656 C 2041.41 779.674 2001.77 786.092 1998.02 785.852 C 1993.86 791.881 1989.84 798.478 1985.92 804.703 C 1974.46 804.531 1960.67 805.202 1949.04 805.471 C 1944.25 800.41 1935.3 791.359 1929.68 787.83 L 1915.19 789.092 C 1906.14 784.782 1897.01 780.611 1887.83 776.579 L 1889.99 773.391 C 1890.79 768.142 1888.46 734.644 1888.06 727.828 C 1885.99 695.287 1884.3 662.724 1882.98 630.144 C 1876.36 626.629 1880.81 627.278 1878.33 622.828 L 1877.48 623.266 C 1875.58 621.928 1863.23 599.827 1861.77 596.658 C 1847.84 566.386 1814.13 522.951 1807.21 491.934 C 1807.03 484.969 1806.79 480.269 1805.79 473.394 C 1804.47 470.315 1806 469.713 1805.21 464.973 C 1806.18 459.461 1820.84 422.839 1823.65 416.081 L 1849.22 428.196 C 1848.97 420.115 1848.63 412.037 1848.22 403.962 C 1846.72 382.647 1844.87 347.949 1844.9 327.131 C 1845.45 322.135 1844.86 315.454 1846.58 310.916 L 1847.25 311.616 C 1856.23 312.259 1866.26 312.466 1875.27 312.307 C 1897.64 311.914 1920.97 313.319 1943.24 312.041 C 1943.07 310.442 1943.15 308.892 1943.17 307.283 C 1938.14 282.231 1928.9 248.827 1921.74 224.349 L 1915 232.518 L 1911.68 230.254 C 1915.44 226.022 1919.26 221.841 1923.13 217.71 z" fill="rgb(182,97,68)" transform="translate(0,0)"></path>
<path d="M 1844.9 327.131 C 1845.45 322.135 1844.86 315.454 1846.58 310.916 L 1847.25 311.616 C 1856.23 312.259 1866.26 312.466 1875.27 312.307 C 1897.64 311.914 1920.97 313.319 1943.24 312.041 C 1946.93 316.68 1956.81 401.286 1959.48 414.547 C 1961.65 425.361 1965.57 449.114 1965.52 460.806 C 1962.91 473.582 1954.95 500.525 1950.34 513.1 C 1938.29 489.472 1925 463.513 1914.01 439.516 C 1908.22 448.863 1901.23 464.894 1895.96 475.34 C 1890.11 465.514 1878.59 446.286 1872.03 437.073 C 1865.55 434.193 1859.65 431.827 1853.02 429.292 C 1852.78 420.2 1852.52 399.098 1851.2 390.573 C 1850.89 394.641 1851.02 400.178 1848.73 403.26 L 1848.22 403.962 C 1846.72 382.647 1844.87 347.949 1844.9 327.131 z" fill="rgb(6,136,152)" transform="translate(0,0)"></path>
<path d="M 1844.9 327.131 C 1845.45 322.135 1844.86 315.454 1846.58 310.916 L 1847.25 311.616 C 1848.66 322.188 1849.22 340.482 1849.69 351.597 C 1850.15 362.434 1851.47 380.336 1851.2 390.573 C 1850.89 394.641 1851.02 400.178 1848.73 403.26 L 1848.22 403.962 C 1846.72 382.647 1844.87 347.949 1844.9 327.131 z" fill="rgb(183,101,72)" transform="translate(0,0)"></path>
<path d="M 1996.16 368.945 C 1999.38 366.819 2000.23 366.677 2003.88 365.306 C 2006.05 369.291 2002.84 366.636 2004.1 369.32 C 2004.05 375.055 2027.56 386.219 2032.4 390.362 C 2033.67 391.449 2040.39 395.587 2041.94 396.062 C 2042.17 398.053 2042.46 400.968 2041.83 402.858 C 2038.84 415.371 2034.63 428.594 2031.28 441.225 C 2022.7 474.514 2013.91 507.748 2004.9 540.925 L 1993.14 587.552 C 1991.49 594.087 1987.41 611.527 1984.56 617.028 C 1976.82 631.948 1963.04 649.769 1952.91 663.654 C 1952.52 632.818 1952.3 601.98 1952.23 571.142 C 1952.2 531.258 1951.33 523.399 1962.78 485.389 C 1968.91 464.791 1975.4 444.303 1982.26 423.935 C 1986.91 409.664 1990.11 395.33 1994.79 381.023 C 1996.14 377.347 1996.21 376.382 1998.81 373.55 C 1998.16 372.497 1996.33 372.359 1995.97 374.373 C 1995.86 374.429 1995.74 374.485 1995.62 374.541 C 1994.21 370.639 1999.61 371.207 1996.16 368.945 z" fill="rgb(48,189,188)" transform="translate(0,0)"></path>
<path d="M 1996.16 368.945 C 1999.38 366.819 2000.23 366.677 2003.88 365.306 C 2006.05 369.291 2002.84 366.636 2004.1 369.32 C 2004.05 375.055 2027.56 386.219 2032.4 390.362 C 2033.67 391.449 2040.39 395.587 2041.94 396.062 C 2042.17 398.053 2042.46 400.968 2041.83 402.858 C 2039.02 398.936 2005.79 378.273 1999.9 375.127 C 1999.49 374.485 1999.29 374.152 1998.81 373.55 C 1998.16 372.497 1996.33 372.359 1995.97 374.373 C 1995.86 374.429 1995.74 374.485 1995.62 374.541 C 1994.21 370.639 1999.61 371.207 1996.16 368.945 z" fill="rgb(183,101,72)" transform="translate(0,0)"></path>
<path d="M 1997.35 383.168 C 1998.67 382.297 1999.8 381.542 2001.17 380.745 C 2000.51 392.03 1994.64 403.831 1992.4 414.866 C 1990.28 425.284 1986.05 423.104 1989.25 413.327 C 1992.33 403.865 1995.1 392.863 1997.35 383.168 z" fill="rgb(182,97,68)" transform="translate(0,0)"></path>
<path d="M 1998.81 373.55 C 1999.29 374.152 1999.49 374.485 1999.9 375.127 C 2000.07 377.723 1999.91 378.452 2001.17 380.745 C 1999.8 381.542 1998.67 382.297 1997.35 383.168 L 1994.79 381.023 C 1996.14 377.347 1996.21 376.382 1998.81 373.55 z" fill="rgb(7,165,174)" transform="translate(0,0)"></path>
<path d="M 1986.22 425.443 C 1986.8 425.917 1987.58 426.382 1987.83 427.128 C 1989.24 431.187 1983.54 445.165 1981.72 449.361 C 1981.23 448.933 1980.6 448.502 1980.33 447.882 C 1978.71 444.19 1984.56 429.457 1986.22 425.443 z" fill="rgb(182,97,68)" transform="translate(0,0)"></path>
<path d="M 2036.5 606.99 C 2040.11 606.959 2044.34 607.268 2048 607.446 L 2048 693.458 C 2044.83 698.107 2041.44 704.252 2038.63 709.185 C 2021.37 739.483 2000.37 769.409 1984.6 800.438 C 1974.07 801.007 1962.36 800.893 1951.73 801.008 C 1946.43 797.098 1938.46 789.594 1933.31 785.013 C 1964.72 723.03 2002.4 667.505 2036.5 606.99 z" fill="rgb(142,206,204)" transform="translate(0,0)"></path>
<path d="M 1878.1 522.96 C 1887.82 532.551 1903.51 546.367 1911.88 555.61 L 1911.98 783.687 C 1905.31 780.522 1896.67 776.114 1889.99 773.391 C 1890.79 768.142 1888.46 734.644 1888.06 727.828 C 1885.99 695.287 1884.3 662.724 1882.98 630.144 C 1881.18 595.157 1880.76 557.536 1878.1 522.96 z" fill="rgb(142,206,204)" transform="translate(0,0)"></path>
<path d="M 1885.53 557.246 L 1887.99 559.035 C 1890.31 568.424 1892.12 612.83 1890.31 622.671 C 1889.32 622.103 1888.58 621.828 1887.91 620.86 C 1885.1 616.806 1884.29 564.264 1885.53 557.246 z" fill="rgb(182,97,68)" transform="translate(0,0)"></path>
<path d="M 1887.98 627.388 C 1889.27 627.985 1890.23 628.187 1890.89 629.555 C 1892.88 633.669 1892.36 643.298 1890.73 647.491 C 1889.92 647.156 1889.07 647.01 1888.53 646.272 C 1886.4 643.403 1887.3 630.92 1887.98 627.388 z" fill="rgb(183,101,72)" transform="translate(0,0)"></path>
<path d="M 1805.79 473.394 C 1821.12 469.682 1836.65 466.914 1851.93 463.062 C 1856.84 475.941 1870.55 506.717 1872.54 518.615 C 1877.68 549.392 1876.13 591.54 1878.33 622.828 L 1877.48 623.266 C 1875.58 621.928 1863.23 599.827 1861.77 596.658 C 1847.84 566.386 1814.13 522.951 1807.21 491.934 C 1807.03 484.969 1806.79 480.269 1805.79 473.394 z" fill="rgb(48,189,188)" transform="translate(0,0)"></path>
<path d="M 2047.03 357.844 L 2048 357.538 L 2048 549.37 C 2042.53 550.28 2035.25 551.269 2030.04 552.708 C 2023.06 562.318 2001.68 590.628 1997.16 600.047 L 1995.88 601.49 L 1994.37 601.506 L 1994.63 598.965 C 1997.11 585.371 2003.62 562.574 2007.2 548.801 C 2017.21 511.729 2026.96 474.585 2036.44 437.374 C 2037.77 432.041 2045.69 407.725 2045.72 404.88 C 2045.92 389.758 2044.99 373.781 2047.03 357.844 z" fill="rgb(6,136,152)" transform="translate(0,0)"></path>
<path d="M 1948.47 311.032 C 1956 298.534 1963.69 286.135 1971.55 273.838 C 1972.99 294.222 1978.75 325.789 1982.36 346.213 C 1983.15 351.332 1984.15 356.498 1984.81 361.616 L 1988.81 361.014 C 1989.78 366.608 1990.55 369.313 1990.63 375.037 C 1988.79 376.147 1990.77 391.908 1983.87 400.35 C 1979.06 414.654 1974.67 433.227 1969.82 448.676 C 1965.01 427.252 1962.65 406.295 1959.46 384.658 C 1955.84 360.084 1951.69 335.68 1948.47 311.032 z" fill="rgb(6,136,152)" transform="translate(0,0)"></path>
<path d="M 1984.81 361.616 L 1988.81 361.014 C 1989.78 366.608 1990.55 369.313 1990.63 375.037 C 1988.79 376.147 1990.77 391.908 1983.87 400.35 C 1988.77 382.383 1987.69 380.207 1984.81 361.616 z" fill="rgb(183,101,72)" transform="translate(0,0)"></path>
<path d="M 2036.26 722.261 L 2048 722.999 L 2048 774.7 C 2039.5 776.002 2006.47 781.437 2000.14 780.988 C 2011.28 762.829 2024.47 739.114 2036.26 722.261 z" fill="rgb(142,206,204)" transform="translate(0,0)"></path>
<path d="M 1947.44 303.816 C 1941.59 279.49 1934.16 255.26 1928.5 231.014 C 1930.18 231.115 1932.17 233.533 1933.74 234.968 C 1935.03 233.758 1935.64 233.241 1936.74 231.831 C 1945.21 238.371 1960.83 255.688 1970.56 264.058 C 1968.89 265.715 1969.03 265.719 1968.14 268.027 C 1968.54 272.658 1950.99 298.287 1947.44 303.816 z" fill="rgb(6,136,152)" transform="translate(0,0)"></path>
<path d="M 1936.74 231.831 C 1945.21 238.371 1960.83 255.688 1970.56 264.058 C 1968.89 265.715 1969.03 265.719 1968.14 268.027 C 1962.75 263.996 1937.97 240.238 1933.74 234.968 C 1935.03 233.758 1935.64 233.241 1936.74 231.831 z" fill="rgb(183,101,72)" transform="translate(0,0)"></path>
<path d="M 2004.1 369.32 C 2011.06 366.818 2032.74 356.793 2040.98 353.221 C 2041.13 367.488 2041.71 381.709 2041.94 396.062 C 2040.39 395.587 2033.67 391.449 2032.4 390.362 C 2027.56 386.219 2004.05 375.055 2004.1 369.32 z" fill="rgb(48,189,188)" transform="translate(0,0)"></path>
<path d="M 2035.12 556.535 C 2039.97 555.2 2042.95 554.263 2048 553.341 L 2048 602.174 C 2045.74 602.18 2039.44 602.589 2037.7 601.493 C 2037.73 601.55 2035.38 560.894 2035.12 556.535 z" fill="rgb(48,189,188)" transform="translate(0,0)"></path>
<path d="M 2048 718.844 C 2046.37 718.818 2040.28 718.914 2039.56 718.523 C 2037.68 717.493 2047.19 703.743 2048 702.552 L 2048 718.844 z" fill="rgb(48,189,188)" transform="translate(0,0)"></path>
<path d="M 1947.61 521.837 L 1948.54 523.076 C 1950.64 545.518 1948.83 569.482 1948.85 592.086 C 1948.89 632.023 1948.62 671.762 1947.13 711.676 C 1946.68 723.787 1947.66 738.379 1945.3 750.187 C 1943.03 761.5 1934.11 773.862 1929.07 784.35 L 1916.42 784.846 C 1915.11 762.532 1916.7 739.471 1916.66 717.062 L 1916.41 555.126 L 1947.61 521.837 z" fill="rgb(142,206,204)" transform="translate(0,0)"></path>
<path d="M 1950.6 736.261 C 1951.08 720.691 1949.56 686.021 1953.34 672.723 C 1955.52 665.024 2022.1 570.069 2031.5 558.435 C 2032.66 573.499 2033.36 588.594 2033.6 603.7 C 2008.8 646.888 1979.98 695.851 1953.44 738.003 C 1952.9 739.064 1952.04 741.168 1950.73 741.407 C 1949.5 740.531 1950.29 737.579 1950.6 736.261 z" fill="rgb(48,189,188)" transform="translate(0,0)"></path>
<path d="M 1950.6 736.261 C 1951.54 736.862 1952.48 737.442 1953.44 738.003 C 1952.9 739.064 1952.04 741.168 1950.73 741.407 C 1949.5 740.531 1950.29 737.579 1950.6 736.261 z" fill="rgb(7,165,174)" transform="translate(0,0)"></path>
<path d="M 1913.49 449.483 C 1916.67 451.728 1944.09 509.046 1947.77 516.894 C 1936.1 528.046 1925.19 540.005 1914.13 551.754 C 1903.03 540.121 1890.74 529.399 1878.93 518.507 C 1890.8 495.907 1903.38 472.882 1913.49 449.483 z" fill="rgb(142,206,204)" transform="translate(0,0)"></path>
<path d="M 1869.81 442.899 C 1879.67 453.908 1885.37 468.036 1894.31 479.555 C 1888.29 491.222 1882.05 503.031 1876.21 514.761 C 1870.91 501.076 1859.21 472.656 1856.26 459.526 C 1861.74 453.883 1865.12 449.314 1869.81 442.899 z" fill="rgb(48,189,188)" transform="translate(0,0)"></path>
<path d="M 1825.46 423.518 C 1831.26 427.696 1846.06 451.701 1850.9 459.031 C 1848.59 459.684 1846.26 460.367 1843.93 460.933 C 1838.4 462.308 1832.84 463.605 1827.27 464.823 C 1820.81 465.697 1814.19 467.648 1807.81 469.069 C 1813.89 453.968 1819.13 438.528 1825.46 423.518 z" fill="rgb(142,206,204)" transform="translate(0,0)"></path>
<path d="M 1832.5 424.942 C 1841.32 428.653 1860.88 435.945 1867.94 440.509 C 1869.57 440.855 1869.34 441.393 1869.81 442.899 C 1865.12 449.314 1861.74 453.883 1856.26 459.526 C 1855.63 458.7 1854.98 457.886 1854.31 457.087 C 1849.5 451.258 1837.52 432.241 1832.5 424.942 z" fill="rgb(142,206,204)" transform="translate(0,0)"></path>
<path d="M 1867.94 440.509 C 1869.57 440.855 1869.34 441.393 1869.81 442.899 C 1865.12 449.314 1861.74 453.883 1856.26 459.526 C 1855.63 458.7 1854.98 457.886 1854.31 457.087 C 1858.35 451.166 1862.91 445.618 1867.94 440.509 z" fill="rgb(183,101,72)" transform="translate(0,0)"></path>
<path d="M 1647.49 310.905 C 1652.39 312.961 1663.21 319.342 1668.3 322.164 C 1670.96 323.608 1673.6 325.138 1676.26 326.605 L 1729.99 357.436 C 1738.24 373.611 1747.81 389.533 1755.67 405.009 C 1769.65 428.863 1781.54 453.874 1795.44 477.769 C 1797.57 481.432 1799.7 485.067 1801.63 488.836 L 1802.84 488.992 L 1803.06 488.778 C 1803.43 489.224 1804.24 490.403 1804.74 490.567 C 1805.69 490.103 1804.99 487.436 1805.52 486.529 L 1805.74 486.475 C 1806.52 487.16 1805.2 490.783 1806.15 492.225 C 1806.51 492.128 1806.86 492.031 1807.21 491.934 C 1814.13 522.951 1847.84 566.386 1861.77 596.658 C 1863.23 599.827 1875.58 621.928 1877.48 623.266 L 1878.33 622.828 C 1880.81 627.278 1876.36 626.629 1882.98 630.144 C 1884.3 662.724 1885.99 695.287 1888.06 727.828 C 1888.46 734.644 1890.79 768.142 1889.99 773.391 L 1887.83 776.579 C 1873.45 778.054 1858.57 779.366 1844.32 781.635 C 1842.37 781.355 1840.31 781.411 1839.02 780.32 C 1843.13 779.381 1846.83 778.482 1850.89 777.332 L 1850.94 776.036 C 1849.72 769.652 1835.76 750.081 1831.29 744.476 C 1830.06 742.921 1823.51 738.526 1821.43 737.146 L 1825.1 734.267 C 1821.5 720.876 1790.43 681.7 1782.58 665.844 C 1776.38 653.329 1762.44 634.646 1754.79 622.334 C 1753.66 620.526 1739.23 611.54 1735.73 608.928 C 1732.37 607.02 1727.37 603.477 1724.01 601.254 L 1706.09 589.294 L 1709.9 589.728 L 1711.73 588.172 C 1716.49 591.199 1722.64 594.868 1726.98 598.271 C 1730.29 600.401 1734.92 603.193 1737.85 605.628 C 1740.12 606.715 1746.46 610.895 1748.91 612.416 C 1739.27 593.324 1726.81 576.287 1716.38 557.712 C 1713.51 554.28 1693.63 520.313 1690.65 515.259 L 1633.69 418.045 C 1635.1 409.486 1635.97 400.942 1637.5 392.267 L 1640.85 395.534 C 1642.85 382.4 1645.11 366.768 1646.06 353.554 C 1645.38 349.479 1645.23 347.593 1643.42 343.903 L 1647.49 310.905 z" fill="rgb(182,97,68)" transform="translate(0,0)"></path>
<path d="M 1650.15 321.813 C 1661.71 344.333 1670 370.793 1680.52 391.452 C 1679.69 398.432 1679.14 402.52 1677.44 409.314 C 1664.84 411.134 1651.03 413.022 1638.55 415.394 C 1639.11 408.751 1639.87 402.128 1640.85 395.534 C 1642.85 382.4 1645.11 366.768 1646.06 353.554 C 1647.77 343.203 1648.9 332.267 1650.15 321.813 z" fill="rgb(142,206,204)" transform="translate(0,0)"></path>
<path d="M 1654.79 319.148 L 1665.22 325.665 L 1668.3 322.164 C 1670.96 323.608 1673.6 325.138 1676.26 326.605 C 1675.64 328.473 1675.44 328.806 1674.44 330.462 C 1690.84 340.095 1707.63 349.043 1724.18 358.828 C 1710.97 368.637 1697.16 379.227 1683.65 388.466 C 1675.37 369.128 1661.5 338.31 1654.79 319.148 z" fill="rgb(142,206,204)" transform="translate(0,0)"></path>
<path d="M 1668.3 322.164 C 1670.96 323.608 1673.6 325.138 1676.26 326.605 C 1675.64 328.473 1675.44 328.806 1674.44 330.462 C 1671.32 328.91 1668.32 327.159 1665.22 325.665 L 1668.3 322.164 z" fill="rgb(183,101,72)" transform="translate(0,0)"></path>
<path d="M 1727.42 361.705 C 1736.12 377.442 1744.27 393.405 1753.11 409.148 L 1816.99 525.838 L 1857.68 597.996 C 1862 605.646 1876.71 630.495 1878.64 637.472 C 1880.32 643.524 1880.71 669.56 1881.23 677.197 C 1883.19 706.324 1882.86 740.132 1886.09 769.015 C 1834.64 682.417 1786.04 592.871 1735.69 505.557 C 1717.74 474.435 1700.7 442.155 1682.42 411.305 C 1681.69 408.819 1683.81 397.068 1684.35 393.642 C 1698.46 382.667 1712.82 372.018 1727.42 361.705 z" fill="rgb(142,206,204)" transform="translate(0,0)"></path>
<path d="M 1639.81 419.522 C 1648.55 417.587 1671.67 413.33 1679.64 413.888 C 1724.54 498.361 1777.43 587.453 1824.94 671.003 L 1859.65 731.777 C 1866.18 743.058 1877.19 761.194 1882.55 772.716 C 1873.38 773.328 1865.26 774.214 1856.15 775.313 L 1754.34 612.444 C 1743.89 595.853 1734.14 578.478 1723.4 562.146 C 1721.05 556.51 1710.5 541.268 1706.76 534.831 L 1665.27 464.401 C 1657.26 450.846 1646.51 433.379 1639.81 419.522 z" fill="rgb(142,206,204)" transform="translate(0,0)"></path>
<path d="M 1611.63 590.867 C 1638.97 586.991 1675.17 584.873 1703.15 582.474 C 1705.92 584.177 1708.99 586.338 1711.73 588.172 L 1709.9 589.728 L 1706.09 589.294 L 1724.01 601.254 C 1727.37 603.477 1732.37 607.02 1735.73 608.928 C 1739.23 611.54 1753.66 620.526 1754.79 622.334 C 1762.44 634.646 1776.38 653.329 1782.58 665.844 C 1790.43 681.7 1821.5 720.876 1825.1 734.267 L 1821.43 737.146 L 1741.64 680.603 C 1728.24 671.039 1713.91 660.351 1699.9 651.623 C 1697.65 650.224 1695.08 650.444 1692.54 650.757 C 1674.37 654.445 1653.69 659.677 1635.84 662.773 C 1634.12 664.359 1634.11 664.502 1633.17 666.691 C 1628.9 664.068 1628.8 663.715 1628.3 659.075 C 1624.4 640.704 1618.48 621.054 1614.23 601.903 L 1611.63 590.867 z" fill="rgb(183,101,72)" transform="translate(0,0)"></path>
<path d="M 1702.03 646.812 C 1701.97 640.309 1702.73 593.48 1703.99 589.329 L 1706.09 589.294 L 1724.01 601.254 C 1727.37 603.477 1732.37 607.02 1735.73 608.928 C 1739.23 611.54 1753.66 620.526 1754.79 622.334 C 1762.44 634.646 1776.38 653.329 1782.58 665.844 C 1790.43 681.7 1821.5 720.876 1825.1 734.267 C 1820.89 732.591 1780.33 703.272 1775.23 699.497 C 1751.73 682.089 1724.86 664.668 1702.03 646.812 z" fill="rgb(48,189,188)" transform="translate(0,0)"></path>
<path d="M 1614.23 601.903 C 1615.51 600.12 1615.54 599.945 1617.5 599.113 C 1626.02 603.604 1684.64 640.225 1690.76 645.843 L 1691.08 647.431 L 1692.54 650.757 C 1674.37 654.445 1653.69 659.677 1635.84 662.773 C 1634.12 664.359 1634.11 664.502 1633.17 666.691 C 1628.9 664.068 1628.8 663.715 1628.3 659.075 C 1624.4 640.704 1618.48 621.054 1614.23 601.903 z" fill="rgb(48,189,188)" transform="translate(0,0)"></path>
<path d="M 1631.86 657.371 C 1632.56 657.814 1633.27 658.256 1633.97 658.699 C 1653.11 655.48 1671.98 650.881 1691.08 647.431 L 1692.54 650.757 C 1674.37 654.445 1653.69 659.677 1635.84 662.773 C 1634.12 664.359 1634.11 664.502 1633.17 666.691 C 1628.9 664.068 1628.8 663.715 1628.3 659.075 C 1628.62 657.356 1629.05 655.69 1629.46 653.99 L 1631.86 657.371 z" fill="rgb(182,97,68)" transform="translate(0,0)"></path>
<path d="M 1614.23 601.903 C 1615.51 600.12 1615.54 599.945 1617.5 599.113 C 1622.16 613.452 1628.45 642.028 1631.86 657.371 L 1629.46 653.99 C 1629.05 655.69 1628.62 657.356 1628.3 659.075 C 1624.4 640.704 1618.48 621.054 1614.23 601.903 z" fill="rgb(183,101,72)" transform="translate(0,0)"></path>
<path d="M 1695.32 587.453 L 1697.81 587.655 C 1701.12 593.382 1698.02 634.568 1697.88 644.242 C 1682.73 635.747 1668.22 625.781 1653.52 616.507 C 1642.49 609.34 1630.76 602.634 1620.73 594.088 C 1645.5 591.303 1670.49 589.605 1695.32 587.453 z" fill="rgb(48,189,188)" transform="translate(0,0)"></path>
<path d="M 1692.54 650.757 C 1695.08 650.444 1697.65 650.224 1699.9 651.623 C 1713.91 660.351 1728.24 671.039 1741.64 680.603 L 1821.43 737.146 C 1823.51 738.526 1830.06 742.921 1831.29 744.476 C 1835.76 750.081 1849.72 769.652 1850.94 776.036 L 1850.89 777.332 C 1846.83 778.482 1843.13 779.381 1839.02 780.32 C 1840.31 781.411 1842.37 781.355 1844.32 781.635 C 1836.42 784.007 1817.11 787.44 1808.14 789.377 C 1796.39 780.775 1783.88 772.287 1771.9 763.935 L 1759.93 755.918 C 1749 748.47 1737.77 740.818 1727.46 732.549 C 1727.54 729.882 1726.44 729.049 1725.27 726.165 C 1722.92 723.92 1718.07 720.735 1715.24 719.029 C 1714.34 717.974 1714.24 717.994 1713.02 717.182 C 1704.61 711.635 1696.3 705.938 1688.09 700.095 C 1673.56 688.179 1652.13 675.779 1635.84 662.773 C 1653.69 659.677 1674.37 654.445 1692.54 650.757 z" fill="rgb(48,189,188)" transform="translate(0,0)"></path>
<path d="M 1771.9 763.935 C 1774.54 764.481 1778.53 765.444 1781.08 765.516 C 1788.47 769.38 1801.66 779.532 1808.56 784.765 C 1823.02 782.117 1836.84 778.706 1850.94 776.036 L 1850.89 777.332 C 1846.83 778.482 1843.13 779.381 1839.02 780.32 C 1840.31 781.411 1842.37 781.355 1844.32 781.635 C 1836.42 784.007 1817.11 787.44 1808.14 789.377 C 1796.39 780.775 1783.88 772.287 1771.9 763.935 z" fill="rgb(182,97,68)" transform="translate(0,0)"></path>
<path d="M 1725.27 726.165 C 1736.83 734.198 1749.71 742.74 1760.96 751.005 C 1764.73 753.662 1778.42 762.95 1781.08 765.516 C 1778.53 765.444 1774.54 764.481 1771.9 763.935 L 1759.93 755.918 C 1749 748.47 1737.77 740.818 1727.46 732.549 C 1727.54 729.882 1726.44 729.049 1725.27 726.165 z" fill="rgb(183,101,72)" transform="translate(0,0)"></path>
<path d="M 1711.87 708.678 C 1713.13 708.726 1714.4 708.851 1715.58 709.343 C 1721.72 711.892 1800.25 766.221 1802.52 769.44 C 1803.09 770.263 1803.56 772.228 1803.93 773.223 C 1803.12 773.044 1802.44 772.868 1801.67 772.558 C 1793 769.079 1723.52 720.812 1714.76 712.983 C 1713.41 711.771 1712.54 710.35 1711.87 708.678 z" fill="rgb(182,97,68)" transform="translate(0,0)"></path>
<path d="M 1678.99 684.715 C 1684.74 685.787 1689.28 689.689 1692.83 694.205 C 1691.58 694.176 1690.26 694.244 1689.04 693.921 C 1684.73 692.787 1681.01 688.469 1678.99 684.715 z" fill="rgb(182,97,68)" transform="translate(0,0)"></path>
<path d="M 1697.13 698.06 C 1700.82 698.027 1703.75 698.956 1706.64 701.42 C 1707.95 702.54 1707.92 703.577 1708.06 705.194 C 1706.74 705.008 1705.47 704.902 1704.23 704.34 C 1701.33 703.021 1698.3 701.093 1697.13 698.06 z" fill="rgb(182,97,68)" transform="translate(0,0)"></path>
<path d="M 1915 232.518 L 1921.74 224.349 C 1928.9 248.827 1938.14 282.231 1943.17 307.283 C 1943.15 308.892 1943.07 310.442 1943.24 312.041 C 1920.97 313.319 1897.64 311.914 1875.27 312.307 C 1866.26 312.466 1856.23 312.259 1847.25 311.616 L 1846.58 310.916 C 1844.86 315.454 1845.45 322.135 1844.9 327.131 C 1844.16 320.825 1843.77 314.827 1843.34 308.5 C 1848.45 303.022 1855.94 292.969 1861.27 288.616 L 1864.45 290.018 C 1881.12 272.547 1899.22 250.942 1915 232.518 z" fill="rgb(6,136,152)" transform="translate(0,0)"></path>
<path d="M 1843.34 308.5 C 1848.45 303.022 1855.94 292.969 1861.27 288.616 L 1864.45 290.018 C 1859.74 295.83 1854.91 301.677 1850.27 307.529 C 1879.93 307.69 1913.6 308.471 1943.17 307.283 C 1943.15 308.892 1943.07 310.442 1943.24 312.041 C 1920.97 313.319 1897.64 311.914 1875.27 312.307 C 1866.26 312.466 1856.23 312.259 1847.25 311.616 L 1846.58 310.916 C 1844.86 315.454 1845.45 322.135 1844.9 327.131 C 1844.16 320.825 1843.77 314.827 1843.34 308.5 z" fill="rgb(182,97,68)" transform="translate(0,0)"></path>
<path d="M 1911.68 230.254 L 1915 232.518 C 1899.22 250.942 1881.12 272.547 1864.45 290.018 L 1861.27 288.616 C 1864.28 284.153 1874.33 273.047 1878.19 268.59 C 1889.22 255.702 1900.39 242.922 1911.68 230.254 z" fill="rgb(183,101,72)" transform="translate(0,0)"></path>
<path d="M 1633.17 666.691 C 1634.11 664.502 1634.12 664.359 1635.84 662.773 C 1652.13 675.779 1673.56 688.179 1688.09 700.095 C 1685.95 700.346 1683.82 700.585 1681.68 700.811 C 1665.52 689.906 1649.13 677.981 1633.17 666.691 z" fill="rgb(183,101,72)" transform="translate(0,0)"></path>
<path d="M 1681.68 700.811 C 1683.82 700.585 1685.95 700.346 1688.09 700.095 C 1696.3 705.938 1704.61 711.635 1713.02 717.182 C 1714.24 717.994 1714.34 717.974 1715.24 719.029 C 1718.07 720.735 1722.92 723.92 1725.27 726.165 C 1726.44 729.049 1727.54 729.882 1727.46 732.549 C 1723.44 730.302 1716.5 725.463 1712.78 722.557 C 1708.01 719.784 1686.67 704.52 1681.68 700.811 z" fill="rgb(182,97,68)" transform="translate(0,0)"></path>
<path d="M 1643.42 343.903 C 1645.23 347.593 1645.38 349.479 1646.06 353.554 C 1645.11 366.768 1642.85 382.4 1640.85 395.534 L 1637.5 392.267 L 1643.42 343.903 z" fill="rgb(182,97,68)" transform="translate(0,0)"></path>
<path d="M 1805.21 464.973 C 1806 469.713 1804.47 470.315 1805.79 473.394 C 1806.79 480.269 1807.03 484.969 1807.21 491.934 C 1806.86 492.031 1806.51 492.128 1806.15 492.225 C 1805.2 490.783 1806.52 487.16 1805.74 486.475 L 1805.52 486.529 C 1804.99 487.436 1805.69 490.103 1804.74 490.567 C 1804.24 490.403 1803.43 489.224 1803.06 488.778 C 1802.96 482.198 1801.57 473.188 1804.11 467.486 L 1805.21 464.973 z" fill="rgb(183,101,72)" transform="translate(0,0)"></path>
<path d="M 1982.36 346.213 L 1985.58 342.663 C 1986.8 348.8 1987.78 354.839 1988.81 361.014 L 1984.81 361.616 C 1984.15 356.498 1983.15 351.332 1982.36 346.213 z" fill="rgb(183,101,72)" transform="translate(0,0)"></path>
<path d="M 1314.48 371.281 C 1385.23 367.549 1367.7 425.662 1370.23 473.51 C 1370.32 486.468 1370.12 500.516 1370.17 513.372 C 1370.26 534.074 1368.57 563.722 1346.74 573.522 C 1341.7 575.782 1337.36 576.824 1331.91 577.953 C 1283.82 579.828 1274.79 553.847 1275.1 511.774 C 1275.35 479.15 1274.24 445.402 1275.96 412.804 C 1277.28 387.939 1290.02 375.353 1314.48 371.281 z" fill="rgb(254,254,254)" transform="translate(0,0)"></path>
<path d="M 1318.82 407.008 C 1332.96 407.055 1332.14 414.407 1332.21 426.409 L 1332.08 495.114 C 1332.03 506.791 1334.24 534.489 1326.62 542.212 C 1323.4 542.247 1319.23 542.434 1316.95 540.047 C 1313.25 535.083 1313.21 522.376 1313.19 516.528 C 1313.14 487.205 1313 457.86 1313.23 428.538 C 1313.29 420.169 1312.75 413.247 1318.82 407.008 z" fill="rgb(4,32,35)" transform="translate(0,0)"></path>
<path d="M 717.537 371.442 C 745.227 370.981 762.848 378.916 766.981 408.434 C 769.729 428.062 768.283 448.398 768.531 468.294 C 768.803 490.166 769.142 512.828 767.4 534.633 C 764.2 560.961 754.76 573.812 728.037 578.063 C 698.59 578.946 679.357 569.358 675.255 538.399 C 672.36 516.552 673.859 491.725 673.677 469.538 C 673.516 449.871 672.79 428.655 674.872 409.31 C 677.783 382.253 692.301 373.495 717.537 371.442 z" fill="rgb(254,254,254)" transform="translate(0,0)"></path>
<path d="M 717.797 406.829 C 727.125 407.053 730.081 410.069 730.256 419.688 C 730.949 457.678 730.793 496.038 729.583 534.006 C 729.508 536.368 726.36 540.212 724.882 542.003 C 717.335 542.426 712.479 540.338 712.174 532.043 C 710.795 494.551 711.993 456.835 711.742 419.303 C 711.697 412.561 713.064 411.226 717.797 406.829 z" fill="rgb(4,32,35)" transform="translate(0,0)"></path>
<path d="M 567.102 372.192 C 586.984 371.897 618.841 370.022 637.505 373.328 C 664.04 378.028 662.453 430.826 657.476 450.36 C 655.169 459.418 650.422 463.072 642.542 467.342 C 643.15 469.406 654.472 470.162 656.367 483.113 C 658.299 496.318 657.824 507.81 657.828 521.024 L 657.769 577.169 L 619.806 577.204 L 619.84 536.5 C 619.744 521.813 621.377 500.603 618.734 485.678 C 618.14 482.321 610.402 479.739 606.707 481.52 C 604.866 486.501 605.986 566.163 606.004 577.392 L 566.987 577.425 L 567.102 372.192 z" fill="rgb(254,254,254)" transform="translate(0,0)"></path>
<path d="M 606.019 408.926 C 625.838 408.77 622.345 411.891 622.963 431.001 C 623.085 434.759 621.423 439.619 620.289 443.154 C 617.586 445.278 606.62 448.364 606.427 445.505 C 605.636 433.779 606.031 420.8 606.019 408.926 z" fill="rgb(4,32,35)" transform="translate(0,0)"></path>
<path d="M 1219.2 371.945 L 1257.72 371.992 L 1257.69 577.705 L 1233.76 577.391 L 1219.09 577.332 L 1219.14 480.788 L 1201.19 480.501 L 1201.34 577.275 L 1163.01 577.391 L 1163.1 372.013 L 1201.29 372.087 C 1201.33 396.064 1201.19 420.041 1200.88 444.016 L 1219.21 443.572 L 1219.2 371.945 z" fill="rgb(254,254,254)" transform="translate(0,0)"></path>
<path d="M 895.101 371.861 L 933.648 372.03 C 935.205 386.887 932.314 438.301 935.01 447.486 C 939.132 428.377 948.306 389.833 950.529 371.961 L 989.171 371.987 C 983.526 402.853 974.941 434.799 970.155 465.785 C 968.78 474.685 976.016 494.724 977.025 504.09 C 981.916 528.289 988.232 552.92 992.916 577.139 L 954.03 577.273 L 935.591 486.017 C 932.592 491.476 935.169 506.92 933.849 514.655 L 933.876 577.157 L 894.93 577.42 L 895.101 371.861 z" fill="rgb(254,254,254)" transform="translate(0,0)"></path>
<path d="M 933.648 372.03 C 935.205 386.887 932.314 438.301 935.01 447.486 C 935.326 450.17 934.769 452.303 933.562 454.654 C 932.005 450.041 933.012 380.525 933.648 372.03 z" fill="rgb(195,201,204)" transform="translate(0,0)"></path>
<path d="M 933.849 514.655 C 933.114 512.289 932.918 478.888 933.622 478.396 L 933.907 478.49 C 935.141 480.398 935.277 483.67 935.591 486.017 C 932.592 491.476 935.169 506.92 933.849 514.655 z" fill="rgb(118,121,126)" transform="translate(0,0)"></path>
<path d="M 823.164 371.168 C 825.793 370.973 828.428 370.863 831.065 370.84 C 887.447 370.867 879.666 415.1 879.332 455.002 L 841.41 455.035 C 841.297 443.108 844.396 415.44 836.331 407.805 C 834.248 407.05 833.208 406.462 830.976 406.948 C 828.422 407.505 826.433 409.573 825.192 411.789 C 821.756 417.924 821.822 528.927 824.637 536.949 C 825.42 539.18 826.635 540.912 828.876 541.834 C 831.025 542.719 833.946 542.799 836.064 541.795 C 848.088 536.101 838.223 500.847 842.642 489.874 L 844.822 489.147 L 880.349 489.238 C 880.359 509.372 882.976 541.405 873.739 558.907 C 860.151 584.649 811.358 584.061 794.933 560.965 C 784.243 545.934 785.738 529.41 785.787 511.951 C 786.366 494.131 785.38 476.157 785.85 458.364 C 786.797 422.533 777.943 381.194 823.164 371.168 z" fill="rgb(254,254,254)" transform="translate(0,0)"></path>
<path d="M 1388.88 371.867 C 1445.59 371.467 1484.3 361.757 1483.39 436.846 C 1482.85 481.409 1471.51 494.966 1427 494.727 L 1427.02 520.5 L 1427.02 577.339 L 1388.72 577.397 L 1388.88 371.867 z" fill="rgb(254,254,254)" transform="translate(0,0)"></path>
<path d="M 1427.05 407.814 C 1429.18 407.821 1434.56 407.751 1436.24 408.635 C 1449.69 415.733 1445.84 444.796 1441.18 454.934 C 1437.62 457.963 1431.48 461.62 1427.44 457.746 C 1426.1 448.854 1426.96 418.337 1427.05 407.814 z" fill="rgb(4,32,35)" transform="translate(0,0)"></path>
<path d="M 1089.79 371.292 C 1137.37 367.156 1144.39 390.152 1146.81 430.67 L 1107.12 430.747 C 1107.29 422.634 1108.85 409.694 1098.97 406.569 C 1093.67 407.509 1090.16 411.809 1090.45 416.991 C 1091.52 435.432 1115.79 452.412 1127.59 465.471 C 1145.02 484.764 1149.68 501.216 1148.02 526.892 C 1146.25 559.186 1134.67 580.9 1098.18 578.636 C 1049.63 574.397 1054.23 537.628 1054.26 499.983 L 1091.92 499.899 C 1091.71 510.972 1089.34 533.713 1096.5 541.954 C 1108.39 547.605 1110.43 532.497 1110.17 524.439 C 1109.68 486.002 1059.33 471.709 1054.41 434.125 C 1050.69 405.738 1057.38 376.565 1089.79 371.292 z" fill="rgb(254,254,254)" transform="translate(0,0)"></path>
<path d="M 858.909 633.852 C 860.309 629.551 861.523 623.765 863.511 619.829 C 863.831 619.196 864.291 618.788 865.002 618.651 C 866.197 618.42 870.024 618.303 870.958 619.255 C 871.935 620.251 875.289 642.448 875.06 644.335 C 874.744 644.711 874.515 644.828 874.031 644.96 C 873.007 645.241 869.819 645.533 868.961 644.825 C 867.458 643.584 867.467 635.408 867.179 633.235 C 867.112 632.914 867.037 632.594 866.976 632.271 C 866.861 631.652 866.912 631.132 866.387 630.725 C 864.25 630.912 862.939 643.298 859.887 645.008 C 859.19 645.398 858.283 645.477 857.527 645.215 C 854.749 644.254 851.993 632.631 850.822 629.608 C 850.254 633.758 849.593 637.981 849.153 642.137 C 849.075 642.882 848.985 643.678 848.522 644.301 C 847.94 645.085 847.012 645.293 846.086 645.326 C 845.159 645.359 843.296 645.323 842.678 644.535 C 841.756 643.357 846.107 621.521 846.479 618.393 C 848.242 618.558 850.827 618.342 852.431 619.081 C 854.966 620.249 856.652 628.686 857.871 631.464 C 858.221 632.26 858.573 633.05 858.909 633.852 z" fill="rgb(142,206,204)" transform="translate(0,0)"></path>
<path d="M 1293.05 618.038 C 1296.41 618.072 1299.72 617.833 1302.85 619.313 C 1304.52 620.099 1307.33 622.035 1307.78 623.997 C 1307.9 624.559 1307.83 625.297 1307.43 625.749 C 1306.6 626.703 1304.79 627.792 1303.5 627.807 C 1301.98 627.825 1300.76 626.169 1299.74 625.274 C 1298.7 624.348 1297.44 624.041 1296.07 624.253 C 1293.97 624.579 1292.09 625.716 1290.95 627.514 C 1289.53 629.745 1289.39 633.018 1290.06 635.503 C 1290.59 637.457 1292.23 639.101 1293.99 640.004 C 1295.69 640.874 1297.23 640.82 1298.99 640.114 C 1300.18 639.636 1301.54 638.724 1302.06 637.525 C 1301.61 634.979 1297.9 636.762 1296.56 635.106 C 1295.74 634.082 1296.15 632.177 1296.28 630.994 C 1297.93 630.988 1308.55 630.351 1309.36 631.44 C 1310.09 632.42 1310.23 633.292 1310.02 634.483 C 1309.37 638.224 1307.22 642.043 1303.99 644.107 C 1300.6 646.268 1295.42 646.753 1291.6 645.657 C 1288.15 644.668 1285.42 642.07 1283.81 638.93 C 1281.92 635.245 1281.33 631.408 1282.77 627.447 C 1284.65 622.299 1288.3 620.111 1293.05 618.038 z" fill="rgb(142,206,204)" transform="translate(0,0)"></path>
<path d="M 1384.52 614.942 C 1385.18 615.066 1385.84 615.212 1386.5 615.311 C 1387.18 615.411 1387.86 615.478 1388.52 615.621 C 1389.08 615.741 1390.19 616.03 1390.43 616.616 C 1391.36 618.862 1390.97 642.327 1390.1 644.496 C 1389.78 645.277 1389.32 645.567 1388.53 645.802 C 1387.33 646.155 1386.39 645.836 1385.36 645.237 C 1383.37 644.086 1378.1 646.062 1375.17 646.048 C 1373.38 644.412 1371.43 642.995 1370.42 640.704 C 1369.18 637.888 1369.21 634.475 1370.44 631.67 C 1374.68 622.031 1381.25 628.586 1384.25 627.45 C 1385.44 625.258 1384.51 617.751 1384.52 614.942 z" fill="rgb(142,206,204)" transform="translate(0,0)"></path>
<path d="M 1378.26 632.542 C 1380.19 631.203 1382.83 631.661 1384.2 633.571 C 1385.56 635.481 1385.14 638.134 1383.24 639.523 C 1382 640.438 1380.36 640.611 1378.95 639.977 C 1377.54 639.343 1376.58 638 1376.43 636.461 C 1376.29 634.921 1376.99 633.425 1378.26 632.542 z" fill="rgb(4,32,35)" transform="translate(0,0)"></path>
<path d="M 732.22 625.776 C 734.125 626.221 737.692 628.098 739.386 627.814 C 740.854 627.568 741.864 626.821 743.464 626.858 C 744.111 626.873 745.217 627.07 745.61 627.669 C 746.923 629.668 746.544 641.325 745.951 644.015 C 745.828 644.572 745.727 645.041 745.176 645.307 C 743.368 646.181 740.731 645.246 738.918 644.771 C 736.852 644.716 735.173 646.12 733.024 645.955 C 730.694 645.775 728.269 644.41 726.824 642.587 C 724.971 640.247 724.57 636.86 725.042 633.981 C 725.739 629.726 729 627.984 732.22 625.776 z" fill="rgb(142,206,204)" transform="translate(0,0)"></path>
<path d="M 733.503 632.526 C 735.434 631.365 737.937 631.924 739.19 633.797 C 740.443 635.671 740.005 638.198 738.195 639.54 C 736.943 640.468 735.282 640.631 733.874 639.966 C 732.465 639.3 731.537 637.913 731.46 636.357 C 731.382 634.801 732.167 633.328 733.503 632.526 z" fill="rgb(4,32,35)" transform="translate(0,0)"></path>
<path d="M 974.311 625.705 C 979.084 626.843 979.78 627.027 984.468 626.856 C 985.23 626.828 986.586 626.899 987.109 627.558 C 988.523 629.344 988.031 641.033 987.609 643.517 C 987.5 644.156 987.258 645.174 986.664 645.537 C 985.337 646.347 982.117 645.464 980.668 645.205 C 979.109 644.169 976.525 646.116 974.528 645.986 C 972.266 645.838 969.946 644.118 968.586 642.389 C 966.803 640.123 966.513 636.73 967.015 633.98 C 967.788 629.743 971.079 627.934 974.311 625.705 z" fill="rgb(142,206,204)" transform="translate(0,0)"></path>
<path d="M 975.689 632.469 C 977.67 631.506 980.058 632.292 981.08 634.242 C 982.102 636.193 981.39 638.604 979.47 639.684 C 978.176 640.413 976.588 640.38 975.326 639.598 C 974.063 638.816 973.326 637.41 973.401 635.927 C 973.477 634.443 974.353 633.119 975.689 632.469 z" fill="rgb(4,32,35)" transform="translate(0,0)"></path>
<path d="M 1350 625.855 C 1351.5 625.931 1353.02 625.936 1354.51 626.111 C 1357.57 626.472 1360.46 628.445 1362.2 630.955 C 1363.7 633.127 1364.42 635.89 1363.85 638.499 C 1363.2 641.42 1361.13 643.539 1358.6 644.976 C 1357.87 645.392 1357.11 645.773 1356.36 646.175 C 1354.44 646.106 1352.4 646.221 1350.5 645.91 C 1347.75 645.459 1344.91 643.739 1343.4 641.384 C 1341.87 639.058 1341.41 636.188 1342.14 633.502 C 1343.19 629.72 1346.84 627.676 1350 625.855 z" fill="rgb(142,206,204)" transform="translate(0,0)"></path>
<path d="M 1352.19 631.735 C 1354.52 631.281 1356.8 632.72 1357.4 635.019 C 1357.99 637.318 1356.69 639.682 1354.44 640.416 C 1352.85 640.933 1351.1 640.525 1349.91 639.358 C 1348.71 638.19 1348.26 636.457 1348.74 634.856 C 1349.22 633.256 1350.55 632.054 1352.19 631.735 z" fill="rgb(4,32,35)" transform="translate(0,0)"></path>
<path d="M 1113.22 626.094 C 1118.64 624.294 1124.51 627.146 1126.44 632.519 C 1128.37 637.893 1125.66 643.826 1120.34 645.888 C 1116.78 647.267 1112.75 646.607 1109.81 644.164 C 1106.87 641.721 1105.49 637.878 1106.2 634.125 C 1106.91 630.372 1109.6 627.298 1113.22 626.094 z" fill="rgb(142,206,204)" transform="translate(0,0)"></path>
<path d="M 1113.76 632.547 C 1115.12 631.508 1116.96 631.333 1118.5 632.094 C 1120.04 632.856 1121.01 634.423 1121.01 636.14 C 1121.01 637.856 1120.04 639.426 1118.51 640.192 C 1116.42 641.232 1113.88 640.513 1112.65 638.532 C 1111.42 636.551 1111.9 633.958 1113.76 632.547 z" fill="rgb(4,32,35)" transform="translate(0,0)"></path>
<path d="M 1416.21 639.022 C 1415.36 656.567 1385.09 638.394 1401.95 627.766 C 1404.2 626.343 1406.93 625.878 1409.53 626.477 C 1414.39 627.584 1418.15 630.933 1416.78 636.191 L 1416.61 636.81 C 1416.35 637.536 1416.3 638.255 1416.21 639.022 z" fill="rgb(142,206,204)" transform="translate(0,0)"></path>
<path d="M 1416.21 639.022 C 1409.73 639.298 1412.68 640.308 1408.97 641.632 C 1408.17 641.929 1407.27 641.877 1406.51 641.489 C 1396.43 636.357 1415.79 636.86 1416.61 636.81 C 1416.35 637.536 1416.3 638.255 1416.21 639.022 z" fill="rgb(7,36,35)" transform="translate(0,0)"></path>
<path d="M 1404.16 631.245 C 1405.66 631.059 1408.59 630.216 1409.89 631.276 C 1410.59 631.852 1410.43 632.716 1410.42 633.526 C 1409.65 633.512 1408.86 633.465 1408.1 633.517 C 1407.12 633.584 1406.08 633.817 1405.19 633.246 C 1404.47 632.791 1404.39 632 1404.16 631.245 z" fill="rgb(4,32,35)" transform="translate(0,0)"></path>
<path d="M 625.28 618.129 C 627.9 617.858 632.398 616.885 634.748 618.382 C 635.553 618.894 636.017 619.528 636.221 620.469 C 636.507 621.787 636.5 624.27 635.712 625.404 C 635.578 625.596 632.008 623.646 630.033 623.896 C 628.024 624.151 626.364 625.545 625.201 627.129 C 623.961 628.817 623.145 631.153 623.55 633.256 C 623.994 635.517 625.387 637.479 627.375 638.643 C 630.585 640.549 633.462 639.161 636.7 638.246 C 636.836 639.108 636.936 639.92 636.975 640.79 C 637.039 642.23 637.216 644.026 636.092 645.133 C 634.51 646.69 629.513 646.15 627.481 645.971 C 624.221 645.684 621.199 643.286 619.336 640.706 C 616.909 637.345 616.077 633.579 616.829 629.481 C 617.791 624.238 621.221 621.129 625.28 618.129 z" fill="rgb(142,206,204)" transform="translate(0,0)"></path>
<path d="M 663.323 625.291 C 663.629 625.403 663.933 625.52 664.24 625.628 C 668.936 627.287 669.97 632.354 672.015 636.483 C 673.42 634.083 675.41 628.036 677.588 626.807 C 678.612 626.23 681.481 626.382 682.479 626.832 C 683.017 627.075 682.924 627.08 683.178 627.562 C 682.751 632.042 676.52 641.428 674.339 645.757 C 673.219 648.047 671.636 653.108 669.485 654.404 C 668.375 655.073 665.605 655.271 664.434 654.736 C 664.071 654.57 663.803 654.271 663.664 653.9 C 662.992 652.107 667.922 644.484 668.926 642.587 C 667.439 639.85 661.068 630.66 661.402 628.017 C 661.573 626.666 662.369 626.188 663.323 625.291 z" fill="rgb(142,206,204)" transform="translate(0,0)"></path>
<path d="M 930.09 625.948 C 931.531 626.05 932.999 626.101 934.418 626.383 C 938.688 627.232 939.697 629.626 941.87 632.984 C 942.355 633.733 942.731 634.298 942.563 635.249 C 941.973 638.6 931.87 635.981 929.514 637.919 C 929.119 638.244 928.89 638.57 928.964 639.116 C 929.007 639.434 929.301 639.789 929.525 640.007 C 931.794 642.22 938.248 640.054 941.406 640.031 C 941.499 640.5 941.72 641.219 941.651 641.719 C 941.529 642.607 940.675 643.328 939.968 643.789 C 937.204 645.593 932.741 646.474 929.523 645.734 C 927.107 645.179 924.73 643.814 923.436 641.639 C 922.073 639.348 921.417 636.586 922.178 633.971 C 923.391 629.8 926.654 628.025 930.09 625.948 z" fill="rgb(142,206,204)" transform="translate(0,0)"></path>
<path d="M 930.987 631.772 C 931.651 631.464 932.36 631.065 933.095 630.972 C 933.662 630.901 934.227 630.946 934.683 631.325 C 935.366 631.892 935.382 632.808 935.48 633.621 C 934.227 633.602 931.428 634.063 930.311 633.622 C 930.175 633.568 929.915 633.451 929.905 633.253 C 929.897 633.088 929.993 632.918 930.084 632.793 C 930.161 632.689 930.26 632.603 930.346 632.506 L 930.987 631.772 z" fill="rgb(4,32,35)" transform="translate(0,0)"></path>
<path d="M 1323 625.877 C 1325.88 626.114 1328.58 626.126 1331.12 627.76 C 1333.37 629.211 1335.57 632.341 1335.81 635.084 C 1335.86 635.703 1335.77 636.31 1335.29 636.746 C 1333.66 638.225 1327.62 637.175 1325.48 637.145 C 1324.54 637.133 1323.38 637.106 1322.76 637.953 C 1322.51 638.293 1322.5 638.657 1322.66 639.033 C 1323.03 639.922 1324.06 640.914 1324.93 641.325 C 1326.34 641.994 1327.67 641.609 1329.03 641.028 C 1330.26 640.504 1331.46 639.966 1332.71 639.487 C 1333.48 640.246 1334.45 640.88 1334.55 642.02 C 1334.61 642.769 1334.01 643.425 1333.5 643.882 C 1331.23 645.905 1327.38 646.282 1324.51 645.941 C 1321.79 645.618 1319.37 644.457 1317.69 642.255 C 1315.93 639.96 1315.51 636.779 1316.04 633.989 C 1316.85 629.791 1319.76 628.102 1323 625.877 z" fill="rgb(142,206,204)" transform="translate(0,0)"></path>
<path d="M 1324.54 629.661 C 1325.85 630.137 1327.82 630.515 1328.45 631.903 C 1328.79 632.655 1328.36 633.562 1328.14 634.278 C 1327.38 634.137 1326.61 633.973 1325.84 633.883 C 1325.16 633.802 1324.35 633.795 1323.73 633.444 C 1323.38 633.243 1323.19 632.986 1323.15 632.57 C 1323.07 631.572 1324.05 630.432 1324.54 629.661 z" fill="rgb(4,32,35)" transform="translate(0,0)"></path>
<path d="M 1085.13 618.679 C 1086.73 618.613 1088.33 618.567 1089.92 618.542 C 1091.78 618.517 1098.45 617.936 1099.62 619.34 C 1100.18 620.018 1100.26 621.84 1100.13 622.671 C 1099.56 626.448 1094.26 623.244 1092.12 624.91 C 1091.65 625.275 1091.39 625.702 1091.38 626.321 C 1091.38 627.039 1091.99 628.309 1092.6 628.737 C 1093.33 629.25 1094.15 629.214 1094.99 629.126 C 1095.52 629.072 1096.04 629.01 1096.57 628.978 C 1097.47 628.924 1098.59 629.003 1099.23 629.713 C 1100.17 630.74 1099.84 632.738 1099.82 633.995 C 1097.95 634.128 1094.25 633.798 1092.62 634.504 C 1090.75 635.31 1092.26 641.951 1091.36 643.876 C 1091.04 644.551 1090.47 645.11 1089.71 645.255 C 1088.85 645.419 1086.69 644.957 1086.01 644.395 C 1084.12 642.84 1085.15 622.478 1085.13 618.679 z" fill="rgb(142,206,204)" transform="translate(0,0)"></path>
<path d="M 908.332 625.793 C 910.74 626.867 913.825 627.798 914.854 630.561 C 915.694 632.82 916.261 642.329 915.091 644.416 C 914.869 644.813 914.464 644.979 914.044 645.088 C 912.948 645.373 910.543 645.525 909.643 644.719 C 908.202 643.429 909.152 636.955 909.089 634.912 C 909.057 633.886 908.853 632.845 907.969 632.206 C 906.65 631.252 904.383 631.783 902.911 631.939 C 902.264 635.838 902.865 639.768 902.275 643.523 C 902.186 644.089 901.984 644.612 901.457 644.902 C 900.582 645.385 899.31 645.374 898.365 645.127 C 897.539 644.911 896.917 644.414 896.586 643.618 C 895.748 641.605 895.896 629.653 896.804 627.963 C 897.115 627.386 897.839 626.987 898.46 626.878 C 900.474 626.526 901.205 627.846 902.791 628.522 C 903.647 628.887 907.405 626.282 908.332 625.793 z" fill="rgb(142,206,204)" transform="translate(0,0)"></path>
<path d="M 1426.61 637.259 C 1416.25 622.391 1446.32 624.973 1435.72 630.339 L 1436.06 630.763 C 1437.68 632.584 1438.29 632.762 1436.06 634.041 C 1446.32 644.015 1428.45 648.503 1425.05 644.294 C 1424.68 643.817 1424.53 643.197 1424.66 642.603 C 1424.76 642.109 1425.56 640.836 1425.85 640.318 C 1426.09 639.458 1426.51 638.125 1426.61 637.259 z" fill="rgb(142,206,204)" transform="translate(0,0)"></path>
<path d="M 1426.61 637.259 C 1435.92 639.099 1433.41 642.065 1425.85 640.318 C 1426.09 639.458 1426.51 638.125 1426.61 637.259 z" fill="rgb(7,36,35)" transform="translate(0,0)"></path>
<path d="M 1436.06 634.041 C 1430.09 632.632 1428.7 630.443 1435.72 630.339 L 1436.06 630.763 C 1437.68 632.584 1438.29 632.762 1436.06 634.041 z" fill="rgb(7,36,35)" transform="translate(0,0)"></path>
<path d="M 1010.03 636.796 C 1009.59 632.358 1009.05 632.452 1011.49 628.491 C 1014.01 624.371 1025.76 625.558 1021.74 630.309 C 1020.67 631.57 1017 630.174 1016.2 631.753 C 1016.35 634.146 1020.13 633.692 1021.96 635.206 C 1026.36 638.862 1023.29 644.576 1018.49 645.84 C 1014.68 646.846 1005.64 646.407 1010.56 640.342 L 1010.03 636.796 z" fill="rgb(142,206,204)" transform="translate(0,0)"></path>
<path d="M 1010.03 636.796 C 1017.64 639.313 1021.29 642.88 1010.56 640.342 L 1010.03 636.796 z" fill="rgb(7,36,35)" transform="translate(0,0)"></path>
<path d="M 697.357 632.66 C 701.973 635.156 706.414 638.241 701.729 643.773 C 699.125 646.848 687.158 647.222 688.504 642.417 C 689.757 637.949 694.682 642.621 696.468 640.273 C 697.478 638.947 689.216 636.288 689.257 634.428 C 687.3 626.617 700.402 621.907 703.513 631.165 C 701.439 631.8 699.47 632.196 697.357 632.66 z" fill="rgb(142,206,204)" transform="translate(0,0)"></path>
<path d="M 697.357 632.66 C 696.328 632.55 696.282 632.643 695.522 632.11 L 695.486 631.679 C 697.021 630.228 701.463 631.035 703.513 631.165 C 701.439 631.8 699.47 632.196 697.357 632.66 z" fill="rgb(7,36,35)" transform="translate(0,0)"></path>
<path d="M 1165.36 633.242 C 1172.54 637.862 1172.38 643.254 1164 645.836 C 1158.38 647.571 1150.27 642.25 1158.15 640.573 C 1158.61 640.475 1162.45 642.348 1163.5 640.33 C 1163.33 638.371 1148.46 633.775 1160.03 626.835 C 1162.55 625.325 1171.09 624.639 1168.22 630.029 C 1167.25 631.087 1166.3 632.158 1165.36 633.242 z" fill="rgb(142,206,204)" transform="translate(0,0)"></path>
<path d="M 1165.36 633.242 C 1164.28 633.027 1163.14 632.926 1162.57 631.868 L 1162.66 631.621 C 1163.7 630.78 1166.75 630.39 1168.22 630.029 C 1167.25 631.087 1166.3 632.158 1165.36 633.242 z" fill="rgb(7,36,35)" transform="translate(0,0)"></path>
<path d="M 780.751 634.925 C 788.879 644.702 771.796 648.764 768.373 644.365 C 763.598 638.227 775.634 642.375 776.34 639.559 C 775.262 637.595 761.53 635.892 771.567 627.116 C 774.789 624.3 785.682 628.527 779.699 629.876 L 779.099 630.008 C 780.894 632.177 780.552 632.071 780.751 634.925 z" fill="rgb(142,206,204)" transform="translate(0,0)"></path>
<path d="M 780.751 634.925 C 775.949 633.163 772.028 632.484 779.099 630.008 C 780.894 632.177 780.552 632.071 780.751 634.925 z" fill="rgb(7,36,35)" transform="translate(0,0)"></path>
<path d="M 1210.93 625.872 C 1213.17 626.058 1215.34 626.037 1217.43 626.992 C 1218.31 627.394 1218.81 627.752 1219.11 628.687 C 1218.98 629.106 1218.9 629.375 1218.6 629.696 C 1217.73 630.617 1216.8 631.089 1215.5 631.051 C 1214.44 631.02 1212.78 630.88 1211.96 631.792 C 1211.79 631.987 1211.82 632.088 1211.81 632.335 C 1212.64 632.958 1213.55 633.449 1214.54 633.762 C 1215.62 634.101 1216.56 634.347 1217.53 634.943 C 1218.8 635.729 1219.82 636.844 1220.07 638.355 C 1220.12 638.642 1220.15 638.932 1220.19 639.22 C 1220.36 640.311 1220.42 641.04 1219.76 641.993 C 1217.48 645.239 1213.98 645.819 1210.4 646.567 C 1208.93 646.014 1205.63 645.505 1204.81 644.085 C 1204.46 643.476 1204.55 642.708 1204.83 642.085 C 1206.53 638.203 1210.45 642.514 1212.9 640.81 C 1213.33 640.514 1213.45 640.064 1213.47 639.573 C 1213.49 638.876 1207.2 636.778 1206.01 635.496 C 1205.25 634.669 1204.85 633.613 1205.02 632.486 C 1205.5 629.261 1208.54 627.583 1210.93 625.872 z" fill="rgb(142,206,204)" transform="translate(0,0)"></path>
<path d="M 1139.86 625.978 C 1141.87 626.011 1146.05 625.631 1147.62 626.907 C 1147.91 627.145 1148.04 627.321 1148.06 627.705 C 1148.07 628.164 1147.74 628.8 1147.46 629.154 C 1146.73 630.1 1145.74 630.623 1144.54 630.719 C 1143.28 630.82 1142.26 630.842 1141.36 631.857 C 1141.27 632.567 1147.94 635.163 1149.05 636.984 C 1149.73 638.09 1150.2 639.192 1149.78 640.481 C 1148.82 643.408 1146.03 644.841 1143.5 646.133 C 1141.39 646.035 1139.07 646.191 1137.02 645.675 C 1136 645.42 1134.66 644.869 1134.18 643.849 C 1133.94 643.324 1133.92 642.651 1134.15 642.118 C 1135.16 639.782 1139.88 641.743 1141.77 640.652 C 1142.17 640.422 1142.5 640.015 1142.59 639.56 C 1141.84 637.86 1137.26 637.002 1135.69 635.312 C 1134.88 634.44 1134.38 633.201 1134.53 632.004 C 1134.87 629.309 1137.91 627.524 1139.86 625.978 z" fill="rgb(142,206,204)" transform="translate(0,0)"></path>
<path d="M 755.736 614.79 C 756.201 614.928 756.663 615.077 757.132 615.198 C 758.111 615.452 759.613 615.581 760.12 616.623 C 761.581 619.63 760.595 643.52 758.901 646.633 C 757.658 646.179 756.065 645.844 754.965 645.119 C 754.341 644.708 754.213 644.285 754.109 643.568 C 753.325 638.13 752.729 618.766 755.736 614.79 z" fill="rgb(142,206,204)" transform="translate(0,0)"></path>
<path d="M 1191.41 615.276 C 1192.29 615.41 1193.16 615.553 1194.03 615.65 C 1195.11 615.769 1196.48 615.838 1197.34 616.574 C 1198.94 617.943 1197.82 642.351 1197.8 645.958 C 1196.34 645.679 1192.78 645.545 1191.81 644.331 C 1190.39 642.538 1191.35 619.421 1191.41 615.276 z" fill="rgb(142,206,204)" transform="translate(0,0)"></path>
<path d="M 997.534 614.477 C 998.665 614.908 1000.09 615.233 1001.04 616.006 C 1001.56 616.429 1001.65 616.742 1001.74 617.393 C 1002.19 620.871 1002.77 643.357 1001.11 645.329 C 1000.64 645.882 1000.13 646.415 999.658 646.963 C 998.765 646.564 997.74 646.235 996.905 645.729 C 996.22 645.312 995.808 644.733 995.637 643.944 C 994.424 638.358 994.466 618.996 997.534 614.477 z" fill="rgb(142,206,204)" transform="translate(0,0)"></path>
<path d="M 712.459 621.902 C 713.464 621.855 715.836 621.491 716.607 622.347 C 716.997 622.781 717.036 623.443 717.042 623.994 C 717.05 624.648 716.966 625.378 717.19 626.015 C 717.399 626.608 717.925 626.918 718.475 627.144 C 718.816 627.284 719.259 627.356 719.529 627.637 C 720.065 628.194 720.076 629.388 719.996 630.108 C 719.909 630.878 719.639 631.371 718.983 631.792 C 718.533 632.081 718.063 632.261 717.701 632.657 C 716.131 634.379 717.011 642.837 716.997 645.442 C 716.193 645.362 715.396 645.283 714.589 645.251 C 713.725 645.216 712.796 645.232 711.958 644.987 C 710.064 644.433 710.963 636.775 710.874 634.971 C 710.734 632.102 708.678 633.022 707.973 631.149 C 707.187 629.063 711.42 624.243 712.459 621.902 z" fill="rgb(142,206,204)" transform="translate(0,0)"></path>
<path d="M 655.514 625.741 C 656.26 626.938 656.99 628.173 657.097 629.621 C 657.42 633.967 652.131 631.703 650.566 634.141 C 648.754 636.966 651.386 642.643 649.325 644.722 C 648.185 645.87 644.943 645.638 643.412 645.748 C 643.336 642.751 642.242 629.66 643.936 627.631 C 644.531 626.917 645.55 626.763 646.423 626.739 C 648.844 626.671 648.544 627.669 650.032 629.008 C 651.075 629.212 654.4 626.412 655.514 625.741 z" fill="rgb(142,206,204)" transform="translate(0,0)"></path>
<path d="M 960.203 626.112 C 960.954 626.548 961.507 626.722 961.805 627.558 C 962.236 628.768 962.602 629.943 961.921 631.142 C 961.593 631.719 961.074 632.021 960.44 632.182 C 959.607 632.393 958.804 632.481 958.003 632.813 C 953.157 634.821 956.651 641.035 955.01 644.47 C 954.383 645.783 951.477 646.147 950.188 646.514 L 949.979 646.022 C 948.722 643.041 947.987 630.457 949.366 627.614 C 949.53 627.275 950.181 627.075 950.491 626.963 C 951.346 626.654 952.175 626.599 952.983 627.076 C 953.733 627.518 954.46 628.119 955.335 628.314 C 956.662 628.608 959.067 626.718 960.203 626.112 z" fill="rgb(142,206,204)" transform="translate(0,0)"></path>
<path d="M 1247.95 628.238 C 1251.09 626.952 1254.68 628.39 1256.05 631.484 C 1257.43 634.578 1256.1 638.207 1253.05 639.677 C 1250.99 640.667 1248.56 640.46 1246.7 639.138 C 1244.84 637.815 1243.85 635.586 1244.11 633.318 C 1244.37 631.051 1245.84 629.105 1247.95 628.238 z" fill="rgb(142,206,204)" transform="translate(0,0)"></path>
<path d="M 1177.06 626.597 C 1178.58 626.744 1182.04 626.502 1183.17 627.604 C 1184.61 629.006 1183.61 642.436 1183.58 645.237 C 1181.81 645.356 1179.03 645.983 1177.55 644.79 C 1176.34 643.818 1177.06 628.921 1177.06 626.597 z" fill="rgb(142,206,204)" transform="translate(0,0)"></path>
<path d="M 1050.82 628.696 C 1052.77 627.636 1055.15 627.721 1057.02 628.918 C 1058.89 630.114 1059.96 632.233 1059.81 634.448 C 1059.67 636.663 1058.33 638.625 1056.32 639.568 C 1053.34 640.969 1049.78 639.743 1048.29 636.802 C 1046.8 633.86 1047.93 630.269 1050.82 628.696 z" fill="rgb(142,206,204)" transform="translate(0,0)"></path>
<path d="M 883.135 626.671 C 884.241 626.816 885.388 626.866 886.484 627.055 C 887.162 627.173 888.048 627.384 888.435 628.022 C 890.086 630.74 888.789 642.935 887.999 646.13 C 887.044 645.873 886.085 645.649 885.127 645.406 C 884.359 645.211 883.075 644.911 882.711 644.102 C 881.375 641.133 882.194 629.641 883.135 626.671 z" fill="rgb(142,206,204)" transform="translate(0,0)"></path>
<path d="M 809.843 628.667 C 811.774 627.636 814.118 627.755 815.935 628.977 C 817.752 630.199 818.746 632.325 818.519 634.503 C 818.292 636.681 816.881 638.556 814.851 639.377 C 811.933 640.556 808.602 639.247 807.269 636.396 C 805.936 633.545 807.067 630.15 809.843 628.667 z" fill="rgb(142,206,204)" transform="translate(0,0)"></path>
<path d="M 882.943 617.452 C 884.017 616.552 885.5 616.322 886.795 616.854 C 888.091 617.386 888.984 618.592 889.116 619.986 C 889.248 621.38 888.596 622.732 887.423 623.497 C 885.753 624.587 883.523 624.186 882.336 622.584 C 881.148 620.982 881.415 618.732 882.943 617.452 z" fill="rgb(142,206,204)" transform="translate(0,0)"></path>
<path d="M 1177.74 617.541 C 1178.71 616.64 1180.1 616.342 1181.35 616.762 C 1182.6 617.183 1183.53 618.256 1183.76 619.559 C 1183.99 620.861 1183.49 622.186 1182.45 623.011 C 1180.94 624.221 1178.73 624.014 1177.47 622.543 C 1176.2 621.072 1176.32 618.863 1177.74 617.541 z" fill="rgb(142,206,204)" transform="translate(0,0)"></path>
<metadata><recraft-signature>{"signed_by": "recraft", "signature_b64": "rHm+o2OTQDUTJvIATNjhb0ZMhbqqq60QzGRtF1i8VehOOWk6Ls1M9RnEJ0cojBS3L2dku/jA/3utO6LtSMg2DA==", "signing_algo": "Ed25519", "generation_timestamp": 1780247362, "identifier": "8f6cfa73-b589-4a8d-b4e1-be30c91f5d47"}</recraft-signature></metadata></svg>