<svg xmlns="http://www.w3.org/2000/svg" height="768" preserveAspectRatio="none" style="display: block;" version="1.1" viewBox="0 0 2048 1024" width="1536">
<path d="M 0 0 L 2048 0 L 2048 226.136 L 2048 270.619 L 2048 274.89 L 2048 286.797 L 2048 295.011 L 2048 344.69 L 2048 356.437 L 2048 365.358 L 2048 376.514 L 2048 432.514 L 2048 534.249 L 2048 541.032 L 2048 607.431 L 2048 615.086 L 2048 642.125 L 2048 644.314 L 2048 689.99 L 2048 696.297 L 2048 787.142 L 2048 798.523 L 2048 1024 L 0 1024 L 0 798.394 L 0 722.251 L 0 711.964 L 0 674.275 L 0 645.4 L 0 601.475 L 0 556.059 L 0 482.57 L 0 458.924 L 0 427.567 L 0 417.77 L 0 401.323 L 0 399.627 L 0 384.092 L 0 362.478 L 0 352.832 L 0 226.057 L 0 0 z" fill="rgb(52,11,56)" transform="translate(0,0)"></path>
<path d="M 0 0 L 2048 0 L 2048 226.136 C 2000.46 226.908 1951.61 225.89 1903.95 225.909 L 1545.47 225.676 L 0 226.057 L 0 0 z" fill="rgb(43,31,43)" transform="translate(0,0)"></path>
<path d="M 0 798.394 L 2048 798.523 L 2048 1024 L 0 1024 L 0 798.394 z" fill="rgb(43,31,43)" transform="translate(0,0)"></path>
<path d="M 1982.64 243.031 C 1992.93 247.938 1999.83 251.341 2010.73 254.898 C 2018.55 257.452 2037.15 261.502 2043.46 264.644 L 2043.9 266.127 L 2040.66 268.616 L 2041.19 269.557 L 2048 270.619 L 2048 274.89 L 2048 286.797 L 2048 295.011 L 2048 344.69 L 2048 356.437 L 2048 365.358 L 2048 376.514 L 2048 432.514 L 2048 534.249 L 2048 541.032 L 2048 607.431 L 2048 615.086 L 2048 642.125 L 2048 644.314 L 2048 689.99 L 2048 696.297 L 2048 787.142 C 2036.78 787.302 2024.63 787.721 2013.49 787.126 C 2010.13 787.599 2009.41 787.696 2005.94 787.352 C 1972.02 786.66 1937.25 787.526 1903.21 787.324 C 1900.71 787.886 1898.55 788.405 1896.13 786.967 C 1884.7 788.02 1863.53 787.085 1850.92 787.211 C 1835.63 787.466 1820.33 787.514 1805.03 787.356 L 1797.59 787.009 C 1794.08 788.252 1740.66 787.309 1732.03 787.3 L 1703.11 770.429 C 1703.04 761.998 1702.27 720.297 1703.63 715.348 C 1705.93 715.919 1705.2 716.071 1707.2 715.407 C 1708.03 710.721 1706.49 702.48 1706.02 696.964 L 1704.74 697.133 C 1703.6 695.267 1700.65 668.406 1701.05 665.778 L 1716.23 661.639 C 1725.16 654.916 1766.15 642.653 1778.71 639.334 C 1747.75 623.684 1760.45 623.488 1755.2 598.914 C 1754.2 594.254 1744.66 592.825 1738.51 584.934 C 1739.89 584.391 1741.14 583.975 1742.54 583.515 C 1741.78 583.356 1739.7 582.951 1739.61 582.463 C 1738.43 576.222 1739.84 555.223 1739.95 549.882 L 1739.06 549.629 C 1736.43 544.325 1741.21 511.763 1738.26 506.006 C 1732.87 504.96 1730.03 504.012 1725.21 501.384 C 1724.67 500.689 1721.16 499.602 1720.03 499.185 L 1720.03 497.57 C 1715.83 495.465 1710.51 494.257 1705.92 493.014 L 1705.6 493.158 L 1704.49 492.624 C 1699.05 483.217 1695.61 488.442 1691.6 484.215 C 1691.41 474.335 1691.66 452.57 1691.01 443.575 C 1689.03 416.05 1688.45 411.756 1694.16 385.121 C 1695.8 384.961 1695.78 384.984 1697.3 384.375 C 1698.76 366.035 1695.7 342.823 1695.82 322.796 C 1693.81 320.376 1694.35 321.558 1694.14 317.943 C 1696.88 314.689 1703.32 315.948 1708.07 314.958 C 1719.22 312.632 1760.53 297.933 1768.87 301.404 C 1774.19 298.505 1776.08 296.728 1780.52 292.817 L 1780.51 292.583 L 1782.06 291.274 C 1789.02 292.519 1800.32 291.837 1807.76 291.65 L 1807.82 289.156 C 1806.85 289.28 1805.89 289.397 1804.93 289.506 L 1805.63 287.726 C 1808.79 286.684 1821.94 288.17 1826.11 288.516 C 1830.86 286.016 1840.18 278.71 1846.1 275.039 C 1853.44 276.286 1892.34 274.867 1896.39 270.443 L 1893.63 267.046 L 1893.98 265.577 C 1900.59 261.928 1940.26 254.883 1950.4 252.512 C 1962.88 249.595 1969.91 247.654 1982.64 243.031 z" fill="rgb(15,12,12)" transform="translate(0,0)"></path>
<path d="M 1697 322.549 C 1699.53 322.759 1721.19 328.471 1726.17 329.553 C 1725.11 330.237 1724.24 330.762 1723.28 331.596 C 1753.35 339.074 1772.91 342.071 1797.47 364.488 C 1799.77 375.422 1807.8 431.18 1802.81 437.681 C 1801.48 436.717 1801.05 436.201 1799.52 435.713 C 1798.65 447.602 1806.18 503.093 1804.37 507.597 L 1802.13 504.196 C 1800.76 505.754 1801.38 511.319 1801.53 513.743 C 1801.83 518.193 1802.16 522.641 1802.51 527.087 C 1777.78 521.963 1772.05 514.091 1751.01 502.733 C 1748.07 501.143 1747.43 498.787 1744.12 498.192 C 1744.48 501.075 1744.9 502.184 1745.8 504.849 C 1743.06 506.444 1724.41 498.808 1720.03 497.57 C 1715.83 495.465 1710.51 494.257 1705.92 493.014 L 1705.6 493.158 L 1704.49 492.624 C 1699.05 483.217 1695.61 488.442 1691.6 484.215 C 1691.41 474.335 1691.66 452.57 1691.01 443.575 C 1689.03 416.05 1688.45 411.756 1694.16 385.121 C 1695.8 384.961 1695.78 384.984 1697.3 384.375 C 1698.76 366.035 1695.7 342.823 1695.82 322.796 L 1697 322.549 z" fill="rgb(121,79,165)" transform="translate(0,0)"></path>
<path d="M 1695.82 322.796 L 1697 322.549 C 1697.07 340.989 1701.52 372.318 1700.51 387.903 L 1699.28 388.471 L 1695.97 386.958 C 1693.97 389.241 1691.87 408.871 1691.51 413.22 C 1691.07 416.361 1690.59 418.906 1690.79 422.086 L 1691.96 423.068 C 1693.19 421.437 1693.96 420.338 1695 418.589 C 1694.61 429.471 1692.26 474.051 1693.38 482.237 C 1695.72 484.483 1694.57 483.883 1697.75 484.503 C 1698.35 482.689 1698.78 481.194 1699.25 479.342 C 1702.6 481.128 1706.4 489.383 1705.92 493.014 L 1705.6 493.158 L 1704.49 492.624 C 1699.05 483.217 1695.61 488.442 1691.6 484.215 C 1691.41 474.335 1691.66 452.57 1691.01 443.575 C 1689.03 416.05 1688.45 411.756 1694.16 385.121 C 1695.8 384.961 1695.78 384.984 1697.3 384.375 C 1698.76 366.035 1695.7 342.823 1695.82 322.796 z" fill="rgb(16,4,18)" transform="translate(0,0)"></path>
<path d="M 2048 376.514 L 2048 432.514 L 2048 534.249 C 2034.84 537.947 2022.34 539.996 2008.77 541.197 C 1993.42 542.556 1986.93 551.513 1970.96 554.583 C 1962.71 556.177 1954.21 556.743 1945.83 557.458 C 1941.88 557.947 1940.93 558.629 1937.32 559.744 C 1936.3 556.226 1936.29 532.694 1937.65 529.645 C 1939.43 530.648 1941.01 531.615 1942.75 532.707 C 1945.93 528.769 1940.27 511.479 1940.54 505.666 C 1941.63 482.015 1942.15 458.779 1941.58 435.096 C 1941.36 426.345 1943.09 414.19 1943.91 405.269 C 1958.83 400.415 1972.9 395.446 1988.37 392.591 L 1984.76 383.892 C 1991.04 384.621 2006.08 388.793 2010.34 388.305 L 2008.42 385.922 C 2010.07 383.823 2042.49 377.679 2048 376.514 z" fill="rgb(10,143,227)" transform="translate(0,0)"></path>
<path d="M 2048 432.514 L 2048 534.249 C 2034.84 537.947 2022.34 539.996 2008.77 541.197 C 1993.42 542.556 1986.93 551.513 1970.96 554.583 C 1979.73 546.693 2000.78 526.76 2008.18 518.187 C 2008.06 501.732 2007.71 485.279 2007.14 468.834 C 2018.84 457.267 2035.35 443.655 2048 432.514 z" fill="rgb(247,183,60)" transform="translate(0,0)"></path>
<path d="M 1703.03 670.003 C 1705.17 671.224 1713.41 675.94 1715.6 676.407 C 1727.37 678.913 1745.24 674.877 1753.34 684.964 C 1757.85 690.586 1792.74 702.008 1799.7 704.314 C 1801.79 706.897 1804.09 709.583 1805.88 712.364 C 1806.09 721.319 1807.47 756.661 1806.19 762.734 C 1804.17 764.19 1802.92 763.894 1800.4 763.875 C 1796.75 768.209 1801.64 770.42 1797.52 772.03 L 1793.06 771.213 L 1791.93 772.03 C 1791.95 776.072 1795.66 783.294 1797.59 787.009 C 1794.08 788.252 1740.66 787.309 1732.03 787.3 L 1703.11 770.429 C 1703.04 761.998 1702.27 720.297 1703.63 715.348 C 1705.93 715.919 1705.2 716.071 1707.2 715.407 C 1708.03 710.721 1706.49 702.48 1706.02 696.964 C 1705.06 688.283 1704.23 678.56 1703.03 670.003 z" fill="rgb(121,79,165)" transform="translate(0,0)"></path>
<path d="M 1950.26 316.284 C 1970.56 320.185 1973.83 325.693 1990.29 331.183 C 2012.58 338.621 2026.93 345.859 2048 356.437 L 2048 365.358 C 2034.25 370.828 2006.53 380.155 1991.88 380.013 C 1989.31 379.988 1978.8 377.344 1975.73 376.576 C 1976.58 380.805 1977.04 385.744 1977.54 390.077 C 1967.3 392.723 1957.1 395.535 1946.94 398.513 C 1938.2 395.918 1928.22 394.325 1919.23 391.496 C 1907.08 387.675 1895.23 383.255 1883.28 378.901 C 1888.18 377.95 1893.01 376.664 1897.85 375.439 C 1863.83 373.915 1857.49 370.454 1826.86 359.52 C 1864.63 343.864 1896.79 330.538 1939.33 333.774 L 1928.5 322.731 C 1937.14 321.058 1942.07 319.388 1950.26 316.284 z" fill="rgb(5,146,93)" transform="translate(0,0)"></path>
<path d="M 1904.4 746.153 C 1916.52 739.48 1997.73 710.771 2008.45 713.678 C 2009.04 713.839 2009.07 713.778 2009.37 714.383 C 2011.22 718.055 2005.96 778.431 2005.94 787.352 C 1972.02 786.66 1937.25 787.526 1903.21 787.324 C 1903.91 773.611 1904.31 759.884 1904.4 746.153 z" fill="rgb(247,183,60)" transform="translate(0,0)"></path>
<path d="M 1982.29 245.348 C 2003.86 255.375 2011.99 258.072 2034.83 264.541 L 2035.1 265.379 C 2032.74 266.285 2030.8 266.83 2028.83 268.403 C 2035.55 271.162 2041.02 272.801 2048 274.89 L 2048 286.797 C 2035.61 289.446 2003.75 292.165 1994.28 300.803 C 1994.16 302.214 1993.96 303.207 1994.32 304.585 C 1990.59 305.373 1981.01 304.431 1978.64 305.799 C 1969.15 311.288 1924.58 304.049 1919.06 297.036 C 1920.7 296.038 1922.05 295.219 1923.77 294.344 C 1912.89 289.667 1904.77 291.081 1896.13 287.991 C 1885.2 284.086 1882 280.875 1869.38 277.472 C 1882.21 275.472 1897.36 274.352 1910.47 273.121 C 1905.86 271.014 1901.07 268.545 1896.51 266.29 C 1916.65 261.441 1936.37 257.817 1956.75 254.549 C 1962.89 253.565 1975.98 247.813 1982.29 245.348 z" fill="rgb(5,146,93)" transform="translate(0,0)"></path>
<path d="M 1923.77 294.344 C 1935.38 298.28 1923.08 297.102 1919.06 297.036 C 1920.7 296.038 1922.05 295.219 1923.77 294.344 z" fill="rgb(24,23,24)" transform="translate(0,0)"></path>
<path d="M 1964.35 559.911 C 1980.87 558.413 1989.13 554.929 2004.87 550.373 C 2011.38 548.489 2014.44 553.898 2022.36 547.452 C 2022.75 556.51 2016.22 563.928 2015.99 572.601 L 2016.92 573.059 C 2018.32 571.69 2020.01 569.93 2021.57 568.81 C 2023.11 575.941 2018.84 602.002 2018.67 612.07 C 2005.54 624.249 1992.72 626.615 1975.83 631.958 L 1974.24 631.423 L 1975.18 627.229 C 1965.79 631.404 1931.24 651.062 1922.44 646.885 L 1924.31 643.617 C 1923.27 642.651 1923.33 642.587 1922.01 642.119 C 1921.59 639.115 1932.04 624.848 1934.44 621.37 C 1935.41 607.232 1936.11 593.077 1936.54 578.912 C 1947.52 572.662 1955.34 569.039 1964.35 559.911 z" fill="rgb(247,183,60)" transform="translate(0,0)"></path>
<path d="M 1809.7 706.842 C 1831.38 716.754 1835.89 721.78 1854.15 731.929 C 1856.34 728.294 1855.1 729.26 1858.62 727.883 C 1870.66 729.384 1888.67 738.112 1899.51 743.946 C 1898.1 750.281 1890.17 778.915 1891.38 783.477 C 1893.97 785.466 1893.4 783.878 1896.13 786.967 C 1884.7 788.02 1863.53 787.085 1850.92 787.211 C 1835.63 787.466 1820.33 787.514 1805.03 787.356 C 1804.93 781.827 1804.67 776.503 1805.44 771.022 C 1807.86 769.45 1808.19 770.203 1811.79 770.806 C 1814.52 766.957 1810.19 715.203 1809.7 706.842 z" fill="rgb(10,143,227)" transform="translate(0,0)"></path>
<path d="M 1899.51 743.946 C 1898.1 750.281 1890.17 778.915 1891.38 783.477 C 1893.97 785.466 1893.4 783.878 1896.13 786.967 C 1884.7 788.02 1863.53 787.085 1850.92 787.211 C 1858.12 779.516 1891.21 747.889 1899.51 743.946 z" fill="rgb(98,203,249)" transform="translate(0,0)"></path>
<path d="M 1848.21 277.273 C 1851.86 277.802 1855.48 278.356 1859.15 278.727 C 1865.11 284.42 1873.35 290.848 1881 293.495 C 1895.15 298.389 1905.56 293.103 1916.17 305.541 C 1917.4 306.98 1932.53 308.447 1934.84 313.592 C 1933 317.713 1927.79 320.434 1923.86 321.364 C 1916.41 323.128 1903.39 330.626 1897.68 331.991 C 1869.26 338.797 1848.39 341.431 1821.17 352.783 C 1820.43 332.866 1820.69 311.029 1820.53 290.963 C 1834.84 291.667 1836.05 284.365 1848.21 277.273 z" fill="rgb(5,146,93)" transform="translate(0,0)"></path>
<path d="M 1778.71 639.334 C 1781.29 639.976 1786.42 640 1788.17 640.861 L 1787.95 641.902 C 1791.55 643.055 1797.39 644.979 1800.93 646.342 C 1803.27 647.244 1804.88 654.87 1808.04 655.517 C 1829 664.924 1852.25 672.608 1872.99 682.142 C 1865.33 684.01 1866.03 683.942 1860.01 688.306 C 1856.92 690.544 1835.96 695.739 1832.79 694.426 L 1833.29 692.421 C 1817.94 696.66 1803.76 704.003 1788.31 694.409 C 1760.34 677.031 1762.31 676.277 1730.08 674.336 C 1732.84 672.846 1736.06 671.837 1736.95 669.462 C 1732.64 666.748 1723.17 667.619 1718.47 663.314 L 1716.23 661.639 C 1725.16 654.916 1766.15 642.653 1778.71 639.334 z" fill="rgb(121,79,165)" transform="translate(0,0)"></path>
<path d="M 1778.71 639.334 C 1781.29 639.976 1786.42 640 1788.17 640.861 L 1787.95 641.902 L 1786.43 643.265 C 1781.01 641.274 1771.61 644.323 1764.84 645.574 C 1763.44 646.955 1762.87 647.558 1761.67 649.12 C 1741.48 653.114 1737.62 655.257 1718.47 663.314 L 1716.23 661.639 C 1725.16 654.916 1766.15 642.653 1778.71 639.334 z" fill="rgb(15,12,12)" transform="translate(0,0)"></path>
<path d="M 1740.83 507.895 C 1745.53 510.032 1749.32 511.509 1754.38 512.63 C 1762.34 514.392 1764.57 514.636 1767.57 522.364 C 1778.98 524.98 1787.89 528.441 1797.91 530.857 C 1797.95 535.741 1799.06 555.947 1798.59 558.739 C 1796.58 558.951 1796.59 558.855 1794.59 558.298 C 1794.04 562.187 1796.43 574.813 1796.7 579.824 C 1797.2 589.209 1797.2 598.052 1797.19 607.43 C 1794.05 604.707 1785.2 596.136 1782.41 595.167 C 1781.34 597.14 1781.72 597.718 1781.73 600.153 C 1776.63 601.545 1752.33 591.262 1746.17 588.648 C 1744.35 587.877 1743.29 585.335 1742.54 583.515 C 1741.78 583.356 1739.7 582.951 1739.61 582.463 C 1738.43 576.222 1739.84 555.223 1739.95 549.882 C 1740.35 536.847 1741.18 520.765 1740.83 507.895 z" fill="rgb(121,79,165)" transform="translate(0,0)"></path>
<path d="M 1780.52 292.817 C 1787.36 293.059 1805.63 294.579 1810.97 292.048 C 1815 290.133 1815.07 290.524 1820.53 290.963 C 1820.69 311.029 1820.43 332.866 1821.17 352.783 C 1812.97 355.076 1790.03 349.318 1784.54 344.316 L 1785.84 342.647 C 1781.25 340.227 1777.63 342.912 1772.76 340.628 C 1759.33 336.401 1745.8 333.276 1732.28 329.025 C 1738.1 328.192 1741.06 328.09 1746.84 328.025 L 1752.57 325.791 C 1743.71 323.704 1736.35 324.486 1727.35 324.923 L 1712.26 316.233 C 1726.6 311.842 1739.94 306.709 1754.88 304.705 C 1758.94 304.161 1765.63 303.36 1768.87 301.404 C 1774.19 298.505 1776.08 296.728 1780.52 292.817 z" fill="rgb(121,79,165)" transform="translate(0,0)"></path>
<path d="M 1772.76 340.628 C 1774.75 340.173 1788.64 339.11 1789.48 340.753 C 1789.29 342.153 1786.9 342.372 1785.84 342.647 C 1781.25 340.227 1777.63 342.912 1772.76 340.628 z" fill="rgb(16,4,18)" transform="translate(0,0)"></path>
<path d="M 1752.57 325.791 C 1753.39 325.902 1755.58 326.131 1755.81 326.637 C 1756.7 328.608 1747.94 328.024 1746.84 328.025 L 1752.57 325.791 z" fill="rgb(43,31,43)" transform="translate(0,0)"></path>
<path d="M 1955.69 685.86 C 1967.2 680.425 1989.83 675.282 2001.25 668.107 C 2002.93 667.048 2002.6 663.626 2007.4 661.649 C 2015.22 658.426 2025.31 660.28 2031.7 655.102 C 2036.86 650.915 2042.54 647.612 2048 644.314 L 2048 689.99 C 2008.57 717.262 1994.84 699.112 1955.69 685.86 z" fill="rgb(247,183,60)" transform="translate(0,0)"></path>
<path d="M 2018.33 714.127 C 2026.73 705.912 2037.49 702.74 2048 696.297 L 2048 787.142 C 2036.78 787.302 2024.63 787.721 2013.49 787.126 C 2014.63 780.418 2018.29 761.206 2017.51 755.668 C 2016.51 757.133 2015.93 758.388 2014.35 759.075 C 2013.15 751.916 2016.81 735.85 2017.76 728.347 C 2018.34 723.757 2018.27 718.778 2018.33 714.127 z" fill="rgb(247,183,60)" transform="translate(0,0)"></path>
<path d="M 2048 295.011 L 2048 344.69 C 2042.74 343.209 2035.28 342.036 2030.76 339.87 C 2011.03 330.404 1990.77 326.272 1971.69 315.188 C 1976.85 314.132 1990.99 313.152 1993.95 310.555 C 1992.63 309.735 1991.05 309.06 1990.53 307.719 L 1996.19 306.746 C 2020.36 297.451 2020.23 295.306 2048 295.011 z" fill="rgb(5,146,93)" transform="translate(0,0)"></path>
<path d="M 1948.29 561.309 C 1953.52 561.11 1959.11 560.436 1964.35 559.911 C 1955.34 569.039 1947.52 572.662 1936.54 578.912 C 1936.11 593.077 1935.41 607.232 1934.44 621.37 C 1932.04 624.848 1921.59 639.115 1922.01 642.119 C 1918.33 644.06 1918.94 644.491 1915.52 644.025 C 1912.69 640.253 1913.39 613.115 1914.87 610.415 C 1916.84 611.618 1917.7 612.61 1919.71 612.556 C 1916.95 596.072 1915.91 586.468 1914.72 569.836 L 1927.73 572.793 C 1932.37 571.102 1946.84 566.679 1949.11 563.789 L 1948.29 561.309 z" fill="rgb(10,143,227)" transform="translate(0,0)"></path>
<path d="M 2048 541.032 L 2048 607.431 C 2040.17 614.341 2037.7 612.699 2027.18 612.704 C 2025.46 593.547 2027.79 565.025 2030.52 545.581 C 2037.98 542.568 2040.05 542.348 2048 541.032 z" fill="rgb(247,183,60)" transform="translate(0,0)"></path>
<path d="M 2048 615.086 L 2048 642.125 C 2041.3 645.092 2032.42 649.394 2025.56 651.298 C 2017.83 653.443 2010.52 654.64 2002.72 657.182 C 2003.72 648.465 2004.45 640.209 2005.2 631.469 C 2021.41 620.957 2030.54 620.688 2048 615.086 z" fill="rgb(247,183,60)" transform="translate(0,0)"></path>
<path d="M 1937.32 559.744 C 1940.93 558.629 1941.88 557.947 1945.83 557.458 C 1946.71 559.08 1947.17 559.841 1948.29 561.309 L 1949.11 563.789 C 1945.56 563.197 1945.18 563.179 1941.43 563.663 C 1938.13 564.088 1940.27 562.07 1937.95 560.235 L 1937.32 559.744 z" fill="rgb(24,23,24)" transform="translate(0,0)"></path>
<path d="M 1725.21 501.384 C 1728.84 501.858 1735.4 503.889 1738.26 506.006 C 1732.87 504.96 1730.03 504.012 1725.21 501.384 z" fill="rgb(16,4,18)" transform="translate(0,0)"></path>
<path d="M 1803.52 362.072 C 1814.36 367.094 1824.31 371.126 1835.4 375.543 L 1827.3 366.517 C 1840.41 371.344 1856.97 374.966 1869.15 380.694 C 1876.04 383.938 1889.32 394.242 1896.01 399.217 C 1892.84 393.851 1889.22 388.856 1885.64 383.761 C 1902.43 392.823 1916.15 397.902 1933.96 404.82 C 1936.13 417.28 1937.82 510.076 1934.12 515.465 L 1931.21 512.425 L 1930.3 512.497 C 1928.51 516.88 1928.71 532.857 1928.58 538.248 C 1928.16 546.921 1927.59 555.585 1926.87 564.237 C 1920.29 563.336 1892.62 559.333 1888.46 556.353 C 1890.17 554.888 1891.7 554.017 1892.09 551.928 C 1889.56 550.687 1881.77 553.145 1877.88 552.445 C 1870.79 551.17 1834.76 542.83 1831.55 538.624 C 1833.24 536.864 1833.65 536.631 1834.5 534.412 C 1830.68 529.81 1812.17 528.211 1806 527.885 C 1810.96 501.975 1805.98 491.976 1805.28 467.039 C 1804.77 448.831 1810.71 427.39 1808.78 408.278 C 1807.39 394.444 1801.3 375.163 1803.52 362.072 z" fill="rgb(121,79,165)" transform="translate(0,0)"></path>
<path d="M 1805.24 531.697 C 1811.46 532.894 1814.5 533.132 1819.81 536.693 L 1819.54 536.903 C 1833.35 544.492 1860.26 554.133 1875.68 558.554 C 1890.6 562.832 1894.58 559.111 1908.77 567.224 C 1909.13 571.816 1911.47 591.944 1909.08 594.407 C 1907.65 592.908 1906.34 591.571 1904.83 590.149 C 1904.27 597.403 1905.53 609.756 1905.89 617.502 C 1906.37 628.143 1906.15 636.212 1905.72 646.807 C 1900.5 645.873 1899.21 645.557 1894.37 643.455 C 1886.02 637.732 1878.73 633.839 1869.88 629.039 C 1873.09 633.172 1877.36 637.176 1881.1 640.901 C 1872.25 639.204 1860.81 635.897 1851.9 633.589 C 1851.37 630.299 1851.18 625.656 1850.94 622.219 C 1830.89 622.278 1826.84 620.565 1807.83 612.878 C 1807.36 611.538 1804.2 602.552 1804.19 601.869 C 1804.03 593.719 1799.12 569.889 1799.23 563.837 C 1800.73 564.451 1801.85 565.091 1803.26 565.859 C 1804.59 563.754 1805.08 536.341 1805.24 531.697 z" fill="rgb(121,79,165)" transform="translate(0,0)"></path>
<path d="M 1809.72 618.748 C 1815.68 621.092 1831.2 629.418 1835.54 630.033 C 1839.28 626.732 1840.27 625.601 1845.09 627.579 C 1846.53 630.635 1845.66 632.852 1845.28 636.696 C 1855.48 639.248 1869.73 643.325 1879.6 646.699 C 1889.96 650.241 1896.69 655.155 1908.46 657.514 L 1907.92 670.09 C 1908.03 674.331 1908.17 682.174 1906.88 686.39 C 1906.68 687.06 1903.38 685.728 1902.76 685.527 C 1899.01 682.988 1871.33 667.719 1868.72 667.829 C 1868.87 670.319 1869.38 671.237 1868.21 672.99 C 1864.45 672.184 1848.65 665.529 1844.15 663.742 C 1832.44 659.052 1820.59 654.704 1808.63 650.702 C 1808.34 640.863 1809.4 628.929 1809.72 618.748 z" fill="rgb(121,79,165)" transform="translate(0,0)"></path>
<path d="M 1907.92 670.09 C 1908.03 674.331 1908.17 682.174 1906.88 686.39 C 1906.68 687.06 1903.38 685.728 1902.76 685.527 C 1903.25 678.685 1903.62 675.588 1907.92 670.09 z" fill="rgb(10,143,227)" transform="translate(0,0)"></path>
<path d="M 1994.08 632.073 L 1996.42 632.165 C 1999.45 635.67 1997.73 657.489 1997.48 662.79 C 1984.73 667.028 1975.86 669.039 1966.15 677.957 C 1964.41 679.551 1950.86 683.584 1948.1 682.861 L 1948.76 680.651 C 1947.03 680.189 1922.93 687.709 1919.03 688.874 L 1916.95 688.878 C 1915.47 686.608 1915.69 687.093 1916.03 683.699 C 1916.9 675.125 1915.39 667.013 1914.25 658.463 C 1919.27 655.851 1933.91 651.865 1940 649.88 C 1957.99 643.823 1976.02 637.887 1994.08 632.073 z" fill="rgb(247,183,60)" transform="translate(0,0)"></path>
<path d="M 1951.12 688.624 C 1963.17 695.276 1968.68 692.436 1978.58 696.647 L 1976.48 698.756 C 1978.99 701.963 1994.06 705.36 1999.31 707.983 C 1978.29 716.722 1961.68 714.077 1945.12 718.843 C 1946.98 721.94 1949.11 720.289 1948.87 722.912 C 1938.76 727.029 1926.86 729.291 1914.84 734.048 C 1910.4 720.574 1900.87 708.836 1895.81 689.855 C 1899.12 691.585 1911.82 699.179 1914.03 699.24 C 1916.25 696.2 1917.47 693.748 1920.94 692.857 C 1929.8 690.586 1941.96 689.024 1951.12 688.624 z" fill="rgb(247,183,60)" transform="translate(0,0)"></path>
<path d="M 1885.99 684.304 C 1890.52 686.235 1891.76 687.01 1895.81 689.855 C 1900.87 708.836 1910.4 720.574 1914.84 734.048 C 1886.03 743.904 1855.67 711.441 1848.39 712.562 C 1848.52 714.645 1848.99 716.99 1847.93 718.655 C 1842.36 716.768 1826.01 706.924 1820.28 703.581 C 1829.3 700.064 1866.99 693.393 1868.04 692.648 L 1867.34 689.368 C 1869.15 687.534 1882.38 685.141 1885.99 684.304 z" fill="rgb(10,143,227)" transform="translate(0,0)"></path>
<path d="M 1755.96 595.665 C 1760.92 597.498 1777.28 603.913 1782.91 605.685 C 1782.93 605.692 1784.29 604.995 1784.56 605.078 C 1787.96 606.138 1792.99 609.441 1796.47 610.82 C 1797.28 611.141 1797.36 613.324 1797.41 613.996 C 1797.69 617.531 1802.13 616.729 1803.45 618.194 C 1804.76 619.663 1804.86 630.137 1804.63 631.982 C 1804.16 635.596 1805.01 639.955 1802.71 642.051 C 1794.98 639.697 1788.17 636.969 1781.39 632.436 C 1779.53 631.194 1781.16 639.095 1775 635.245 C 1769.54 631.836 1763.75 628.048 1758.23 624.76 C 1758.88 610.257 1760.52 611.775 1755.96 595.665 z" fill="rgb(121,79,165)" transform="translate(0,0)"></path>
<path d="M 0 352.832 L 63.4321 316.268 C 69.5958 312.727 75.8778 309.253 81.9831 305.633 C 111.993 287.842 145.629 275.8 178.335 263.686 C 218.935 310.909 264.594 353.505 307.215 398.848 C 320.746 413.243 343.985 434.585 355.439 449.755 C 363.249 460.099 372.337 488.772 380.556 502.177 C 363.88 557.297 349.451 609.943 334.297 665.253 C 323.264 676.011 309.469 685.162 297.949 695.163 C 269.776 719.623 241.696 739.75 209.586 758.672 C 199.735 764.477 190.287 773.63 180.008 778.946 C 161.921 783.279 131.012 788.809 112.726 788.807 C 94.1369 788.806 79.115 785.995 60.4201 788.138 C 46.7102 772.391 14.9366 734.715 0 722.251 L 0 711.964 L 0 674.275 L 0 645.4 L 0 601.475 L 0 556.059 L 0 482.57 L 0 458.924 L 0 427.567 L 0 417.77 L 0 401.323 L 0 399.627 L 0 384.092 L 0 362.478 L 0 352.832 z" fill="rgb(15,12,12)" transform="translate(0,0)"></path>
<path d="M 0 482.57 C 15.5223 506.849 30.2731 531.577 45.6996 555.897 C 49.4428 553.795 56.0811 549.807 59.8586 548.398 C 65.4539 547.428 82.5352 536.631 88.4258 532.99 C 119.702 547.254 150.761 561.987 181.594 577.186 L 171.121 626.447 C 166.335 623.402 160.18 619.068 154.833 617.535 C 159.688 621.336 165.344 624.36 170.707 627.445 C 167.592 641.539 164.553 655.649 161.589 669.775 C 159.773 677.765 155.824 689.828 151.133 696.524 C 150.759 701.101 143.804 716.081 141.752 721.482 C 137.177 718.96 115.271 706.544 111.807 706.694 C 106.064 704.43 94.4179 698.177 88.4405 695.204 C 74.2399 701.954 58.0602 711.399 43.5207 718.825 C 31.6161 705.464 13.0161 686.832 0 674.275 L 0 645.4 L 0 601.475 L 0 556.059 L 0 482.57 z" fill="rgb(24,23,24)" transform="translate(0,0)"></path>
<path d="M 0 482.57 C 15.5223 506.849 30.2731 531.577 45.6996 555.897 C 49.4428 553.795 56.0811 549.807 59.8586 548.398 C 65.4539 547.428 82.5352 536.631 88.4258 532.99 C 119.702 547.254 150.761 561.987 181.594 577.186 L 171.121 626.447 C 166.335 623.402 160.18 619.068 154.833 617.535 C 148.929 615.924 112.515 592.01 103.731 587.269 L 42.3256 619.225 C 28.4569 597.951 13.4441 577.968 0 556.059 L 0 482.57 z" fill="rgb(5,146,93)" transform="translate(0,0)"></path>
<path d="M 0 556.059 C 13.4441 577.968 28.4569 597.951 42.3256 619.225 L 103.731 587.269 C 112.515 592.01 148.929 615.924 154.833 617.535 C 159.688 621.336 165.344 624.36 170.707 627.445 C 167.592 641.539 164.553 655.649 161.589 669.775 C 155.799 668.026 112.147 630.613 105.642 624.327 C 86.0384 634.835 63.1439 645.65 43.0019 655.954 C 29.0693 637.255 14.4173 619.757 0 601.475 L 0 556.059 z" fill="rgb(121,79,165)" transform="translate(0,0)"></path>
<path d="M 0 645.4 C 14.1949 662.049 29.8656 679.76 43.0778 697.024 C 63.345 687.571 83.6075 676.914 103.566 667.728 C 119.545 677.121 135.402 686.721 151.133 696.524 C 150.759 701.101 143.804 716.081 141.752 721.482 C 137.177 718.96 115.271 706.544 111.807 706.694 C 106.064 704.43 94.4179 698.177 88.4405 695.204 C 74.2399 701.954 58.0602 711.399 43.5207 718.825 C 31.6161 705.464 13.0161 686.832 0 674.275 L 0 645.4 z" fill="rgb(5,146,93)" transform="translate(0,0)"></path>
<path d="M 0 458.924 C 27.1198 459.182 54.132 461.449 81.2225 462.717 C 98.386 481.184 115.406 499.785 132.281 518.516 C 147.008 506.541 168.406 492.562 184.36 480.691 L 206.169 495.101 C 199.45 519.687 186.499 552.722 181.733 575.777 C 151.256 559.99 119.607 546.554 89.1867 531.108 C 85.8215 533.023 60.7223 546.982 59.8586 548.398 C 56.0811 549.807 49.4428 553.795 45.6996 555.897 C 30.2731 531.577 15.5223 506.849 0 482.57 L 0 458.924 z" fill="rgb(121,79,165)" transform="translate(0,0)"></path>
<path d="M 0 427.567 L 5.34178 425.01 C 22.0238 430.003 71.7738 438.755 91.0686 441.386 C 103.921 453.914 116.386 466.831 128.447 480.121 C 144.251 470.027 159.876 459.656 175.315 449.013 C 185.707 452.717 195.349 456.726 205.525 460.945 C 206.19 469.353 208.002 487.597 206.169 495.101 L 184.36 480.691 C 168.406 492.562 147.008 506.541 132.281 518.516 C 115.406 499.785 98.386 481.184 81.2225 462.717 C 54.132 461.449 27.1198 459.182 0 458.924 L 0 427.567 z" fill="rgb(24,23,24)" transform="translate(0,0)"></path>
<path d="M 25.2179 405.488 C 49.9218 410.136 74.3314 415.98 98.9749 420.434 C 109.435 430.607 118.694 439.671 128.448 450.483 L 177.347 426.145 C 184.68 429.009 192.078 431.703 199.535 434.226 C 202.243 443.131 203.771 451.832 205.525 460.945 C 195.349 456.726 185.707 452.717 175.315 449.013 C 159.876 459.656 144.251 470.027 128.447 480.121 C 116.386 466.831 103.921 453.914 91.0686 441.386 C 71.7738 438.755 22.0238 430.003 5.34178 425.01 C 11.8378 418.756 18.7647 411.479 25.2179 405.488 z" fill="rgb(121,79,165)" transform="translate(0,0)"></path>
<path d="M 0 674.275 C 13.0161 686.832 31.6161 705.464 43.5207 718.825 C 58.0602 711.399 74.2399 701.954 88.4405 695.204 C 94.4179 698.177 106.064 704.43 111.807 706.694 C 115.305 709.581 136.213 719.795 141.281 722.734 C 137.443 731.779 133.591 741.245 129.58 750.179 C 122.081 747.27 92.1005 726.76 84.6358 721.676 C 72.9206 730.18 61.3024 738.817 49.7833 747.585 C 33.3859 735.285 15.9414 724.289 0 711.964 L 0 674.275 z" fill="rgb(121,79,165)" transform="translate(0,0)"></path>
<path d="M 49.7833 747.585 C 61.3024 738.817 72.9206 730.18 84.6358 721.676 C 92.1005 726.76 122.081 747.27 129.58 750.179 C 127.967 754.401 122.682 769.603 119.919 772.124 L 117.913 772.591 C 112.879 771.981 91.308 759.972 85.3528 756.813 C 76.6195 762.074 67.7164 767.048 58.6579 771.727 C 48.4642 774.069 46.7061 767.54 41.7509 759.682 C 44.0585 756.045 48.6989 751.232 49.7833 747.585 z" fill="rgb(24,23,24)" transform="translate(0,0)"></path>
<path d="M 113.314 305.876 L 108.329 311.419 C 102.494 317.859 70.8404 352.513 64.5958 352.82 C 54.739 354.325 7.31488 362.688 1.84421 361.628 C 37.1239 342.944 77.3843 323.852 113.314 305.876 z" fill="rgb(121,79,165)" transform="translate(0,0)"></path>
<path d="M 1.84421 361.628 C 7.31488 362.688 54.739 354.325 64.5958 352.82 C 58.7107 362.853 43.6438 369.154 38.6921 375.024 C 34.9755 375.418 4.41158 382.797 0 384.092 L 0 362.478 L 1.84421 361.628 z" fill="rgb(24,23,24)" transform="translate(0,0)"></path>
<path d="M 85.3528 756.813 C 91.308 759.972 112.879 771.981 117.913 772.591 C 119.63 774.662 119.071 776.915 118.057 779.113 C 114.542 780.999 78.8164 777.085 72.3922 777.183 C 64.9426 777.296 62.9885 777.293 58.6579 771.727 C 67.7164 767.048 76.6195 762.074 85.3528 756.813 z" fill="rgb(121,79,165)" transform="translate(0,0)"></path>
<path d="M 0 384.092 C 4.41158 382.797 34.9755 375.418 38.6921 375.024 C 31.0016 382.636 24.6031 390.045 16.4609 397.672 C 10.2263 398.715 6.1243 399.004 0 399.627 L 0 384.092 z" fill="rgb(5,146,93)" transform="translate(0,0)"></path>
<path d="M 0 401.323 C 5.04253 400.523 10.6342 399.481 15.7582 398.63 C 9.69147 405.492 5.57958 410.587 0 417.77 L 0 401.323 z" fill="rgb(121,79,165)" transform="translate(0,0)"></path>
<path d="M 252.64 560.032 C 263.512 553.55 344.974 499.114 354.507 509.246 C 355.153 516.062 354.467 540.39 353.081 546.941 C 352.198 551.746 351.571 556.724 350.893 561.572 C 349.809 571.388 342.753 596.677 340.05 607.345 C 335.391 606.823 330.388 606.159 325.753 605.76 C 319.239 609.169 311.171 614.505 305.847 619.573 C 313.058 616.321 318.144 611.627 324.688 607.62 L 339.911 607.951 C 337.566 617.112 335.353 626.307 333.271 635.531 C 325.364 634.444 317.42 633.641 309.456 633.122 C 301.186 637.979 293.36 643.704 284.796 647.616 C 276.049 651.611 243.033 655.273 237.332 659.111 C 218.553 671.755 193.909 693.546 176.265 707.977 C 170.033 708.653 164.813 709.72 158.681 710.943 C 161.199 704.794 166.057 693.807 167.808 687.823 C 175.604 685.96 196.712 682.366 199.896 674.515 C 198.733 674.917 192.923 678.828 190.749 679.814 C 183.609 683.054 175.88 684.269 168.219 685.738 C 171.791 670.496 176.833 650.095 181.503 635.485 C 184.271 625.52 189.51 607.787 191.18 598.035 C 194.942 586.914 198.728 571.502 201.916 559.9 L 252.64 560.032 z" fill="rgb(121,79,165)" transform="translate(0,0)"></path>
<path d="M 252.64 560.032 C 263.512 553.55 344.974 499.114 354.507 509.246 C 355.153 516.062 354.467 540.39 353.081 546.941 C 338.22 551.229 307.486 558.334 294.971 566.239 C 287.732 570.812 274.736 583.956 266.461 589.614 C 250.723 591.732 234.957 593.642 219.169 595.345 C 212.887 596.069 197.032 598.226 191.18 598.035 C 194.942 586.914 198.728 571.502 201.916 559.9 L 252.64 560.032 z" fill="rgb(121,79,165)" transform="translate(0,0)"></path>
<path d="M 266.461 589.614 C 274.736 583.956 287.732 570.812 294.971 566.239 C 307.486 558.334 338.22 551.229 353.081 546.941 C 352.198 551.746 351.571 556.724 350.893 561.572 C 329.304 577.255 304.499 603.963 283.598 616.679 C 272.39 623.497 199.853 632.41 181.503 635.485 C 184.271 625.52 189.51 607.787 191.18 598.035 C 197.032 598.226 212.887 596.069 219.169 595.345 C 234.957 593.642 250.723 591.732 266.461 589.614 z" fill="rgb(24,23,24)" transform="translate(0,0)"></path>
<path d="M 324.688 607.62 L 339.911 607.951 C 337.566 617.112 335.353 626.307 333.271 635.531 C 325.364 634.444 317.42 633.641 309.456 633.122 C 301.186 637.979 293.36 643.704 284.796 647.616 C 276.049 651.611 243.033 655.273 237.332 659.111 C 218.553 671.755 193.909 693.546 176.265 707.977 C 170.033 708.653 164.813 709.72 158.681 710.943 C 161.199 704.794 166.057 693.807 167.808 687.823 C 175.604 685.96 196.712 682.366 199.896 674.515 C 209.466 665.288 228.071 653.543 239.339 644.902 C 246.107 639.712 274.525 638.343 283.496 633.821 C 291.472 629.8 298.25 623.383 305.847 619.573 C 313.058 616.321 318.144 611.627 324.688 607.62 z" fill="rgb(5,146,93)" transform="translate(0,0)"></path>
<path d="M 309.537 634.889 C 316.053 634.873 326.002 635.97 332.743 636.523 C 331.823 641.103 329.404 656 326.363 658.707 C 322.671 663.141 303.462 678.779 298.252 681.534 C 280.812 693.084 263.334 705.055 244.748 714.69 C 234.675 719.912 227.616 726.166 219.398 733.937 C 205.799 746.796 191.38 759.086 178.054 772.214 L 128.025 779.575 C 131.087 772.509 135.685 761.013 139.39 754.668 C 143.184 745.437 146.96 735.807 151.39 726.896 L 157.753 712.535 C 161.001 711.909 171.744 710.025 174.177 708.829 C 196.409 697.908 215.687 674.516 236.569 661.575 C 246.885 655.182 275.347 653.278 287.449 648.247 C 292.127 646.302 304.082 638.118 309.537 634.889 z" fill="rgb(24,23,24)" transform="translate(0,0)"></path>
<path d="M 139.39 754.668 C 146.306 751.938 161.823 746.603 167.731 743.15 C 183.039 734.204 202.672 712.704 217.318 703.804 C 230.149 696.008 263.067 682.353 278.386 679.762 C 283.638 678.873 293.104 680.347 298.252 681.534 C 280.812 693.084 263.334 705.055 244.748 714.69 C 234.675 719.912 227.616 726.166 219.398 733.937 C 205.799 746.796 191.38 759.086 178.054 772.214 L 128.025 779.575 C 131.087 772.509 135.685 761.013 139.39 754.668 z" fill="rgb(121,79,165)" transform="translate(0,0)"></path>
<path d="M 309.537 634.889 C 316.053 634.873 326.002 635.97 332.743 636.523 C 331.823 641.103 329.404 656 326.363 658.707 C 315.478 657.283 300.761 654.613 290.309 655.046 C 285.873 655.229 272.551 661.932 267.669 664.101 C 255.355 669.571 236.506 675.056 225.536 681.87 C 201.417 696.853 179.208 718.545 151.39 726.896 L 157.753 712.535 C 161.001 711.909 171.744 710.025 174.177 708.829 C 196.409 697.908 215.687 674.516 236.569 661.575 C 246.885 655.182 275.347 653.278 287.449 648.247 C 292.127 646.302 304.082 638.118 309.537 634.889 z" fill="rgb(121,79,165)" transform="translate(0,0)"></path>
<path d="M 200.936 403.738 C 239.24 410.261 277.278 418.152 315.612 424.477 C 326.71 435.22 338.96 445.776 350.573 456.055 C 345.87 458.916 339.479 462.164 334.527 464.849 C 324.114 470.323 315.307 475.417 305.228 481.468 C 291.546 476.458 279.427 471.67 264.848 470.004 C 249.125 468.208 233.409 466.231 217.678 464.452 C 211.859 444.495 205.613 423.944 200.936 403.738 z" fill="rgb(121,79,165)" transform="translate(0,0)"></path>
<path d="M 125.361 306.768 L 142.845 322.845 C 151.033 319.659 159.24 316.519 167.464 313.424 C 166.791 319.09 166.386 324.834 164.486 330.195 C 164.505 339.873 165.934 344.645 169.031 353.826 C 170.619 356.198 181.05 380.763 183.005 385.25 C 170.802 390.883 144.695 399.264 131.436 403.961 C 106.016 376.756 97.8409 382.491 63.6657 373.16 C 74.4778 360.793 85.4602 348.576 96.6098 336.513 L 109.08 323.089 C 113.926 318.141 120.32 311.24 125.361 306.768 z" fill="rgb(121,79,165)" transform="translate(0,0)"></path>
<path d="M 125.361 306.768 L 142.845 322.845 C 151.033 319.659 159.24 316.519 167.464 313.424 C 166.791 319.09 166.386 324.834 164.486 330.195 C 164.505 339.873 165.934 344.645 169.031 353.826 C 154.004 358.162 138.79 361.653 123.576 365.269 C 114.801 355.485 105.81 345.898 96.6098 336.513 L 109.08 323.089 C 113.926 318.141 120.32 311.24 125.361 306.768 z" fill="rgb(24,23,24)" transform="translate(0,0)"></path>
<path d="M 125.361 306.768 L 142.845 322.845 C 151.033 319.659 159.24 316.519 167.464 313.424 C 166.791 319.09 166.386 324.834 164.486 330.195 C 152.979 333.648 138.264 338.028 127.393 342.744 C 122.35 336.737 114.82 328.008 109.08 323.089 C 113.926 318.141 120.32 311.24 125.361 306.768 z" fill="rgb(5,146,93)" transform="translate(0,0)"></path>
<path d="M 184.958 324.074 C 199.827 327.756 214.74 331.254 229.695 334.567 C 241.048 347.048 252.524 359.416 264.123 371.668 C 268.911 376.489 278.317 385.92 281.614 391.767 C 285.975 394.406 309.265 418.772 313.633 423.286 C 285.349 416.552 230.025 406.803 200.73 402.793 L 196.001 382.719 C 193.271 374.482 188.104 364.548 186.844 356.546 C 183.937 352.154 184.98 330.779 184.958 324.074 z" fill="rgb(5,146,93)" transform="translate(0,0)"></path>
<path d="M 184.958 324.074 C 199.827 327.756 214.74 331.254 229.695 334.567 C 241.048 347.048 252.524 359.416 264.123 371.668 C 259.948 371.653 245.712 368.67 241.171 367.782 C 223.043 364.131 204.933 360.386 186.844 356.546 C 183.937 352.154 184.98 330.779 184.958 324.074 z" fill="rgb(121,79,165)" transform="translate(0,0)"></path>
<path d="M 186.844 356.546 C 204.933 360.386 223.043 364.131 241.171 367.782 C 245.712 368.67 259.948 371.653 264.123 371.668 C 268.911 376.489 278.317 385.92 281.614 391.767 C 254.549 389.999 223.63 385.117 196.001 382.719 C 193.271 374.482 188.104 364.548 186.844 356.546 z" fill="rgb(24,23,24)" transform="translate(0,0)"></path>
<path d="M 43.2224 388.725 C 62.4627 392.973 87.4629 400.382 106.927 405.619 L 128.876 428.937 C 149.123 421.121 171.003 412.182 191.386 405.135 C 194.261 414.002 196.669 423.757 199.081 432.815 L 186.473 428.008 C 185.235 427.671 179.123 424.907 177.579 424.242 C 160.969 432.456 145.641 440.634 128.647 448.247 C 119.238 438.112 109.25 427.421 98.6632 418.566 C 76.4183 415.462 49.727 408.753 26.9977 404.473 L 43.2224 388.725 z" fill="rgb(5,146,93)" transform="translate(0,0)"></path>
<path d="M 224.104 477.859 C 245.144 486.939 271.483 496.48 293.119 504.095 C 282.802 512.833 266.362 526.525 255.467 534.045 C 244.256 533.853 226.529 533.04 215.832 533.69 L 208.938 533.588 C 212.786 515.831 219.839 496.655 224.104 477.859 z" fill="rgb(121,79,165)" transform="translate(0,0)"></path>
<path d="M 296.2 504.044 C 307.376 505.75 328.304 506.399 340.596 507.286 C 325.002 516.261 307.688 524.903 291.916 533.453 C 285.094 537.152 256.197 556.985 251.301 557.679 C 240.566 559.2 214.67 558.315 202.422 558.405 C 204.645 550.035 206.135 541.893 208.938 533.588 L 215.832 533.69 C 226.302 535.716 243.776 534.336 256.357 535.697 C 268.941 524.99 283.124 514.221 296.2 504.044 z" fill="rgb(5,146,93)" transform="translate(0,0)"></path>
<path d="M 171.325 276.911 C 173.926 278.078 168.767 307.757 168.032 312.273 C 158.829 315.021 151.349 318.149 142.817 320.784 C 140.256 318.459 137.737 316.088 135.263 313.67 C 131.633 310.193 129.375 308.189 125.524 304.965 C 141.268 295.254 155.382 287.155 171.325 276.911 z" fill="rgb(121,79,165)" transform="translate(0,0)"></path>
<path d="M 349.583 458.039 C 351.512 462.332 353.989 489.051 354.93 495.763 C 343.733 492.133 333.449 489.675 322.269 486.375 C 317.371 485.058 312.792 483.46 307.978 481.992 C 321.963 472.767 335.523 466.582 349.583 458.039 z" fill="rgb(5,146,93)" transform="translate(0,0)"></path>
<path d="M 184.027 287.437 C 189.068 290.696 222.441 326.244 227.043 332.195 C 215.566 330.76 196.093 326.009 184.979 322.57 C 184.753 310.666 184.08 299.492 184.027 287.437 z" fill="rgb(5,146,93)" transform="translate(0,0)"></path>
<path d="M 1704.74 697.133 L 1706.02 696.964 C 1706.49 702.48 1708.03 710.721 1707.2 715.407 C 1705.2 716.071 1705.93 715.919 1703.63 715.348 L 1703.11 714.968 C 1700.12 716.491 1704.74 760.153 1701.53 764.852 C 1700.55 762.892 1700.06 714.913 1700.94 710.862 L 1703.82 710.033 L 1704.72 708.068 C 1704.02 703.363 1704.23 701.915 1704.74 697.133 z" fill="rgb(16,4,18)" transform="translate(0,0)"></path>
<path d="M 1739.06 549.629 L 1739.95 549.882 C 1739.84 555.223 1738.43 576.222 1739.61 582.463 C 1739.7 582.951 1741.78 583.356 1742.54 583.515 C 1741.14 583.975 1739.89 584.391 1738.51 584.934 C 1735.82 583.83 1737.35 553.44 1739.06 549.629 z" fill="rgb(16,4,18)" transform="translate(0,0)"></path>
<path d="M 594.735 343.279 C 611.86 341.756 628.242 346.574 642.628 355.778 C 658.391 365.844 669.467 381.804 673.382 400.093 C 675.7 410.801 675.39 516.467 673.605 527.069 C 671.907 537.2 668.111 546.866 662.46 555.445 C 649.875 574.741 634.775 582.229 613.065 586.828 C 587.527 590.093 564.929 582.041 547.904 562.67 C 519.676 530.553 532.846 484.636 530.004 445.898 C 526.336 395.895 539.277 352.252 594.735 343.279 z" fill="rgb(254,254,254)" transform="translate(0,0)"></path>
<path d="M 596.117 392.167 C 600.955 391.531 605.592 391.454 610.26 393.098 C 616.243 395.205 621.701 400.317 624.25 406.138 C 627.854 414.367 627.631 517.273 623.979 525.569 C 620.87 532.631 614.787 536.365 607.862 539.04 C 590.968 541.176 578.765 532.762 579.225 514.686 C 580.132 479.022 576.211 440.287 580.338 404.938 C 580.937 399.806 591.651 394.154 596.117 392.167 z" fill="rgb(52,11,56)" transform="translate(0,0)"></path>
<path d="M 1434.46 343.276 C 1451.81 342.055 1468.13 345.159 1482.92 354.65 C 1499.07 365.016 1510.11 381.999 1514.15 400.674 C 1517.26 415.041 1517.4 512.159 1514.88 527.727 C 1513.32 537.499 1509.76 546.846 1504.44 555.188 C 1492.55 573.57 1476.02 582.304 1455.25 586.819 C 1436.08 588.535 1419.94 586.613 1403.57 575.414 C 1387.71 564.521 1376.79 547.805 1373.19 528.902 C 1370.39 513.701 1370.82 416.436 1373.36 402.067 C 1375.14 391.599 1379.17 381.644 1385.19 372.894 C 1397.3 355.42 1414.08 347.047 1434.46 343.276 z" fill="rgb(254,254,254)" transform="translate(0,0)"></path>
<path d="M 1437.06 392.145 C 1442.55 391.595 1448.4 391.627 1453.59 393.715 C 1458.2 395.571 1463.41 399.821 1465.27 404.551 C 1468.88 413.677 1468.9 516.958 1465.33 525.468 C 1462.41 532.449 1456.48 536.392 1449.74 539.15 C 1445.57 539.721 1441.9 539.887 1437.81 538.702 C 1431.32 536.821 1426.1 532.835 1422.98 526.787 C 1418.91 518.902 1418.71 414.139 1422.05 405.048 C 1424.56 398.192 1430.76 394.896 1437.06 392.145 z" fill="rgb(52,11,56)" transform="translate(0,0)"></path>
<path d="M 386.659 342.243 L 427.9 342.083 C 454.955 342.021 477.24 341.026 497.879 361.305 C 509.461 372.489 516.024 387.883 516.076 403.983 C 516.02 434.883 491.166 452.36 470.5 472.97 C 492.35 508.397 514.471 548.48 535.933 584.702 L 480.731 584.779 C 467.781 561.596 451.788 533.029 439.713 509.609 L 438.221 509.552 C 438.639 534.639 438.889 559.728 438.97 584.818 L 386.474 584.822 L 386.986 479.065 C 397.494 468.677 463.531 412.039 465.045 404.423 C 465.521 402.027 464.721 398.966 463.282 397.046 C 462.152 395.538 460.557 394.573 458.683 394.367 C 456.708 394.15 455.428 394.316 453.718 395.347 C 446.803 399.515 440.343 406.91 434.457 412.498 C 418.794 427.37 403.473 443.466 386.841 457.206 L 386.659 342.243 z" fill="rgb(254,254,254)" transform="translate(0,0)"></path>
<path d="M 941.059 342.718 C 960.987 342.415 980.917 342.213 1000.85 342.11 L 954.508 398.548 C 943.643 411.844 931.734 427.121 920.204 439.648 C 934.691 465.859 948.036 492.691 961.8 519.273 C 973.17 541.23 984.785 562.165 995.428 584.532 L 939.192 584.801 C 924.831 553.007 906.868 520.444 892.084 488.148 C 890.89 488.257 889.748 488.303 888.554 488.361 C 889.455 497.75 889.115 512.871 889.134 522.847 L 889.046 584.844 L 838.3 584.9 C 838.131 542.546 838.202 500.19 838.515 457.836 C 847.994 445.843 860.589 433.1 870.791 421.377 C 893.844 394.885 918.004 369.186 941.059 342.718 z" fill="rgb(254,254,254)" transform="translate(0,0)"></path>
<path d="M 888.554 488.361 C 889.569 483.104 889.739 483.84 892.084 488.148 C 890.89 488.257 889.748 488.303 888.554 488.361 z" fill="rgb(52,11,56)" transform="translate(0,0)"></path>
<path d="M 1134.39 341.365 C 1162.92 338.655 1186.54 356.072 1202.92 377.637 C 1190.09 386.105 1177.1 394.319 1163.94 402.272 C 1155.16 390.318 1142.97 385.39 1128.78 393.346 C 1125.3 395.3 1122.32 399.818 1121.75 403.829 C 1118.29 428.419 1142.75 428.496 1158.87 436.135 C 1173.72 443.42 1183.69 449.947 1192.63 463.312 C 1205.03 482.06 1209.53 504.947 1205.15 526.997 C 1196.61 569.685 1161.7 594.555 1118.63 586.026 C 1089.68 577.69 1076.75 561.074 1065.07 534.133 C 1075.37 526.791 1093.72 517.412 1105.03 511.318 C 1115.48 555.164 1163.47 548.136 1158.08 505.498 C 1153.98 473.115 1115.19 478.413 1094.69 460.475 C 1048.2 419.809 1072.17 348.374 1134.39 341.365 z" fill="rgb(254,254,254)" transform="translate(0,0)"></path>
<path d="M 1529.32 342.175 L 1578.45 342.09 C 1603.71 342.082 1623.03 343.119 1642.08 362.133 C 1658.9 376.245 1666.47 413.137 1652.59 431.397 C 1634.46 455.225 1602.08 483.868 1580.09 505.409 L 1579.92 584.704 L 1529 584.837 L 1529.02 568.75 L 1529.01 480.362 L 1578.11 435.668 C 1587.47 427.164 1598.06 418.755 1606.38 409.277 C 1607.81 407.648 1608.92 405.961 1609.2 403.748 C 1609.47 401.624 1608.85 398.917 1607.45 397.268 C 1605.93 395.462 1603.05 394.259 1600.66 394.19 C 1593.63 393.989 1538.53 450.967 1529.23 459.143 L 1529.32 342.175 z" fill="rgb(254,254,254)" transform="translate(0,0)"></path>
<path d="M 754.598 343.324 C 785.902 340.915 810.881 357.643 826.241 383.813 C 813.243 393.288 799.971 402.382 786.443 411.083 C 771.932 384.25 738.949 386.45 737.487 413.329 C 735.572 448.528 736.905 486.903 737.786 522.238 C 737.897 526.681 744.342 533.734 748.012 536.141 C 753.131 539.534 759.42 540.672 765.404 539.287 C 775.015 537.134 780.774 529.117 785.739 521.382 C 795.937 527.467 804.135 532.585 813.911 539.347 L 826.164 547.098 C 823.807 550.808 821.285 554.411 818.606 557.896 C 805.935 574.418 789.897 585.545 768.975 588.244 C 750.378 590.708 731.569 585.636 716.732 574.157 C 682.481 547.708 687.88 507.46 688.004 468.975 C 688.065 450.133 686.046 417.957 689.864 400.144 C 692.216 389.362 696.971 379.249 703.775 370.56 C 716.843 353.724 733.848 345.988 754.598 343.324 z" fill="rgb(254,254,254)" transform="translate(0,0)"></path>
<path d="M 1307.73 342.332 L 1359.07 342.204 L 1359.16 441.811 C 1332.09 464.593 1298.28 489.557 1269.95 511.492 C 1269.94 533.315 1270.79 563.617 1269.51 584.614 L 1217.49 584.694 C 1217.83 553.033 1217.96 521.371 1217.89 489.709 C 1246.55 465.738 1280.26 438.684 1307.64 413.875 C 1307.46 390.027 1307.49 366.179 1307.73 342.332 z" fill="rgb(254,254,254)" transform="translate(0,0)"></path>
<path d="M 1218.07 342.113 L 1269.89 342.143 L 1269.78 424.683 L 1246.52 443.725 C 1236.77 451.592 1228.21 458.354 1218.01 465.62 L 1218.07 342.113 z" fill="rgb(254,254,254)" transform="translate(0,0)"></path>
<path d="M 1358.48 459.775 C 1359.31 462.889 1359.07 491.233 1359.08 496.105 L 1359.1 584.79 L 1307.74 584.841 C 1306.85 559.917 1307.57 530.265 1307.51 504.959 C 1324.8 490.239 1341.79 475.174 1358.48 459.775 z" fill="rgb(254,254,254)" transform="translate(0,0)"></path>
<path d="M 838.573 342.26 L 888.821 342.225 L 888.778 379.617 C 881.557 388.945 870.766 400.139 862.671 408.996 C 854.884 417.807 846.968 426.503 838.926 435.082 C 839.05 404.141 838.933 373.2 838.573 342.26 z" fill="rgb(254,254,254)" transform="translate(0,0)"></path>
<path d="M 771.815 642.146 C 774.567 636.59 779.857 620.108 783.899 617.077 C 786.89 616.671 787.769 616.41 790.716 617.457 C 795.795 621.786 799.797 657.116 797.971 660.858 C 784.328 662.006 786.972 651.934 786.627 640.908 C 785.474 640.257 784.361 639.641 783.234 638.942 C 781.11 644.735 777.038 661.732 769.907 659.313 C 764.931 653.942 763.064 647.058 760.396 640.107 C 759.407 640.782 758.408 641.441 757.4 642.085 C 756.931 647.525 757.251 657.562 752.441 660.705 C 749.521 661.126 748.852 661.337 746.069 660.457 C 744.186 656.335 749.577 624.817 750.489 617.631 C 753.819 617.324 758.557 617.334 762.006 617.233 C 765.258 626.516 767.763 633.178 771.815 642.146 z" fill="rgb(254,254,254)" transform="translate(0,0)"></path>
<path d="M 783.234 638.942 C 786.12 633.843 785.784 636.611 786.627 640.908 C 785.474 640.257 784.361 639.641 783.234 638.942 z" fill="rgb(43,31,43)" transform="translate(0,0)"></path>
<path d="M 757.4 642.085 C 758.002 639.272 758.426 634.108 760.396 640.107 C 759.407 640.782 758.408 641.441 757.4 642.085 z" fill="rgb(43,31,43)" transform="translate(0,0)"></path>
<path d="M 1393.2 616.305 C 1394.3 616.338 1395.4 616.38 1396.5 616.432 C 1400.55 616.661 1420.62 621.621 1412.77 628.608 C 1405.98 634.653 1403.97 626.355 1397.5 625.171 C 1391.04 623.99 1384.48 628.202 1383.1 635.02 C 1382.44 640.354 1382.54 643.967 1385.26 648.381 C 1390.9 657.553 1406.94 651.387 1406.3 645.212 C 1406.14 643.64 1396.12 646.019 1395.32 643.967 C 1393.91 640.363 1394.9 638.419 1397.12 637.017 C 1399.56 637.008 1417.68 636.794 1417.99 637.373 C 1423.64 656.222 1395.62 668.951 1382.48 659.021 C 1362.57 643.965 1371.78 620.925 1393.2 616.305 z" fill="rgb(254,254,254)" transform="translate(0,0)"></path>
<path d="M 1531.08 612.676 C 1531.96 612.654 1540.48 612.144 1540.53 613.534 C 1541.05 628.945 1541.03 644.681 1540.63 660.111 C 1540.62 660.389 1540.33 660.653 1540.07 660.72 C 1537.97 661.047 1530.69 662.379 1530.64 659.116 C 1530.63 658.02 1526.49 660.819 1525.55 661.243 C 1522.47 662.62 1518.9 662.075 1515.53 661.762 C 1511.02 658.77 1507.87 656.674 1506.38 650.903 C 1503.05 637.933 1517.42 625.949 1529.01 634.109 C 1529.4 634.384 1530.19 634.816 1530.69 634.696 C 1531.36 633.388 1531.08 615.377 1531.08 612.676 z" fill="rgb(254,254,254)" transform="translate(0,0)"></path>
<path d="M 1521.78 640.178 C 1524.23 639.424 1526.9 640.059 1528.75 641.837 C 1530.6 643.615 1531.35 646.256 1530.69 648.739 C 1530.04 651.221 1528.09 653.154 1525.6 653.789 C 1521.88 654.739 1518.09 652.547 1517.05 648.851 C 1516.01 645.155 1518.11 641.305 1521.78 640.178 z" fill="rgb(52,11,56)" transform="translate(0,0)"></path>
<path d="M 598.086 631.172 C 602.546 631.65 605.223 632.108 609.147 634.346 C 609.704 634.664 610.548 632.859 611.302 632.474 C 612.967 631.624 617.397 631.238 618.971 632.52 C 619.52 641.497 619.694 651.558 618.845 660.491 C 618.685 662.18 610.602 660.631 608.619 659.404 C 584.603 670.714 574.938 638.071 598.086 631.172 z" fill="rgb(254,254,254)" transform="translate(0,0)"></path>
<path d="M 599.112 640.541 C 601.448 639.294 604.278 639.411 606.503 640.848 C 608.729 642.285 610 644.816 609.824 647.459 C 609.649 650.102 608.054 652.443 605.658 653.572 C 602.078 655.26 597.806 653.786 596.029 650.249 C 594.253 646.713 595.62 642.405 599.112 640.541 z" fill="rgb(52,11,56)" transform="translate(0,0)"></path>
<path d="M 946.173 631.189 C 949.841 631.593 952.289 632.124 955.613 633.661 C 954.996 633.375 966.124 630.268 966.533 634.296 C 967.249 642.426 967.317 652.019 966.504 660.107 C 966.329 661.849 958.609 661.308 956.294 659.441 L 955.875 659.15 C 933.353 671.104 921.007 638.412 946.173 631.189 z" fill="rgb(254,254,254)" transform="translate(0,0)"></path>
<path d="M 948.895 640.222 C 952.693 639.595 956.296 642.115 957.01 645.898 C 957.725 649.68 955.288 653.341 951.523 654.142 C 949.009 654.677 946.403 653.809 944.712 651.873 C 943.021 649.937 942.511 647.237 943.38 644.818 C 944.248 642.399 946.359 640.64 948.895 640.222 z" fill="rgb(52,11,56)" transform="translate(0,0)"></path>
<path d="M 434.265 616.266 C 439.262 616.326 444.414 616.632 449.138 618.491 C 450.926 619.195 450.442 628.659 449.685 629.564 C 449.262 629.71 444.835 627.35 444 627.034 C 433.21 622.061 416.748 633.22 424.48 645.129 C 432.016 656.737 441.642 652.982 450.595 647.647 C 450.717 655.973 453.366 659.268 445.166 661.25 C 410.602 669.605 396.953 623.412 434.265 616.266 z" fill="rgb(254,254,254)" transform="translate(0,0)"></path>
<path d="M 1480.42 631.279 C 1503.3 633.05 1507.29 654.953 1484.11 662.306 C 1475.56 661.641 1467.2 659.918 1464.38 650.402 C 1463.3 646.699 1463.81 642.716 1465.77 639.401 C 1468.24 635.294 1472.9 632.806 1477.48 631.859 L 1480.42 631.279 z" fill="rgb(254,254,254)" transform="translate(0,0)"></path>
<path d="M 1477.34 641.335 C 1479.41 639.787 1482.16 639.487 1484.52 640.551 C 1486.88 641.616 1488.48 643.877 1488.69 646.457 C 1488.91 649.037 1487.7 651.529 1485.55 652.966 C 1482.34 655.108 1478 654.302 1475.78 651.149 C 1473.55 647.996 1474.24 643.643 1477.34 641.335 z" fill="rgb(52,11,56)" transform="translate(0,0)"></path>
<path d="M 1143.32 631.161 C 1166.57 632.19 1171.87 655.243 1149.54 662.34 C 1145.93 662.193 1141.1 662.503 1138 660.73 C 1121.81 651.474 1127.14 635.71 1143.32 631.161 z" fill="rgb(254,254,254)" transform="translate(0,0)"></path>
<path d="M 1143.43 640.47 C 1147.05 639.014 1151.16 640.772 1152.61 644.394 C 1154.06 648.017 1152.3 652.127 1148.67 653.57 C 1145.06 655.008 1140.96 653.248 1139.51 649.636 C 1138.07 646.023 1139.82 641.923 1143.43 640.47 z" fill="rgb(52,11,56)" transform="translate(0,0)"></path>
<path d="M 485.247 632.058 L 497.072 631.987 L 506.139 648.825 C 508.655 643.468 511.355 637.86 513.789 632.514 C 515.613 632.512 523.541 632.26 524.679 633.272 C 524.805 634.166 513.336 654.111 512.045 656.571 C 508.15 662.744 504.941 669.372 500.955 675.436 C 500.37 676.327 492.205 676.425 491.414 675.379 C 491.388 673.599 499.158 659.722 500.549 657.092 C 495.359 648.053 491.109 640.831 485.247 632.058 z" fill="rgb(254,254,254)" transform="translate(0,0)"></path>
<path d="M 1096.67 616.977 C 1099.13 616.974 1121.35 616.482 1121.67 617.65 C 1126.72 631.575 1108.31 623.119 1106.87 626.575 C 1100.29 642.396 1122.18 629.599 1121.94 637.947 C 1121.74 644.796 1122.5 640.878 1120.73 642.97 L 1106.12 642.977 C 1106.1 648.125 1106.62 655.368 1105.63 660.329 C 1105.29 662.009 1096.65 661.517 1096.62 660.513 C 1096.11 646.173 1096.54 631.424 1096.67 616.977 z" fill="rgb(254,254,254)" transform="translate(0,0)"></path>
<path d="M 1435.79 632.221 C 1452.26 630.349 1455.06 633.858 1458.25 648.78 C 1455.25 648.746 1436.25 648.129 1436.17 649.393 C 1435.78 655.427 1441.9 658.637 1448.2 651.682 C 1451.9 652.496 1461.35 653.616 1453 659.072 C 1433.92 671.554 1412.71 646.699 1435.79 632.221 z" fill="rgb(254,254,254)" transform="translate(0,0)"></path>
<path d="M 1438.4 637.712 C 1440.21 637.826 1451.91 638.686 1446.83 642.987 C 1440.89 642.979 1433.37 645.347 1438.02 638.35 L 1438.4 637.712 z" fill="rgb(52,11,56)" transform="translate(0,0)"></path>
<path d="M 1558.91 632.249 C 1567.63 631.363 1576.7 630.848 1580.62 641.598 C 1585.26 654.325 1567.39 646.568 1560.59 649.076 C 1558.78 649.744 1561.37 660.339 1573.26 651.835 C 1577.51 653.29 1582.67 653.323 1576.43 658.899 C 1572.8 662.149 1566.74 662.648 1562.01 661.955 C 1558.03 661.396 1554.47 659.18 1552.21 655.855 C 1545.92 646.741 1550.82 637.755 1558.91 632.249 z" fill="rgb(254,254,254)" transform="translate(0,0)"></path>
<path d="M 1562.19 637.621 C 1564.52 637.822 1574.59 638.413 1570.73 643.178 C 1563.03 643.136 1557.19 645.624 1562.19 637.621 z" fill="rgb(52,11,56)" transform="translate(0,0)"></path>
<path d="M 882.349 631.267 C 884.266 631.43 886.653 631.628 888.504 632.054 C 891.968 632.833 894.955 635.011 896.758 638.07 C 909.252 659.085 872.346 641.396 878.325 652.698 C 881.479 658.66 890.38 652.072 896.686 652.416 C 898.994 665.817 869.801 665.147 867.525 650.439 C 865.668 638.444 871.577 633.598 882.349 631.267 z" fill="rgb(254,254,254)" transform="translate(0,0)"></path>
<path d="M 880.915 637.725 C 883.145 637.905 889.851 638.369 889.397 642.011 C 888.705 642.886 888.342 642.833 887.174 643.1 C 879.636 643.012 873.697 645.102 880.915 637.725 z" fill="rgb(52,11,56)" transform="translate(0,0)"></path>
<path d="M 828.078 632.167 C 834.425 632.221 834.642 630.522 838.099 634.703 C 839.25 635.022 843.312 632.035 845.955 631.899 C 860.477 631.153 859.144 642.266 859.003 652.815 C 858.99 653.818 859.329 660.497 858.367 660.703 C 846.585 663.226 849.172 658.449 849.16 649.75 C 849.231 646.143 850.038 638.418 842.6 639.349 C 830.006 640.923 846.835 667.053 828.449 660.328 C 827.636 660.03 827.98 635.86 828.078 632.167 z" fill="rgb(254,254,254)" transform="translate(0,0)"></path>
<path d="M 539.826 631.097 C 544.065 631.124 546.445 631.072 550.855 632.34 C 554.375 633.352 551.577 636.52 550.543 638.857 C 549.69 640.784 544.78 637.108 542.619 638.187 C 541.558 638.03 540.46 640.347 541.24 640.98 C 544.689 643.781 552.352 643.014 553.811 648.999 C 555.725 656.845 551.532 660.299 544.424 662.516 C 540.326 662.26 529.278 662.623 530.951 657.039 C 533.443 648.723 536.304 656.701 542.036 655.257 C 543.828 654.806 544.763 653.567 544.088 651.825 C 540.238 648.741 533.283 649.481 531.368 643.432 C 529.232 636.684 534.475 633.336 539.826 631.097 z" fill="rgb(254,254,254)" transform="translate(0,0)"></path>
<path d="M 1212.9 631.064 C 1215.44 631.116 1223.75 631.406 1225.4 633.271 C 1225.66 642.868 1216.89 636.144 1213.12 639.07 C 1212.62 643.018 1219.77 642.012 1221.99 643.87 C 1230.61 651.094 1226.85 660.064 1216.54 662.457 C 1209.71 661.859 1199.34 662.021 1204.42 654.596 C 1205.44 650.764 1212.8 657.49 1215.38 654.919 C 1222.62 647.707 1198.66 651.22 1204.58 637.765 C 1206.53 633.326 1209.69 632.452 1212.9 631.064 z" fill="rgb(254,254,254)" transform="translate(0,0)"></path>
<path d="M 1182 631.192 C 1185.1 631.368 1191.24 631.54 1193.62 633.598 C 1194.12 634.035 1192.02 638.454 1191.58 638.869 C 1189.88 640.191 1188.33 637.869 1185.99 637.964 C 1184.85 638.011 1181.55 639.027 1182.24 640.479 C 1183.34 642.803 1188.45 642.674 1190.69 644.375 C 1192.82 645.987 1194.7 647.042 1195.14 649.997 C 1196.4 659.065 1190.29 661.414 1183 662.533 C 1179.12 662.016 1166.38 662.065 1173.66 653.155 C 1174.8 651.75 1181.3 657.097 1183.93 655.403 C 1190.99 650.192 1178.82 649.436 1176.99 648.21 C 1166.05 640.892 1174.88 633.499 1182 631.192 z" fill="rgb(254,254,254)" transform="translate(0,0)"></path>
<path d="M 1595.77 632.199 C 1600.01 631.707 1606.22 630.702 1609.83 633.61 C 1610.6 635.771 1608.74 640.931 1605.6 638.886 C 1604.26 637.199 1597.43 637.813 1599.31 640.788 C 1601.05 643.532 1610.76 642.868 1611.95 648.41 C 1613.8 657.082 1609.16 660.19 1602.66 662.363 C 1598.12 662.058 1591.2 662.111 1587.66 658.624 C 1586.59 657.581 1590.38 653.334 1591.6 652.912 L 1591.69 653.04 C 1594.04 653.987 1601.37 657.31 1602.7 653.384 C 1601.47 648.243 1577.5 646.26 1595.77 632.199 z" fill="rgb(254,254,254)" transform="translate(0,0)"></path>
<path d="M 1284.07 631.119 C 1287.37 631.178 1292.72 631.219 1295.4 633.129 C 1296.31 633.773 1294.72 639.916 1291.62 638.655 C 1289.47 637.781 1286.41 638.193 1284.18 638.731 L 1283.63 639.919 C 1284.96 643.795 1296.21 642.909 1297.05 649.466 C 1298.43 660.211 1291.61 661.542 1282.95 662.446 C 1269.54 659.592 1274.61 655.83 1277.06 652.259 C 1278.98 653.472 1284.54 656.535 1286.5 655.127 C 1293.59 650.054 1277.41 650.541 1275.41 644.627 C 1272.55 636.154 1277.41 633.642 1284.07 631.119 z" fill="rgb(254,254,254)" transform="translate(0,0)"></path>
<path d="M 655.59 632.094 C 658.996 631.882 676.331 629.798 667.582 638.469 C 665.956 638.706 659.349 636.746 658.529 639.246 C 656.881 644.266 669.768 641.312 670.936 648.965 C 672.27 657.701 668.334 660.877 660.62 662.349 C 657.73 662.139 645.287 662.225 647.607 656.796 C 649.163 653.01 650.761 652.565 654.211 654.561 C 656.014 655.605 662.07 656.131 661.941 652.967 C 660.591 648.311 653.185 649.942 649.922 645.522 C 645.508 639.543 649.661 635.684 655.59 632.094 z" fill="rgb(254,254,254)" transform="translate(0,0)"></path>
<path d="M 1003.63 632.13 C 1006.17 631.884 1018.78 630.493 1017.36 635.073 C 1017.23 635.582 1017.1 636.091 1016.97 636.6 C 1016.09 643.241 1005.61 633.593 1005.56 641.001 C 1005.56 641.984 1012.55 643.298 1014.01 643.795 C 1019.59 645.702 1020.16 652.261 1018.22 657.008 C 1016.96 660.023 1012.8 661.459 1009.66 662.376 C 1006.49 662.14 997.843 662.158 995.348 658.726 C 994.782 657.879 997.519 653.149 998.087 653.295 C 1000.27 653.855 1009.74 658.487 1010.12 652.95 C 1010.44 648.512 1000.51 649.92 997.537 645.139 C 993.637 638.875 998.393 635.256 1003.63 632.13 z" fill="rgb(254,254,254)" transform="translate(0,0)"></path>
<path d="M 628.97 612.867 C 631.069 612.842 636.666 612.152 638.266 613.565 C 639.302 614.478 638.722 656.105 638.701 661.034 C 636.63 661.085 631.292 661.771 629.611 660.507 C 628.396 659.594 628.966 618.515 628.97 612.867 z" fill="rgb(254,254,254)" transform="translate(0,0)"></path>
<path d="M 563.933 623.132 C 577.797 623.233 572.11 622.514 574.321 631.761 C 574.567 632.79 578.669 631.783 579.08 632.881 C 581.289 638.775 579.579 639.533 574.443 640.539 C 573.384 640.769 573.853 658.894 573.847 660.626 C 552.643 664.631 571.48 645.647 560.407 639.29 C 559.359 638.688 558.904 632.165 563.021 632.115 C 564.196 632.101 563.912 624.065 563.933 623.132 z" fill="rgb(254,254,254)" transform="translate(0,0)"></path>
<path d="M 976.901 612.814 C 978.364 612.793 984.653 612.196 985.78 613.32 C 987.146 614.683 986.224 655.683 986.196 661.009 C 974.212 660.976 977.019 662.147 976.888 648.849 C 976.769 636.86 976.849 624.807 976.901 612.814 z" fill="rgb(254,254,254)" transform="translate(0,0)"></path>
<path d="M 1254.98 612.723 C 1256.71 612.706 1262.67 612.138 1263.78 613.304 C 1265.08 614.678 1264.33 655.696 1264.32 660.976 L 1258.49 661.001 C 1255.81 660.997 1254.95 660.98 1254.95 658.024 C 1254.92 642.93 1254.96 627.816 1254.98 612.723 z" fill="rgb(254,254,254)" transform="translate(0,0)"></path>
<path d="M 926.695 630.858 C 928.488 633.494 929.906 641.715 924.004 640.994 C 914.443 639.826 917.453 653.735 916.967 659.12 C 916.704 662.033 909.035 662.03 907.163 659.72 C 907.161 651.782 906.801 641.436 907.4 633.435 C 907.519 631.856 915.331 632.057 916.449 632.868 C 917.849 633.883 916.745 636.09 917.741 636.889 C 916.153 636.928 925.1 631.514 926.695 630.858 z" fill="rgb(254,254,254)" transform="translate(0,0)"></path>
<path d="M 474.455 632.076 C 476.579 632.06 479.002 631.826 481.059 632.188 C 482.487 632.44 481.234 639.86 480.828 640.35 C 479.762 641.637 475.66 640.137 474.03 640.883 C 466.957 644.119 470.324 654.174 468.764 659.944 C 468.393 661.219 464.077 661.93 462.41 662.399 C 462.147 662.194 460.328 660.883 460.295 660.667 C 459.066 652.349 459.89 642.974 459.861 634.426 C 459.851 631.633 467.362 632.726 468.947 633.208 C 469.921 633.504 469.632 635.841 469.992 636.81 L 470.178 636.882 C 471.693 636.24 472.675 634.039 474.455 632.076 z" fill="rgb(254,254,254)" transform="translate(0,0)"></path>
<path d="M 808.614 632.406 C 818.295 632.502 818.176 630.596 818.027 640.586 C 817.928 647.234 818.019 654.306 818.001 661.006 C 816.094 660.982 810.772 661.649 809.298 660.512 C 807.553 659.166 808.531 636.267 808.614 632.406 z" fill="rgb(254,254,254)" transform="translate(0,0)"></path>
<path d="M 1235.73 632.666 C 1247.29 632.582 1244.62 631.876 1244.98 643.582 C 1245.15 649.382 1244.96 655.335 1244.95 661.147 C 1233.52 661.361 1236.05 662.187 1235.8 650.483 C 1235.68 644.59 1235.76 638.566 1235.73 632.666 z" fill="rgb(254,254,254)" transform="translate(0,0)"></path>
<path d="M 1055.22 634.555 C 1059.35 633.8 1063.34 636.468 1064.22 640.578 C 1065.1 644.688 1062.55 648.751 1058.46 649.75 C 1055.71 650.423 1052.81 649.547 1050.9 647.463 C 1048.98 645.38 1048.35 642.418 1049.25 639.733 C 1050.15 637.047 1052.43 635.064 1055.22 634.555 z" fill="rgb(254,254,254)" transform="translate(0,0)"></path>
<path d="M 704.699 635.458 C 707.19 634.081 710.236 634.188 712.625 635.736 C 715.013 637.285 716.354 640.022 716.114 642.858 C 715.874 645.694 714.091 648.167 711.477 649.292 C 707.7 650.916 703.313 649.293 701.505 645.601 C 699.696 641.909 701.101 637.447 704.699 635.458 z" fill="rgb(254,254,254)" transform="translate(0,0)"></path>
<path d="M 1330.56 635.612 C 1334.15 633.514 1338.76 634.687 1340.92 638.247 C 1343.08 641.807 1341.98 646.438 1338.45 648.652 C 1336.12 650.117 1333.18 650.211 1330.76 648.898 C 1328.34 647.585 1326.82 645.069 1326.77 642.315 C 1326.73 639.562 1328.18 637 1330.56 635.612 z" fill="rgb(254,254,254)" transform="translate(0,0)"></path>
<path d="M 811.126 615.484 C 813.876 614.285 817.083 615.454 818.417 618.141 C 819.752 620.828 818.744 624.09 816.127 625.556 C 814.314 626.571 812.089 626.506 810.339 625.385 C 808.589 624.264 807.599 622.27 807.764 620.199 C 807.929 618.127 809.221 616.315 811.126 615.484 z" fill="rgb(254,254,254)" transform="translate(0,0)"></path>
<path d="M 1237.64 615.503 C 1239.47 614.438 1241.73 614.482 1243.51 615.616 C 1245.29 616.75 1246.28 618.784 1246.08 620.884 C 1245.88 622.984 1244.53 624.797 1242.57 625.579 C 1239.84 626.671 1236.72 625.471 1235.43 622.826 C 1234.14 620.182 1235.1 616.988 1237.64 615.503 z" fill="rgb(254,254,254)" transform="translate(0,0)"></path>
<metadata><recraft-signature>{"signed_by": "recraft", "signature_b64": "3gFwzXCNgTf76ov50nu4XKq7LXcoyRYqA8MrnqOjD9843qsWwq73KMoKv/dqI0im/+ddqATO4ajOXeimaOL/CQ==", "signing_algo": "Ed25519", "generation_timestamp": 1780248014, "identifier": "38dd286f-11fa-42ed-bde5-f388a3f2e82c"}</recraft-signature></metadata></svg>